<?xml version="1.0" encoding="utf-8" standalone="no"?>
<!DOCTYPE svg PUBLIC "-//W3C//DTD SVG 1.1//EN"
  "http://www.w3.org/Graphics/SVG/1.1/DTD/svg11.dtd">
<svg xmlns:xlink="http://www.w3.org/1999/xlink" width="324pt" height="288pt" viewBox="0 0 324 288" xmlns="http://www.w3.org/2000/svg" version="1.1">
 <metadata>
  <rdf:RDF xmlns:dc="http://purl.org/dc/elements/1.1/" xmlns:cc="http://creativecommons.org/ns#" xmlns:rdf="http://www.w3.org/1999/02/22-rdf-syntax-ns#">
   <cc:Work>
    <dc:type rdf:resource="http://purl.org/dc/dcmitype/StillImage"/>
    <dc:date>2025-02-16T01:37:10.556402</dc:date>
    <dc:format>image/svg+xml</dc:format>
    <dc:creator>
     <cc:Agent>
      <dc:title>Matplotlib v3.6.3, https://matplotlib.org/</dc:title>
     </cc:Agent>
    </dc:creator>
   </cc:Work>
  </rdf:RDF>
 </metadata>
 <defs>
  <style type="text/css">*{stroke-linejoin: round; stroke-linecap: butt}</style>
 </defs>
 <g id="figure_1">
  <g id="patch_1">
   <path d="M 0 288 
L 324 288 
L 324 0 
L 0 0 
z
" style="fill: #ffffff"/>
  </g>
  <g id="axes_1">
   <g id="patch_2">
    <path d="M 50.9625 129.91786 
L 71.8875 129.91786 
L 71.8875 113.384278 
L 50.9625 113.384278 
z
" clip-path="url(#pf4ff90f61f)" style="opacity: 0.05; stroke: #000000; stroke-linejoin: miter"/>
   </g>
   <g id="patch_3">
    <path d="M 92.8125 129.91786 
L 113.7375 129.91786 
L 113.7375 111.767502 
L 92.8125 111.767502 
z
" clip-path="url(#pf4ff90f61f)" style="opacity: 0.05; stroke: #000000; stroke-linejoin: miter"/>
   </g>
   <g id="patch_4">
    <path d="M 134.6625 129.91786 
L 155.5875 129.91786 
L 155.5875 116.145247 
L 134.6625 116.145247 
z
" clip-path="url(#pf4ff90f61f)" style="opacity: 0.05; stroke: #000000; stroke-linejoin: miter"/>
   </g>
   <g id="patch_5">
    <path d="M 176.5125 129.91786 
L 197.4375 129.91786 
L 197.4375 104.607368 
L 176.5125 104.607368 
z
" clip-path="url(#pf4ff90f61f)" style="opacity: 0.05; stroke: #000000; stroke-linejoin: miter"/>
   </g>
   <g id="PathCollection_1">
    <defs>
     <path id="C0_0_e3b237f773" d="M 0 0.632456 
C 0.167729 0.632456 0.328611 0.565816 0.447214 0.447214 
C 0.565816 0.328611 0.632456 0.167729 0.632456 -0 
C 0.632456 -0.167729 0.565816 -0.328611 0.447214 -0.447214 
C 0.328611 -0.565816 0.167729 -0.632456 0 -0.632456 
C -0.167729 -0.632456 -0.328611 -0.565816 -0.447214 -0.447214 
C -0.565816 -0.328611 -0.632456 -0.167729 -0.632456 0 
C -0.632456 0.167729 -0.565816 0.328611 -0.447214 0.447214 
C -0.328611 0.565816 -0.167729 0.632456 0 0.632456 
z
"/>
    </defs>
    <g clip-path="url(#pf4ff90f61f)">
     <use xlink:href="#C0_0_e3b237f773" x="61.425" y="129.91786" style="stroke: #000000"/>
    </g>
    <g clip-path="url(#pf4ff90f61f)">
     <use xlink:href="#C0_0_e3b237f773" x="63.048106" y="129.91786" style="fill: #808080; stroke: #808080"/>
    </g>
    <g clip-path="url(#pf4ff90f61f)">
     <use xlink:href="#C0_0_e3b237f773" x="61.425" y="125.45384" style="stroke: #000000"/>
    </g>
    <g clip-path="url(#pf4ff90f61f)">
     <use xlink:href="#C0_0_e3b237f773" x="61.425" y="119.979981" style="fill: #808080; stroke: #808080"/>
    </g>
    <g clip-path="url(#pf4ff90f61f)">
     <use xlink:href="#C0_0_e3b237f773" x="62.863029" y="118.850944" style="stroke: #000000"/>
    </g>
    <g clip-path="url(#pf4ff90f61f)">
     <use xlink:href="#C0_0_e3b237f773" x="61.425" y="116.822577" style="stroke: #000000"/>
    </g>
    <g clip-path="url(#pf4ff90f61f)">
     <use xlink:href="#C0_0_e3b237f773" x="62.836005" y="115.619266" style="stroke: #000000"/>
    </g>
    <g clip-path="url(#pf4ff90f61f)">
     <use xlink:href="#C0_0_e3b237f773" x="64.358249" y="114.774396" style="fill: #808080; stroke: #808080"/>
    </g>
    <g clip-path="url(#pf4ff90f61f)">
     <use xlink:href="#C0_0_e3b237f773" x="65.977892" y="114.615466" style="stroke: #000000"/>
    </g>
    <g clip-path="url(#pf4ff90f61f)">
     <use xlink:href="#C0_0_e3b237f773" x="61.425" y="112.987178" style="fill: #808080; stroke: #808080"/>
    </g>
    <g clip-path="url(#pf4ff90f61f)">
     <use xlink:href="#C0_0_e3b237f773" x="62.93814" y="112.106283" style="stroke: #000000"/>
    </g>
    <g clip-path="url(#pf4ff90f61f)">
     <use xlink:href="#C0_0_e3b237f773" x="61.425" y="109.691292" style="fill: #808080; stroke: #808080"/>
    </g>
    <g clip-path="url(#pf4ff90f61f)">
     <use xlink:href="#C0_0_e3b237f773" x="62.872386" y="108.589485" style="fill: #808080; stroke: #808080"/>
    </g>
    <g clip-path="url(#pf4ff90f61f)">
     <use xlink:href="#C0_0_e3b237f773" x="64.365515" y="107.634847" style="stroke: #000000"/>
    </g>
    <g clip-path="url(#pf4ff90f61f)">
     <use xlink:href="#C0_0_e3b237f773" x="61.425" y="106.879401" style="stroke: #000000"/>
    </g>
    <g clip-path="url(#pf4ff90f61f)">
     <use xlink:href="#C0_0_e3b237f773" x="61.425" y="98.145151" style="stroke: #000000"/>
    </g>
    <g clip-path="url(#pf4ff90f61f)">
     <use xlink:href="#C0_0_e3b237f773" x="61.425" y="85.546894" style="fill: #808080; stroke: #808080"/>
    </g>
   </g>
   <g id="PathCollection_2">
    <defs>
     <path id="C1_0_c7fb026c25" d="M 0 0.632456 
C 0.167729 0.632456 0.328611 0.565816 0.447214 0.447214 
C 0.565816 0.328611 0.632456 0.167729 0.632456 -0 
C 0.632456 -0.167729 0.565816 -0.328611 0.447214 -0.447214 
C 0.328611 -0.565816 0.167729 -0.632456 0 -0.632456 
C -0.167729 -0.632456 -0.328611 -0.565816 -0.447214 -0.447214 
C -0.565816 -0.328611 -0.632456 -0.167729 -0.632456 0 
C -0.632456 0.167729 -0.565816 0.328611 -0.447214 0.447214 
C -0.328611 0.565816 -0.167729 0.632456 0 0.632456 
z
"/>
    </defs>
    <g clip-path="url(#pf4ff90f61f)">
     <use xlink:href="#C1_0_c7fb026c25" x="103.275" y="129.91786" style="fill: #ff4500; stroke: #ff4500"/>
    </g>
    <g clip-path="url(#pf4ff90f61f)">
     <use xlink:href="#C1_0_c7fb026c25" x="104.353765" y="128.098749" style="fill: #ff4500; stroke: #ff4500"/>
    </g>
    <g clip-path="url(#pf4ff90f61f)">
     <use xlink:href="#C1_0_c7fb026c25" x="103.275" y="125.961356" style="fill: #ff4500; stroke: #ff4500"/>
    </g>
    <g clip-path="url(#pf4ff90f61f)">
     <use xlink:href="#C1_0_c7fb026c25" x="103.275" y="119.624826" style="fill: #ff4500; stroke: #ff4500"/>
    </g>
    <g clip-path="url(#pf4ff90f61f)">
     <use xlink:href="#C1_0_c7fb026c25" x="104.726338" y="118.53478" style="fill: #ff4500; stroke: #ff4500"/>
    </g>
    <g clip-path="url(#pf4ff90f61f)">
     <use xlink:href="#C1_0_c7fb026c25" x="103.275" y="115.859992" style="fill: #ff4500; stroke: #ff4500"/>
    </g>
    <g clip-path="url(#pf4ff90f61f)">
     <use xlink:href="#C1_0_c7fb026c25" x="103.275" y="113.307686" style="fill: #ff4500; stroke: #ff4500"/>
    </g>
    <g clip-path="url(#pf4ff90f61f)">
     <use xlink:href="#C1_0_c7fb026c25" x="103.275" y="109.724243" style="fill: #ff4500; stroke: #ff4500"/>
    </g>
    <g clip-path="url(#pf4ff90f61f)">
     <use xlink:href="#C1_0_c7fb026c25" x="103.275" y="105.884606" style="fill: #ff4500; stroke: #ff4500"/>
    </g>
    <g clip-path="url(#pf4ff90f61f)">
     <use xlink:href="#C1_0_c7fb026c25" x="104.597792" y="104.473734" style="fill: #ff4500; stroke: #ff4500"/>
    </g>
    <g clip-path="url(#pf4ff90f61f)">
     <use xlink:href="#C1_0_c7fb026c25" x="103.275" y="102.875218" style="fill: #ff4500; stroke: #ff4500"/>
    </g>
    <g clip-path="url(#pf4ff90f61f)">
     <use xlink:href="#C1_0_c7fb026c25" x="103.789633" y="100.566181" style="fill: #ff4500; stroke: #ff4500"/>
    </g>
    <g clip-path="url(#pf4ff90f61f)">
     <use xlink:href="#C1_0_c7fb026c25" x="103.275" y="78.148289" style="fill: #ff4500; stroke: #ff4500"/>
    </g>
   </g>
   <g id="PathCollection_3">
    <defs>
     <path id="C2_0_5b38d827c4" d="M 0 0.632456 
C 0.167729 0.632456 0.328611 0.565816 0.447214 0.447214 
C 0.565816 0.328611 0.632456 0.167729 0.632456 -0 
C 0.632456 -0.167729 0.565816 -0.328611 0.447214 -0.447214 
C 0.328611 -0.565816 0.167729 -0.632456 0 -0.632456 
C -0.167729 -0.632456 -0.328611 -0.565816 -0.447214 -0.447214 
C -0.565816 -0.328611 -0.632456 -0.167729 -0.632456 0 
C -0.632456 0.167729 -0.565816 0.328611 -0.447214 0.447214 
C -0.328611 0.565816 -0.167729 0.632456 0 0.632456 
z
"/>
    </defs>
    <g clip-path="url(#pf4ff90f61f)">
     <use xlink:href="#C2_0_5b38d827c4" x="145.125" y="129.91786" style="fill: #808080; stroke: #808080"/>
    </g>
    <g clip-path="url(#pf4ff90f61f)">
     <use xlink:href="#C2_0_5b38d827c4" x="146.748106" y="129.91786" style="fill: #808080; stroke: #808080"/>
    </g>
    <g clip-path="url(#pf4ff90f61f)">
     <use xlink:href="#C2_0_5b38d827c4" x="148.371211" y="129.91786" style="fill: #808080; stroke: #808080"/>
    </g>
    <g clip-path="url(#pf4ff90f61f)">
     <use xlink:href="#C2_0_5b38d827c4" x="149.994317" y="129.91786" style="fill: #808080; stroke: #808080"/>
    </g>
    <g clip-path="url(#pf4ff90f61f)">
     <use xlink:href="#C2_0_5b38d827c4" x="151.617422" y="129.91786" style="stroke: #000000"/>
    </g>
    <g clip-path="url(#pf4ff90f61f)">
     <use xlink:href="#C2_0_5b38d827c4" x="153.229641" y="129.636342" style="fill: #808080; stroke: #808080"/>
    </g>
    <g clip-path="url(#pf4ff90f61f)">
     <use xlink:href="#C2_0_5b38d827c4" x="154.646341" y="128.448183" style="stroke: #000000"/>
    </g>
    <g clip-path="url(#pf4ff90f61f)">
     <use xlink:href="#C2_0_5b38d827c4" x="156.269172" y="128.403365" style="stroke: #000000"/>
    </g>
    <g clip-path="url(#pf4ff90f61f)">
     <use xlink:href="#C2_0_5b38d827c4" x="145.125" y="126.326577" style="stroke: #000000"/>
    </g>
    <g clip-path="url(#pf4ff90f61f)">
     <use xlink:href="#C2_0_5b38d827c4" x="146.732141" y="125.985937" style="stroke: #000000"/>
    </g>
    <g clip-path="url(#pf4ff90f61f)">
     <use xlink:href="#C2_0_5b38d827c4" x="148.30926" y="125.410505" style="fill: #808080; stroke: #808080"/>
    </g>
    <g clip-path="url(#pf4ff90f61f)">
     <use xlink:href="#C2_0_5b38d827c4" x="149.696945" y="124.147649" style="stroke: #000000"/>
    </g>
    <g clip-path="url(#pf4ff90f61f)">
     <use xlink:href="#C2_0_5b38d827c4" x="145.125" y="123.494342" style="stroke: #000000"/>
    </g>
    <g clip-path="url(#pf4ff90f61f)">
     <use xlink:href="#C2_0_5b38d827c4" x="146.717155" y="123.021155" style="stroke: #000000"/>
    </g>
    <g clip-path="url(#pf4ff90f61f)">
     <use xlink:href="#C2_0_5b38d827c4" x="148.26997" y="122.312435" style="stroke: #000000"/>
    </g>
    <g clip-path="url(#pf4ff90f61f)">
     <use xlink:href="#C2_0_5b38d827c4" x="149.965462" y="121.746539" style="stroke: #000000"/>
    </g>
    <g clip-path="url(#pf4ff90f61f)">
     <use xlink:href="#C2_0_5b38d827c4" x="145.125" y="117.99622" style="fill: #808080; stroke: #808080"/>
    </g>
    <g clip-path="url(#pf4ff90f61f)">
     <use xlink:href="#C2_0_5b38d827c4" x="146.476599" y="116.648178" style="stroke: #000000"/>
    </g>
    <g clip-path="url(#pf4ff90f61f)">
     <use xlink:href="#C2_0_5b38d827c4" x="148.066849" y="116.160793" style="stroke: #000000"/>
    </g>
    <g clip-path="url(#pf4ff90f61f)">
     <use xlink:href="#C2_0_5b38d827c4" x="145.125" y="115.206155" style="fill: #808080; stroke: #808080"/>
    </g>
    <g clip-path="url(#pf4ff90f61f)">
     <use xlink:href="#C2_0_5b38d827c4" x="146.397136" y="113.694097" style="fill: #808080; stroke: #808080"/>
    </g>
    <g clip-path="url(#pf4ff90f61f)">
     <use xlink:href="#C2_0_5b38d827c4" x="145.125" y="111.376371" style="fill: #808080; stroke: #808080"/>
    </g>
    <g clip-path="url(#pf4ff90f61f)">
     <use xlink:href="#C2_0_5b38d827c4" x="145.125" y="108.783803" style="fill: #808080; stroke: #808080"/>
    </g>
    <g clip-path="url(#pf4ff90f61f)">
     <use xlink:href="#C2_0_5b38d827c4" x="146.668316" y="108.02984" style="stroke: #000000"/>
    </g>
    <g clip-path="url(#pf4ff90f61f)">
     <use xlink:href="#C2_0_5b38d827c4" x="145.125" y="106.207869" style="fill: #808080; stroke: #808080"/>
    </g>
    <g clip-path="url(#pf4ff90f61f)">
     <use xlink:href="#C2_0_5b38d827c4" x="147.684139" y="106.130947" style="stroke: #000000"/>
    </g>
    <g clip-path="url(#pf4ff90f61f)">
     <use xlink:href="#C2_0_5b38d827c4" x="149.122943" y="105.004135" style="fill: #808080; stroke: #808080"/>
    </g>
    <g clip-path="url(#pf4ff90f61f)">
     <use xlink:href="#C2_0_5b38d827c4" x="146.023254" y="104.180032" style="stroke: #000000"/>
    </g>
    <g clip-path="url(#pf4ff90f61f)">
     <use xlink:href="#C2_0_5b38d827c4" x="145.125" y="100.346222" style="fill: #808080; stroke: #808080"/>
    </g>
    <g clip-path="url(#pf4ff90f61f)">
     <use xlink:href="#C2_0_5b38d827c4" x="146.741058" y="100.119588" style="fill: #808080; stroke: #808080"/>
    </g>
    <g clip-path="url(#pf4ff90f61f)">
     <use xlink:href="#C2_0_5b38d827c4" x="148.344344" y="99.740276" style="stroke: #000000"/>
    </g>
    <g clip-path="url(#pf4ff90f61f)">
     <use xlink:href="#C2_0_5b38d827c4" x="145.125" y="88.630343" style="fill: #808080; stroke: #808080"/>
    </g>
    <g clip-path="url(#pf4ff90f61f)">
     <use xlink:href="#C2_0_5b38d827c4" x="145.125" y="86.015949" style="fill: #808080; stroke: #808080"/>
    </g>
   </g>
   <g id="PathCollection_4">
    <defs>
     <path id="C3_0_17a63a5694" d="M 0 0.632456 
C 0.167729 0.632456 0.328611 0.565816 0.447214 0.447214 
C 0.565816 0.328611 0.632456 0.167729 0.632456 -0 
C 0.632456 -0.167729 0.565816 -0.328611 0.447214 -0.447214 
C 0.328611 -0.565816 0.167729 -0.632456 0 -0.632456 
C -0.167729 -0.632456 -0.328611 -0.565816 -0.447214 -0.447214 
C -0.565816 -0.328611 -0.632456 -0.167729 -0.632456 0 
C -0.632456 0.167729 -0.565816 0.328611 -0.447214 0.447214 
C -0.328611 0.565816 -0.167729 0.632456 0 0.632456 
z
"/>
    </defs>
    <g clip-path="url(#pf4ff90f61f)">
     <use xlink:href="#C3_0_17a63a5694" x="186.975" y="129.91786" style="fill: #ff4500; stroke: #ff4500"/>
    </g>
    <g clip-path="url(#pf4ff90f61f)">
     <use xlink:href="#C3_0_17a63a5694" x="188.598106" y="129.91786" style="fill: #ff4500; stroke: #ff4500"/>
    </g>
    <g clip-path="url(#pf4ff90f61f)">
     <use xlink:href="#C3_0_17a63a5694" x="190.214758" y="129.700973" style="fill: #ff4500; stroke: #ff4500"/>
    </g>
    <g clip-path="url(#pf4ff90f61f)">
     <use xlink:href="#C3_0_17a63a5694" x="191.837864" y="129.700338" style="fill: #ff4500; stroke: #ff4500"/>
    </g>
    <g clip-path="url(#pf4ff90f61f)">
     <use xlink:href="#C3_0_17a63a5694" x="186.975" y="126.717014" style="fill: #ff4500; stroke: #ff4500"/>
    </g>
    <g clip-path="url(#pf4ff90f61f)">
     <use xlink:href="#C3_0_17a63a5694" x="188.211412" y="125.139689" style="fill: #ff4500; stroke: #ff4500"/>
    </g>
    <g clip-path="url(#pf4ff90f61f)">
     <use xlink:href="#C3_0_17a63a5694" x="189.577816" y="123.825658" style="fill: #ff4500; stroke: #ff4500"/>
    </g>
    <g clip-path="url(#pf4ff90f61f)">
     <use xlink:href="#C3_0_17a63a5694" x="186.975" y="123.01056" style="fill: #ff4500; stroke: #ff4500"/>
    </g>
    <g clip-path="url(#pf4ff90f61f)">
     <use xlink:href="#C3_0_17a63a5694" x="190.817999" y="122.255008" style="fill: #ff4500; stroke: #ff4500"/>
    </g>
    <g clip-path="url(#pf4ff90f61f)">
     <use xlink:href="#C3_0_17a63a5694" x="188.347203" y="121.710197" style="fill: #ff4500; stroke: #ff4500"/>
    </g>
    <g clip-path="url(#pf4ff90f61f)">
     <use xlink:href="#C3_0_17a63a5694" x="186.975" y="119.300398" style="fill: #ff4500; stroke: #ff4500"/>
    </g>
    <g clip-path="url(#pf4ff90f61f)">
     <use xlink:href="#C3_0_17a63a5694" x="186.975" y="111.827838" style="fill: #ff4500; stroke: #ff4500"/>
    </g>
    <g clip-path="url(#pf4ff90f61f)">
     <use xlink:href="#C3_0_17a63a5694" x="186.975" y="103.900951" style="fill: #ff4500; stroke: #ff4500"/>
    </g>
    <g clip-path="url(#pf4ff90f61f)">
     <use xlink:href="#C3_0_17a63a5694" x="188.259297" y="102.412203" style="fill: #ff4500; stroke: #ff4500"/>
    </g>
    <g clip-path="url(#pf4ff90f61f)">
     <use xlink:href="#C3_0_17a63a5694" x="189.838353" y="101.84885" style="fill: #ff4500; stroke: #ff4500"/>
    </g>
    <g clip-path="url(#pf4ff90f61f)">
     <use xlink:href="#C3_0_17a63a5694" x="186.975" y="98.818801" style="fill: #ff4500; stroke: #ff4500"/>
    </g>
    <g clip-path="url(#pf4ff90f61f)">
     <use xlink:href="#C3_0_17a63a5694" x="187.83658" y="96.755469" style="fill: #ff4500; stroke: #ff4500"/>
    </g>
    <g clip-path="url(#pf4ff90f61f)">
     <use xlink:href="#C3_0_17a63a5694" x="189.362805" y="95.926915" style="fill: #ff4500; stroke: #ff4500"/>
    </g>
    <g clip-path="url(#pf4ff90f61f)">
     <use xlink:href="#C3_0_17a63a5694" x="190.983453" y="95.79299" style="fill: #ff4500; stroke: #ff4500"/>
    </g>
    <g clip-path="url(#pf4ff90f61f)">
     <use xlink:href="#C3_0_17a63a5694" x="192.518811" y="95.003321" style="fill: #ff4500; stroke: #ff4500"/>
    </g>
    <g clip-path="url(#pf4ff90f61f)">
     <use xlink:href="#C3_0_17a63a5694" x="186.975" y="93.379377" style="fill: #ff4500; stroke: #ff4500"/>
    </g>
    <g clip-path="url(#pf4ff90f61f)">
     <use xlink:href="#C3_0_17a63a5694" x="187.799634" y="91.282351" style="fill: #ff4500; stroke: #ff4500"/>
    </g>
    <g clip-path="url(#pf4ff90f61f)">
     <use xlink:href="#C3_0_17a63a5694" x="186.975" y="87.740548" style="fill: #ff4500; stroke: #ff4500"/>
    </g>
    <g clip-path="url(#pf4ff90f61f)">
     <use xlink:href="#C3_0_17a63a5694" x="186.975" y="77.538317" style="fill: #ff4500; stroke: #ff4500"/>
    </g>
    <g clip-path="url(#pf4ff90f61f)">
     <use xlink:href="#C3_0_17a63a5694" x="186.975" y="72.984449" style="fill: #ff4500; stroke: #ff4500"/>
    </g>
    <g clip-path="url(#pf4ff90f61f)">
     <use xlink:href="#C3_0_17a63a5694" x="186.975" y="67.038039" style="fill: #ff4500; stroke: #ff4500"/>
    </g>
    <g clip-path="url(#pf4ff90f61f)">
     <use xlink:href="#C3_0_17a63a5694" x="186.975" y="50.95297" style="fill: #ff4500; stroke: #ff4500"/>
    </g>
   </g>
   <g id="matplotlib.axis_1">
    <g id="xtick_1">
     <g id="line2d_1">
      <defs>
       <path id="mca91c54270" d="M 0 0 
L 0 3.5 
" style="stroke: #000000; stroke-width: 0.8"/>
      </defs>
      <g>
       <use xlink:href="#mca91c54270" x="61.425" y="130.977391" style="stroke: #000000; stroke-width: 0.8"/>
      </g>
     </g>
     <g id="text_1">
      <text style="font: 12px 'inter', sans-serif; text-anchor: middle" x="61.425" y="146.707391" transform="rotate(-0 61.425 146.707391)">Ctrl</text>
     </g>
    </g>
    <g id="xtick_2">
     <g id="line2d_2">
      <g>
       <use xlink:href="#mca91c54270" x="103.275" y="130.977391" style="stroke: #000000; stroke-width: 0.8"/>
      </g>
     </g>
     <g id="text_2">
      <text style="font: 12px 'inter', sans-serif; text-anchor: middle" x="103.275" y="146.707391" transform="rotate(-0 103.275 146.707391)">Test</text>
     </g>
    </g>
    <g id="xtick_3">
     <g id="line2d_3">
      <g>
       <use xlink:href="#mca91c54270" x="145.125" y="130.977391" style="stroke: #000000; stroke-width: 0.8"/>
      </g>
     </g>
     <g id="text_3">
      <text style="font: 12px 'inter', sans-serif; text-anchor: middle" x="145.125" y="146.707391" transform="rotate(-0 145.125 146.707391)">Ctrl</text>
     </g>
    </g>
    <g id="xtick_4">
     <g id="line2d_4">
      <g>
       <use xlink:href="#mca91c54270" x="186.975" y="130.977391" style="stroke: #000000; stroke-width: 0.8"/>
      </g>
     </g>
     <g id="text_4">
      <text style="font: 12px 'inter', sans-serif; text-anchor: middle" x="186.975" y="146.707391" transform="rotate(-0 186.975 146.707391)">Test</text>
     </g>
    </g>
   </g>
   <g id="matplotlib.axis_2">
    <g id="ytick_1">
     <g id="line2d_5">
      <defs>
       <path id="mad58a03d75" d="M 0 0 
L -3.5 0 
" style="stroke: #000000; stroke-width: 0.8"/>
      </defs>
      <g>
       <use xlink:href="#mad58a03d75" x="40.5" y="129.91786" style="stroke: #000000; stroke-width: 0.8"/>
      </g>
     </g>
     <g id="text_5">
      <text style="font: 6px 'inter', sans-serif; text-anchor: end" x="33.5" y="132.10036" transform="rotate(-0 33.5 132.10036)">0</text>
     </g>
    </g>
    <g id="ytick_2">
     <g id="line2d_6">
      <g>
       <use xlink:href="#mad58a03d75" x="40.5" y="108.727224" style="stroke: #000000; stroke-width: 0.8"/>
      </g>
     </g>
     <g id="text_6">
      <text style="font: 6px 'inter', sans-serif; text-anchor: end" x="33.5" y="110.909724" transform="rotate(-0 33.5 110.909724)">200</text>
     </g>
    </g>
    <g id="ytick_3">
     <g id="line2d_7">
      <g>
       <use xlink:href="#mad58a03d75" x="40.5" y="87.536589" style="stroke: #000000; stroke-width: 0.8"/>
      </g>
     </g>
     <g id="text_7">
      <text style="font: 6px 'inter', sans-serif; text-anchor: end" x="33.5" y="89.719089" transform="rotate(-0 33.5 89.719089)">400</text>
     </g>
    </g>
    <g id="ytick_4">
     <g id="line2d_8">
      <g>
       <use xlink:href="#mad58a03d75" x="40.5" y="66.345953" style="stroke: #000000; stroke-width: 0.8"/>
      </g>
     </g>
     <g id="text_8">
      <text style="font: 6px 'inter', sans-serif; text-anchor: end" x="33.5" y="68.528453" transform="rotate(-0 33.5 68.528453)">600</text>
     </g>
    </g>
    <g id="ytick_5">
     <g id="line2d_9">
      <g>
       <use xlink:href="#mad58a03d75" x="40.5" y="45.155318" style="stroke: #000000; stroke-width: 0.8"/>
      </g>
     </g>
     <g id="text_9">
      <text style="font: 6px 'inter', sans-serif; text-anchor: end" x="33.5" y="47.337818" transform="rotate(-0 33.5 47.337818)">800</text>
     </g>
    </g>
    <g id="text_10">
     <text style="font: 12px 'inter', sans-serif; text-anchor: middle" x="15.604375" y="82.768696" transform="rotate(-90 15.604375 82.768696)">Total Volume (nL)</text>
    </g>
   </g>
   <g id="line2d_10">
    <path d="M 57.24 124.301539 
L 57.24 114.830538 
" style="fill: none; stroke: #000000; stroke-width: 2; stroke-linecap: square"/>
   </g>
   <g id="line2d_11">
    <path d="M 57.24 111.938017 
L 57.24 102.467016 
" style="fill: none; stroke: #000000; stroke-width: 2; stroke-linecap: square"/>
   </g>
   <g id="line2d_12">
    <path d="M 99.09 125.764647 
L 99.09 113.213762 
" style="fill: none; stroke: #000000; stroke-width: 2; stroke-linecap: square"/>
   </g>
   <g id="line2d_13">
    <path d="M 99.09 110.321241 
L 99.09 97.770356 
" style="fill: none; stroke: #000000; stroke-width: 2; stroke-linecap: square"/>
   </g>
   <g id="line2d_14">
    <path d="M 140.94 128.661767 
L 140.94 117.591508 
" style="fill: none; stroke: #000000; stroke-width: 2; stroke-linecap: square"/>
   </g>
   <g id="line2d_15">
    <path d="M 140.94 114.698986 
L 140.94 103.628727 
" style="fill: none; stroke: #000000; stroke-width: 2; stroke-linecap: square"/>
   </g>
   <g id="line2d_16">
    <path d="M 182.79 126.08675 
L 182.79 106.053629 
" style="fill: none; stroke: #000000; stroke-width: 2; stroke-linecap: square"/>
   </g>
   <g id="line2d_17">
    <path d="M 182.79 103.161107 
L 182.79 83.127986 
" style="fill: none; stroke: #000000; stroke-width: 2; stroke-linecap: square"/>
   </g>
   <g id="legend_1"/>
   <g id="LineCollection_1">
    <defs>
     <path id="m313c54d856" d="M 61.425 -157.022609 
L 103.275 -157.022609 
" style="stroke: #000000"/>
    </defs>
    <g>
     <use xlink:href="#m313c54d856" x="0" y="288" style="stroke: #000000"/>
    </g>
   </g>
   <g id="LineCollection_2">
    <defs>
     <path id="me243b9c7dc" d="M 145.125 -157.022609 
L 186.975 -157.022609 
" style="stroke: #000000"/>
    </defs>
    <g>
     <use xlink:href="#me243b9c7dc" x="0" y="288" style="stroke: #000000"/>
    </g>
   </g>
   <g id="LineCollection_3">
    <defs>
     <path id="mb482d56e64" d="M 40.5 -157.022609 
L 40.5 -253.44 
" style="stroke: #000000"/>
    </defs>
    <g>
     <use xlink:href="#mb482d56e64" x="0" y="288" style="stroke: #000000"/>
    </g>
   </g>
  </g>
  <g id="axes_2">
   <g id="patch_6">
    <path d="M 92.8125 229.020965 
L 113.7375 229.020965 
L 113.7375 226.159936 
L 92.8125 226.159936 
z
" clip-path="url(#pfa5db50fdb)" style="opacity: 0.05; stroke: #000000; stroke-linejoin: miter"/>
   </g>
   <g id="patch_7">
    <path d="M 176.5125 229.020965 
L 197.4375 229.020965 
L 197.4375 208.60366 
L 176.5125 208.60366 
z
" clip-path="url(#pfa5db50fdb)" style="opacity: 0.05; stroke: #000000; stroke-linejoin: miter"/>
   </g>
   <g id="patch_8">
    <path d="M 260.2125 229.020965 
L 281.1375 229.020965 
L 281.1375 211.464689 
L 260.2125 211.464689 
z
" clip-path="url(#pfa5db50fdb)" style="opacity: 0.05; stroke: #000000; stroke-linejoin: miter"/>
   </g>
   <g id="PolyCollection_1">
    <defs>
     <path id="ma686e6ba59" d="M 103.325859 -36.062609 
L 103.275557 -36.062609 
L 103.275557 -36.732606 
L 103.275557 -37.402603 
L 103.275557 -38.0726 
L 103.275557 -38.742597 
L 103.275557 -39.412594 
L 103.275557 -40.082591 
L 103.275557 -40.752588 
L 103.275557 -41.422586 
L 103.275557 -42.092583 
L 103.275557 -42.76258 
L 103.275557 -43.432577 
L 103.275557 -44.102574 
L 103.275557 -44.772571 
L 103.275557 -45.442568 
L 103.275557 -46.112565 
L 103.275557 -46.782563 
L 103.275557 -47.45256 
L 103.275557 -48.122557 
L 103.275557 -48.792554 
L 103.275557 -49.462551 
L 103.275557 -50.132548 
L 103.275557 -50.802545 
L 103.275557 -51.472542 
L 103.275557 -52.142539 
L 103.275557 -52.812537 
L 103.275557 -53.482534 
L 103.275557 -54.152531 
L 103.275557 -54.822528 
L 103.275557 -55.492525 
L 103.275557 -56.162522 
L 103.275557 -56.832519 
L 103.275557 -57.502516 
L 103.275557 -58.172513 
L 103.275557 -58.842511 
L 103.275557 -59.512508 
L 103.275557 -60.182505 
L 103.275557 -60.852502 
L 103.275557 -61.522499 
L 103.275557 -62.192496 
L 103.275557 -62.862493 
L 103.275557 -63.53249 
L 103.275557 -64.202487 
L 103.275557 -64.872485 
L 103.275557 -65.542482 
L 103.275557 -66.212479 
L 103.275557 -66.882476 
L 103.275557 -67.552473 
L 103.275557 -68.22247 
L 103.275557 -68.892467 
L 103.275557 -69.562464 
L 103.275557 -70.232462 
L 103.275557 -70.902459 
L 103.275557 -71.572456 
L 103.275557 -72.242453 
L 103.275557 -72.91245 
L 103.275557 -73.582447 
L 103.275557 -74.252444 
L 103.275557 -74.922441 
L 103.275557 -75.592438 
L 103.275557 -76.262436 
L 103.275557 -76.932433 
L 103.275557 -77.60243 
L 103.275557 -78.272427 
L 103.275557 -78.942424 
L 103.275557 -79.612421 
L 103.275557 -80.282418 
L 103.275557 -80.952415 
L 103.275557 -81.622412 
L 103.275557 -82.29241 
L 103.275557 -82.962407 
L 103.275557 -83.632404 
L 103.275557 -84.302401 
L 103.275557 -84.972398 
L 103.275557 -85.642395 
L 103.275557 -86.312392 
L 103.275557 -86.982389 
L 103.275557 -87.652386 
L 103.275557 -88.322384 
L 103.275557 -88.992381 
L 103.275557 -89.662378 
L 103.275557 -90.332375 
L 103.275557 -91.002372 
L 103.275557 -91.672369 
L 103.275557 -92.342366 
L 103.275557 -93.012363 
L 103.275557 -93.682361 
L 103.275557 -94.352358 
L 103.275557 -95.022355 
L 103.275557 -95.692352 
L 103.275557 -96.362349 
L 103.275557 -97.032346 
L 103.275557 -97.702343 
L 103.275557 -98.37234 
L 103.275557 -99.042337 
L 103.275557 -99.712335 
L 103.275557 -100.382332 
L 103.275557 -101.052329 
L 103.275557 -101.722326 
L 103.275557 -102.392323 
L 103.286406 -102.392323 
L 103.286406 -102.392323 
L 103.285285 -101.722326 
L 103.282541 -101.052329 
L 103.279496 -100.382332 
L 103.27718 -99.712335 
L 103.275859 -99.042337 
L 103.275557 -98.37234 
L 103.275557 -97.702343 
L 103.275557 -97.032346 
L 103.275557 -96.362349 
L 103.275557 -95.692352 
L 103.275557 -95.022355 
L 103.275952 -94.352358 
L 103.277804 -93.682361 
L 103.282112 -93.012363 
L 103.290749 -92.342366 
L 103.305733 -91.672369 
L 103.328063 -91.002372 
L 103.3562 -90.332375 
L 103.385853 -89.662378 
L 103.412637 -88.992381 
L 103.436019 -88.322384 
L 103.459928 -87.652386 
L 103.488013 -86.982389 
L 103.518244 -86.312392 
L 103.543864 -85.642395 
L 103.561416 -84.972398 
L 103.578072 -84.302401 
L 103.610103 -83.632404 
L 103.6729 -82.962407 
L 103.771259 -82.29241 
L 103.898451 -81.622412 
L 104.044397 -80.952415 
L 104.20389 -80.282418 
L 104.375116 -79.612421 
L 104.550969 -78.942424 
L 104.717595 -78.272427 
L 104.868113 -77.60243 
L 105.019042 -76.932433 
L 105.209247 -76.262436 
L 105.478699 -75.592438 
L 105.845894 -74.922441 
L 106.302773 -74.252444 
L 106.826611 -73.582447 
L 107.392081 -72.91245 
L 107.970063 -72.242453 
L 108.520947 -71.572456 
L 109.003281 -70.902459 
L 109.399871 -70.232462 
L 109.734554 -69.562464 
L 110.058628 -68.892467 
L 110.418814 -68.22247 
L 110.832049 -67.552473 
L 111.281807 -66.882476 
L 111.738887 -66.212479 
L 112.190026 -65.542482 
L 112.638876 -64.872485 
L 113.071248 -64.202487 
L 113.432671 -63.53249 
L 113.660388 -62.862493 
L 113.7375 -62.192496 
L 113.704291 -61.522499 
L 113.618225 -60.852502 
L 113.511344 -60.182505 
L 113.380197 -59.512508 
L 113.200141 -58.842511 
L 112.944464 -58.172513 
L 112.60154 -57.502516 
L 112.18321 -56.832519 
L 111.71256 -56.162522 
L 111.199891 -55.492525 
L 110.639079 -54.822528 
L 110.033608 -54.152531 
L 109.416189 -53.482534 
L 108.830095 -52.812537 
L 108.292994 -52.142539 
L 107.788455 -51.472542 
L 107.293678 -50.802545 
L 106.808652 -50.132548 
L 106.355883 -49.462551 
L 105.956915 -48.792554 
L 105.614159 -48.122557 
L 105.314566 -47.45256 
L 105.045815 -46.782563 
L 104.805491 -46.112565 
L 104.595893 -45.442568 
L 104.414186 -44.772571 
L 104.250332 -44.102574 
L 104.093999 -43.432577 
L 103.942087 -42.76258 
L 103.800011 -42.092583 
L 103.676873 -41.422586 
L 103.578883 -40.752588 
L 103.505674 -40.082591 
L 103.451768 -39.412594 
L 103.411211 -38.742597 
L 103.380583 -38.0726 
L 103.358018 -37.402603 
L 103.340886 -36.732606 
L 103.325859 -36.062609 
z
"/>
    </defs>
    <g clip-path="url(#pfa5db50fdb)">
     <use xlink:href="#ma686e6ba59" x="0" y="288" style="fill: #808080; fill-opacity: 0.8"/>
    </g>
   </g>
   <g id="PolyCollection_2">
    <defs>
     <path id="ma944286a87" d="M 187.017618 -50.916142 
L 186.97568 -50.916142 
L 186.97568 -51.506217 
L 186.97568 -52.096293 
L 186.97568 -52.686368 
L 186.97568 -53.276444 
L 186.97568 -53.866519 
L 186.97568 -54.456595 
L 186.97568 -55.04667 
L 186.97568 -55.636746 
L 186.97568 -56.226821 
L 186.97568 -56.816897 
L 186.97568 -57.406973 
L 186.97568 -57.997048 
L 186.97568 -58.587124 
L 186.97568 -59.177199 
L 186.97568 -59.767275 
L 186.97568 -60.35735 
L 186.97568 -60.947426 
L 186.97568 -61.537501 
L 186.97568 -62.127577 
L 186.97568 -62.717652 
L 186.97568 -63.307728 
L 186.97568 -63.897803 
L 186.97568 -64.487879 
L 186.97568 -65.077954 
L 186.97568 -65.66803 
L 186.97568 -66.258106 
L 186.97568 -66.848181 
L 186.97568 -67.438257 
L 186.97568 -68.028332 
L 186.97568 -68.618408 
L 186.97568 -69.208483 
L 186.97568 -69.798559 
L 186.97568 -70.388634 
L 186.97568 -70.97871 
L 186.97568 -71.568785 
L 186.97568 -72.158861 
L 186.97568 -72.748936 
L 186.97568 -73.339012 
L 186.97568 -73.929088 
L 186.97568 -74.519163 
L 186.97568 -75.109239 
L 186.97568 -75.699314 
L 186.97568 -76.28939 
L 186.97568 -76.879465 
L 186.97568 -77.469541 
L 186.97568 -78.059616 
L 186.97568 -78.649692 
L 186.97568 -79.239767 
L 186.97568 -79.829843 
L 186.97568 -80.419918 
L 186.97568 -81.009994 
L 186.97568 -81.600069 
L 186.97568 -82.190145 
L 186.97568 -82.780221 
L 186.97568 -83.370296 
L 186.97568 -83.960372 
L 186.97568 -84.550447 
L 186.97568 -85.140523 
L 186.97568 -85.730598 
L 186.97568 -86.320674 
L 186.97568 -86.910749 
L 186.97568 -87.500825 
L 186.97568 -88.0909 
L 186.97568 -88.680976 
L 186.97568 -89.271051 
L 186.97568 -89.861127 
L 186.97568 -90.451202 
L 186.97568 -91.041278 
L 186.97568 -91.631354 
L 186.97568 -92.221429 
L 186.97568 -92.811505 
L 186.97568 -93.40158 
L 186.97568 -93.991656 
L 186.97568 -94.581731 
L 186.97568 -95.171807 
L 186.97568 -95.761882 
L 186.97568 -96.351958 
L 186.97568 -96.942033 
L 186.97568 -97.532109 
L 186.97568 -98.122184 
L 186.97568 -98.71226 
L 186.97568 -99.302336 
L 186.97568 -99.892411 
L 186.97568 -100.482487 
L 186.97568 -101.072562 
L 186.97568 -101.662638 
L 186.97568 -102.252713 
L 186.97568 -102.842789 
L 186.97568 -103.432864 
L 186.97568 -104.02294 
L 186.97568 -104.613015 
L 186.97568 -105.203091 
L 186.97568 -105.793166 
L 186.97568 -106.383242 
L 186.97568 -106.973317 
L 186.97568 -107.563393 
L 186.97568 -108.153469 
L 186.97568 -108.743544 
L 186.97568 -109.33362 
L 187.027889 -109.33362 
L 187.027889 -109.33362 
L 187.033731 -108.743544 
L 187.036111 -108.153469 
L 187.038455 -107.563393 
L 187.04515 -106.973317 
L 187.05911 -106.383242 
L 187.08027 -105.793166 
L 187.105727 -105.203091 
L 187.131236 -104.613015 
L 187.15331 -104.02294 
L 187.171182 -103.432864 
L 187.187687 -102.842789 
L 187.208388 -102.252713 
L 187.239363 -101.662638 
L 187.285325 -101.072562 
L 187.349367 -100.482487 
L 187.433786 -99.892411 
L 187.540277 -99.302336 
L 187.668963 -98.71226 
L 187.817702 -98.122184 
L 187.983088 -97.532109 
L 188.162384 -96.942033 
L 188.354386 -96.351958 
L 188.558785 -95.761882 
L 188.775584 -95.171807 
L 189.005427 -94.581731 
L 189.249271 -93.991656 
L 189.506373 -93.40158 
L 189.773194 -92.811505 
L 190.046554 -92.221429 
L 190.328756 -91.631354 
L 190.627918 -91.041278 
L 190.951444 -90.451202 
L 191.299718 -89.861127 
L 191.668123 -89.271051 
L 192.056041 -88.680976 
L 192.472413 -88.0909 
L 192.929369 -87.500825 
L 193.42773 -86.910749 
L 193.948838 -86.320674 
L 194.463401 -85.730598 
L 194.95074 -85.140523 
L 195.409524 -84.550447 
L 195.849349 -83.960372 
L 196.272523 -83.370296 
L 196.663865 -82.780221 
L 196.995856 -82.190145 
L 197.242086 -81.600069 
L 197.388483 -81.009994 
L 197.4375 -80.419918 
L 197.40592 -79.829843 
L 197.31865 -79.239767 
L 197.200623 -78.649692 
L 197.068903 -78.059616 
L 196.927871 -77.469541 
L 196.770282 -76.879465 
L 196.583777 -76.28939 
L 196.358168 -75.699314 
L 196.088873 -75.109239 
L 195.776615 -74.519163 
L 195.426116 -73.929088 
L 195.044674 -73.339012 
L 194.640201 -72.748936 
L 194.21951 -72.158861 
L 193.787727 -71.568785 
L 193.347809 -70.97871 
L 192.899405 -70.388634 
L 192.439063 -69.798559 
L 191.964206 -69.208483 
L 191.479462 -68.618408 
L 190.999989 -68.028332 
L 190.54746 -67.438257 
L 190.140139 -66.848181 
L 189.784026 -66.258106 
L 189.471977 -65.66803 
L 189.191302 -65.077954 
L 188.933032 -64.487879 
L 188.695216 -63.897803 
L 188.478933 -63.307728 
L 188.282653 -62.717652 
L 188.100993 -62.127577 
L 187.92858 -61.537501 
L 187.764834 -60.947426 
L 187.615382 -60.35735 
L 187.489004 -59.767275 
L 187.392163 -59.177199 
L 187.324599 -58.587124 
L 187.278865 -57.997048 
L 187.244181 -57.406973 
L 187.211956 -56.816897 
L 187.179138 -56.226821 
L 187.147473 -55.636746 
L 187.120105 -55.04667 
L 187.098604 -54.456595 
L 187.082225 -53.866519 
L 187.068925 -53.276444 
L 187.05667 -52.686368 
L 187.044161 -52.096293 
L 187.031006 -51.506217 
L 187.017618 -50.916142 
z
"/>
    </defs>
    <g clip-path="url(#pfa5db50fdb)">
     <use xlink:href="#ma944286a87" x="0" y="288" style="fill: #808080; fill-opacity: 0.8"/>
    </g>
   </g>
   <g id="PolyCollection_3">
    <defs>
     <path id="m0c6aebeb42" d="M 270.72507 -39.213984 
L 270.675552 -39.213984 
L 270.675552 -40.067528 
L 270.675552 -40.921071 
L 270.675552 -41.774614 
L 270.675552 -42.628158 
L 270.675552 -43.481701 
L 270.675552 -44.335245 
L 270.675552 -45.188788 
L 270.675552 -46.042332 
L 270.675552 -46.895875 
L 270.675552 -47.749418 
L 270.675552 -48.602962 
L 270.675552 -49.456505 
L 270.675552 -50.310049 
L 270.675552 -51.163592 
L 270.675552 -52.017135 
L 270.675552 -52.870679 
L 270.675552 -53.724222 
L 270.675552 -54.577766 
L 270.675552 -55.431309 
L 270.675552 -56.284853 
L 270.675552 -57.138396 
L 270.675552 -57.991939 
L 270.675552 -58.845483 
L 270.675552 -59.699026 
L 270.675552 -60.55257 
L 270.675552 -61.406113 
L 270.675552 -62.259656 
L 270.675552 -63.1132 
L 270.675552 -63.966743 
L 270.675552 -64.820287 
L 270.675552 -65.67383 
L 270.675552 -66.527374 
L 270.675552 -67.380917 
L 270.675552 -68.23446 
L 270.675552 -69.088004 
L 270.675552 -69.941547 
L 270.675552 -70.795091 
L 270.675552 -71.648634 
L 270.675552 -72.502177 
L 270.675552 -73.355721 
L 270.675552 -74.209264 
L 270.675552 -75.062808 
L 270.675552 -75.916351 
L 270.675552 -76.769895 
L 270.675552 -77.623438 
L 270.675552 -78.476981 
L 270.675552 -79.330525 
L 270.675552 -80.184068 
L 270.675552 -81.037612 
L 270.675552 -81.891155 
L 270.675552 -82.744699 
L 270.675552 -83.598242 
L 270.675552 -84.451785 
L 270.675552 -85.305329 
L 270.675552 -86.158872 
L 270.675552 -87.012416 
L 270.675552 -87.865959 
L 270.675552 -88.719502 
L 270.675552 -89.573046 
L 270.675552 -90.426589 
L 270.675552 -91.280133 
L 270.675552 -92.133676 
L 270.675552 -92.98722 
L 270.675552 -93.840763 
L 270.675552 -94.694306 
L 270.675552 -95.54785 
L 270.675552 -96.401393 
L 270.675552 -97.254937 
L 270.675552 -98.10848 
L 270.675552 -98.962023 
L 270.675552 -99.815567 
L 270.675552 -100.66911 
L 270.675552 -101.522654 
L 270.675552 -102.376197 
L 270.675552 -103.229741 
L 270.675552 -104.083284 
L 270.675552 -104.936827 
L 270.675552 -105.790371 
L 270.675552 -106.643914 
L 270.675552 -107.497458 
L 270.675552 -108.351001 
L 270.675552 -109.204544 
L 270.675552 -110.058088 
L 270.675552 -110.911631 
L 270.675552 -111.765175 
L 270.675552 -112.618718 
L 270.675552 -113.472262 
L 270.675552 -114.325805 
L 270.675552 -115.179348 
L 270.675552 -116.032892 
L 270.675552 -116.886435 
L 270.675552 -117.739979 
L 270.675552 -118.593522 
L 270.675552 -119.447066 
L 270.675552 -120.300609 
L 270.675552 -121.154152 
L 270.675552 -122.007696 
L 270.675552 -122.861239 
L 270.675552 -123.714783 
L 270.686895 -123.714783 
L 270.686895 -123.714783 
L 270.685922 -122.861239 
L 270.683504 -122.007696 
L 270.68087 -121.154152 
L 270.679344 -120.300609 
L 270.679992 -119.447066 
L 270.683574 -118.593522 
L 270.690378 -117.739979 
L 270.699761 -116.886435 
L 270.709896 -116.032892 
L 270.718479 -115.179348 
L 270.724472 -114.325805 
L 270.729846 -113.472262 
L 270.739725 -112.618718 
L 270.760087 -111.765175 
L 270.794015 -110.911631 
L 270.839103 -110.058088 
L 270.888339 -109.204544 
L 270.934294 -108.351001 
L 270.97392 -107.497458 
L 271.010962 -106.643914 
L 271.054752 -105.790371 
L 271.116041 -104.936827 
L 271.201836 -104.083284 
L 271.312097 -103.229741 
L 271.440817 -102.376197 
L 271.581347 -101.522654 
L 271.7325 -100.66911 
L 271.900578 -99.815567 
L 272.094951 -98.962023 
L 272.320282 -98.10848 
L 272.572623 -97.254937 
L 272.843826 -96.401393 
L 273.130605 -95.54785 
L 273.439238 -94.694306 
L 273.781041 -93.840763 
L 274.163598 -92.98722 
L 274.587357 -92.133676 
L 275.050212 -91.280133 
L 275.552496 -90.426589 
L 276.095323 -89.573046 
L 276.675138 -88.719502 
L 277.281315 -87.865959 
L 277.897106 -87.012416 
L 278.49966 -86.158872 
L 279.059847 -85.305329 
L 279.547546 -84.451785 
L 279.942853 -83.598242 
L 280.244156 -82.744699 
L 280.465005 -81.891155 
L 280.624227 -81.037612 
L 280.740139 -80.184068 
L 280.830384 -79.330525 
L 280.910062 -78.476981 
L 280.986849 -77.623438 
L 281.05897 -76.769895 
L 281.116033 -75.916351 
L 281.1375 -75.062808 
L 281.091793 -74.209264 
L 280.945403 -73.355721 
L 280.680667 -72.502177 
L 280.308349 -71.648634 
L 279.865465 -70.795091 
L 279.401565 -69.941547 
L 278.960559 -69.088004 
L 278.562987 -68.23446 
L 278.196456 -67.380917 
L 277.824475 -66.527374 
L 277.413456 -65.67383 
L 276.960173 -64.820287 
L 276.497269 -63.966743 
L 276.069856 -63.1132 
L 275.699654 -62.259656 
L 275.365476 -61.406113 
L 275.018229 -60.55257 
L 274.6197 -59.699026 
L 274.172437 -58.845483 
L 273.716257 -57.991939 
L 273.297729 -57.138396 
L 272.940487 -56.284853 
L 272.638172 -55.431309 
L 272.369527 -54.577766 
L 272.118941 -53.724222 
L 271.886339 -52.870679 
L 271.682541 -52.017135 
L 271.517627 -51.163592 
L 271.392216 -50.310049 
L 271.296449 -49.456505 
L 271.215538 -48.602962 
L 271.137649 -47.749418 
L 271.059292 -46.895875 
L 270.984975 -46.042332 
L 270.921768 -45.188788 
L 270.873281 -44.335245 
L 270.837632 -43.481701 
L 270.809913 -42.628158 
L 270.785903 -41.774614 
L 270.763758 -40.921071 
L 270.743358 -40.067528 
L 270.72507 -39.213984 
z
"/>
    </defs>
    <g clip-path="url(#pfa5db50fdb)">
     <use xlink:href="#m0c6aebeb42" x="0" y="288" style="fill: #808080; fill-opacity: 0.8"/>
    </g>
   </g>
   <g id="matplotlib.axis_3">
    <g id="xtick_5">
     <g id="line2d_18">
      <g>
       <use xlink:href="#mca91c54270" x="61.425" y="256.32" style="stroke: #000000; stroke-width: 0.8"/>
      </g>
     </g>
    </g>
    <g id="xtick_6">
     <g id="line2d_19">
      <g>
       <use xlink:href="#mca91c54270" x="103.275" y="256.32" style="stroke: #000000; stroke-width: 0.8"/>
      </g>
     </g>
     <g id="text_11">
      <text style="font: 12px 'inter', sans-serif; text-anchor: middle" x="103.275" y="272.05" transform="rotate(-0 103.275 272.05)">Off</text>
     </g>
    </g>
    <g id="xtick_7">
     <g id="line2d_20">
      <g>
       <use xlink:href="#mca91c54270" x="145.125" y="256.32" style="stroke: #000000; stroke-width: 0.8"/>
      </g>
     </g>
    </g>
    <g id="xtick_8">
     <g id="line2d_21">
      <g>
       <use xlink:href="#mca91c54270" x="186.975" y="256.32" style="stroke: #000000; stroke-width: 0.8"/>
      </g>
     </g>
     <g id="text_12">
      <text style="font: 12px 'inter', sans-serif; text-anchor: middle" x="186.975" y="272.05" transform="rotate(-0 186.975 272.05)">On</text>
     </g>
    </g>
    <g id="xtick_9">
     <g id="line2d_22">
      <g>
       <use xlink:href="#mca91c54270" x="228.825" y="256.32" style="stroke: #000000; stroke-width: 0.8"/>
      </g>
     </g>
    </g>
    <g id="xtick_10">
     <g id="line2d_23">
      <g>
       <use xlink:href="#mca91c54270" x="270.675" y="256.32" style="stroke: #000000; stroke-width: 0.8"/>
      </g>
     </g>
     <g id="text_13">
      <!-- $\Delta\Delta$ -->
      <g transform="translate(262.455 272.05)">
       <text>
        <tspan style="font: 12px 'DejaVu Sans'" x="0 8.208984" y="-0.25">ΔΔ</tspan>
       </text>
      </g>
     </g>
    </g>
   </g>
   <g id="matplotlib.axis_4">
    <g id="ytick_6">
     <g id="line2d_24">
      <g>
       <use xlink:href="#mad58a03d75" x="40.5" y="247.770325" style="stroke: #000000; stroke-width: 0.8"/>
      </g>
     </g>
     <g id="text_14">
      <text style="font: 6px 'inter', sans-serif; text-anchor: end" x="33.5" y="249.952825" transform="rotate(-0 33.5 249.952825)">−100</text>
     </g>
    </g>
    <g id="ytick_7">
     <g id="line2d_25">
      <g>
       <use xlink:href="#mad58a03d75" x="40.5" y="229.020965" style="stroke: #000000; stroke-width: 0.8"/>
      </g>
     </g>
     <g id="text_15">
      <text style="font: 6px 'inter', sans-serif; text-anchor: end" x="33.5" y="231.203465" transform="rotate(-0 33.5 231.203465)">0</text>
     </g>
    </g>
    <g id="ytick_8">
     <g id="line2d_26">
      <g>
       <use xlink:href="#mad58a03d75" x="40.5" y="210.271605" style="stroke: #000000; stroke-width: 0.8"/>
      </g>
     </g>
     <g id="text_16">
      <text style="font: 6px 'inter', sans-serif; text-anchor: end" x="33.5" y="212.454105" transform="rotate(-0 33.5 212.454105)">100</text>
     </g>
    </g>
    <g id="ytick_9">
     <g id="line2d_27">
      <g>
       <use xlink:href="#mad58a03d75" x="40.5" y="191.522246" style="stroke: #000000; stroke-width: 0.8"/>
      </g>
     </g>
     <g id="text_17">
      <text style="font: 6px 'inter', sans-serif; text-anchor: end" x="33.5" y="193.704746" transform="rotate(-0 33.5 193.704746)">200</text>
     </g>
    </g>
    <g id="ytick_10">
     <g id="line2d_28">
      <g>
       <use xlink:href="#mad58a03d75" x="40.5" y="172.772886" style="stroke: #000000; stroke-width: 0.8"/>
      </g>
     </g>
     <g id="text_18">
      <text style="font: 6px 'inter', sans-serif; text-anchor: end" x="33.5" y="174.955386" transform="rotate(-0 33.5 174.955386)">300</text>
     </g>
    </g>
    <g id="text_19">
     <!-- $\Delta$ Volume (nL) -->
     <g transform="translate(13.070312 248.431304) rotate(-90)">
      <text>
       <tspan style="font: 12px 'DejaVu Sans'" x="0" y="-0.734375">Δ</tspan>
       <tspan style="font: 12px 'Inter'" x="8.208984 11.583984 19.863281 27.058594 29.964844 37.060547 47.572266 54.568359 57.943359 62.320312 69.410156 76.195312" y="-0.734375"> Volume (nL)</tspan>
      </text>
     </g>
    </g>
   </g>
   <g id="line2d_29">
    <path d="M 103.275 226.159936 
" clip-path="url(#pfa5db50fdb)" style="fill: none; stroke: #000000; stroke-width: 1.5; stroke-linecap: square"/>
    <defs>
     <path id="me94450381d" d="M 0 2.5 
C 0.663008 2.5 1.29895 2.236584 1.767767 1.767767 
C 2.236584 1.29895 2.5 0.663008 2.5 0 
C 2.5 -0.663008 2.236584 -1.29895 1.767767 -1.767767 
C 1.29895 -2.236584 0.663008 -2.5 0 -2.5 
C -0.663008 -2.5 -1.29895 -2.236584 -1.767767 -1.767767 
C -2.236584 -1.29895 -2.5 -0.663008 -2.5 0 
C -2.5 0.663008 -2.236584 1.29895 -1.767767 1.767767 
C -1.29895 2.236584 -0.663008 2.5 0 2.5 
z
" style="stroke: #000000"/>
    </defs>
    <g clip-path="url(#pfa5db50fdb)">
     <use xlink:href="#me94450381d" x="103.275" y="226.159936" style="stroke: #000000"/>
    </g>
   </g>
   <g id="line2d_30">
    <path d="M 103.275 240.788111 
L 103.275 208.384736 
" clip-path="url(#pfa5db50fdb)" style="fill: none; stroke: #000000; stroke-width: 2; stroke-linecap: square"/>
   </g>
   <g id="line2d_31">
    <path d="M 186.975 208.60366 
" clip-path="url(#pfa5db50fdb)" style="fill: none; stroke: #000000; stroke-width: 1.5; stroke-linecap: square"/>
    <g clip-path="url(#pfa5db50fdb)">
     <use xlink:href="#me94450381d" x="186.975" y="208.60366" style="stroke: #000000"/>
    </g>
   </g>
   <g id="line2d_32">
    <path d="M 186.975 223.860608 
L 186.975 191.895222 
" clip-path="url(#pfa5db50fdb)" style="fill: none; stroke: #000000; stroke-width: 2; stroke-linecap: square"/>
   </g>
   <g id="line2d_33">
    <path d="M 270.675 211.464689 
" clip-path="url(#pfa5db50fdb)" style="fill: none; stroke: #000000; stroke-width: 1.5; stroke-linecap: square"/>
    <g clip-path="url(#pfa5db50fdb)">
     <use xlink:href="#me94450381d" x="270.675" y="211.464689" style="stroke: #000000"/>
    </g>
   </g>
   <g id="line2d_34">
    <path d="M 270.675 233.292754 
L 270.675 189.657882 
" clip-path="url(#pfa5db50fdb)" style="fill: none; stroke: #000000; stroke-width: 2; stroke-linecap: square"/>
   </g>
   <g id="line2d_35">
    <path d="M 40.5 229.020965 
L 291.6 229.020965 
" clip-path="url(#pfa5db50fdb)" style="fill: none; stroke: #000000; stroke-width: 0.75; stroke-linecap: square"/>
   </g>
   <g id="text_20">
    <text style="font: 10px 'inter', sans-serif; text-anchor: middle" x="123.363" y="228.777123" transform="rotate(-0 123.363 228.777123)">+15.26</text>
   </g>
   <g id="text_21">
    <text style="font: 10px 'inter', sans-serif; text-anchor: middle" x="207.063" y="211.220847" transform="rotate(-0 207.063 211.220847)">+108.90</text>
   </g>
   <g id="text_22">
    <text style="font: 10px 'inter', sans-serif; text-anchor: middle" x="256.0275" y="214.081877" transform="rotate(-0 256.0275 214.081877)">+93.64</text>
   </g>
   <g id="LineCollection_4">
    <defs>
     <path id="m204a5582cc" d="M 61.425 -31.68 
L 103.275 -31.68 
" style="stroke: #000000"/>
    </defs>
    <g>
     <use xlink:href="#m204a5582cc" x="0" y="288" style="stroke: #000000"/>
    </g>
   </g>
   <g id="LineCollection_5">
    <defs>
     <path id="m986c0c61b5" d="M 145.125 -31.68 
L 186.975 -31.68 
" style="stroke: #000000"/>
    </defs>
    <g>
     <use xlink:href="#m986c0c61b5" x="0" y="288" style="stroke: #000000"/>
    </g>
   </g>
   <g id="LineCollection_6">
    <defs>
     <path id="m4ddb03ba3e" d="M 228.825 -31.68 
L 270.675 -31.68 
" style="stroke: #000000"/>
    </defs>
    <g>
     <use xlink:href="#m4ddb03ba3e" x="0" y="288" style="stroke: #000000"/>
    </g>
   </g>
   <g id="LineCollection_7">
    <defs>
     <path id="me0470ef817" d="M 40.5 -31.68 
L 40.5 -128.097391 
" style="stroke: #000000"/>
    </defs>
    <g>
     <use xlink:href="#me0470ef817" x="0" y="288" style="stroke: #000000"/>
    </g>
   </g>
  </g>
  <g id="axes_3">
   <g id="matplotlib.axis_5">
    <g id="ytick_11">
     <g id="line2d_36">
      <defs>
       <path id="mc0cce34ed5" d="M 0 0 
L 3.5 0 
" style="stroke: #000000; stroke-width: 0.8"/>
      </defs>
      <g>
       <use xlink:href="#mc0cce34ed5" x="291.6" y="247.770325" style="stroke: #000000; stroke-width: 0.8"/>
      </g>
     </g>
     <g id="text_23">
      <text style="font: 6px 'inter', sans-serif; text-anchor: start" x="298.6" y="249.952825" transform="rotate(-0 298.6 249.952825)">−100</text>
     </g>
    </g>
    <g id="ytick_12">
     <g id="line2d_37">
      <g>
       <use xlink:href="#mc0cce34ed5" x="291.6" y="229.020965" style="stroke: #000000; stroke-width: 0.8"/>
      </g>
     </g>
     <g id="text_24">
      <text style="font: 6px 'inter', sans-serif; text-anchor: start" x="298.6" y="231.203465" transform="rotate(-0 298.6 231.203465)">0</text>
     </g>
    </g>
    <g id="ytick_13">
     <g id="line2d_38">
      <g>
       <use xlink:href="#mc0cce34ed5" x="291.6" y="210.271605" style="stroke: #000000; stroke-width: 0.8"/>
      </g>
     </g>
     <g id="text_25">
      <text style="font: 6px 'inter', sans-serif; text-anchor: start" x="298.6" y="212.454105" transform="rotate(-0 298.6 212.454105)">100</text>
     </g>
    </g>
    <g id="ytick_14">
     <g id="line2d_39">
      <g>
       <use xlink:href="#mc0cce34ed5" x="291.6" y="191.522246" style="stroke: #000000; stroke-width: 0.8"/>
      </g>
     </g>
     <g id="text_26">
      <text style="font: 6px 'inter', sans-serif; text-anchor: start" x="298.6" y="193.704746" transform="rotate(-0 298.6 193.704746)">200</text>
     </g>
    </g>
    <g id="ytick_15">
     <g id="line2d_40">
      <g>
       <use xlink:href="#mc0cce34ed5" x="291.6" y="172.772886" style="stroke: #000000; stroke-width: 0.8"/>
      </g>
     </g>
     <g id="text_27">
      <text style="font: 6px 'inter', sans-serif; text-anchor: start" x="298.6" y="174.955386" transform="rotate(-0 298.6 174.955386)">300</text>
     </g>
    </g>
    <g id="text_28">
     <text style="font: 12px 'inter', sans-serif; text-anchor: middle" x="325.310938" y="208.111304" transform="rotate(-90 325.310938 208.111304)">delta - delta</text>
    </g>
   </g>
   <g id="LineCollection_8">
    <defs>
     <path id="m78bc805012" d="M 291.6 -31.68 
L 291.6 -128.097391 
" style="stroke: #000000"/>
    </defs>
    <g>
     <use xlink:href="#m78bc805012" x="0" y="288" style="stroke: #000000"/>
    </g>
   </g>
  </g>
  <g id="text_29">
   <text style="fill: #ffa500; font: italic 500 20px 'inter'; text-anchor: middle" x="162" y="23.19" transform="rotate(-0 162 23.19)">R50H05&gt;Chr Females</text>
  </g>
 </g>
 <defs>
  <clipPath id="pf4ff90f61f">
   <rect x="40.5" y="34.56" width="251.1" height="96.417391"/>
  </clipPath>
  <clipPath id="pfa5db50fdb">
   <rect x="40.5" y="159.902609" width="251.1" height="96.417391"/>
  </clipPath>
 </defs>
</svg>
