<?xml version="1.0" encoding="utf-8" standalone="no"?>
<!DOCTYPE svg PUBLIC "-//W3C//DTD SVG 1.1//EN"
  "http://www.w3.org/Graphics/SVG/1.1/DTD/svg11.dtd">
<svg xmlns:xlink="http://www.w3.org/1999/xlink" width="324pt" height="288pt" viewBox="0 0 324 288" xmlns="http://www.w3.org/2000/svg" version="1.1">
 <metadata>
  <rdf:RDF xmlns:dc="http://purl.org/dc/elements/1.1/" xmlns:cc="http://creativecommons.org/ns#" xmlns:rdf="http://www.w3.org/1999/02/22-rdf-syntax-ns#">
   <cc:Work>
    <dc:type rdf:resource="http://purl.org/dc/dcmitype/StillImage"/>
    <dc:date>2025-02-16T01:37:06.889084</dc:date>
    <dc:format>image/svg+xml</dc:format>
    <dc:creator>
     <cc:Agent>
      <dc:title>Matplotlib v3.6.3, https://matplotlib.org/</dc:title>
     </cc:Agent>
    </dc:creator>
   </cc:Work>
  </rdf:RDF>
 </metadata>
 <defs>
  <style type="text/css">*{stroke-linejoin: round; stroke-linecap: butt}</style>
 </defs>
 <g id="figure_1">
  <g id="patch_1">
   <path d="M 0 288 
L 324 288 
L 324 0 
L 0 0 
z
" style="fill: #ffffff"/>
  </g>
  <g id="axes_1">
   <g id="patch_2">
    <path d="M 50.9625 129.91786 
L 71.8875 129.91786 
L 71.8875 111.274375 
L 50.9625 111.274375 
z
" clip-path="url(#p9a95590576)" style="opacity: 0.05; stroke: #000000; stroke-linejoin: miter"/>
   </g>
   <g id="patch_3">
    <path d="M 92.8125 129.91786 
L 113.7375 129.91786 
L 113.7375 109.812851 
L 92.8125 109.812851 
z
" clip-path="url(#p9a95590576)" style="opacity: 0.05; stroke: #000000; stroke-linejoin: miter"/>
   </g>
   <g id="patch_4">
    <path d="M 134.6625 129.91786 
L 155.5875 129.91786 
L 155.5875 121.701067 
L 134.6625 121.701067 
z
" clip-path="url(#p9a95590576)" style="opacity: 0.05; stroke: #000000; stroke-linejoin: miter"/>
   </g>
   <g id="patch_5">
    <path d="M 176.5125 129.91786 
L 197.4375 129.91786 
L 197.4375 110.832403 
L 176.5125 110.832403 
z
" clip-path="url(#p9a95590576)" style="opacity: 0.05; stroke: #000000; stroke-linejoin: miter"/>
   </g>
   <g id="PathCollection_1">
    <defs>
     <path id="C0_0_28d6764ff4" d="M 0 0.632456 
C 0.167729 0.632456 0.328611 0.565816 0.447214 0.447214 
C 0.565816 0.328611 0.632456 0.167729 0.632456 -0 
C 0.632456 -0.167729 0.565816 -0.328611 0.447214 -0.447214 
C 0.328611 -0.565816 0.167729 -0.632456 0 -0.632456 
C -0.167729 -0.632456 -0.328611 -0.565816 -0.447214 -0.447214 
C -0.565816 -0.328611 -0.632456 -0.167729 -0.632456 0 
C -0.632456 0.167729 -0.565816 0.328611 -0.447214 0.447214 
C -0.328611 0.565816 -0.167729 0.632456 0 0.632456 
z
"/>
    </defs>
    <g clip-path="url(#p9a95590576)">
     <use xlink:href="#C0_0_28d6764ff4" x="61.425" y="129.91786" style="fill: #808080; stroke: #808080"/>
    </g>
    <g clip-path="url(#p9a95590576)">
     <use xlink:href="#C0_0_28d6764ff4" x="63.048106" y="129.91786" style="stroke: #000000"/>
    </g>
    <g clip-path="url(#p9a95590576)">
     <use xlink:href="#C0_0_28d6764ff4" x="64.193645" y="128.193048" style="fill: #808080; stroke: #808080"/>
    </g>
    <g clip-path="url(#p9a95590576)">
     <use xlink:href="#C0_0_28d6764ff4" x="61.425" y="126.68491" style="stroke: #000000"/>
    </g>
    <g clip-path="url(#p9a95590576)">
     <use xlink:href="#C0_0_28d6764ff4" x="61.425" y="122.967755" style="stroke: #000000"/>
    </g>
    <g clip-path="url(#p9a95590576)">
     <use xlink:href="#C0_0_28d6764ff4" x="62.48481" y="121.123746" style="stroke: #000000"/>
    </g>
    <g clip-path="url(#p9a95590576)">
     <use xlink:href="#C0_0_28d6764ff4" x="63.915015" y="119.972565" style="fill: #808080; stroke: #808080"/>
    </g>
    <g clip-path="url(#p9a95590576)">
     <use xlink:href="#C0_0_28d6764ff4" x="61.425" y="118.594961" style="fill: #808080; stroke: #808080"/>
    </g>
    <g clip-path="url(#p9a95590576)">
     <use xlink:href="#C0_0_28d6764ff4" x="65.127898" y="118.35466" style="stroke: #000000"/>
    </g>
    <g clip-path="url(#p9a95590576)">
     <use xlink:href="#C0_0_28d6764ff4" x="62.867689" y="117.47938" style="fill: #808080; stroke: #808080"/>
    </g>
    <g clip-path="url(#p9a95590576)">
     <use xlink:href="#C0_0_28d6764ff4" x="61.425" y="115.636219" style="stroke: #000000"/>
    </g>
    <g clip-path="url(#p9a95590576)">
     <use xlink:href="#C0_0_28d6764ff4" x="63.566331" y="115.281805" style="stroke: #000000"/>
    </g>
    <g clip-path="url(#p9a95590576)">
     <use xlink:href="#C0_0_28d6764ff4" x="65.177983" y="114.993083" style="fill: #808080; stroke: #808080"/>
    </g>
    <g clip-path="url(#p9a95590576)">
     <use xlink:href="#C0_0_28d6764ff4" x="66.537167" y="113.662311" style="stroke: #000000"/>
    </g>
    <g clip-path="url(#p9a95590576)">
     <use xlink:href="#C0_0_28d6764ff4" x="61.425" y="112.65067" style="fill: #808080; stroke: #808080"/>
    </g>
    <g clip-path="url(#p9a95590576)">
     <use xlink:href="#C0_0_28d6764ff4" x="63.030208" y="112.290112" style="fill: #808080; stroke: #808080"/>
    </g>
    <g clip-path="url(#p9a95590576)">
     <use xlink:href="#C0_0_28d6764ff4" x="64.651439" y="112.173139" style="stroke: #000000"/>
    </g>
    <g clip-path="url(#p9a95590576)">
     <use xlink:href="#C0_0_28d6764ff4" x="67.432544" y="111.631613" style="stroke: #000000"/>
    </g>
    <g clip-path="url(#p9a95590576)">
     <use xlink:href="#C0_0_28d6764ff4" x="69.013724" y="111.081822" style="fill: #808080; stroke: #808080"/>
    </g>
    <g clip-path="url(#p9a95590576)">
     <use xlink:href="#C0_0_28d6764ff4" x="65.880287" y="110.58257" style="fill: #808080; stroke: #808080"/>
    </g>
    <g clip-path="url(#p9a95590576)">
     <use xlink:href="#C0_0_28d6764ff4" x="61.425" y="110.153778" style="stroke: #000000"/>
    </g>
    <g clip-path="url(#p9a95590576)">
     <use xlink:href="#C0_0_28d6764ff4" x="63.020999" y="109.710681" style="stroke: #000000"/>
    </g>
    <g clip-path="url(#p9a95590576)">
     <use xlink:href="#C0_0_28d6764ff4" x="70.315806" y="109.62825" style="fill: #808080; stroke: #808080"/>
    </g>
    <g clip-path="url(#p9a95590576)">
     <use xlink:href="#C0_0_28d6764ff4" x="64.454109" y="108.567659" style="fill: #808080; stroke: #808080"/>
    </g>
    <g clip-path="url(#p9a95590576)">
     <use xlink:href="#C0_0_28d6764ff4" x="61.425" y="104.476277" style="stroke: #000000"/>
    </g>
    <g clip-path="url(#p9a95590576)">
     <use xlink:href="#C0_0_28d6764ff4" x="63.006735" y="103.930088" style="stroke: #000000"/>
    </g>
    <g clip-path="url(#p9a95590576)">
     <use xlink:href="#C0_0_28d6764ff4" x="61.425" y="100.909787" style="stroke: #000000"/>
    </g>
    <g clip-path="url(#p9a95590576)">
     <use xlink:href="#C0_0_28d6764ff4" x="63.029643" y="100.543613" style="fill: #808080; stroke: #808080"/>
    </g>
    <g clip-path="url(#p9a95590576)">
     <use xlink:href="#C0_0_28d6764ff4" x="61.425" y="98.013345" style="stroke: #000000"/>
    </g>
    <g clip-path="url(#p9a95590576)">
     <use xlink:href="#C0_0_28d6764ff4" x="61.425" y="92.379179" style="fill: #808080; stroke: #808080"/>
    </g>
    <g clip-path="url(#p9a95590576)">
     <use xlink:href="#C0_0_28d6764ff4" x="61.425" y="86.72806" style="fill: #808080; stroke: #808080"/>
    </g>
    <g clip-path="url(#p9a95590576)">
     <use xlink:href="#C0_0_28d6764ff4" x="61.425" y="72.549194" style="fill: #808080; stroke: #808080"/>
    </g>
   </g>
   <g id="PathCollection_2">
    <defs>
     <path id="C1_0_555324ba46" d="M 0 0.632456 
C 0.167729 0.632456 0.328611 0.565816 0.447214 0.447214 
C 0.565816 0.328611 0.632456 0.167729 0.632456 -0 
C 0.632456 -0.167729 0.565816 -0.328611 0.447214 -0.447214 
C 0.328611 -0.565816 0.167729 -0.632456 0 -0.632456 
C -0.167729 -0.632456 -0.328611 -0.565816 -0.447214 -0.447214 
C -0.565816 -0.328611 -0.632456 -0.167729 -0.632456 0 
C -0.632456 0.167729 -0.565816 0.328611 -0.447214 0.447214 
C -0.328611 0.565816 -0.167729 0.632456 0 0.632456 
z
"/>
    </defs>
    <g clip-path="url(#p9a95590576)">
     <use xlink:href="#C1_0_555324ba46" x="103.275" y="121.863829" style="fill: #2e8b57; stroke: #2e8b57"/>
    </g>
    <g clip-path="url(#p9a95590576)">
     <use xlink:href="#C1_0_555324ba46" x="104.884251" y="121.546393" style="fill: #2e8b57; stroke: #2e8b57"/>
    </g>
    <g clip-path="url(#p9a95590576)">
     <use xlink:href="#C1_0_555324ba46" x="103.886061" y="119.608298" style="fill: #2e8b57; stroke: #2e8b57"/>
    </g>
    <g clip-path="url(#p9a95590576)">
     <use xlink:href="#C1_0_555324ba46" x="105.421976" y="118.821065" style="fill: #2e8b57; stroke: #2e8b57"/>
    </g>
    <g clip-path="url(#p9a95590576)">
     <use xlink:href="#C1_0_555324ba46" x="107.045043" y="118.804219" style="fill: #2e8b57; stroke: #2e8b57"/>
    </g>
    <g clip-path="url(#p9a95590576)">
     <use xlink:href="#C1_0_555324ba46" x="108.618445" y="118.206325" style="fill: #2e8b57; stroke: #2e8b57"/>
    </g>
    <g clip-path="url(#p9a95590576)">
     <use xlink:href="#C1_0_555324ba46" x="110.215976" y="117.775837" style="fill: #2e8b57; stroke: #2e8b57"/>
    </g>
    <g clip-path="url(#p9a95590576)">
     <use xlink:href="#C1_0_555324ba46" x="103.275" y="116.74237" style="fill: #2e8b57; stroke: #2e8b57"/>
    </g>
    <g clip-path="url(#p9a95590576)">
     <use xlink:href="#C1_0_555324ba46" x="104.875174" y="116.334556" style="fill: #2e8b57; stroke: #2e8b57"/>
    </g>
    <g clip-path="url(#p9a95590576)">
     <use xlink:href="#C1_0_555324ba46" x="106.496944" y="116.235808" style="fill: #2e8b57; stroke: #2e8b57"/>
    </g>
    <g clip-path="url(#p9a95590576)">
     <use xlink:href="#C1_0_555324ba46" x="108.046054" y="115.509075" style="fill: #2e8b57; stroke: #2e8b57"/>
    </g>
    <g clip-path="url(#p9a95590576)">
     <use xlink:href="#C1_0_555324ba46" x="103.275" y="113.381111" style="fill: #2e8b57; stroke: #2e8b57"/>
    </g>
    <g clip-path="url(#p9a95590576)">
     <use xlink:href="#C1_0_555324ba46" x="104.892341" y="113.176092" style="fill: #2e8b57; stroke: #2e8b57"/>
    </g>
    <g clip-path="url(#p9a95590576)">
     <use xlink:href="#C1_0_555324ba46" x="106.300199" y="111.964517" style="fill: #2e8b57; stroke: #2e8b57"/>
    </g>
    <g clip-path="url(#p9a95590576)">
     <use xlink:href="#C1_0_555324ba46" x="107.920154" y="111.812898" style="fill: #2e8b57; stroke: #2e8b57"/>
    </g>
    <g clip-path="url(#p9a95590576)">
     <use xlink:href="#C1_0_555324ba46" x="103.275" y="110.751883" style="fill: #2e8b57; stroke: #2e8b57"/>
    </g>
    <g clip-path="url(#p9a95590576)">
     <use xlink:href="#C1_0_555324ba46" x="103.275" y="107.179884" style="fill: #2e8b57; stroke: #2e8b57"/>
    </g>
    <g clip-path="url(#p9a95590576)">
     <use xlink:href="#C1_0_555324ba46" x="104.892995" y="106.986837" style="fill: #2e8b57; stroke: #2e8b57"/>
    </g>
    <g clip-path="url(#p9a95590576)">
     <use xlink:href="#C1_0_555324ba46" x="106.492309" y="106.571501" style="fill: #2e8b57; stroke: #2e8b57"/>
    </g>
    <g clip-path="url(#p9a95590576)">
     <use xlink:href="#C1_0_555324ba46" x="103.275" y="104.561887" style="fill: #2e8b57; stroke: #2e8b57"/>
    </g>
    <g clip-path="url(#p9a95590576)">
     <use xlink:href="#C1_0_555324ba46" x="104.643391" y="103.252517" style="fill: #2e8b57; stroke: #2e8b57"/>
    </g>
    <g clip-path="url(#p9a95590576)">
     <use xlink:href="#C1_0_555324ba46" x="103.275" y="101.758896" style="fill: #2e8b57; stroke: #2e8b57"/>
    </g>
    <g clip-path="url(#p9a95590576)">
     <use xlink:href="#C1_0_555324ba46" x="105.528864" y="101.212071" style="fill: #2e8b57; stroke: #2e8b57"/>
    </g>
    <g clip-path="url(#p9a95590576)">
     <use xlink:href="#C1_0_555324ba46" x="106.844313" y="99.785835" style="fill: #2e8b57; stroke: #2e8b57"/>
    </g>
    <g clip-path="url(#p9a95590576)">
     <use xlink:href="#C1_0_555324ba46" x="104.102501" y="99.664413" style="fill: #2e8b57; stroke: #2e8b57"/>
    </g>
    <g clip-path="url(#p9a95590576)">
     <use xlink:href="#C1_0_555324ba46" x="105.48296" y="98.383863" style="fill: #2e8b57; stroke: #2e8b57"/>
    </g>
    <g clip-path="url(#p9a95590576)">
     <use xlink:href="#C1_0_555324ba46" x="103.275" y="93.57486" style="fill: #2e8b57; stroke: #2e8b57"/>
    </g>
    <g clip-path="url(#p9a95590576)">
     <use xlink:href="#C1_0_555324ba46" x="103.275" y="89.292974" style="fill: #2e8b57; stroke: #2e8b57"/>
    </g>
   </g>
   <g id="PathCollection_3">
    <defs>
     <path id="C2_0_5de60f09d4" d="M 0 0.632456 
C 0.167729 0.632456 0.328611 0.565816 0.447214 0.447214 
C 0.565816 0.328611 0.632456 0.167729 0.632456 -0 
C 0.632456 -0.167729 0.565816 -0.328611 0.447214 -0.447214 
C 0.328611 -0.565816 0.167729 -0.632456 0 -0.632456 
C -0.167729 -0.632456 -0.328611 -0.565816 -0.447214 -0.447214 
C -0.565816 -0.328611 -0.632456 -0.167729 -0.632456 0 
C -0.632456 0.167729 -0.565816 0.328611 -0.447214 0.447214 
C -0.328611 0.565816 -0.167729 0.632456 0 0.632456 
z
"/>
    </defs>
    <g clip-path="url(#p9a95590576)">
     <use xlink:href="#C2_0_5de60f09d4" x="145.125" y="129.91786" style="fill: #808080; stroke: #808080"/>
    </g>
    <g clip-path="url(#p9a95590576)">
     <use xlink:href="#C2_0_5de60f09d4" x="146.748106" y="129.91786" style="fill: #808080; stroke: #808080"/>
    </g>
    <g clip-path="url(#p9a95590576)">
     <use xlink:href="#C2_0_5de60f09d4" x="148.371211" y="129.91786" style="stroke: #000000"/>
    </g>
    <g clip-path="url(#p9a95590576)">
     <use xlink:href="#C2_0_5de60f09d4" x="149.994317" y="129.91786" style="fill: #808080; stroke: #808080"/>
    </g>
    <g clip-path="url(#p9a95590576)">
     <use xlink:href="#C2_0_5de60f09d4" x="151.617422" y="129.91786" style="fill: #808080; stroke: #808080"/>
    </g>
    <g clip-path="url(#p9a95590576)">
     <use xlink:href="#C2_0_5de60f09d4" x="153.240528" y="129.91786" style="fill: #808080; stroke: #808080"/>
    </g>
    <g clip-path="url(#p9a95590576)">
     <use xlink:href="#C2_0_5de60f09d4" x="154.863634" y="129.91786" style="stroke: #000000"/>
    </g>
    <g clip-path="url(#p9a95590576)">
     <use xlink:href="#C2_0_5de60f09d4" x="156.486739" y="129.91786" style="fill: #808080; stroke: #808080"/>
    </g>
    <g clip-path="url(#p9a95590576)">
     <use xlink:href="#C2_0_5de60f09d4" x="158.109845" y="129.91786" style="fill: #808080; stroke: #808080"/>
    </g>
    <g clip-path="url(#p9a95590576)">
     <use xlink:href="#C2_0_5de60f09d4" x="159.732951" y="129.91786" style="fill: #808080; stroke: #808080"/>
    </g>
    <g clip-path="url(#p9a95590576)">
     <use xlink:href="#C2_0_5de60f09d4" x="161.356056" y="129.91786" style="fill: #808080; stroke: #808080"/>
    </g>
    <g clip-path="url(#p9a95590576)">
     <use xlink:href="#C2_0_5de60f09d4" x="162.887667" y="129.11198" style="stroke: #000000"/>
    </g>
    <g clip-path="url(#p9a95590576)">
     <use xlink:href="#C2_0_5de60f09d4" x="145.125" y="127.084248" style="stroke: #000000"/>
    </g>
    <g clip-path="url(#p9a95590576)">
     <use xlink:href="#C2_0_5de60f09d4" x="146.312221" y="125.424067" style="fill: #808080; stroke: #808080"/>
    </g>
    <g clip-path="url(#p9a95590576)">
     <use xlink:href="#C2_0_5de60f09d4" x="147.729868" y="124.238451" style="fill: #808080; stroke: #808080"/>
    </g>
    <g clip-path="url(#p9a95590576)">
     <use xlink:href="#C2_0_5de60f09d4" x="149.348799" y="124.063946" style="stroke: #000000"/>
    </g>
    <g clip-path="url(#p9a95590576)">
     <use xlink:href="#C2_0_5de60f09d4" x="145.125" y="122.648412" style="fill: #808080; stroke: #808080"/>
    </g>
    <g clip-path="url(#p9a95590576)">
     <use xlink:href="#C2_0_5de60f09d4" x="146.484322" y="121.317958" style="fill: #808080; stroke: #808080"/>
    </g>
    <g clip-path="url(#p9a95590576)">
     <use xlink:href="#C2_0_5de60f09d4" x="148.10698" y="121.260743" style="fill: #808080; stroke: #808080"/>
    </g>
    <g clip-path="url(#p9a95590576)">
     <use xlink:href="#C2_0_5de60f09d4" x="149.726441" y="121.097681" style="stroke: #000000"/>
    </g>
    <g clip-path="url(#p9a95590576)">
     <use xlink:href="#C2_0_5de60f09d4" x="145.125" y="119.52025" style="fill: #808080; stroke: #808080"/>
    </g>
    <g clip-path="url(#p9a95590576)">
     <use xlink:href="#C2_0_5de60f09d4" x="150.84111" y="119.327945" style="stroke: #000000"/>
    </g>
    <g clip-path="url(#p9a95590576)">
     <use xlink:href="#C2_0_5de60f09d4" x="146.5809" y="118.443978" style="stroke: #000000"/>
    </g>
    <g clip-path="url(#p9a95590576)">
     <use xlink:href="#C2_0_5de60f09d4" x="148.038846" y="117.373957" style="fill: #808080; stroke: #808080"/>
    </g>
    <g clip-path="url(#p9a95590576)">
     <use xlink:href="#C2_0_5de60f09d4" x="149.656305" y="117.171057" style="fill: #808080; stroke: #808080"/>
    </g>
    <g clip-path="url(#p9a95590576)">
     <use xlink:href="#C2_0_5de60f09d4" x="145.125" y="116.993903" style="stroke: #000000"/>
    </g>
    <g clip-path="url(#p9a95590576)">
     <use xlink:href="#C2_0_5de60f09d4" x="151.257523" y="116.772567" style="stroke: #000000"/>
    </g>
    <g clip-path="url(#p9a95590576)">
     <use xlink:href="#C2_0_5de60f09d4" x="146.52911" y="115.772581" style="stroke: #000000"/>
    </g>
    <g clip-path="url(#p9a95590576)">
     <use xlink:href="#C2_0_5de60f09d4" x="152.528874" y="115.259026" style="stroke: #000000"/>
    </g>
    <g clip-path="url(#p9a95590576)">
     <use xlink:href="#C2_0_5de60f09d4" x="147.947937" y="114.590143" style="stroke: #000000"/>
    </g>
    <g clip-path="url(#p9a95590576)">
     <use xlink:href="#C2_0_5de60f09d4" x="145.125" y="112.44332" style="fill: #808080; stroke: #808080"/>
    </g>
    <g clip-path="url(#p9a95590576)">
     <use xlink:href="#C2_0_5de60f09d4" x="146.718511" y="111.980516" style="stroke: #000000"/>
    </g>
    <g clip-path="url(#p9a95590576)">
     <use xlink:href="#C2_0_5de60f09d4" x="145.125" y="108.499107" style="fill: #808080; stroke: #808080"/>
    </g>
    <g clip-path="url(#p9a95590576)">
     <use xlink:href="#C2_0_5de60f09d4" x="145.125" y="105.462913" style="stroke: #000000"/>
    </g>
    <g clip-path="url(#p9a95590576)">
     <use xlink:href="#C2_0_5de60f09d4" x="145.125" y="98.34519" style="fill: #808080; stroke: #808080"/>
    </g>
   </g>
   <g id="PathCollection_4">
    <defs>
     <path id="C3_0_03ed145270" d="M 0 0.632456 
C 0.167729 0.632456 0.328611 0.565816 0.447214 0.447214 
C 0.565816 0.328611 0.632456 0.167729 0.632456 -0 
C 0.632456 -0.167729 0.565816 -0.328611 0.447214 -0.447214 
C 0.328611 -0.565816 0.167729 -0.632456 0 -0.632456 
C -0.167729 -0.632456 -0.328611 -0.565816 -0.447214 -0.447214 
C -0.565816 -0.328611 -0.632456 -0.167729 -0.632456 0 
C -0.632456 0.167729 -0.565816 0.328611 -0.447214 0.447214 
C -0.328611 0.565816 -0.167729 0.632456 0 0.632456 
z
"/>
    </defs>
    <g clip-path="url(#p9a95590576)">
     <use xlink:href="#C3_0_03ed145270" x="186.975" y="129.91786" style="fill: #2e8b57; stroke: #2e8b57"/>
    </g>
    <g clip-path="url(#p9a95590576)">
     <use xlink:href="#C3_0_03ed145270" x="188.598106" y="129.91786" style="fill: #2e8b57; stroke: #2e8b57"/>
    </g>
    <g clip-path="url(#p9a95590576)">
     <use xlink:href="#C3_0_03ed145270" x="190.221211" y="129.91786" style="fill: #2e8b57; stroke: #2e8b57"/>
    </g>
    <g clip-path="url(#p9a95590576)">
     <use xlink:href="#C3_0_03ed145270" x="191.844317" y="129.91786" style="fill: #2e8b57; stroke: #2e8b57"/>
    </g>
    <g clip-path="url(#p9a95590576)">
     <use xlink:href="#C3_0_03ed145270" x="193.467422" y="129.91786" style="fill: #2e8b57; stroke: #2e8b57"/>
    </g>
    <g clip-path="url(#p9a95590576)">
     <use xlink:href="#C3_0_03ed145270" x="195.090528" y="129.91786" style="fill: #2e8b57; stroke: #2e8b57"/>
    </g>
    <g clip-path="url(#p9a95590576)">
     <use xlink:href="#C3_0_03ed145270" x="196.696115" y="129.561115" style="fill: #2e8b57; stroke: #2e8b57"/>
    </g>
    <g clip-path="url(#p9a95590576)">
     <use xlink:href="#C3_0_03ed145270" x="198.302884" y="129.216555" style="fill: #2e8b57; stroke: #2e8b57"/>
    </g>
    <g clip-path="url(#p9a95590576)">
     <use xlink:href="#C3_0_03ed145270" x="186.975" y="123.926101" style="fill: #2e8b57; stroke: #2e8b57"/>
    </g>
    <g clip-path="url(#p9a95590576)">
     <use xlink:href="#C3_0_03ed145270" x="186.975" y="116.479394" style="fill: #2e8b57; stroke: #2e8b57"/>
    </g>
    <g clip-path="url(#p9a95590576)">
     <use xlink:href="#C3_0_03ed145270" x="188.507746" y="115.678388" style="fill: #2e8b57; stroke: #2e8b57"/>
    </g>
    <g clip-path="url(#p9a95590576)">
     <use xlink:href="#C3_0_03ed145270" x="186.975" y="111.52015" style="fill: #2e8b57; stroke: #2e8b57"/>
    </g>
    <g clip-path="url(#p9a95590576)">
     <use xlink:href="#C3_0_03ed145270" x="186.975" y="108.341766" style="fill: #2e8b57; stroke: #2e8b57"/>
    </g>
    <g clip-path="url(#p9a95590576)">
     <use xlink:href="#C3_0_03ed145270" x="187.872829" y="106.313505" style="fill: #2e8b57; stroke: #2e8b57"/>
    </g>
    <g clip-path="url(#p9a95590576)">
     <use xlink:href="#C3_0_03ed145270" x="189.484998" y="106.031351" style="fill: #2e8b57; stroke: #2e8b57"/>
    </g>
    <g clip-path="url(#p9a95590576)">
     <use xlink:href="#C3_0_03ed145270" x="186.975" y="103.782283" style="fill: #2e8b57; stroke: #2e8b57"/>
    </g>
    <g clip-path="url(#p9a95590576)">
     <use xlink:href="#C3_0_03ed145270" x="188.597966" y="103.750391" style="fill: #2e8b57; stroke: #2e8b57"/>
    </g>
    <g clip-path="url(#p9a95590576)">
     <use xlink:href="#C3_0_03ed145270" x="190.120549" y="102.906898" style="fill: #2e8b57; stroke: #2e8b57"/>
    </g>
    <g clip-path="url(#p9a95590576)">
     <use xlink:href="#C3_0_03ed145270" x="186.975" y="100.185279" style="fill: #2e8b57; stroke: #2e8b57"/>
    </g>
    <g clip-path="url(#p9a95590576)">
     <use xlink:href="#C3_0_03ed145270" x="186.975" y="94.770648" style="fill: #2e8b57; stroke: #2e8b57"/>
    </g>
    <g clip-path="url(#p9a95590576)">
     <use xlink:href="#C3_0_03ed145270" x="186.975" y="92.265809" style="fill: #2e8b57; stroke: #2e8b57"/>
    </g>
    <g clip-path="url(#p9a95590576)">
     <use xlink:href="#C3_0_03ed145270" x="186.975" y="87.856673" style="fill: #2e8b57; stroke: #2e8b57"/>
    </g>
    <g clip-path="url(#p9a95590576)">
     <use xlink:href="#C3_0_03ed145270" x="186.975" y="81.023435" style="fill: #2e8b57; stroke: #2e8b57"/>
    </g>
    <g clip-path="url(#p9a95590576)">
     <use xlink:href="#C3_0_03ed145270" x="186.975" y="66.86078" style="fill: #2e8b57; stroke: #2e8b57"/>
    </g>
   </g>
   <g id="matplotlib.axis_1">
    <g id="xtick_1">
     <g id="line2d_1">
      <defs>
       <path id="mbde8732c7f" d="M 0 0 
L 0 3.5 
" style="stroke: #000000; stroke-width: 0.8"/>
      </defs>
      <g>
       <use xlink:href="#mbde8732c7f" x="61.425" y="130.977391" style="stroke: #000000; stroke-width: 0.8"/>
      </g>
     </g>
     <g id="text_1">
      <text style="font: 12px 'inter', sans-serif; text-anchor: middle" x="61.425" y="146.707391" transform="rotate(-0 61.425 146.707391)">Ctrl</text>
     </g>
    </g>
    <g id="xtick_2">
     <g id="line2d_2">
      <g>
       <use xlink:href="#mbde8732c7f" x="103.275" y="130.977391" style="stroke: #000000; stroke-width: 0.8"/>
      </g>
     </g>
     <g id="text_2">
      <text style="font: 12px 'inter', sans-serif; text-anchor: middle" x="103.275" y="146.707391" transform="rotate(-0 103.275 146.707391)">Test</text>
     </g>
    </g>
    <g id="xtick_3">
     <g id="line2d_3">
      <g>
       <use xlink:href="#mbde8732c7f" x="145.125" y="130.977391" style="stroke: #000000; stroke-width: 0.8"/>
      </g>
     </g>
     <g id="text_3">
      <text style="font: 12px 'inter', sans-serif; text-anchor: middle" x="145.125" y="146.707391" transform="rotate(-0 145.125 146.707391)">Ctrl</text>
     </g>
    </g>
    <g id="xtick_4">
     <g id="line2d_4">
      <g>
       <use xlink:href="#mbde8732c7f" x="186.975" y="130.977391" style="stroke: #000000; stroke-width: 0.8"/>
      </g>
     </g>
     <g id="text_4">
      <text style="font: 12px 'inter', sans-serif; text-anchor: middle" x="186.975" y="146.707391" transform="rotate(-0 186.975 146.707391)">Test</text>
     </g>
    </g>
   </g>
   <g id="matplotlib.axis_2">
    <g id="ytick_1">
     <g id="line2d_5">
      <defs>
       <path id="m1a71a63aa4" d="M 0 0 
L -3.5 0 
" style="stroke: #000000; stroke-width: 0.8"/>
      </defs>
      <g>
       <use xlink:href="#m1a71a63aa4" x="40.5" y="129.91786" style="stroke: #000000; stroke-width: 0.8"/>
      </g>
     </g>
     <g id="text_5">
      <text style="font: 6px 'inter', sans-serif; text-anchor: end" x="33.5" y="132.10036" transform="rotate(-0 33.5 132.10036)">0</text>
     </g>
    </g>
    <g id="ytick_2">
     <g id="line2d_6">
      <g>
       <use xlink:href="#m1a71a63aa4" x="40.5" y="108.727224" style="stroke: #000000; stroke-width: 0.8"/>
      </g>
     </g>
     <g id="text_6">
      <text style="font: 6px 'inter', sans-serif; text-anchor: end" x="33.5" y="110.909724" transform="rotate(-0 33.5 110.909724)">200</text>
     </g>
    </g>
    <g id="ytick_3">
     <g id="line2d_7">
      <g>
       <use xlink:href="#m1a71a63aa4" x="40.5" y="87.536589" style="stroke: #000000; stroke-width: 0.8"/>
      </g>
     </g>
     <g id="text_7">
      <text style="font: 6px 'inter', sans-serif; text-anchor: end" x="33.5" y="89.719089" transform="rotate(-0 33.5 89.719089)">400</text>
     </g>
    </g>
    <g id="ytick_4">
     <g id="line2d_8">
      <g>
       <use xlink:href="#m1a71a63aa4" x="40.5" y="66.345953" style="stroke: #000000; stroke-width: 0.8"/>
      </g>
     </g>
     <g id="text_8">
      <text style="font: 6px 'inter', sans-serif; text-anchor: end" x="33.5" y="68.528453" transform="rotate(-0 33.5 68.528453)">600</text>
     </g>
    </g>
    <g id="ytick_5">
     <g id="line2d_9">
      <g>
       <use xlink:href="#m1a71a63aa4" x="40.5" y="45.155318" style="stroke: #000000; stroke-width: 0.8"/>
      </g>
     </g>
     <g id="text_9">
      <text style="font: 6px 'inter', sans-serif; text-anchor: end" x="33.5" y="47.337818" transform="rotate(-0 33.5 47.337818)">800</text>
     </g>
    </g>
    <g id="text_10">
     <text style="font: 12px 'inter', sans-serif; text-anchor: middle" x="15.604375" y="82.768696" transform="rotate(-90 15.604375 82.768696)">Total Volume (nL)</text>
    </g>
   </g>
   <g id="line2d_10">
    <path d="M 57.24 123.588822 
L 57.24 112.720636 
" style="fill: none; stroke: #000000; stroke-width: 2; stroke-linecap: square"/>
   </g>
   <g id="line2d_11">
    <path d="M 57.24 109.828114 
L 57.24 98.959928 
" style="fill: none; stroke: #000000; stroke-width: 2; stroke-linecap: square"/>
   </g>
   <g id="line2d_12">
    <path d="M 99.09 118.687032 
L 99.09 111.259111 
" style="fill: none; stroke: #000000; stroke-width: 2; stroke-linecap: square"/>
   </g>
   <g id="line2d_13">
    <path d="M 99.09 108.36659 
L 99.09 100.938669 
" style="fill: none; stroke: #000000; stroke-width: 2; stroke-linecap: square"/>
   </g>
   <g id="line2d_14">
    <path d="M 140.94 129.790776 
L 140.94 123.147328 
" style="fill: none; stroke: #000000; stroke-width: 2; stroke-linecap: square"/>
   </g>
   <g id="line2d_15">
    <path d="M 140.94 120.254806 
L 140.94 113.611358 
" style="fill: none; stroke: #000000; stroke-width: 2; stroke-linecap: square"/>
   </g>
   <g id="line2d_16">
    <path d="M 182.79 128.745149 
L 182.79 112.278664 
" style="fill: none; stroke: #000000; stroke-width: 2; stroke-linecap: square"/>
   </g>
   <g id="line2d_17">
    <path d="M 182.79 109.386142 
L 182.79 92.919658 
" style="fill: none; stroke: #000000; stroke-width: 2; stroke-linecap: square"/>
   </g>
   <g id="legend_1"/>
   <g id="LineCollection_1">
    <defs>
     <path id="m99c2ed8e46" d="M 61.425 -157.022609 
L 103.275 -157.022609 
" style="stroke: #000000"/>
    </defs>
    <g>
     <use xlink:href="#m99c2ed8e46" x="0" y="288" style="stroke: #000000"/>
    </g>
   </g>
   <g id="LineCollection_2">
    <defs>
     <path id="m3c0a87d3b6" d="M 145.125 -157.022609 
L 186.975 -157.022609 
" style="stroke: #000000"/>
    </defs>
    <g>
     <use xlink:href="#m3c0a87d3b6" x="0" y="288" style="stroke: #000000"/>
    </g>
   </g>
   <g id="LineCollection_3">
    <defs>
     <path id="mb45d18daaf" d="M 40.5 -157.022609 
L 40.5 -253.44 
" style="stroke: #000000"/>
    </defs>
    <g>
     <use xlink:href="#mb45d18daaf" x="0" y="288" style="stroke: #000000"/>
    </g>
   </g>
  </g>
  <g id="axes_2">
   <g id="patch_6">
    <path d="M 92.8125 230.098245 
L 113.7375 230.098245 
L 113.7375 226.546445 
L 92.8125 226.546445 
z
" clip-path="url(#p547677dcd3)" style="opacity: 0.05; stroke: #000000; stroke-linejoin: miter"/>
   </g>
   <g id="patch_7">
    <path d="M 176.5125 230.098245 
L 197.4375 230.098245 
L 197.4375 203.685194 
L 176.5125 203.685194 
z
" clip-path="url(#p547677dcd3)" style="opacity: 0.05; stroke: #000000; stroke-linejoin: miter"/>
   </g>
   <g id="patch_8">
    <path d="M 260.2125 230.098245 
L 281.1375 230.098245 
L 281.1375 207.236994 
L 260.2125 207.236994 
z
" clip-path="url(#p547677dcd3)" style="opacity: 0.05; stroke: #000000; stroke-linejoin: miter"/>
   </g>
   <g id="PolyCollection_1">
    <defs>
     <path id="m2114a035c0" d="M 103.304093 -38.089476 
L 103.275351 -38.089476 
L 103.275351 -38.566834 
L 103.275351 -39.044192 
L 103.275351 -39.52155 
L 103.275351 -39.998908 
L 103.275351 -40.476266 
L 103.275351 -40.953624 
L 103.275351 -41.430982 
L 103.275351 -41.90834 
L 103.275351 -42.385698 
L 103.275351 -42.863055 
L 103.275351 -43.340413 
L 103.275351 -43.817771 
L 103.275351 -44.295129 
L 103.275351 -44.772487 
L 103.275351 -45.249845 
L 103.275351 -45.727203 
L 103.275351 -46.204561 
L 103.275351 -46.681919 
L 103.275351 -47.159277 
L 103.275351 -47.636635 
L 103.275351 -48.113993 
L 103.275351 -48.591351 
L 103.275351 -49.068709 
L 103.275351 -49.546066 
L 103.275351 -50.023424 
L 103.275351 -50.500782 
L 103.275351 -50.97814 
L 103.275351 -51.455498 
L 103.275351 -51.932856 
L 103.275351 -52.410214 
L 103.275351 -52.887572 
L 103.275351 -53.36493 
L 103.275351 -53.842288 
L 103.275351 -54.319646 
L 103.275351 -54.797004 
L 103.275351 -55.274362 
L 103.275351 -55.751719 
L 103.275351 -56.229077 
L 103.275351 -56.706435 
L 103.275351 -57.183793 
L 103.275351 -57.661151 
L 103.275351 -58.138509 
L 103.275351 -58.615867 
L 103.275351 -59.093225 
L 103.275351 -59.570583 
L 103.275351 -60.047941 
L 103.275351 -60.525299 
L 103.275351 -61.002657 
L 103.275351 -61.480015 
L 103.275351 -61.957372 
L 103.275351 -62.43473 
L 103.275351 -62.912088 
L 103.275351 -63.389446 
L 103.275351 -63.866804 
L 103.275351 -64.344162 
L 103.275351 -64.82152 
L 103.275351 -65.298878 
L 103.275351 -65.776236 
L 103.275351 -66.253594 
L 103.275351 -66.730952 
L 103.275351 -67.20831 
L 103.275351 -67.685668 
L 103.275351 -68.163026 
L 103.275351 -68.640383 
L 103.275351 -69.117741 
L 103.275351 -69.595099 
L 103.275351 -70.072457 
L 103.275351 -70.549815 
L 103.275351 -71.027173 
L 103.275351 -71.504531 
L 103.275351 -71.981889 
L 103.275351 -72.459247 
L 103.275351 -72.936605 
L 103.275351 -73.413963 
L 103.275351 -73.891321 
L 103.275351 -74.368679 
L 103.275351 -74.846036 
L 103.275351 -75.323394 
L 103.275351 -75.800752 
L 103.275351 -76.27811 
L 103.275351 -76.755468 
L 103.275351 -77.232826 
L 103.275351 -77.710184 
L 103.275351 -78.187542 
L 103.275351 -78.6649 
L 103.275351 -79.142258 
L 103.275351 -79.619616 
L 103.275351 -80.096974 
L 103.275351 -80.574332 
L 103.275351 -81.05169 
L 103.275351 -81.529047 
L 103.275351 -82.006405 
L 103.275351 -82.483763 
L 103.275351 -82.961121 
L 103.275351 -83.438479 
L 103.275351 -83.915837 
L 103.275351 -84.393195 
L 103.275351 -84.870553 
L 103.275351 -85.347911 
L 103.288077 -85.347911 
L 103.288077 -85.347911 
L 103.288916 -84.870553 
L 103.289811 -84.393195 
L 103.292119 -83.915837 
L 103.296843 -83.438479 
L 103.304091 -82.961121 
L 103.313147 -82.483763 
L 103.323102 -82.006405 
L 103.333794 -81.529047 
L 103.346578 -81.05169 
L 103.364396 -80.574332 
L 103.390922 -80.096974 
L 103.429349 -79.619616 
L 103.481823 -79.142258 
L 103.55016 -78.6649 
L 103.637407 -78.187542 
L 103.74868 -77.710184 
L 103.889293 -77.232826 
L 104.059851 -76.755468 
L 104.251706 -76.27811 
L 104.448441 -75.800752 
L 104.635078 -75.323394 
L 104.808661 -74.846036 
L 104.980732 -74.368679 
L 105.169386 -73.891321 
L 105.389079 -73.413963 
L 105.647898 -72.936605 
L 105.95251 -72.459247 
L 106.311722 -71.981889 
L 106.731729 -71.504531 
L 107.207103 -71.027173 
L 107.717852 -70.549815 
L 108.237111 -70.072457 
L 108.743391 -69.595099 
L 109.227673 -69.117741 
L 109.691423 -68.640383 
L 110.138906 -68.163026 
L 110.569708 -67.685668 
L 110.976206 -67.20831 
L 111.348235 -66.730952 
L 111.682811 -66.253594 
L 111.991304 -65.776236 
L 112.29558 -65.298878 
L 112.612451 -64.82152 
L 112.937134 -64.344162 
L 113.240204 -63.866804 
L 113.483057 -63.389446 
L 113.641325 -62.912088 
L 113.718236 -62.43473 
L 113.7375 -61.957372 
L 113.720762 -61.480015 
L 113.666397 -61.002657 
L 113.547324 -60.525299 
L 113.332987 -60.047941 
L 113.019717 -59.570583 
L 112.643079 -59.093225 
L 112.260318 -58.615867 
L 111.918178 -58.138509 
L 111.631631 -57.661151 
L 111.384602 -57.183793 
L 111.145047 -56.706435 
L 110.881917 -56.229077 
L 110.576591 -55.751719 
L 110.226193 -55.274362 
L 109.839135 -54.797004 
L 109.426304 -54.319646 
L 108.993414 -53.842288 
L 108.5398 -53.36493 
L 108.065518 -52.887572 
L 107.5817 -52.410214 
L 107.113645 -51.932856 
L 106.690425 -51.455498 
L 106.327892 -50.97814 
L 106.019937 -50.500782 
L 105.745915 -50.023424 
L 105.48722 -49.546066 
L 105.238655 -49.068709 
L 105.006802 -48.591351 
L 104.800034 -48.113993 
L 104.620355 -47.636635 
L 104.462459 -47.159277 
L 104.31786 -46.681919 
L 104.179518 -46.204561 
L 104.044688 -45.727203 
L 103.915629 -45.249845 
L 103.79809 -44.772487 
L 103.698093 -44.295129 
L 103.618761 -43.817771 
L 103.559068 -43.340413 
L 103.514725 -42.863055 
L 103.480054 -42.385698 
L 103.449815 -41.90834 
L 103.420648 -41.430982 
L 103.391849 -40.953624 
L 103.36503 -40.476266 
L 103.342691 -39.998908 
L 103.326481 -39.52155 
L 103.316112 -39.044192 
L 103.309516 -38.566834 
L 103.304093 -38.089476 
z
"/>
    </defs>
    <g clip-path="url(#p547677dcd3)">
     <use xlink:href="#m2114a035c0" x="0" y="288" style="fill: #808080; fill-opacity: 0.8"/>
    </g>
   </g>
   <g id="PolyCollection_2">
    <defs>
     <path id="m8aecb5b7d3" d="M 186.993987 -51.747947 
L 186.975254 -51.747947 
L 186.975254 -52.459713 
L 186.975254 -53.171479 
L 186.975254 -53.883245 
L 186.975254 -54.595011 
L 186.975254 -55.306777 
L 186.975254 -56.018543 
L 186.975254 -56.730308 
L 186.975254 -57.442074 
L 186.975254 -58.15384 
L 186.975254 -58.865606 
L 186.975254 -59.577372 
L 186.975254 -60.289138 
L 186.975254 -61.000904 
L 186.975254 -61.71267 
L 186.975254 -62.424436 
L 186.975254 -63.136202 
L 186.975254 -63.847967 
L 186.975254 -64.559733 
L 186.975254 -65.271499 
L 186.975254 -65.983265 
L 186.975254 -66.695031 
L 186.975254 -67.406797 
L 186.975254 -68.118563 
L 186.975254 -68.830329 
L 186.975254 -69.542095 
L 186.975254 -70.253861 
L 186.975254 -70.965626 
L 186.975254 -71.677392 
L 186.975254 -72.389158 
L 186.975254 -73.100924 
L 186.975254 -73.81269 
L 186.975254 -74.524456 
L 186.975254 -75.236222 
L 186.975254 -75.947988 
L 186.975254 -76.659754 
L 186.975254 -77.37152 
L 186.975254 -78.083285 
L 186.975254 -78.795051 
L 186.975254 -79.506817 
L 186.975254 -80.218583 
L 186.975254 -80.930349 
L 186.975254 -81.642115 
L 186.975254 -82.353881 
L 186.975254 -83.065647 
L 186.975254 -83.777413 
L 186.975254 -84.489179 
L 186.975254 -85.200945 
L 186.975254 -85.91271 
L 186.975254 -86.624476 
L 186.975254 -87.336242 
L 186.975254 -88.048008 
L 186.975254 -88.759774 
L 186.975254 -89.47154 
L 186.975254 -90.183306 
L 186.975254 -90.895072 
L 186.975254 -91.606838 
L 186.975254 -92.318604 
L 186.975254 -93.030369 
L 186.975254 -93.742135 
L 186.975254 -94.453901 
L 186.975254 -95.165667 
L 186.975254 -95.877433 
L 186.975254 -96.589199 
L 186.975254 -97.300965 
L 186.975254 -98.012731 
L 186.975254 -98.724497 
L 186.975254 -99.436263 
L 186.975254 -100.148028 
L 186.975254 -100.859794 
L 186.975254 -101.57156 
L 186.975254 -102.283326 
L 186.975254 -102.995092 
L 186.975254 -103.706858 
L 186.975254 -104.418624 
L 186.975254 -105.13039 
L 186.975254 -105.842156 
L 186.975254 -106.553922 
L 186.975254 -107.265688 
L 186.975254 -107.977453 
L 186.975254 -108.689219 
L 186.975254 -109.400985 
L 186.975254 -110.112751 
L 186.975254 -110.824517 
L 186.975254 -111.536283 
L 186.975254 -112.248049 
L 186.975254 -112.959815 
L 186.975254 -113.671581 
L 186.975254 -114.383347 
L 186.975254 -115.095112 
L 186.975254 -115.806878 
L 186.975254 -116.518644 
L 186.975254 -117.23041 
L 186.975254 -117.942176 
L 186.975254 -118.653942 
L 186.975254 -119.365708 
L 186.975254 -120.077474 
L 186.975254 -120.78924 
L 186.975254 -121.501006 
L 186.975254 -122.212771 
L 186.98853 -122.212771 
L 186.98853 -122.212771 
L 186.989476 -121.501006 
L 186.990641 -120.78924 
L 186.993661 -120.077474 
L 186.999468 -119.365708 
L 187.00752 -118.653942 
L 187.015962 -117.942176 
L 187.022714 -117.23041 
L 187.026995 -116.518644 
L 187.030408 -115.806878 
L 187.036701 -115.095112 
L 187.050214 -114.383347 
L 187.073895 -113.671581 
L 187.10778 -112.959815 
L 187.148512 -112.248049 
L 187.190729 -111.536283 
L 187.230807 -110.824517 
L 187.271042 -110.112751 
L 187.320289 -109.400985 
L 187.388987 -108.689219 
L 187.481821 -107.977453 
L 187.594231 -107.265688 
L 187.716006 -106.553922 
L 187.839294 -105.842156 
L 187.965556 -105.13039 
L 188.107578 -104.418624 
L 188.285445 -103.706858 
L 188.517312 -102.995092 
L 188.808707 -102.283326 
L 189.147421 -101.57156 
L 189.509324 -100.859794 
L 189.871715 -100.148028 
L 190.223942 -99.436263 
L 190.569179 -98.724497 
L 190.920511 -98.012731 
L 191.296361 -97.300965 
L 191.714871 -96.589199 
L 192.185251 -95.877433 
L 192.700012 -95.165667 
L 193.236031 -94.453901 
L 193.766476 -93.742135 
L 194.275014 -93.030369 
L 194.760135 -92.318604 
L 195.225599 -91.606838 
L 195.66645 -90.895072 
L 196.065238 -90.183306 
L 196.402399 -89.47154 
L 196.669589 -88.759774 
L 196.873511 -88.048008 
L 197.029826 -87.336242 
L 197.15468 -86.624476 
L 197.258716 -85.91271 
L 197.344324 -85.200945 
L 197.40661 -84.489179 
L 197.4375 -83.777413 
L 197.429402 -83.065647 
L 197.376621 -82.353881 
L 197.278229 -81.642115 
L 197.142221 -80.930349 
L 196.980361 -80.218583 
L 196.789594 -79.506817 
L 196.539641 -78.795051 
L 196.190307 -78.083285 
L 195.729297 -77.37152 
L 195.192097 -76.659754 
L 194.640961 -75.947988 
L 194.122598 -75.236222 
L 193.642801 -74.524456 
L 193.1749 -73.81269 
L 192.687636 -73.100924 
L 192.168119 -72.389158 
L 191.627381 -71.677392 
L 191.091747 -70.965626 
L 190.589615 -70.253861 
L 190.140297 -69.542095 
L 189.74778 -68.830329 
L 189.40168 -68.118563 
L 189.085985 -67.406797 
L 188.790423 -66.695031 
L 188.51582 -65.983265 
L 188.27036 -65.271499 
L 188.062244 -64.559733 
L 187.895187 -63.847967 
L 187.767293 -63.136202 
L 187.670821 -62.424436 
L 187.592918 -61.71267 
L 187.519287 -61.000904 
L 187.440152 -60.289138 
L 187.354391 -59.577372 
L 187.268377 -58.865606 
L 187.190595 -58.15384 
L 187.12663 -57.442074 
L 187.077866 -56.730308 
L 187.043157 -56.018543 
L 187.02056 -55.306777 
L 187.007706 -54.595011 
L 187.001591 -53.883245 
L 186.99891 -53.171479 
L 186.996898 -52.459713 
L 186.993987 -51.747947 
z
"/>
    </defs>
    <g clip-path="url(#p547677dcd3)">
     <use xlink:href="#m8aecb5b7d3" x="0" y="288" style="fill: #808080; fill-opacity: 0.8"/>
    </g>
   </g>
   <g id="PolyCollection_3">
    <defs>
     <path id="maa18130958" d="M 270.686622 -36.062609 
L 270.675199 -36.062609 
L 270.675199 -36.947984 
L 270.675199 -37.83336 
L 270.675199 -38.718735 
L 270.675199 -39.604111 
L 270.675199 -40.489486 
L 270.675199 -41.374862 
L 270.675199 -42.260237 
L 270.675199 -43.145613 
L 270.675199 -44.030988 
L 270.675199 -44.916364 
L 270.675199 -45.801739 
L 270.675199 -46.687115 
L 270.675199 -47.57249 
L 270.675199 -48.457866 
L 270.675199 -49.343241 
L 270.675199 -50.228617 
L 270.675199 -51.113992 
L 270.675199 -51.999368 
L 270.675199 -52.884743 
L 270.675199 -53.770119 
L 270.675199 -54.655494 
L 270.675199 -55.54087 
L 270.675199 -56.426245 
L 270.675199 -57.311621 
L 270.675199 -58.196996 
L 270.675199 -59.082372 
L 270.675199 -59.967747 
L 270.675199 -60.853123 
L 270.675199 -61.738498 
L 270.675199 -62.623874 
L 270.675199 -63.509249 
L 270.675199 -64.394625 
L 270.675199 -65.28 
L 270.675199 -66.165375 
L 270.675199 -67.050751 
L 270.675199 -67.936126 
L 270.675199 -68.821502 
L 270.675199 -69.706877 
L 270.675199 -70.592253 
L 270.675199 -71.477628 
L 270.675199 -72.363004 
L 270.675199 -73.248379 
L 270.675199 -74.133755 
L 270.675199 -75.01913 
L 270.675199 -75.904506 
L 270.675199 -76.789881 
L 270.675199 -77.675257 
L 270.675199 -78.560632 
L 270.675199 -79.446008 
L 270.675199 -80.331383 
L 270.675199 -81.216759 
L 270.675199 -82.102134 
L 270.675199 -82.98751 
L 270.675199 -83.872885 
L 270.675199 -84.758261 
L 270.675199 -85.643636 
L 270.675199 -86.529012 
L 270.675199 -87.414387 
L 270.675199 -88.299763 
L 270.675199 -89.185138 
L 270.675199 -90.070514 
L 270.675199 -90.955889 
L 270.675199 -91.841265 
L 270.675199 -92.72664 
L 270.675199 -93.612016 
L 270.675199 -94.497391 
L 270.675199 -95.382767 
L 270.675199 -96.268142 
L 270.675199 -97.153518 
L 270.675199 -98.038893 
L 270.675199 -98.924269 
L 270.675199 -99.809644 
L 270.675199 -100.69502 
L 270.675199 -101.580395 
L 270.675199 -102.465771 
L 270.675199 -103.351146 
L 270.675199 -104.236522 
L 270.675199 -105.121897 
L 270.675199 -106.007273 
L 270.675199 -106.892648 
L 270.675199 -107.778024 
L 270.675199 -108.663399 
L 270.675199 -109.548775 
L 270.675199 -110.43415 
L 270.675199 -111.319526 
L 270.675199 -112.204901 
L 270.675199 -113.090277 
L 270.675199 -113.975652 
L 270.675199 -114.861028 
L 270.675199 -115.746403 
L 270.675199 -116.631779 
L 270.675199 -117.517154 
L 270.675199 -118.40253 
L 270.675199 -119.287905 
L 270.675199 -120.173281 
L 270.675199 -121.058656 
L 270.675199 -121.944032 
L 270.675199 -122.829407 
L 270.675199 -123.714783 
L 270.692054 -123.714783 
L 270.692054 -123.714783 
L 270.695423 -122.829407 
L 270.698994 -121.944032 
L 270.70411 -121.058656 
L 270.712377 -120.173281 
L 270.725063 -119.287905 
L 270.742677 -118.40253 
L 270.76502 -117.517154 
L 270.791773 -116.631779 
L 270.823322 -115.746403 
L 270.861122 -114.861028 
L 270.906738 -113.975652 
L 270.959868 -113.090277 
L 271.017638 -112.204901 
L 271.077169 -111.319526 
L 271.139469 -110.43415 
L 271.21012 -109.548775 
L 271.295432 -108.663399 
L 271.398671 -107.778024 
L 271.52168 -106.892648 
L 271.670761 -106.007273 
L 271.858937 -105.121897 
L 272.098425 -104.236522 
L 272.388369 -103.351146 
L 272.711289 -102.465771 
L 273.044518 -101.580395 
L 273.376053 -100.69502 
L 273.709021 -99.809644 
L 274.052466 -98.924269 
L 274.410425 -98.038893 
L 274.779738 -97.153518 
L 275.1558 -96.268142 
L 275.538914 -95.382767 
L 275.935299 -94.497391 
L 276.351853 -93.612016 
L 276.7893 -92.72664 
L 277.240179 -91.841265 
L 277.69222 -90.955889 
L 278.130432 -90.070514 
L 278.534793 -89.185138 
L 278.881333 -88.299763 
L 279.154019 -87.414387 
L 279.360134 -86.529012 
L 279.533339 -85.643636 
L 279.718897 -84.758261 
L 279.950683 -83.872885 
L 280.233749 -82.98751 
L 280.541016 -82.102134 
L 280.82486 -81.216759 
L 281.035932 -80.331383 
L 281.1375 -79.446008 
L 281.109879 -78.560632 
L 280.949621 -77.675257 
L 280.669644 -76.789881 
L 280.299541 -75.904506 
L 279.880631 -75.01913 
L 279.453161 -74.133755 
L 279.040914 -73.248379 
L 278.643921 -72.363004 
L 278.245084 -71.477628 
L 277.824208 -70.592253 
L 277.368423 -69.706877 
L 276.876452 -68.821502 
L 276.36139 -67.936126 
L 275.851644 -67.050751 
L 275.382697 -66.165375 
L 274.9778 -65.28 
L 274.630193 -64.394625 
L 274.304737 -63.509249 
L 273.96251 -62.623874 
L 273.589836 -61.738498 
L 273.20701 -60.853123 
L 272.850153 -59.967747 
L 272.543657 -59.082372 
L 272.286428 -58.196996 
L 272.059818 -57.311621 
L 271.846149 -56.426245 
L 271.641035 -55.54087 
L 271.45202 -54.655494 
L 271.289143 -53.770119 
L 271.15743 -52.884743 
L 271.055775 -51.999368 
L 270.97983 -51.113992 
L 270.92478 -50.228617 
L 270.886064 -49.343241 
L 270.858571 -48.457866 
L 270.836243 -47.57249 
L 270.81353 -46.687115 
L 270.787881 -45.801739 
L 270.760762 -44.916364 
L 270.7359 -44.030988 
L 270.716276 -43.145613 
L 270.702479 -42.260237 
L 270.693331 -41.374862 
L 270.687487 -40.489486 
L 270.684308 -39.604111 
L 270.683538 -38.718735 
L 270.684544 -37.83336 
L 270.686046 -36.947984 
L 270.686622 -36.062609 
z
"/>
    </defs>
    <g clip-path="url(#p547677dcd3)">
     <use xlink:href="#maa18130958" x="0" y="288" style="fill: #808080; fill-opacity: 0.8"/>
    </g>
   </g>
   <g id="matplotlib.axis_3">
    <g id="xtick_5">
     <g id="line2d_18">
      <g>
       <use xlink:href="#mbde8732c7f" x="61.425" y="256.32" style="stroke: #000000; stroke-width: 0.8"/>
      </g>
     </g>
    </g>
    <g id="xtick_6">
     <g id="line2d_19">
      <g>
       <use xlink:href="#mbde8732c7f" x="103.275" y="256.32" style="stroke: #000000; stroke-width: 0.8"/>
      </g>
     </g>
     <g id="text_11">
      <text style="font: 12px 'inter', sans-serif; text-anchor: middle" x="103.275" y="272.05" transform="rotate(-0 103.275 272.05)">Off</text>
     </g>
    </g>
    <g id="xtick_7">
     <g id="line2d_20">
      <g>
       <use xlink:href="#mbde8732c7f" x="145.125" y="256.32" style="stroke: #000000; stroke-width: 0.8"/>
      </g>
     </g>
    </g>
    <g id="xtick_8">
     <g id="line2d_21">
      <g>
       <use xlink:href="#mbde8732c7f" x="186.975" y="256.32" style="stroke: #000000; stroke-width: 0.8"/>
      </g>
     </g>
     <g id="text_12">
      <text style="font: 12px 'inter', sans-serif; text-anchor: middle" x="186.975" y="272.05" transform="rotate(-0 186.975 272.05)">On</text>
     </g>
    </g>
    <g id="xtick_9">
     <g id="line2d_22">
      <g>
       <use xlink:href="#mbde8732c7f" x="228.825" y="256.32" style="stroke: #000000; stroke-width: 0.8"/>
      </g>
     </g>
    </g>
    <g id="xtick_10">
     <g id="line2d_23">
      <g>
       <use xlink:href="#mbde8732c7f" x="270.675" y="256.32" style="stroke: #000000; stroke-width: 0.8"/>
      </g>
     </g>
     <g id="text_13">
      <!-- $\Delta\Delta$ -->
      <g transform="translate(262.455 272.05)">
       <text>
        <tspan style="font: 12px 'DejaVu Sans'" x="0 8.208984" y="-0.25">ΔΔ</tspan>
       </text>
      </g>
     </g>
    </g>
   </g>
   <g id="matplotlib.axis_4">
    <g id="ytick_6">
     <g id="line2d_24">
      <g>
       <use xlink:href="#m1a71a63aa4" x="40.5" y="255.84701" style="stroke: #000000; stroke-width: 0.8"/>
      </g>
     </g>
     <g id="text_14">
      <text style="font: 6px 'inter', sans-serif; text-anchor: end" x="33.5" y="258.02951" transform="rotate(-0 33.5 258.02951)">−100</text>
     </g>
    </g>
    <g id="ytick_7">
     <g id="line2d_25">
      <g>
       <use xlink:href="#m1a71a63aa4" x="40.5" y="242.972627" style="stroke: #000000; stroke-width: 0.8"/>
      </g>
     </g>
     <g id="text_15">
      <text style="font: 6px 'inter', sans-serif; text-anchor: end" x="33.5" y="245.155127" transform="rotate(-0 33.5 245.155127)">−50</text>
     </g>
    </g>
    <g id="ytick_8">
     <g id="line2d_26">
      <g>
       <use xlink:href="#m1a71a63aa4" x="40.5" y="230.098245" style="stroke: #000000; stroke-width: 0.8"/>
      </g>
     </g>
     <g id="text_16">
      <text style="font: 6px 'inter', sans-serif; text-anchor: end" x="33.5" y="232.280745" transform="rotate(-0 33.5 232.280745)">0</text>
     </g>
    </g>
    <g id="ytick_9">
     <g id="line2d_27">
      <g>
       <use xlink:href="#m1a71a63aa4" x="40.5" y="217.223862" style="stroke: #000000; stroke-width: 0.8"/>
      </g>
     </g>
     <g id="text_17">
      <text style="font: 6px 'inter', sans-serif; text-anchor: end" x="33.5" y="219.406362" transform="rotate(-0 33.5 219.406362)">50</text>
     </g>
    </g>
    <g id="ytick_10">
     <g id="line2d_28">
      <g>
       <use xlink:href="#m1a71a63aa4" x="40.5" y="204.34948" style="stroke: #000000; stroke-width: 0.8"/>
      </g>
     </g>
     <g id="text_18">
      <text style="font: 6px 'inter', sans-serif; text-anchor: end" x="33.5" y="206.53198" transform="rotate(-0 33.5 206.53198)">100</text>
     </g>
    </g>
    <g id="ytick_11">
     <g id="line2d_29">
      <g>
       <use xlink:href="#m1a71a63aa4" x="40.5" y="191.475098" style="stroke: #000000; stroke-width: 0.8"/>
      </g>
     </g>
     <g id="text_19">
      <text style="font: 6px 'inter', sans-serif; text-anchor: end" x="33.5" y="193.657598" transform="rotate(-0 33.5 193.657598)">150</text>
     </g>
    </g>
    <g id="ytick_12">
     <g id="line2d_30">
      <g>
       <use xlink:href="#m1a71a63aa4" x="40.5" y="178.600715" style="stroke: #000000; stroke-width: 0.8"/>
      </g>
     </g>
     <g id="text_20">
      <text style="font: 6px 'inter', sans-serif; text-anchor: end" x="33.5" y="180.783215" transform="rotate(-0 33.5 180.783215)">200</text>
     </g>
    </g>
    <g id="ytick_13">
     <g id="line2d_31">
      <g>
       <use xlink:href="#m1a71a63aa4" x="40.5" y="165.726333" style="stroke: #000000; stroke-width: 0.8"/>
      </g>
     </g>
     <g id="text_21">
      <text style="font: 6px 'inter', sans-serif; text-anchor: end" x="33.5" y="167.908833" transform="rotate(-0 33.5 167.908833)">250</text>
     </g>
    </g>
    <g id="text_22">
     <!-- $\Delta$ Volume (nL) -->
     <g transform="translate(13.070312 248.431304) rotate(-90)">
      <text>
       <tspan style="font: 12px 'DejaVu Sans'" x="0" y="-0.734375">Δ</tspan>
       <tspan style="font: 12px 'Inter'" x="8.208984 11.583984 19.863281 27.058594 29.964844 37.060547 47.572266 54.568359 57.943359 62.320312 69.410156 76.195312" y="-0.734375"> Volume (nL)</tspan>
      </text>
     </g>
    </g>
   </g>
   <g id="line2d_32">
    <path d="M 103.275 226.546445 
" clip-path="url(#p547677dcd3)" style="fill: none; stroke: #000000; stroke-width: 1.5; stroke-linecap: square"/>
    <defs>
     <path id="md93ce1392a" d="M 0 2.5 
C 0.663008 2.5 1.29895 2.236584 1.767767 1.767767 
C 2.236584 1.29895 2.5 0.663008 2.5 0 
C 2.5 -0.663008 2.236584 -1.29895 1.767767 -1.767767 
C 1.29895 -2.236584 0.663008 -2.5 0 -2.5 
C -0.663008 -2.5 -1.29895 -2.236584 -1.767767 -1.767767 
C -2.236584 -1.29895 -2.5 -0.663008 -2.5 0 
C -2.5 0.663008 -2.236584 1.29895 -1.767767 1.767767 
C -1.29895 2.236584 -0.663008 2.5 0 2.5 
z
" style="stroke: #000000"/>
    </defs>
    <g clip-path="url(#p547677dcd3)">
     <use xlink:href="#md93ce1392a" x="103.275" y="226.546445" style="stroke: #000000"/>
    </g>
   </g>
   <g id="line2d_33">
    <path d="M 103.275 240.016308 
L 103.275 213.972531 
" clip-path="url(#p547677dcd3)" style="fill: none; stroke: #000000; stroke-width: 2; stroke-linecap: square"/>
   </g>
   <g id="line2d_34">
    <path d="M 186.975 203.685194 
" clip-path="url(#p547677dcd3)" style="fill: none; stroke: #000000; stroke-width: 1.5; stroke-linecap: square"/>
    <g clip-path="url(#p547677dcd3)">
     <use xlink:href="#md93ce1392a" x="186.975" y="203.685194" style="stroke: #000000"/>
    </g>
   </g>
   <g id="line2d_35">
    <path d="M 186.975 220.767111 
L 186.975 184.39825 
" clip-path="url(#p547677dcd3)" style="fill: none; stroke: #000000; stroke-width: 2; stroke-linecap: square"/>
   </g>
   <g id="line2d_36">
    <path d="M 270.675 207.236994 
" clip-path="url(#p547677dcd3)" style="fill: none; stroke: #000000; stroke-width: 1.5; stroke-linecap: square"/>
    <g clip-path="url(#p547677dcd3)">
     <use xlink:href="#md93ce1392a" x="270.675" y="207.236994" style="stroke: #000000"/>
    </g>
   </g>
   <g id="line2d_37">
    <path d="M 270.675 228.978211 
L 270.675 184.419632 
" clip-path="url(#p547677dcd3)" style="fill: none; stroke: #000000; stroke-width: 2; stroke-linecap: square"/>
   </g>
   <g id="line2d_38">
    <path d="M 40.5 230.098245 
L 291.6 230.098245 
" clip-path="url(#p547677dcd3)" style="fill: none; stroke: #000000; stroke-width: 0.75; stroke-linecap: square"/>
   </g>
   <g id="text_23">
    <text style="font: 10px 'inter', sans-serif; text-anchor: middle" x="123.363" y="229.163633" transform="rotate(-0 123.363 229.163633)">+13.79</text>
   </g>
   <g id="text_24">
    <text style="font: 10px 'inter', sans-serif; text-anchor: middle" x="207.063" y="206.302381" transform="rotate(-0 207.063 206.302381)">+102.58</text>
   </g>
   <g id="text_25">
    <text style="font: 10px 'inter', sans-serif; text-anchor: middle" x="256.0275" y="209.854181" transform="rotate(-0 256.0275 209.854181)">+88.79</text>
   </g>
   <g id="LineCollection_4">
    <defs>
     <path id="mb8c7dec3ae" d="M 61.425 -31.68 
L 103.275 -31.68 
" style="stroke: #000000"/>
    </defs>
    <g>
     <use xlink:href="#mb8c7dec3ae" x="0" y="288" style="stroke: #000000"/>
    </g>
   </g>
   <g id="LineCollection_5">
    <defs>
     <path id="m06274da865" d="M 145.125 -31.68 
L 186.975 -31.68 
" style="stroke: #000000"/>
    </defs>
    <g>
     <use xlink:href="#m06274da865" x="0" y="288" style="stroke: #000000"/>
    </g>
   </g>
   <g id="LineCollection_6">
    <defs>
     <path id="m0f5be9d318" d="M 228.825 -31.68 
L 270.675 -31.68 
" style="stroke: #000000"/>
    </defs>
    <g>
     <use xlink:href="#m0f5be9d318" x="0" y="288" style="stroke: #000000"/>
    </g>
   </g>
   <g id="LineCollection_7">
    <defs>
     <path id="m01ffaa7073" d="M 40.5 -31.68 
L 40.5 -128.097391 
" style="stroke: #000000"/>
    </defs>
    <g>
     <use xlink:href="#m01ffaa7073" x="0" y="288" style="stroke: #000000"/>
    </g>
   </g>
  </g>
  <g id="axes_3">
   <g id="matplotlib.axis_5">
    <g id="ytick_14">
     <g id="line2d_39">
      <defs>
       <path id="m245acac33d" d="M 0 0 
L 3.5 0 
" style="stroke: #000000; stroke-width: 0.8"/>
      </defs>
      <g>
       <use xlink:href="#m245acac33d" x="291.6" y="255.84701" style="stroke: #000000; stroke-width: 0.8"/>
      </g>
     </g>
     <g id="text_26">
      <text style="font: 6px 'inter', sans-serif; text-anchor: start" x="298.6" y="258.02951" transform="rotate(-0 298.6 258.02951)">−100</text>
     </g>
    </g>
    <g id="ytick_15">
     <g id="line2d_40">
      <g>
       <use xlink:href="#m245acac33d" x="291.6" y="242.972627" style="stroke: #000000; stroke-width: 0.8"/>
      </g>
     </g>
     <g id="text_27">
      <text style="font: 6px 'inter', sans-serif; text-anchor: start" x="298.6" y="245.155127" transform="rotate(-0 298.6 245.155127)">−50</text>
     </g>
    </g>
    <g id="ytick_16">
     <g id="line2d_41">
      <g>
       <use xlink:href="#m245acac33d" x="291.6" y="230.098245" style="stroke: #000000; stroke-width: 0.8"/>
      </g>
     </g>
     <g id="text_28">
      <text style="font: 6px 'inter', sans-serif; text-anchor: start" x="298.6" y="232.280745" transform="rotate(-0 298.6 232.280745)">0</text>
     </g>
    </g>
    <g id="ytick_17">
     <g id="line2d_42">
      <g>
       <use xlink:href="#m245acac33d" x="291.6" y="217.223862" style="stroke: #000000; stroke-width: 0.8"/>
      </g>
     </g>
     <g id="text_29">
      <text style="font: 6px 'inter', sans-serif; text-anchor: start" x="298.6" y="219.406362" transform="rotate(-0 298.6 219.406362)">50</text>
     </g>
    </g>
    <g id="ytick_18">
     <g id="line2d_43">
      <g>
       <use xlink:href="#m245acac33d" x="291.6" y="204.34948" style="stroke: #000000; stroke-width: 0.8"/>
      </g>
     </g>
     <g id="text_30">
      <text style="font: 6px 'inter', sans-serif; text-anchor: start" x="298.6" y="206.53198" transform="rotate(-0 298.6 206.53198)">100</text>
     </g>
    </g>
    <g id="ytick_19">
     <g id="line2d_44">
      <g>
       <use xlink:href="#m245acac33d" x="291.6" y="191.475098" style="stroke: #000000; stroke-width: 0.8"/>
      </g>
     </g>
     <g id="text_31">
      <text style="font: 6px 'inter', sans-serif; text-anchor: start" x="298.6" y="193.657598" transform="rotate(-0 298.6 193.657598)">150</text>
     </g>
    </g>
    <g id="ytick_20">
     <g id="line2d_45">
      <g>
       <use xlink:href="#m245acac33d" x="291.6" y="178.600715" style="stroke: #000000; stroke-width: 0.8"/>
      </g>
     </g>
     <g id="text_32">
      <text style="font: 6px 'inter', sans-serif; text-anchor: start" x="298.6" y="180.783215" transform="rotate(-0 298.6 180.783215)">200</text>
     </g>
    </g>
    <g id="ytick_21">
     <g id="line2d_46">
      <g>
       <use xlink:href="#m245acac33d" x="291.6" y="165.726333" style="stroke: #000000; stroke-width: 0.8"/>
      </g>
     </g>
     <g id="text_33">
      <text style="font: 6px 'inter', sans-serif; text-anchor: start" x="298.6" y="167.908833" transform="rotate(-0 298.6 167.908833)">250</text>
     </g>
    </g>
    <g id="text_34">
     <text style="font: 12px 'inter', sans-serif; text-anchor: middle" x="325.310938" y="208.111304" transform="rotate(-90 325.310938 208.111304)">delta - delta</text>
    </g>
   </g>
   <g id="LineCollection_8">
    <defs>
     <path id="mde79cec511" d="M 291.6 -31.68 
L 291.6 -128.097391 
" style="stroke: #000000"/>
    </defs>
    <g>
     <use xlink:href="#mde79cec511" x="0" y="288" style="stroke: #000000"/>
    </g>
   </g>
  </g>
  <g id="text_35">
   <text style="fill: #ffa500; font: italic 500 20px 'inter'; text-anchor: middle" x="162" y="23.19" transform="rotate(-0 162 23.19)">Trhn&gt;ACR1 Females</text>
  </g>
 </g>
 <defs>
  <clipPath id="p9a95590576">
   <rect x="40.5" y="34.56" width="251.1" height="96.417391"/>
  </clipPath>
  <clipPath id="p547677dcd3">
   <rect x="40.5" y="159.902609" width="251.1" height="96.417391"/>
  </clipPath>
 </defs>
</svg>
