<?xml version="1.0" encoding="utf-8" standalone="no"?>
<!DOCTYPE svg PUBLIC "-//W3C//DTD SVG 1.1//EN"
  "http://www.w3.org/Graphics/SVG/1.1/DTD/svg11.dtd">
<svg xmlns:xlink="http://www.w3.org/1999/xlink" width="324pt" height="288pt" viewBox="0 0 324 288" xmlns="http://www.w3.org/2000/svg" version="1.1">
 <metadata>
  <rdf:RDF xmlns:dc="http://purl.org/dc/elements/1.1/" xmlns:cc="http://creativecommons.org/ns#" xmlns:rdf="http://www.w3.org/1999/02/22-rdf-syntax-ns#">
   <cc:Work>
    <dc:type rdf:resource="http://purl.org/dc/dcmitype/StillImage"/>
    <dc:date>2025-02-16T01:37:02.466660</dc:date>
    <dc:format>image/svg+xml</dc:format>
    <dc:creator>
     <cc:Agent>
      <dc:title>Matplotlib v3.6.3, https://matplotlib.org/</dc:title>
     </cc:Agent>
    </dc:creator>
   </cc:Work>
  </rdf:RDF>
 </metadata>
 <defs>
  <style type="text/css">*{stroke-linejoin: round; stroke-linecap: butt}</style>
 </defs>
 <g id="figure_1">
  <g id="patch_1">
   <path d="M 0 288 
L 324 288 
L 324 0 
L 0 0 
z
" style="fill: #ffffff"/>
  </g>
  <g id="axes_1">
   <g id="patch_2">
    <path d="M 50.9625 129.91786 
L 71.8875 129.91786 
L 71.8875 106.343396 
L 50.9625 106.343396 
z
" clip-path="url(#p9973cd57f3)" style="opacity: 0.05; stroke: #000000; stroke-linejoin: miter"/>
   </g>
   <g id="patch_3">
    <path d="M 92.8125 129.91786 
L 113.7375 129.91786 
L 113.7375 98.54809 
L 92.8125 98.54809 
z
" clip-path="url(#p9973cd57f3)" style="opacity: 0.05; stroke: #000000; stroke-linejoin: miter"/>
   </g>
   <g id="patch_4">
    <path d="M 134.6625 129.91786 
L 155.5875 129.91786 
L 155.5875 95.081715 
L 134.6625 95.081715 
z
" clip-path="url(#p9973cd57f3)" style="opacity: 0.05; stroke: #000000; stroke-linejoin: miter"/>
   </g>
   <g id="patch_5">
    <path d="M 176.5125 129.91786 
L 197.4375 129.91786 
L 197.4375 129.043931 
L 176.5125 129.043931 
z
" clip-path="url(#p9973cd57f3)" style="opacity: 0.05; stroke: #000000; stroke-linejoin: miter"/>
   </g>
   <g id="PathCollection_1">
    <defs>
     <path id="C0_0_85c425478b" d="M 0 0.632456 
C 0.167729 0.632456 0.328611 0.565816 0.447214 0.447214 
C 0.565816 0.328611 0.632456 0.167729 0.632456 -0 
C 0.632456 -0.167729 0.565816 -0.328611 0.447214 -0.447214 
C 0.328611 -0.565816 0.167729 -0.632456 0 -0.632456 
C -0.167729 -0.632456 -0.328611 -0.565816 -0.447214 -0.447214 
C -0.565816 -0.328611 -0.632456 -0.167729 -0.632456 0 
C -0.632456 0.167729 -0.565816 0.328611 -0.447214 0.447214 
C -0.328611 0.565816 -0.167729 0.632456 0 0.632456 
z
"/>
    </defs>
    <g clip-path="url(#p9973cd57f3)">
     <use xlink:href="#C0_0_85c425478b" x="61.425" y="129.91786" style="fill: #808080; stroke: #808080"/>
    </g>
    <g clip-path="url(#p9973cd57f3)">
     <use xlink:href="#C0_0_85c425478b" x="63.048106" y="129.91786" style="fill: #808080; stroke: #808080"/>
    </g>
    <g clip-path="url(#p9973cd57f3)">
     <use xlink:href="#C0_0_85c425478b" x="64.671211" y="129.91786" style="fill: #808080; stroke: #808080"/>
    </g>
    <g clip-path="url(#p9973cd57f3)">
     <use xlink:href="#C0_0_85c425478b" x="66.294317" y="129.91786" style="stroke: #000000"/>
    </g>
    <g clip-path="url(#p9973cd57f3)">
     <use xlink:href="#C0_0_85c425478b" x="61.425" y="115.944331" style="fill: #808080; stroke: #808080"/>
    </g>
    <g clip-path="url(#p9973cd57f3)">
     <use xlink:href="#C0_0_85c425478b" x="62.888828" y="114.892534" style="fill: #808080; stroke: #808080"/>
    </g>
    <g clip-path="url(#p9973cd57f3)">
     <use xlink:href="#C0_0_85c425478b" x="64.511097" y="114.81434" style="fill: #808080; stroke: #808080"/>
    </g>
    <g clip-path="url(#p9973cd57f3)">
     <use xlink:href="#C0_0_85c425478b" x="66.111294" y="114.406738" style="fill: #808080; stroke: #808080"/>
    </g>
    <g clip-path="url(#p9973cd57f3)">
     <use xlink:href="#C0_0_85c425478b" x="61.425" y="110.32415" style="fill: #808080; stroke: #808080"/>
    </g>
    <g clip-path="url(#p9973cd57f3)">
     <use xlink:href="#C0_0_85c425478b" x="63.033016" y="109.992941" style="fill: #808080; stroke: #808080"/>
    </g>
    <g clip-path="url(#p9973cd57f3)">
     <use xlink:href="#C0_0_85c425478b" x="64.645867" y="109.719687" style="fill: #808080; stroke: #808080"/>
    </g>
    <g clip-path="url(#p9973cd57f3)">
     <use xlink:href="#C0_0_85c425478b" x="66.26895" y="109.706973" style="stroke: #000000"/>
    </g>
    <g clip-path="url(#p9973cd57f3)">
     <use xlink:href="#C0_0_85c425478b" x="67.810484" y="108.944852" style="fill: #808080; stroke: #808080"/>
    </g>
    <g clip-path="url(#p9973cd57f3)">
     <use xlink:href="#C0_0_85c425478b" x="61.425" y="106.587076" style="fill: #808080; stroke: #808080"/>
    </g>
    <g clip-path="url(#p9973cd57f3)">
     <use xlink:href="#C0_0_85c425478b" x="63.048101" y="106.58146" style="fill: #808080; stroke: #808080"/>
    </g>
    <g clip-path="url(#p9973cd57f3)">
     <use xlink:href="#C0_0_85c425478b" x="64.64906" y="106.180639" style="fill: #808080; stroke: #808080"/>
    </g>
    <g clip-path="url(#p9973cd57f3)">
     <use xlink:href="#C0_0_85c425478b" x="66.272151" y="106.17015" style="stroke: #000000"/>
    </g>
    <g clip-path="url(#p9973cd57f3)">
     <use xlink:href="#C0_0_85c425478b" x="67.876535" y="105.801433" style="fill: #808080; stroke: #808080"/>
    </g>
    <g clip-path="url(#p9973cd57f3)">
     <use xlink:href="#C0_0_85c425478b" x="69.420539" y="105.050649" style="fill: #808080; stroke: #808080"/>
    </g>
    <g clip-path="url(#p9973cd57f3)">
     <use xlink:href="#C0_0_85c425478b" x="61.425" y="104.092938" style="stroke: #000000"/>
    </g>
    <g clip-path="url(#p9973cd57f3)">
     <use xlink:href="#C0_0_85c425478b" x="62.992578" y="103.461563" style="fill: #808080; stroke: #808080"/>
    </g>
    <g clip-path="url(#p9973cd57f3)">
     <use xlink:href="#C0_0_85c425478b" x="64.609683" y="103.252412" style="fill: #808080; stroke: #808080"/>
    </g>
    <g clip-path="url(#p9973cd57f3)">
     <use xlink:href="#C0_0_85c425478b" x="66.058535" y="102.154948" style="stroke: #000000"/>
    </g>
    <g clip-path="url(#p9973cd57f3)">
     <use xlink:href="#C0_0_85c425478b" x="67.672547" y="101.897588" style="stroke: #000000"/>
    </g>
    <g clip-path="url(#p9973cd57f3)">
     <use xlink:href="#C0_0_85c425478b" x="61.425" y="101.607488" style="stroke: #000000"/>
    </g>
    <g clip-path="url(#p9973cd57f3)">
     <use xlink:href="#C0_0_85c425478b" x="62.976866" y="100.894106" style="fill: #808080; stroke: #808080"/>
    </g>
    <g clip-path="url(#p9973cd57f3)">
     <use xlink:href="#C0_0_85c425478b" x="64.588323" y="100.602946" style="stroke: #000000"/>
    </g>
    <g clip-path="url(#p9973cd57f3)">
     <use xlink:href="#C0_0_85c425478b" x="68.667149" y="99.973584" style="stroke: #000000"/>
    </g>
    <g clip-path="url(#p9973cd57f3)">
     <use xlink:href="#C0_0_85c425478b" x="61.425" y="99.020959" style="stroke: #000000"/>
    </g>
    <g clip-path="url(#p9973cd57f3)">
     <use xlink:href="#C0_0_85c425478b" x="62.854712" y="97.868401" style="stroke: #000000"/>
    </g>
    <g clip-path="url(#p9973cd57f3)">
     <use xlink:href="#C0_0_85c425478b" x="64.24042" y="96.600671" style="stroke: #000000"/>
    </g>
    <g clip-path="url(#p9973cd57f3)">
     <use xlink:href="#C0_0_85c425478b" x="61.425" y="94.185786" style="stroke: #000000"/>
    </g>
    <g clip-path="url(#p9973cd57f3)">
     <use xlink:href="#C0_0_85c425478b" x="61.425" y="91.432805" style="stroke: #000000"/>
    </g>
    <g clip-path="url(#p9973cd57f3)">
     <use xlink:href="#C0_0_85c425478b" x="62.000447" y="89.156295" style="stroke: #000000"/>
    </g>
    <g clip-path="url(#p9973cd57f3)">
     <use xlink:href="#C0_0_85c425478b" x="61.425" y="71.026965" style="stroke: #000000"/>
    </g>
   </g>
   <g id="PathCollection_2">
    <defs>
     <path id="C1_0_b51252b49f" d="M 0 0.632456 
C 0.167729 0.632456 0.328611 0.565816 0.447214 0.447214 
C 0.565816 0.328611 0.632456 0.167729 0.632456 -0 
C 0.632456 -0.167729 0.565816 -0.328611 0.447214 -0.447214 
C 0.328611 -0.565816 0.167729 -0.632456 0 -0.632456 
C -0.167729 -0.632456 -0.328611 -0.565816 -0.447214 -0.447214 
C -0.565816 -0.328611 -0.632456 -0.167729 -0.632456 0 
C -0.632456 0.167729 -0.565816 0.328611 -0.447214 0.447214 
C -0.328611 0.565816 -0.167729 0.632456 0 0.632456 
z
"/>
    </defs>
    <g clip-path="url(#p9973cd57f3)">
     <use xlink:href="#C1_0_b51252b49f" x="103.275" y="129.91786" style="fill: #ff4500; stroke: #ff4500"/>
    </g>
    <g clip-path="url(#p9973cd57f3)">
     <use xlink:href="#C1_0_b51252b49f" x="104.898106" y="129.91786" style="fill: #ff4500; stroke: #ff4500"/>
    </g>
    <g clip-path="url(#p9973cd57f3)">
     <use xlink:href="#C1_0_b51252b49f" x="106.521211" y="129.91786" style="fill: #ff4500; stroke: #ff4500"/>
    </g>
    <g clip-path="url(#p9973cd57f3)">
     <use xlink:href="#C1_0_b51252b49f" x="108.144317" y="129.91786" style="fill: #ff4500; stroke: #ff4500"/>
    </g>
    <g clip-path="url(#p9973cd57f3)">
     <use xlink:href="#C1_0_b51252b49f" x="103.275" y="120.852929" style="fill: #ff4500; stroke: #ff4500"/>
    </g>
    <g clip-path="url(#p9973cd57f3)">
     <use xlink:href="#C1_0_b51252b49f" x="104.723173" y="119.753453" style="fill: #ff4500; stroke: #ff4500"/>
    </g>
    <g clip-path="url(#p9973cd57f3)">
     <use xlink:href="#C1_0_b51252b49f" x="103.275" y="108.810291" style="fill: #ff4500; stroke: #ff4500"/>
    </g>
    <g clip-path="url(#p9973cd57f3)">
     <use xlink:href="#C1_0_b51252b49f" x="104.898076" y="108.79567" style="fill: #ff4500; stroke: #ff4500"/>
    </g>
    <g clip-path="url(#p9973cd57f3)">
     <use xlink:href="#C1_0_b51252b49f" x="103.275" y="101.192258" style="fill: #ff4500; stroke: #ff4500"/>
    </g>
    <g clip-path="url(#p9973cd57f3)">
     <use xlink:href="#C1_0_b51252b49f" x="104.202433" y="99.194193" style="fill: #ff4500; stroke: #ff4500"/>
    </g>
    <g clip-path="url(#p9973cd57f3)">
     <use xlink:href="#C1_0_b51252b49f" x="105.815148" y="98.919138" style="fill: #ff4500; stroke: #ff4500"/>
    </g>
    <g clip-path="url(#p9973cd57f3)">
     <use xlink:href="#C1_0_b51252b49f" x="107.389191" y="98.325059" style="fill: #ff4500; stroke: #ff4500"/>
    </g>
    <g clip-path="url(#p9973cd57f3)">
     <use xlink:href="#C1_0_b51252b49f" x="109.007701" y="98.141972" style="fill: #ff4500; stroke: #ff4500"/>
    </g>
    <g clip-path="url(#p9973cd57f3)">
     <use xlink:href="#C1_0_b51252b49f" x="103.275" y="96.959958" style="fill: #ff4500; stroke: #ff4500"/>
    </g>
    <g clip-path="url(#p9973cd57f3)">
     <use xlink:href="#C1_0_b51252b49f" x="104.831502" y="96.269673" style="fill: #ff4500; stroke: #ff4500"/>
    </g>
    <g clip-path="url(#p9973cd57f3)">
     <use xlink:href="#C1_0_b51252b49f" x="103.275" y="94.008315" style="fill: #ff4500; stroke: #ff4500"/>
    </g>
    <g clip-path="url(#p9973cd57f3)">
     <use xlink:href="#C1_0_b51252b49f" x="104.717179" y="92.89125" style="fill: #ff4500; stroke: #ff4500"/>
    </g>
    <g clip-path="url(#p9973cd57f3)">
     <use xlink:href="#C1_0_b51252b49f" x="106.338864" y="92.789429" style="fill: #ff4500; stroke: #ff4500"/>
    </g>
    <g clip-path="url(#p9973cd57f3)">
     <use xlink:href="#C1_0_b51252b49f" x="103.275" y="90.408449" style="fill: #ff4500; stroke: #ff4500"/>
    </g>
    <g clip-path="url(#p9973cd57f3)">
     <use xlink:href="#C1_0_b51252b49f" x="104.682453" y="89.195815" style="fill: #ff4500; stroke: #ff4500"/>
    </g>
    <g clip-path="url(#p9973cd57f3)">
     <use xlink:href="#C1_0_b51252b49f" x="103.275" y="86.436053" style="fill: #ff4500; stroke: #ff4500"/>
    </g>
    <g clip-path="url(#p9973cd57f3)">
     <use xlink:href="#C1_0_b51252b49f" x="103.275" y="83.990124" style="fill: #ff4500; stroke: #ff4500"/>
    </g>
    <g clip-path="url(#p9973cd57f3)">
     <use xlink:href="#C1_0_b51252b49f" x="103.275" y="79.630892" style="fill: #ff4500; stroke: #ff4500"/>
    </g>
    <g clip-path="url(#p9973cd57f3)">
     <use xlink:href="#C1_0_b51252b49f" x="103.275" y="75.52171" style="fill: #ff4500; stroke: #ff4500"/>
    </g>
    <g clip-path="url(#p9973cd57f3)">
     <use xlink:href="#C1_0_b51252b49f" x="103.275" y="11.944188" style="fill: #ff4500; stroke: #ff4500"/>
    </g>
   </g>
   <g id="PathCollection_3">
    <defs>
     <path id="C2_0_db88c26622" d="M 0 0.632456 
C 0.167729 0.632456 0.328611 0.565816 0.447214 0.447214 
C 0.565816 0.328611 0.632456 0.167729 0.632456 -0 
C 0.632456 -0.167729 0.565816 -0.328611 0.447214 -0.447214 
C 0.328611 -0.565816 0.167729 -0.632456 0 -0.632456 
C -0.167729 -0.632456 -0.328611 -0.565816 -0.447214 -0.447214 
C -0.565816 -0.328611 -0.632456 -0.167729 -0.632456 0 
C -0.632456 0.167729 -0.565816 0.328611 -0.447214 0.447214 
C -0.328611 0.565816 -0.167729 0.632456 0 0.632456 
z
"/>
    </defs>
    <g clip-path="url(#p9973cd57f3)">
     <use xlink:href="#C2_0_db88c26622" x="145.125" y="129.91786" style="fill: #808080; stroke: #808080"/>
    </g>
    <g clip-path="url(#p9973cd57f3)">
     <use xlink:href="#C2_0_db88c26622" x="146.748106" y="129.91786" style="fill: #808080; stroke: #808080"/>
    </g>
    <g clip-path="url(#p9973cd57f3)">
     <use xlink:href="#C2_0_db88c26622" x="148.371211" y="129.91786" style="fill: #808080; stroke: #808080"/>
    </g>
    <g clip-path="url(#p9973cd57f3)">
     <use xlink:href="#C2_0_db88c26622" x="149.977328" y="129.566519" style="fill: #808080; stroke: #808080"/>
    </g>
    <g clip-path="url(#p9973cd57f3)">
     <use xlink:href="#C2_0_db88c26622" x="151.579472" y="129.176505" style="fill: #808080; stroke: #808080"/>
    </g>
    <g clip-path="url(#p9973cd57f3)">
     <use xlink:href="#C2_0_db88c26622" x="153.186422" y="128.833853" style="fill: #808080; stroke: #808080"/>
    </g>
    <g clip-path="url(#p9973cd57f3)">
     <use xlink:href="#C2_0_db88c26622" x="145.125" y="122.621182" style="fill: #808080; stroke: #808080"/>
    </g>
    <g clip-path="url(#p9973cd57f3)">
     <use xlink:href="#C2_0_db88c26622" x="145.125" y="118.296597" style="stroke: #000000"/>
    </g>
    <g clip-path="url(#p9973cd57f3)">
     <use xlink:href="#C2_0_db88c26622" x="145.125" y="113.261808" style="stroke: #000000"/>
    </g>
    <g clip-path="url(#p9973cd57f3)">
     <use xlink:href="#C2_0_db88c26622" x="145.125" y="110.355089" style="stroke: #000000"/>
    </g>
    <g clip-path="url(#p9973cd57f3)">
     <use xlink:href="#C2_0_db88c26622" x="146.567325" y="109.238448" style="fill: #808080; stroke: #808080"/>
    </g>
    <g clip-path="url(#p9973cd57f3)">
     <use xlink:href="#C2_0_db88c26622" x="145.125" y="106.233086" style="fill: #808080; stroke: #808080"/>
    </g>
    <g clip-path="url(#p9973cd57f3)">
     <use xlink:href="#C2_0_db88c26622" x="146.698545" y="105.63604" style="fill: #808080; stroke: #808080"/>
    </g>
    <g clip-path="url(#p9973cd57f3)">
     <use xlink:href="#C2_0_db88c26622" x="145.125" y="101.878199" style="stroke: #000000"/>
    </g>
    <g clip-path="url(#p9973cd57f3)">
     <use xlink:href="#C2_0_db88c26622" x="145.125" y="98.420947" style="stroke: #000000"/>
    </g>
    <g clip-path="url(#p9973cd57f3)">
     <use xlink:href="#C2_0_db88c26622" x="145.125" y="53.935022" style="stroke: #000000"/>
    </g>
    <g clip-path="url(#p9973cd57f3)">
     <use xlink:href="#C2_0_db88c26622" x="145.125" y="-11.162292" style="fill: #808080; stroke: #808080"/>
    </g>
    <g clip-path="url(#p9973cd57f3)">
     <use xlink:href="#C2_0_db88c26622" x="145.125" y="-94.573719" style="stroke: #000000"/>
    </g>
   </g>
   <g id="PathCollection_4">
    <defs>
     <path id="C3_0_e3381d6fcb" d="M 0 0.632456 
C 0.167729 0.632456 0.328611 0.565816 0.447214 0.447214 
C 0.565816 0.328611 0.632456 0.167729 0.632456 -0 
C 0.632456 -0.167729 0.565816 -0.328611 0.447214 -0.447214 
C 0.328611 -0.565816 0.167729 -0.632456 0 -0.632456 
C -0.167729 -0.632456 -0.328611 -0.565816 -0.447214 -0.447214 
C -0.565816 -0.328611 -0.632456 -0.167729 -0.632456 0 
C -0.632456 0.167729 -0.565816 0.328611 -0.447214 0.447214 
C -0.328611 0.565816 -0.167729 0.632456 0 0.632456 
z
"/>
    </defs>
    <g clip-path="url(#p9973cd57f3)">
     <use xlink:href="#C3_0_e3381d6fcb" x="186.975" y="129.91786" style="fill: #ff4500; stroke: #ff4500"/>
    </g>
    <g clip-path="url(#p9973cd57f3)">
     <use xlink:href="#C3_0_e3381d6fcb" x="188.598106" y="129.91786" style="fill: #ff4500; stroke: #ff4500"/>
    </g>
    <g clip-path="url(#p9973cd57f3)">
     <use xlink:href="#C3_0_e3381d6fcb" x="190.221211" y="129.91786" style="fill: #ff4500; stroke: #ff4500"/>
    </g>
    <g clip-path="url(#p9973cd57f3)">
     <use xlink:href="#C3_0_e3381d6fcb" x="191.844317" y="129.91786" style="fill: #ff4500; stroke: #ff4500"/>
    </g>
    <g clip-path="url(#p9973cd57f3)">
     <use xlink:href="#C3_0_e3381d6fcb" x="193.467422" y="129.91786" style="fill: #ff4500; stroke: #ff4500"/>
    </g>
    <g clip-path="url(#p9973cd57f3)">
     <use xlink:href="#C3_0_e3381d6fcb" x="195.090528" y="129.91786" style="fill: #ff4500; stroke: #ff4500"/>
    </g>
    <g clip-path="url(#p9973cd57f3)">
     <use xlink:href="#C3_0_e3381d6fcb" x="196.713634" y="129.91786" style="fill: #ff4500; stroke: #ff4500"/>
    </g>
    <g clip-path="url(#p9973cd57f3)">
     <use xlink:href="#C3_0_e3381d6fcb" x="198.251849" y="129.140799" style="fill: #ff4500; stroke: #ff4500"/>
    </g>
    <g clip-path="url(#p9973cd57f3)">
     <use xlink:href="#C3_0_e3381d6fcb" x="199.87487" y="129.1159" style="fill: #ff4500; stroke: #ff4500"/>
    </g>
    <g clip-path="url(#p9973cd57f3)">
     <use xlink:href="#C3_0_e3381d6fcb" x="201.497522" y="129.058367" style="fill: #ff4500; stroke: #ff4500"/>
    </g>
    <g clip-path="url(#p9973cd57f3)">
     <use xlink:href="#C3_0_e3381d6fcb" x="186.975" y="127.095373" style="fill: #ff4500; stroke: #ff4500"/>
    </g>
    <g clip-path="url(#p9973cd57f3)">
     <use xlink:href="#C3_0_e3381d6fcb" x="187.233208" y="124.691719" style="fill: #ff4500; stroke: #ff4500"/>
    </g>
   </g>
   <g id="matplotlib.axis_1">
    <g id="xtick_1">
     <g id="line2d_1">
      <defs>
       <path id="m14f3f1de4d" d="M 0 0 
L 0 3.5 
" style="stroke: #000000; stroke-width: 0.8"/>
      </defs>
      <g>
       <use xlink:href="#m14f3f1de4d" x="61.425" y="130.977391" style="stroke: #000000; stroke-width: 0.8"/>
      </g>
     </g>
     <g id="text_1">
      <text style="font: 12px 'inter', sans-serif; text-anchor: middle" x="61.425" y="146.707391" transform="rotate(-0 61.425 146.707391)">Ctrl</text>
     </g>
    </g>
    <g id="xtick_2">
     <g id="line2d_2">
      <g>
       <use xlink:href="#m14f3f1de4d" x="103.275" y="130.977391" style="stroke: #000000; stroke-width: 0.8"/>
      </g>
     </g>
     <g id="text_2">
      <text style="font: 12px 'inter', sans-serif; text-anchor: middle" x="103.275" y="146.707391" transform="rotate(-0 103.275 146.707391)">Test</text>
     </g>
    </g>
    <g id="xtick_3">
     <g id="line2d_3">
      <g>
       <use xlink:href="#m14f3f1de4d" x="145.125" y="130.977391" style="stroke: #000000; stroke-width: 0.8"/>
      </g>
     </g>
     <g id="text_3">
      <text style="font: 12px 'inter', sans-serif; text-anchor: middle" x="145.125" y="146.707391" transform="rotate(-0 145.125 146.707391)">Ctrl</text>
     </g>
    </g>
    <g id="xtick_4">
     <g id="line2d_4">
      <g>
       <use xlink:href="#m14f3f1de4d" x="186.975" y="130.977391" style="stroke: #000000; stroke-width: 0.8"/>
      </g>
     </g>
     <g id="text_4">
      <text style="font: 12px 'inter', sans-serif; text-anchor: middle" x="186.975" y="146.707391" transform="rotate(-0 186.975 146.707391)">Test</text>
     </g>
    </g>
   </g>
   <g id="matplotlib.axis_2">
    <g id="ytick_1">
     <g id="line2d_5">
      <defs>
       <path id="mdb9c59a504" d="M 0 0 
L -3.5 0 
" style="stroke: #000000; stroke-width: 0.8"/>
      </defs>
      <g>
       <use xlink:href="#mdb9c59a504" x="40.5" y="129.91786" style="stroke: #000000; stroke-width: 0.8"/>
      </g>
     </g>
     <g id="text_5">
      <text style="font: 6px 'inter', sans-serif; text-anchor: end" x="33.5" y="132.10036" transform="rotate(-0 33.5 132.10036)">0</text>
     </g>
    </g>
    <g id="ytick_2">
     <g id="line2d_6">
      <g>
       <use xlink:href="#mdb9c59a504" x="40.5" y="108.727224" style="stroke: #000000; stroke-width: 0.8"/>
      </g>
     </g>
     <g id="text_6">
      <text style="font: 6px 'inter', sans-serif; text-anchor: end" x="33.5" y="110.909724" transform="rotate(-0 33.5 110.909724)">200</text>
     </g>
    </g>
    <g id="ytick_3">
     <g id="line2d_7">
      <g>
       <use xlink:href="#mdb9c59a504" x="40.5" y="87.536589" style="stroke: #000000; stroke-width: 0.8"/>
      </g>
     </g>
     <g id="text_7">
      <text style="font: 6px 'inter', sans-serif; text-anchor: end" x="33.5" y="89.719089" transform="rotate(-0 33.5 89.719089)">400</text>
     </g>
    </g>
    <g id="ytick_4">
     <g id="line2d_8">
      <g>
       <use xlink:href="#mdb9c59a504" x="40.5" y="66.345953" style="stroke: #000000; stroke-width: 0.8"/>
      </g>
     </g>
     <g id="text_8">
      <text style="font: 6px 'inter', sans-serif; text-anchor: end" x="33.5" y="68.528453" transform="rotate(-0 33.5 68.528453)">600</text>
     </g>
    </g>
    <g id="ytick_5">
     <g id="line2d_9">
      <g>
       <use xlink:href="#mdb9c59a504" x="40.5" y="45.155318" style="stroke: #000000; stroke-width: 0.8"/>
      </g>
     </g>
     <g id="text_9">
      <text style="font: 6px 'inter', sans-serif; text-anchor: end" x="33.5" y="47.337818" transform="rotate(-0 33.5 47.337818)">800</text>
     </g>
    </g>
    <g id="text_10">
     <text style="font: 12px 'inter', sans-serif; text-anchor: middle" x="15.604375" y="82.768696" transform="rotate(-90 15.604375 82.768696)">Total Volume (nL)</text>
    </g>
   </g>
   <g id="line2d_10">
    <path d="M 57.24 118.354263 
L 57.24 107.789657 
" clip-path="url(#p9973cd57f3)" style="fill: none; stroke: #000000; stroke-width: 2; stroke-linecap: square"/>
   </g>
   <g id="line2d_11">
    <path d="M 57.24 104.897135 
L 57.24 94.332528 
" clip-path="url(#p9973cd57f3)" style="fill: none; stroke: #000000; stroke-width: 2; stroke-linecap: square"/>
   </g>
   <g id="line2d_12">
    <path d="M 99.09 122.782759 
L 99.09 99.994351 
" clip-path="url(#p9973cd57f3)" style="fill: none; stroke: #000000; stroke-width: 2; stroke-linecap: square"/>
   </g>
   <g id="line2d_13">
    <path d="M 99.09 97.10183 
L 99.09 74.313422 
" clip-path="url(#p9973cd57f3)" style="fill: none; stroke: #000000; stroke-width: 2; stroke-linecap: square"/>
   </g>
   <g id="line2d_14">
    <path d="M 140.94 153.711262 
L 140.94 96.527975 
" clip-path="url(#p9973cd57f3)" style="fill: none; stroke: #000000; stroke-width: 2; stroke-linecap: square"/>
   </g>
   <g id="line2d_15">
    <path d="M 140.94 93.635454 
L 140.94 36.452167 
" clip-path="url(#p9973cd57f3)" style="fill: none; stroke: #000000; stroke-width: 2; stroke-linecap: square"/>
   </g>
   <g id="line2d_16">
    <path d="M 182.79 130.642216 
L 182.79 130.490192 
" clip-path="url(#p9973cd57f3)" style="fill: none; stroke: #000000; stroke-width: 2; stroke-linecap: square"/>
   </g>
   <g id="line2d_17">
    <path d="M 182.79 127.59767 
L 182.79 127.445646 
" clip-path="url(#p9973cd57f3)" style="fill: none; stroke: #000000; stroke-width: 2; stroke-linecap: square"/>
   </g>
   <g id="legend_1"/>
   <g id="LineCollection_1">
    <defs>
     <path id="m473f30820c" d="M 61.425 -157.022609 
L 103.275 -157.022609 
" style="stroke: #000000"/>
    </defs>
    <g>
     <use xlink:href="#m473f30820c" x="0" y="288" style="stroke: #000000"/>
    </g>
   </g>
   <g id="LineCollection_2">
    <defs>
     <path id="mc066a46e75" d="M 145.125 -157.022609 
L 186.975 -157.022609 
" style="stroke: #000000"/>
    </defs>
    <g>
     <use xlink:href="#mc066a46e75" x="0" y="288" style="stroke: #000000"/>
    </g>
   </g>
   <g id="LineCollection_3">
    <defs>
     <path id="m9ac7dcdd00" d="M 40.5 -157.022609 
L 40.5 -253.44 
" style="stroke: #000000"/>
    </defs>
    <g>
     <use xlink:href="#m9ac7dcdd00" x="0" y="288" style="stroke: #000000"/>
    </g>
   </g>
  </g>
  <g id="axes_2">
   <g id="patch_6">
    <path d="M 92.8125 182.250456 
L 113.7375 182.250456 
L 113.7375 177.362328 
L 92.8125 177.362328 
z
" clip-path="url(#p7a4257915c)" style="opacity: 0.05; stroke: #000000; stroke-linejoin: miter"/>
   </g>
   <g id="patch_7">
    <path d="M 176.5125 182.250456 
L 197.4375 182.250456 
L 197.4375 203.546819 
L 176.5125 203.546819 
z
" clip-path="url(#p7a4257915c)" style="opacity: 0.05; stroke: #000000; stroke-linejoin: miter"/>
   </g>
   <g id="patch_8">
    <path d="M 260.2125 182.250456 
L 281.1375 182.250456 
L 281.1375 208.434946 
L 260.2125 208.434946 
z
" clip-path="url(#p7a4257915c)" style="opacity: 0.05; stroke: #000000; stroke-linejoin: miter"/>
   </g>
   <g id="PolyCollection_1">
    <defs>
     <path id="m4c137108b9" d="M 103.311155 -99.336498 
L 103.275447 -99.336498 
L 103.275447 -99.582744 
L 103.275447 -99.828989 
L 103.275447 -100.075234 
L 103.275447 -100.32148 
L 103.275447 -100.567725 
L 103.275447 -100.81397 
L 103.275447 -101.060216 
L 103.275447 -101.306461 
L 103.275447 -101.552706 
L 103.275447 -101.798951 
L 103.275447 -102.045197 
L 103.275447 -102.291442 
L 103.275447 -102.537687 
L 103.275447 -102.783933 
L 103.275447 -103.030178 
L 103.275447 -103.276423 
L 103.275447 -103.522668 
L 103.275447 -103.768914 
L 103.275447 -104.015159 
L 103.275447 -104.261404 
L 103.275447 -104.50765 
L 103.275447 -104.753895 
L 103.275447 -105.00014 
L 103.275447 -105.246386 
L 103.275447 -105.492631 
L 103.275447 -105.738876 
L 103.275447 -105.985121 
L 103.275447 -106.231367 
L 103.275447 -106.477612 
L 103.275447 -106.723857 
L 103.275447 -106.970103 
L 103.275447 -107.216348 
L 103.275447 -107.462593 
L 103.275447 -107.708838 
L 103.275447 -107.955084 
L 103.275447 -108.201329 
L 103.275447 -108.447574 
L 103.275447 -108.69382 
L 103.275447 -108.940065 
L 103.275447 -109.18631 
L 103.275447 -109.432556 
L 103.275447 -109.678801 
L 103.275447 -109.925046 
L 103.275447 -110.171291 
L 103.275447 -110.417537 
L 103.275447 -110.663782 
L 103.275447 -110.910027 
L 103.275447 -111.156273 
L 103.275447 -111.402518 
L 103.275447 -111.648763 
L 103.275447 -111.895008 
L 103.275447 -112.141254 
L 103.275447 -112.387499 
L 103.275447 -112.633744 
L 103.275447 -112.87999 
L 103.275447 -113.126235 
L 103.275447 -113.37248 
L 103.275447 -113.618726 
L 103.275447 -113.864971 
L 103.275447 -114.111216 
L 103.275447 -114.357461 
L 103.275447 -114.603707 
L 103.275447 -114.849952 
L 103.275447 -115.096197 
L 103.275447 -115.342443 
L 103.275447 -115.588688 
L 103.275447 -115.834933 
L 103.275447 -116.081178 
L 103.275447 -116.327424 
L 103.275447 -116.573669 
L 103.275447 -116.819914 
L 103.275447 -117.06616 
L 103.275447 -117.312405 
L 103.275447 -117.55865 
L 103.275447 -117.804896 
L 103.275447 -118.051141 
L 103.275447 -118.297386 
L 103.275447 -118.543631 
L 103.275447 -118.789877 
L 103.275447 -119.036122 
L 103.275447 -119.282367 
L 103.275447 -119.528613 
L 103.275447 -119.774858 
L 103.275447 -120.021103 
L 103.275447 -120.267348 
L 103.275447 -120.513594 
L 103.275447 -120.759839 
L 103.275447 -121.006084 
L 103.275447 -121.25233 
L 103.275447 -121.498575 
L 103.275447 -121.74482 
L 103.275447 -121.991066 
L 103.275447 -122.237311 
L 103.275447 -122.483556 
L 103.275447 -122.729801 
L 103.275447 -122.976047 
L 103.275447 -123.222292 
L 103.275447 -123.468537 
L 103.275447 -123.714783 
L 103.293509 -123.714783 
L 103.293509 -123.714783 
L 103.299034 -123.468537 
L 103.305966 -123.222292 
L 103.314585 -122.976047 
L 103.324245 -122.729801 
L 103.333804 -122.483556 
L 103.342963 -122.237311 
L 103.353371 -121.991066 
L 103.368196 -121.74482 
L 103.390139 -121.498575 
L 103.419356 -121.25233 
L 103.45302 -121.006084 
L 103.48703 -120.759839 
L 103.518879 -120.513594 
L 103.549982 -120.267348 
L 103.586012 -120.021103 
L 103.634755 -119.774858 
L 103.702436 -119.528613 
L 103.790664 -119.282367 
L 103.89604 -119.036122 
L 104.012596 -118.789877 
L 104.134835 -118.543631 
L 104.258901 -118.297386 
L 104.382071 -118.051141 
L 104.503254 -117.804896 
L 104.625616 -117.55865 
L 104.75833 -117.312405 
L 104.913774 -117.06616 
L 105.100883 -116.819914 
L 105.320017 -116.573669 
L 105.564657 -116.327424 
L 105.829366 -116.081178 
L 106.116307 -115.834933 
L 106.432789 -115.588688 
L 106.782156 -115.342443 
L 107.158391 -115.096197 
L 107.549666 -114.849952 
L 107.945918 -114.603707 
L 108.344311 -114.357461 
L 108.751403 -114.111216 
L 109.180881 -113.864971 
L 109.643775 -113.618726 
L 110.134933 -113.37248 
L 110.629061 -113.126235 
L 111.094279 -112.87999 
L 111.511528 -112.633744 
L 111.879703 -112.387499 
L 112.204143 -112.141254 
L 112.487628 -111.895008 
L 112.736518 -111.648763 
L 112.968469 -111.402518 
L 113.202064 -111.156273 
L 113.433826 -110.910027 
L 113.628669 -110.663782 
L 113.7375 -110.417537 
L 113.727878 -110.171291 
L 113.603152 -109.925046 
L 113.3983 -109.678801 
L 113.158923 -109.432556 
L 112.917657 -109.18631 
L 112.678845 -108.940065 
L 112.417102 -108.69382 
L 112.092599 -108.447574 
L 111.678578 -108.201329 
L 111.184104 -107.955084 
L 110.653023 -107.708838 
L 110.138354 -107.462593 
L 109.673038 -107.216348 
L 109.258267 -106.970103 
L 108.871202 -106.723857 
L 108.479793 -106.477612 
L 108.056358 -106.231367 
L 107.589264 -105.985121 
L 107.089305 -105.738876 
L 106.583696 -105.492631 
L 106.099726 -105.246386 
L 105.652394 -105.00014 
L 105.24602 -104.753895 
L 104.883505 -104.50765 
L 104.570877 -104.261404 
L 104.314037 -104.015159 
L 104.113638 -103.768914 
L 103.963235 -103.522668 
L 103.85132 -103.276423 
L 103.765257 -103.030178 
L 103.694513 -102.783933 
L 103.631725 -102.537687 
L 103.572528 -102.291442 
L 103.515525 -102.045197 
L 103.462039 -101.798951 
L 103.414874 -101.552706 
L 103.376718 -101.306461 
L 103.349247 -101.060216 
L 103.33274 -100.81397 
L 103.325685 -100.567725 
L 103.324722 -100.32148 
L 103.325535 -100.075234 
L 103.324414 -99.828989 
L 103.319516 -99.582744 
L 103.311155 -99.336498 
z
"/>
    </defs>
    <g clip-path="url(#p7a4257915c)">
     <use xlink:href="#m4c137108b9" x="0" y="288" style="fill: #808080; fill-opacity: 0.8"/>
    </g>
   </g>
   <g id="PolyCollection_2">
    <defs>
     <path id="mdf2a8d4420" d="M 186.988758 -45.529874 
L 186.977404 -45.529874 
L 186.977404 -46.102188 
L 186.977404 -46.674502 
L 186.977404 -47.246816 
L 186.977404 -47.81913 
L 186.977404 -48.391445 
L 186.977404 -48.963759 
L 186.977404 -49.536073 
L 186.977404 -50.108387 
L 186.977404 -50.680702 
L 186.977404 -51.253016 
L 186.977404 -51.82533 
L 186.977404 -52.397644 
L 186.977404 -52.969958 
L 186.977404 -53.542273 
L 186.977404 -54.114587 
L 186.977404 -54.686901 
L 186.977404 -55.259215 
L 186.977404 -55.83153 
L 186.977404 -56.403844 
L 186.977404 -56.976158 
L 186.977404 -57.548472 
L 186.977404 -58.120786 
L 186.977404 -58.693101 
L 186.977404 -59.265415 
L 186.977404 -59.837729 
L 186.977404 -60.410043 
L 186.977404 -60.982358 
L 186.977404 -61.554672 
L 186.977404 -62.126986 
L 186.977404 -62.6993 
L 186.977404 -63.271614 
L 186.977404 -63.843929 
L 186.977404 -64.416243 
L 186.977404 -64.988557 
L 186.977404 -65.560871 
L 186.977404 -66.133186 
L 186.977404 -66.7055 
L 186.977404 -67.277814 
L 186.977404 -67.850128 
L 186.977404 -68.422442 
L 186.977404 -68.994757 
L 186.977404 -69.567071 
L 186.977404 -70.139385 
L 186.977404 -70.711699 
L 186.977404 -71.284014 
L 186.977404 -71.856328 
L 186.977404 -72.428642 
L 186.977404 -73.000956 
L 186.977404 -73.57327 
L 186.977404 -74.145585 
L 186.977404 -74.717899 
L 186.977404 -75.290213 
L 186.977404 -75.862527 
L 186.977404 -76.434842 
L 186.977404 -77.007156 
L 186.977404 -77.57947 
L 186.977404 -78.151784 
L 186.977404 -78.724098 
L 186.977404 -79.296413 
L 186.977404 -79.868727 
L 186.977404 -80.441041 
L 186.977404 -81.013355 
L 186.977404 -81.58567 
L 186.977404 -82.157984 
L 186.977404 -82.730298 
L 186.977404 -83.302612 
L 186.977404 -83.874926 
L 186.977404 -84.447241 
L 186.977404 -85.019555 
L 186.977404 -85.591869 
L 186.977404 -86.164183 
L 186.977404 -86.736498 
L 186.977404 -87.308812 
L 186.977404 -87.881126 
L 186.977404 -88.45344 
L 186.977404 -89.025754 
L 186.977404 -89.598069 
L 186.977404 -90.170383 
L 186.977404 -90.742697 
L 186.977404 -91.315011 
L 186.977404 -91.887326 
L 186.977404 -92.45964 
L 186.977404 -93.031954 
L 186.977404 -93.604268 
L 186.977404 -94.176582 
L 186.977404 -94.748897 
L 186.977404 -95.321211 
L 186.977404 -95.893525 
L 186.977404 -96.465839 
L 186.977404 -97.038154 
L 186.977404 -97.610468 
L 186.977404 -98.182782 
L 186.977404 -98.755096 
L 186.977404 -99.32741 
L 186.977404 -99.899725 
L 186.977404 -100.472039 
L 186.977404 -101.044353 
L 186.977404 -101.616667 
L 186.977404 -102.188982 
L 187.435446 -102.188982 
L 187.435446 -102.188982 
L 187.695489 -101.616667 
L 188.028646 -101.044353 
L 188.426783 -100.472039 
L 188.874286 -99.899725 
L 189.35078 -99.32741 
L 189.834596 -98.755096 
L 190.307284 -98.182782 
L 190.75945 -97.610468 
L 191.196078 -97.038154 
L 191.637113 -96.465839 
L 192.109809 -95.893525 
L 192.634707 -95.321211 
L 193.212816 -94.748897 
L 193.821945 -94.176582 
L 194.42435 -93.604268 
L 194.981132 -93.031954 
L 195.466188 -92.45964 
L 195.873737 -91.887326 
L 196.216196 -91.315011 
L 196.513295 -90.742697 
L 196.77847 -90.170383 
L 197.011174 -89.598069 
L 197.199908 -89.025754 
L 197.332961 -88.45344 
L 197.408576 -87.881126 
L 197.4375 -87.308812 
L 197.436743 -86.736498 
L 197.41943 -86.164183 
L 197.387981 -85.591869 
L 197.334946 -85.019555 
L 197.24979 -84.447241 
L 197.125539 -83.874926 
L 196.960134 -83.302612 
L 196.752879 -82.730298 
L 196.501483 -82.157984 
L 196.204236 -81.58567 
L 195.86548 -81.013355 
L 195.497901 -80.441041 
L 195.117932 -79.868727 
L 194.737612 -79.296413 
L 194.359608 -78.724098 
L 193.978994 -78.151784 
L 193.590015 -77.57947 
L 193.193013 -77.007156 
L 192.796913 -76.434842 
L 192.415289 -75.862527 
L 192.058324 -75.290213 
L 191.726572 -74.717899 
L 191.411573 -74.145585 
L 191.102564 -73.57327 
L 190.793316 -73.000956 
L 190.483912 -72.428642 
L 190.178064 -71.856328 
L 189.880632 -71.284014 
L 189.598352 -70.711699 
L 189.341685 -70.139385 
L 189.123221 -69.567071 
L 188.951117 -68.994757 
L 188.821832 -68.422442 
L 188.718715 -67.850128 
L 188.618892 -67.277814 
L 188.504157 -66.7055 
L 188.368685 -66.133186 
L 188.21931 -65.560871 
L 188.069457 -64.988557 
L 187.931273 -64.416243 
L 187.810545 -63.843929 
L 187.706557 -63.271614 
L 187.615791 -62.6993 
L 187.536252 -62.126986 
L 187.469194 -61.554672 
L 187.417101 -60.982358 
L 187.379758 -60.410043 
L 187.351922 -59.837729 
L 187.324978 -59.265415 
L 187.291555 -58.693101 
L 187.249502 -58.120786 
L 187.202366 -57.548472 
L 187.156614 -56.976158 
L 187.118001 -56.403844 
L 187.089305 -55.83153 
L 187.070026 -55.259215 
L 187.05752 -54.686901 
L 187.048692 -54.114587 
L 187.041385 -53.542273 
L 187.034823 -52.969958 
L 187.029062 -52.397644 
L 187.024111 -51.82533 
L 187.019544 -51.253016 
L 187.014807 -50.680702 
L 187.009726 -50.108387 
L 187.004613 -49.536073 
L 186.999964 -48.963759 
L 186.996139 -48.391445 
L 186.993309 -47.81913 
L 186.991493 -47.246816 
L 186.990494 -46.674502 
L 186.989807 -46.102188 
L 186.988758 -45.529874 
z
"/>
    </defs>
    <g clip-path="url(#p7a4257915c)">
     <use xlink:href="#mdf2a8d4420" x="0" y="288" style="fill: #808080; fill-opacity: 0.8"/>
    </g>
   </g>
   <g id="PolyCollection_3">
    <defs>
     <path id="m99c128d2db" d="M 270.686501 -36.062609 
L 270.675278 -36.062609 
L 270.675278 -36.751912 
L 270.675278 -37.441216 
L 270.675278 -38.130519 
L 270.675278 -38.819822 
L 270.675278 -39.509126 
L 270.675278 -40.198429 
L 270.675278 -40.887733 
L 270.675278 -41.577036 
L 270.675278 -42.26634 
L 270.675278 -42.955643 
L 270.675278 -43.644947 
L 270.675278 -44.33425 
L 270.675278 -45.023554 
L 270.675278 -45.712857 
L 270.675278 -46.40216 
L 270.675278 -47.091464 
L 270.675278 -47.780767 
L 270.675278 -48.470071 
L 270.675278 -49.159374 
L 270.675278 -49.848678 
L 270.675278 -50.537981 
L 270.675278 -51.227285 
L 270.675278 -51.916588 
L 270.675278 -52.605891 
L 270.675278 -53.295195 
L 270.675278 -53.984498 
L 270.675278 -54.673802 
L 270.675278 -55.363105 
L 270.675278 -56.052409 
L 270.675278 -56.741712 
L 270.675278 -57.431016 
L 270.675278 -58.120319 
L 270.675278 -58.809622 
L 270.675278 -59.498926 
L 270.675278 -60.188229 
L 270.675278 -60.877533 
L 270.675278 -61.566836 
L 270.675278 -62.25614 
L 270.675278 -62.945443 
L 270.675278 -63.634747 
L 270.675278 -64.32405 
L 270.675278 -65.013353 
L 270.675278 -65.702657 
L 270.675278 -66.39196 
L 270.675278 -67.081264 
L 270.675278 -67.770567 
L 270.675278 -68.459871 
L 270.675278 -69.149174 
L 270.675278 -69.838478 
L 270.675278 -70.527781 
L 270.675278 -71.217085 
L 270.675278 -71.906388 
L 270.675278 -72.595691 
L 270.675278 -73.284995 
L 270.675278 -73.974298 
L 270.675278 -74.663602 
L 270.675278 -75.352905 
L 270.675278 -76.042209 
L 270.675278 -76.731512 
L 270.675278 -77.420816 
L 270.675278 -78.110119 
L 270.675278 -78.799422 
L 270.675278 -79.488726 
L 270.675278 -80.178029 
L 270.675278 -80.867333 
L 270.675278 -81.556636 
L 270.675278 -82.24594 
L 270.675278 -82.935243 
L 270.675278 -83.624547 
L 270.675278 -84.31385 
L 270.675278 -85.003153 
L 270.675278 -85.692457 
L 270.675278 -86.38176 
L 270.675278 -87.071064 
L 270.675278 -87.760367 
L 270.675278 -88.449671 
L 270.675278 -89.138974 
L 270.675278 -89.828278 
L 270.675278 -90.517581 
L 270.675278 -91.206884 
L 270.675278 -91.896188 
L 270.675278 -92.585491 
L 270.675278 -93.274795 
L 270.675278 -93.964098 
L 270.675278 -94.653402 
L 270.675278 -95.342705 
L 270.675278 -96.032009 
L 270.675278 -96.721312 
L 270.675278 -97.410615 
L 270.675278 -98.099919 
L 270.675278 -98.789222 
L 270.675278 -99.478526 
L 270.675278 -100.167829 
L 270.675278 -100.857133 
L 270.675278 -101.546436 
L 270.675278 -102.23574 
L 270.675278 -102.925043 
L 270.675278 -103.614347 
L 270.675278 -104.30365 
L 270.708468 -104.30365 
L 270.708468 -104.30365 
L 270.725353 -103.614347 
L 270.748524 -102.925043 
L 270.780877 -102.23574 
L 270.827244 -101.546436 
L 270.89471 -100.857133 
L 270.991958 -100.167829 
L 271.1274 -99.478526 
L 271.306078 -98.789222 
L 271.526508 -98.099919 
L 271.780696 -97.410615 
L 272.059989 -96.721312 
L 272.363554 -96.032009 
L 272.700799 -95.342705 
L 273.082884 -94.653402 
L 273.510803 -93.964098 
L 273.974263 -93.274795 
L 274.465463 -92.585491 
L 274.993315 -91.896188 
L 275.578922 -91.206884 
L 276.231726 -90.517581 
L 276.928485 -89.828278 
L 277.617135 -89.138974 
L 278.243569 -88.449671 
L 278.778672 -87.760367 
L 279.226369 -87.071064 
L 279.612091 -86.38176 
L 279.96348 -85.692457 
L 280.294368 -85.003153 
L 280.598327 -84.31385 
L 280.854196 -83.624547 
L 281.03882 -82.935243 
L 281.136058 -82.24594 
L 281.1375 -81.556636 
L 281.043254 -80.867333 
L 280.86847 -80.178029 
L 280.644636 -79.488726 
L 280.404025 -78.799422 
L 280.159449 -78.110119 
L 279.903721 -77.420816 
L 279.628429 -76.731512 
L 279.334079 -76.042209 
L 279.018673 -75.352905 
L 278.667957 -74.663602 
L 278.269342 -73.974298 
L 277.833569 -73.284995 
L 277.393674 -72.595691 
L 276.980874 -71.906388 
L 276.605366 -71.217085 
L 276.259605 -70.527781 
L 275.933186 -69.838478 
L 275.619394 -69.149174 
L 275.309302 -68.459871 
L 274.986419 -67.770567 
L 274.633476 -67.081264 
L 274.247064 -66.39196 
L 273.845356 -65.702657 
L 273.460073 -65.013353 
L 273.118673 -64.32405 
L 272.830959 -63.634747 
L 272.589241 -62.945443 
L 272.379153 -62.25614 
L 272.190924 -61.566836 
L 272.023556 -60.877533 
L 271.881178 -60.188229 
L 271.765369 -59.498926 
L 271.669193 -58.809622 
L 271.578679 -58.120319 
L 271.481904 -57.431016 
L 271.377593 -56.741712 
L 271.274734 -56.052409 
L 271.184418 -55.363105 
L 271.112432 -54.673802 
L 271.057735 -53.984498 
L 271.014912 -53.295195 
L 270.977093 -52.605891 
L 270.938317 -51.916588 
L 270.895629 -51.227285 
L 270.850209 -50.537981 
L 270.806352 -49.848678 
L 270.7687 -49.159374 
L 270.739903 -48.470071 
L 270.72027 -47.780767 
L 270.708673 -47.091464 
L 270.703149 -46.40216 
L 270.701025 -45.712857 
L 270.69942 -45.023554 
L 270.696353 -44.33425 
L 270.691534 -43.644947 
L 270.686063 -42.955643 
L 270.681327 -42.26634 
L 270.678099 -41.577036 
L 270.676392 -40.887733 
L 270.675873 -40.198429 
L 270.676316 -39.509126 
L 270.677723 -38.819822 
L 270.680088 -38.130519 
L 270.683001 -37.441216 
L 270.685503 -36.751912 
L 270.686501 -36.062609 
z
"/>
    </defs>
    <g clip-path="url(#p7a4257915c)">
     <use xlink:href="#m99c128d2db" x="0" y="288" style="fill: #808080; fill-opacity: 0.8"/>
    </g>
   </g>
   <g id="matplotlib.axis_3">
    <g id="xtick_5">
     <g id="line2d_18">
      <g>
       <use xlink:href="#m14f3f1de4d" x="61.425" y="256.32" style="stroke: #000000; stroke-width: 0.8"/>
      </g>
     </g>
    </g>
    <g id="xtick_6">
     <g id="line2d_19">
      <g>
       <use xlink:href="#m14f3f1de4d" x="103.275" y="256.32" style="stroke: #000000; stroke-width: 0.8"/>
      </g>
     </g>
     <g id="text_11">
      <text style="font: 12px 'inter', sans-serif; text-anchor: middle" x="103.275" y="272.05" transform="rotate(-0 103.275 272.05)">Off</text>
     </g>
    </g>
    <g id="xtick_7">
     <g id="line2d_20">
      <g>
       <use xlink:href="#m14f3f1de4d" x="145.125" y="256.32" style="stroke: #000000; stroke-width: 0.8"/>
      </g>
     </g>
    </g>
    <g id="xtick_8">
     <g id="line2d_21">
      <g>
       <use xlink:href="#m14f3f1de4d" x="186.975" y="256.32" style="stroke: #000000; stroke-width: 0.8"/>
      </g>
     </g>
     <g id="text_12">
      <text style="font: 12px 'inter', sans-serif; text-anchor: middle" x="186.975" y="272.05" transform="rotate(-0 186.975 272.05)">On</text>
     </g>
    </g>
    <g id="xtick_9">
     <g id="line2d_22">
      <g>
       <use xlink:href="#m14f3f1de4d" x="228.825" y="256.32" style="stroke: #000000; stroke-width: 0.8"/>
      </g>
     </g>
    </g>
    <g id="xtick_10">
     <g id="line2d_23">
      <g>
       <use xlink:href="#m14f3f1de4d" x="270.675" y="256.32" style="stroke: #000000; stroke-width: 0.8"/>
      </g>
     </g>
     <g id="text_13">
      <!-- $\Delta\Delta$ -->
      <g transform="translate(262.455 272.05)">
       <text>
        <tspan style="font: 12px 'DejaVu Sans'" x="0 8.208984" y="-0.25">ΔΔ</tspan>
       </text>
      </g>
     </g>
    </g>
   </g>
   <g id="matplotlib.axis_4">
    <g id="ytick_6">
     <g id="line2d_24">
      <g>
       <use xlink:href="#mdb9c59a504" x="40.5" y="248.689502" style="stroke: #000000; stroke-width: 0.8"/>
      </g>
     </g>
     <g id="text_14">
      <text style="font: 6px 'inter', sans-serif; text-anchor: end" x="33.5" y="250.872002" transform="rotate(-0 33.5 250.872002)">−1000</text>
     </g>
    </g>
    <g id="ytick_7">
     <g id="line2d_25">
      <g>
       <use xlink:href="#mdb9c59a504" x="40.5" y="235.401693" style="stroke: #000000; stroke-width: 0.8"/>
      </g>
     </g>
     <g id="text_15">
      <text style="font: 6px 'inter', sans-serif; text-anchor: end" x="33.5" y="237.584193" transform="rotate(-0 33.5 237.584193)">−800</text>
     </g>
    </g>
    <g id="ytick_8">
     <g id="line2d_26">
      <g>
       <use xlink:href="#mdb9c59a504" x="40.5" y="222.113884" style="stroke: #000000; stroke-width: 0.8"/>
      </g>
     </g>
     <g id="text_16">
      <text style="font: 6px 'inter', sans-serif; text-anchor: end" x="33.5" y="224.296384" transform="rotate(-0 33.5 224.296384)">−600</text>
     </g>
    </g>
    <g id="ytick_9">
     <g id="line2d_27">
      <g>
       <use xlink:href="#mdb9c59a504" x="40.5" y="208.826074" style="stroke: #000000; stroke-width: 0.8"/>
      </g>
     </g>
     <g id="text_17">
      <text style="font: 6px 'inter', sans-serif; text-anchor: end" x="33.5" y="211.008574" transform="rotate(-0 33.5 211.008574)">−400</text>
     </g>
    </g>
    <g id="ytick_10">
     <g id="line2d_28">
      <g>
       <use xlink:href="#mdb9c59a504" x="40.5" y="195.538265" style="stroke: #000000; stroke-width: 0.8"/>
      </g>
     </g>
     <g id="text_18">
      <text style="font: 6px 'inter', sans-serif; text-anchor: end" x="33.5" y="197.720765" transform="rotate(-0 33.5 197.720765)">−200</text>
     </g>
    </g>
    <g id="ytick_11">
     <g id="line2d_29">
      <g>
       <use xlink:href="#mdb9c59a504" x="40.5" y="182.250456" style="stroke: #000000; stroke-width: 0.8"/>
      </g>
     </g>
     <g id="text_19">
      <text style="font: 6px 'inter', sans-serif; text-anchor: end" x="33.5" y="184.432956" transform="rotate(-0 33.5 184.432956)">0</text>
     </g>
    </g>
    <g id="ytick_12">
     <g id="line2d_30">
      <g>
       <use xlink:href="#mdb9c59a504" x="40.5" y="168.962647" style="stroke: #000000; stroke-width: 0.8"/>
      </g>
     </g>
     <g id="text_20">
      <text style="font: 6px 'inter', sans-serif; text-anchor: end" x="33.5" y="171.145147" transform="rotate(-0 33.5 171.145147)">200</text>
     </g>
    </g>
    <g id="text_21">
     <!-- $\Delta$ Volume (nL) -->
     <g transform="translate(9.284687 248.431304) rotate(-90)">
      <text>
       <tspan style="font: 12px 'DejaVu Sans'" x="0" y="-0.734375">Δ</tspan>
       <tspan style="font: 12px 'Inter'" x="8.208984 11.583984 19.863281 27.058594 29.964844 37.060547 47.572266 54.568359 57.943359 62.320312 69.410156 76.195312" y="-0.734375"> Volume (nL)</tspan>
      </text>
     </g>
    </g>
   </g>
   <g id="line2d_31">
    <path d="M 103.275 177.362328 
" clip-path="url(#p7a4257915c)" style="fill: none; stroke: #000000; stroke-width: 1.5; stroke-linecap: square"/>
    <defs>
     <path id="m84650dd446" d="M 0 2.5 
C 0.663008 2.5 1.29895 2.236584 1.767767 1.767767 
C 2.236584 1.29895 2.5 0.663008 2.5 0 
C 2.5 -0.663008 2.236584 -1.29895 1.767767 -1.767767 
C 1.29895 -2.236584 0.663008 -2.5 0 -2.5 
C -0.663008 -2.5 -1.29895 -2.236584 -1.767767 -1.767767 
C -2.236584 -1.29895 -2.5 -0.663008 -2.5 0 
C -2.5 0.663008 -2.236584 1.29895 -1.767767 1.767767 
C -1.29895 2.236584 -0.663008 2.5 0 2.5 
z
" style="stroke: #000000"/>
    </defs>
    <g clip-path="url(#p7a4257915c)">
     <use xlink:href="#m84650dd446" x="103.275" y="177.362328" style="stroke: #000000"/>
    </g>
   </g>
   <g id="line2d_32">
    <path d="M 103.275 182.681212 
L 103.275 169.398904 
" clip-path="url(#p7a4257915c)" style="fill: none; stroke: #000000; stroke-width: 2; stroke-linecap: square"/>
   </g>
   <g id="line2d_33">
    <path d="M 186.975 203.546819 
" clip-path="url(#p7a4257915c)" style="fill: none; stroke: #000000; stroke-width: 1.5; stroke-linecap: square"/>
    <g clip-path="url(#p7a4257915c)">
     <use xlink:href="#m84650dd446" x="186.975" y="203.546819" style="stroke: #000000"/>
    </g>
   </g>
   <g id="line2d_34">
    <path d="M 186.975 229.662374 
L 186.975 191.966915 
" clip-path="url(#p7a4257915c)" style="fill: none; stroke: #000000; stroke-width: 2; stroke-linecap: square"/>
   </g>
   <g id="line2d_35">
    <path d="M 270.675 208.434946 
" clip-path="url(#p7a4257915c)" style="fill: none; stroke: #000000; stroke-width: 1.5; stroke-linecap: square"/>
    <g clip-path="url(#p7a4257915c)">
     <use xlink:href="#m84650dd446" x="270.675" y="208.434946" style="stroke: #000000"/>
    </g>
   </g>
   <g id="line2d_36">
    <path d="M 270.675 229.735295 
L 270.675 194.143104 
" clip-path="url(#p7a4257915c)" style="fill: none; stroke: #000000; stroke-width: 2; stroke-linecap: square"/>
   </g>
   <g id="line2d_37">
    <path d="M 40.5 182.250456 
L 291.6 182.250456 
" clip-path="url(#p7a4257915c)" style="fill: none; stroke: #000000; stroke-width: 0.75; stroke-linecap: square"/>
   </g>
   <g id="text_22">
    <text style="font: 10px 'inter', sans-serif; text-anchor: middle" x="123.363" y="179.979516" transform="rotate(-0 123.363 179.979516)">+73.57</text>
   </g>
   <g id="text_23">
    <text style="font: 10px 'inter', sans-serif; text-anchor: middle" x="207.063" y="206.164006" transform="rotate(-0 207.063 206.164006)">-320.54</text>
   </g>
   <g id="text_24">
    <text style="font: 10px 'inter', sans-serif; text-anchor: middle" x="256.0275" y="211.052134" transform="rotate(-0 256.0275 211.052134)">-394.11</text>
   </g>
   <g id="LineCollection_4">
    <defs>
     <path id="m45cf979106" d="M 61.425 -31.68 
L 103.275 -31.68 
" style="stroke: #000000"/>
    </defs>
    <g>
     <use xlink:href="#m45cf979106" x="0" y="288" style="stroke: #000000"/>
    </g>
   </g>
   <g id="LineCollection_5">
    <defs>
     <path id="m918b00db0c" d="M 145.125 -31.68 
L 186.975 -31.68 
" style="stroke: #000000"/>
    </defs>
    <g>
     <use xlink:href="#m918b00db0c" x="0" y="288" style="stroke: #000000"/>
    </g>
   </g>
   <g id="LineCollection_6">
    <defs>
     <path id="ma923e6850c" d="M 228.825 -31.68 
L 270.675 -31.68 
" style="stroke: #000000"/>
    </defs>
    <g>
     <use xlink:href="#ma923e6850c" x="0" y="288" style="stroke: #000000"/>
    </g>
   </g>
   <g id="LineCollection_7">
    <defs>
     <path id="m4dea3692c9" d="M 40.5 -31.68 
L 40.5 -128.097391 
" style="stroke: #000000"/>
    </defs>
    <g>
     <use xlink:href="#m4dea3692c9" x="0" y="288" style="stroke: #000000"/>
    </g>
   </g>
  </g>
  <g id="axes_3">
   <g id="matplotlib.axis_5">
    <g id="ytick_13">
     <g id="line2d_38">
      <defs>
       <path id="m3465deac23" d="M 0 0 
L 3.5 0 
" style="stroke: #000000; stroke-width: 0.8"/>
      </defs>
      <g>
       <use xlink:href="#m3465deac23" x="291.6" y="248.689502" style="stroke: #000000; stroke-width: 0.8"/>
      </g>
     </g>
     <g id="text_25">
      <text style="font: 6px 'inter', sans-serif; text-anchor: start" x="298.6" y="250.872002" transform="rotate(-0 298.6 250.872002)">−1000</text>
     </g>
    </g>
    <g id="ytick_14">
     <g id="line2d_39">
      <g>
       <use xlink:href="#m3465deac23" x="291.6" y="235.401693" style="stroke: #000000; stroke-width: 0.8"/>
      </g>
     </g>
     <g id="text_26">
      <text style="font: 6px 'inter', sans-serif; text-anchor: start" x="298.6" y="237.584193" transform="rotate(-0 298.6 237.584193)">−800</text>
     </g>
    </g>
    <g id="ytick_15">
     <g id="line2d_40">
      <g>
       <use xlink:href="#m3465deac23" x="291.6" y="222.113884" style="stroke: #000000; stroke-width: 0.8"/>
      </g>
     </g>
     <g id="text_27">
      <text style="font: 6px 'inter', sans-serif; text-anchor: start" x="298.6" y="224.296384" transform="rotate(-0 298.6 224.296384)">−600</text>
     </g>
    </g>
    <g id="ytick_16">
     <g id="line2d_41">
      <g>
       <use xlink:href="#m3465deac23" x="291.6" y="208.826074" style="stroke: #000000; stroke-width: 0.8"/>
      </g>
     </g>
     <g id="text_28">
      <text style="font: 6px 'inter', sans-serif; text-anchor: start" x="298.6" y="211.008574" transform="rotate(-0 298.6 211.008574)">−400</text>
     </g>
    </g>
    <g id="ytick_17">
     <g id="line2d_42">
      <g>
       <use xlink:href="#m3465deac23" x="291.6" y="195.538265" style="stroke: #000000; stroke-width: 0.8"/>
      </g>
     </g>
     <g id="text_29">
      <text style="font: 6px 'inter', sans-serif; text-anchor: start" x="298.6" y="197.720765" transform="rotate(-0 298.6 197.720765)">−200</text>
     </g>
    </g>
    <g id="ytick_18">
     <g id="line2d_43">
      <g>
       <use xlink:href="#m3465deac23" x="291.6" y="182.250456" style="stroke: #000000; stroke-width: 0.8"/>
      </g>
     </g>
     <g id="text_30">
      <text style="font: 6px 'inter', sans-serif; text-anchor: start" x="298.6" y="184.432956" transform="rotate(-0 298.6 184.432956)">0</text>
     </g>
    </g>
    <g id="ytick_19">
     <g id="line2d_44">
      <g>
       <use xlink:href="#m3465deac23" x="291.6" y="168.962647" style="stroke: #000000; stroke-width: 0.8"/>
      </g>
     </g>
     <g id="text_31">
      <text style="font: 6px 'inter', sans-serif; text-anchor: start" x="298.6" y="171.145147" transform="rotate(-0 298.6 171.145147)">200</text>
     </g>
    </g>
    <g id="text_32">
     <text style="font: 12px 'inter', sans-serif; text-anchor: middle" x="329.096563" y="208.111304" transform="rotate(-90 329.096563 208.111304)">delta - delta</text>
    </g>
   </g>
   <g id="LineCollection_8">
    <defs>
     <path id="m725295f993" d="M 291.6 -31.68 
L 291.6 -128.097391 
" style="stroke: #000000"/>
    </defs>
    <g>
     <use xlink:href="#m725295f993" x="0" y="288" style="stroke: #000000"/>
    </g>
   </g>
  </g>
  <g id="text_33">
   <text style="fill: #4682b4; font: italic 500 20px 'inter'; text-anchor: middle" x="162" y="23.19" transform="rotate(-0 162 23.19)">Trhn&gt;Chr Females</text>
  </g>
 </g>
 <defs>
  <clipPath id="p9973cd57f3">
   <rect x="40.5" y="34.56" width="251.1" height="96.417391"/>
  </clipPath>
  <clipPath id="p7a4257915c">
   <rect x="40.5" y="159.902609" width="251.1" height="96.417391"/>
  </clipPath>
 </defs>
</svg>
