<?xml version="1.0" encoding="utf-8" standalone="no"?>
<!DOCTYPE svg PUBLIC "-//W3C//DTD SVG 1.1//EN"
  "http://www.w3.org/Graphics/SVG/1.1/DTD/svg11.dtd">
<svg xmlns:xlink="http://www.w3.org/1999/xlink" width="720pt" height="180pt" viewBox="0 0 720 180" xmlns="http://www.w3.org/2000/svg" version="1.1">
 <metadata>
  <rdf:RDF xmlns:dc="http://purl.org/dc/elements/1.1/" xmlns:cc="http://creativecommons.org/ns#" xmlns:rdf="http://www.w3.org/1999/02/22-rdf-syntax-ns#">
   <cc:Work>
    <dc:type rdf:resource="http://purl.org/dc/dcmitype/StillImage"/>
    <dc:date>2024-09-30T17:19:52.911925</dc:date>
    <dc:format>image/svg+xml</dc:format>
    <dc:creator>
     <cc:Agent>
      <dc:title>Matplotlib v3.6.3, https://matplotlib.org/</dc:title>
     </cc:Agent>
    </dc:creator>
   </cc:Work>
  </rdf:RDF>
 </metadata>
 <defs>
  <style type="text/css">*{stroke-linejoin: round; stroke-linecap: butt}</style>
 </defs>
 <g id="figure_1">
  <g id="patch_1">
   <path d="M 0 180 
L 720 180 
L 720 0 
L 0 0 
z
" style="fill: #ffffff"/>
  </g>
  <g id="axes_1">
   <g id="patch_2">
    <path d="M 90 160.2 
L 343.636364 160.2 
L 343.636364 21.6 
L 90 21.6 
z
" style="fill: #ffffff"/>
   </g>
   <g id="PolyCollection_1">
    <defs>
     <path id="md5be48cb2f" d="M 118.19733 -46.26822 
L 118.182255 -46.26822 
L 118.182255 -46.765618 
L 118.182255 -47.263016 
L 118.182255 -47.760415 
L 118.182255 -48.257813 
L 118.182255 -48.755211 
L 118.182255 -49.252609 
L 118.182255 -49.750007 
L 118.182255 -50.247405 
L 118.182255 -50.744804 
L 118.182255 -51.242202 
L 118.182255 -51.7396 
L 118.182255 -52.236998 
L 118.182255 -52.734396 
L 118.182255 -53.231794 
L 118.182255 -53.729192 
L 118.182255 -54.226591 
L 118.182255 -54.723989 
L 118.182255 -55.221387 
L 118.182255 -55.718785 
L 118.182255 -56.216183 
L 118.182255 -56.713581 
L 118.182255 -57.21098 
L 118.182255 -57.708378 
L 118.182255 -58.205776 
L 118.182255 -58.703174 
L 118.182255 -59.200572 
L 118.182255 -59.69797 
L 118.182255 -60.195369 
L 118.182255 -60.692767 
L 118.182255 -61.190165 
L 118.182255 -61.687563 
L 118.182255 -62.184961 
L 118.182255 -62.682359 
L 118.182255 -63.179758 
L 118.182255 -63.677156 
L 118.182255 -64.174554 
L 118.182255 -64.671952 
L 118.182255 -65.16935 
L 118.182255 -65.666748 
L 118.182255 -66.164147 
L 118.182255 -66.661545 
L 118.182255 -67.158943 
L 118.182255 -67.656341 
L 118.182255 -68.153739 
L 118.182255 -68.651137 
L 118.182255 -69.148535 
L 118.182255 -69.645934 
L 118.182255 -70.143332 
L 118.182255 -70.64073 
L 118.182255 -71.138128 
L 118.182255 -71.635526 
L 118.182255 -72.132924 
L 118.182255 -72.630323 
L 118.182255 -73.127721 
L 118.182255 -73.625119 
L 118.182255 -74.122517 
L 118.182255 -74.619915 
L 118.182255 -75.117313 
L 118.182255 -75.614712 
L 118.182255 -76.11211 
L 118.182255 -76.609508 
L 118.182255 -77.106906 
L 118.182255 -77.604304 
L 118.182255 -78.101702 
L 118.182255 -78.599101 
L 118.182255 -79.096499 
L 118.182255 -79.593897 
L 118.182255 -80.091295 
L 118.182255 -80.588693 
L 118.182255 -81.086091 
L 118.182255 -81.58349 
L 118.182255 -82.080888 
L 118.182255 -82.578286 
L 118.182255 -83.075684 
L 118.182255 -83.573082 
L 118.182255 -84.07048 
L 118.182255 -84.567878 
L 118.182255 -85.065277 
L 118.182255 -85.562675 
L 118.182255 -86.060073 
L 118.182255 -86.557471 
L 118.182255 -87.054869 
L 118.182255 -87.552267 
L 118.182255 -88.049666 
L 118.182255 -88.547064 
L 118.182255 -89.044462 
L 118.182255 -89.54186 
L 118.182255 -90.039258 
L 118.182255 -90.536656 
L 118.182255 -91.034055 
L 118.182255 -91.531453 
L 118.182255 -92.028851 
L 118.182255 -92.526249 
L 118.182255 -93.023647 
L 118.182255 -93.521045 
L 118.182255 -94.018444 
L 118.182255 -94.515842 
L 118.182255 -95.01324 
L 118.182255 -95.510638 
L 118.239482 -95.510638 
L 118.239482 -95.510638 
L 118.246334 -95.01324 
L 118.247541 -94.515842 
L 118.246762 -94.018444 
L 118.248661 -93.521045 
L 118.255745 -93.023647 
L 118.267522 -92.526249 
L 118.282041 -92.028851 
L 118.297598 -91.531453 
L 118.313193 -91.034055 
L 118.32832 -90.536656 
L 118.343183 -90.039258 
L 118.359073 -89.54186 
L 118.377784 -89.044462 
L 118.400041 -88.547064 
L 118.424799 -88.049666 
L 118.450672 -87.552267 
L 118.477856 -87.054869 
L 118.50818 -86.557471 
L 118.544001 -86.060073 
L 118.588588 -85.562675 
L 118.647766 -85.065277 
L 118.729269 -84.567878 
L 118.838112 -84.07048 
L 118.971843 -83.573082 
L 119.121952 -83.075684 
L 119.283092 -82.578286 
L 119.463569 -82.080888 
L 119.687166 -81.58349 
L 119.981976 -81.086091 
L 120.361927 -80.588693 
L 120.812808 -80.091295 
L 121.292647 -79.593897 
L 121.747902 -79.096499 
L 122.137843 -78.599101 
L 122.454779 -78.101702 
L 122.728344 -77.604304 
L 123.008786 -77.106906 
L 123.337941 -76.609508 
L 123.728662 -76.11211 
L 124.167923 -75.614712 
L 124.637633 -75.117313 
L 125.133345 -74.619915 
L 125.666295 -74.122517 
L 126.247783 -73.625119 
L 126.868871 -73.127721 
L 127.497109 -72.630323 
L 128.099966 -72.132924 
L 128.673688 -71.635526 
L 129.244086 -71.138128 
L 129.835198 -70.64073 
L 130.438245 -70.143332 
L 131.01064 -69.645934 
L 131.500628 -69.148535 
L 131.871974 -68.651137 
L 132.113417 -68.153739 
L 132.23707 -67.656341 
L 132.272727 -67.158943 
L 132.255155 -66.661545 
L 132.203006 -66.164147 
L 132.103622 -65.666748 
L 131.920933 -65.16935 
L 131.623012 -64.671952 
L 131.20633 -64.174554 
L 130.69741 -63.677156 
L 130.132947 -63.179758 
L 129.536714 -62.682359 
L 128.911421 -62.184961 
L 128.248317 -61.687563 
L 127.542302 -61.190165 
L 126.79828 -60.692767 
L 126.02555 -60.195369 
L 125.229903 -59.69797 
L 124.414483 -59.200572 
L 123.589542 -58.703174 
L 122.781245 -58.205776 
L 122.029741 -57.708378 
L 121.374768 -57.21098 
L 120.837636 -56.713581 
L 120.412814 -56.216183 
L 120.074438 -55.718785 
L 119.790938 -55.221387 
L 119.537536 -54.723989 
L 119.301521 -54.226591 
L 119.080771 -53.729192 
L 118.878985 -53.231794 
L 118.701432 -52.734396 
L 118.552658 -52.236998 
L 118.435035 -51.7396 
L 118.347526 -51.242202 
L 118.285727 -50.744804 
L 118.243727 -50.247405 
L 118.216276 -49.750007 
L 118.199607 -49.252609 
L 118.191012 -48.755211 
L 118.1883 -48.257813 
L 118.189536 -47.760415 
L 118.192799 -47.263016 
L 118.196013 -46.765618 
L 118.19733 -46.26822 
z
"/>
    </defs>
    <g clip-path="url(#p31cd7d2839)">
     <use xlink:href="#md5be48cb2f" x="0" y="180" style="fill: #ff4500; fill-opacity: 0.5"/>
    </g>
   </g>
   <g id="PolyCollection_2">
    <defs>
     <path id="m5d77100f6e" d="M 174.561022 -24.701375 
L 174.545771 -24.701375 
L 174.545771 -25.429947 
L 174.545771 -26.15852 
L 174.545771 -26.887092 
L 174.545771 -27.615664 
L 174.545771 -28.344236 
L 174.545771 -29.072808 
L 174.545771 -29.801381 
L 174.545771 -30.529953 
L 174.545771 -31.258525 
L 174.545771 -31.987097 
L 174.545771 -32.715669 
L 174.545771 -33.444242 
L 174.545771 -34.172814 
L 174.545771 -34.901386 
L 174.545771 -35.629958 
L 174.545771 -36.35853 
L 174.545771 -37.087103 
L 174.545771 -37.815675 
L 174.545771 -38.544247 
L 174.545771 -39.272819 
L 174.545771 -40.001392 
L 174.545771 -40.729964 
L 174.545771 -41.458536 
L 174.545771 -42.187108 
L 174.545771 -42.91568 
L 174.545771 -43.644253 
L 174.545771 -44.372825 
L 174.545771 -45.101397 
L 174.545771 -45.829969 
L 174.545771 -46.558541 
L 174.545771 -47.287114 
L 174.545771 -48.015686 
L 174.545771 -48.744258 
L 174.545771 -49.47283 
L 174.545771 -50.201402 
L 174.545771 -50.929975 
L 174.545771 -51.658547 
L 174.545771 -52.387119 
L 174.545771 -53.115691 
L 174.545771 -53.844263 
L 174.545771 -54.572836 
L 174.545771 -55.301408 
L 174.545771 -56.02998 
L 174.545771 -56.758552 
L 174.545771 -57.487124 
L 174.545771 -58.215697 
L 174.545771 -58.944269 
L 174.545771 -59.672841 
L 174.545771 -60.401413 
L 174.545771 -61.129985 
L 174.545771 -61.858558 
L 174.545771 -62.58713 
L 174.545771 -63.315702 
L 174.545771 -64.044274 
L 174.545771 -64.772847 
L 174.545771 -65.501419 
L 174.545771 -66.229991 
L 174.545771 -66.958563 
L 174.545771 -67.687135 
L 174.545771 -68.415708 
L 174.545771 -69.14428 
L 174.545771 -69.872852 
L 174.545771 -70.601424 
L 174.545771 -71.329996 
L 174.545771 -72.058569 
L 174.545771 -72.787141 
L 174.545771 -73.515713 
L 174.545771 -74.244285 
L 174.545771 -74.972857 
L 174.545771 -75.70143 
L 174.545771 -76.430002 
L 174.545771 -77.158574 
L 174.545771 -77.887146 
L 174.545771 -78.615718 
L 174.545771 -79.344291 
L 174.545771 -80.072863 
L 174.545771 -80.801435 
L 174.545771 -81.530007 
L 174.545771 -82.258579 
L 174.545771 -82.987152 
L 174.545771 -83.715724 
L 174.545771 -84.444296 
L 174.545771 -85.172868 
L 174.545771 -85.901441 
L 174.545771 -86.630013 
L 174.545771 -87.358585 
L 174.545771 -88.087157 
L 174.545771 -88.815729 
L 174.545771 -89.544302 
L 174.545771 -90.272874 
L 174.545771 -91.001446 
L 174.545771 -91.730018 
L 174.545771 -92.45859 
L 174.545771 -93.187163 
L 174.545771 -93.915735 
L 174.545771 -94.644307 
L 174.545771 -95.372879 
L 174.545771 -96.101451 
L 174.545771 -96.830024 
L 174.578602 -96.830024 
L 174.578602 -96.830024 
L 174.594462 -96.101451 
L 174.617299 -95.372879 
L 174.64964 -94.644307 
L 174.694893 -93.915735 
L 174.760038 -93.187163 
L 174.859266 -92.45859 
L 175.016687 -91.730018 
L 175.265509 -91.001446 
L 175.640712 -90.272874 
L 176.165947 -89.544302 
L 176.843233 -88.815729 
L 177.655873 -88.087157 
L 178.582988 -87.358585 
L 179.609783 -86.630013 
L 180.720877 -85.901441 
L 181.883108 -85.172868 
L 183.035376 -84.444296 
L 184.09596 -83.715724 
L 184.987288 -82.987152 
L 185.671309 -82.258579 
L 186.175791 -81.530007 
L 186.583157 -80.801435 
L 186.97784 -80.072863 
L 187.392694 -79.344291 
L 187.801071 -78.615718 
L 188.152805 -77.887146 
L 188.411575 -77.158574 
L 188.567064 -76.430002 
L 188.632076 -75.70143 
L 188.636364 -74.972857 
L 188.609645 -74.244285 
L 188.554711 -73.515713 
L 188.437205 -72.787141 
L 188.209126 -72.058569 
L 187.843315 -71.329996 
L 187.346016 -70.601424 
L 186.746771 -69.872852 
L 186.086925 -69.14428 
L 185.414675 -68.415708 
L 184.777817 -67.687135 
L 184.209653 -66.958563 
L 183.715746 -66.229991 
L 183.272949 -65.501419 
L 182.844312 -64.772847 
L 182.399313 -64.044274 
L 181.923969 -63.315702 
L 181.418133 -62.58713 
L 180.890062 -61.858558 
L 180.353953 -61.129985 
L 179.827042 -60.401413 
L 179.324799 -59.672841 
L 178.857715 -58.944269 
L 178.431254 -58.215697 
L 178.047403 -57.487124 
L 177.706228 -56.758552 
L 177.405943 -56.02998 
L 177.141186 -55.301408 
L 176.902177 -54.572836 
L 176.67741 -53.844263 
L 176.458599 -53.115691 
L 176.244163 -52.387119 
L 176.03898 -51.658547 
L 175.85104 -50.929975 
L 175.687592 -50.201402 
L 175.552706 -49.47283 
L 175.445928 -48.744258 
L 175.361176 -48.015686 
L 175.287386 -47.287114 
L 175.213399 -46.558541 
L 175.135571 -45.829969 
L 175.061019 -45.101397 
L 175.001081 -44.372825 
L 174.960044 -43.644253 
L 174.930829 -42.91568 
L 174.901821 -42.187108 
L 174.866505 -41.458536 
L 174.826272 -40.729964 
L 174.786122 -40.001392 
L 174.749401 -39.272819 
L 174.716019 -38.544247 
L 174.684349 -37.815675 
L 174.654314 -37.087103 
L 174.628412 -36.35853 
L 174.60959 -35.629958 
L 174.598293 -34.901386 
L 174.59174 -34.172814 
L 174.585917 -33.444242 
L 174.578291 -32.715669 
L 174.569019 -31.987097 
L 174.560021 -31.258525 
L 174.553132 -30.529953 
L 174.548994 -29.801381 
L 174.547253 -29.072808 
L 174.547364 -28.344236 
L 174.549068 -27.615664 
L 174.552214 -26.887092 
L 174.556188 -26.15852 
L 174.55964 -25.429947 
L 174.561022 -24.701375 
z
"/>
    </defs>
    <g clip-path="url(#p31cd7d2839)">
     <use xlink:href="#m5d77100f6e" x="0" y="180" style="fill: #ff4500; fill-opacity: 0.5"/>
    </g>
   </g>
   <g id="PolyCollection_3">
    <defs>
     <path id="m734d502703" d="M 230.92491 -30.598874 
L 230.909505 -30.598874 
L 230.909505 -31.397869 
L 230.909505 -32.196864 
L 230.909505 -32.995859 
L 230.909505 -33.794854 
L 230.909505 -34.593849 
L 230.909505 -35.392844 
L 230.909505 -36.191839 
L 230.909505 -36.990834 
L 230.909505 -37.789829 
L 230.909505 -38.588824 
L 230.909505 -39.387819 
L 230.909505 -40.186814 
L 230.909505 -40.985809 
L 230.909505 -41.784803 
L 230.909505 -42.583798 
L 230.909505 -43.382793 
L 230.909505 -44.181788 
L 230.909505 -44.980783 
L 230.909505 -45.779778 
L 230.909505 -46.578773 
L 230.909505 -47.377768 
L 230.909505 -48.176763 
L 230.909505 -48.975758 
L 230.909505 -49.774753 
L 230.909505 -50.573748 
L 230.909505 -51.372743 
L 230.909505 -52.171738 
L 230.909505 -52.970733 
L 230.909505 -53.769728 
L 230.909505 -54.568723 
L 230.909505 -55.367718 
L 230.909505 -56.166713 
L 230.909505 -56.965708 
L 230.909505 -57.764703 
L 230.909505 -58.563698 
L 230.909505 -59.362693 
L 230.909505 -60.161688 
L 230.909505 -60.960683 
L 230.909505 -61.759678 
L 230.909505 -62.558672 
L 230.909505 -63.357667 
L 230.909505 -64.156662 
L 230.909505 -64.955657 
L 230.909505 -65.754652 
L 230.909505 -66.553647 
L 230.909505 -67.352642 
L 230.909505 -68.151637 
L 230.909505 -68.950632 
L 230.909505 -69.749627 
L 230.909505 -70.548622 
L 230.909505 -71.347617 
L 230.909505 -72.146612 
L 230.909505 -72.945607 
L 230.909505 -73.744602 
L 230.909505 -74.543597 
L 230.909505 -75.342592 
L 230.909505 -76.141587 
L 230.909505 -76.940582 
L 230.909505 -77.739577 
L 230.909505 -78.538572 
L 230.909505 -79.337567 
L 230.909505 -80.136562 
L 230.909505 -80.935557 
L 230.909505 -81.734552 
L 230.909505 -82.533547 
L 230.909505 -83.332541 
L 230.909505 -84.131536 
L 230.909505 -84.930531 
L 230.909505 -85.729526 
L 230.909505 -86.528521 
L 230.909505 -87.327516 
L 230.909505 -88.126511 
L 230.909505 -88.925506 
L 230.909505 -89.724501 
L 230.909505 -90.523496 
L 230.909505 -91.322491 
L 230.909505 -92.121486 
L 230.909505 -92.920481 
L 230.909505 -93.719476 
L 230.909505 -94.518471 
L 230.909505 -95.317466 
L 230.909505 -96.116461 
L 230.909505 -96.915456 
L 230.909505 -97.714451 
L 230.909505 -98.513446 
L 230.909505 -99.312441 
L 230.909505 -100.111436 
L 230.909505 -100.910431 
L 230.909505 -101.709426 
L 230.909505 -102.508421 
L 230.909505 -103.307416 
L 230.909505 -104.106411 
L 230.909505 -104.905405 
L 230.909505 -105.7044 
L 230.909505 -106.503395 
L 230.909505 -107.30239 
L 230.909505 -108.101385 
L 230.909505 -108.90038 
L 230.909505 -109.699375 
L 230.961524 -109.699375 
L 230.961524 -109.699375 
L 230.989644 -108.90038 
L 231.025726 -108.101385 
L 231.067456 -107.30239 
L 231.110629 -106.503395 
L 231.151141 -105.7044 
L 231.188111 -104.905405 
L 231.226892 -104.106411 
L 231.279525 -103.307416 
L 231.360255 -102.508421 
L 231.47755 -101.709426 
L 231.629103 -100.910431 
L 231.805235 -100.111436 
L 231.997773 -99.312441 
L 232.205362 -98.513446 
L 232.430709 -97.714451 
L 232.674787 -96.915456 
L 232.935338 -96.116461 
L 233.210295 -95.317466 
L 233.501057 -94.518471 
L 233.811891 -93.719476 
L 234.146426 -92.920481 
L 234.504936 -92.121486 
L 234.885459 -91.322491 
L 235.288264 -90.523496 
L 235.719038 -89.724501 
L 236.186214 -88.925506 
L 236.693953 -88.126511 
L 237.238365 -87.327516 
L 237.811361 -86.528521 
L 238.405799 -85.729526 
L 239.01256 -84.930531 
L 239.612276 -84.131536 
L 240.176556 -83.332541 
L 240.686092 -82.533547 
L 241.151104 -81.734552 
L 241.610748 -80.935557 
L 242.107149 -80.136562 
L 242.655796 -79.337567 
L 243.235743 -78.538572 
L 243.800776 -77.739577 
L 244.297034 -76.940582 
L 244.677693 -76.141587 
L 244.913926 -75.342592 
L 245 -74.543597 
L 244.949334 -73.744602 
L 244.785417 -72.945607 
L 244.535289 -72.146612 
L 244.226219 -71.347617 
L 243.879834 -70.548622 
L 243.503834 -69.749627 
L 243.090633 -68.950632 
L 242.628327 -68.151637 
L 242.115289 -67.352642 
L 241.564887 -66.553647 
L 240.997764 -65.754652 
L 240.430623 -64.955657 
L 239.870021 -64.156662 
L 239.312793 -63.357667 
L 238.751074 -62.558672 
L 238.179611 -61.759678 
L 237.602181 -60.960683 
L 237.03318 -60.161688 
L 236.492316 -59.362693 
L 235.994771 -58.563698 
L 235.543185 -57.764703 
L 235.127444 -56.965708 
L 234.732276 -56.166713 
L 234.346039 -55.367718 
L 233.964089 -54.568723 
L 233.586631 -53.769728 
L 233.215955 -52.970733 
L 232.856614 -52.171738 
L 232.517448 -51.372743 
L 232.211905 -50.573748 
L 231.954271 -49.774753 
L 231.75282 -48.975758 
L 231.604344 -48.176763 
L 231.494889 -47.377768 
L 231.407059 -46.578773 
L 231.328438 -45.779778 
L 231.254835 -44.980783 
L 231.187375 -44.181788 
L 231.127961 -43.382793 
L 231.077374 -42.583798 
L 231.036014 -41.784803 
L 231.004571 -40.985809 
L 230.983217 -40.186814 
L 230.970417 -39.387819 
L 230.962974 -38.588824 
L 230.957415 -37.789829 
L 230.951471 -36.990834 
L 230.944537 -36.191839 
L 230.937193 -35.392844 
L 230.930562 -34.593849 
L 230.925807 -33.794854 
L 230.923626 -32.995859 
L 230.923715 -32.196864 
L 230.924715 -31.397869 
L 230.92491 -30.598874 
z
"/>
    </defs>
    <g clip-path="url(#p31cd7d2839)">
     <use xlink:href="#m734d502703" x="0" y="180" style="fill: #ff4500; fill-opacity: 0.5"/>
    </g>
   </g>
   <g id="PolyCollection_4">
    <defs>
     <path id="mf2a424d854" d="M 287.288799 -49.452464 
L 287.272969 -49.452464 
L 287.272969 -49.937279 
L 287.272969 -50.422095 
L 287.272969 -50.906911 
L 287.272969 -51.391726 
L 287.272969 -51.876542 
L 287.272969 -52.361358 
L 287.272969 -52.846173 
L 287.272969 -53.330989 
L 287.272969 -53.815805 
L 287.272969 -54.30062 
L 287.272969 -54.785436 
L 287.272969 -55.270252 
L 287.272969 -55.755067 
L 287.272969 -56.239883 
L 287.272969 -56.724698 
L 287.272969 -57.209514 
L 287.272969 -57.69433 
L 287.272969 -58.179145 
L 287.272969 -58.663961 
L 287.272969 -59.148777 
L 287.272969 -59.633592 
L 287.272969 -60.118408 
L 287.272969 -60.603224 
L 287.272969 -61.088039 
L 287.272969 -61.572855 
L 287.272969 -62.057671 
L 287.272969 -62.542486 
L 287.272969 -63.027302 
L 287.272969 -63.512117 
L 287.272969 -63.996933 
L 287.272969 -64.481749 
L 287.272969 -64.966564 
L 287.272969 -65.45138 
L 287.272969 -65.936196 
L 287.272969 -66.421011 
L 287.272969 -66.905827 
L 287.272969 -67.390643 
L 287.272969 -67.875458 
L 287.272969 -68.360274 
L 287.272969 -68.845089 
L 287.272969 -69.329905 
L 287.272969 -69.814721 
L 287.272969 -70.299536 
L 287.272969 -70.784352 
L 287.272969 -71.269168 
L 287.272969 -71.753983 
L 287.272969 -72.238799 
L 287.272969 -72.723615 
L 287.272969 -73.20843 
L 287.272969 -73.693246 
L 287.272969 -74.178062 
L 287.272969 -74.662877 
L 287.272969 -75.147693 
L 287.272969 -75.632508 
L 287.272969 -76.117324 
L 287.272969 -76.60214 
L 287.272969 -77.086955 
L 287.272969 -77.571771 
L 287.272969 -78.056587 
L 287.272969 -78.541402 
L 287.272969 -79.026218 
L 287.272969 -79.511034 
L 287.272969 -79.995849 
L 287.272969 -80.480665 
L 287.272969 -80.96548 
L 287.272969 -81.450296 
L 287.272969 -81.935112 
L 287.272969 -82.419927 
L 287.272969 -82.904743 
L 287.272969 -83.389559 
L 287.272969 -83.874374 
L 287.272969 -84.35919 
L 287.272969 -84.844006 
L 287.272969 -85.328821 
L 287.272969 -85.813637 
L 287.272969 -86.298453 
L 287.272969 -86.783268 
L 287.272969 -87.268084 
L 287.272969 -87.752899 
L 287.272969 -88.237715 
L 287.272969 -88.722531 
L 287.272969 -89.207346 
L 287.272969 -89.692162 
L 287.272969 -90.176978 
L 287.272969 -90.661793 
L 287.272969 -91.146609 
L 287.272969 -91.631425 
L 287.272969 -92.11624 
L 287.272969 -92.601056 
L 287.272969 -93.085872 
L 287.272969 -93.570687 
L 287.272969 -94.055503 
L 287.272969 -94.540318 
L 287.272969 -95.025134 
L 287.272969 -95.50995 
L 287.272969 -95.994765 
L 287.272969 -96.479581 
L 287.272969 -96.964397 
L 287.272969 -97.449212 
L 287.289565 -97.449212 
L 287.289565 -97.449212 
L 287.290796 -96.964397 
L 287.293783 -96.479581 
L 287.302774 -95.994765 
L 287.321207 -95.50995 
L 287.348628 -95.025134 
L 287.379276 -94.540318 
L 287.404709 -94.055503 
L 287.419906 -93.570687 
L 287.428063 -93.085872 
L 287.439185 -92.601056 
L 287.463176 -92.11624 
L 287.503771 -91.631425 
L 287.558788 -91.146609 
L 287.62573 -90.661793 
L 287.706963 -90.176978 
L 287.810025 -89.692162 
L 287.94353 -89.207346 
L 288.111746 -88.722531 
L 288.310135 -88.237715 
L 288.524383 -87.752899 
L 288.736723 -87.268084 
L 288.939399 -86.783268 
L 289.145215 -86.298453 
L 289.38217 -85.813637 
L 289.672946 -85.328821 
L 290.017883 -84.844006 
L 290.398776 -84.35919 
L 290.798838 -83.874374 
L 291.21722 -83.389559 
L 291.665083 -82.904743 
L 292.15137 -82.419927 
L 292.674319 -81.935112 
L 293.225076 -81.450296 
L 293.797595 -80.96548 
L 294.394606 -80.480665 
L 295.023929 -79.995849 
L 295.688904 -79.511034 
L 296.381224 -79.026218 
L 297.079508 -78.541402 
L 297.752821 -78.056587 
L 298.370905 -77.571771 
L 298.919463 -77.086955 
L 299.406643 -76.60214 
L 299.848848 -76.117324 
L 300.248687 -75.632508 
L 300.591613 -75.147693 
L 300.864839 -74.662877 
L 301.072561 -74.178062 
L 301.227748 -73.693246 
L 301.331463 -73.20843 
L 301.363636 -72.723615 
L 301.294201 -72.238799 
L 301.10505 -71.753983 
L 300.807486 -71.269168 
L 300.442711 -70.784352 
L 300.060627 -70.299536 
L 299.687479 -69.814721 
L 299.307221 -69.329905 
L 298.875092 -68.845089 
L 298.353233 -68.360274 
L 297.737149 -67.875458 
L 297.053365 -67.390643 
L 296.337999 -66.905827 
L 295.619853 -66.421011 
L 294.919519 -65.936196 
L 294.255634 -65.45138 
L 293.642879 -64.966564 
L 293.080433 -64.481749 
L 292.547124 -63.996933 
L 292.016137 -63.512117 
L 291.479104 -63.027302 
L 290.956448 -62.542486 
L 290.484218 -62.057671 
L 290.089381 -61.572855 
L 289.772485 -61.088039 
L 289.508116 -60.603224 
L 289.260964 -60.118408 
L 289.006114 -59.633592 
L 288.740614 -59.148777 
L 288.480328 -58.663961 
L 288.246637 -58.179145 
L 288.05356 -57.69433 
L 287.903343 -57.209514 
L 287.790152 -56.724698 
L 287.705466 -56.239883 
L 287.640524 -55.755067 
L 287.586975 -55.270252 
L 287.538292 -54.785436 
L 287.491352 -54.30062 
L 287.446154 -53.815805 
L 287.404056 -53.330989 
L 287.366555 -52.846173 
L 287.335194 -52.361358 
L 287.311518 -51.876542 
L 287.296383 -51.391726 
L 287.289155 -50.906911 
L 287.287566 -50.422095 
L 287.288417 -49.937279 
L 287.288799 -49.452464 
z
"/>
    </defs>
    <g clip-path="url(#p31cd7d2839)">
     <use xlink:href="#mf2a424d854" x="0" y="180" style="fill: #ff4500; fill-opacity: 0.5"/>
    </g>
   </g>
   <g id="matplotlib.axis_1">
    <g id="xtick_1">
     <g id="line2d_1">
      <defs>
       <path id="m330063cafe" d="M 0 0 
L 0 3.5 
" style="stroke: #000000; stroke-width: 0.8"/>
      </defs>
      <g>
       <use xlink:href="#m330063cafe" x="118.181818" y="160.2" style="stroke: #000000; stroke-width: 0.8"/>
      </g>
     </g>
     <g id="text_1">
      <text style="font: 12px 'inter', sans-serif" transform="translate(87.166789 240.360361) rotate(-45)">Trh&gt;Brain-CsCh</text>
     </g>
    </g>
    <g id="xtick_2">
     <g id="line2d_2">
      <g>
       <use xlink:href="#m330063cafe" x="174.545455" y="160.2" style="stroke: #000000; stroke-width: 0.8"/>
      </g>
     </g>
     <g id="text_2">
      <text style="font: 12px 'inter', sans-serif" transform="translate(145.61396 236.193293) rotate(-45)">Trh&gt;VNC-CsCh</text>
     </g>
    </g>
    <g id="xtick_3">
     <g id="line2d_3">
      <g>
       <use xlink:href="#m330063cafe" x="230.909091" y="160.2" style="stroke: #000000; stroke-width: 0.8"/>
      </g>
     </g>
     <g id="text_3">
      <text style="font: 12px 'inter', sans-serif" transform="translate(201.533445 237.081595) rotate(-45)">SXVNC1&gt;CsCh</text>
     </g>
    </g>
    <g id="xtick_4">
     <g id="line2d_4">
      <g>
       <use xlink:href="#m330063cafe" x="287.272727" y="160.2" style="stroke: #000000; stroke-width: 0.8"/>
      </g>
     </g>
     <g id="text_4">
      <text style="font: 12px 'inter', sans-serif" transform="translate(257.897081 237.081595) rotate(-45)">SXVNC2&gt;CsCh</text>
     </g>
    </g>
   </g>
   <g id="matplotlib.axis_2">
    <g id="ytick_1">
     <g id="line2d_5">
      <defs>
       <path id="m563b83afca" d="M 0 0 
L -3.5 0 
" style="stroke: #000000; stroke-width: 0.8"/>
      </defs>
      <g>
       <use xlink:href="#m563b83afca" x="90" y="146.34" style="stroke: #000000; stroke-width: 0.8"/>
      </g>
     </g>
     <g id="text_5">
      <text style="font: 12px 'inter', sans-serif; text-anchor: end" x="83" y="150.899063" transform="rotate(-0 83 150.899063)">−2</text>
     </g>
    </g>
    <g id="ytick_2">
     <g id="line2d_6">
      <g>
       <use xlink:href="#m563b83afca" x="90" y="118.62" style="stroke: #000000; stroke-width: 0.8"/>
      </g>
     </g>
     <g id="text_6">
      <text style="font: 12px 'inter', sans-serif; text-anchor: end" x="83" y="123.179063" transform="rotate(-0 83 123.179063)">−1</text>
     </g>
    </g>
    <g id="ytick_3">
     <g id="line2d_7">
      <g>
       <use xlink:href="#m563b83afca" x="90" y="90.9" style="stroke: #000000; stroke-width: 0.8"/>
      </g>
     </g>
     <g id="text_7">
      <text style="font: 12px 'inter', sans-serif; text-anchor: end" x="83" y="95.459062" transform="rotate(-0 83 95.459062)">0</text>
     </g>
    </g>
    <g id="ytick_4">
     <g id="line2d_8">
      <g>
       <use xlink:href="#m563b83afca" x="90" y="63.18" style="stroke: #000000; stroke-width: 0.8"/>
      </g>
     </g>
     <g id="text_8">
      <text style="font: 12px 'inter', sans-serif; text-anchor: end" x="83" y="67.739062" transform="rotate(-0 83 67.739062)">1</text>
     </g>
    </g>
    <g id="ytick_5">
     <g id="line2d_9">
      <g>
       <use xlink:href="#m563b83afca" x="90" y="35.46" style="stroke: #000000; stroke-width: 0.8"/>
      </g>
     </g>
     <g id="text_9">
      <text style="font: 12px 'inter', sans-serif; text-anchor: end" x="83" y="40.019062" transform="rotate(-0 83 40.019062)">2</text>
     </g>
    </g>
    <g id="text_10">
     <!-- $\Delta\Delta$ Volume -->
     <g transform="translate(58.81375 123.84) rotate(-90)">
      <text>
       <tspan style="font: 12px 'DejaVu Sans'" x="0 8.208984 16.417969 20.232422 28.441406 35.783203 39.117188 46.722656 58.412109" y="-0.875">ΔΔ Volume</tspan>
      </text>
     </g>
    </g>
   </g>
   <g id="line2d_10">
    <path d="M 61.818182 90.9 
L 343.636364 90.9 
" clip-path="url(#p31cd7d2839)" style="fill: none; stroke: #000000; stroke-linecap: square"/>
   </g>
   <g id="line2d_11">
    <defs>
     <path id="mfe7cc0331e" d="M 0 5 
C 1.326016 5 2.597899 4.473168 3.535534 3.535534 
C 4.473168 2.597899 5 1.326016 5 0 
C 5 -1.326016 4.473168 -2.597899 3.535534 -3.535534 
C 2.597899 -4.473168 1.326016 -5 0 -5 
C -1.326016 -5 -2.597899 -4.473168 -3.535534 -3.535534 
C -4.473168 -2.597899 -5 -1.326016 -5 0 
C -5 1.326016 -4.473168 2.597899 -3.535534 3.535534 
C -2.597899 4.473168 -1.326016 5 0 5 
z
" style="stroke: #000000"/>
    </defs>
    <g clip-path="url(#p31cd7d2839)">
     <use xlink:href="#mfe7cc0331e" x="118.181818" y="111.948972" style="stroke: #000000"/>
    </g>
   </g>
   <g id="line2d_12">
    <path d="M 118.181818 122.2837 
L 118.181818 97.327221 
" clip-path="url(#p31cd7d2839)" style="fill: none; stroke: #000000; stroke-width: 2.5; stroke-linecap: square"/>
   </g>
   <g id="line2d_13">
    <g clip-path="url(#p31cd7d2839)">
     <use xlink:href="#mfe7cc0331e" x="174.545455" y="107.705186" style="stroke: #000000"/>
    </g>
   </g>
   <g id="line2d_14">
    <path d="M 174.545455 132.481478 
L 174.545455 94.236926 
" clip-path="url(#p31cd7d2839)" style="fill: none; stroke: #000000; stroke-width: 2.5; stroke-linecap: square"/>
   </g>
   <g id="line2d_15">
    <g clip-path="url(#p31cd7d2839)">
     <use xlink:href="#mfe7cc0331e" x="230.909091" y="105.930287" style="stroke: #000000"/>
    </g>
   </g>
   <g id="line2d_16">
    <path d="M 230.909091 126.540466 
L 230.909091 84.306691 
" clip-path="url(#p31cd7d2839)" style="fill: none; stroke: #000000; stroke-width: 2.5; stroke-linecap: square"/>
   </g>
   <g id="line2d_17">
    <g clip-path="url(#p31cd7d2839)">
     <use xlink:href="#mfe7cc0331e" x="287.272727" y="106.934991" style="stroke: #000000"/>
    </g>
   </g>
   <g id="line2d_18">
    <path d="M 287.272727 119.323534 
L 287.272727 93.856576 
" clip-path="url(#p31cd7d2839)" style="fill: none; stroke: #000000; stroke-width: 2.5; stroke-linecap: square"/>
   </g>
   <g id="line2d_19">
    <path d="M 160.454545 41.004 
L 301.363636 41.004 
" clip-path="url(#p31cd7d2839)" style="fill: none; stroke: #000000; stroke-width: 1.5; stroke-linecap: square"/>
   </g>
   <g id="line2d_20">
    <path d="M 104.090909 41.004 
L 132.272727 41.004 
" clip-path="url(#p31cd7d2839)" style="fill: none; stroke: #000000; stroke-width: 1.5; stroke-linecap: square"/>
   </g>
   <g id="patch_3">
    <path d="M 90 160.2 
L 90 21.6 
" style="fill: none; stroke: #000000; stroke-width: 0.8; stroke-linejoin: miter; stroke-linecap: square"/>
   </g>
   <g id="text_11">
    <text style="font: 15px 'inter', sans-serif; text-anchor: middle" x="118.181818" y="35.46" transform="rotate(-0 118.181818 35.46)">Brain</text>
   </g>
   <g id="text_12">
    <text style="font: 15px 'inter', sans-serif; text-anchor: middle" x="230.909091" y="35.46" transform="rotate(-0 230.909091 35.46)">VNC</text>
   </g>
   <g id="text_13">
    <text style="font: 16px 'inter', sans-serif; text-anchor: middle" x="216.818182" y="15.6" transform="rotate(-0 216.818182 15.6)">CsCh Effects</text>
   </g>
  </g>
  <g id="axes_2">
   <g id="patch_4">
    <path d="M 394.363636 160.2 
L 648 160.2 
L 648 21.6 
L 394.363636 21.6 
z
" style="fill: #ffffff"/>
   </g>
   <g id="PolyCollection_5">
    <defs>
     <path id="mc7d3c4be9b" d="M 430.674601 -98.517827 
L 430.598399 -98.517827 
L 430.598399 -99.179664 
L 430.598399 -99.8415 
L 430.598399 -100.503337 
L 430.598399 -101.165174 
L 430.598399 -101.827011 
L 430.598399 -102.488848 
L 430.598399 -103.150685 
L 430.598399 -103.812521 
L 430.598399 -104.474358 
L 430.598399 -105.136195 
L 430.598399 -105.798032 
L 430.598399 -106.459869 
L 430.598399 -107.121706 
L 430.598399 -107.783542 
L 430.598399 -108.445379 
L 430.598399 -109.107216 
L 430.598399 -109.769053 
L 430.598399 -110.43089 
L 430.598399 -111.092727 
L 430.598399 -111.754564 
L 430.598399 -112.4164 
L 430.598399 -113.078237 
L 430.598399 -113.740074 
L 430.598399 -114.401911 
L 430.598399 -115.063748 
L 430.598399 -115.725585 
L 430.598399 -116.387421 
L 430.598399 -117.049258 
L 430.598399 -117.711095 
L 430.598399 -118.372932 
L 430.598399 -119.034769 
L 430.598399 -119.696606 
L 430.598399 -120.358442 
L 430.598399 -121.020279 
L 430.598399 -121.682116 
L 430.598399 -122.343953 
L 430.598399 -123.00579 
L 430.598399 -123.667627 
L 430.598399 -124.329464 
L 430.598399 -124.9913 
L 430.598399 -125.653137 
L 430.598399 -126.314974 
L 430.598399 -126.976811 
L 430.598399 -127.638648 
L 430.598399 -128.300485 
L 430.598399 -128.962321 
L 430.598399 -129.624158 
L 430.598399 -130.285995 
L 430.598399 -130.947832 
L 430.598399 -131.609669 
L 430.598399 -132.271506 
L 430.598399 -132.933342 
L 430.598399 -133.595179 
L 430.598399 -134.257016 
L 430.598399 -134.918853 
L 430.598399 -135.58069 
L 430.598399 -136.242527 
L 430.598399 -136.904364 
L 430.598399 -137.5662 
L 430.598399 -138.228037 
L 430.598399 -138.889874 
L 430.598399 -139.551711 
L 430.598399 -140.213548 
L 430.598399 -140.875385 
L 430.598399 -141.537221 
L 430.598399 -142.199058 
L 430.598399 -142.860895 
L 430.598399 -143.522732 
L 430.598399 -144.184569 
L 430.598399 -144.846406 
L 430.598399 -145.508243 
L 430.598399 -146.170079 
L 430.598399 -146.831916 
L 430.598399 -147.493753 
L 430.598399 -148.15559 
L 430.598399 -148.817427 
L 430.598399 -149.479264 
L 430.598399 -150.1411 
L 430.598399 -150.802937 
L 430.598399 -151.464774 
L 430.598399 -152.126611 
L 430.598399 -152.788448 
L 430.598399 -153.450285 
L 430.598399 -154.112121 
L 430.598399 -154.773958 
L 430.598399 -155.435795 
L 430.598399 -156.097632 
L 430.598399 -156.759469 
L 430.598399 -157.421306 
L 430.598399 -158.083143 
L 430.598399 -158.744979 
L 430.598399 -159.406816 
L 430.598399 -160.068653 
L 430.598399 -160.73049 
L 430.598399 -161.392327 
L 430.598399 -162.054164 
L 430.598399 -162.716 
L 430.598399 -163.377837 
L 430.598399 -164.039674 
L 430.645277 -164.039674 
L 430.645277 -164.039674 
L 430.654729 -163.377837 
L 430.66209 -162.716 
L 430.668193 -162.054164 
L 430.674827 -161.392327 
L 430.684409 -160.73049 
L 430.699527 -160.068653 
L 430.722296 -159.406816 
L 430.754078 -158.744979 
L 430.795874 -158.083143 
L 430.848257 -157.421306 
L 430.909575 -156.759469 
L 430.973892 -156.097632 
L 431.03227 -155.435795 
L 431.078594 -154.773958 
L 431.115774 -154.112121 
L 431.156493 -153.450285 
L 431.217467 -152.788448 
L 431.311629 -152.126611 
L 431.443043 -151.464774 
L 431.606172 -150.802937 
L 431.789705 -150.1411 
L 431.984609 -149.479264 
L 432.192717 -148.817427 
L 432.428457 -148.15559 
L 432.709864 -147.493753 
L 433.044818 -146.831916 
L 433.424113 -146.170079 
L 433.827352 -145.508243 
L 434.236138 -144.846406 
L 434.642723 -144.184569 
L 435.047506 -143.522732 
L 435.450908 -142.860895 
L 435.851542 -142.199058 
L 436.254841 -141.537221 
L 436.682538 -140.875385 
L 437.170403 -140.213548 
L 437.752843 -139.551711 
L 438.444422 -138.889874 
L 439.229665 -138.228037 
L 440.067651 -137.5662 
L 440.911315 -136.904364 
L 441.731424 -136.242527 
L 442.527015 -135.58069 
L 443.311235 -134.918853 
L 444.083845 -134.257016 
L 444.815989 -133.595179 
L 445.46099 -132.933342 
L 445.980354 -132.271506 
L 446.365083 -131.609669 
L 446.642762 -130.947832 
L 446.870922 -130.285995 
L 447.117027 -129.624158 
L 447.427735 -128.962321 
L 447.801382 -128.300485 
L 448.18372 -127.638648 
L 448.494919 -126.976811 
L 448.674141 -126.314974 
L 448.714286 -125.653137 
L 448.663127 -124.9913 
L 448.586908 -124.329464 
L 448.518707 -123.667627 
L 448.428487 -123.00579 
L 448.239477 -122.343953 
L 447.880438 -121.682116 
L 447.332413 -121.020279 
L 446.632405 -120.358442 
L 445.835702 -119.696606 
L 444.97526 -119.034769 
L 444.052975 -118.372932 
L 443.061713 -117.711095 
L 442.010438 -117.049258 
L 440.930469 -116.387421 
L 439.863172 -115.725585 
L 438.843332 -115.063748 
L 437.890862 -114.401911 
L 437.013019 -113.740074 
L 436.210354 -113.078237 
L 435.479981 -112.4164 
L 434.817031 -111.754564 
L 434.21783 -111.092727 
L 433.683052 -110.43089 
L 433.215804 -109.769053 
L 432.81495 -109.107216 
L 432.47078 -108.445379 
L 432.168514 -107.783542 
L 431.896965 -107.121706 
L 431.654547 -106.459869 
L 431.447643 -105.798032 
L 431.283217 -105.136195 
L 431.161843 -104.474358 
L 431.075863 -103.812521 
L 431.012553 -103.150685 
L 430.959052 -102.488848 
L 430.90635 -101.827011 
L 430.851367 -101.165174 
L 430.796555 -100.503337 
L 430.746916 -99.8415 
L 430.70613 -99.179664 
L 430.674601 -98.517827 
z
"/>
    </defs>
    <g clip-path="url(#p91a08816fb)">
     <use xlink:href="#mc7d3c4be9b" x="0" y="180" style="fill: #2e8b57; fill-opacity: 0.5"/>
    </g>
   </g>
   <g id="PolyCollection_6">
    <defs>
     <path id="m15ca39b48c" d="M 503.116214 -37.570032 
L 503.065649 -37.570032 
L 503.065649 -38.538147 
L 503.065649 -39.506262 
L 503.065649 -40.474377 
L 503.065649 -41.442492 
L 503.065649 -42.410608 
L 503.065649 -43.378723 
L 503.065649 -44.346838 
L 503.065649 -45.314953 
L 503.065649 -46.283068 
L 503.065649 -47.251183 
L 503.065649 -48.219298 
L 503.065649 -49.187413 
L 503.065649 -50.155528 
L 503.065649 -51.123643 
L 503.065649 -52.091758 
L 503.065649 -53.059873 
L 503.065649 -54.027988 
L 503.065649 -54.996103 
L 503.065649 -55.964218 
L 503.065649 -56.932334 
L 503.065649 -57.900449 
L 503.065649 -58.868564 
L 503.065649 -59.836679 
L 503.065649 -60.804794 
L 503.065649 -61.772909 
L 503.065649 -62.741024 
L 503.065649 -63.709139 
L 503.065649 -64.677254 
L 503.065649 -65.645369 
L 503.065649 -66.613484 
L 503.065649 -67.581599 
L 503.065649 -68.549714 
L 503.065649 -69.517829 
L 503.065649 -70.485945 
L 503.065649 -71.45406 
L 503.065649 -72.422175 
L 503.065649 -73.39029 
L 503.065649 -74.358405 
L 503.065649 -75.32652 
L 503.065649 -76.294635 
L 503.065649 -77.26275 
L 503.065649 -78.230865 
L 503.065649 -79.19898 
L 503.065649 -80.167095 
L 503.065649 -81.13521 
L 503.065649 -82.103325 
L 503.065649 -83.07144 
L 503.065649 -84.039555 
L 503.065649 -85.007671 
L 503.065649 -85.975786 
L 503.065649 -86.943901 
L 503.065649 -87.912016 
L 503.065649 -88.880131 
L 503.065649 -89.848246 
L 503.065649 -90.816361 
L 503.065649 -91.784476 
L 503.065649 -92.752591 
L 503.065649 -93.720706 
L 503.065649 -94.688821 
L 503.065649 -95.656936 
L 503.065649 -96.625051 
L 503.065649 -97.593166 
L 503.065649 -98.561281 
L 503.065649 -99.529397 
L 503.065649 -100.497512 
L 503.065649 -101.465627 
L 503.065649 -102.433742 
L 503.065649 -103.401857 
L 503.065649 -104.369972 
L 503.065649 -105.338087 
L 503.065649 -106.306202 
L 503.065649 -107.274317 
L 503.065649 -108.242432 
L 503.065649 -109.210547 
L 503.065649 -110.178662 
L 503.065649 -111.146777 
L 503.065649 -112.114892 
L 503.065649 -113.083007 
L 503.065649 -114.051123 
L 503.065649 -115.019238 
L 503.065649 -115.987353 
L 503.065649 -116.955468 
L 503.065649 -117.923583 
L 503.065649 -118.891698 
L 503.065649 -119.859813 
L 503.065649 -120.827928 
L 503.065649 -121.796043 
L 503.065649 -122.764158 
L 503.065649 -123.732273 
L 503.065649 -124.700388 
L 503.065649 -125.668503 
L 503.065649 -126.636618 
L 503.065649 -127.604733 
L 503.065649 -128.572849 
L 503.065649 -129.540964 
L 503.065649 -130.509079 
L 503.065649 -131.477194 
L 503.065649 -132.445309 
L 503.065649 -133.413424 
L 503.107356 -133.413424 
L 503.107356 -133.413424 
L 503.125869 -132.445309 
L 503.151585 -131.477194 
L 503.186299 -130.509079 
L 503.230686 -129.540964 
L 503.284566 -128.572849 
L 503.347462 -127.604733 
L 503.418265 -126.636618 
L 503.494542 -125.668503 
L 503.573703 -124.700388 
L 503.656431 -123.732273 
L 503.749152 -122.764158 
L 503.862433 -121.796043 
L 504.006744 -120.827928 
L 504.189619 -119.859813 
L 504.41516 -118.891698 
L 504.683555 -117.923583 
L 504.990373 -116.955468 
L 505.32905 -115.987353 
L 505.697786 -115.019238 
L 506.105862 -114.051123 
L 506.572665 -113.083007 
L 507.118005 -112.114892 
L 507.74873 -111.146777 
L 508.449249 -110.178662 
L 509.182721 -109.210547 
L 509.905141 -108.242432 
L 510.585994 -107.274317 
L 511.221663 -106.306202 
L 511.830811 -105.338087 
L 512.43515 -104.369972 
L 513.042344 -103.401857 
L 513.646635 -102.433742 
L 514.247414 -101.465627 
L 514.86935 -100.497512 
L 515.563481 -99.529397 
L 516.380475 -98.561281 
L 517.3291 -97.593166 
L 518.35009 -96.625051 
L 519.330253 -95.656936 
L 520.151442 -94.688821 
L 520.739208 -93.720706 
L 521.07677 -92.752591 
L 521.181818 -91.784476 
L 521.075522 -90.816361 
L 520.774817 -89.848246 
L 520.309901 -88.880131 
L 519.738561 -87.912016 
L 519.131861 -86.943901 
L 518.540887 -85.975786 
L 517.97917 -85.007671 
L 517.437414 -84.039555 
L 516.908938 -83.07144 
L 516.395314 -82.103325 
L 515.891178 -81.13521 
L 515.373488 -80.167095 
L 514.810942 -79.19898 
L 514.182504 -78.230865 
L 513.487291 -77.26275 
L 512.744049 -76.294635 
L 511.988043 -75.32652 
L 511.264383 -74.358405 
L 510.610137 -73.39029 
L 510.030611 -72.422175 
L 509.491981 -71.45406 
L 508.944765 -70.485945 
L 508.362578 -69.517829 
L 507.762936 -68.549714 
L 507.193665 -67.581599 
L 506.699903 -66.613484 
L 506.298971 -65.645369 
L 505.977651 -64.677254 
L 505.70772 -63.709139 
L 505.46553 -62.741024 
L 505.241851 -61.772909 
L 505.03735 -60.804794 
L 504.851623 -59.836679 
L 504.678205 -58.868564 
L 504.509393 -57.900449 
L 504.343275 -56.932334 
L 504.184467 -55.964218 
L 504.038824 -54.996103 
L 503.908796 -54.027988 
L 503.793616 -53.059873 
L 503.692193 -52.091758 
L 503.604605 -51.123643 
L 503.531052 -50.155528 
L 503.470197 -49.187413 
L 503.418851 -48.219298 
L 503.373341 -47.251183 
L 503.331398 -46.283068 
L 503.292951 -45.314953 
L 503.259107 -44.346838 
L 503.230367 -43.378723 
L 503.205904 -42.410608 
L 503.184363 -41.442492 
L 503.164904 -40.474377 
L 503.147269 -39.506262 
L 503.131188 -38.538147 
L 503.116214 -37.570032 
z
"/>
    </defs>
    <g clip-path="url(#p91a08816fb)">
     <use xlink:href="#m15ca39b48c" x="0" y="180" style="fill: #2e8b57; fill-opacity: 0.5"/>
    </g>
   </g>
   <g id="PolyCollection_7">
    <defs>
     <path id="m577716862b" d="M 575.721738 -67.688122 
L 575.534528 -67.688122 
L 575.534528 -68.706058 
L 575.534528 -69.723993 
L 575.534528 -70.741928 
L 575.534528 -71.759863 
L 575.534528 -72.777798 
L 575.534528 -73.795734 
L 575.534528 -74.813669 
L 575.534528 -75.831604 
L 575.534528 -76.849539 
L 575.534528 -77.867475 
L 575.534528 -78.88541 
L 575.534528 -79.903345 
L 575.534528 -80.92128 
L 575.534528 -81.939215 
L 575.534528 -82.957151 
L 575.534528 -83.975086 
L 575.534528 -84.993021 
L 575.534528 -86.010956 
L 575.534528 -87.028891 
L 575.534528 -88.046827 
L 575.534528 -89.064762 
L 575.534528 -90.082697 
L 575.534528 -91.100632 
L 575.534528 -92.118568 
L 575.534528 -93.136503 
L 575.534528 -94.154438 
L 575.534528 -95.172373 
L 575.534528 -96.190308 
L 575.534528 -97.208244 
L 575.534528 -98.226179 
L 575.534528 -99.244114 
L 575.534528 -100.262049 
L 575.534528 -101.279985 
L 575.534528 -102.29792 
L 575.534528 -103.315855 
L 575.534528 -104.33379 
L 575.534528 -105.351725 
L 575.534528 -106.369661 
L 575.534528 -107.387596 
L 575.534528 -108.405531 
L 575.534528 -109.423466 
L 575.534528 -110.441401 
L 575.534528 -111.459337 
L 575.534528 -112.477272 
L 575.534528 -113.495207 
L 575.534528 -114.513142 
L 575.534528 -115.531078 
L 575.534528 -116.549013 
L 575.534528 -117.566948 
L 575.534528 -118.584883 
L 575.534528 -119.602818 
L 575.534528 -120.620754 
L 575.534528 -121.638689 
L 575.534528 -122.656624 
L 575.534528 -123.674559 
L 575.534528 -124.692495 
L 575.534528 -125.71043 
L 575.534528 -126.728365 
L 575.534528 -127.7463 
L 575.534528 -128.764235 
L 575.534528 -129.782171 
L 575.534528 -130.800106 
L 575.534528 -131.818041 
L 575.534528 -132.835976 
L 575.534528 -133.853911 
L 575.534528 -134.871847 
L 575.534528 -135.889782 
L 575.534528 -136.907717 
L 575.534528 -137.925652 
L 575.534528 -138.943588 
L 575.534528 -139.961523 
L 575.534528 -140.979458 
L 575.534528 -141.997393 
L 575.534528 -143.015328 
L 575.534528 -144.033264 
L 575.534528 -145.051199 
L 575.534528 -146.069134 
L 575.534528 -147.087069 
L 575.534528 -148.105004 
L 575.534528 -149.12294 
L 575.534528 -150.140875 
L 575.534528 -151.15881 
L 575.534528 -152.176745 
L 575.534528 -153.194681 
L 575.534528 -154.212616 
L 575.534528 -155.230551 
L 575.534528 -156.248486 
L 575.534528 -157.266421 
L 575.534528 -158.284357 
L 575.534528 -159.302292 
L 575.534528 -160.320227 
L 575.534528 -161.338162 
L 575.534528 -162.356098 
L 575.534528 -163.374033 
L 575.534528 -164.391968 
L 575.534528 -165.409903 
L 575.534528 -166.427838 
L 575.534528 -167.445774 
L 575.534528 -168.463709 
L 575.572141 -168.463709 
L 575.572141 -168.463709 
L 575.569634 -167.445774 
L 575.562023 -166.427838 
L 575.552748 -165.409903 
L 575.545381 -164.391968 
L 575.542096 -163.374033 
L 575.543428 -162.356098 
L 575.548697 -161.338162 
L 575.55635 -160.320227 
L 575.564287 -159.302292 
L 575.570525 -158.284357 
L 575.574074 -157.266421 
L 575.575408 -156.248486 
L 575.576121 -155.230551 
L 575.578171 -154.212616 
L 575.583519 -153.194681 
L 575.59455 -152.176745 
L 575.614714 -151.15881 
L 575.648236 -150.140875 
L 575.69836 -149.12294 
L 575.76509 -148.105004 
L 575.844392 -147.087069 
L 575.929654 -146.069134 
L 576.01379 -145.051199 
L 576.090318 -144.033264 
L 576.15453 -143.015328 
L 576.206442 -141.997393 
L 576.25325 -140.979458 
L 576.306942 -139.961523 
L 576.377875 -138.943588 
L 576.470853 -137.925652 
L 576.587721 -136.907717 
L 576.732267 -135.889782 
L 576.9102 -134.871847 
L 577.122738 -133.853911 
L 577.360141 -132.835976 
L 577.60312 -131.818041 
L 577.833723 -130.800106 
L 578.048342 -129.782171 
L 578.261939 -128.764235 
L 578.498871 -127.7463 
L 578.777104 -126.728365 
L 579.098437 -125.71043 
L 579.452535 -124.692495 
L 579.831616 -123.674559 
L 580.243544 -122.656624 
L 580.71024 -121.638689 
L 581.248927 -120.620754 
L 581.850818 -119.602818 
L 582.479583 -118.584883 
L 583.097197 -117.566948 
L 583.696438 -116.549013 
L 584.30717 -115.531078 
L 584.966613 -114.513142 
L 585.680972 -113.495207 
L 586.415663 -112.477272 
L 587.122308 -111.459337 
L 587.77556 -110.441401 
L 588.387314 -109.423466 
L 588.990308 -108.405531 
L 589.610601 -107.387596 
L 590.252992 -106.369661 
L 590.902448 -105.351725 
L 591.525746 -104.33379 
L 592.069051 -103.315855 
L 592.471257 -102.29792 
L 592.704101 -101.279985 
L 592.808883 -100.262049 
L 592.88396 -99.244114 
L 593.01971 -98.226179 
L 593.234326 -97.208244 
L 593.466816 -96.190308 
L 593.626918 -95.172373 
L 593.649351 -94.154438 
L 593.508684 -93.136503 
L 593.20103 -92.118568 
L 592.725993 -91.100632 
L 592.084433 -90.082697 
L 591.281837 -89.064762 
L 590.328231 -88.046827 
L 589.240106 -87.028891 
L 588.047751 -86.010956 
L 586.797387 -84.993021 
L 585.539707 -83.975086 
L 584.314095 -82.957151 
L 583.142605 -81.939215 
L 582.034604 -80.92128 
L 580.994872 -79.903345 
L 580.0316 -78.88541 
L 579.161585 -77.867475 
L 578.406705 -76.849539 
L 577.781344 -75.831604 
L 577.281501 -74.813669 
L 576.886306 -73.795734 
L 576.570058 -72.777798 
L 576.31345 -71.759863 
L 576.106132 -70.741928 
L 575.942381 -69.723993 
L 575.816487 -68.706058 
L 575.721738 -67.688122 
z
"/>
    </defs>
    <g clip-path="url(#p91a08816fb)">
     <use xlink:href="#m577716862b" x="0" y="180" style="fill: #2e8b57; fill-opacity: 0.5"/>
    </g>
   </g>
   <g id="PolyCollection_8">
    <g clip-path="url(#p91a08816fb)">
     <use xlink:href="#mc7d3c4be9b" x="0" y="180" style="fill: #2e8b57; fill-opacity: 0.5"/>
    </g>
   </g>
   <g id="PolyCollection_9">
    <g clip-path="url(#p91a08816fb)">
     <use xlink:href="#m15ca39b48c" x="0" y="180" style="fill: #2e8b57; fill-opacity: 0.5"/>
    </g>
   </g>
   <g id="PolyCollection_10">
    <g clip-path="url(#p91a08816fb)">
     <use xlink:href="#m577716862b" x="0" y="180" style="fill: #2e8b57; fill-opacity: 0.5"/>
    </g>
   </g>
   <g id="matplotlib.axis_3">
    <g id="xtick_5">
     <g id="line2d_21">
      <g>
       <use xlink:href="#m330063cafe" x="430.597403" y="160.2" style="stroke: #000000; stroke-width: 0.8"/>
      </g>
     </g>
     <g id="text_14">
      <text style="font: 12px 'inter', sans-serif" transform="translate(401.14751 237.230088) rotate(-45)">Trh&gt;VNC-ACR1</text>
     </g>
    </g>
    <g id="xtick_6">
     <g id="line2d_22">
      <g>
       <use xlink:href="#m330063cafe" x="503.064935" y="160.2" style="stroke: #000000; stroke-width: 0.8"/>
      </g>
     </g>
     <g id="text_15">
      <text style="font: 12px 'inter', sans-serif" transform="translate(473.075432 238.30931) rotate(-45)">SXVNC1&gt;ACR1</text>
     </g>
    </g>
    <g id="xtick_7">
     <g id="line2d_23">
      <g>
       <use xlink:href="#m330063cafe" x="575.532468" y="160.2" style="stroke: #000000; stroke-width: 0.8"/>
      </g>
     </g>
     <g id="text_16">
      <text style="font: 12px 'inter', sans-serif" transform="translate(545.542964 238.30931) rotate(-45)">SXVNC2&gt;ACR1</text>
     </g>
    </g>
   </g>
   <g id="matplotlib.axis_4">
    <g id="ytick_6">
     <g id="line2d_24">
      <g>
       <use xlink:href="#m563b83afca" x="394.363636" y="146.34" style="stroke: #000000; stroke-width: 0.8"/>
      </g>
     </g>
     <g id="text_17">
      <text style="font: 12px 'inter', sans-serif; text-anchor: end" x="387.363636" y="150.899063" transform="rotate(-0 387.363636 150.899063)">−2</text>
     </g>
    </g>
    <g id="ytick_7">
     <g id="line2d_25">
      <g>
       <use xlink:href="#m563b83afca" x="394.363636" y="118.62" style="stroke: #000000; stroke-width: 0.8"/>
      </g>
     </g>
     <g id="text_18">
      <text style="font: 12px 'inter', sans-serif; text-anchor: end" x="387.363636" y="123.179063" transform="rotate(-0 387.363636 123.179063)">−1</text>
     </g>
    </g>
    <g id="ytick_8">
     <g id="line2d_26">
      <g>
       <use xlink:href="#m563b83afca" x="394.363636" y="90.9" style="stroke: #000000; stroke-width: 0.8"/>
      </g>
     </g>
     <g id="text_19">
      <text style="font: 12px 'inter', sans-serif; text-anchor: end" x="387.363636" y="95.459062" transform="rotate(-0 387.363636 95.459062)">0</text>
     </g>
    </g>
    <g id="ytick_9">
     <g id="line2d_27">
      <g>
       <use xlink:href="#m563b83afca" x="394.363636" y="63.18" style="stroke: #000000; stroke-width: 0.8"/>
      </g>
     </g>
     <g id="text_20">
      <text style="font: 12px 'inter', sans-serif; text-anchor: end" x="387.363636" y="67.739062" transform="rotate(-0 387.363636 67.739062)">1</text>
     </g>
    </g>
    <g id="ytick_10">
     <g id="line2d_28">
      <g>
       <use xlink:href="#m563b83afca" x="394.363636" y="35.46" style="stroke: #000000; stroke-width: 0.8"/>
      </g>
     </g>
     <g id="text_21">
      <text style="font: 12px 'inter', sans-serif; text-anchor: end" x="387.363636" y="40.019062" transform="rotate(-0 387.363636 40.019062)">2</text>
     </g>
    </g>
    <g id="text_22">
     <!-- $\Delta\Delta$ Volume -->
     <g transform="translate(363.177386 123.84) rotate(-90)">
      <text>
       <tspan style="font: 12px 'DejaVu Sans'" x="0 8.208984 16.417969 20.232422 28.441406 35.783203 39.117188 46.722656 58.412109" y="-0.875">ΔΔ Volume</tspan>
      </text>
     </g>
    </g>
   </g>
   <g id="line2d_29">
    <path d="M 358.12987 90.9 
L 648 90.9 
" clip-path="url(#p91a08816fb)" style="fill: none; stroke: #000000; stroke-linecap: square"/>
   </g>
   <g id="line2d_30">
    <g clip-path="url(#p91a08816fb)">
     <use xlink:href="#mfe7cc0331e" x="430.597403" y="52.520765" style="stroke: #000000"/>
    </g>
   </g>
   <g id="line2d_31">
    <path d="M 430.597403 68.216662 
L 430.597403 31.925071 
" clip-path="url(#p91a08816fb)" style="fill: none; stroke: #000000; stroke-width: 2.5; stroke-linecap: square"/>
   </g>
   <g id="line2d_32">
    <g clip-path="url(#p91a08816fb)">
     <use xlink:href="#mfe7cc0331e" x="503.064935" y="90.532034" style="stroke: #000000"/>
    </g>
   </g>
   <g id="line2d_33">
    <path d="M 503.064935 120.909238 
L 503.064935 66.601511 
" clip-path="url(#p91a08816fb)" style="fill: none; stroke: #000000; stroke-width: 2.5; stroke-linecap: square"/>
   </g>
   <g id="line2d_34">
    <g clip-path="url(#p91a08816fb)">
     <use xlink:href="#mfe7cc0331e" x="575.532468" y="78.846486" style="stroke: #000000"/>
    </g>
   </g>
   <g id="line2d_35">
    <path d="M 575.532468 99.527584 
L 575.532468 44.833729 
" clip-path="url(#p91a08816fb)" style="fill: none; stroke: #000000; stroke-width: 2.5; stroke-linecap: square"/>
   </g>
   <g id="line2d_36">
    <path d="M 358.12987 90.9 
L 648 90.9 
" clip-path="url(#p91a08816fb)" style="fill: none; stroke: #000000; stroke-linecap: square"/>
   </g>
   <g id="line2d_37">
    <g clip-path="url(#p91a08816fb)">
     <use xlink:href="#mfe7cc0331e" x="430.597403" y="52.520765" style="stroke: #000000"/>
    </g>
   </g>
   <g id="line2d_38">
    <path d="M 430.597403 68.216662 
L 430.597403 31.925071 
" clip-path="url(#p91a08816fb)" style="fill: none; stroke: #000000; stroke-width: 2.5; stroke-linecap: square"/>
   </g>
   <g id="line2d_39">
    <g clip-path="url(#p91a08816fb)">
     <use xlink:href="#mfe7cc0331e" x="503.064935" y="90.532034" style="stroke: #000000"/>
    </g>
   </g>
   <g id="line2d_40">
    <path d="M 503.064935 120.909238 
L 503.064935 66.601511 
" clip-path="url(#p91a08816fb)" style="fill: none; stroke: #000000; stroke-width: 2.5; stroke-linecap: square"/>
   </g>
   <g id="line2d_41">
    <g clip-path="url(#p91a08816fb)">
     <use xlink:href="#mfe7cc0331e" x="575.532468" y="78.846486" style="stroke: #000000"/>
    </g>
   </g>
   <g id="line2d_42">
    <path d="M 575.532468 99.527584 
L 575.532468 44.833729 
" clip-path="url(#p91a08816fb)" style="fill: none; stroke: #000000; stroke-width: 2.5; stroke-linecap: square"/>
   </g>
   <g id="line2d_43">
    <path d="M 412.480519 41.004 
L 593.649351 41.004 
" clip-path="url(#p91a08816fb)" style="fill: none; stroke: #000000; stroke-width: 1.5; stroke-linecap: square"/>
   </g>
   <g id="patch_5">
    <path d="M 394.363636 160.2 
L 394.363636 21.6 
" style="fill: none; stroke: #000000; stroke-width: 0.8; stroke-linejoin: miter; stroke-linecap: square"/>
   </g>
   <g id="text_23">
    <text style="font: 15px 'inter', sans-serif; text-anchor: middle" x="503.064935" y="35.46" transform="rotate(-0 503.064935 35.46)">VNC</text>
   </g>
   <g id="text_24">
    <text style="font: 16px 'inter', sans-serif; text-anchor: middle" x="521.181818" y="15.6" transform="rotate(-0 521.181818 15.6)">ACR1 Effects</text>
   </g>
  </g>
 </g>
 <defs>
  <clipPath id="p31cd7d2839">
   <rect x="90" y="21.6" width="253.636364" height="138.6"/>
  </clipPath>
  <clipPath id="p91a08816fb">
   <rect x="394.363636" y="21.6" width="253.636364" height="138.6"/>
  </clipPath>
 </defs>
</svg>
