<?xml version="1.0" encoding="utf-8" standalone="no"?>
<!DOCTYPE svg PUBLIC "-//W3C//DTD SVG 1.1//EN"
  "http://www.w3.org/Graphics/SVG/1.1/DTD/svg11.dtd">
<svg xmlns:xlink="http://www.w3.org/1999/xlink" width="720pt" height="180pt" viewBox="0 0 720 180" xmlns="http://www.w3.org/2000/svg" version="1.1">
 <metadata>
  <rdf:RDF xmlns:dc="http://purl.org/dc/elements/1.1/" xmlns:cc="http://creativecommons.org/ns#" xmlns:rdf="http://www.w3.org/1999/02/22-rdf-syntax-ns#">
   <cc:Work>
    <dc:type rdf:resource="http://purl.org/dc/dcmitype/StillImage"/>
    <dc:date>2024-10-09T12:07:44.777349</dc:date>
    <dc:format>image/svg+xml</dc:format>
    <dc:creator>
     <cc:Agent>
      <dc:title>Matplotlib v3.6.3, https://matplotlib.org/</dc:title>
     </cc:Agent>
    </dc:creator>
   </cc:Work>
  </rdf:RDF>
 </metadata>
 <defs>
  <style type="text/css">*{stroke-linejoin: round; stroke-linecap: butt}</style>
 </defs>
 <g id="figure_1">
  <g id="patch_1">
   <path d="M 0 180 
L 720 180 
L 720 0 
L 0 0 
z
" style="fill: #ffffff"/>
  </g>
  <g id="axes_1">
   <g id="patch_2">
    <path d="M 90 160.2 
L 343.636364 160.2 
L 343.636364 21.6 
L 90 21.6 
z
" style="fill: #ffffff"/>
   </g>
   <g id="PolyCollection_1">
    <defs>
     <path id="m000ec67bf7" d="M 118.1979 -61.111357 
L 118.18214 -61.111357 
L 118.18214 -61.868266 
L 118.18214 -62.625175 
L 118.18214 -63.382084 
L 118.18214 -64.138994 
L 118.18214 -64.895903 
L 118.18214 -65.652812 
L 118.18214 -66.409722 
L 118.18214 -67.166631 
L 118.18214 -67.92354 
L 118.18214 -68.68045 
L 118.18214 -69.437359 
L 118.18214 -70.194268 
L 118.18214 -70.951177 
L 118.18214 -71.708087 
L 118.18214 -72.464996 
L 118.18214 -73.221905 
L 118.18214 -73.978815 
L 118.18214 -74.735724 
L 118.18214 -75.492633 
L 118.18214 -76.249542 
L 118.18214 -77.006452 
L 118.18214 -77.763361 
L 118.18214 -78.52027 
L 118.18214 -79.27718 
L 118.18214 -80.034089 
L 118.18214 -80.790998 
L 118.18214 -81.547908 
L 118.18214 -82.304817 
L 118.18214 -83.061726 
L 118.18214 -83.818635 
L 118.18214 -84.575545 
L 118.18214 -85.332454 
L 118.18214 -86.089363 
L 118.18214 -86.846273 
L 118.18214 -87.603182 
L 118.18214 -88.360091 
L 118.18214 -89.117001 
L 118.18214 -89.87391 
L 118.18214 -90.630819 
L 118.18214 -91.387728 
L 118.18214 -92.144638 
L 118.18214 -92.901547 
L 118.18214 -93.658456 
L 118.18214 -94.415366 
L 118.18214 -95.172275 
L 118.18214 -95.929184 
L 118.18214 -96.686094 
L 118.18214 -97.443003 
L 118.18214 -98.199912 
L 118.18214 -98.956821 
L 118.18214 -99.713731 
L 118.18214 -100.47064 
L 118.18214 -101.227549 
L 118.18214 -101.984459 
L 118.18214 -102.741368 
L 118.18214 -103.498277 
L 118.18214 -104.255187 
L 118.18214 -105.012096 
L 118.18214 -105.769005 
L 118.18214 -106.525914 
L 118.18214 -107.282824 
L 118.18214 -108.039733 
L 118.18214 -108.796642 
L 118.18214 -109.553552 
L 118.18214 -110.310461 
L 118.18214 -111.06737 
L 118.18214 -111.82428 
L 118.18214 -112.581189 
L 118.18214 -113.338098 
L 118.18214 -114.095007 
L 118.18214 -114.851917 
L 118.18214 -115.608826 
L 118.18214 -116.365735 
L 118.18214 -117.122645 
L 118.18214 -117.879554 
L 118.18214 -118.636463 
L 118.18214 -119.393373 
L 118.18214 -120.150282 
L 118.18214 -120.907191 
L 118.18214 -121.6641 
L 118.18214 -122.42101 
L 118.18214 -123.177919 
L 118.18214 -123.934828 
L 118.18214 -124.691738 
L 118.18214 -125.448647 
L 118.18214 -126.205556 
L 118.18214 -126.962466 
L 118.18214 -127.719375 
L 118.18214 -128.476284 
L 118.18214 -129.233193 
L 118.18214 -129.990103 
L 118.18214 -130.747012 
L 118.18214 -131.503921 
L 118.18214 -132.260831 
L 118.18214 -133.01774 
L 118.18214 -133.774649 
L 118.18214 -134.531559 
L 118.18214 -135.288468 
L 118.18214 -136.045377 
L 118.214974 -136.045377 
L 118.214974 -136.045377 
L 118.225351 -135.288468 
L 118.23758 -134.531559 
L 118.253389 -133.774649 
L 118.274628 -133.01774 
L 118.302412 -132.260831 
L 118.337246 -131.503921 
L 118.380449 -130.747012 
L 118.435332 -129.990103 
L 118.505872 -129.233193 
L 118.593017 -128.476284 
L 118.692302 -127.719375 
L 118.796408 -126.962466 
L 118.901395 -126.205556 
L 119.010773 -125.448647 
L 119.133415 -124.691738 
L 119.277906 -123.934828 
L 119.44955 -123.177919 
L 119.652852 -122.42101 
L 119.895992 -121.6641 
L 120.190993 -120.907191 
L 120.547294 -120.150282 
L 120.964291 -119.393373 
L 121.431149 -118.636463 
L 121.934701 -117.879554 
L 122.466949 -117.122645 
L 123.02549 -116.365735 
L 123.610296 -115.608826 
L 124.222788 -114.851917 
L 124.865179 -114.095007 
L 125.534906 -113.338098 
L 126.217564 -112.581189 
L 126.888478 -111.82428 
L 127.526782 -111.06737 
L 128.132537 -110.310461 
L 128.729966 -109.553552 
L 129.348045 -108.796642 
L 129.990807 -108.039733 
L 130.623386 -107.282824 
L 131.187545 -106.525914 
L 131.633235 -105.769005 
L 131.940998 -105.012096 
L 132.123725 -104.255187 
L 132.215197 -103.498277 
L 132.255262 -102.741368 
L 132.272727 -101.984459 
L 132.26786 -101.227549 
L 132.20787 -100.47064 
L 132.047733 -99.713731 
L 131.765718 -98.956821 
L 131.383908 -98.199912 
L 130.955495 -97.443003 
L 130.531122 -96.686094 
L 130.132171 -95.929184 
L 129.747232 -95.172275 
L 129.347294 -94.415366 
L 128.906228 -93.658456 
L 128.416132 -92.901547 
L 127.890464 -92.144638 
L 127.350292 -91.387728 
L 126.801041 -90.630819 
L 126.222589 -89.87391 
L 125.588303 -89.117001 
L 124.896659 -88.360091 
L 124.181676 -87.603182 
L 123.491463 -86.846273 
L 122.859295 -86.089363 
L 122.295381 -85.332454 
L 121.799694 -84.575545 
L 121.374293 -83.818635 
L 121.020708 -83.061726 
L 120.729355 -82.304817 
L 120.476626 -81.547908 
L 120.234834 -80.790998 
L 119.986045 -80.034089 
L 119.728696 -79.27718 
L 119.474593 -78.52027 
L 119.241095 -77.763361 
L 119.043254 -77.006452 
L 118.888098 -76.249542 
L 118.772258 -75.492633 
L 118.683868 -74.735724 
L 118.60845 -73.978815 
L 118.535969 -73.221905 
L 118.464616 -72.464996 
L 118.39886 -71.708087 
L 118.344002 -70.951177 
L 118.301993 -70.194268 
L 118.271051 -69.437359 
L 118.247808 -68.68045 
L 118.229432 -67.92354 
L 118.21448 -67.166631 
L 118.202682 -66.409722 
L 118.194318 -65.652812 
L 118.189628 -64.895903 
L 118.188475 -64.138994 
L 118.190197 -63.382084 
L 118.193511 -62.625175 
L 118.19664 -61.868266 
L 118.1979 -61.111357 
z
"/>
    </defs>
    <g clip-path="url(#p55ee9765ed)">
     <use xlink:href="#m000ec67bf7" x="0" y="180" style="fill: #ff4500; fill-opacity: 0.5"/>
    </g>
   </g>
   <g id="PolyCollection_2">
    <defs>
     <path id="m49c7018ea2" d="M 174.636161 -21.258916 
L 174.546442 -21.258916 
L 174.546442 -22.037964 
L 174.546442 -22.817012 
L 174.546442 -23.596061 
L 174.546442 -24.375109 
L 174.546442 -25.154158 
L 174.546442 -25.933206 
L 174.546442 -26.712254 
L 174.546442 -27.491303 
L 174.546442 -28.270351 
L 174.546442 -29.049399 
L 174.546442 -29.828448 
L 174.546442 -30.607496 
L 174.546442 -31.386545 
L 174.546442 -32.165593 
L 174.546442 -32.944641 
L 174.546442 -33.72369 
L 174.546442 -34.502738 
L 174.546442 -35.281786 
L 174.546442 -36.060835 
L 174.546442 -36.839883 
L 174.546442 -37.618932 
L 174.546442 -38.39798 
L 174.546442 -39.177028 
L 174.546442 -39.956077 
L 174.546442 -40.735125 
L 174.546442 -41.514173 
L 174.546442 -42.293222 
L 174.546442 -43.07227 
L 174.546442 -43.851318 
L 174.546442 -44.630367 
L 174.546442 -45.409415 
L 174.546442 -46.188464 
L 174.546442 -46.967512 
L 174.546442 -47.74656 
L 174.546442 -48.525609 
L 174.546442 -49.304657 
L 174.546442 -50.083705 
L 174.546442 -50.862754 
L 174.546442 -51.641802 
L 174.546442 -52.420851 
L 174.546442 -53.199899 
L 174.546442 -53.978947 
L 174.546442 -54.757996 
L 174.546442 -55.537044 
L 174.546442 -56.316092 
L 174.546442 -57.095141 
L 174.546442 -57.874189 
L 174.546442 -58.653238 
L 174.546442 -59.432286 
L 174.546442 -60.211334 
L 174.546442 -60.990383 
L 174.546442 -61.769431 
L 174.546442 -62.548479 
L 174.546442 -63.327528 
L 174.546442 -64.106576 
L 174.546442 -64.885625 
L 174.546442 -65.664673 
L 174.546442 -66.443721 
L 174.546442 -67.22277 
L 174.546442 -68.001818 
L 174.546442 -68.780866 
L 174.546442 -69.559915 
L 174.546442 -70.338963 
L 174.546442 -71.118011 
L 174.546442 -71.89706 
L 174.546442 -72.676108 
L 174.546442 -73.455157 
L 174.546442 -74.234205 
L 174.546442 -75.013253 
L 174.546442 -75.792302 
L 174.546442 -76.57135 
L 174.546442 -77.350398 
L 174.546442 -78.129447 
L 174.546442 -78.908495 
L 174.546442 -79.687544 
L 174.546442 -80.466592 
L 174.546442 -81.24564 
L 174.546442 -82.024689 
L 174.546442 -82.803737 
L 174.546442 -83.582785 
L 174.546442 -84.361834 
L 174.546442 -85.140882 
L 174.546442 -85.919931 
L 174.546442 -86.698979 
L 174.546442 -87.478027 
L 174.546442 -88.257076 
L 174.546442 -89.036124 
L 174.546442 -89.815172 
L 174.546442 -90.594221 
L 174.546442 -91.373269 
L 174.546442 -92.152318 
L 174.546442 -92.931366 
L 174.546442 -93.710414 
L 174.546442 -94.489463 
L 174.546442 -95.268511 
L 174.546442 -96.047559 
L 174.546442 -96.826608 
L 174.546442 -97.605656 
L 174.546442 -98.384705 
L 174.56447 -98.384705 
L 174.56447 -98.384705 
L 174.567708 -97.605656 
L 174.573067 -96.826608 
L 174.583251 -96.047559 
L 174.600686 -95.268511 
L 174.62687 -94.489463 
L 174.662661 -93.710414 
L 174.709296 -92.931366 
L 174.769193 -92.152318 
L 174.845569 -91.373269 
L 174.94079 -90.594221 
L 175.054487 -89.815172 
L 175.182858 -89.036124 
L 175.319882 -88.257076 
L 175.460075 -87.478027 
L 175.601582 -86.698979 
L 175.747939 -85.919931 
L 175.907207 -85.140882 
L 176.08871 -84.361834 
L 176.299266 -83.582785 
L 176.540709 -82.803737 
L 176.809075 -82.024689 
L 177.095579 -81.24564 
L 177.390471 -80.466592 
L 177.689952 -79.687544 
L 178.002367 -78.908495 
L 178.347555 -78.129447 
L 178.747385 -77.350398 
L 179.213743 -76.57135 
L 179.744034 -75.792302 
L 180.328027 -75.013253 
L 180.958624 -74.234205 
L 181.634647 -73.455157 
L 182.351813 -72.676108 
L 183.091132 -71.89706 
L 183.817671 -71.118011 
L 184.492477 -70.338963 
L 185.087484 -69.559915 
L 185.591801 -68.780866 
L 186.008327 -68.001818 
L 186.348721 -67.22277 
L 186.631936 -66.443721 
L 186.882842 -65.664673 
L 187.126071 -64.885625 
L 187.377647 -64.106576 
L 187.641271 -63.327528 
L 187.910469 -62.548479 
L 188.170757 -61.769431 
L 188.398686 -60.990383 
L 188.563316 -60.211334 
L 188.636364 -59.432286 
L 188.606446 -58.653238 
L 188.484208 -57.874189 
L 188.292304 -57.095141 
L 188.050297 -56.316092 
L 187.769048 -55.537044 
L 187.455647 -54.757996 
L 187.116541 -53.978947 
L 186.751237 -53.199899 
L 186.344496 -52.420851 
L 185.869836 -51.641802 
L 185.305464 -50.862754 
L 184.650304 -50.083705 
L 183.927496 -49.304657 
L 183.173945 -48.525609 
L 182.425451 -47.74656 
L 181.708154 -46.967512 
L 181.039295 -46.188464 
L 180.431819 -45.409415 
L 179.895989 -44.630367 
L 179.436311 -43.851318 
L 179.04712 -43.07227 
L 178.710969 -42.293222 
L 178.40198 -41.514173 
L 178.094097 -40.735125 
L 177.771471 -39.956077 
L 177.435357 -39.177028 
L 177.102103 -38.39798 
L 176.792404 -37.618932 
L 176.519034 -36.839883 
L 176.281649 -36.060835 
L 176.071154 -35.281786 
L 175.878388 -34.502738 
L 175.699647 -33.72369 
L 175.536085 -32.944641 
L 175.389811 -32.165593 
L 175.261232 -31.386545 
L 175.149283 -30.607496 
L 175.052874 -29.828448 
L 174.971453 -29.049399 
L 174.9044 -28.270351 
L 174.850301 -27.491303 
L 174.8069 -26.712254 
L 174.771655 -25.933206 
L 174.742395 -25.154158 
L 174.717586 -24.375109 
L 174.696036 -23.596061 
L 174.676348 -22.817012 
L 174.656821 -22.037964 
L 174.636161 -21.258916 
z
"/>
    </defs>
    <g clip-path="url(#p55ee9765ed)">
     <use xlink:href="#m49c7018ea2" x="0" y="180" style="fill: #ff4500; fill-opacity: 0.5"/>
    </g>
   </g>
   <g id="PolyCollection_3">
    <defs>
     <path id="m87fadf2304" d="M 230.926179 -47.481857 
L 230.909423 -47.481857 
L 230.909423 -48.153396 
L 230.909423 -48.824934 
L 230.909423 -49.496472 
L 230.909423 -50.16801 
L 230.909423 -50.839548 
L 230.909423 -51.511086 
L 230.909423 -52.182625 
L 230.909423 -52.854163 
L 230.909423 -53.525701 
L 230.909423 -54.197239 
L 230.909423 -54.868777 
L 230.909423 -55.540315 
L 230.909423 -56.211853 
L 230.909423 -56.883392 
L 230.909423 -57.55493 
L 230.909423 -58.226468 
L 230.909423 -58.898006 
L 230.909423 -59.569544 
L 230.909423 -60.241082 
L 230.909423 -60.912621 
L 230.909423 -61.584159 
L 230.909423 -62.255697 
L 230.909423 -62.927235 
L 230.909423 -63.598773 
L 230.909423 -64.270311 
L 230.909423 -64.941849 
L 230.909423 -65.613388 
L 230.909423 -66.284926 
L 230.909423 -66.956464 
L 230.909423 -67.628002 
L 230.909423 -68.29954 
L 230.909423 -68.971078 
L 230.909423 -69.642617 
L 230.909423 -70.314155 
L 230.909423 -70.985693 
L 230.909423 -71.657231 
L 230.909423 -72.328769 
L 230.909423 -73.000307 
L 230.909423 -73.671845 
L 230.909423 -74.343384 
L 230.909423 -75.014922 
L 230.909423 -75.68646 
L 230.909423 -76.357998 
L 230.909423 -77.029536 
L 230.909423 -77.701074 
L 230.909423 -78.372613 
L 230.909423 -79.044151 
L 230.909423 -79.715689 
L 230.909423 -80.387227 
L 230.909423 -81.058765 
L 230.909423 -81.730303 
L 230.909423 -82.401841 
L 230.909423 -83.07338 
L 230.909423 -83.744918 
L 230.909423 -84.416456 
L 230.909423 -85.087994 
L 230.909423 -85.759532 
L 230.909423 -86.43107 
L 230.909423 -87.102609 
L 230.909423 -87.774147 
L 230.909423 -88.445685 
L 230.909423 -89.117223 
L 230.909423 -89.788761 
L 230.909423 -90.460299 
L 230.909423 -91.131837 
L 230.909423 -91.803376 
L 230.909423 -92.474914 
L 230.909423 -93.146452 
L 230.909423 -93.81799 
L 230.909423 -94.489528 
L 230.909423 -95.161066 
L 230.909423 -95.832605 
L 230.909423 -96.504143 
L 230.909423 -97.175681 
L 230.909423 -97.847219 
L 230.909423 -98.518757 
L 230.909423 -99.190295 
L 230.909423 -99.861833 
L 230.909423 -100.533372 
L 230.909423 -101.20491 
L 230.909423 -101.876448 
L 230.909423 -102.547986 
L 230.909423 -103.219524 
L 230.909423 -103.891062 
L 230.909423 -104.562601 
L 230.909423 -105.234139 
L 230.909423 -105.905677 
L 230.909423 -106.577215 
L 230.909423 -107.248753 
L 230.909423 -107.920291 
L 230.909423 -108.591829 
L 230.909423 -109.263368 
L 230.909423 -109.934906 
L 230.909423 -110.606444 
L 230.909423 -111.277982 
L 230.909423 -111.94952 
L 230.909423 -112.621058 
L 230.909423 -113.292597 
L 230.909423 -113.964135 
L 230.942426 -113.964135 
L 230.942426 -113.964135 
L 230.946712 -113.292597 
L 230.95068 -112.621058 
L 230.957353 -111.94952 
L 230.966517 -111.277982 
L 230.974237 -110.606444 
L 230.977066 -109.934906 
L 230.976396 -109.263368 
L 230.978347 -108.591829 
L 230.98984 -107.920291 
L 231.015139 -107.248753 
L 231.055618 -106.577215 
L 231.111626 -105.905677 
L 231.183402 -105.234139 
L 231.26975 -104.562601 
L 231.366736 -103.891062 
L 231.468974 -103.219524 
L 231.573307 -102.547986 
L 231.683833 -101.876448 
L 231.816662 -101.20491 
L 231.998116 -100.533372 
L 232.250495 -99.861833 
L 232.573517 -99.190295 
L 232.940401 -98.518757 
L 233.316098 -97.847219 
L 233.682839 -97.175681 
L 234.049766 -96.504143 
L 234.438373 -95.832605 
L 234.860447 -95.161066 
L 235.312444 -94.489528 
L 235.789028 -93.81799 
L 236.297243 -93.146452 
L 236.858033 -92.474914 
L 237.49776 -91.803376 
L 238.234011 -91.131837 
L 239.056407 -90.460299 
L 239.914062 -89.788761 
L 240.730158 -89.117223 
L 241.441772 -88.445685 
L 242.031843 -87.774147 
L 242.528976 -87.102609 
L 242.986246 -86.43107 
L 243.455033 -85.759532 
L 243.952833 -85.087994 
L 244.436768 -84.416456 
L 244.81516 -83.744918 
L 245 -83.07338 
L 244.956723 -82.401841 
L 244.715846 -81.730303 
L 244.351743 -81.058765 
L 243.945494 -80.387227 
L 243.543909 -79.715689 
L 243.138903 -79.044151 
L 242.690096 -78.372613 
L 242.171981 -77.701074 
L 241.596481 -77.029536 
L 240.993114 -76.357998 
L 240.379888 -75.68646 
L 239.758334 -75.014922 
L 239.126832 -74.343384 
L 238.488414 -73.671845 
L 237.846356 -73.000307 
L 237.199299 -72.328769 
L 236.545753 -71.657231 
L 235.893471 -70.985693 
L 235.261068 -70.314155 
L 234.667567 -69.642617 
L 234.120612 -68.971078 
L 233.616815 -68.29954 
L 233.153935 -67.628002 
L 232.740629 -66.956464 
L 232.392895 -66.284926 
L 232.121868 -65.613388 
L 231.925162 -64.941849 
L 231.787523 -64.270311 
L 231.68775 -63.598773 
L 231.60661 -62.927235 
L 231.532319 -62.255697 
L 231.460819 -61.584159 
L 231.390453 -60.912621 
L 231.317463 -60.241082 
L 231.239169 -59.569544 
L 231.160421 -58.898006 
L 231.092748 -58.226468 
L 231.045397 -57.55493 
L 231.017848 -56.883392 
L 231.000939 -56.211853 
L 230.98461 -55.540315 
L 230.964903 -54.868777 
L 230.944691 -54.197239 
L 230.929061 -53.525701 
L 230.920777 -52.854163 
L 230.9192 -52.182625 
L 230.921593 -51.511086 
L 230.924808 -50.839548 
L 230.926763 -50.16801 
L 230.927255 -49.496472 
L 230.927257 -48.824934 
L 230.927177 -48.153396 
L 230.926179 -47.481857 
z
"/>
    </defs>
    <g clip-path="url(#p55ee9765ed)">
     <use xlink:href="#m87fadf2304" x="0" y="180" style="fill: #ff4500; fill-opacity: 0.5"/>
    </g>
   </g>
   <g id="PolyCollection_4">
    <defs>
     <path id="m6881fb25df" d="M 287.32654 -45.171417 
L 287.273336 -45.171417 
L 287.273336 -45.877333 
L 287.273336 -46.583248 
L 287.273336 -47.289163 
L 287.273336 -47.995079 
L 287.273336 -48.700994 
L 287.273336 -49.406909 
L 287.273336 -50.112825 
L 287.273336 -50.81874 
L 287.273336 -51.524655 
L 287.273336 -52.230571 
L 287.273336 -52.936486 
L 287.273336 -53.642401 
L 287.273336 -54.348317 
L 287.273336 -55.054232 
L 287.273336 -55.760148 
L 287.273336 -56.466063 
L 287.273336 -57.171978 
L 287.273336 -57.877894 
L 287.273336 -58.583809 
L 287.273336 -59.289724 
L 287.273336 -59.99564 
L 287.273336 -60.701555 
L 287.273336 -61.40747 
L 287.273336 -62.113386 
L 287.273336 -62.819301 
L 287.273336 -63.525216 
L 287.273336 -64.231132 
L 287.273336 -64.937047 
L 287.273336 -65.642962 
L 287.273336 -66.348878 
L 287.273336 -67.054793 
L 287.273336 -67.760708 
L 287.273336 -68.466624 
L 287.273336 -69.172539 
L 287.273336 -69.878454 
L 287.273336 -70.58437 
L 287.273336 -71.290285 
L 287.273336 -71.9962 
L 287.273336 -72.702116 
L 287.273336 -73.408031 
L 287.273336 -74.113947 
L 287.273336 -74.819862 
L 287.273336 -75.525777 
L 287.273336 -76.231693 
L 287.273336 -76.937608 
L 287.273336 -77.643523 
L 287.273336 -78.349439 
L 287.273336 -79.055354 
L 287.273336 -79.761269 
L 287.273336 -80.467185 
L 287.273336 -81.1731 
L 287.273336 -81.879015 
L 287.273336 -82.584931 
L 287.273336 -83.290846 
L 287.273336 -83.996761 
L 287.273336 -84.702677 
L 287.273336 -85.408592 
L 287.273336 -86.114507 
L 287.273336 -86.820423 
L 287.273336 -87.526338 
L 287.273336 -88.232253 
L 287.273336 -88.938169 
L 287.273336 -89.644084 
L 287.273336 -90.349999 
L 287.273336 -91.055915 
L 287.273336 -91.76183 
L 287.273336 -92.467746 
L 287.273336 -93.173661 
L 287.273336 -93.879576 
L 287.273336 -94.585492 
L 287.273336 -95.291407 
L 287.273336 -95.997322 
L 287.273336 -96.703238 
L 287.273336 -97.409153 
L 287.273336 -98.115068 
L 287.273336 -98.820984 
L 287.273336 -99.526899 
L 287.273336 -100.232814 
L 287.273336 -100.93873 
L 287.273336 -101.644645 
L 287.273336 -102.35056 
L 287.273336 -103.056476 
L 287.273336 -103.762391 
L 287.273336 -104.468306 
L 287.273336 -105.174222 
L 287.273336 -105.880137 
L 287.273336 -106.586052 
L 287.273336 -107.291968 
L 287.273336 -107.997883 
L 287.273336 -108.703798 
L 287.273336 -109.409714 
L 287.273336 -110.115629 
L 287.273336 -110.821545 
L 287.273336 -111.52746 
L 287.273336 -112.233375 
L 287.273336 -112.939291 
L 287.273336 -113.645206 
L 287.273336 -114.351121 
L 287.273336 -115.057037 
L 287.288588 -115.057037 
L 287.288588 -115.057037 
L 287.28805 -114.351121 
L 287.286716 -113.645206 
L 287.287074 -112.939291 
L 287.291799 -112.233375 
L 287.302789 -111.52746 
L 287.320688 -110.821545 
L 287.344904 -110.115629 
L 287.37389 -109.409714 
L 287.405565 -108.703798 
L 287.437815 -107.997883 
L 287.468942 -107.291968 
L 287.497908 -106.586052 
L 287.524442 -105.880137 
L 287.549433 -105.174222 
L 287.575772 -104.468306 
L 287.608951 -103.762391 
L 287.656417 -103.056476 
L 287.72538 -102.35056 
L 287.820352 -101.644645 
L 287.942695 -100.93873 
L 288.092969 -100.232814 
L 288.273247 -99.526899 
L 288.48596 -98.820984 
L 288.73081 -98.115068 
L 289.00523 -97.409153 
L 289.309982 -96.703238 
L 289.653792 -95.997322 
L 290.049514 -95.291407 
L 290.502233 -94.585492 
L 290.999269 -93.879576 
L 291.513122 -93.173661 
L 292.018287 -92.467746 
L 292.509588 -91.76183 
L 293.006312 -91.055915 
L 293.538988 -90.349999 
L 294.132006 -89.644084 
L 294.795482 -88.938169 
L 295.524433 -88.232253 
L 296.295728 -87.526338 
L 297.064021 -86.820423 
L 297.769113 -86.114507 
L 298.360008 -85.408592 
L 298.821125 -84.702677 
L 299.177082 -83.996761 
L 299.469536 -83.290846 
L 299.728157 -82.584931 
L 299.963198 -81.879015 
L 300.180392 -81.1731 
L 300.394293 -80.467185 
L 300.623126 -79.761269 
L 300.871219 -79.055354 
L 301.114444 -78.349439 
L 301.299741 -77.643523 
L 301.363636 -76.937608 
L 301.263347 -76.231693 
L 300.998766 -75.525777 
L 300.606054 -74.819862 
L 300.129251 -74.113947 
L 299.594925 -73.408031 
L 299.006035 -72.702116 
L 298.353396 -71.9962 
L 297.635564 -71.290285 
L 296.874499 -70.58437 
L 296.113503 -69.878454 
L 295.396975 -69.172539 
L 294.749946 -68.466624 
L 294.174441 -67.760708 
L 293.659452 -67.054793 
L 293.189383 -66.348878 
L 292.74537 -65.642962 
L 292.306801 -64.937047 
L 291.858369 -64.231132 
L 291.397527 -63.525216 
L 290.934981 -62.819301 
L 290.488096 -62.113386 
L 290.07275 -61.40747 
L 289.698531 -60.701555 
L 289.368783 -59.99564 
L 289.08331 -59.289724 
L 288.839757 -58.583809 
L 288.632402 -57.877894 
L 288.452125 -57.171978 
L 288.290625 -56.466063 
L 288.14507 -55.760148 
L 288.016957 -55.054232 
L 287.906056 -54.348317 
L 287.807048 -53.642401 
L 287.71309 -52.936486 
L 287.621913 -52.230571 
L 287.537542 -51.524655 
L 287.466384 -50.81874 
L 287.412291 -50.112825 
L 287.374927 -49.406909 
L 287.35138 -48.700994 
L 287.338346 -47.995079 
L 287.33286 -47.289163 
L 287.331682 -46.583248 
L 287.330819 -45.877333 
L 287.32654 -45.171417 
z
"/>
    </defs>
    <g clip-path="url(#p55ee9765ed)">
     <use xlink:href="#m6881fb25df" x="0" y="180" style="fill: #ff4500; fill-opacity: 0.5"/>
    </g>
   </g>
   <g id="matplotlib.axis_1">
    <g id="xtick_1">
     <g id="line2d_1">
      <defs>
       <path id="m7ff68a3308" d="M 0 0 
L 0 3.5 
" style="stroke: #000000; stroke-width: 0.8"/>
      </defs>
      <g>
       <use xlink:href="#m7ff68a3308" x="118.181818" y="160.2" style="stroke: #000000; stroke-width: 0.8"/>
      </g>
     </g>
     <g id="text_1">
      <text style="font: 12px 'inter', sans-serif" transform="translate(87.166789 240.360361) rotate(-45)">Trh&gt;Brain-CsCh</text>
     </g>
    </g>
    <g id="xtick_2">
     <g id="line2d_2">
      <g>
       <use xlink:href="#m7ff68a3308" x="174.545455" y="160.2" style="stroke: #000000; stroke-width: 0.8"/>
      </g>
     </g>
     <g id="text_2">
      <text style="font: 12px 'inter', sans-serif" transform="translate(145.61396 236.193293) rotate(-45)">Trh&gt;VNC-CsCh</text>
     </g>
    </g>
    <g id="xtick_3">
     <g id="line2d_3">
      <g>
       <use xlink:href="#m7ff68a3308" x="230.909091" y="160.2" style="stroke: #000000; stroke-width: 0.8"/>
      </g>
     </g>
     <g id="text_3">
      <text style="font: 12px 'inter', sans-serif" transform="translate(204.962029 230.224427) rotate(-45)">SXVNC1&gt;Chr</text>
     </g>
    </g>
    <g id="xtick_4">
     <g id="line2d_4">
      <g>
       <use xlink:href="#m7ff68a3308" x="287.272727" y="160.2" style="stroke: #000000; stroke-width: 0.8"/>
      </g>
     </g>
     <g id="text_4">
      <text style="font: 12px 'inter', sans-serif" transform="translate(261.325665 230.224427) rotate(-45)">SXVNC2&gt;Chr</text>
     </g>
    </g>
   </g>
   <g id="matplotlib.axis_2">
    <g id="ytick_1">
     <g id="line2d_5">
      <defs>
       <path id="m33e17a366a" d="M 0 0 
L -3.5 0 
" style="stroke: #000000; stroke-width: 0.8"/>
      </defs>
      <g>
       <use xlink:href="#m33e17a366a" x="90" y="146.34" style="stroke: #000000; stroke-width: 0.8"/>
      </g>
     </g>
     <g id="text_5">
      <text style="font: 12px 'inter', sans-serif; text-anchor: end" x="83" y="150.899063" transform="rotate(-0 83 150.899063)">−2</text>
     </g>
    </g>
    <g id="ytick_2">
     <g id="line2d_6">
      <g>
       <use xlink:href="#m33e17a366a" x="90" y="118.62" style="stroke: #000000; stroke-width: 0.8"/>
      </g>
     </g>
     <g id="text_6">
      <text style="font: 12px 'inter', sans-serif; text-anchor: end" x="83" y="123.179063" transform="rotate(-0 83 123.179063)">−1</text>
     </g>
    </g>
    <g id="ytick_3">
     <g id="line2d_7">
      <g>
       <use xlink:href="#m33e17a366a" x="90" y="90.9" style="stroke: #000000; stroke-width: 0.8"/>
      </g>
     </g>
     <g id="text_7">
      <text style="font: 12px 'inter', sans-serif; text-anchor: end" x="83" y="95.459062" transform="rotate(-0 83 95.459062)">0</text>
     </g>
    </g>
    <g id="ytick_4">
     <g id="line2d_8">
      <g>
       <use xlink:href="#m33e17a366a" x="90" y="63.18" style="stroke: #000000; stroke-width: 0.8"/>
      </g>
     </g>
     <g id="text_8">
      <text style="font: 12px 'inter', sans-serif; text-anchor: end" x="83" y="67.739062" transform="rotate(-0 83 67.739062)">1</text>
     </g>
    </g>
    <g id="ytick_5">
     <g id="line2d_9">
      <g>
       <use xlink:href="#m33e17a366a" x="90" y="35.46" style="stroke: #000000; stroke-width: 0.8"/>
      </g>
     </g>
     <g id="text_9">
      <text style="font: 12px 'inter', sans-serif; text-anchor: end" x="83" y="40.019062" transform="rotate(-0 83 40.019062)">2</text>
     </g>
    </g>
    <g id="text_10">
     <!-- $\Delta\Delta$ Volume -->
     <g transform="translate(58.81375 123.84) rotate(-90)">
      <text>
       <tspan style="font: 12px 'DejaVu Sans'" x="0 8.208984 16.417969 20.232422 28.441406 35.783203 39.117188 46.722656 58.412109" y="-0.875">ΔΔ Volume</tspan>
      </text>
     </g>
    </g>
   </g>
   <g id="line2d_10">
    <path d="M 61.818182 90.9 
L 343.636364 90.9 
" clip-path="url(#p55ee9765ed)" style="fill: none; stroke: #000000; stroke-linecap: square"/>
   </g>
   <g id="line2d_11">
    <defs>
     <path id="mb5624fd104" d="M 0 5 
C 1.326016 5 2.597899 4.473168 3.535534 3.535534 
C 4.473168 2.597899 5 1.326016 5 0 
C 5 -1.326016 4.473168 -2.597899 3.535534 -3.535534 
C 2.597899 -4.473168 1.326016 -5 0 -5 
C -1.326016 -5 -2.597899 -4.473168 -3.535534 -3.535534 
C -4.473168 -2.597899 -5 -1.326016 -5 0 
C -5 1.326016 -4.473168 2.597899 -3.535534 3.535534 
C -2.597899 4.473168 -1.326016 5 0 5 
z
" style="stroke: #000000"/>
    </defs>
    <g clip-path="url(#p55ee9765ed)">
     <use xlink:href="#mb5624fd104" x="118.181818" y="78.830085" style="stroke: #000000"/>
    </g>
   </g>
   <g id="line2d_12">
    <path d="M 118.181818 99.008589 
L 118.181818 59.891147 
" clip-path="url(#p55ee9765ed)" style="fill: none; stroke: #000000; stroke-width: 2.5; stroke-linecap: square"/>
   </g>
   <g id="line2d_13">
    <g clip-path="url(#p55ee9765ed)">
     <use xlink:href="#mb5624fd104" x="174.545455" y="119.895779" style="stroke: #000000"/>
    </g>
   </g>
   <g id="line2d_14">
    <path d="M 174.545455 142.227146 
L 174.545455 97.47923 
" clip-path="url(#p55ee9765ed)" style="fill: none; stroke: #000000; stroke-width: 2.5; stroke-linecap: square"/>
   </g>
   <g id="line2d_15">
    <g clip-path="url(#p55ee9765ed)">
     <use xlink:href="#mb5624fd104" x="230.909091" y="97.428281" style="stroke: #000000"/>
    </g>
   </g>
   <g id="line2d_16">
    <path d="M 230.909091 112.605349 
L 230.909091 81.762973 
" clip-path="url(#p55ee9765ed)" style="fill: none; stroke: #000000; stroke-width: 2.5; stroke-linecap: square"/>
   </g>
   <g id="line2d_17">
    <g clip-path="url(#p55ee9765ed)">
     <use xlink:href="#mb5624fd104" x="287.272727" y="101.619518" style="stroke: #000000"/>
    </g>
   </g>
   <g id="line2d_18">
    <path d="M 287.272727 120.041712 
L 287.272727 83.461835 
" clip-path="url(#p55ee9765ed)" style="fill: none; stroke: #000000; stroke-width: 2.5; stroke-linecap: square"/>
   </g>
   <g id="line2d_19">
    <path d="M 160.454545 41.004 
L 301.363636 41.004 
" clip-path="url(#p55ee9765ed)" style="fill: none; stroke: #000000; stroke-width: 1.5; stroke-linecap: square"/>
   </g>
   <g id="line2d_20">
    <path d="M 104.090909 41.004 
L 132.272727 41.004 
" clip-path="url(#p55ee9765ed)" style="fill: none; stroke: #000000; stroke-width: 1.5; stroke-linecap: square"/>
   </g>
   <g id="patch_3">
    <path d="M 90 160.2 
L 90 21.6 
" style="fill: none; stroke: #000000; stroke-width: 0.8; stroke-linejoin: miter; stroke-linecap: square"/>
   </g>
   <g id="text_11">
    <text style="font: 15px 'inter', sans-serif; text-anchor: middle" x="118.181818" y="35.46" transform="rotate(-0 118.181818 35.46)">Brain</text>
   </g>
   <g id="text_12">
    <text style="font: 15px 'inter', sans-serif; text-anchor: middle" x="230.909091" y="35.46" transform="rotate(-0 230.909091 35.46)">VNC</text>
   </g>
   <g id="text_13">
    <text style="font: 16px 'inter', sans-serif; text-anchor: middle" x="216.818182" y="15.6" transform="rotate(-0 216.818182 15.6)">CsCh Effects</text>
   </g>
  </g>
  <g id="axes_2">
   <g id="patch_4">
    <path d="M 394.363636 160.2 
L 648 160.2 
L 648 21.6 
L 394.363636 21.6 
z
" style="fill: #ffffff"/>
   </g>
   <g id="PolyCollection_5">
    <defs>
     <path id="m23c0a77d61" d="M 430.714552 -13.805477 
L 430.598815 -13.805477 
L 430.598815 -14.554673 
L 430.598815 -15.30387 
L 430.598815 -16.053066 
L 430.598815 -16.802262 
L 430.598815 -17.551459 
L 430.598815 -18.300655 
L 430.598815 -19.049851 
L 430.598815 -19.799047 
L 430.598815 -20.548244 
L 430.598815 -21.29744 
L 430.598815 -22.046636 
L 430.598815 -22.795833 
L 430.598815 -23.545029 
L 430.598815 -24.294225 
L 430.598815 -25.043422 
L 430.598815 -25.792618 
L 430.598815 -26.541814 
L 430.598815 -27.291011 
L 430.598815 -28.040207 
L 430.598815 -28.789403 
L 430.598815 -29.5386 
L 430.598815 -30.287796 
L 430.598815 -31.036992 
L 430.598815 -31.786189 
L 430.598815 -32.535385 
L 430.598815 -33.284581 
L 430.598815 -34.033778 
L 430.598815 -34.782974 
L 430.598815 -35.53217 
L 430.598815 -36.281366 
L 430.598815 -37.030563 
L 430.598815 -37.779759 
L 430.598815 -38.528955 
L 430.598815 -39.278152 
L 430.598815 -40.027348 
L 430.598815 -40.776544 
L 430.598815 -41.525741 
L 430.598815 -42.274937 
L 430.598815 -43.024133 
L 430.598815 -43.77333 
L 430.598815 -44.522526 
L 430.598815 -45.271722 
L 430.598815 -46.020919 
L 430.598815 -46.770115 
L 430.598815 -47.519311 
L 430.598815 -48.268508 
L 430.598815 -49.017704 
L 430.598815 -49.7669 
L 430.598815 -50.516097 
L 430.598815 -51.265293 
L 430.598815 -52.014489 
L 430.598815 -52.763685 
L 430.598815 -53.512882 
L 430.598815 -54.262078 
L 430.598815 -55.011274 
L 430.598815 -55.760471 
L 430.598815 -56.509667 
L 430.598815 -57.258863 
L 430.598815 -58.00806 
L 430.598815 -58.757256 
L 430.598815 -59.506452 
L 430.598815 -60.255649 
L 430.598815 -61.004845 
L 430.598815 -61.754041 
L 430.598815 -62.503238 
L 430.598815 -63.252434 
L 430.598815 -64.00163 
L 430.598815 -64.750827 
L 430.598815 -65.500023 
L 430.598815 -66.249219 
L 430.598815 -66.998416 
L 430.598815 -67.747612 
L 430.598815 -68.496808 
L 430.598815 -69.246004 
L 430.598815 -69.995201 
L 430.598815 -70.744397 
L 430.598815 -71.493593 
L 430.598815 -72.24279 
L 430.598815 -72.991986 
L 430.598815 -73.741182 
L 430.598815 -74.490379 
L 430.598815 -75.239575 
L 430.598815 -75.988771 
L 430.598815 -76.737968 
L 430.598815 -77.487164 
L 430.598815 -78.23636 
L 430.598815 -78.985557 
L 430.598815 -79.734753 
L 430.598815 -80.483949 
L 430.598815 -81.233146 
L 430.598815 -81.982342 
L 430.598815 -82.731538 
L 430.598815 -83.480735 
L 430.598815 -84.229931 
L 430.598815 -84.979127 
L 430.598815 -85.728323 
L 430.598815 -86.47752 
L 430.598815 -87.226716 
L 430.598815 -87.975912 
L 430.649731 -87.975912 
L 430.649731 -87.975912 
L 430.658492 -87.226716 
L 430.663253 -86.47752 
L 430.664454 -85.728323 
L 430.664006 -84.979127 
L 430.664919 -84.229931 
L 430.670941 -83.480735 
L 430.686212 -82.731538 
L 430.714777 -81.982342 
L 430.759684 -81.233146 
L 430.821684 -80.483949 
L 430.898255 -79.734753 
L 430.984382 -78.985557 
L 431.075617 -78.23636 
L 431.171703 -77.487164 
L 431.277353 -76.737968 
L 431.398443 -75.988771 
L 431.536043 -75.239575 
L 431.683637 -74.490379 
L 431.83094 -73.741182 
L 431.972052 -72.991986 
L 432.111678 -72.24279 
L 432.264926 -71.493593 
L 432.451383 -70.744397 
L 432.687474 -69.995201 
L 432.98072 -69.246004 
L 433.328604 -68.496808 
L 433.724139 -67.747612 
L 434.16647 -66.998416 
L 434.668086 -66.249219 
L 435.248716 -65.500023 
L 435.915966 -64.750827 
L 436.647037 -64.00163 
L 437.389473 -63.252434 
L 438.085532 -62.503238 
L 438.704493 -61.754041 
L 439.258266 -61.004845 
L 439.788248 -60.255649 
L 440.335354 -59.506452 
L 440.917609 -58.757256 
L 441.529623 -58.00806 
L 442.158465 -57.258863 
L 442.799992 -56.509667 
L 443.462174 -55.760471 
L 444.151741 -55.011274 
L 444.854142 -54.262078 
L 445.527444 -53.512882 
L 446.122959 -52.763685 
L 446.61876 -52.014489 
L 447.034625 -51.265293 
L 447.412688 -50.516097 
L 447.781422 -49.7669 
L 448.133958 -49.017704 
L 448.434033 -48.268508 
L 448.638052 -47.519311 
L 448.714286 -46.770115 
L 448.650155 -46.020919 
L 448.451257 -45.271722 
L 448.139689 -44.522526 
L 447.753221 -43.77333 
L 447.338856 -43.024133 
L 446.934497 -42.274937 
L 446.544246 -41.525741 
L 446.126314 -40.776544 
L 445.610261 -40.027348 
L 444.937878 -39.278152 
L 444.099266 -38.528955 
L 443.13793 -37.779759 
L 442.124705 -37.030563 
L 441.123324 -36.281366 
L 440.170163 -35.53217 
L 439.274116 -34.782974 
L 438.42879 -34.033778 
L 437.626723 -33.284581 
L 436.868792 -32.535385 
L 436.165477 -31.786189 
L 435.530351 -31.036992 
L 434.970816 -30.287796 
L 434.483096 -29.5386 
L 434.05484 -28.789403 
L 433.672277 -28.040207 
L 433.325888 -27.291011 
L 433.011129 -26.541814 
L 432.725376 -25.792618 
L 432.464713 -25.043422 
L 432.223373 -24.294225 
L 431.996302 -23.545029 
L 431.782895 -22.795833 
L 431.588799 -22.046636 
L 431.423564 -21.29744 
L 431.294831 -20.548244 
L 431.202573 -19.799047 
L 431.137342 -19.049851 
L 431.083977 -18.300655 
L 431.028643 -17.551459 
L 430.964874 -16.802262 
L 430.894902 -16.053066 
L 430.825938 -15.30387 
L 430.764752 -14.554673 
L 430.714552 -13.805477 
z
"/>
    </defs>
    <g clip-path="url(#p9baed4f7b1)">
     <use xlink:href="#m23c0a77d61" x="0" y="180" style="fill: #2e8b57; fill-opacity: 0.5"/>
    </g>
   </g>
   <g id="PolyCollection_6">
    <defs>
     <path id="me61f8e85d0" d="M 503.084512 -56.6076 
L 503.065224 -56.6076 
L 503.065224 -57.643342 
L 503.065224 -58.679085 
L 503.065224 -59.714827 
L 503.065224 -60.750569 
L 503.065224 -61.786311 
L 503.065224 -62.822053 
L 503.065224 -63.857795 
L 503.065224 -64.893537 
L 503.065224 -65.929279 
L 503.065224 -66.965021 
L 503.065224 -68.000763 
L 503.065224 -69.036505 
L 503.065224 -70.072247 
L 503.065224 -71.107989 
L 503.065224 -72.143731 
L 503.065224 -73.179474 
L 503.065224 -74.215216 
L 503.065224 -75.250958 
L 503.065224 -76.2867 
L 503.065224 -77.322442 
L 503.065224 -78.358184 
L 503.065224 -79.393926 
L 503.065224 -80.429668 
L 503.065224 -81.46541 
L 503.065224 -82.501152 
L 503.065224 -83.536894 
L 503.065224 -84.572636 
L 503.065224 -85.608378 
L 503.065224 -86.64412 
L 503.065224 -87.679863 
L 503.065224 -88.715605 
L 503.065224 -89.751347 
L 503.065224 -90.787089 
L 503.065224 -91.822831 
L 503.065224 -92.858573 
L 503.065224 -93.894315 
L 503.065224 -94.930057 
L 503.065224 -95.965799 
L 503.065224 -97.001541 
L 503.065224 -98.037283 
L 503.065224 -99.073025 
L 503.065224 -100.108767 
L 503.065224 -101.14451 
L 503.065224 -102.180252 
L 503.065224 -103.215994 
L 503.065224 -104.251736 
L 503.065224 -105.287478 
L 503.065224 -106.32322 
L 503.065224 -107.358962 
L 503.065224 -108.394704 
L 503.065224 -109.430446 
L 503.065224 -110.466188 
L 503.065224 -111.50193 
L 503.065224 -112.537672 
L 503.065224 -113.573414 
L 503.065224 -114.609156 
L 503.065224 -115.644899 
L 503.065224 -116.680641 
L 503.065224 -117.716383 
L 503.065224 -118.752125 
L 503.065224 -119.787867 
L 503.065224 -120.823609 
L 503.065224 -121.859351 
L 503.065224 -122.895093 
L 503.065224 -123.930835 
L 503.065224 -124.966577 
L 503.065224 -126.002319 
L 503.065224 -127.038061 
L 503.065224 -128.073803 
L 503.065224 -129.109545 
L 503.065224 -130.145288 
L 503.065224 -131.18103 
L 503.065224 -132.216772 
L 503.065224 -133.252514 
L 503.065224 -134.288256 
L 503.065224 -135.323998 
L 503.065224 -136.35974 
L 503.065224 -137.395482 
L 503.065224 -138.431224 
L 503.065224 -139.466966 
L 503.065224 -140.502708 
L 503.065224 -141.53845 
L 503.065224 -142.574192 
L 503.065224 -143.609935 
L 503.065224 -144.645677 
L 503.065224 -145.681419 
L 503.065224 -146.717161 
L 503.065224 -147.752903 
L 503.065224 -148.788645 
L 503.065224 -149.824387 
L 503.065224 -150.860129 
L 503.065224 -151.895871 
L 503.065224 -152.931613 
L 503.065224 -153.967355 
L 503.065224 -155.003097 
L 503.065224 -156.038839 
L 503.065224 -157.074581 
L 503.065224 -158.110324 
L 503.065224 -159.146066 
L 503.084495 -159.146066 
L 503.084495 -159.146066 
L 503.082789 -158.110324 
L 503.078617 -157.074581 
L 503.074275 -156.038839 
L 503.07212 -155.003097 
L 503.073915 -153.967355 
L 503.080886 -152.931613 
L 503.093753 -151.895871 
L 503.11221 -150.860129 
L 503.134238 -149.824387 
L 503.15623 -148.788645 
L 503.17488 -147.752903 
L 503.190309 -146.717161 
L 503.207729 -145.681419 
L 503.235123 -144.645677 
L 503.278281 -143.609935 
L 503.337733 -142.574192 
L 503.410528 -141.53845 
L 503.495132 -140.502708 
L 503.594887 -139.466966 
L 503.716716 -138.431224 
L 503.865664 -137.395482 
L 504.03945 -136.35974 
L 504.22757 -135.323998 
L 504.416638 -134.288256 
L 504.599725 -133.252514 
L 504.783704 -132.216772 
L 504.988341 -131.18103 
L 505.237144 -130.145288 
L 505.547273 -129.109545 
L 505.9252 -128.073803 
L 506.368367 -127.038061 
L 506.869092 -126.002319 
L 507.41712 -124.966577 
L 507.999655 -123.930835 
L 508.60133 -122.895093 
L 509.207109 -121.859351 
L 509.807217 -120.823609 
L 510.40087 -119.787867 
L 510.997266 -118.752125 
L 511.612836 -117.716383 
L 512.263636 -116.680641 
L 512.956032 -115.644899 
L 513.682873 -114.609156 
L 514.428449 -113.573414 
L 515.177379 -112.537672 
L 515.919657 -111.50193 
L 516.6492 -110.466188 
L 517.360571 -109.430446 
L 518.049506 -108.394704 
L 518.714739 -107.358962 
L 519.353341 -106.32322 
L 519.950544 -105.287478 
L 520.47518 -104.251736 
L 520.885063 -103.215994 
L 521.134579 -102.180252 
L 521.181818 -101.14451 
L 521.002747 -100.108767 
L 520.610855 -99.073025 
L 520.063766 -98.037283 
L 519.442618 -97.001541 
L 518.815187 -95.965799 
L 518.210066 -94.930057 
L 517.617876 -93.894315 
L 517.010428 -92.858573 
L 516.358722 -91.822831 
L 515.642147 -90.787089 
L 514.853793 -89.751347 
L 514.004694 -88.715605 
L 513.121992 -87.679863 
L 512.238125 -86.64412 
L 511.377868 -85.608378 
L 510.553147 -84.572636 
L 509.767877 -83.536894 
L 509.026032 -82.501152 
L 508.334071 -81.46541 
L 507.694555 -80.429668 
L 507.098001 -79.393926 
L 506.525349 -78.358184 
L 505.963834 -77.322442 
L 505.422099 -76.2867 
L 504.928452 -75.250958 
L 504.513421 -74.215216 
L 504.191946 -73.179474 
L 503.956939 -72.143731 
L 503.784845 -71.107989 
L 503.647895 -70.072247 
L 503.526192 -69.036505 
L 503.413109 -68.000763 
L 503.311955 -66.965021 
L 503.228455 -65.929279 
L 503.165431 -64.893537 
L 503.121925 -63.857795 
L 503.094765 -62.822053 
L 503.080177 -61.786311 
L 503.074657 -60.750569 
L 503.07518 -59.714827 
L 503.078897 -58.679085 
L 503.082863 -57.643342 
L 503.084512 -56.6076 
z
"/>
    </defs>
    <g clip-path="url(#p9baed4f7b1)">
     <use xlink:href="#me61f8e85d0" x="0" y="180" style="fill: #2e8b57; fill-opacity: 0.5"/>
    </g>
   </g>
   <g id="PolyCollection_7">
    <defs>
     <path id="m11093c1c75" d="M 575.571239 -44.081141 
L 575.533012 -44.081141 
L 575.533012 -45.149266 
L 575.533012 -46.217391 
L 575.533012 -47.285516 
L 575.533012 -48.353641 
L 575.533012 -49.421765 
L 575.533012 -50.48989 
L 575.533012 -51.558015 
L 575.533012 -52.62614 
L 575.533012 -53.694265 
L 575.533012 -54.76239 
L 575.533012 -55.830514 
L 575.533012 -56.898639 
L 575.533012 -57.966764 
L 575.533012 -59.034889 
L 575.533012 -60.103014 
L 575.533012 -61.171138 
L 575.533012 -62.239263 
L 575.533012 -63.307388 
L 575.533012 -64.375513 
L 575.533012 -65.443638 
L 575.533012 -66.511763 
L 575.533012 -67.579887 
L 575.533012 -68.648012 
L 575.533012 -69.716137 
L 575.533012 -70.784262 
L 575.533012 -71.852387 
L 575.533012 -72.920512 
L 575.533012 -73.988636 
L 575.533012 -75.056761 
L 575.533012 -76.124886 
L 575.533012 -77.193011 
L 575.533012 -78.261136 
L 575.533012 -79.32926 
L 575.533012 -80.397385 
L 575.533012 -81.46551 
L 575.533012 -82.533635 
L 575.533012 -83.60176 
L 575.533012 -84.669885 
L 575.533012 -85.738009 
L 575.533012 -86.806134 
L 575.533012 -87.874259 
L 575.533012 -88.942384 
L 575.533012 -90.010509 
L 575.533012 -91.078634 
L 575.533012 -92.146758 
L 575.533012 -93.214883 
L 575.533012 -94.283008 
L 575.533012 -95.351133 
L 575.533012 -96.419258 
L 575.533012 -97.487383 
L 575.533012 -98.555507 
L 575.533012 -99.623632 
L 575.533012 -100.691757 
L 575.533012 -101.759882 
L 575.533012 -102.828007 
L 575.533012 -103.896131 
L 575.533012 -104.964256 
L 575.533012 -106.032381 
L 575.533012 -107.100506 
L 575.533012 -108.168631 
L 575.533012 -109.236756 
L 575.533012 -110.30488 
L 575.533012 -111.373005 
L 575.533012 -112.44113 
L 575.533012 -113.509255 
L 575.533012 -114.57738 
L 575.533012 -115.645505 
L 575.533012 -116.713629 
L 575.533012 -117.781754 
L 575.533012 -118.849879 
L 575.533012 -119.918004 
L 575.533012 -120.986129 
L 575.533012 -122.054254 
L 575.533012 -123.122378 
L 575.533012 -124.190503 
L 575.533012 -125.258628 
L 575.533012 -126.326753 
L 575.533012 -127.394878 
L 575.533012 -128.463002 
L 575.533012 -129.531127 
L 575.533012 -130.599252 
L 575.533012 -131.667377 
L 575.533012 -132.735502 
L 575.533012 -133.803627 
L 575.533012 -134.871751 
L 575.533012 -135.939876 
L 575.533012 -137.008001 
L 575.533012 -138.076126 
L 575.533012 -139.144251 
L 575.533012 -140.212376 
L 575.533012 -141.2805 
L 575.533012 -142.348625 
L 575.533012 -143.41675 
L 575.533012 -144.484875 
L 575.533012 -145.553 
L 575.533012 -146.621125 
L 575.533012 -147.689249 
L 575.533012 -148.757374 
L 575.533012 -149.825499 
L 575.565518 -149.825499 
L 575.565518 -149.825499 
L 575.569572 -148.757374 
L 575.571052 -147.689249 
L 575.572967 -146.621125 
L 575.580551 -145.553 
L 575.598721 -144.484875 
L 575.628417 -143.41675 
L 575.664523 -142.348625 
L 575.698102 -141.2805 
L 575.722256 -140.212376 
L 575.736671 -139.144251 
L 575.746326 -138.076126 
L 575.755959 -137.008001 
L 575.766638 -135.939876 
L 575.77819 -134.871751 
L 575.794385 -133.803627 
L 575.824851 -132.735502 
L 575.881078 -131.667377 
L 575.969439 -130.599252 
L 576.086931 -129.531127 
L 576.223564 -128.463002 
L 576.370592 -127.394878 
L 576.529802 -126.326753 
L 576.717316 -125.258628 
L 576.956802 -124.190503 
L 577.263475 -123.122378 
L 577.629926 -122.054254 
L 578.027308 -120.986129 
L 578.423131 -119.918004 
L 578.799877 -118.849879 
L 579.157082 -117.781754 
L 579.498377 -116.713629 
L 579.823417 -115.645505 
L 580.139343 -114.57738 
L 580.480933 -113.509255 
L 580.912388 -112.44113 
L 581.497071 -111.373005 
L 582.252568 -110.30488 
L 583.126957 -109.236756 
L 584.020849 -108.168631 
L 584.84565 -107.100506 
L 585.577233 -106.032381 
L 586.263805 -104.964256 
L 586.982361 -103.896131 
L 587.779717 -102.828007 
L 588.644295 -101.759882 
L 589.5257 -100.691757 
L 590.377263 -99.623632 
L 591.178882 -98.555507 
L 591.921098 -97.487383 
L 592.575006 -96.419258 
L 593.08956 -95.351133 
L 593.426163 -94.283008 
L 593.594649 -93.214883 
L 593.649351 -92.146758 
L 593.64605 -91.078634 
L 593.600788 -90.010509 
L 593.486821 -88.942384 
L 593.268723 -87.874259 
L 592.942408 -86.806134 
L 592.546217 -85.738009 
L 592.129268 -84.669885 
L 591.699756 -83.60176 
L 591.201903 -82.533635 
L 590.552022 -81.46551 
L 589.70749 -80.397385 
L 588.706021 -79.32926 
L 587.641273 -78.261136 
L 586.60268 -77.193011 
L 585.633385 -76.124886 
L 584.730705 -75.056761 
L 583.872734 -73.988636 
L 583.043503 -72.920512 
L 582.243799 -71.852387 
L 581.489117 -70.784262 
L 580.799667 -69.716137 
L 580.187816 -68.648012 
L 579.650672 -67.579887 
L 579.173816 -66.511763 
L 578.742609 -65.443638 
L 578.349703 -64.375513 
L 577.991917 -63.307388 
L 577.662486 -62.239263 
L 577.350226 -61.171138 
L 577.048297 -60.103014 
L 576.762701 -59.034889 
L 576.509853 -57.966764 
L 576.304383 -56.898639 
L 576.14876 -55.830514 
L 576.033672 -54.76239 
L 575.946401 -53.694265 
L 575.877528 -52.62614 
L 575.821131 -51.558015 
L 575.772183 -50.48989 
L 575.726449 -49.421765 
L 575.682668 -48.353641 
L 575.643113 -47.285516 
L 575.61104 -46.217391 
L 575.587613 -45.149266 
L 575.571239 -44.081141 
z
"/>
    </defs>
    <g clip-path="url(#p9baed4f7b1)">
     <use xlink:href="#m11093c1c75" x="0" y="180" style="fill: #2e8b57; fill-opacity: 0.5"/>
    </g>
   </g>
   <g id="matplotlib.axis_3">
    <g id="xtick_5">
     <g id="line2d_21">
      <g>
       <use xlink:href="#m7ff68a3308" x="430.597403" y="160.2" style="stroke: #000000; stroke-width: 0.8"/>
      </g>
     </g>
     <g id="text_14">
      <text style="font: 12px 'inter', sans-serif" transform="translate(401.14751 237.230088) rotate(-45)">Trh&gt;VNC-ACR1</text>
     </g>
    </g>
    <g id="xtick_6">
     <g id="line2d_22">
      <g>
       <use xlink:href="#m7ff68a3308" x="503.064935" y="160.2" style="stroke: #000000; stroke-width: 0.8"/>
      </g>
     </g>
     <g id="text_15">
      <text style="font: 12px 'inter', sans-serif" transform="translate(473.075432 238.30931) rotate(-45)">SXVNC1&gt;ACR1</text>
     </g>
    </g>
    <g id="xtick_7">
     <g id="line2d_23">
      <g>
       <use xlink:href="#m7ff68a3308" x="575.532468" y="160.2" style="stroke: #000000; stroke-width: 0.8"/>
      </g>
     </g>
     <g id="text_16">
      <text style="font: 12px 'inter', sans-serif" transform="translate(545.542964 238.30931) rotate(-45)">SXVNC2&gt;ACR1</text>
     </g>
    </g>
   </g>
   <g id="matplotlib.axis_4">
    <g id="ytick_6">
     <g id="line2d_24">
      <g>
       <use xlink:href="#m33e17a366a" x="394.363636" y="146.34" style="stroke: #000000; stroke-width: 0.8"/>
      </g>
     </g>
     <g id="text_17">
      <text style="font: 12px 'inter', sans-serif; text-anchor: end" x="387.363636" y="150.899063" transform="rotate(-0 387.363636 150.899063)">−2</text>
     </g>
    </g>
    <g id="ytick_7">
     <g id="line2d_25">
      <g>
       <use xlink:href="#m33e17a366a" x="394.363636" y="118.62" style="stroke: #000000; stroke-width: 0.8"/>
      </g>
     </g>
     <g id="text_18">
      <text style="font: 12px 'inter', sans-serif; text-anchor: end" x="387.363636" y="123.179063" transform="rotate(-0 387.363636 123.179063)">−1</text>
     </g>
    </g>
    <g id="ytick_8">
     <g id="line2d_26">
      <g>
       <use xlink:href="#m33e17a366a" x="394.363636" y="90.9" style="stroke: #000000; stroke-width: 0.8"/>
      </g>
     </g>
     <g id="text_19">
      <text style="font: 12px 'inter', sans-serif; text-anchor: end" x="387.363636" y="95.459062" transform="rotate(-0 387.363636 95.459062)">0</text>
     </g>
    </g>
    <g id="ytick_9">
     <g id="line2d_27">
      <g>
       <use xlink:href="#m33e17a366a" x="394.363636" y="63.18" style="stroke: #000000; stroke-width: 0.8"/>
      </g>
     </g>
     <g id="text_20">
      <text style="font: 12px 'inter', sans-serif; text-anchor: end" x="387.363636" y="67.739062" transform="rotate(-0 387.363636 67.739062)">1</text>
     </g>
    </g>
    <g id="ytick_10">
     <g id="line2d_28">
      <g>
       <use xlink:href="#m33e17a366a" x="394.363636" y="35.46" style="stroke: #000000; stroke-width: 0.8"/>
      </g>
     </g>
     <g id="text_21">
      <text style="font: 12px 'inter', sans-serif; text-anchor: end" x="387.363636" y="40.019062" transform="rotate(-0 387.363636 40.019062)">2</text>
     </g>
    </g>
    <g id="text_22">
     <!-- $\Delta\Delta$ Volume -->
     <g transform="translate(363.177386 123.84) rotate(-90)">
      <text>
       <tspan style="font: 12px 'DejaVu Sans'" x="0 8.208984 16.417969 20.232422 28.441406 35.783203 39.117188 46.722656 58.412109" y="-0.875">ΔΔ Volume</tspan>
      </text>
     </g>
    </g>
   </g>
   <g id="line2d_29">
    <path d="M 358.12987 90.9 
L 648 90.9 
" clip-path="url(#p9baed4f7b1)" style="fill: none; stroke: #000000; stroke-linecap: square"/>
   </g>
   <g id="line2d_30">
    <g clip-path="url(#p9baed4f7b1)">
     <use xlink:href="#mb5624fd104" x="430.597403" y="132.119473" style="stroke: #000000"/>
    </g>
   </g>
   <g id="line2d_31">
    <path d="M 430.597403 151.918723 
L 430.597403 109.638005 
" clip-path="url(#p9baed4f7b1)" style="fill: none; stroke: #000000; stroke-width: 2.5; stroke-linecap: square"/>
   </g>
   <g id="line2d_32">
    <g clip-path="url(#p9baed4f7b1)">
     <use xlink:href="#mb5624fd104" x="503.064935" y="77.540944" style="stroke: #000000"/>
    </g>
   </g>
   <g id="line2d_33">
    <path d="M 503.064935 101.08521 
L 503.064935 49.414955 
" clip-path="url(#p9baed4f7b1)" style="fill: none; stroke: #000000; stroke-width: 2.5; stroke-linecap: square"/>
   </g>
   <g id="line2d_34">
    <g clip-path="url(#p9baed4f7b1)">
     <use xlink:href="#mb5624fd104" x="575.532468" y="88.444612" style="stroke: #000000"/>
    </g>
   </g>
   <g id="line2d_35">
    <path d="M 575.532468 114.771876 
L 575.532468 59.243274 
" clip-path="url(#p9baed4f7b1)" style="fill: none; stroke: #000000; stroke-width: 2.5; stroke-linecap: square"/>
   </g>
   <g id="line2d_36">
    <path d="M 412.480519 41.004 
L 593.649351 41.004 
" clip-path="url(#p9baed4f7b1)" style="fill: none; stroke: #000000; stroke-width: 1.5; stroke-linecap: square"/>
   </g>
   <g id="patch_5">
    <path d="M 394.363636 160.2 
L 394.363636 21.6 
" style="fill: none; stroke: #000000; stroke-width: 0.8; stroke-linejoin: miter; stroke-linecap: square"/>
   </g>
   <g id="text_23">
    <text style="font: 15px 'inter', sans-serif; text-anchor: middle" x="503.064935" y="35.46" transform="rotate(-0 503.064935 35.46)">VNC</text>
   </g>
   <g id="text_24">
    <text style="font: 16px 'inter', sans-serif; text-anchor: middle" x="521.181818" y="15.6" transform="rotate(-0 521.181818 15.6)">ACR1 Effects</text>
   </g>
  </g>
 </g>
 <defs>
  <clipPath id="p55ee9765ed">
   <rect x="90" y="21.6" width="253.636364" height="138.6"/>
  </clipPath>
  <clipPath id="p9baed4f7b1">
   <rect x="394.363636" y="21.6" width="253.636364" height="138.6"/>
  </clipPath>
 </defs>
</svg>
