<?xml version="1.0" encoding="utf-8" standalone="no"?>
<!DOCTYPE svg PUBLIC "-//W3C//DTD SVG 1.1//EN"
  "http://www.w3.org/Graphics/SVG/1.1/DTD/svg11.dtd">
<svg xmlns:xlink="http://www.w3.org/1999/xlink" width="720pt" height="180pt" viewBox="0 0 720 180" xmlns="http://www.w3.org/2000/svg" version="1.1">
 <metadata>
  <rdf:RDF xmlns:dc="http://purl.org/dc/elements/1.1/" xmlns:cc="http://creativecommons.org/ns#" xmlns:rdf="http://www.w3.org/1999/02/22-rdf-syntax-ns#">
   <cc:Work>
    <dc:type rdf:resource="http://purl.org/dc/dcmitype/StillImage"/>
    <dc:date>2024-09-30T17:19:56.054400</dc:date>
    <dc:format>image/svg+xml</dc:format>
    <dc:creator>
     <cc:Agent>
      <dc:title>Matplotlib v3.6.3, https://matplotlib.org/</dc:title>
     </cc:Agent>
    </dc:creator>
   </cc:Work>
  </rdf:RDF>
 </metadata>
 <defs>
  <style type="text/css">*{stroke-linejoin: round; stroke-linecap: butt}</style>
 </defs>
 <g id="figure_1">
  <g id="patch_1">
   <path d="M 0 180 
L 720 180 
L 720 0 
L 0 0 
z
" style="fill: #ffffff"/>
  </g>
  <g id="axes_1">
   <g id="patch_2">
    <path d="M 90 160.2 
L 343.636364 160.2 
L 343.636364 21.6 
L 90 21.6 
z
" style="fill: #ffffff"/>
   </g>
   <g id="PolyCollection_1">
    <defs>
     <path id="maa21be04be" d="M 113.071006 -45.658946 
L 113.058048 -45.658946 
L 113.058048 -46.437811 
L 113.058048 -47.216676 
L 113.058048 -47.995541 
L 113.058048 -48.774406 
L 113.058048 -49.553271 
L 113.058048 -50.332136 
L 113.058048 -51.111001 
L 113.058048 -51.889866 
L 113.058048 -52.668731 
L 113.058048 -53.447596 
L 113.058048 -54.226461 
L 113.058048 -55.005326 
L 113.058048 -55.784191 
L 113.058048 -56.563056 
L 113.058048 -57.341921 
L 113.058048 -58.120786 
L 113.058048 -58.899651 
L 113.058048 -59.678516 
L 113.058048 -60.457381 
L 113.058048 -61.236246 
L 113.058048 -62.015111 
L 113.058048 -62.793976 
L 113.058048 -63.572841 
L 113.058048 -64.351706 
L 113.058048 -65.130571 
L 113.058048 -65.909436 
L 113.058048 -66.688301 
L 113.058048 -67.467166 
L 113.058048 -68.246031 
L 113.058048 -69.024896 
L 113.058048 -69.803761 
L 113.058048 -70.582626 
L 113.058048 -71.361491 
L 113.058048 -72.140356 
L 113.058048 -72.919221 
L 113.058048 -73.698086 
L 113.058048 -74.476951 
L 113.058048 -75.255816 
L 113.058048 -76.034681 
L 113.058048 -76.813546 
L 113.058048 -77.592411 
L 113.058048 -78.371276 
L 113.058048 -79.150141 
L 113.058048 -79.929006 
L 113.058048 -80.707871 
L 113.058048 -81.486736 
L 113.058048 -82.265601 
L 113.058048 -83.044466 
L 113.058048 -83.823331 
L 113.058048 -84.602196 
L 113.058048 -85.381061 
L 113.058048 -86.159926 
L 113.058048 -86.938791 
L 113.058048 -87.717656 
L 113.058048 -88.49652 
L 113.058048 -89.275385 
L 113.058048 -90.05425 
L 113.058048 -90.833115 
L 113.058048 -91.61198 
L 113.058048 -92.390845 
L 113.058048 -93.16971 
L 113.058048 -93.948575 
L 113.058048 -94.72744 
L 113.058048 -95.506305 
L 113.058048 -96.28517 
L 113.058048 -97.064035 
L 113.058048 -97.8429 
L 113.058048 -98.621765 
L 113.058048 -99.40063 
L 113.058048 -100.179495 
L 113.058048 -100.95836 
L 113.058048 -101.737225 
L 113.058048 -102.51609 
L 113.058048 -103.294955 
L 113.058048 -104.07382 
L 113.058048 -104.852685 
L 113.058048 -105.63155 
L 113.058048 -106.410415 
L 113.058048 -107.18928 
L 113.058048 -107.968145 
L 113.058048 -108.74701 
L 113.058048 -109.525875 
L 113.058048 -110.30474 
L 113.058048 -111.083605 
L 113.058048 -111.86247 
L 113.058048 -112.641335 
L 113.058048 -113.4202 
L 113.058048 -114.199065 
L 113.058048 -114.97793 
L 113.058048 -115.756795 
L 113.058048 -116.53566 
L 113.058048 -117.314525 
L 113.058048 -118.09339 
L 113.058048 -118.872255 
L 113.058048 -119.65112 
L 113.058048 -120.429985 
L 113.058048 -121.20885 
L 113.058048 -121.987715 
L 113.058048 -122.76658 
L 113.071389 -122.76658 
L 113.071389 -122.76658 
L 113.071318 -121.987715 
L 113.070782 -121.20885 
L 113.071639 -120.429985 
L 113.075321 -119.65112 
L 113.082224 -118.872255 
L 113.092247 -118.09339 
L 113.105898 -117.314525 
L 113.124706 -116.53566 
L 113.150343 -115.756795 
L 113.183561 -114.97793 
L 113.224566 -114.199065 
L 113.27452 -113.4202 
L 113.335567 -112.641335 
L 113.408374 -111.86247 
L 113.490797 -111.083605 
L 113.581658 -110.30474 
L 113.686344 -109.525875 
L 113.815888 -108.74701 
L 113.97829 -107.968145 
L 114.171785 -107.18928 
L 114.388124 -106.410415 
L 114.621272 -105.63155 
L 114.871333 -104.852685 
L 115.141333 -104.07382 
L 115.432282 -103.294955 
L 115.740589 -102.51609 
L 116.058474 -101.737225 
L 116.378472 -100.95836 
L 116.70185 -100.179495 
L 117.044749 -99.40063 
L 117.433578 -98.621765 
L 117.888609 -97.8429 
L 118.407042 -97.064035 
L 118.961944 -96.28517 
L 119.521282 -95.506305 
L 120.070066 -94.72744 
L 120.614338 -93.948575 
L 121.166464 -93.16971 
L 121.729089 -92.390845 
L 122.288768 -91.61198 
L 122.816633 -90.833115 
L 123.274215 -90.05425 
L 123.628101 -89.275385 
L 123.870359 -88.49652 
L 124.028976 -87.717656 
L 124.153753 -86.938791 
L 124.283528 -86.159926 
L 124.42104 -85.381061 
L 124.535801 -84.602196 
L 124.586777 -83.823331 
L 124.541565 -83.044466 
L 124.3837 -82.265601 
L 124.117353 -81.486736 
L 123.772837 -80.707871 
L 123.400876 -79.929006 
L 123.046864 -79.150141 
L 122.719213 -78.371276 
L 122.380582 -77.592411 
L 121.975363 -76.813546 
L 121.473912 -76.034681 
L 120.897072 -75.255816 
L 120.300275 -74.476951 
L 119.730705 -73.698086 
L 119.194824 -72.919221 
L 118.664521 -72.140356 
L 118.112897 -71.361491 
L 117.542655 -70.582626 
L 116.983282 -69.803761 
L 116.469015 -69.024896 
L 116.022813 -68.246031 
L 115.653254 -67.467166 
L 115.354618 -66.688301 
L 115.106237 -65.909436 
L 114.878652 -65.130571 
L 114.649219 -64.351706 
L 114.415316 -63.572841 
L 114.192082 -62.793976 
L 113.997187 -62.015111 
L 113.837707 -61.236246 
L 113.709156 -60.457381 
L 113.602867 -59.678516 
L 113.512111 -58.899651 
L 113.433193 -58.120786 
L 113.364459 -57.341921 
L 113.305741 -56.563056 
L 113.257477 -55.784191 
L 113.219051 -55.005326 
L 113.188046 -54.226461 
L 113.161467 -53.447596 
L 113.137553 -52.668731 
L 113.116271 -51.889866 
L 113.098406 -51.111001 
L 113.084564 -50.332136 
L 113.07494 -49.553271 
L 113.069468 -48.774406 
L 113.067729 -47.995541 
L 113.068613 -47.216676 
L 113.070319 -46.437811 
L 113.071006 -45.658946 
z
"/>
    </defs>
    <g clip-path="url(#p585402525a)">
     <use xlink:href="#maa21be04be" x="0" y="180" style="fill: #ff4500; fill-opacity: 0.5"/>
    </g>
   </g>
   <g id="PolyCollection_2">
    <defs>
     <path id="m3557dad8b1" d="M 159.193971 -19.081828 
L 159.173834 -19.081828 
L 159.173834 -19.754245 
L 159.173834 -20.426661 
L 159.173834 -21.099077 
L 159.173834 -21.771493 
L 159.173834 -22.443909 
L 159.173834 -23.116326 
L 159.173834 -23.788742 
L 159.173834 -24.461158 
L 159.173834 -25.133574 
L 159.173834 -25.805991 
L 159.173834 -26.478407 
L 159.173834 -27.150823 
L 159.173834 -27.823239 
L 159.173834 -28.495656 
L 159.173834 -29.168072 
L 159.173834 -29.840488 
L 159.173834 -30.512904 
L 159.173834 -31.185321 
L 159.173834 -31.857737 
L 159.173834 -32.530153 
L 159.173834 -33.202569 
L 159.173834 -33.874986 
L 159.173834 -34.547402 
L 159.173834 -35.219818 
L 159.173834 -35.892234 
L 159.173834 -36.564651 
L 159.173834 -37.237067 
L 159.173834 -37.909483 
L 159.173834 -38.581899 
L 159.173834 -39.254316 
L 159.173834 -39.926732 
L 159.173834 -40.599148 
L 159.173834 -41.271564 
L 159.173834 -41.943981 
L 159.173834 -42.616397 
L 159.173834 -43.288813 
L 159.173834 -43.961229 
L 159.173834 -44.633645 
L 159.173834 -45.306062 
L 159.173834 -45.978478 
L 159.173834 -46.650894 
L 159.173834 -47.32331 
L 159.173834 -47.995727 
L 159.173834 -48.668143 
L 159.173834 -49.340559 
L 159.173834 -50.012975 
L 159.173834 -50.685392 
L 159.173834 -51.357808 
L 159.173834 -52.030224 
L 159.173834 -52.70264 
L 159.173834 -53.375057 
L 159.173834 -54.047473 
L 159.173834 -54.719889 
L 159.173834 -55.392305 
L 159.173834 -56.064722 
L 159.173834 -56.737138 
L 159.173834 -57.409554 
L 159.173834 -58.08197 
L 159.173834 -58.754387 
L 159.173834 -59.426803 
L 159.173834 -60.099219 
L 159.173834 -60.771635 
L 159.173834 -61.444052 
L 159.173834 -62.116468 
L 159.173834 -62.788884 
L 159.173834 -63.4613 
L 159.173834 -64.133717 
L 159.173834 -64.806133 
L 159.173834 -65.478549 
L 159.173834 -66.150965 
L 159.173834 -66.823381 
L 159.173834 -67.495798 
L 159.173834 -68.168214 
L 159.173834 -68.84063 
L 159.173834 -69.513046 
L 159.173834 -70.185463 
L 159.173834 -70.857879 
L 159.173834 -71.530295 
L 159.173834 -72.202711 
L 159.173834 -72.875128 
L 159.173834 -73.547544 
L 159.173834 -74.21996 
L 159.173834 -74.892376 
L 159.173834 -75.564793 
L 159.173834 -76.237209 
L 159.173834 -76.909625 
L 159.173834 -77.582041 
L 159.173834 -78.254458 
L 159.173834 -78.926874 
L 159.173834 -79.59929 
L 159.173834 -80.271706 
L 159.173834 -80.944123 
L 159.173834 -81.616539 
L 159.173834 -82.288955 
L 159.173834 -82.961371 
L 159.173834 -83.633788 
L 159.173834 -84.306204 
L 159.173834 -84.97862 
L 159.173834 -85.651036 
L 159.189587 -85.651036 
L 159.189587 -85.651036 
L 159.191931 -84.97862 
L 159.19434 -84.306204 
L 159.197306 -83.633788 
L 159.200261 -82.961371 
L 159.202278 -82.288955 
L 159.203852 -81.616539 
L 159.20777 -80.944123 
L 159.217744 -80.271706 
L 159.235733 -79.59929 
L 159.26053 -78.926874 
L 159.289108 -78.254458 
L 159.319393 -77.582041 
L 159.351669 -76.909625 
L 159.38779 -76.237209 
L 159.430182 -75.564793 
L 159.482186 -74.892376 
L 159.548394 -74.21996 
L 159.633024 -73.547544 
L 159.737431 -72.875128 
L 159.860038 -72.202711 
L 159.99964 -71.530295 
L 160.159093 -70.857879 
L 160.345879 -70.185463 
L 160.569283 -69.513046 
L 160.836155 -68.84063 
L 161.146473 -68.168214 
L 161.48994 -67.495798 
L 161.847791 -66.823381 
L 162.203447 -66.150965 
L 162.556398 -65.478549 
L 162.926129 -64.806133 
L 163.340274 -64.133717 
L 163.817043 -63.4613 
L 164.356432 -62.788884 
L 164.943114 -62.116468 
L 165.553848 -61.444052 
L 166.164722 -60.771635 
L 166.758076 -60.099219 
L 167.326522 -59.426803 
L 167.870685 -58.754387 
L 168.392458 -58.08197 
L 168.887803 -57.409554 
L 169.341272 -56.737138 
L 169.726148 -56.064722 
L 170.014371 -55.392305 
L 170.191611 -54.719889 
L 170.267143 -54.047473 
L 170.274641 -53.375057 
L 170.265432 -52.70264 
L 170.292746 -52.030224 
L 170.387115 -51.357808 
L 170.533777 -50.685392 
L 170.668816 -50.012975 
L 170.702479 -49.340559 
L 170.560955 -48.668143 
L 170.222877 -47.995727 
L 169.726275 -47.32331 
L 169.141815 -46.650894 
L 168.533314 -45.978478 
L 167.932208 -45.306062 
L 167.337864 -44.633645 
L 166.73796 -43.961229 
L 166.131398 -43.288813 
L 165.535437 -42.616397 
L 164.973469 -41.943981 
L 164.457426 -41.271564 
L 163.980367 -40.599148 
L 163.523229 -39.926732 
L 163.069797 -39.254316 
L 162.61931 -38.581899 
L 162.18673 -37.909483 
L 161.790486 -37.237067 
L 161.440043 -36.564651 
L 161.134602 -35.892234 
L 160.869514 -35.219818 
L 160.639491 -34.547402 
L 160.436911 -33.874986 
L 160.252493 -33.202569 
L 160.080552 -32.530153 
L 159.922801 -31.857737 
L 159.786392 -31.185321 
L 159.678143 -30.512904 
L 159.599129 -29.840488 
L 159.543083 -29.168072 
L 159.499937 -28.495656 
L 159.461429 -27.823239 
L 159.424019 -27.150823 
L 159.388065 -26.478407 
L 159.355604 -25.805991 
L 159.328185 -25.133574 
L 159.305265 -24.461158 
L 159.284407 -23.788742 
L 159.263584 -23.116326 
L 159.243213 -22.443909 
L 159.225618 -21.771493 
L 159.212687 -21.099077 
L 159.204305 -20.426661 
L 159.198721 -19.754245 
L 159.193971 -19.081828 
z
"/>
    </defs>
    <g clip-path="url(#p585402525a)">
     <use xlink:href="#m3557dad8b1" x="0" y="180" style="fill: #ff4500; fill-opacity: 0.5"/>
    </g>
   </g>
   <g id="PolyCollection_3">
    <defs>
     <path id="mec08b6e94f" d="M 205.313707 -21.282135 
L 205.289606 -21.282135 
L 205.289606 -21.920111 
L 205.289606 -22.558087 
L 205.289606 -23.196062 
L 205.289606 -23.834038 
L 205.289606 -24.472013 
L 205.289606 -25.109989 
L 205.289606 -25.747965 
L 205.289606 -26.38594 
L 205.289606 -27.023916 
L 205.289606 -27.661892 
L 205.289606 -28.299867 
L 205.289606 -28.937843 
L 205.289606 -29.575818 
L 205.289606 -30.213794 
L 205.289606 -30.85177 
L 205.289606 -31.489745 
L 205.289606 -32.127721 
L 205.289606 -32.765696 
L 205.289606 -33.403672 
L 205.289606 -34.041648 
L 205.289606 -34.679623 
L 205.289606 -35.317599 
L 205.289606 -35.955574 
L 205.289606 -36.59355 
L 205.289606 -37.231526 
L 205.289606 -37.869501 
L 205.289606 -38.507477 
L 205.289606 -39.145452 
L 205.289606 -39.783428 
L 205.289606 -40.421404 
L 205.289606 -41.059379 
L 205.289606 -41.697355 
L 205.289606 -42.33533 
L 205.289606 -42.973306 
L 205.289606 -43.611282 
L 205.289606 -44.249257 
L 205.289606 -44.887233 
L 205.289606 -45.525209 
L 205.289606 -46.163184 
L 205.289606 -46.80116 
L 205.289606 -47.439135 
L 205.289606 -48.077111 
L 205.289606 -48.715087 
L 205.289606 -49.353062 
L 205.289606 -49.991038 
L 205.289606 -50.629013 
L 205.289606 -51.266989 
L 205.289606 -51.904965 
L 205.289606 -52.54294 
L 205.289606 -53.180916 
L 205.289606 -53.818891 
L 205.289606 -54.456867 
L 205.289606 -55.094843 
L 205.289606 -55.732818 
L 205.289606 -56.370794 
L 205.289606 -57.008769 
L 205.289606 -57.646745 
L 205.289606 -58.284721 
L 205.289606 -58.922696 
L 205.289606 -59.560672 
L 205.289606 -60.198647 
L 205.289606 -60.836623 
L 205.289606 -61.474599 
L 205.289606 -62.112574 
L 205.289606 -62.75055 
L 205.289606 -63.388526 
L 205.289606 -64.026501 
L 205.289606 -64.664477 
L 205.289606 -65.302452 
L 205.289606 -65.940428 
L 205.289606 -66.578404 
L 205.289606 -67.216379 
L 205.289606 -67.854355 
L 205.289606 -68.49233 
L 205.289606 -69.130306 
L 205.289606 -69.768282 
L 205.289606 -70.406257 
L 205.289606 -71.044233 
L 205.289606 -71.682208 
L 205.289606 -72.320184 
L 205.289606 -72.95816 
L 205.289606 -73.596135 
L 205.289606 -74.234111 
L 205.289606 -74.872086 
L 205.289606 -75.510062 
L 205.289606 -76.148038 
L 205.289606 -76.786013 
L 205.289606 -77.423989 
L 205.289606 -78.061965 
L 205.289606 -78.69994 
L 205.289606 -79.337916 
L 205.289606 -79.975891 
L 205.289606 -80.613867 
L 205.289606 -81.251843 
L 205.289606 -81.889818 
L 205.289606 -82.527794 
L 205.289606 -83.165769 
L 205.289606 -83.803745 
L 205.289606 -84.441721 
L 205.31131 -84.441721 
L 205.31131 -84.441721 
L 205.319336 -83.803745 
L 205.330629 -83.165769 
L 205.346464 -82.527794 
L 205.367393 -81.889818 
L 205.392949 -81.251843 
L 205.421765 -80.613867 
L 205.452223 -79.975891 
L 205.483752 -79.337916 
L 205.518311 -78.69994 
L 205.560866 -78.061965 
L 205.617979 -77.423989 
L 205.695133 -76.786013 
L 205.794483 -76.148038 
L 205.914356 -75.510062 
L 206.05048 -74.872086 
L 206.19793 -74.234111 
L 206.3528 -73.596135 
L 206.513117 -72.95816 
L 206.67893 -72.320184 
L 206.851799 -71.682208 
L 207.034211 -71.044233 
L 207.229198 -70.406257 
L 207.439773 -69.768282 
L 207.668223 -69.130306 
L 207.916608 -68.49233 
L 208.189377 -67.854355 
L 208.496151 -67.216379 
L 208.851186 -66.578404 
L 209.268548 -65.940428 
L 209.755325 -65.302452 
L 210.305545 -64.664477 
L 210.896833 -64.026501 
L 211.493118 -63.388526 
L 212.056298 -62.75055 
L 212.563211 -62.112574 
L 213.016405 -61.474599 
L 213.438832 -60.836623 
L 213.855166 -60.198647 
L 214.274409 -59.560672 
L 214.687625 -58.922696 
L 215.080903 -58.284721 
L 215.449137 -57.646745 
L 215.795763 -57.008769 
L 216.119335 -56.370794 
L 216.40335 -55.732818 
L 216.622474 -55.094843 
L 216.75978 -54.456867 
L 216.818182 -53.818891 
L 216.816702 -53.180916 
L 216.776109 -52.54294 
L 216.703712 -51.904965 
L 216.584981 -51.266989 
L 216.387711 -50.629013 
L 216.08025 -49.991038 
L 215.654564 -49.353062 
L 215.136525 -48.715087 
L 214.573618 -48.077111 
L 214.010242 -47.439135 
L 213.471304 -46.80116 
L 212.963681 -46.163184 
L 212.48638 -45.525209 
L 212.036162 -44.887233 
L 211.606853 -44.249257 
L 211.189336 -43.611282 
L 210.775666 -42.973306 
L 210.363357 -42.33533 
L 209.95525 -41.697355 
L 209.555553 -41.059379 
L 209.166584 -40.421404 
L 208.78957 -39.783428 
L 208.428171 -39.145452 
L 208.090142 -38.507477 
L 207.784103 -37.869501 
L 207.513532 -37.231526 
L 207.273515 -36.59355 
L 207.053713 -35.955574 
L 206.845255 -35.317599 
L 206.645765 -34.679623 
L 206.458785 -34.041648 
L 206.289042 -33.403672 
L 206.138108 -32.765696 
L 206.003926 -32.127721 
L 205.884027 -31.489745 
L 205.77902 -30.85177 
L 205.692707 -30.213794 
L 205.62839 -29.575818 
L 205.584703 -28.937843 
L 205.554843 -28.299867 
L 205.529897 -27.661892 
L 205.503395 -27.023916 
L 205.473618 -26.38594 
L 205.442575 -25.747965 
L 205.413262 -25.109989 
L 205.387578 -24.472013 
L 205.365968 -23.834038 
L 205.348165 -23.196062 
L 205.333818 -22.558087 
L 205.322533 -21.920111 
L 205.313707 -21.282135 
z
"/>
    </defs>
    <g clip-path="url(#p585402525a)">
     <use xlink:href="#mec08b6e94f" x="0" y="180" style="fill: #ff4500; fill-opacity: 0.5"/>
    </g>
   </g>
   <g id="PolyCollection_4">
    <defs>
     <path id="m9f703160e5" d="M 251.424182 -26.562868 
L 251.405329 -26.562868 
L 251.405329 -27.095638 
L 251.405329 -27.628408 
L 251.405329 -28.161178 
L 251.405329 -28.693948 
L 251.405329 -29.226717 
L 251.405329 -29.759487 
L 251.405329 -30.292257 
L 251.405329 -30.825027 
L 251.405329 -31.357796 
L 251.405329 -31.890566 
L 251.405329 -32.423336 
L 251.405329 -32.956106 
L 251.405329 -33.488876 
L 251.405329 -34.021645 
L 251.405329 -34.554415 
L 251.405329 -35.087185 
L 251.405329 -35.619955 
L 251.405329 -36.152724 
L 251.405329 -36.685494 
L 251.405329 -37.218264 
L 251.405329 -37.751034 
L 251.405329 -38.283804 
L 251.405329 -38.816573 
L 251.405329 -39.349343 
L 251.405329 -39.882113 
L 251.405329 -40.414883 
L 251.405329 -40.947652 
L 251.405329 -41.480422 
L 251.405329 -42.013192 
L 251.405329 -42.545962 
L 251.405329 -43.078732 
L 251.405329 -43.611501 
L 251.405329 -44.144271 
L 251.405329 -44.677041 
L 251.405329 -45.209811 
L 251.405329 -45.74258 
L 251.405329 -46.27535 
L 251.405329 -46.80812 
L 251.405329 -47.34089 
L 251.405329 -47.87366 
L 251.405329 -48.406429 
L 251.405329 -48.939199 
L 251.405329 -49.471969 
L 251.405329 -50.004739 
L 251.405329 -50.537508 
L 251.405329 -51.070278 
L 251.405329 -51.603048 
L 251.405329 -52.135818 
L 251.405329 -52.668588 
L 251.405329 -53.201357 
L 251.405329 -53.734127 
L 251.405329 -54.266897 
L 251.405329 -54.799667 
L 251.405329 -55.332436 
L 251.405329 -55.865206 
L 251.405329 -56.397976 
L 251.405329 -56.930746 
L 251.405329 -57.463516 
L 251.405329 -57.996285 
L 251.405329 -58.529055 
L 251.405329 -59.061825 
L 251.405329 -59.594595 
L 251.405329 -60.127364 
L 251.405329 -60.660134 
L 251.405329 -61.192904 
L 251.405329 -61.725674 
L 251.405329 -62.258444 
L 251.405329 -62.791213 
L 251.405329 -63.323983 
L 251.405329 -63.856753 
L 251.405329 -64.389523 
L 251.405329 -64.922292 
L 251.405329 -65.455062 
L 251.405329 -65.987832 
L 251.405329 -66.520602 
L 251.405329 -67.053372 
L 251.405329 -67.586141 
L 251.405329 -68.118911 
L 251.405329 -68.651681 
L 251.405329 -69.184451 
L 251.405329 -69.717221 
L 251.405329 -70.24999 
L 251.405329 -70.78276 
L 251.405329 -71.31553 
L 251.405329 -71.8483 
L 251.405329 -72.381069 
L 251.405329 -72.913839 
L 251.405329 -73.446609 
L 251.405329 -73.979379 
L 251.405329 -74.512149 
L 251.405329 -75.044918 
L 251.405329 -75.577688 
L 251.405329 -76.110458 
L 251.405329 -76.643228 
L 251.405329 -77.175997 
L 251.405329 -77.708767 
L 251.405329 -78.241537 
L 251.405329 -78.774307 
L 251.405329 -79.307077 
L 251.441662 -79.307077 
L 251.441662 -79.307077 
L 251.458564 -78.774307 
L 251.479682 -78.241537 
L 251.50319 -77.708767 
L 251.525599 -77.175997 
L 251.543446 -76.643228 
L 251.555854 -76.110458 
L 251.566054 -75.577688 
L 251.580512 -75.044918 
L 251.606229 -74.512149 
L 251.648315 -73.979379 
L 251.709421 -73.446609 
L 251.790515 -72.913839 
L 251.891287 -72.381069 
L 252.009535 -71.8483 
L 252.140952 -71.31553 
L 252.281015 -70.78276 
L 252.428277 -70.24999 
L 252.585742 -69.717221 
L 252.758224 -69.184451 
L 252.948364 -68.651681 
L 253.15636 -68.118911 
L 253.384356 -67.586141 
L 253.640178 -67.053372 
L 253.935305 -66.520602 
L 254.278494 -65.987832 
L 254.671025 -65.455062 
L 255.107102 -64.922292 
L 255.577961 -64.389523 
L 256.075847 -63.856753 
L 256.594761 -63.323983 
L 257.127234 -62.791213 
L 257.660031 -62.258444 
L 258.17457 -61.725674 
L 258.655508 -61.192904 
L 259.102893 -60.660134 
L 259.536643 -60.127364 
L 259.985716 -59.594595 
L 260.466882 -59.061825 
L 260.967832 -58.529055 
L 261.447467 -57.996285 
L 261.854629 -57.463516 
L 262.154321 -56.930746 
L 262.345217 -56.397976 
L 262.457718 -55.865206 
L 262.535044 -55.332436 
L 262.611198 -54.799667 
L 262.699431 -54.266897 
L 262.793973 -53.734127 
L 262.878018 -53.201357 
L 262.930988 -52.668588 
L 262.933884 -52.135818 
L 262.873685 -51.603048 
L 262.745643 -51.070278 
L 262.552311 -50.537508 
L 262.301405 -50.004739 
L 262.005323 -49.471969 
L 261.680933 -48.939199 
L 261.345395 -48.406429 
L 261.007689 -47.87366 
L 260.661999 -47.34089 
L 260.289366 -46.80812 
L 259.867254 -46.27535 
L 259.380752 -45.74258 
L 258.829576 -45.209811 
L 258.228963 -44.677041 
L 257.605486 -44.144271 
L 256.990201 -43.611501 
L 256.412153 -43.078732 
L 255.893619 -42.545962 
L 255.445866 -42.013192 
L 255.065104 -41.480422 
L 254.732534 -40.947652 
L 254.422409 -40.414883 
L 254.114863 -39.882113 
L 253.804139 -39.349343 
L 253.49687 -38.816573 
L 253.204422 -38.283804 
L 252.936721 -37.751034 
L 252.700086 -37.218264 
L 252.496798 -36.685494 
L 252.324808 -36.152724 
L 252.178653 -35.619955 
L 252.052361 -35.087185 
L 251.942608 -34.554415 
L 251.849464 -34.021645 
L 251.77421 -33.488876 
L 251.716431 -32.956106 
L 251.672835 -32.423336 
L 251.638282 -31.890566 
L 251.607716 -31.357796 
L 251.577695 -30.825027 
L 251.547065 -30.292257 
L 251.51677 -29.759487 
L 251.488948 -29.226717 
L 251.465752 -28.693948 
L 251.448383 -28.161178 
L 251.436672 -27.628408 
L 251.42924 -27.095638 
L 251.424182 -26.562868 
z
"/>
    </defs>
    <g clip-path="url(#p585402525a)">
     <use xlink:href="#m9f703160e5" x="0" y="180" style="fill: #ff4500; fill-opacity: 0.5"/>
    </g>
   </g>
   <g id="PolyCollection_5">
    <defs>
     <path id="m72ace77c2f" d="M 297.532953 -48.840284 
L 297.521015 -48.840284 
L 297.521015 -49.258396 
L 297.521015 -49.676509 
L 297.521015 -50.094622 
L 297.521015 -50.512734 
L 297.521015 -50.930847 
L 297.521015 -51.34896 
L 297.521015 -51.767072 
L 297.521015 -52.185185 
L 297.521015 -52.603297 
L 297.521015 -53.02141 
L 297.521015 -53.439523 
L 297.521015 -53.857635 
L 297.521015 -54.275748 
L 297.521015 -54.693861 
L 297.521015 -55.111973 
L 297.521015 -55.530086 
L 297.521015 -55.948198 
L 297.521015 -56.366311 
L 297.521015 -56.784424 
L 297.521015 -57.202536 
L 297.521015 -57.620649 
L 297.521015 -58.038761 
L 297.521015 -58.456874 
L 297.521015 -58.874987 
L 297.521015 -59.293099 
L 297.521015 -59.711212 
L 297.521015 -60.129325 
L 297.521015 -60.547437 
L 297.521015 -60.96555 
L 297.521015 -61.383662 
L 297.521015 -61.801775 
L 297.521015 -62.219888 
L 297.521015 -62.638 
L 297.521015 -63.056113 
L 297.521015 -63.474225 
L 297.521015 -63.892338 
L 297.521015 -64.310451 
L 297.521015 -64.728563 
L 297.521015 -65.146676 
L 297.521015 -65.564789 
L 297.521015 -65.982901 
L 297.521015 -66.401014 
L 297.521015 -66.819126 
L 297.521015 -67.237239 
L 297.521015 -67.655352 
L 297.521015 -68.073464 
L 297.521015 -68.491577 
L 297.521015 -68.90969 
L 297.521015 -69.327802 
L 297.521015 -69.745915 
L 297.521015 -70.164027 
L 297.521015 -70.58214 
L 297.521015 -71.000253 
L 297.521015 -71.418365 
L 297.521015 -71.836478 
L 297.521015 -72.25459 
L 297.521015 -72.672703 
L 297.521015 -73.090816 
L 297.521015 -73.508928 
L 297.521015 -73.927041 
L 297.521015 -74.345154 
L 297.521015 -74.763266 
L 297.521015 -75.181379 
L 297.521015 -75.599491 
L 297.521015 -76.017604 
L 297.521015 -76.435717 
L 297.521015 -76.853829 
L 297.521015 -77.271942 
L 297.521015 -77.690054 
L 297.521015 -78.108167 
L 297.521015 -78.52628 
L 297.521015 -78.944392 
L 297.521015 -79.362505 
L 297.521015 -79.780618 
L 297.521015 -80.19873 
L 297.521015 -80.616843 
L 297.521015 -81.034955 
L 297.521015 -81.453068 
L 297.521015 -81.871181 
L 297.521015 -82.289293 
L 297.521015 -82.707406 
L 297.521015 -83.125519 
L 297.521015 -83.543631 
L 297.521015 -83.961744 
L 297.521015 -84.379856 
L 297.521015 -84.797969 
L 297.521015 -85.216082 
L 297.521015 -85.634194 
L 297.521015 -86.052307 
L 297.521015 -86.470419 
L 297.521015 -86.888532 
L 297.521015 -87.306645 
L 297.521015 -87.724757 
L 297.521015 -88.14287 
L 297.521015 -88.560983 
L 297.521015 -88.979095 
L 297.521015 -89.397208 
L 297.521015 -89.81532 
L 297.521015 -90.233433 
L 297.567866 -90.233433 
L 297.567866 -90.233433 
L 297.589231 -89.81532 
L 297.614782 -89.397208 
L 297.644462 -88.979095 
L 297.678407 -88.560983 
L 297.716658 -88.14287 
L 297.759313 -87.724757 
L 297.807893 -87.306645 
L 297.866987 -86.888532 
L 297.943558 -86.470419 
L 298.043029 -86.052307 
L 298.165595 -85.634194 
L 298.307586 -85.216082 
L 298.467864 -84.797969 
L 298.652842 -84.379856 
L 298.873718 -83.961744 
L 299.137204 -83.543631 
L 299.438119 -83.125519 
L 299.760474 -82.707406 
L 300.08572 -82.289293 
L 300.401903 -81.871181 
L 300.708973 -81.453068 
L 301.019201 -81.034955 
L 301.35356 -80.616843 
L 301.735232 -80.19873 
L 302.181813 -79.780618 
L 302.698455 -79.362505 
L 303.273944 -78.944392 
L 303.881433 -78.52628 
L 304.48505 -78.108167 
L 305.050209 -77.690054 
L 305.551057 -77.271942 
L 305.971595 -76.853829 
L 306.306549 -76.435717 
L 306.568361 -76.017604 
L 306.793824 -75.599491 
L 307.036812 -75.181379 
L 307.34454 -74.763266 
L 307.730739 -74.345154 
L 308.163261 -73.927041 
L 308.574582 -73.508928 
L 308.888863 -73.090816 
L 309.049587 -72.672703 
L 309.035017 -72.25459 
L 308.859008 -71.836478 
L 308.560535 -71.418365 
L 308.187209 -71.000253 
L 307.780965 -70.58214 
L 307.372767 -70.164027 
L 306.983192 -69.745915 
L 306.619343 -69.327802 
L 306.267774 -68.90969 
L 305.896332 -68.491577 
L 305.47203 -68.073464 
L 304.98159 -67.655352 
L 304.436273 -67.237239 
L 303.861554 -66.819126 
L 303.286713 -66.401014 
L 302.740903 -65.982901 
L 302.249601 -65.564789 
L 301.827764 -65.146676 
L 301.474279 -64.728563 
L 301.172299 -64.310451 
L 300.894963 -63.892338 
L 300.614245 -63.474225 
L 300.310921 -63.056113 
L 299.982019 -62.638 
L 299.641074 -62.219888 
L 299.310635 -61.801775 
L 299.01231 -61.383662 
L 298.760217 -60.96555 
L 298.559133 -60.547437 
L 298.405672 -60.129325 
L 298.291042 -59.711212 
L 298.204089 -59.293099 
L 298.133363 -58.874987 
L 298.068617 -58.456874 
L 298.002982 -58.038761 
L 297.934931 -57.620649 
L 297.86779 -57.202536 
L 297.806735 -56.784424 
L 297.755548 -56.366311 
L 297.714987 -55.948198 
L 297.683116 -55.530086 
L 297.657101 -55.111973 
L 297.635189 -54.693861 
L 297.617179 -54.275748 
L 297.603091 -53.857635 
L 297.59172 -53.439523 
L 297.580843 -53.02141 
L 297.56883 -52.603297 
L 297.555882 -52.185185 
L 297.543724 -51.767072 
L 297.534273 -51.34896 
L 297.528558 -50.930847 
L 297.526518 -50.512734 
L 297.527322 -50.094622 
L 297.529669 -49.676509 
L 297.532004 -49.258396 
L 297.532953 -48.840284 
z
"/>
    </defs>
    <g clip-path="url(#p585402525a)">
     <use xlink:href="#m72ace77c2f" x="0" y="180" style="fill: #ff4500; fill-opacity: 0.4"/>
    </g>
   </g>
   <g id="matplotlib.axis_1">
    <g id="xtick_1">
     <g id="line2d_1">
      <defs>
       <path id="m6ea92975da" d="M 0 0 
L 0 3.5 
" style="stroke: #000000; stroke-width: 0.8"/>
      </defs>
      <g>
       <use xlink:href="#m6ea92975da" x="113.057851" y="160.2" style="stroke: #000000; stroke-width: 0.8"/>
      </g>
     </g>
     <g id="text_1">
      <text style="font: 12px 'inter', sans-serif" transform="translate(44.580305 240.360361) rotate(-45)">Trh&gt;Brain-CsCh</text>
     </g>
    </g>
    <g id="xtick_2">
     <g id="line2d_2">
      <g>
       <use xlink:href="#m6ea92975da" x="159.173554" y="160.2" style="stroke: #000000; stroke-width: 0.8"/>
      </g>
     </g>
     <g id="text_2">
      <text style="font: 12px 'inter', sans-serif" transform="translate(94.863076 236.193293) rotate(-45)">Trh&gt;VNC-CsCh</text>
     </g>
    </g>
    <g id="xtick_3">
     <g id="line2d_3">
      <g>
       <use xlink:href="#m6ea92975da" x="205.289256" y="160.2" style="stroke: #000000; stroke-width: 0.8"/>
      </g>
     </g>
     <g id="text_3">
      <text style="font: 12px 'inter', sans-serif" transform="translate(140.090475 237.081595) rotate(-45)">SXVNC1&gt;CsCh</text>
     </g>
    </g>
    <g id="xtick_4">
     <g id="line2d_4">
      <g>
       <use xlink:href="#m6ea92975da" x="251.404959" y="160.2" style="stroke: #000000; stroke-width: 0.8"/>
      </g>
     </g>
     <g id="text_4">
      <text style="font: 12px 'inter', sans-serif" transform="translate(186.206178 237.081595) rotate(-45)">SXVNC2&gt;CsCh</text>
     </g>
    </g>
    <g id="xtick_5">
     <g id="line2d_5">
      <g>
       <use xlink:href="#m6ea92975da" x="297.520661" y="160.2" style="stroke: #000000; stroke-width: 0.8"/>
      </g>
     </g>
     <g id="text_5">
      <text style="font: 12px 'inter', sans-serif" transform="translate(232.32188 237.081595) rotate(-45)">SXVNC3&gt;CsCh</text>
     </g>
    </g>
   </g>
   <g id="matplotlib.axis_2">
    <g id="ytick_1">
     <g id="line2d_6">
      <defs>
       <path id="mbcaa26d19e" d="M 0 0 
L -3.5 0 
" style="stroke: #000000; stroke-width: 0.8"/>
      </defs>
      <g>
       <use xlink:href="#mbcaa26d19e" x="90" y="146.34" style="stroke: #000000; stroke-width: 0.8"/>
      </g>
     </g>
     <g id="text_6">
      <text style="font: 12px 'inter', sans-serif; text-anchor: end" x="83" y="150.899063" transform="rotate(-0 83 150.899063)">−2</text>
     </g>
    </g>
    <g id="ytick_2">
     <g id="line2d_7">
      <g>
       <use xlink:href="#mbcaa26d19e" x="90" y="118.62" style="stroke: #000000; stroke-width: 0.8"/>
      </g>
     </g>
     <g id="text_7">
      <text style="font: 12px 'inter', sans-serif; text-anchor: end" x="83" y="123.179063" transform="rotate(-0 83 123.179063)">−1</text>
     </g>
    </g>
    <g id="ytick_3">
     <g id="line2d_8">
      <g>
       <use xlink:href="#mbcaa26d19e" x="90" y="90.9" style="stroke: #000000; stroke-width: 0.8"/>
      </g>
     </g>
     <g id="text_8">
      <text style="font: 12px 'inter', sans-serif; text-anchor: end" x="83" y="95.459062" transform="rotate(-0 83 95.459062)">0</text>
     </g>
    </g>
    <g id="ytick_4">
     <g id="line2d_9">
      <g>
       <use xlink:href="#mbcaa26d19e" x="90" y="63.18" style="stroke: #000000; stroke-width: 0.8"/>
      </g>
     </g>
     <g id="text_9">
      <text style="font: 12px 'inter', sans-serif; text-anchor: end" x="83" y="67.739062" transform="rotate(-0 83 67.739062)">1</text>
     </g>
    </g>
    <g id="ytick_5">
     <g id="line2d_10">
      <g>
       <use xlink:href="#mbcaa26d19e" x="90" y="35.46" style="stroke: #000000; stroke-width: 0.8"/>
      </g>
     </g>
     <g id="text_10">
      <text style="font: 12px 'inter', sans-serif; text-anchor: end" x="83" y="40.019062" transform="rotate(-0 83 40.019062)">2</text>
     </g>
    </g>
    <g id="text_11">
     <text style="font: 12px 'inter', sans-serif; text-anchor: middle" x="58.81375" y="90.9" transform="rotate(-90 58.81375 90.9)">Deltas'g Volume</text>
    </g>
   </g>
   <g id="line2d_11">
    <path d="M 66.942149 90.9 
L 297.520661 90.9 
" clip-path="url(#p585402525a)" style="fill: none; stroke: #000000; stroke-linecap: square"/>
   </g>
   <g id="line2d_12">
    <defs>
     <path id="m8e07b29a59" d="M 0 5 
C 1.326016 5 2.597899 4.473168 3.535534 3.535534 
C 4.473168 2.597899 5 1.326016 5 0 
C 5 -1.326016 4.473168 -2.597899 3.535534 -3.535534 
C 2.597899 -4.473168 1.326016 -5 0 -5 
C -1.326016 -5 -2.597899 -4.473168 -3.535534 -3.535534 
C -4.473168 -2.597899 -5 -1.326016 -5 0 
C -5 1.326016 -4.473168 2.597899 -3.535534 3.535534 
C -2.597899 4.473168 -1.326016 5 0 5 
z
" style="stroke: #000000"/>
    </defs>
    <g clip-path="url(#p585402525a)">
     <use xlink:href="#m8e07b29a59" x="113.057851" y="95.354698" style="stroke: #000000"/>
    </g>
   </g>
   <g id="line2d_13">
    <path d="M 113.057851 114.994288 
L 113.057851 75.337432 
" clip-path="url(#p585402525a)" style="fill: none; stroke: #000000; stroke-width: 2.5; stroke-linecap: square"/>
   </g>
   <g id="line2d_14">
    <g clip-path="url(#p585402525a)">
     <use xlink:href="#m8e07b29a59" x="159.173554" y="128.336388" style="stroke: #000000"/>
    </g>
   </g>
   <g id="line2d_15">
    <path d="M 159.173554 145.422254 
L 159.173554 111.971622 
" clip-path="url(#p585402525a)" style="fill: none; stroke: #000000; stroke-width: 2.5; stroke-linecap: square"/>
   </g>
   <g id="line2d_16">
    <g clip-path="url(#p585402525a)">
     <use xlink:href="#m8e07b29a59" x="205.289256" y="126.526786" style="stroke: #000000"/>
    </g>
   </g>
   <g id="line2d_17">
    <path d="M 205.289256 144.317833 
L 205.289256 108.957498 
" clip-path="url(#p585402525a)" style="fill: none; stroke: #000000; stroke-width: 2.5; stroke-linecap: square"/>
   </g>
   <g id="line2d_18">
    <g clip-path="url(#p585402525a)">
     <use xlink:href="#m8e07b29a59" x="251.404959" y="126.725222" style="stroke: #000000"/>
    </g>
   </g>
   <g id="line2d_19">
    <path d="M 251.404959 141.116192 
L 251.404959 111.899833 
" clip-path="url(#p585402525a)" style="fill: none; stroke: #000000; stroke-width: 2.5; stroke-linecap: square"/>
   </g>
   <g id="line2d_20">
    <g clip-path="url(#p585402525a)">
     <use xlink:href="#m8e07b29a59" x="297.520661" y="107.044915" style="stroke: #000000"/>
    </g>
   </g>
   <g id="line2d_21">
    <path d="M 297.520661 117.089522 
L 297.520661 95.501362 
" clip-path="url(#p585402525a)" style="fill: none; stroke: #000000; stroke-width: 2.5; stroke-linecap: square"/>
   </g>
   <g id="line2d_22">
    <path d="M 147.644628 41.004 
L 309.049587 41.004 
" clip-path="url(#p585402525a)" style="fill: none; stroke: #000000; stroke-width: 1.5; stroke-linecap: square"/>
   </g>
   <g id="line2d_23">
    <path d="M 101.528926 41.004 
L 124.586777 41.004 
" clip-path="url(#p585402525a)" style="fill: none; stroke: #000000; stroke-width: 1.5; stroke-linecap: square"/>
   </g>
   <g id="patch_3">
    <path d="M 90 160.2 
L 90 21.6 
" style="fill: none; stroke: #000000; stroke-width: 0.8; stroke-linejoin: miter; stroke-linecap: square"/>
   </g>
   <g id="text_12">
    <text style="font: 15px 'inter', sans-serif; text-anchor: middle" x="113.057851" y="35.46" transform="rotate(-0 113.057851 35.46)">Brain</text>
   </g>
   <g id="text_13">
    <text style="font: 15px 'inter', sans-serif; text-anchor: middle" x="228.347107" y="35.46" transform="rotate(-0 228.347107 35.46)">VNC</text>
   </g>
   <g id="text_14">
    <g id="patch_4">
     <path d="M 142.175369 22.055625 
L 291.460994 22.055625 
L 291.460994 2.521875 
L 142.175369 2.521875 
z
" style="fill: #b0c4de; stroke: #b0c4de; stroke-linejoin: miter"/>
    </g>
    <text style="font: 600 12px 'inter'; text-anchor: middle" x="216.818182" y="15.6" transform="rotate(-0 216.818182 15.6)">CsCh Effects Starved</text>
   </g>
  </g>
  <g id="axes_2">
   <g id="patch_5">
    <path d="M 394.363636 160.2 
L 648 160.2 
L 648 21.6 
L 394.363636 21.6 
z
" style="fill: #ffffff"/>
   </g>
   <g id="PolyCollection_6">
    <defs>
     <path id="md6e67593eb" d="M 422.587188 -62.521752 
L 422.545946 -62.521752 
L 422.545946 -63.27773 
L 422.545946 -64.033709 
L 422.545946 -64.789687 
L 422.545946 -65.545666 
L 422.545946 -66.301644 
L 422.545946 -67.057623 
L 422.545946 -67.813601 
L 422.545946 -68.56958 
L 422.545946 -69.325559 
L 422.545946 -70.081537 
L 422.545946 -70.837516 
L 422.545946 -71.593494 
L 422.545946 -72.349473 
L 422.545946 -73.105451 
L 422.545946 -73.86143 
L 422.545946 -74.617408 
L 422.545946 -75.373387 
L 422.545946 -76.129366 
L 422.545946 -76.885344 
L 422.545946 -77.641323 
L 422.545946 -78.397301 
L 422.545946 -79.15328 
L 422.545946 -79.909258 
L 422.545946 -80.665237 
L 422.545946 -81.421215 
L 422.545946 -82.177194 
L 422.545946 -82.933173 
L 422.545946 -83.689151 
L 422.545946 -84.44513 
L 422.545946 -85.201108 
L 422.545946 -85.957087 
L 422.545946 -86.713065 
L 422.545946 -87.469044 
L 422.545946 -88.225022 
L 422.545946 -88.981001 
L 422.545946 -89.73698 
L 422.545946 -90.492958 
L 422.545946 -91.248937 
L 422.545946 -92.004915 
L 422.545946 -92.760894 
L 422.545946 -93.516872 
L 422.545946 -94.272851 
L 422.545946 -95.02883 
L 422.545946 -95.784808 
L 422.545946 -96.540787 
L 422.545946 -97.296765 
L 422.545946 -98.052744 
L 422.545946 -98.808722 
L 422.545946 -99.564701 
L 422.545946 -100.320679 
L 422.545946 -101.076658 
L 422.545946 -101.832637 
L 422.545946 -102.588615 
L 422.545946 -103.344594 
L 422.545946 -104.100572 
L 422.545946 -104.856551 
L 422.545946 -105.612529 
L 422.545946 -106.368508 
L 422.545946 -107.124486 
L 422.545946 -107.880465 
L 422.545946 -108.636444 
L 422.545946 -109.392422 
L 422.545946 -110.148401 
L 422.545946 -110.904379 
L 422.545946 -111.660358 
L 422.545946 -112.416336 
L 422.545946 -113.172315 
L 422.545946 -113.928293 
L 422.545946 -114.684272 
L 422.545946 -115.440251 
L 422.545946 -116.196229 
L 422.545946 -116.952208 
L 422.545946 -117.708186 
L 422.545946 -118.464165 
L 422.545946 -119.220143 
L 422.545946 -119.976122 
L 422.545946 -120.7321 
L 422.545946 -121.488079 
L 422.545946 -122.244058 
L 422.545946 -123.000036 
L 422.545946 -123.756015 
L 422.545946 -124.511993 
L 422.545946 -125.267972 
L 422.545946 -126.02395 
L 422.545946 -126.779929 
L 422.545946 -127.535908 
L 422.545946 -128.291886 
L 422.545946 -129.047865 
L 422.545946 -129.803843 
L 422.545946 -130.559822 
L 422.545946 -131.3158 
L 422.545946 -132.071779 
L 422.545946 -132.827757 
L 422.545946 -133.583736 
L 422.545946 -134.339715 
L 422.545946 -135.095693 
L 422.545946 -135.851672 
L 422.545946 -136.60765 
L 422.545946 -137.363629 
L 422.56166 -137.363629 
L 422.56166 -137.363629 
L 422.561731 -136.60765 
L 422.561199 -135.851672 
L 422.56175 -135.095693 
L 422.564855 -134.339715 
L 422.571286 -133.583736 
L 422.581518 -132.827757 
L 422.596624 -132.071779 
L 422.618647 -131.3158 
L 422.649584 -130.559822 
L 422.689318 -129.803843 
L 422.734313 -129.047865 
L 422.779166 -128.291886 
L 422.8209 -127.535908 
L 422.862816 -126.779929 
L 422.91417 -126.02395 
L 422.985362 -125.267972 
L 423.082301 -124.511993 
L 423.204174 -123.756015 
L 423.345699 -123.000036 
L 423.501314 -122.244058 
L 423.66782 -121.488079 
L 423.844326 -120.7321 
L 424.031449 -119.976122 
L 424.232148 -119.220143 
L 424.453629 -118.464165 
L 424.707135 -117.708186 
L 425.003966 -116.952208 
L 425.350293 -116.196229 
L 425.745149 -115.440251 
L 426.182906 -114.684272 
L 426.657284 -113.928293 
L 427.162913 -113.172315 
L 427.693878 -112.416336 
L 428.242763 -111.660358 
L 428.80309 -110.904379 
L 429.371966 -110.148401 
L 429.946922 -109.392422 
L 430.51848 -108.636444 
L 431.069467 -107.880465 
L 431.587969 -107.124486 
L 432.084478 -106.368508 
L 432.59502 -105.612529 
L 433.162912 -104.856551 
L 433.810808 -104.100572 
L 434.521688 -103.344594 
L 435.237953 -102.588615 
L 435.875768 -101.832637 
L 436.349376 -101.076658 
L 436.602282 -100.320679 
L 436.636364 -99.564701 
L 436.518912 -98.808722 
L 436.351745 -98.052744 
L 436.214663 -97.296765 
L 436.122681 -96.540787 
L 436.029239 -95.784808 
L 435.868676 -95.02883 
L 435.600437 -94.272851 
L 435.224214 -93.516872 
L 434.76652 -92.760894 
L 434.260184 -92.004915 
L 433.732632 -91.248937 
L 433.202221 -90.492958 
L 432.676648 -89.73698 
L 432.154471 -88.981001 
L 431.63291 -88.225022 
L 431.116537 -87.469044 
L 430.616809 -86.713065 
L 430.141962 -85.957087 
L 429.688376 -85.201108 
L 429.24205 -84.44513 
L 428.787087 -83.689151 
L 428.313201 -82.933173 
L 427.818989 -82.177194 
L 427.311877 -81.421215 
L 426.80533 -80.665237 
L 426.314483 -79.909258 
L 425.853115 -79.15328 
L 425.433036 -78.397301 
L 425.063195 -77.641323 
L 424.746709 -76.885344 
L 424.478391 -76.129366 
L 424.246286 -75.373387 
L 424.0369 -74.617408 
L 423.84074 -73.86143 
L 423.655114 -73.105451 
L 423.483192 -72.349473 
L 423.330225 -71.593494 
L 423.199407 -70.837516 
L 423.089865 -70.081537 
L 422.99749 -69.325559 
L 422.917278 -68.56958 
L 422.845527 -67.813601 
L 422.781017 -67.057623 
L 422.724863 -66.301644 
L 422.679045 -65.545666 
L 422.644406 -64.789687 
L 422.619556 -64.033709 
L 422.601476 -63.27773 
L 422.587188 -62.521752 
z
"/>
    </defs>
    <g clip-path="url(#p99e42f8ca7)">
     <use xlink:href="#md6e67593eb" x="0" y="180" style="fill: #2e8b57; fill-opacity: 0.5"/>
    </g>
   </g>
   <g id="PolyCollection_7">
    <defs>
     <path id="mccae3262ba" d="M 478.963589 -67.302854 
L 478.909846 -67.302854 
L 478.909846 -68.122213 
L 478.909846 -68.941571 
L 478.909846 -69.76093 
L 478.909846 -70.580288 
L 478.909846 -71.399646 
L 478.909846 -72.219005 
L 478.909846 -73.038363 
L 478.909846 -73.857722 
L 478.909846 -74.67708 
L 478.909846 -75.496438 
L 478.909846 -76.315797 
L 478.909846 -77.135155 
L 478.909846 -77.954514 
L 478.909846 -78.773872 
L 478.909846 -79.59323 
L 478.909846 -80.412589 
L 478.909846 -81.231947 
L 478.909846 -82.051306 
L 478.909846 -82.870664 
L 478.909846 -83.690022 
L 478.909846 -84.509381 
L 478.909846 -85.328739 
L 478.909846 -86.148098 
L 478.909846 -86.967456 
L 478.909846 -87.786814 
L 478.909846 -88.606173 
L 478.909846 -89.425531 
L 478.909846 -90.24489 
L 478.909846 -91.064248 
L 478.909846 -91.883606 
L 478.909846 -92.702965 
L 478.909846 -93.522323 
L 478.909846 -94.341681 
L 478.909846 -95.16104 
L 478.909846 -95.980398 
L 478.909846 -96.799757 
L 478.909846 -97.619115 
L 478.909846 -98.438473 
L 478.909846 -99.257832 
L 478.909846 -100.07719 
L 478.909846 -100.896549 
L 478.909846 -101.715907 
L 478.909846 -102.535265 
L 478.909846 -103.354624 
L 478.909846 -104.173982 
L 478.909846 -104.993341 
L 478.909846 -105.812699 
L 478.909846 -106.632057 
L 478.909846 -107.451416 
L 478.909846 -108.270774 
L 478.909846 -109.090133 
L 478.909846 -109.909491 
L 478.909846 -110.728849 
L 478.909846 -111.548208 
L 478.909846 -112.367566 
L 478.909846 -113.186925 
L 478.909846 -114.006283 
L 478.909846 -114.825641 
L 478.909846 -115.645 
L 478.909846 -116.464358 
L 478.909846 -117.283717 
L 478.909846 -118.103075 
L 478.909846 -118.922433 
L 478.909846 -119.741792 
L 478.909846 -120.56115 
L 478.909846 -121.380509 
L 478.909846 -122.199867 
L 478.909846 -123.019225 
L 478.909846 -123.838584 
L 478.909846 -124.657942 
L 478.909846 -125.477301 
L 478.909846 -126.296659 
L 478.909846 -127.116017 
L 478.909846 -127.935376 
L 478.909846 -128.754734 
L 478.909846 -129.574092 
L 478.909846 -130.393451 
L 478.909846 -131.212809 
L 478.909846 -132.032168 
L 478.909846 -132.851526 
L 478.909846 -133.670884 
L 478.909846 -134.490243 
L 478.909846 -135.309601 
L 478.909846 -136.12896 
L 478.909846 -136.948318 
L 478.909846 -137.767676 
L 478.909846 -138.587035 
L 478.909846 -139.406393 
L 478.909846 -140.225752 
L 478.909846 -141.04511 
L 478.909846 -141.864468 
L 478.909846 -142.683827 
L 478.909846 -143.503185 
L 478.909846 -144.322544 
L 478.909846 -145.141902 
L 478.909846 -145.96126 
L 478.909846 -146.780619 
L 478.909846 -147.599977 
L 478.909846 -148.419336 
L 478.953421 -148.419336 
L 478.953421 -148.419336 
L 478.975442 -147.599977 
L 479.004337 -146.780619 
L 479.038631 -145.96126 
L 479.074888 -145.141902 
L 479.109389 -144.322544 
L 479.140458 -143.503185 
L 479.169361 -142.683827 
L 479.198638 -141.864468 
L 479.229243 -141.04511 
L 479.259583 -140.225752 
L 479.288073 -139.406393 
L 479.317145 -138.587035 
L 479.354655 -137.767676 
L 479.410777 -136.948318 
L 479.492642 -136.12896 
L 479.60096 -135.309601 
L 479.730976 -134.490243 
L 479.876626 -133.670884 
L 480.034797 -132.851526 
L 480.20727 -132.032168 
L 480.399782 -131.212809 
L 480.618722 -130.393451 
L 480.866534 -129.574092 
L 481.138352 -128.754734 
L 481.42392 -127.935376 
L 481.716383 -127.116017 
L 482.022069 -126.296659 
L 482.360558 -125.477301 
L 482.750399 -124.657942 
L 483.19007 -123.838584 
L 483.651613 -123.019225 
L 484.095917 -122.199867 
L 484.500217 -121.380509 
L 484.876681 -120.56115 
L 485.266621 -119.741792 
L 485.713339 -118.922433 
L 486.232906 -118.103075 
L 486.80324 -117.283717 
L 487.377485 -116.464358 
L 487.910559 -115.645 
L 488.381508 -114.825641 
L 488.801022 -114.006283 
L 489.204197 -113.186925 
L 489.634603 -112.367566 
L 490.125965 -111.548208 
L 490.686403 -110.728849 
L 491.290116 -109.909491 
L 491.881241 -109.090133 
L 492.390865 -108.270774 
L 492.760722 -107.451416 
L 492.961921 -106.632057 
L 493 -105.812699 
L 492.906475 -104.993341 
L 492.723879 -104.173982 
L 492.491653 -103.354624 
L 492.236638 -102.535265 
L 491.968813 -101.715907 
L 491.68173 -100.896549 
L 491.357234 -100.07719 
L 490.974394 -99.257832 
L 490.521164 -98.438473 
L 490.003821 -97.619115 
L 489.447409 -96.799757 
L 488.884779 -95.980398 
L 488.340805 -95.16104 
L 487.823427 -94.341681 
L 487.327708 -93.522323 
L 486.847433 -92.702965 
L 486.38244 -91.883606 
L 485.935745 -91.064248 
L 485.50582 -90.24489 
L 485.083487 -89.425531 
L 484.656133 -88.606173 
L 484.213756 -87.786814 
L 483.751591 -86.967456 
L 483.270143 -86.148098 
L 482.775964 -85.328739 
L 482.283062 -84.509381 
L 481.811664 -83.690022 
L 481.382943 -82.870664 
L 481.012248 -82.051306 
L 480.704711 -81.231947 
L 480.455165 -80.412589 
L 480.251598 -79.59323 
L 480.079923 -78.773872 
L 479.928 -77.954514 
L 479.787917 -77.135155 
L 479.656527 -76.315797 
L 479.534574 -75.496438 
L 479.424751 -74.67708 
L 479.329359 -73.857722 
L 479.248704 -73.038363 
L 479.181135 -72.219005 
L 479.124438 -71.399646 
L 479.077123 -70.580288 
L 479.038476 -69.76093 
L 479.007694 -68.941571 
L 478.983312 -68.122213 
L 478.963589 -67.302854 
z
"/>
    </defs>
    <g clip-path="url(#p99e42f8ca7)">
     <use xlink:href="#mccae3262ba" x="0" y="180" style="fill: #2e8b57; fill-opacity: 0.5"/>
    </g>
   </g>
   <g id="PolyCollection_8">
    <defs>
     <path id="m2b6fa49351" d="M 535.292262 -51.746468 
L 535.273014 -51.746468 
L 535.273014 -52.861271 
L 535.273014 -53.976074 
L 535.273014 -55.090877 
L 535.273014 -56.205681 
L 535.273014 -57.320484 
L 535.273014 -58.435287 
L 535.273014 -59.55009 
L 535.273014 -60.664893 
L 535.273014 -61.779696 
L 535.273014 -62.894499 
L 535.273014 -64.009302 
L 535.273014 -65.124106 
L 535.273014 -66.238909 
L 535.273014 -67.353712 
L 535.273014 -68.468515 
L 535.273014 -69.583318 
L 535.273014 -70.698121 
L 535.273014 -71.812924 
L 535.273014 -72.927727 
L 535.273014 -74.042531 
L 535.273014 -75.157334 
L 535.273014 -76.272137 
L 535.273014 -77.38694 
L 535.273014 -78.501743 
L 535.273014 -79.616546 
L 535.273014 -80.731349 
L 535.273014 -81.846152 
L 535.273014 -82.960956 
L 535.273014 -84.075759 
L 535.273014 -85.190562 
L 535.273014 -86.305365 
L 535.273014 -87.420168 
L 535.273014 -88.534971 
L 535.273014 -89.649774 
L 535.273014 -90.764577 
L 535.273014 -91.87938 
L 535.273014 -92.994184 
L 535.273014 -94.108987 
L 535.273014 -95.22379 
L 535.273014 -96.338593 
L 535.273014 -97.453396 
L 535.273014 -98.568199 
L 535.273014 -99.683002 
L 535.273014 -100.797805 
L 535.273014 -101.912609 
L 535.273014 -103.027412 
L 535.273014 -104.142215 
L 535.273014 -105.257018 
L 535.273014 -106.371821 
L 535.273014 -107.486624 
L 535.273014 -108.601427 
L 535.273014 -109.71623 
L 535.273014 -110.831034 
L 535.273014 -111.945837 
L 535.273014 -113.06064 
L 535.273014 -114.175443 
L 535.273014 -115.290246 
L 535.273014 -116.405049 
L 535.273014 -117.519852 
L 535.273014 -118.634655 
L 535.273014 -119.749459 
L 535.273014 -120.864262 
L 535.273014 -121.979065 
L 535.273014 -123.093868 
L 535.273014 -124.208671 
L 535.273014 -125.323474 
L 535.273014 -126.438277 
L 535.273014 -127.55308 
L 535.273014 -128.667884 
L 535.273014 -129.782687 
L 535.273014 -130.89749 
L 535.273014 -132.012293 
L 535.273014 -133.127096 
L 535.273014 -134.241899 
L 535.273014 -135.356702 
L 535.273014 -136.471505 
L 535.273014 -137.586309 
L 535.273014 -138.701112 
L 535.273014 -139.815915 
L 535.273014 -140.930718 
L 535.273014 -142.045521 
L 535.273014 -143.160324 
L 535.273014 -144.275127 
L 535.273014 -145.38993 
L 535.273014 -146.504733 
L 535.273014 -147.619537 
L 535.273014 -148.73434 
L 535.273014 -149.849143 
L 535.273014 -150.963946 
L 535.273014 -152.078749 
L 535.273014 -153.193552 
L 535.273014 -154.308355 
L 535.273014 -155.423158 
L 535.273014 -156.537962 
L 535.273014 -157.652765 
L 535.273014 -158.767568 
L 535.273014 -159.882371 
L 535.273014 -160.997174 
L 535.273014 -162.111977 
L 535.291853 -162.111977 
L 535.291853 -162.111977 
L 535.293863 -160.997174 
L 535.294539 -159.882371 
L 535.294188 -158.767568 
L 535.293174 -157.652765 
L 535.292456 -156.537962 
L 535.293966 -155.423158 
L 535.299824 -154.308355 
L 535.310732 -153.193552 
L 535.325174 -152.078749 
L 535.340651 -150.963946 
L 535.356316 -149.849143 
L 535.374944 -148.73434 
L 535.402519 -147.619537 
L 535.445288 -146.504733 
L 535.505778 -145.38993 
L 535.580446 -144.275127 
L 535.661422 -143.160324 
L 535.741949 -142.045521 
L 535.821356 -140.930718 
L 535.905327 -139.815915 
L 536.001785 -138.701112 
L 536.116753 -137.586309 
L 536.253538 -136.471505 
L 536.41467 -135.356702 
L 536.604057 -134.241899 
L 536.827911 -133.127096 
L 537.094202 -132.012293 
L 537.41011 -130.89749 
L 537.776918 -129.782687 
L 538.184657 -128.667884 
L 538.612195 -127.55308 
L 539.036173 -126.438277 
L 539.44423 -125.323474 
L 539.84394 -124.208671 
L 540.262179 -123.093868 
L 540.733325 -121.979065 
L 541.278088 -120.864262 
L 541.883948 -119.749459 
L 542.505716 -118.634655 
L 543.09361 -117.519852 
L 543.6302 -116.405049 
L 544.144374 -115.290246 
L 544.688633 -114.175443 
L 545.300006 -113.06064 
L 545.978217 -111.945837 
L 546.692762 -110.831034 
L 547.401297 -109.71623 
L 548.05958 -108.601427 
L 548.62239 -107.486624 
L 549.045944 -106.371821 
L 549.296791 -105.257018 
L 549.363636 -104.142215 
L 549.26542 -103.027412 
L 549.050021 -101.912609 
L 548.780546 -100.797805 
L 548.510652 -99.683002 
L 548.258618 -98.568199 
L 547.998191 -97.453396 
L 547.678477 -96.338593 
L 547.260591 -95.22379 
L 546.740281 -94.108987 
L 546.14125 -92.994184 
L 545.496744 -91.87938 
L 544.841707 -90.764577 
L 544.211931 -89.649774 
L 543.634606 -88.534971 
L 543.112863 -87.420168 
L 542.622312 -86.305365 
L 542.127084 -85.190562 
L 541.602956 -84.075759 
L 541.04962 -82.960956 
L 540.486525 -81.846152 
L 539.940893 -80.731349 
L 539.436949 -79.616546 
L 538.987211 -78.501743 
L 538.586132 -77.38694 
L 538.212342 -76.272137 
L 537.842796 -75.157334 
L 537.469301 -74.042531 
L 537.102626 -72.927727 
L 536.761505 -71.812924 
L 536.459684 -70.698121 
L 536.203619 -69.583318 
L 535.99762 -68.468515 
L 535.84476 -67.353712 
L 535.741317 -66.238909 
L 535.67391 -65.124106 
L 535.625176 -64.009302 
L 535.582498 -62.894499 
L 535.541241 -61.779696 
L 535.501288 -60.664893 
L 535.46256 -59.55009 
L 535.424167 -58.435287 
L 535.38645 -57.320484 
L 535.35222 -56.205681 
L 535.325266 -55.090877 
L 535.307533 -53.976074 
L 535.297689 -52.861271 
L 535.292262 -51.746468 
z
"/>
    </defs>
    <g clip-path="url(#p99e42f8ca7)">
     <use xlink:href="#m2b6fa49351" x="0" y="180" style="fill: #2e8b57; fill-opacity: 0.5"/>
    </g>
   </g>
   <g id="PolyCollection_9">
    <defs>
     <path id="mddb8f66cf3" d="M 591.685908 -50.769179 
L 591.637046 -50.769179 
L 591.637046 -51.343581 
L 591.637046 -51.917984 
L 591.637046 -52.492386 
L 591.637046 -53.066788 
L 591.637046 -53.64119 
L 591.637046 -54.215592 
L 591.637046 -54.789994 
L 591.637046 -55.364397 
L 591.637046 -55.938799 
L 591.637046 -56.513201 
L 591.637046 -57.087603 
L 591.637046 -57.662005 
L 591.637046 -58.236407 
L 591.637046 -58.810809 
L 591.637046 -59.385212 
L 591.637046 -59.959614 
L 591.637046 -60.534016 
L 591.637046 -61.108418 
L 591.637046 -61.68282 
L 591.637046 -62.257222 
L 591.637046 -62.831625 
L 591.637046 -63.406027 
L 591.637046 -63.980429 
L 591.637046 -64.554831 
L 591.637046 -65.129233 
L 591.637046 -65.703635 
L 591.637046 -66.278038 
L 591.637046 -66.85244 
L 591.637046 -67.426842 
L 591.637046 -68.001244 
L 591.637046 -68.575646 
L 591.637046 -69.150048 
L 591.637046 -69.724451 
L 591.637046 -70.298853 
L 591.637046 -70.873255 
L 591.637046 -71.447657 
L 591.637046 -72.022059 
L 591.637046 -72.596461 
L 591.637046 -73.170864 
L 591.637046 -73.745266 
L 591.637046 -74.319668 
L 591.637046 -74.89407 
L 591.637046 -75.468472 
L 591.637046 -76.042874 
L 591.637046 -76.617277 
L 591.637046 -77.191679 
L 591.637046 -77.766081 
L 591.637046 -78.340483 
L 591.637046 -78.914885 
L 591.637046 -79.489287 
L 591.637046 -80.06369 
L 591.637046 -80.638092 
L 591.637046 -81.212494 
L 591.637046 -81.786896 
L 591.637046 -82.361298 
L 591.637046 -82.9357 
L 591.637046 -83.510102 
L 591.637046 -84.084505 
L 591.637046 -84.658907 
L 591.637046 -85.233309 
L 591.637046 -85.807711 
L 591.637046 -86.382113 
L 591.637046 -86.956515 
L 591.637046 -87.530918 
L 591.637046 -88.10532 
L 591.637046 -88.679722 
L 591.637046 -89.254124 
L 591.637046 -89.828526 
L 591.637046 -90.402928 
L 591.637046 -90.977331 
L 591.637046 -91.551733 
L 591.637046 -92.126135 
L 591.637046 -92.700537 
L 591.637046 -93.274939 
L 591.637046 -93.849341 
L 591.637046 -94.423744 
L 591.637046 -94.998146 
L 591.637046 -95.572548 
L 591.637046 -96.14695 
L 591.637046 -96.721352 
L 591.637046 -97.295754 
L 591.637046 -97.870157 
L 591.637046 -98.444559 
L 591.637046 -99.018961 
L 591.637046 -99.593363 
L 591.637046 -100.167765 
L 591.637046 -100.742167 
L 591.637046 -101.31657 
L 591.637046 -101.890972 
L 591.637046 -102.465374 
L 591.637046 -103.039776 
L 591.637046 -103.614178 
L 591.637046 -104.18858 
L 591.637046 -104.762982 
L 591.637046 -105.337385 
L 591.637046 -105.911787 
L 591.637046 -106.486189 
L 591.637046 -107.060591 
L 591.637046 -107.634993 
L 591.675828 -107.634993 
L 591.675828 -107.634993 
L 591.690865 -107.060591 
L 591.708793 -106.486189 
L 591.729228 -105.911787 
L 591.75184 -105.337385 
L 591.777357 -104.762982 
L 591.808436 -104.18858 
L 591.849649 -103.614178 
L 591.906547 -103.039776 
L 591.984543 -102.465374 
L 592.088272 -101.890972 
L 592.221411 -101.31657 
L 592.386648 -100.742167 
L 592.585946 -100.167765 
L 592.821254 -99.593363 
L 593.09512 -99.018961 
L 593.410033 -98.444559 
L 593.766277 -97.870157 
L 594.160134 -97.295754 
L 594.585022 -96.721352 
L 595.036125 -96.14695 
L 595.515328 -95.572548 
L 596.031613 -94.998146 
L 596.59525 -94.423744 
L 597.210242 -93.849341 
L 597.87228 -93.274939 
L 598.574488 -92.700537 
L 599.31445 -92.126135 
L 600.093423 -91.551733 
L 600.90668 -90.977331 
L 601.734106 -90.402928 
L 602.540062 -89.828526 
L 603.281954 -89.254124 
L 603.920634 -88.679722 
L 604.42924 -88.10532 
L 604.801217 -87.530918 
L 605.054846 -86.956515 
L 605.227531 -86.382113 
L 605.358995 -85.807711 
L 605.473804 -85.233309 
L 605.575784 -84.658907 
L 605.656383 -84.084505 
L 605.707418 -83.510102 
L 605.727273 -82.9357 
L 605.717368 -82.361298 
L 605.673952 -81.786896 
L 605.582703 -81.212494 
L 605.420092 -80.638092 
L 605.160153 -80.06369 
L 604.782966 -79.489287 
L 604.282765 -78.914885 
L 603.674849 -78.340483 
L 602.997953 -77.766081 
L 602.306897 -77.191679 
L 601.655584 -76.617277 
L 601.079307 -76.042874 
L 600.587008 -75.468472 
L 600.165811 -74.89407 
L 599.791571 -74.319668 
L 599.438549 -73.745266 
L 599.085526 -73.170864 
L 598.718307 -72.596461 
L 598.329404 -72.022059 
L 597.917133 -71.447657 
L 597.486327 -70.873255 
L 597.049579 -70.298853 
L 596.625195 -69.724451 
L 596.230762 -69.150048 
L 595.87644 -68.575646 
L 595.562986 -68.001244 
L 595.284894 -67.426842 
L 595.034804 -66.85244 
L 594.80567 -66.278038 
L 594.590219 -65.703635 
L 594.379306 -65.129233 
L 594.161469 -64.554831 
L 593.92556 -63.980429 
L 593.666211 -63.406027 
L 593.388685 -62.831625 
L 593.108637 -62.257222 
L 592.845791 -61.68282 
L 592.615615 -61.108418 
L 592.424572 -60.534016 
L 592.271022 -59.959614 
L 592.149295 -59.385212 
L 592.053178 -58.810809 
L 591.977209 -58.236407 
L 591.916629 -57.662005 
L 591.867331 -57.087603 
L 591.826213 -56.513201 
L 591.791513 -55.938799 
L 591.762748 -55.364397 
L 591.740197 -54.789994 
L 591.724141 -54.215592 
L 591.714134 -53.64119 
L 591.708639 -53.066788 
L 591.705239 -52.492386 
L 591.701349 -51.917984 
L 591.695088 -51.343581 
L 591.685908 -50.769179 
z
"/>
    </defs>
    <g clip-path="url(#p99e42f8ca7)">
     <use xlink:href="#mddb8f66cf3" x="0" y="180" style="fill: #2e8b57; fill-opacity: 0.4"/>
    </g>
   </g>
   <g id="matplotlib.axis_3">
    <g id="xtick_6">
     <g id="line2d_24">
      <g>
       <use xlink:href="#m6ea92975da" x="422.545455" y="160.2" style="stroke: #000000; stroke-width: 0.8"/>
      </g>
     </g>
     <g id="text_15">
      <text style="font: 12px 'inter', sans-serif" transform="translate(357.198181 237.230088) rotate(-45)">Trh&gt;VNC-ACR1</text>
     </g>
    </g>
    <g id="xtick_7">
     <g id="line2d_25">
      <g>
       <use xlink:href="#m6ea92975da" x="478.909091" y="160.2" style="stroke: #000000; stroke-width: 0.8"/>
      </g>
     </g>
     <g id="text_16">
      <text style="font: 12px 'inter', sans-serif" transform="translate(412.482596 238.30931) rotate(-45)">SXVNC1&gt;ACR1</text>
     </g>
    </g>
    <g id="xtick_8">
     <g id="line2d_26">
      <g>
       <use xlink:href="#m6ea92975da" x="535.272727" y="160.2" style="stroke: #000000; stroke-width: 0.8"/>
      </g>
     </g>
     <g id="text_17">
      <text style="font: 12px 'inter', sans-serif" transform="translate(468.846232 238.30931) rotate(-45)">SXVNC2&gt;ACR1</text>
     </g>
    </g>
    <g id="xtick_9">
     <g id="line2d_27">
      <g>
       <use xlink:href="#m6ea92975da" x="591.636364" y="160.2" style="stroke: #000000; stroke-width: 0.8"/>
      </g>
     </g>
     <g id="text_18">
      <text style="font: 12px 'inter', sans-serif" transform="translate(525.209869 238.30931) rotate(-45)">SXVNC3&gt;ACR1</text>
     </g>
    </g>
   </g>
   <g id="matplotlib.axis_4">
    <g id="ytick_6">
     <g id="line2d_28">
      <g>
       <use xlink:href="#mbcaa26d19e" x="394.363636" y="146.34" style="stroke: #000000; stroke-width: 0.8"/>
      </g>
     </g>
     <g id="text_19">
      <text style="font: 12px 'inter', sans-serif; text-anchor: end" x="387.363636" y="150.899063" transform="rotate(-0 387.363636 150.899063)">−2</text>
     </g>
    </g>
    <g id="ytick_7">
     <g id="line2d_29">
      <g>
       <use xlink:href="#mbcaa26d19e" x="394.363636" y="118.62" style="stroke: #000000; stroke-width: 0.8"/>
      </g>
     </g>
     <g id="text_20">
      <text style="font: 12px 'inter', sans-serif; text-anchor: end" x="387.363636" y="123.179063" transform="rotate(-0 387.363636 123.179063)">−1</text>
     </g>
    </g>
    <g id="ytick_8">
     <g id="line2d_30">
      <g>
       <use xlink:href="#mbcaa26d19e" x="394.363636" y="90.9" style="stroke: #000000; stroke-width: 0.8"/>
      </g>
     </g>
     <g id="text_21">
      <text style="font: 12px 'inter', sans-serif; text-anchor: end" x="387.363636" y="95.459062" transform="rotate(-0 387.363636 95.459062)">0</text>
     </g>
    </g>
    <g id="ytick_9">
     <g id="line2d_31">
      <g>
       <use xlink:href="#mbcaa26d19e" x="394.363636" y="63.18" style="stroke: #000000; stroke-width: 0.8"/>
      </g>
     </g>
     <g id="text_22">
      <text style="font: 12px 'inter', sans-serif; text-anchor: end" x="387.363636" y="67.739062" transform="rotate(-0 387.363636 67.739062)">1</text>
     </g>
    </g>
    <g id="ytick_10">
     <g id="line2d_32">
      <g>
       <use xlink:href="#mbcaa26d19e" x="394.363636" y="35.46" style="stroke: #000000; stroke-width: 0.8"/>
      </g>
     </g>
     <g id="text_23">
      <text style="font: 12px 'inter', sans-serif; text-anchor: end" x="387.363636" y="40.019062" transform="rotate(-0 387.363636 40.019062)">2</text>
     </g>
    </g>
    <g id="text_24">
     <text style="font: 12px 'inter', sans-serif; text-anchor: middle" x="363.177386" y="90.9" transform="rotate(-90 363.177386 90.9)">Deltas'g Volume</text>
    </g>
   </g>
   <g id="line2d_33">
    <path d="M 366.181818 90.9 
L 591.636364 90.9 
" clip-path="url(#p99e42f8ca7)" style="fill: none; stroke: #000000; stroke-linecap: square"/>
   </g>
   <g id="line2d_34">
    <g clip-path="url(#p99e42f8ca7)">
     <use xlink:href="#m8e07b29a59" x="422.545455" y="82.503415" style="stroke: #000000"/>
    </g>
   </g>
   <g id="line2d_35">
    <path d="M 422.545455 103.264886 
L 422.545455 61.927328 
" clip-path="url(#p99e42f8ca7)" style="fill: none; stroke: #000000; stroke-width: 2.5; stroke-linecap: square"/>
   </g>
   <g id="line2d_36">
    <g clip-path="url(#p99e42f8ca7)">
     <use xlink:href="#m8e07b29a59" x="478.909091" y="74.756584" style="stroke: #000000"/>
    </g>
   </g>
   <g id="line2d_37">
    <path d="M 478.909091 97.295775 
L 478.909091 50.364634 
" clip-path="url(#p99e42f8ca7)" style="fill: none; stroke: #000000; stroke-width: 2.5; stroke-linecap: square"/>
   </g>
   <g id="line2d_38">
    <g clip-path="url(#p99e42f8ca7)">
     <use xlink:href="#m8e07b29a59" x="535.272727" y="77.151154" style="stroke: #000000"/>
    </g>
   </g>
   <g id="line2d_39">
    <path d="M 535.272727 104.857938 
L 535.272727 48.318707 
" clip-path="url(#p99e42f8ca7)" style="fill: none; stroke: #000000; stroke-width: 2.5; stroke-linecap: square"/>
   </g>
   <g id="line2d_40">
    <g clip-path="url(#p99e42f8ca7)">
     <use xlink:href="#m8e07b29a59" x="591.636364" y="96.745222" style="stroke: #000000"/>
    </g>
   </g>
   <g id="line2d_41">
    <path d="M 591.636364 111.504377 
L 591.636364 78.904592 
" clip-path="url(#p99e42f8ca7)" style="fill: none; stroke: #000000; stroke-width: 2.5; stroke-linecap: square"/>
   </g>
   <g id="line2d_42">
    <path d="M 408.454545 41.004 
L 605.727273 41.004 
" clip-path="url(#p99e42f8ca7)" style="fill: none; stroke: #000000; stroke-width: 1.5; stroke-linecap: square"/>
   </g>
   <g id="patch_6">
    <path d="M 394.363636 160.2 
L 394.363636 21.6 
" style="fill: none; stroke: #000000; stroke-width: 0.8; stroke-linejoin: miter; stroke-linecap: square"/>
   </g>
   <g id="text_25">
    <text style="font: 15px 'inter', sans-serif; text-anchor: middle" x="507.090909" y="35.46" transform="rotate(-0 507.090909 35.46)">VNC</text>
   </g>
   <g id="text_26">
    <g id="patch_7">
     <path d="M 459.595568 22.055625 
L 582.768068 22.055625 
L 582.768068 2.521875 
L 459.595568 2.521875 
z
" style="fill: #ffa500; stroke: #ffa500; stroke-linejoin: miter"/>
    </g>
    <text style="font: 600 12px 'inter'; text-anchor: middle" x="521.181818" y="15.6" transform="rotate(-0 521.181818 15.6)">ACR1 Effects Fed</text>
   </g>
  </g>
 </g>
 <defs>
  <clipPath id="p585402525a">
   <rect x="90" y="21.6" width="253.636364" height="138.6"/>
  </clipPath>
  <clipPath id="p99e42f8ca7">
   <rect x="394.363636" y="21.6" width="253.636364" height="138.6"/>
  </clipPath>
 </defs>
</svg>
