<?xml version="1.0" encoding="utf-8" standalone="no"?>
<!DOCTYPE svg PUBLIC "-//W3C//DTD SVG 1.1//EN"
  "http://www.w3.org/Graphics/SVG/1.1/DTD/svg11.dtd">
<svg xmlns:xlink="http://www.w3.org/1999/xlink" width="224.460937pt" height="432.11125pt" viewBox="0 0 224.460937 432.11125" xmlns="http://www.w3.org/2000/svg" version="1.1">
 <metadata>
  <rdf:RDF xmlns:dc="http://purl.org/dc/elements/1.1/" xmlns:cc="http://creativecommons.org/ns#" xmlns:rdf="http://www.w3.org/1999/02/22-rdf-syntax-ns#">
   <cc:Work>
    <dc:type rdf:resource="http://purl.org/dc/dcmitype/StillImage"/>
    <dc:date>2025-02-18T00:13:41.583268</dc:date>
    <dc:format>image/svg+xml</dc:format>
    <dc:creator>
     <cc:Agent>
      <dc:title>Matplotlib v3.6.3, https://matplotlib.org/</dc:title>
     </cc:Agent>
    </dc:creator>
   </cc:Work>
  </rdf:RDF>
 </metadata>
 <defs>
  <style type="text/css">*{stroke-linejoin: round; stroke-linecap: butt}</style>
 </defs>
 <g id="figure_1">
  <g id="patch_1">
   <path d="M 0 432.11125 
L 224.460938 432.11125 
L 224.460938 0 
L 0 0 
z
" style="fill: #ffffff"/>
  </g>
  <g id="axes_1">
   <g id="patch_2">
    <path d="M 49.860938 175.930435 
L 217.260938 175.930435 
L 217.260938 7.2 
L 49.860938 7.2 
z
" style="fill: #ffffff"/>
   </g>
   <g id="line2d_1">
    <path d="M 57.470028 91.565217 
L 209.651847 91.565217 
" clip-path="url(#p056324b185)" style="fill: none; stroke: #d3d3d3; stroke-width: 0.5; stroke-linecap: square"/>
   </g>
   <g id="line2d_2">
    <path d="M 133.560938 168.26087 
L 133.560938 14.869565 
" clip-path="url(#p056324b185)" style="fill: none; stroke: #d3d3d3; stroke-width: 0.5; stroke-linecap: square"/>
   </g>
   <g id="PathCollection_1">
    <defs>
     <path id="mfb8daf2894" d="M 0 3 
C 0.795609 3 1.55874 2.683901 2.12132 2.12132 
C 2.683901 1.55874 3 0.795609 3 0 
C 3 -0.795609 2.683901 -1.55874 2.12132 -2.12132 
C 1.55874 -2.683901 0.795609 -3 0 -3 
C -0.795609 -3 -1.55874 -2.683901 -2.12132 -2.12132 
C -2.683901 -1.55874 -3 -0.795609 -3 0 
C -3 0.795609 -2.683901 1.55874 -2.12132 2.12132 
C -1.55874 2.683901 -0.795609 3 0 3 
z
" style="stroke: #1f77b4; stroke-opacity: 0.8"/>
    </defs>
    <g clip-path="url(#p056324b185)">
     <use xlink:href="#mfb8daf2894" x="206.248306" y="109.638712" style="fill: #1f77b4; fill-opacity: 0.8; stroke: #1f77b4; stroke-opacity: 0.8"/>
     <use xlink:href="#mfb8daf2894" x="181.363283" y="77.352056" style="fill: #1f77b4; fill-opacity: 0.8; stroke: #1f77b4; stroke-opacity: 0.8"/>
     <use xlink:href="#mfb8daf2894" x="181.217215" y="75.240701" style="fill: #1f77b4; fill-opacity: 0.8; stroke: #1f77b4; stroke-opacity: 0.8"/>
     <use xlink:href="#mfb8daf2894" x="182.211015" y="77.890272" style="fill: #1f77b4; fill-opacity: 0.8; stroke: #1f77b4; stroke-opacity: 0.8"/>
     <use xlink:href="#mfb8daf2894" x="182.966752" y="119.400377" style="fill: #1f77b4; fill-opacity: 0.8; stroke: #1f77b4; stroke-opacity: 0.8"/>
     <use xlink:href="#mfb8daf2894" x="144.550447" y="112.120262" style="fill: #1f77b4; fill-opacity: 0.8; stroke: #1f77b4; stroke-opacity: 0.8"/>
     <use xlink:href="#mfb8daf2894" x="145.785295" y="129.656801" style="fill: #1f77b4; fill-opacity: 0.8; stroke: #1f77b4; stroke-opacity: 0.8"/>
     <use xlink:href="#mfb8daf2894" x="152.850645" y="98.960531" style="fill: #1f77b4; fill-opacity: 0.8; stroke: #1f77b4; stroke-opacity: 0.8"/>
     <use xlink:href="#mfb8daf2894" x="115.105189" y="104.737163" style="fill: #1f77b4; fill-opacity: 0.8; stroke: #1f77b4; stroke-opacity: 0.8"/>
     <use xlink:href="#mfb8daf2894" x="101.197659" y="115.891454" style="fill: #1f77b4; fill-opacity: 0.8; stroke: #1f77b4; stroke-opacity: 0.8"/>
     <use xlink:href="#mfb8daf2894" x="113.661901" y="82.6451" style="fill: #1f77b4; fill-opacity: 0.8; stroke: #1f77b4; stroke-opacity: 0.8"/>
     <use xlink:href="#mfb8daf2894" x="119.421719" y="67.985347" style="fill: #1f77b4; fill-opacity: 0.8; stroke: #1f77b4; stroke-opacity: 0.8"/>
     <use xlink:href="#mfb8daf2894" x="95.638587" y="98.246807" style="fill: #1f77b4; fill-opacity: 0.8; stroke: #1f77b4; stroke-opacity: 0.8"/>
     <use xlink:href="#mfb8daf2894" x="106.93847" y="76.1447" style="fill: #1f77b4; fill-opacity: 0.8; stroke: #1f77b4; stroke-opacity: 0.8"/>
     <use xlink:href="#mfb8daf2894" x="138.695496" y="132.967474" style="fill: #1f77b4; fill-opacity: 0.8; stroke: #1f77b4; stroke-opacity: 0.8"/>
     <use xlink:href="#mfb8daf2894" x="105.727873" y="92.389305" style="fill: #1f77b4; fill-opacity: 0.8; stroke: #1f77b4; stroke-opacity: 0.8"/>
     <use xlink:href="#mfb8daf2894" x="135.473743" y="58.755862" style="fill: #1f77b4; fill-opacity: 0.8; stroke: #1f77b4; stroke-opacity: 0.8"/>
    </g>
   </g>
   <g id="PolyCollection_1">
    <path d="M 95.638587 79.636548 
L 95.638587 109.283718 
L 96.755857 109.110702 
L 97.873127 109.042862 
L 98.990397 108.908892 
L 100.107667 108.592465 
L 101.224937 108.424098 
L 102.342207 108.258184 
L 103.459476 108.187269 
L 104.576746 108.115678 
L 105.694016 108.044088 
L 106.811286 107.888531 
L 107.928556 107.648412 
L 109.045826 107.431951 
L 110.163096 107.381101 
L 111.280366 107.259872 
L 112.397636 107.140912 
L 113.514905 107.138841 
L 114.632175 107.209776 
L 115.749445 107.185229 
L 116.866715 107.115266 
L 117.983985 106.927391 
L 119.101255 106.735721 
L 120.218525 106.639026 
L 121.335795 106.659082 
L 122.453065 106.738611 
L 123.570334 106.817295 
L 124.687604 106.701567 
L 125.804874 106.600661 
L 126.922144 106.72193 
L 128.039414 106.693317 
L 129.156684 106.626461 
L 130.273954 106.560085 
L 131.391224 106.467492 
L 132.508494 106.304092 
L 133.625763 106.243 
L 134.743033 106.232847 
L 135.860303 106.221021 
L 136.977573 106.219423 
L 138.094843 106.242275 
L 139.212113 106.409981 
L 140.329383 106.297122 
L 141.446653 106.473226 
L 142.563923 106.550538 
L 143.681193 106.540377 
L 144.798462 106.602766 
L 145.915732 106.704675 
L 147.033002 106.828693 
L 148.150272 106.871588 
L 149.267542 107.021081 
L 150.384812 107.196722 
L 151.502082 107.307272 
L 152.619352 107.17086 
L 153.736622 107.390333 
L 154.853891 107.634625 
L 155.971161 107.814544 
L 157.088431 107.920475 
L 158.205701 107.962097 
L 159.322971 108.148163 
L 160.440241 108.295917 
L 161.557511 108.452838 
L 162.674781 108.6457 
L 163.792051 108.867341 
L 164.90932 109.28187 
L 166.02659 109.68036 
L 167.14386 109.51986 
L 168.26113 109.734972 
L 169.3784 109.950085 
L 170.49567 110.065161 
L 171.61294 110.146049 
L 172.73021 110.329854 
L 173.84748 110.617159 
L 174.964749 110.904465 
L 176.082019 111.186633 
L 177.199289 111.326551 
L 178.316559 111.558717 
L 179.433829 111.843985 
L 180.551099 112.129252 
L 181.668369 112.413607 
L 182.785639 112.704177 
L 183.902909 112.99012 
L 185.020178 113.091945 
L 186.137448 113.395646 
L 187.254718 113.750036 
L 188.371988 114.07252 
L 189.489258 114.266315 
L 190.606528 114.459252 
L 191.723798 114.649734 
L 192.841068 114.83801 
L 193.958338 115.026287 
L 195.075607 115.219268 
L 196.192877 115.415594 
L 197.310147 115.61192 
L 198.427417 115.808246 
L 199.544687 116.002743 
L 200.661957 116.195431 
L 201.779227 116.386772 
L 202.896497 116.590574 
L 204.013767 116.887198 
L 205.131036 117.183555 
L 206.248306 117.552386 
L 206.248306 77.793224 
L 206.248306 77.793224 
L 205.131036 78.045262 
L 204.013767 78.214103 
L 202.896497 78.384432 
L 201.779227 78.554762 
L 200.661957 78.729034 
L 199.544687 78.919207 
L 198.427417 79.265226 
L 197.310147 79.614161 
L 196.192877 79.964314 
L 195.075607 80.235846 
L 193.958338 80.465729 
L 192.841068 80.703716 
L 191.723798 80.922193 
L 190.606528 81.144682 
L 189.489258 81.267198 
L 188.371988 81.466545 
L 187.254718 81.792084 
L 186.137448 82.044784 
L 185.020178 82.268297 
L 183.902909 82.405978 
L 182.785639 82.503728 
L 181.668369 82.601478 
L 180.551099 82.699229 
L 179.433829 82.796979 
L 178.316559 82.899843 
L 177.199289 83.0031 
L 176.082019 83.106357 
L 174.964749 83.194436 
L 173.84748 83.306566 
L 172.73021 83.405951 
L 171.61294 83.484279 
L 170.49567 83.534035 
L 169.3784 83.585762 
L 168.26113 83.689417 
L 167.14386 83.841685 
L 166.02659 83.967573 
L 164.90932 84.046428 
L 163.792051 84.15787 
L 162.674781 84.19508 
L 161.557511 84.315285 
L 160.440241 84.486457 
L 159.322971 84.584458 
L 158.205701 84.681017 
L 157.088431 84.778091 
L 155.971161 84.932431 
L 154.853891 85.111229 
L 153.736622 85.290027 
L 152.619352 85.370847 
L 151.502082 85.336909 
L 150.384812 85.368431 
L 149.267542 85.463235 
L 148.150272 85.47821 
L 147.033002 85.409628 
L 145.915732 85.586433 
L 144.798462 85.617397 
L 143.681193 85.690053 
L 142.563923 85.752954 
L 141.446653 85.607807 
L 140.329383 85.600858 
L 139.212113 85.701004 
L 138.094843 85.609246 
L 136.977573 85.548361 
L 135.860303 85.553819 
L 134.743033 85.688803 
L 133.625763 85.580476 
L 132.508494 85.479195 
L 131.391224 85.479499 
L 130.273954 85.447077 
L 129.156684 85.436577 
L 128.039414 85.426077 
L 126.922144 85.389584 
L 125.804874 85.185074 
L 124.687604 84.99284 
L 123.570334 84.784433 
L 122.453065 84.578717 
L 121.335795 84.444678 
L 120.218525 84.253324 
L 119.101255 84.178499 
L 117.983985 84.054917 
L 116.866715 84.06552 
L 115.749445 83.837328 
L 114.632175 83.70053 
L 113.514905 83.701553 
L 112.397636 83.542238 
L 111.280366 83.367027 
L 110.163096 83.215295 
L 109.045826 82.849946 
L 107.928556 82.524572 
L 106.811286 82.406391 
L 105.694016 82.204953 
L 104.576746 81.860846 
L 103.459476 81.518081 
L 102.342207 81.270175 
L 101.224937 81.072574 
L 100.107667 80.876588 
L 98.990397 80.680835 
L 97.873127 80.230427 
L 96.755857 79.84281 
L 95.638587 79.636548 
z
" clip-path="url(#p056324b185)" style="fill: #1f77b4; fill-opacity: 0.15"/>
   </g>
   <g id="PathCollection_2">
    <defs>
     <path id="m6324cc018d" d="M 0 3 
C 0.795609 3 1.55874 2.683901 2.12132 2.12132 
C 2.683901 1.55874 3 0.795609 3 0 
C 3 -0.795609 2.683901 -1.55874 2.12132 -2.12132 
C 1.55874 -2.683901 0.795609 -3 0 -3 
C -0.795609 -3 -1.55874 -2.683901 -2.12132 -2.12132 
C -2.683901 -1.55874 -3 -0.795609 -3 0 
C -3 0.795609 -2.683901 1.55874 -2.12132 2.12132 
C -1.55874 2.683901 -0.795609 3 0 3 
z
" style="stroke: #ff7f0e; stroke-opacity: 0.8"/>
    </defs>
    <g clip-path="url(#p056324b185)">
     <use xlink:href="#m6324cc018d" x="206.248306" y="62.585977" style="fill: #ff7f0e; fill-opacity: 0.8; stroke: #ff7f0e; stroke-opacity: 0.8"/>
     <use xlink:href="#m6324cc018d" x="181.363283" y="64.33923" style="fill: #ff7f0e; fill-opacity: 0.8; stroke: #ff7f0e; stroke-opacity: 0.8"/>
     <use xlink:href="#m6324cc018d" x="181.217215" y="66.432895" style="fill: #ff7f0e; fill-opacity: 0.8; stroke: #ff7f0e; stroke-opacity: 0.8"/>
     <use xlink:href="#m6324cc018d" x="182.211015" y="72.281762" style="fill: #ff7f0e; fill-opacity: 0.8; stroke: #ff7f0e; stroke-opacity: 0.8"/>
     <use xlink:href="#m6324cc018d" x="182.966752" y="84.062234" style="fill: #ff7f0e; fill-opacity: 0.8; stroke: #ff7f0e; stroke-opacity: 0.8"/>
     <use xlink:href="#m6324cc018d" x="144.550447" y="80.508866" style="fill: #ff7f0e; fill-opacity: 0.8; stroke: #ff7f0e; stroke-opacity: 0.8"/>
     <use xlink:href="#m6324cc018d" x="145.785295" y="108.842601" style="fill: #ff7f0e; fill-opacity: 0.8; stroke: #ff7f0e; stroke-opacity: 0.8"/>
     <use xlink:href="#m6324cc018d" x="152.850645" y="85.090487" style="fill: #ff7f0e; fill-opacity: 0.8; stroke: #ff7f0e; stroke-opacity: 0.8"/>
     <use xlink:href="#m6324cc018d" x="115.105189" y="100.873897" style="fill: #ff7f0e; fill-opacity: 0.8; stroke: #ff7f0e; stroke-opacity: 0.8"/>
     <use xlink:href="#m6324cc018d" x="101.197659" y="128.295959" style="fill: #ff7f0e; fill-opacity: 0.8; stroke: #ff7f0e; stroke-opacity: 0.8"/>
     <use xlink:href="#m6324cc018d" x="113.661901" y="61.191138" style="fill: #ff7f0e; fill-opacity: 0.8; stroke: #ff7f0e; stroke-opacity: 0.8"/>
     <use xlink:href="#m6324cc018d" x="119.421719" y="80.265113" style="fill: #ff7f0e; fill-opacity: 0.8; stroke: #ff7f0e; stroke-opacity: 0.8"/>
     <use xlink:href="#m6324cc018d" x="95.638587" y="92.874533" style="fill: #ff7f0e; fill-opacity: 0.8; stroke: #ff7f0e; stroke-opacity: 0.8"/>
     <use xlink:href="#m6324cc018d" x="106.93847" y="72.124954" style="fill: #ff7f0e; fill-opacity: 0.8; stroke: #ff7f0e; stroke-opacity: 0.8"/>
     <use xlink:href="#m6324cc018d" x="138.695496" y="95.843639" style="fill: #ff7f0e; fill-opacity: 0.8; stroke: #ff7f0e; stroke-opacity: 0.8"/>
     <use xlink:href="#m6324cc018d" x="105.727873" y="62.475115" style="fill: #ff7f0e; fill-opacity: 0.8; stroke: #ff7f0e; stroke-opacity: 0.8"/>
     <use xlink:href="#m6324cc018d" x="135.473743" y="72.397958" style="fill: #ff7f0e; fill-opacity: 0.8; stroke: #ff7f0e; stroke-opacity: 0.8"/>
    </g>
   </g>
   <g id="PolyCollection_2">
    <path d="M 95.638587 73.885609 
L 95.638587 110.159053 
L 96.755857 109.653051 
L 97.873127 109.147049 
L 98.990397 108.613715 
L 100.107667 108.057968 
L 101.224937 107.516898 
L 102.342207 107.05758 
L 103.459476 106.598261 
L 104.576746 106.118833 
L 105.694016 105.615304 
L 106.811286 105.109995 
L 107.928556 104.584802 
L 109.045826 104.099892 
L 110.163096 103.605457 
L 111.280366 103.129904 
L 112.397636 102.65435 
L 113.514905 102.178796 
L 114.632175 101.703242 
L 115.749445 101.227688 
L 116.866715 100.752134 
L 117.983985 100.27658 
L 119.101255 99.787013 
L 120.218525 99.206946 
L 121.335795 98.739552 
L 122.453065 98.289535 
L 123.570334 97.784718 
L 124.687604 97.253072 
L 125.804874 96.721421 
L 126.922144 96.189081 
L 128.039414 95.774688 
L 129.156684 95.51838 
L 130.273954 95.044491 
L 131.391224 94.496345 
L 132.508494 93.87302 
L 133.625763 93.442788 
L 134.743033 93.141686 
L 135.860303 92.667123 
L 136.977573 92.290181 
L 138.094843 91.723585 
L 139.212113 91.28998 
L 140.329383 90.772923 
L 141.446653 90.286216 
L 142.563923 89.881348 
L 143.681193 89.541556 
L 144.798462 89.148614 
L 145.915732 88.778898 
L 147.033002 88.298479 
L 148.150272 87.96183 
L 149.267542 87.539028 
L 150.384812 87.134448 
L 151.502082 86.756959 
L 152.619352 86.490558 
L 153.736622 86.258645 
L 154.853891 85.803901 
L 155.971161 85.479849 
L 157.088431 85.417837 
L 158.205701 85.139768 
L 159.322971 84.964538 
L 160.440241 84.725406 
L 161.557511 84.722527 
L 162.674781 84.757237 
L 163.792051 84.682986 
L 164.90932 84.632692 
L 166.02659 84.593056 
L 167.14386 84.561502 
L 168.26113 84.461683 
L 169.3784 84.429906 
L 170.49567 84.418024 
L 171.61294 84.327514 
L 172.73021 84.468281 
L 173.84748 84.480145 
L 174.964749 84.465759 
L 176.082019 84.448843 
L 177.199289 84.431928 
L 178.316559 84.415013 
L 179.433829 84.398098 
L 180.551099 84.390932 
L 181.668369 84.45344 
L 182.785639 84.481707 
L 183.902909 84.532711 
L 185.020178 84.416402 
L 186.137448 84.388278 
L 187.254718 84.378587 
L 188.371988 84.463432 
L 189.489258 84.298579 
L 190.606528 84.271684 
L 191.723798 84.354999 
L 192.841068 84.447237 
L 193.958338 84.538788 
L 195.075607 84.610179 
L 196.192877 84.65439 
L 197.310147 84.809581 
L 198.427417 84.894215 
L 199.544687 84.816331 
L 200.661957 84.737565 
L 201.779227 84.774116 
L 202.896497 84.827842 
L 204.013767 84.881568 
L 205.131036 84.935294 
L 206.248306 84.98902 
L 206.248306 57.88874 
L 206.248306 57.88874 
L 205.131036 58.359218 
L 204.013767 58.811316 
L 202.896497 59.240722 
L 201.779227 59.671406 
L 200.661957 60.138982 
L 199.544687 60.675873 
L 198.427417 61.042824 
L 197.310147 61.495514 
L 196.192877 61.856963 
L 195.075607 62.262639 
L 193.958338 62.669278 
L 192.841068 63.086404 
L 191.723798 63.499045 
L 190.606528 63.936981 
L 189.489258 64.292315 
L 188.371988 64.697993 
L 187.254718 65.123338 
L 186.137448 65.598773 
L 185.020178 66.072143 
L 183.902909 66.489092 
L 182.785639 66.939989 
L 181.668369 67.368641 
L 180.551099 67.764945 
L 179.433829 68.224031 
L 178.316559 68.594079 
L 177.199289 68.876203 
L 176.082019 69.166854 
L 174.964749 69.455246 
L 173.84748 69.835316 
L 172.73021 70.058213 
L 171.61294 70.387983 
L 170.49567 70.588474 
L 169.3784 70.83651 
L 168.26113 70.992187 
L 167.14386 71.161808 
L 166.02659 71.392501 
L 164.90932 71.533831 
L 163.792051 71.718176 
L 162.674781 71.860131 
L 161.557511 71.944282 
L 160.440241 72.055585 
L 159.322971 72.248246 
L 158.205701 72.415757 
L 157.088431 72.661209 
L 155.971161 72.801283 
L 154.853891 72.957846 
L 153.736622 73.050741 
L 152.619352 73.20504 
L 151.502082 73.344744 
L 150.384812 73.438398 
L 149.267542 73.406752 
L 148.150272 73.471115 
L 147.033002 73.554211 
L 145.915732 73.6351 
L 144.798462 73.678462 
L 143.681193 73.812255 
L 142.563923 73.871852 
L 141.446653 73.980114 
L 140.329383 73.963087 
L 139.212113 73.956998 
L 138.094843 73.962247 
L 136.977573 74.027377 
L 135.860303 73.922826 
L 134.743033 73.917779 
L 133.625763 73.898043 
L 132.508494 73.884631 
L 131.391224 73.872023 
L 130.273954 73.860639 
L 129.156684 73.849697 
L 128.039414 73.839188 
L 126.922144 73.878842 
L 125.804874 73.903711 
L 124.687604 73.944026 
L 123.570334 73.985426 
L 122.453065 74.000005 
L 121.335795 73.944037 
L 120.218525 73.88807 
L 119.101255 73.83863 
L 117.983985 73.83636 
L 116.866715 73.842901 
L 115.749445 73.850487 
L 114.632175 73.767801 
L 113.514905 73.849365 
L 112.397636 73.876939 
L 111.280366 73.886415 
L 110.163096 73.947188 
L 109.045826 73.865143 
L 107.928556 73.783571 
L 106.811286 73.776995 
L 105.694016 73.812421 
L 104.576746 73.847847 
L 103.459476 73.828671 
L 102.342207 73.801527 
L 101.224937 73.799124 
L 100.107667 73.817077 
L 98.990397 73.834078 
L 97.873127 73.845527 
L 96.755857 73.868906 
L 95.638587 73.885609 
z
" clip-path="url(#p056324b185)" style="fill: #ff7f0e; fill-opacity: 0.15"/>
   </g>
   <g id="matplotlib.axis_1">
    <g id="xtick_1">
     <g id="line2d_3">
      <defs>
       <path id="m8fef7ab800" d="M 0 0 
L 0 3.5 
" style="stroke: #000000; stroke-width: 0.8"/>
      </defs>
      <g>
       <use xlink:href="#m8fef7ab800" x="57.470028" y="175.930435" style="stroke: #000000; stroke-width: 0.8"/>
      </g>
     </g>
     <g id="text_1">
      <text style="font: 10px 'inter', sans-serif; text-anchor: middle" x="57.470028" y="190.205435" transform="rotate(-0 57.470028 190.205435)">−2</text>
     </g>
    </g>
    <g id="xtick_2">
     <g id="line2d_4">
      <g>
       <use xlink:href="#m8fef7ab800" x="95.515483" y="175.930435" style="stroke: #000000; stroke-width: 0.8"/>
      </g>
     </g>
     <g id="text_2">
      <text style="font: 10px 'inter', sans-serif; text-anchor: middle" x="95.515483" y="190.205435" transform="rotate(-0 95.515483 190.205435)">−1</text>
     </g>
    </g>
    <g id="xtick_3">
     <g id="line2d_5">
      <g>
       <use xlink:href="#m8fef7ab800" x="133.560938" y="175.930435" style="stroke: #000000; stroke-width: 0.8"/>
      </g>
     </g>
     <g id="text_3">
      <text style="font: 10px 'inter', sans-serif; text-anchor: middle" x="133.560938" y="190.205435" transform="rotate(-0 133.560938 190.205435)">0</text>
     </g>
    </g>
    <g id="xtick_4">
     <g id="line2d_6">
      <g>
       <use xlink:href="#m8fef7ab800" x="171.606392" y="175.930435" style="stroke: #000000; stroke-width: 0.8"/>
      </g>
     </g>
     <g id="text_4">
      <text style="font: 10px 'inter', sans-serif; text-anchor: middle" x="171.606392" y="190.205435" transform="rotate(-0 171.606392 190.205435)">1</text>
     </g>
    </g>
    <g id="xtick_5">
     <g id="line2d_7">
      <g>
       <use xlink:href="#m8fef7ab800" x="209.651847" y="175.930435" style="stroke: #000000; stroke-width: 0.8"/>
      </g>
     </g>
     <g id="text_5">
      <text style="font: 10px 'inter', sans-serif; text-anchor: middle" x="209.651847" y="190.205435" transform="rotate(-0 209.651847 190.205435)">2</text>
     </g>
    </g>
    <g id="text_6">
     <text style="font: 10px 'inter', sans-serif; text-anchor: middle" x="133.560938" y="203.52106" transform="rotate(-0 133.560938 203.52106)">48 h starved</text>
    </g>
   </g>
   <g id="matplotlib.axis_2">
    <g id="ytick_1">
     <g id="line2d_8">
      <defs>
       <path id="m313391e0ae" d="M 0 0 
L -3.5 0 
" style="stroke: #000000; stroke-width: 0.8"/>
      </defs>
      <g>
       <use xlink:href="#m313391e0ae" x="49.860938" y="168.26087" style="stroke: #000000; stroke-width: 0.8"/>
      </g>
     </g>
     <g id="text_7">
      <text style="font: 10px 'inter', sans-serif; text-anchor: end" x="42.860938" y="171.89837" transform="rotate(-0 42.860938 171.89837)">−1.0</text>
     </g>
    </g>
    <g id="ytick_2">
     <g id="line2d_9">
      <g>
       <use xlink:href="#m313391e0ae" x="49.860938" y="129.913043" style="stroke: #000000; stroke-width: 0.8"/>
      </g>
     </g>
     <g id="text_8">
      <text style="font: 10px 'inter', sans-serif; text-anchor: end" x="42.860938" y="133.550543" transform="rotate(-0 42.860938 133.550543)">−0.5</text>
     </g>
    </g>
    <g id="ytick_3">
     <g id="line2d_10">
      <g>
       <use xlink:href="#m313391e0ae" x="49.860938" y="91.565217" style="stroke: #000000; stroke-width: 0.8"/>
      </g>
     </g>
     <g id="text_9">
      <text style="font: 10px 'inter', sans-serif; text-anchor: end" x="42.860938" y="95.202717" transform="rotate(-0 42.860938 95.202717)">0.0</text>
     </g>
    </g>
    <g id="ytick_4">
     <g id="line2d_11">
      <g>
       <use xlink:href="#m313391e0ae" x="49.860938" y="53.217391" style="stroke: #000000; stroke-width: 0.8"/>
      </g>
     </g>
     <g id="text_10">
      <text style="font: 10px 'inter', sans-serif; text-anchor: end" x="42.860938" y="56.854891" transform="rotate(-0 42.860938 56.854891)">0.5</text>
     </g>
    </g>
    <g id="ytick_5">
     <g id="line2d_12">
      <g>
       <use xlink:href="#m313391e0ae" x="49.860938" y="14.869565" style="stroke: #000000; stroke-width: 0.8"/>
      </g>
     </g>
     <g id="text_11">
      <text style="font: 10px 'inter', sans-serif; text-anchor: end" x="42.860938" y="18.507065" transform="rotate(-0 42.860938 18.507065)">1.0</text>
     </g>
    </g>
    <g id="text_12">
     <text style="font: 10px 'inter', sans-serif; text-anchor: middle" x="14.817188" y="91.565217" transform="rotate(-90 14.817188 91.565217)">Optogenetic Effect Size</text>
    </g>
   </g>
   <g id="line2d_13">
    <path d="M 95.638587 94.516228 
L 96.755857 94.549391 
L 97.873127 94.582554 
L 98.990397 94.615717 
L 100.107667 94.64888 
L 101.224937 94.682044 
L 102.342207 94.715207 
L 103.459476 94.74837 
L 104.576746 94.781533 
L 105.694016 94.814696 
L 106.811286 94.847859 
L 107.928556 94.881022 
L 109.045826 94.914185 
L 110.163096 94.947348 
L 111.280366 94.980511 
L 112.397636 95.013674 
L 113.514905 95.046837 
L 114.632175 95.08 
L 115.749445 95.113163 
L 116.866715 95.146326 
L 117.983985 95.179489 
L 119.101255 95.212652 
L 120.218525 95.245815 
L 121.335795 95.278978 
L 122.453065 95.312141 
L 123.570334 95.345305 
L 124.687604 95.378468 
L 125.804874 95.411631 
L 126.922144 95.444794 
L 128.039414 95.477957 
L 129.156684 95.51112 
L 130.273954 95.544283 
L 131.391224 95.577446 
L 132.508494 95.610609 
L 133.625763 95.643772 
L 134.743033 95.676935 
L 135.860303 95.710098 
L 136.977573 95.743261 
L 138.094843 95.776424 
L 139.212113 95.809587 
L 140.329383 95.84275 
L 141.446653 95.875913 
L 142.563923 95.909076 
L 143.681193 95.942239 
L 144.798462 95.975402 
L 145.915732 96.008565 
L 147.033002 96.041729 
L 148.150272 96.074892 
L 149.267542 96.108055 
L 150.384812 96.141218 
L 151.502082 96.174381 
L 152.619352 96.207544 
L 153.736622 96.240707 
L 154.853891 96.27387 
L 155.971161 96.307033 
L 157.088431 96.340196 
L 158.205701 96.373359 
L 159.322971 96.406522 
L 160.440241 96.439685 
L 161.557511 96.472848 
L 162.674781 96.506011 
L 163.792051 96.539174 
L 164.90932 96.572337 
L 166.02659 96.6055 
L 167.14386 96.638663 
L 168.26113 96.671826 
L 169.3784 96.70499 
L 170.49567 96.738153 
L 171.61294 96.771316 
L 172.73021 96.804479 
L 173.84748 96.837642 
L 174.964749 96.870805 
L 176.082019 96.903968 
L 177.199289 96.937131 
L 178.316559 96.970294 
L 179.433829 97.003457 
L 180.551099 97.03662 
L 181.668369 97.069783 
L 182.785639 97.102946 
L 183.902909 97.136109 
L 185.020178 97.169272 
L 186.137448 97.202435 
L 187.254718 97.235598 
L 188.371988 97.268761 
L 189.489258 97.301924 
L 190.606528 97.335087 
L 191.723798 97.368251 
L 192.841068 97.401414 
L 193.958338 97.434577 
L 195.075607 97.46774 
L 196.192877 97.500903 
L 197.310147 97.534066 
L 198.427417 97.567229 
L 199.544687 97.600392 
L 200.661957 97.633555 
L 201.779227 97.666718 
L 202.896497 97.699881 
L 204.013767 97.733044 
L 205.131036 97.766207 
L 206.248306 97.79937 
" clip-path="url(#p056324b185)" style="fill: none; stroke: #1f77b4; stroke-width: 2.25; stroke-linecap: square"/>
   </g>
   <g id="line2d_14">
    <path d="M 95.638587 91.273314 
L 96.755857 91.043411 
L 97.873127 90.813509 
L 98.990397 90.583606 
L 100.107667 90.353703 
L 101.224937 90.123801 
L 102.342207 89.893898 
L 103.459476 89.663995 
L 104.576746 89.434093 
L 105.694016 89.20419 
L 106.811286 88.974288 
L 107.928556 88.744385 
L 109.045826 88.514482 
L 110.163096 88.28458 
L 111.280366 88.054677 
L 112.397636 87.824774 
L 113.514905 87.594872 
L 114.632175 87.364969 
L 115.749445 87.135066 
L 116.866715 86.905164 
L 117.983985 86.675261 
L 119.101255 86.445359 
L 120.218525 86.215456 
L 121.335795 85.985553 
L 122.453065 85.755651 
L 123.570334 85.525748 
L 124.687604 85.295845 
L 125.804874 85.065943 
L 126.922144 84.83604 
L 128.039414 84.606138 
L 129.156684 84.376235 
L 130.273954 84.146332 
L 131.391224 83.91643 
L 132.508494 83.686527 
L 133.625763 83.456624 
L 134.743033 83.226722 
L 135.860303 82.996819 
L 136.977573 82.766917 
L 138.094843 82.537014 
L 139.212113 82.307111 
L 140.329383 82.077209 
L 141.446653 81.847306 
L 142.563923 81.617403 
L 143.681193 81.387501 
L 144.798462 81.157598 
L 145.915732 80.927696 
L 147.033002 80.697793 
L 148.150272 80.46789 
L 149.267542 80.237988 
L 150.384812 80.008085 
L 151.502082 79.778182 
L 152.619352 79.54828 
L 153.736622 79.318377 
L 154.853891 79.088474 
L 155.971161 78.858572 
L 157.088431 78.628669 
L 158.205701 78.398767 
L 159.322971 78.168864 
L 160.440241 77.938961 
L 161.557511 77.709059 
L 162.674781 77.479156 
L 163.792051 77.249253 
L 164.90932 77.019351 
L 166.02659 76.789448 
L 167.14386 76.559546 
L 168.26113 76.329643 
L 169.3784 76.09974 
L 170.49567 75.869838 
L 171.61294 75.639935 
L 172.73021 75.410032 
L 173.84748 75.18013 
L 174.964749 74.950227 
L 176.082019 74.720325 
L 177.199289 74.490422 
L 178.316559 74.260519 
L 179.433829 74.030617 
L 180.551099 73.800714 
L 181.668369 73.570811 
L 182.785639 73.340909 
L 183.902909 73.111006 
L 185.020178 72.881103 
L 186.137448 72.651201 
L 187.254718 72.421298 
L 188.371988 72.191396 
L 189.489258 71.961493 
L 190.606528 71.73159 
L 191.723798 71.501688 
L 192.841068 71.271785 
L 193.958338 71.041882 
L 195.075607 70.81198 
L 196.192877 70.582077 
L 197.310147 70.352175 
L 198.427417 70.122272 
L 199.544687 69.892369 
L 200.661957 69.662467 
L 201.779227 69.432564 
L 202.896497 69.202661 
L 204.013767 68.972759 
L 205.131036 68.742856 
L 206.248306 68.512954 
" clip-path="url(#p056324b185)" style="fill: none; stroke: #ff7f0e; stroke-width: 2.25; stroke-linecap: square"/>
   </g>
   <g id="patch_3">
    <path d="M 49.860938 175.930435 
L 49.860938 7.2 
" style="fill: none; stroke: #000000; stroke-width: 0.8; stroke-linejoin: miter; stroke-linecap: square"/>
   </g>
   <g id="patch_4">
    <path d="M 217.260938 175.930435 
L 217.260938 7.2 
" style="fill: none; stroke: #000000; stroke-width: 0.8; stroke-linejoin: miter; stroke-linecap: square"/>
   </g>
   <g id="patch_5">
    <path d="M 49.860938 175.930435 
L 217.260938 175.930435 
" style="fill: none; stroke: #000000; stroke-width: 0.8; stroke-linejoin: miter; stroke-linecap: square"/>
   </g>
   <g id="patch_6">
    <path d="M 49.860938 7.2 
L 217.260938 7.2 
" style="fill: none; stroke: #000000; stroke-width: 0.8; stroke-linejoin: miter; stroke-linecap: square"/>
   </g>
   <g id="text_13">
    <!-- $r^{2} = $0.14 -->
    <g style="fill: #ff7f0e" transform="translate(152.583665 145.252174)">
     <text>
      <tspan style="font: oblique 11px 'DejaVu Sans'" x="0" y="-0.06875000000000142">r</tspan>
      <tspan style="font: 7.7px 'DejaVu Sans'" x="5.033424" y="-4.279687500000001">2</tspan>
      <tspan style="font: 11px 'DejaVu Sans'" x="12.376247" y="-0.06875000000000142">=</tspan>
      <tspan style="font: 500 11px 'Inter'" x="23.73611 30.836696 34.172145 38.737575" y="-0.06875000000000142">0.14</tspan>
     </text>
    </g>
   </g>
   <g id="text_14">
    <!-- $r^{2} = $0.00 -->
    <g style="fill: #1f77b4" transform="translate(152.583665 160.591304)">
     <text>
      <tspan style="font: oblique 11px 'DejaVu Sans'" x="0" y="-0.06875000000000142">r</tspan>
      <tspan style="font: 7.7px 'DejaVu Sans'" x="5.033424" y="-4.279687500000001">2</tspan>
      <tspan style="font: 11px 'DejaVu Sans'" x="12.376247" y="-0.06875000000000142">=</tspan>
      <tspan style="font: 500 11px 'Inter'" x="23.73611 30.836696 34.172145 41.272731" y="-0.06875000000000142">0.00</tspan>
     </text>
    </g>
   </g>
   <g id="legend_1">
    <g id="patch_7">
     <path d="M 56.160938 40.168125 
L 170.872969 40.168125 
Q 172.672969 40.168125 172.672969 38.368125 
L 172.672969 13.5 
Q 172.672969 11.7 170.872969 11.7 
L 56.160938 11.7 
Q 54.360938 11.7 54.360938 13.5 
L 54.360938 38.368125 
Q 54.360938 40.168125 56.160938 40.168125 
z
" style="fill: #ffffff; opacity: 0.8; stroke: #cccccc; stroke-linejoin: miter"/>
    </g>
    <g id="PathCollection_3">
     <g>
      <use xlink:href="#mfb8daf2894" x="66.960938" y="19.485" style="fill: #1f77b4; fill-opacity: 0.8; stroke: #1f77b4; stroke-opacity: 0.8"/>
     </g>
    </g>
    <g id="text_15">
     <text style="font: 9px 'inter', sans-serif; text-anchor: start" x="83.160938" y="21.8475" transform="rotate(-0 83.160938 21.8475)">Trhn&gt;Gluti</text>
    </g>
    <g id="PathCollection_4">
     <g>
      <use xlink:href="#m6324cc018d" x="66.960938" y="32.369062" style="fill: #ff7f0e; fill-opacity: 0.8; stroke: #ff7f0e; stroke-opacity: 0.8"/>
     </g>
    </g>
    <g id="text_16">
     <text style="font: 9px 'inter', sans-serif; text-anchor: start" x="83.160938" y="34.731562" transform="rotate(-0 83.160938 34.731562)">Trhn-AND-tsh&gt;Gluti</text>
    </g>
   </g>
  </g>
  <g id="axes_2">
   <g id="patch_8">
    <path d="M 49.860938 395.28 
L 217.260938 395.28 
L 217.260938 226.549565 
L 49.860938 226.549565 
z
" style="fill: #ffffff"/>
   </g>
   <g id="line2d_15">
    <path d="M 57.470028 310.914783 
L 209.651847 310.914783 
" clip-path="url(#p7b0c7a1000)" style="fill: none; stroke: #d3d3d3; stroke-width: 0.5; stroke-linecap: square"/>
   </g>
   <g id="line2d_16">
    <path d="M 133.560938 387.610435 
L 133.560938 234.21913 
" clip-path="url(#p7b0c7a1000)" style="fill: none; stroke: #d3d3d3; stroke-width: 0.5; stroke-linecap: square"/>
   </g>
   <g id="PathCollection_5">
    <g clip-path="url(#p7b0c7a1000)">
     <use xlink:href="#mfb8daf2894" x="206.248306" y="332.252892" style="fill: #1f77b4; fill-opacity: 0.8; stroke: #1f77b4; stroke-opacity: 0.8"/>
     <use xlink:href="#mfb8daf2894" x="181.363283" y="256.573849" style="fill: #1f77b4; fill-opacity: 0.8; stroke: #1f77b4; stroke-opacity: 0.8"/>
     <use xlink:href="#mfb8daf2894" x="181.217215" y="277.485215" style="fill: #1f77b4; fill-opacity: 0.8; stroke: #1f77b4; stroke-opacity: 0.8"/>
     <use xlink:href="#mfb8daf2894" x="182.211015" y="289.421919" style="fill: #1f77b4; fill-opacity: 0.8; stroke: #1f77b4; stroke-opacity: 0.8"/>
     <use xlink:href="#mfb8daf2894" x="182.966752" y="341.980738" style="fill: #1f77b4; fill-opacity: 0.8; stroke: #1f77b4; stroke-opacity: 0.8"/>
     <use xlink:href="#mfb8daf2894" x="144.550447" y="343.860574" style="fill: #1f77b4; fill-opacity: 0.8; stroke: #1f77b4; stroke-opacity: 0.8"/>
     <use xlink:href="#mfb8daf2894" x="145.785295" y="294.323683" style="fill: #1f77b4; fill-opacity: 0.8; stroke: #1f77b4; stroke-opacity: 0.8"/>
     <use xlink:href="#mfb8daf2894" x="152.850645" y="341.321303" style="fill: #1f77b4; fill-opacity: 0.8; stroke: #1f77b4; stroke-opacity: 0.8"/>
     <use xlink:href="#mfb8daf2894" x="115.105189" y="293.768177" style="fill: #1f77b4; fill-opacity: 0.8; stroke: #1f77b4; stroke-opacity: 0.8"/>
     <use xlink:href="#mfb8daf2894" x="101.197659" y="323.590895" style="fill: #1f77b4; fill-opacity: 0.8; stroke: #1f77b4; stroke-opacity: 0.8"/>
     <use xlink:href="#mfb8daf2894" x="113.661901" y="332.158922" style="fill: #1f77b4; fill-opacity: 0.8; stroke: #1f77b4; stroke-opacity: 0.8"/>
     <use xlink:href="#mfb8daf2894" x="119.421719" y="320.518709" style="fill: #1f77b4; fill-opacity: 0.8; stroke: #1f77b4; stroke-opacity: 0.8"/>
     <use xlink:href="#mfb8daf2894" x="95.638587" y="328.986867" style="fill: #1f77b4; fill-opacity: 0.8; stroke: #1f77b4; stroke-opacity: 0.8"/>
     <use xlink:href="#mfb8daf2894" x="106.93847" y="328.526117" style="fill: #1f77b4; fill-opacity: 0.8; stroke: #1f77b4; stroke-opacity: 0.8"/>
     <use xlink:href="#mfb8daf2894" x="138.695496" y="323.531258" style="fill: #1f77b4; fill-opacity: 0.8; stroke: #1f77b4; stroke-opacity: 0.8"/>
     <use xlink:href="#mfb8daf2894" x="105.727873" y="298.441856" style="fill: #1f77b4; fill-opacity: 0.8; stroke: #1f77b4; stroke-opacity: 0.8"/>
     <use xlink:href="#mfb8daf2894" x="135.473743" y="314.960881" style="fill: #1f77b4; fill-opacity: 0.8; stroke: #1f77b4; stroke-opacity: 0.8"/>
    </g>
   </g>
   <g id="PolyCollection_3">
    <path d="M 95.638587 307.995383 
L 95.638587 336.975862 
L 96.755857 336.500411 
L 97.873127 336.010901 
L 98.990397 335.396104 
L 100.107667 334.97432 
L 101.224937 334.433512 
L 102.342207 333.793204 
L 103.459476 333.089496 
L 104.576746 332.514652 
L 105.694016 331.738458 
L 106.811286 331.16809 
L 107.928556 330.800797 
L 109.045826 330.467563 
L 110.163096 330.01322 
L 111.280366 329.79443 
L 112.397636 329.30199 
L 113.514905 329.011312 
L 114.632175 328.64759 
L 115.749445 328.406966 
L 116.866715 328.000976 
L 117.983985 327.727352 
L 119.101255 327.084943 
L 120.218525 326.728376 
L 121.335795 326.538679 
L 122.453065 326.133604 
L 123.570334 326.067596 
L 124.687604 325.653213 
L 125.804874 325.559737 
L 126.922144 325.444327 
L 128.039414 325.149062 
L 129.156684 325.084304 
L 130.273954 325.072562 
L 131.391224 325.115968 
L 132.508494 325.041156 
L 133.625763 325.036611 
L 134.743033 325.003483 
L 135.860303 325.034984 
L 136.977573 325.286396 
L 138.094843 325.338961 
L 139.212113 325.304044 
L 140.329383 325.183568 
L 141.446653 325.181886 
L 142.563923 325.255545 
L 143.681193 325.430524 
L 144.798462 325.604903 
L 145.915732 325.777079 
L 147.033002 325.804034 
L 148.150272 325.765264 
L 149.267542 325.812657 
L 150.384812 325.985179 
L 151.502082 326.086266 
L 152.619352 326.150367 
L 153.736622 326.368628 
L 154.853891 326.521671 
L 155.971161 326.438393 
L 157.088431 326.689705 
L 158.205701 326.757218 
L 159.322971 326.72625 
L 160.440241 326.889855 
L 161.557511 327.034623 
L 162.674781 327.108525 
L 163.792051 327.179744 
L 164.90932 327.250137 
L 166.02659 327.32053 
L 167.14386 327.471044 
L 168.26113 327.520661 
L 169.3784 327.699771 
L 170.49567 327.957896 
L 171.61294 328.21253 
L 172.73021 328.370851 
L 173.84748 328.363458 
L 174.964749 328.45978 
L 176.082019 328.724258 
L 177.199289 328.798708 
L 178.316559 328.957384 
L 179.433829 329.007102 
L 180.551099 329.191321 
L 181.668369 329.38138 
L 182.785639 329.571724 
L 183.902909 329.759684 
L 185.020178 329.945467 
L 186.137448 330.131251 
L 187.254718 330.317034 
L 188.371988 330.513217 
L 189.489258 330.690213 
L 190.606528 330.852152 
L 191.723798 331.03881 
L 192.841068 331.225468 
L 193.958338 331.412126 
L 195.075607 331.598784 
L 196.192877 331.785442 
L 197.310147 331.9721 
L 198.427417 332.158758 
L 199.544687 332.345416 
L 200.661957 332.532074 
L 201.779227 332.718732 
L 202.896497 332.90539 
L 204.013767 333.092048 
L 205.131036 333.278706 
L 206.248306 333.465364 
L 206.248306 266.975286 
L 206.248306 266.975286 
L 205.131036 267.610606 
L 204.013767 268.245925 
L 202.896497 268.881244 
L 201.779227 269.516563 
L 200.661957 270.153028 
L 199.544687 270.791528 
L 198.427417 271.430028 
L 197.310147 272.068527 
L 196.192877 272.713983 
L 195.075607 273.338521 
L 193.958338 273.971173 
L 192.841068 274.603824 
L 191.723798 275.236476 
L 190.606528 275.869756 
L 189.489258 276.505076 
L 188.371988 277.140395 
L 187.254718 277.775714 
L 186.137448 278.436129 
L 185.020178 279.066339 
L 183.902909 279.677719 
L 182.785639 280.309955 
L 181.668369 280.956969 
L 180.551099 281.587178 
L 179.433829 282.217388 
L 178.316559 282.847598 
L 177.199289 283.48079 
L 176.082019 284.114533 
L 174.964749 284.748276 
L 173.84748 285.382019 
L 172.73021 286.015762 
L 171.61294 286.649649 
L 170.49567 287.407735 
L 169.3784 287.930421 
L 168.26113 288.609803 
L 167.14386 289.289328 
L 166.02659 289.970599 
L 164.90932 290.654778 
L 163.792051 291.418422 
L 162.674781 292.182066 
L 161.557511 292.950364 
L 160.440241 293.556333 
L 159.322971 294.056656 
L 158.205701 294.762241 
L 157.088431 295.416563 
L 155.971161 296.078421 
L 154.853891 296.763917 
L 153.736622 297.456653 
L 152.619352 298.134025 
L 151.502082 298.57761 
L 150.384812 299.12832 
L 149.267542 299.501472 
L 148.150272 300.048384 
L 147.033002 300.593381 
L 145.915732 301.145428 
L 144.798462 301.692377 
L 143.681193 302.238394 
L 142.563923 302.764556 
L 141.446653 303.292405 
L 140.329383 303.790668 
L 139.212113 304.114182 
L 138.094843 304.425301 
L 136.977573 304.674304 
L 135.860303 305.032361 
L 134.743033 305.335891 
L 133.625763 305.642579 
L 132.508494 305.961597 
L 131.391224 306.198338 
L 130.273954 306.399466 
L 129.156684 306.716896 
L 128.039414 307.007091 
L 126.922144 307.250137 
L 125.804874 307.509288 
L 124.687604 307.576156 
L 123.570334 307.794817 
L 122.453065 308.101912 
L 121.335795 308.249109 
L 120.218525 308.329741 
L 119.101255 308.490652 
L 117.983985 308.548006 
L 116.866715 308.659166 
L 115.749445 308.701059 
L 114.632175 308.826808 
L 113.514905 308.674836 
L 112.397636 308.643675 
L 111.280366 308.615637 
L 110.163096 308.532656 
L 109.045826 308.443225 
L 107.928556 308.524978 
L 106.811286 308.621786 
L 105.694016 308.642427 
L 104.576746 308.729197 
L 103.459476 308.65618 
L 102.342207 308.5795 
L 101.224937 308.502113 
L 100.107667 308.317534 
L 98.990397 308.283751 
L 97.873127 308.251539 
L 96.755857 308.18357 
L 95.638587 307.995383 
z
" clip-path="url(#p7b0c7a1000)" style="fill: #1f77b4; fill-opacity: 0.15"/>
   </g>
   <g id="PathCollection_6">
    <g clip-path="url(#p7b0c7a1000)">
     <use xlink:href="#m6324cc018d" x="206.248306" y="256.241112" style="fill: #ff7f0e; fill-opacity: 0.8; stroke: #ff7f0e; stroke-opacity: 0.8"/>
     <use xlink:href="#m6324cc018d" x="181.363283" y="256.681575" style="fill: #ff7f0e; fill-opacity: 0.8; stroke: #ff7f0e; stroke-opacity: 0.8"/>
     <use xlink:href="#m6324cc018d" x="181.217215" y="242.320601" style="fill: #ff7f0e; fill-opacity: 0.8; stroke: #ff7f0e; stroke-opacity: 0.8"/>
     <use xlink:href="#m6324cc018d" x="182.211015" y="253.121614" style="fill: #ff7f0e; fill-opacity: 0.8; stroke: #ff7f0e; stroke-opacity: 0.8"/>
     <use xlink:href="#m6324cc018d" x="182.966752" y="299.143485" style="fill: #ff7f0e; fill-opacity: 0.8; stroke: #ff7f0e; stroke-opacity: 0.8"/>
     <use xlink:href="#m6324cc018d" x="144.550447" y="306.486932" style="fill: #ff7f0e; fill-opacity: 0.8; stroke: #ff7f0e; stroke-opacity: 0.8"/>
     <use xlink:href="#m6324cc018d" x="145.785295" y="293.674672" style="fill: #ff7f0e; fill-opacity: 0.8; stroke: #ff7f0e; stroke-opacity: 0.8"/>
     <use xlink:href="#m6324cc018d" x="152.850645" y="326.060645" style="fill: #ff7f0e; fill-opacity: 0.8; stroke: #ff7f0e; stroke-opacity: 0.8"/>
     <use xlink:href="#m6324cc018d" x="115.105189" y="289.053115" style="fill: #ff7f0e; fill-opacity: 0.8; stroke: #ff7f0e; stroke-opacity: 0.8"/>
     <use xlink:href="#m6324cc018d" x="101.197659" y="367.66688" style="fill: #ff7f0e; fill-opacity: 0.8; stroke: #ff7f0e; stroke-opacity: 0.8"/>
     <use xlink:href="#m6324cc018d" x="113.661901" y="313.270327" style="fill: #ff7f0e; fill-opacity: 0.8; stroke: #ff7f0e; stroke-opacity: 0.8"/>
     <use xlink:href="#m6324cc018d" x="119.421719" y="314.146202" style="fill: #ff7f0e; fill-opacity: 0.8; stroke: #ff7f0e; stroke-opacity: 0.8"/>
     <use xlink:href="#m6324cc018d" x="95.638587" y="297.814974" style="fill: #ff7f0e; fill-opacity: 0.8; stroke: #ff7f0e; stroke-opacity: 0.8"/>
     <use xlink:href="#m6324cc018d" x="106.93847" y="299.300394" style="fill: #ff7f0e; fill-opacity: 0.8; stroke: #ff7f0e; stroke-opacity: 0.8"/>
     <use xlink:href="#m6324cc018d" x="138.695496" y="301.204439" style="fill: #ff7f0e; fill-opacity: 0.8; stroke: #ff7f0e; stroke-opacity: 0.8"/>
     <use xlink:href="#m6324cc018d" x="105.727873" y="283.794463" style="fill: #ff7f0e; fill-opacity: 0.8; stroke: #ff7f0e; stroke-opacity: 0.8"/>
     <use xlink:href="#m6324cc018d" x="135.473743" y="306.919203" style="fill: #ff7f0e; fill-opacity: 0.8; stroke: #ff7f0e; stroke-opacity: 0.8"/>
    </g>
   </g>
   <g id="PolyCollection_4">
    <path d="M 95.638587 303.517131 
L 95.638587 344.069684 
L 96.755857 343.14298 
L 97.873127 342.216276 
L 98.990397 341.289572 
L 100.107667 340.362868 
L 101.224937 339.436164 
L 102.342207 338.50946 
L 103.459476 337.582756 
L 104.576746 336.656052 
L 105.694016 335.729348 
L 106.811286 334.802644 
L 107.928556 333.87594 
L 109.045826 332.944839 
L 110.163096 332.012051 
L 111.280366 331.035132 
L 112.397636 329.895928 
L 113.514905 328.877679 
L 114.632175 327.883503 
L 115.749445 326.789968 
L 116.866715 325.768909 
L 117.983985 324.662993 
L 119.101255 323.701204 
L 120.218525 322.781079 
L 121.335795 321.91655 
L 122.453065 320.954423 
L 123.570334 320.144776 
L 124.687604 319.141272 
L 125.804874 318.087945 
L 126.922144 317.02925 
L 128.039414 316.095753 
L 129.156684 315.401555 
L 130.273954 314.489078 
L 131.391224 313.474199 
L 132.508494 312.456306 
L 133.625763 311.685726 
L 134.743033 310.74773 
L 135.860303 309.963404 
L 136.977573 309.329695 
L 138.094843 308.535632 
L 139.212113 307.729419 
L 140.329383 307.011912 
L 141.446653 306.124681 
L 142.563923 305.680164 
L 143.681193 305.158172 
L 144.798462 304.318825 
L 145.915732 303.579399 
L 147.033002 303.031955 
L 148.150272 302.609961 
L 149.267542 302.14376 
L 150.384812 301.681415 
L 151.502082 301.14947 
L 152.619352 300.754453 
L 153.736622 300.343866 
L 154.853891 300.204236 
L 155.971161 299.816093 
L 157.088431 299.660966 
L 158.205701 299.194902 
L 159.322971 298.758648 
L 160.440241 298.436733 
L 161.557511 298.338828 
L 162.674781 297.727692 
L 163.792051 297.50416 
L 164.90932 297.163191 
L 166.02659 296.765542 
L 167.14386 296.245801 
L 168.26113 295.72606 
L 169.3784 295.206319 
L 170.49567 294.87964 
L 171.61294 294.583482 
L 172.73021 294.287213 
L 173.84748 293.986725 
L 174.964749 293.579304 
L 176.082019 293.164358 
L 177.199289 292.749411 
L 178.316559 292.334465 
L 179.433829 291.919518 
L 180.551099 291.504571 
L 181.668369 291.323207 
L 182.785639 291.243219 
L 183.902909 291.16323 
L 185.020178 291.013599 
L 186.137448 290.715355 
L 187.254718 290.280344 
L 188.371988 289.874891 
L 189.489258 289.66499 
L 190.606528 289.524994 
L 191.723798 289.250901 
L 192.841068 289.066407 
L 193.958338 288.926069 
L 195.075607 288.785731 
L 196.192877 288.645393 
L 197.310147 288.505055 
L 198.427417 288.36198 
L 199.544687 288.217852 
L 200.661957 288.073725 
L 201.779227 287.929597 
L 202.896497 287.785469 
L 204.013767 287.564953 
L 205.131036 287.322753 
L 206.248306 287.080553 
L 206.248306 234.535793 
L 206.248306 234.535793 
L 205.131036 235.614421 
L 204.013767 236.693048 
L 202.896497 237.74411 
L 201.779227 238.684501 
L 200.661957 239.737416 
L 199.544687 240.794546 
L 198.427417 241.852901 
L 197.310147 242.908524 
L 196.192877 243.963668 
L 195.075607 245.018813 
L 193.958338 246.067731 
L 192.841068 247.016898 
L 191.723798 247.966064 
L 190.606528 248.966047 
L 189.489258 250.047205 
L 188.371988 251.129989 
L 187.254718 252.212773 
L 186.137448 253.295557 
L 185.020178 254.378341 
L 183.902909 255.444684 
L 182.785639 256.389542 
L 181.668369 257.232379 
L 180.551099 258.038921 
L 179.433829 258.890399 
L 178.316559 259.732481 
L 177.199289 260.51832 
L 176.082019 261.527242 
L 174.964749 262.229631 
L 173.84748 263.263166 
L 172.73021 264.321921 
L 171.61294 265.239941 
L 170.49567 265.968412 
L 169.3784 266.828987 
L 168.26113 267.735149 
L 167.14386 268.652943 
L 166.02659 269.680573 
L 164.90932 270.469619 
L 163.792051 271.57571 
L 162.674781 272.368276 
L 161.557511 273.181477 
L 160.440241 273.936796 
L 159.322971 274.722704 
L 158.205701 275.509671 
L 157.088431 276.290296 
L 155.971161 277.078268 
L 154.853891 277.627011 
L 153.736622 278.414822 
L 152.619352 279.154033 
L 151.502082 279.882785 
L 150.384812 280.522014 
L 149.267542 281.213777 
L 148.150272 281.797271 
L 147.033002 282.435365 
L 145.915732 283.070506 
L 144.798462 283.615946 
L 143.681193 284.062848 
L 142.563923 284.566118 
L 141.446653 285.084861 
L 140.329383 285.634682 
L 139.212113 286.178514 
L 138.094843 286.945728 
L 136.977573 287.541438 
L 135.860303 288.13443 
L 134.743033 288.718748 
L 133.625763 289.299129 
L 132.508494 289.887151 
L 131.391224 290.47293 
L 130.273954 291.025372 
L 129.156684 291.577081 
L 128.039414 292.011876 
L 126.922144 292.509521 
L 125.804874 293.009619 
L 124.687604 293.509717 
L 123.570334 293.973861 
L 122.453065 294.423295 
L 121.335795 294.942785 
L 120.218525 295.402002 
L 119.101255 295.781224 
L 117.983985 296.22334 
L 116.866715 296.500966 
L 115.749445 297.104933 
L 114.632175 297.517148 
L 113.514905 297.928945 
L 112.397636 298.3413 
L 111.280366 298.759451 
L 110.163096 299.152402 
L 109.045826 299.422572 
L 107.928556 299.693089 
L 106.811286 299.955743 
L 105.694016 300.304218 
L 104.576746 300.670199 
L 103.459476 300.918446 
L 102.342207 301.219831 
L 101.224937 301.529898 
L 100.107667 301.912993 
L 98.990397 302.388937 
L 97.873127 302.816747 
L 96.755857 303.230459 
L 95.638587 303.517131 
z
" clip-path="url(#p7b0c7a1000)" style="fill: #ff7f0e; fill-opacity: 0.15"/>
   </g>
   <g id="matplotlib.axis_3">
    <g id="xtick_6">
     <g id="line2d_17">
      <g>
       <use xlink:href="#m8fef7ab800" x="57.470028" y="395.28" style="stroke: #000000; stroke-width: 0.8"/>
      </g>
     </g>
     <g id="text_17">
      <text style="font: 10px 'inter', sans-serif; text-anchor: middle" x="57.470028" y="409.555" transform="rotate(-0 57.470028 409.555)">−2</text>
     </g>
    </g>
    <g id="xtick_7">
     <g id="line2d_18">
      <g>
       <use xlink:href="#m8fef7ab800" x="95.515483" y="395.28" style="stroke: #000000; stroke-width: 0.8"/>
      </g>
     </g>
     <g id="text_18">
      <text style="font: 10px 'inter', sans-serif; text-anchor: middle" x="95.515483" y="409.555" transform="rotate(-0 95.515483 409.555)">−1</text>
     </g>
    </g>
    <g id="xtick_8">
     <g id="line2d_19">
      <g>
       <use xlink:href="#m8fef7ab800" x="133.560938" y="395.28" style="stroke: #000000; stroke-width: 0.8"/>
      </g>
     </g>
     <g id="text_19">
      <text style="font: 10px 'inter', sans-serif; text-anchor: middle" x="133.560938" y="409.555" transform="rotate(-0 133.560938 409.555)">0</text>
     </g>
    </g>
    <g id="xtick_9">
     <g id="line2d_20">
      <g>
       <use xlink:href="#m8fef7ab800" x="171.606392" y="395.28" style="stroke: #000000; stroke-width: 0.8"/>
      </g>
     </g>
     <g id="text_20">
      <text style="font: 10px 'inter', sans-serif; text-anchor: middle" x="171.606392" y="409.555" transform="rotate(-0 171.606392 409.555)">1</text>
     </g>
    </g>
    <g id="xtick_10">
     <g id="line2d_21">
      <g>
       <use xlink:href="#m8fef7ab800" x="209.651847" y="395.28" style="stroke: #000000; stroke-width: 0.8"/>
      </g>
     </g>
     <g id="text_21">
      <text style="font: 10px 'inter', sans-serif; text-anchor: middle" x="209.651847" y="409.555" transform="rotate(-0 209.651847 409.555)">2</text>
     </g>
    </g>
    <g id="text_22">
     <text style="font: 10px 'inter', sans-serif; text-anchor: middle" x="133.560938" y="422.870625" transform="rotate(-0 133.560938 422.870625)">48 h starved</text>
    </g>
   </g>
   <g id="matplotlib.axis_4">
    <g id="ytick_6">
     <g id="line2d_22">
      <g>
       <use xlink:href="#m313391e0ae" x="49.860938" y="387.610435" style="stroke: #000000; stroke-width: 0.8"/>
      </g>
     </g>
     <g id="text_23">
      <text style="font: 10px 'inter', sans-serif; text-anchor: end" x="42.860938" y="391.247935" transform="rotate(-0 42.860938 391.247935)">−1.0</text>
     </g>
    </g>
    <g id="ytick_7">
     <g id="line2d_23">
      <g>
       <use xlink:href="#m313391e0ae" x="49.860938" y="349.262609" style="stroke: #000000; stroke-width: 0.8"/>
      </g>
     </g>
     <g id="text_24">
      <text style="font: 10px 'inter', sans-serif; text-anchor: end" x="42.860938" y="352.900109" transform="rotate(-0 42.860938 352.900109)">−0.5</text>
     </g>
    </g>
    <g id="ytick_8">
     <g id="line2d_24">
      <g>
       <use xlink:href="#m313391e0ae" x="49.860938" y="310.914783" style="stroke: #000000; stroke-width: 0.8"/>
      </g>
     </g>
     <g id="text_25">
      <text style="font: 10px 'inter', sans-serif; text-anchor: end" x="42.860938" y="314.552283" transform="rotate(-0 42.860938 314.552283)">0.0</text>
     </g>
    </g>
    <g id="ytick_9">
     <g id="line2d_25">
      <g>
       <use xlink:href="#m313391e0ae" x="49.860938" y="272.566957" style="stroke: #000000; stroke-width: 0.8"/>
      </g>
     </g>
     <g id="text_26">
      <text style="font: 10px 'inter', sans-serif; text-anchor: end" x="42.860938" y="276.204457" transform="rotate(-0 42.860938 276.204457)">0.5</text>
     </g>
    </g>
    <g id="ytick_10">
     <g id="line2d_26">
      <g>
       <use xlink:href="#m313391e0ae" x="49.860938" y="234.21913" style="stroke: #000000; stroke-width: 0.8"/>
      </g>
     </g>
     <g id="text_27">
      <text style="font: 10px 'inter', sans-serif; text-anchor: end" x="42.860938" y="237.85663" transform="rotate(-0 42.860938 237.85663)">1.0</text>
     </g>
    </g>
    <g id="text_28">
     <text style="font: 10px 'inter', sans-serif; text-anchor: middle" x="14.934375" y="310.914783" transform="rotate(-90 14.934375 310.914783)">Trhn-AND-tsh&gt;Sut2i</text>
    </g>
   </g>
   <g id="line2d_27">
    <path d="M 95.638587 322.056413 
L 96.755857 321.866318 
L 97.873127 321.676223 
L 98.990397 321.486128 
L 100.107667 321.296033 
L 101.224937 321.105938 
L 102.342207 320.915843 
L 103.459476 320.725748 
L 104.576746 320.535653 
L 105.694016 320.345558 
L 106.811286 320.155463 
L 107.928556 319.965368 
L 109.045826 319.775273 
L 110.163096 319.585178 
L 111.280366 319.395083 
L 112.397636 319.204988 
L 113.514905 319.014893 
L 114.632175 318.824797 
L 115.749445 318.634702 
L 116.866715 318.444607 
L 117.983985 318.254512 
L 119.101255 318.064417 
L 120.218525 317.874322 
L 121.335795 317.684227 
L 122.453065 317.494132 
L 123.570334 317.304037 
L 124.687604 317.113942 
L 125.804874 316.923847 
L 126.922144 316.733752 
L 128.039414 316.543657 
L 129.156684 316.353562 
L 130.273954 316.163467 
L 131.391224 315.973372 
L 132.508494 315.783277 
L 133.625763 315.593182 
L 134.743033 315.403087 
L 135.860303 315.212992 
L 136.977573 315.022896 
L 138.094843 314.832801 
L 139.212113 314.642706 
L 140.329383 314.452611 
L 141.446653 314.262516 
L 142.563923 314.072421 
L 143.681193 313.882326 
L 144.798462 313.692231 
L 145.915732 313.502136 
L 147.033002 313.312041 
L 148.150272 313.121946 
L 149.267542 312.931851 
L 150.384812 312.741756 
L 151.502082 312.551661 
L 152.619352 312.361566 
L 153.736622 312.171471 
L 154.853891 311.981376 
L 155.971161 311.791281 
L 157.088431 311.601186 
L 158.205701 311.411091 
L 159.322971 311.220995 
L 160.440241 311.0309 
L 161.557511 310.840805 
L 162.674781 310.65071 
L 163.792051 310.460615 
L 164.90932 310.27052 
L 166.02659 310.080425 
L 167.14386 309.89033 
L 168.26113 309.700235 
L 169.3784 309.51014 
L 170.49567 309.320045 
L 171.61294 309.12995 
L 172.73021 308.939855 
L 173.84748 308.74976 
L 174.964749 308.559665 
L 176.082019 308.36957 
L 177.199289 308.179475 
L 178.316559 307.98938 
L 179.433829 307.799285 
L 180.551099 307.609189 
L 181.668369 307.419094 
L 182.785639 307.228999 
L 183.902909 307.038904 
L 185.020178 306.848809 
L 186.137448 306.658714 
L 187.254718 306.468619 
L 188.371988 306.278524 
L 189.489258 306.088429 
L 190.606528 305.898334 
L 191.723798 305.708239 
L 192.841068 305.518144 
L 193.958338 305.328049 
L 195.075607 305.137954 
L 196.192877 304.947859 
L 197.310147 304.757764 
L 198.427417 304.567669 
L 199.544687 304.377574 
L 200.661957 304.187479 
L 201.779227 303.997384 
L 202.896497 303.807288 
L 204.013767 303.617193 
L 205.131036 303.427098 
L 206.248306 303.237003 
" clip-path="url(#p7b0c7a1000)" style="fill: none; stroke: #1f77b4; stroke-width: 2.25; stroke-linecap: square"/>
   </g>
   <g id="line2d_28">
    <path d="M 95.638587 320.935579 
L 96.755857 320.295052 
L 97.873127 319.654526 
L 98.990397 319.013999 
L 100.107667 318.373472 
L 101.224937 317.732946 
L 102.342207 317.092419 
L 103.459476 316.451893 
L 104.576746 315.811366 
L 105.694016 315.17084 
L 106.811286 314.530313 
L 107.928556 313.889786 
L 109.045826 313.24926 
L 110.163096 312.608733 
L 111.280366 311.968207 
L 112.397636 311.32768 
L 113.514905 310.687154 
L 114.632175 310.046627 
L 115.749445 309.4061 
L 116.866715 308.765574 
L 117.983985 308.125047 
L 119.101255 307.484521 
L 120.218525 306.843994 
L 121.335795 306.203468 
L 122.453065 305.562941 
L 123.570334 304.922415 
L 124.687604 304.281888 
L 125.804874 303.641361 
L 126.922144 303.000835 
L 128.039414 302.360308 
L 129.156684 301.719782 
L 130.273954 301.079255 
L 131.391224 300.438729 
L 132.508494 299.798202 
L 133.625763 299.157675 
L 134.743033 298.517149 
L 135.860303 297.876622 
L 136.977573 297.236096 
L 138.094843 296.595569 
L 139.212113 295.955043 
L 140.329383 295.314516 
L 141.446653 294.673989 
L 142.563923 294.033463 
L 143.681193 293.392936 
L 144.798462 292.75241 
L 145.915732 292.111883 
L 147.033002 291.471357 
L 148.150272 290.83083 
L 149.267542 290.190303 
L 150.384812 289.549777 
L 151.502082 288.90925 
L 152.619352 288.268724 
L 153.736622 287.628197 
L 154.853891 286.987671 
L 155.971161 286.347144 
L 157.088431 285.706617 
L 158.205701 285.066091 
L 159.322971 284.425564 
L 160.440241 283.785038 
L 161.557511 283.144511 
L 162.674781 282.503985 
L 163.792051 281.863458 
L 164.90932 281.222931 
L 166.02659 280.582405 
L 167.14386 279.941878 
L 168.26113 279.301352 
L 169.3784 278.660825 
L 170.49567 278.020299 
L 171.61294 277.379772 
L 172.73021 276.739246 
L 173.84748 276.098719 
L 174.964749 275.458192 
L 176.082019 274.817666 
L 177.199289 274.177139 
L 178.316559 273.536613 
L 179.433829 272.896086 
L 180.551099 272.25556 
L 181.668369 271.615033 
L 182.785639 270.974506 
L 183.902909 270.33398 
L 185.020178 269.693453 
L 186.137448 269.052927 
L 187.254718 268.4124 
L 188.371988 267.771874 
L 189.489258 267.131347 
L 190.606528 266.49082 
L 191.723798 265.850294 
L 192.841068 265.209767 
L 193.958338 264.569241 
L 195.075607 263.928714 
L 196.192877 263.288188 
L 197.310147 262.647661 
L 198.427417 262.007134 
L 199.544687 261.366608 
L 200.661957 260.726081 
L 201.779227 260.085555 
L 202.896497 259.445028 
L 204.013767 258.804502 
L 205.131036 258.163975 
L 206.248306 257.523448 
" clip-path="url(#p7b0c7a1000)" style="fill: none; stroke: #ff7f0e; stroke-width: 2.25; stroke-linecap: square"/>
   </g>
   <g id="patch_9">
    <path d="M 49.860938 395.28 
L 49.860938 226.549565 
" style="fill: none; stroke: #000000; stroke-width: 0.8; stroke-linejoin: miter; stroke-linecap: square"/>
   </g>
   <g id="patch_10">
    <path d="M 217.260938 395.28 
L 217.260938 226.549565 
" style="fill: none; stroke: #000000; stroke-width: 0.8; stroke-linejoin: miter; stroke-linecap: square"/>
   </g>
   <g id="patch_11">
    <path d="M 49.860938 395.28 
L 217.260938 395.28 
" style="fill: none; stroke: #000000; stroke-width: 0.8; stroke-linejoin: miter; stroke-linecap: square"/>
   </g>
   <g id="patch_12">
    <path d="M 49.860938 226.549565 
L 217.260938 226.549565 
" style="fill: none; stroke: #000000; stroke-width: 0.8; stroke-linejoin: miter; stroke-linecap: square"/>
   </g>
   <g id="text_29">
    <!-- $r^{2} = $0.42 -->
    <g style="fill: #ff7f0e" transform="translate(152.583665 364.601739)">
     <text>
      <tspan style="font: oblique 11px 'DejaVu Sans'" x="0" y="-0.06875000000000142">r</tspan>
      <tspan style="font: 7.7px 'DejaVu Sans'" x="5.033424" y="-4.279687500000001">2</tspan>
      <tspan style="font: 11px 'DejaVu Sans'" x="12.376247" y="-0.06875000000000142">=</tspan>
      <tspan style="font: 500 11px 'Inter'" x="23.73611 30.836696 34.172145 41.390895" y="-0.06875000000000142">0.42</tspan>
     </text>
    </g>
   </g>
   <g id="text_30">
    <!-- $r^{2} = $0.06 -->
    <g style="fill: #1f77b4" transform="translate(152.583665 379.94087)">
     <text>
      <tspan style="font: oblique 11px 'DejaVu Sans'" x="0" y="-0.06875000000000142">r</tspan>
      <tspan style="font: 7.7px 'DejaVu Sans'" x="5.033424" y="-4.279687500000001">2</tspan>
      <tspan style="font: 11px 'DejaVu Sans'" x="12.376247" y="-0.06875000000000142">=</tspan>
      <tspan style="font: 500 11px 'Inter'" x="23.73611 30.836696 34.172145 41.272731" y="-0.06875000000000142">0.06</tspan>
     </text>
    </g>
   </g>
   <g id="legend_2">
    <g id="patch_13">
     <path d="M 56.160938 259.51769 
L 173.241094 259.51769 
Q 175.041094 259.51769 175.041094 257.71769 
L 175.041094 232.849565 
Q 175.041094 231.049565 173.241094 231.049565 
L 56.160938 231.049565 
Q 54.360938 231.049565 54.360938 232.849565 
L 54.360938 257.71769 
Q 54.360938 259.51769 56.160938 259.51769 
z
" style="fill: #ffffff; opacity: 0.8; stroke: #cccccc; stroke-linejoin: miter"/>
    </g>
    <g id="PathCollection_7">
     <g>
      <use xlink:href="#mfb8daf2894" x="66.960938" y="238.834565" style="fill: #1f77b4; fill-opacity: 0.8; stroke: #1f77b4; stroke-opacity: 0.8"/>
     </g>
    </g>
    <g id="text_31">
     <text style="font: 9px 'inter', sans-serif; text-anchor: start" x="83.160938" y="241.197065" transform="rotate(-0 83.160938 241.197065)">Trhn&gt;Sut2i</text>
    </g>
    <g id="PathCollection_8">
     <g>
      <use xlink:href="#m6324cc018d" x="66.960938" y="251.718628" style="fill: #ff7f0e; fill-opacity: 0.8; stroke: #ff7f0e; stroke-opacity: 0.8"/>
     </g>
    </g>
    <g id="text_32">
     <text style="font: 9px 'inter', sans-serif; text-anchor: start" x="83.160938" y="254.081128" transform="rotate(-0 83.160938 254.081128)">Trhn-AND-tsh&gt;Sut2i</text>
    </g>
   </g>
  </g>
 </g>
 <defs>
  <clipPath id="p056324b185">
   <rect x="49.860938" y="7.2" width="167.4" height="168.730435"/>
  </clipPath>
  <clipPath id="p7b0c7a1000">
   <rect x="49.860938" y="226.549565" width="167.4" height="168.730435"/>
  </clipPath>
 </defs>
</svg>
