<?xml version="1.0" encoding="UTF-8"?>
<!DOCTYPE svg PUBLIC "-//W3C//DTD SVG 1.1//EN" "http://www.w3.org/Graphics/SVG/1.1/DTD/svg11.dtd">
<svg version="1.1" xmlns="http://www.w3.org/2000/svg" xmlns:xlink="http://www.w3.org/1999/xlink" x="0" y="0" width="405" height="524" viewBox="0, 0, 405, 524">
  <g id="Background">
    <rect x="0" y="0" width="405" height="524" fill="#FFFFFF"/>
  </g>
  <g id="Layer_1">
    <g opacity="0.3">
      <path d="M152.34,39.95 C153.64,39.88 156.23,39.74 159.64,39.95 C165.04,40.28 169.12,41.27 171.21,41.8 C183.63,44.98 188.2,48.14 196.17,49.83 C205.52,51.82 212.99,50.38 222.34,48.59 C237,45.78 237.6,42.21 247.9,40.56 C265.88,37.69 281.26,45.83 285.03,47.97 C294.62,53.41 292.31,55.83 314.25,75.15 C326.82,86.22 331.54,88.91 334.95,90.59 C348.1,97.06 352.22,93.55 361.12,98 C381.21,108.04 385.38,138.48 386.68,148.03 C388.07,158.2 389.92,171.7 383.64,186.94 C376.11,205.2 358.43,222.27 334.95,225.23 C333.35,225.43 302.11,228.99 289.3,211.64 C285.1,205.95 282.53,197.55 277.13,197.43 C274.03,197.36 272.02,200.06 269.22,202.99 C269.22,202.99 257,215.76 238.79,220.9 C235.26,221.9 235.99,221.18 216.27,221.52 C190.21,221.96 191.42,223.16 184.62,222.14 C176.19,220.87 163.82,219 152.36,210.41 C147.4,206.69 143.47,202.36 136.53,201.76 C135.02,201.63 128.54,201.26 124.36,205.47 C121.67,208.17 121.45,211.23 120.71,213.5 C116.72,225.65 93.13,228.61 90.28,228.94 C66.92,231.64 49.28,217.66 46.45,215.35 C29.25,201.29 25.2,182.23 23.32,173.35 C21.65,165.5 18.09,147.53 26.36,128.26 C33.61,111.37 46.33,101.95 50.1,99.23 C67.53,86.64 79.66,90.21 92.1,75.14 C95.49,71.03 96.8,68.09 102.45,62.17 C107.04,57.36 112.77,51.35 121.93,46.73 C133.28,41 143.93,40.41 152.36,39.94 z" fill="#0071BC"/>
      <path d="M152.34,39.9 C162.54,39.14 172.63,41.62 182.16,45.07 C196.14,50.74 204.3,52.1 219.22,49 C224.2,48.08 229.18,47.04 233.88,45.13 C236.23,44.2 238.5,43.04 240.89,42.15 C246.28,40.12 252.12,39.6 257.84,39.75 C267.4,40.19 276.8,43.04 285.16,47.68 C287.39,48.92 289.54,50.37 291.41,52.13 C300.09,61.4 308.97,70.42 318.79,78.53 C328.74,87.15 338.53,93.94 352.07,94.96 C371.04,97.13 380.58,116.94 384.42,133.61 C385.61,138.56 386.43,143.6 387.08,148.63 C388.56,158.67 389.11,169.07 386.54,178.99 C382.75,193.82 373.17,206.99 360.57,215.59 C347.94,224.49 332.02,227.27 316.87,225.27 C306.9,224.05 296.36,220.71 289.81,212.63 C285.97,208.58 282.83,197.37 276.65,197.7 C273.43,198.06 271.53,201.1 269.37,203.21 C265.73,206.8 261.68,209.92 257.4,212.68 C252.06,216.13 246.25,218.93 240.16,220.81 C236.69,222.24 232.43,221.7 228.76,221.77 C218.61,221.77 208.46,221.98 198.33,222.49 C195.68,222.58 189.46,223.19 186.86,222.85 C178.02,221.78 169.11,220.07 161.02,216.19 C158.72,215.07 156.49,213.81 154.35,212.39 C150.04,209.6 146.53,205.74 141.99,203.67 C135.56,200.79 125.81,201.75 122.62,208.83 C121.61,211.13 121.42,213.83 120.06,216.03 C118.72,218.3 116.76,220.12 114.64,221.58 C108.2,225.86 100.53,227.78 93.01,229.05 C82.91,230.68 72.34,229.38 62.88,225.49 C43.19,217.89 29.55,200.93 24.51,180.64 C21.95,170.78 20.09,160.61 20.77,150.39 C21.88,124.62 39.8,101.26 63.38,91.53 C72.69,87.75 82.96,85.14 89.87,77.35 C93.43,73.74 95.94,69.26 99.3,65.42 C114.45,47.68 129,40.57 152.35,39.91 L152.35,39.91 z M152.35,40 C129.07,40.76 114.61,47.86 99.56,65.64 C96.24,69.46 93.75,73.96 90.16,77.63 C86.69,81.38 82.38,84.31 77.74,86.42 C68.4,90.36 58.53,93.2 50.37,99.43 C33.88,111.11 22.48,130.08 21.69,150.44 C21.09,160.55 22.94,170.63 25.45,180.39 C30.41,200.39 43.82,217.11 63.23,224.6 C72.54,228.43 82.91,229.72 92.85,228.12 C101.94,226.48 113.91,223.81 119.25,215.57 C120.59,213.39 120.72,210.81 121.77,208.46 C125.18,200.89 135.49,199.75 142.37,202.85 C145.78,204.43 148.89,207.11 151.8,209.43 C160.79,216.54 171.97,219.96 183.19,221.53 C187.5,222.65 193.87,221.9 198.29,221.73 C208.45,221.26 218.6,221.1 228.76,221.12 C232.56,221.05 236.36,221.63 239.98,220.23 C246.02,218.39 251.79,215.64 257.1,212.23 C261.36,209.5 265.4,206.4 269,202.87 C271.32,200.61 273.49,197.21 277.11,197.22 C278.94,197.27 280.61,198.34 281.8,199.64 C285.22,203.54 286.93,208.48 290.15,212.37 C296.59,220.36 307.04,223.69 316.91,224.92 C343.44,228.77 367.58,216.36 380.5,192.94 C385.4,184.07 387.89,173.96 387.77,163.84 C387.55,153.74 385.99,143.61 383.77,133.77 C380.28,119.5 373.56,103.73 359.23,97.6 C354.54,95.57 349.34,95.81 344.41,94.58 C339.43,93.34 334.68,91.26 330.35,88.52 C317.83,79.78 306.61,69.27 296.16,58.17 C294.44,56.3 292.79,54.36 290.96,52.65 C285.33,47.59 278.07,44.62 270.89,42.46 C263.61,40.37 255.9,39.68 248.39,40.77 C243.29,41.34 238.72,43.57 234.05,45.55 C229.32,47.45 224.3,48.48 219.3,49.38 C211.83,50.82 204.08,51.71 196.56,50.07 C191.54,49.09 186.85,47.03 182.09,45.3 C172.59,41.83 162.54,39.3 152.35,40.03 L152.35,40.03 z" fill="#0071BC"/>
    </g>
    <g opacity="0.3">
      <path d="M208.01,233.79 C178.73,234.51 176.15,231.85 166.38,235.14 C161.3,236.85 151.27,240.24 147.46,249.33 C144.83,255.59 146.56,261.18 148.09,268.92 C151.85,287.97 151.2,303.83 150.61,318.24 C150.33,325.08 149.32,340.61 149.98,356.75 C150.17,361.34 150.51,366.47 153.76,370.94 C157.45,376.02 161.37,375.4 163.85,380.4 C166.13,384.99 165.61,391.13 163.22,395.26 C160.34,400.25 156.58,399.1 151.87,403.37 C144.5,410.04 143.33,422.2 144.3,429.72 C144.9,434.33 146.3,437.21 154.39,449.99 C165.59,467.68 172.2,476.84 180.25,486.48 C187.51,495.17 191.96,499.47 198.54,500.67 C202.13,501.32 205.87,500.96 210.52,499.32 C215.74,497.48 227.49,492.12 247.1,462.83 C262.72,439.51 263.38,430.79 263.5,427.69 C263.71,422.21 264.16,410.14 257.19,403.37 C254,400.27 250.33,399.32 247.1,393.91 C246.12,392.27 243.85,388.46 243.95,383.77 C244.1,376.73 249.46,374.75 253.41,366.88 C257.08,359.57 256.86,352.54 256.56,343.23 C256.09,328.51 251.85,326.89 253.41,316.88 C254.62,309.07 257.27,309.57 260.98,297.29 C262.58,291.98 264.31,284.5 264.76,275.67 C265.35,264.04 265.72,256.81 261.61,249.99 C256.42,241.39 247.19,238.6 240.16,236.48 C233.08,234.34 226.17,234.07 218.71,233.78 C214.12,233.6 210.95,233.71 207.99,233.78 z" fill="#0071BC"/>
      <path d="M208.02,233.84 C200.68,234.04 193.33,234.06 185.98,233.82 C180.5,233.73 174.94,233.08 169.56,234.38 C161.01,236.71 151.47,240.63 147.74,249.28 C144.67,256.22 147.56,263.71 148.74,270.77 C150.12,278 150.9,285.34 151.25,292.69 C152.19,314.72 149.21,336.73 150.47,358.76 C150.69,364.15 152.19,369.79 156.46,373.34 C159.27,375.57 163.14,377.17 164.43,380.88 C167.2,387.57 165.3,397.37 157.9,400.07 C145.41,404.78 142.45,421.15 145.15,432.85 C147.56,439.75 152.09,445.77 155.86,451.99 C163.75,464.37 172.01,476.55 181.59,487.69 C186.27,493.07 191.35,499.22 198.75,500.44 C219.47,503.36 237.36,476.24 247.65,461.26 C253.51,452.07 259.64,442.66 262.46,432.05 C263.3,428.53 263.18,424.81 263.11,421.21 C262.94,417.58 262.44,413.94 261.18,410.56 C259.95,407.17 257.84,404.13 254.89,402.05 C253.44,400.98 251.86,399.97 250.46,398.72 C246.4,394.9 243.51,389.49 243.51,383.78 C243.45,379.9 245.82,376.54 248.22,373.75 C256.43,364.58 256.69,354.69 256.1,343.03 C255.97,339.38 255.57,335.76 254.74,332.21 C253.95,328.69 252.65,325.12 252.66,321.32 C252.63,319.44 252.85,317.58 253.2,315.75 C254.19,310.24 258,305.81 259.57,300.49 C261.99,293.6 263.55,286.38 264.25,279.1 C264.78,268.5 266.91,256.26 259.57,247.44 C254.9,241.65 247.72,238.88 240.78,236.82 C230.22,233.63 218.97,233.74 208.03,233.84 L208.03,233.84 z M208.01,233.74 C218.97,233.57 230.24,233.41 240.84,236.54 C247.84,238.57 255.12,241.35 259.86,247.17 C267.34,256.06 265.31,268.42 264.84,279.14 C263.97,288.29 261.98,297.46 258.21,305.88 C256.64,309.19 254.59,312.23 254.05,315.91 C252.75,321.4 254.25,326.59 255.68,331.97 C256.52,335.58 256.93,339.29 257.05,342.98 C257.65,354.89 257.32,364.96 248.93,374.35 C246.6,377.08 244.41,380.07 244.43,383.79 C244.41,389.09 247.2,394.4 251.05,398 C252.39,399.2 253.92,400.18 255.42,401.28 C258.5,403.45 260.76,406.72 262.02,410.22 C263.33,413.74 263.83,417.47 264,421.16 C264.08,424.87 264.19,428.61 263.32,432.25 C260.45,443 254.3,452.49 248.35,461.73 C237.8,476.94 219.66,504.05 198.62,500.97 C191.06,499.71 185.92,493.46 181.19,487.99 C171.64,476.8 163.41,464.57 155.55,452.16 C151.78,445.87 147.21,439.95 144.75,432.96 C142.32,422.8 144.2,409.14 152.79,402.28 C154.96,400.5 157.71,399.76 160.04,398.31 C163.8,395.72 165.1,390.75 164.97,386.36 C164.37,375.26 156.76,377.39 152.42,369.54 C150.54,366.26 149.9,362.47 149.69,358.8 C148.29,336.73 151.25,314.75 150.51,292.72 C150.21,285.4 149.46,278.09 148.14,270.88 C146.98,263.76 144.14,256.13 147.3,249.11 C151.15,240.33 160.78,236.41 169.47,234.09 C174.88,232.81 180.49,233.49 185.97,233.61 C193.31,233.88 200.65,233.91 208,233.74 L208,233.74 z" fill="#0071BC"/>
    </g>
  </g>
</svg>
