<?xml version="1.0" encoding="utf-8" standalone="no"?>
<!DOCTYPE svg PUBLIC "-//W3C//DTD SVG 1.1//EN"
  "http://www.w3.org/Graphics/SVG/1.1/DTD/svg11.dtd">
<svg xmlns:xlink="http://www.w3.org/1999/xlink" width="324pt" height="288pt" viewBox="0 0 324 288" xmlns="http://www.w3.org/2000/svg" version="1.1">
 <metadata>
  <rdf:RDF xmlns:dc="http://purl.org/dc/elements/1.1/" xmlns:cc="http://creativecommons.org/ns#" xmlns:rdf="http://www.w3.org/1999/02/22-rdf-syntax-ns#">
   <cc:Work>
    <dc:type rdf:resource="http://purl.org/dc/dcmitype/StillImage"/>
    <dc:date>2025-02-16T01:52:56.465413</dc:date>
    <dc:format>image/svg+xml</dc:format>
    <dc:creator>
     <cc:Agent>
      <dc:title>Matplotlib v3.6.3, https://matplotlib.org/</dc:title>
     </cc:Agent>
    </dc:creator>
   </cc:Work>
  </rdf:RDF>
 </metadata>
 <defs>
  <style type="text/css">*{stroke-linejoin: round; stroke-linecap: butt}</style>
 </defs>
 <g id="figure_1">
  <g id="patch_1">
   <path d="M 0 288 
L 324 288 
L 324 0 
L 0 0 
z
" style="fill: #ffffff"/>
  </g>
  <g id="axes_1">
   <g id="patch_2">
    <path d="M 50.9625 127.997502 
L 71.8875 127.997502 
L 71.8875 125.422396 
L 50.9625 125.422396 
z
" clip-path="url(#p8eb8125686)" style="opacity: 0.05; stroke: #000000; stroke-linejoin: miter"/>
   </g>
   <g id="patch_3">
    <path d="M 92.8125 127.997502 
L 113.7375 127.997502 
L 113.7375 90.858821 
L 92.8125 90.858821 
z
" clip-path="url(#p8eb8125686)" style="opacity: 0.05; stroke: #000000; stroke-linejoin: miter"/>
   </g>
   <g id="patch_4">
    <path d="M 134.6625 127.997502 
L 155.5875 127.997502 
L 155.5875 117.891693 
L 134.6625 117.891693 
z
" clip-path="url(#p8eb8125686)" style="opacity: 0.05; stroke: #000000; stroke-linejoin: miter"/>
   </g>
   <g id="patch_5">
    <path d="M 176.5125 127.997502 
L 197.4375 127.997502 
L 197.4375 82.550993 
L 176.5125 82.550993 
z
" clip-path="url(#p8eb8125686)" style="opacity: 0.05; stroke: #000000; stroke-linejoin: miter"/>
   </g>
   <g id="PathCollection_1">
    <defs>
     <path id="C0_0_14c08c0ae4" d="M 0 0.632456 
C 0.167729 0.632456 0.328611 0.565816 0.447214 0.447214 
C 0.565816 0.328611 0.632456 0.167729 0.632456 -0 
C 0.632456 -0.167729 0.565816 -0.328611 0.447214 -0.447214 
C 0.328611 -0.565816 0.167729 -0.632456 0 -0.632456 
C -0.167729 -0.632456 -0.328611 -0.565816 -0.447214 -0.447214 
C -0.565816 -0.328611 -0.632456 -0.167729 -0.632456 0 
C -0.632456 0.167729 -0.565816 0.328611 -0.447214 0.447214 
C -0.328611 0.565816 -0.167729 0.632456 0 0.632456 
z
"/>
    </defs>
    <g clip-path="url(#p8eb8125686)">
     <use xlink:href="#C0_0_14c08c0ae4" x="61.425" y="126.594783" style="fill: #808080; stroke: #808080"/>
    </g>
    <g clip-path="url(#p8eb8125686)">
     <use xlink:href="#C0_0_14c08c0ae4" x="63.046804" y="126.497288" style="fill: #808080; stroke: #808080"/>
    </g>
    <g clip-path="url(#p8eb8125686)">
     <use xlink:href="#C0_0_14c08c0ae4" x="64.669907" y="126.492994" style="fill: #808080; stroke: #808080"/>
    </g>
    <g clip-path="url(#p8eb8125686)">
     <use xlink:href="#C0_0_14c08c0ae4" x="66.292751" y="126.449278" style="fill: #808080; stroke: #808080"/>
    </g>
    <g clip-path="url(#p8eb8125686)">
     <use xlink:href="#C0_0_14c08c0ae4" x="67.915841" y="126.438672" style="stroke: #000000"/>
    </g>
    <g clip-path="url(#p8eb8125686)">
     <use xlink:href="#C0_0_14c08c0ae4" x="69.536916" y="126.316923" style="fill: #808080; stroke: #808080"/>
    </g>
    <g clip-path="url(#p8eb8125686)">
     <use xlink:href="#C0_0_14c08c0ae4" x="71.159982" y="126.299896" style="fill: #808080; stroke: #808080"/>
    </g>
    <g clip-path="url(#p8eb8125686)">
     <use xlink:href="#C0_0_14c08c0ae4" x="72.783018" y="126.277353" style="stroke: #000000"/>
    </g>
    <g clip-path="url(#p8eb8125686)">
     <use xlink:href="#C0_0_14c08c0ae4" x="74.40609" y="126.261593" style="fill: #808080; stroke: #808080"/>
    </g>
    <g clip-path="url(#p8eb8125686)">
     <use xlink:href="#C0_0_14c08c0ae4" x="76.029195" y="126.260447" style="fill: #808080; stroke: #808080"/>
    </g>
    <g clip-path="url(#p8eb8125686)">
     <use xlink:href="#C0_0_14c08c0ae4" x="77.652292" y="126.252355" style="stroke: #000000"/>
    </g>
    <g clip-path="url(#p8eb8125686)">
     <use xlink:href="#C0_0_14c08c0ae4" x="79.275352" y="126.234224" style="fill: #808080; stroke: #808080"/>
    </g>
    <g clip-path="url(#p8eb8125686)">
     <use xlink:href="#C0_0_14c08c0ae4" x="61.425" y="123.337267" style="stroke: #000000"/>
    </g>
    <g clip-path="url(#p8eb8125686)">
     <use xlink:href="#C0_0_14c08c0ae4" x="63.016103" y="122.856184" style="stroke: #000000"/>
    </g>
    <g clip-path="url(#p8eb8125686)">
     <use xlink:href="#C0_0_14c08c0ae4" x="64.530821" y="121.981409" style="fill: #808080; stroke: #808080"/>
    </g>
    <g clip-path="url(#p8eb8125686)">
     <use xlink:href="#C0_0_14c08c0ae4" x="66.15206" y="121.864686" style="stroke: #000000"/>
    </g>
    <g clip-path="url(#p8eb8125686)">
     <use xlink:href="#C0_0_14c08c0ae4" x="67.72253" y="121.249696" style="fill: #808080; stroke: #808080"/>
    </g>
    <g clip-path="url(#p8eb8125686)">
     <use xlink:href="#C0_0_14c08c0ae4" x="61.425" y="120.337397" style="fill: #808080; stroke: #808080"/>
    </g>
   </g>
   <g id="PathCollection_2">
    <defs>
     <path id="C1_0_a7bc85a86f" d="M 0 0.632456 
C 0.167729 0.632456 0.328611 0.565816 0.447214 0.447214 
C 0.565816 0.328611 0.632456 0.167729 0.632456 -0 
C 0.632456 -0.167729 0.565816 -0.328611 0.447214 -0.447214 
C 0.328611 -0.565816 0.167729 -0.632456 0 -0.632456 
C -0.167729 -0.632456 -0.328611 -0.565816 -0.447214 -0.447214 
C -0.565816 -0.328611 -0.632456 -0.167729 -0.632456 0 
C -0.632456 0.167729 -0.565816 0.328611 -0.447214 0.447214 
C -0.328611 0.565816 -0.167729 0.632456 0 0.632456 
z
"/>
    </defs>
    <g clip-path="url(#p8eb8125686)">
     <use xlink:href="#C1_0_a7bc85a86f" x="103.275" y="121.493495" style="fill: #ff4500; stroke: #ff4500"/>
    </g>
    <g clip-path="url(#p8eb8125686)">
     <use xlink:href="#C1_0_a7bc85a86f" x="103.275" y="118.904762" style="fill: #ff4500; stroke: #ff4500"/>
    </g>
    <g clip-path="url(#p8eb8125686)">
     <use xlink:href="#C1_0_a7bc85a86f" x="103.275" y="111.310243" style="fill: #ff4500; stroke: #ff4500"/>
    </g>
    <g clip-path="url(#p8eb8125686)">
     <use xlink:href="#C1_0_a7bc85a86f" x="104.407524" y="109.5662" style="fill: #ff4500; stroke: #ff4500"/>
    </g>
    <g clip-path="url(#p8eb8125686)">
     <use xlink:href="#C1_0_a7bc85a86f" x="103.275" y="107.004578" style="fill: #ff4500; stroke: #ff4500"/>
    </g>
    <g clip-path="url(#p8eb8125686)">
     <use xlink:href="#C1_0_a7bc85a86f" x="103.275" y="100.436162" style="fill: #ff4500; stroke: #ff4500"/>
    </g>
    <g clip-path="url(#p8eb8125686)">
     <use xlink:href="#C1_0_a7bc85a86f" x="104.884025" y="100.116166" style="fill: #ff4500; stroke: #ff4500"/>
    </g>
    <g clip-path="url(#p8eb8125686)">
     <use xlink:href="#C1_0_a7bc85a86f" x="103.275" y="95.967248" style="fill: #ff4500; stroke: #ff4500"/>
    </g>
    <g clip-path="url(#p8eb8125686)">
     <use xlink:href="#C1_0_a7bc85a86f" x="104.133211" y="93.900758" style="fill: #ff4500; stroke: #ff4500"/>
    </g>
    <g clip-path="url(#p8eb8125686)">
     <use xlink:href="#C1_0_a7bc85a86f" x="105.315923" y="92.233352" style="fill: #ff4500; stroke: #ff4500"/>
    </g>
    <g clip-path="url(#p8eb8125686)">
     <use xlink:href="#C1_0_a7bc85a86f" x="103.275" y="90.502494" style="fill: #ff4500; stroke: #ff4500"/>
    </g>
    <g clip-path="url(#p8eb8125686)">
     <use xlink:href="#C1_0_a7bc85a86f" x="106.16147" y="90.15515" style="fill: #ff4500; stroke: #ff4500"/>
    </g>
    <g clip-path="url(#p8eb8125686)">
     <use xlink:href="#C1_0_a7bc85a86f" x="107.751933" y="89.669327" style="fill: #ff4500; stroke: #ff4500"/>
    </g>
    <g clip-path="url(#p8eb8125686)">
     <use xlink:href="#C1_0_a7bc85a86f" x="103.275" y="86.941434" style="fill: #ff4500; stroke: #ff4500"/>
    </g>
    <g clip-path="url(#p8eb8125686)">
     <use xlink:href="#C1_0_a7bc85a86f" x="104.896581" y="86.835916" style="fill: #ff4500; stroke: #ff4500"/>
    </g>
    <g clip-path="url(#p8eb8125686)">
     <use xlink:href="#C1_0_a7bc85a86f" x="103.275" y="82.641992" style="fill: #ff4500; stroke: #ff4500"/>
    </g>
    <g clip-path="url(#p8eb8125686)">
     <use xlink:href="#C1_0_a7bc85a86f" x="103.275" y="71.276327" style="fill: #ff4500; stroke: #ff4500"/>
    </g>
    <g clip-path="url(#p8eb8125686)">
     <use xlink:href="#C1_0_a7bc85a86f" x="103.275" y="66.232622" style="fill: #ff4500; stroke: #ff4500"/>
    </g>
    <g clip-path="url(#p8eb8125686)">
     <use xlink:href="#C1_0_a7bc85a86f" x="103.275" y="62.600175" style="fill: #ff4500; stroke: #ff4500"/>
    </g>
    <g clip-path="url(#p8eb8125686)">
     <use xlink:href="#C1_0_a7bc85a86f" x="103.275" y="39.388013" style="fill: #ff4500; stroke: #ff4500"/>
    </g>
   </g>
   <g id="PathCollection_3">
    <defs>
     <path id="C2_0_96d52ec469" d="M 0 0.632456 
C 0.167729 0.632456 0.328611 0.565816 0.447214 0.447214 
C 0.565816 0.328611 0.632456 0.167729 0.632456 -0 
C 0.632456 -0.167729 0.565816 -0.328611 0.447214 -0.447214 
C 0.328611 -0.565816 0.167729 -0.632456 0 -0.632456 
C -0.167729 -0.632456 -0.328611 -0.565816 -0.447214 -0.447214 
C -0.565816 -0.328611 -0.632456 -0.167729 -0.632456 0 
C -0.632456 0.167729 -0.565816 0.328611 -0.447214 0.447214 
C -0.328611 0.565816 -0.167729 0.632456 0 0.632456 
z
"/>
    </defs>
    <g clip-path="url(#p8eb8125686)">
     <use xlink:href="#C2_0_96d52ec469" x="145.125" y="126.337691" style="fill: #808080; stroke: #808080"/>
    </g>
    <g clip-path="url(#p8eb8125686)">
     <use xlink:href="#C2_0_96d52ec469" x="146.747596" y="126.276708" style="fill: #808080; stroke: #808080"/>
    </g>
    <g clip-path="url(#p8eb8125686)">
     <use xlink:href="#C2_0_96d52ec469" x="148.368496" y="126.149817" style="stroke: #000000"/>
    </g>
    <g clip-path="url(#p8eb8125686)">
     <use xlink:href="#C2_0_96d52ec469" x="149.990468" y="126.058855" style="fill: #808080; stroke: #808080"/>
    </g>
    <g clip-path="url(#p8eb8125686)">
     <use xlink:href="#C2_0_96d52ec469" x="151.613561" y="126.049012" style="fill: #808080; stroke: #808080"/>
    </g>
    <g clip-path="url(#p8eb8125686)">
     <use xlink:href="#C2_0_96d52ec469" x="153.236648" y="126.037548" style="stroke: #000000"/>
    </g>
    <g clip-path="url(#p8eb8125686)">
     <use xlink:href="#C2_0_96d52ec469" x="154.859738" y="126.026745" style="stroke: #000000"/>
    </g>
    <g clip-path="url(#p8eb8125686)">
     <use xlink:href="#C2_0_96d52ec469" x="156.482844" y="126.026392" style="fill: #808080; stroke: #808080"/>
    </g>
    <g clip-path="url(#p8eb8125686)">
     <use xlink:href="#C2_0_96d52ec469" x="158.105932" y="126.015214" style="stroke: #000000"/>
    </g>
    <g clip-path="url(#p8eb8125686)">
     <use xlink:href="#C2_0_96d52ec469" x="159.729032" y="126.008604" style="fill: #808080; stroke: #808080"/>
    </g>
    <g clip-path="url(#p8eb8125686)">
     <use xlink:href="#C2_0_96d52ec469" x="161.352132" y="126.002461" style="stroke: #000000"/>
    </g>
    <g clip-path="url(#p8eb8125686)">
     <use xlink:href="#C2_0_96d52ec469" x="162.97523" y="125.994696" style="fill: #808080; stroke: #808080"/>
    </g>
    <g clip-path="url(#p8eb8125686)">
     <use xlink:href="#C2_0_96d52ec469" x="145.125" y="123.146148" style="stroke: #000000"/>
    </g>
    <g clip-path="url(#p8eb8125686)">
     <use xlink:href="#C2_0_96d52ec469" x="146.747784" y="123.097665" style="stroke: #000000"/>
    </g>
    <g clip-path="url(#p8eb8125686)">
     <use xlink:href="#C2_0_96d52ec469" x="148.369724" y="123.005426" style="stroke: #000000"/>
    </g>
    <g clip-path="url(#p8eb8125686)">
     <use xlink:href="#C2_0_96d52ec469" x="145.125" y="120.208846" style="stroke: #000000"/>
    </g>
    <g clip-path="url(#p8eb8125686)">
     <use xlink:href="#C2_0_96d52ec469" x="145.125" y="111.111653" style="fill: #808080; stroke: #808080"/>
    </g>
    <g clip-path="url(#p8eb8125686)">
     <use xlink:href="#C2_0_96d52ec469" x="145.125" y="95.741469" style="stroke: #000000"/>
    </g>
    <g clip-path="url(#p8eb8125686)">
     <use xlink:href="#C2_0_96d52ec469" x="146.501045" y="94.450272" style="stroke: #000000"/>
    </g>
    <g clip-path="url(#p8eb8125686)">
     <use xlink:href="#C2_0_96d52ec469" x="145.125" y="78.911326" style="fill: #808080; stroke: #808080"/>
    </g>
    <g clip-path="url(#p8eb8125686)">
     <use xlink:href="#C2_0_96d52ec469" x="145.125" y="74.127898" style="fill: #808080; stroke: #808080"/>
    </g>
    <g clip-path="url(#p8eb8125686)">
     <use xlink:href="#C2_0_96d52ec469" x="145.125" y="67.795101" style="fill: #808080; stroke: #808080"/>
    </g>
    <g clip-path="url(#p8eb8125686)">
     <use xlink:href="#C2_0_96d52ec469" x="146.669528" y="67.046747" style="fill: #808080; stroke: #808080"/>
    </g>
   </g>
   <g id="PathCollection_4">
    <defs>
     <path id="C3_0_d67b269c04" d="M 0 0.632456 
C 0.167729 0.632456 0.328611 0.565816 0.447214 0.447214 
C 0.565816 0.328611 0.632456 0.167729 0.632456 -0 
C 0.632456 -0.167729 0.565816 -0.328611 0.447214 -0.447214 
C 0.328611 -0.565816 0.167729 -0.632456 0 -0.632456 
C -0.167729 -0.632456 -0.328611 -0.565816 -0.447214 -0.447214 
C -0.565816 -0.328611 -0.632456 -0.167729 -0.632456 0 
C -0.632456 0.167729 -0.565816 0.328611 -0.447214 0.447214 
C -0.328611 0.565816 -0.167729 0.632456 0 0.632456 
z
"/>
    </defs>
    <g clip-path="url(#p8eb8125686)">
     <use xlink:href="#C3_0_d67b269c04" x="186.975" y="123.705758" style="fill: #ff4500; stroke: #ff4500"/>
    </g>
    <g clip-path="url(#p8eb8125686)">
     <use xlink:href="#C3_0_d67b269c04" x="188.479974" y="122.793928" style="fill: #ff4500; stroke: #ff4500"/>
    </g>
    <g clip-path="url(#p8eb8125686)">
     <use xlink:href="#C3_0_d67b269c04" x="186.975" y="115.061879" style="fill: #ff4500; stroke: #ff4500"/>
    </g>
    <g clip-path="url(#p8eb8125686)">
     <use xlink:href="#C3_0_d67b269c04" x="188.519678" y="114.314218" style="fill: #ff4500; stroke: #ff4500"/>
    </g>
    <g clip-path="url(#p8eb8125686)">
     <use xlink:href="#C3_0_d67b269c04" x="186.975" y="100.978986" style="fill: #ff4500; stroke: #ff4500"/>
    </g>
    <g clip-path="url(#p8eb8125686)">
     <use xlink:href="#C3_0_d67b269c04" x="188.272841" y="99.516905" style="fill: #ff4500; stroke: #ff4500"/>
    </g>
    <g clip-path="url(#p8eb8125686)">
     <use xlink:href="#C3_0_d67b269c04" x="186.975" y="93.216254" style="fill: #ff4500; stroke: #ff4500"/>
    </g>
    <g clip-path="url(#p8eb8125686)">
     <use xlink:href="#C3_0_d67b269c04" x="186.975" y="90.071277" style="fill: #ff4500; stroke: #ff4500"/>
    </g>
    <g clip-path="url(#p8eb8125686)">
     <use xlink:href="#C3_0_d67b269c04" x="186.975" y="82.792609" style="fill: #ff4500; stroke: #ff4500"/>
    </g>
    <g clip-path="url(#p8eb8125686)">
     <use xlink:href="#C3_0_d67b269c04" x="188.326783" y="81.444983" style="fill: #ff4500; stroke: #ff4500"/>
    </g>
    <g clip-path="url(#p8eb8125686)">
     <use xlink:href="#C3_0_d67b269c04" x="186.975" y="76.234167" style="fill: #ff4500; stroke: #ff4500"/>
    </g>
    <g clip-path="url(#p8eb8125686)">
     <use xlink:href="#C3_0_d67b269c04" x="188.594447" y="76.0708" style="fill: #ff4500; stroke: #ff4500"/>
    </g>
    <g clip-path="url(#p8eb8125686)">
     <use xlink:href="#C3_0_d67b269c04" x="186.975" y="70.173016" style="fill: #ff4500; stroke: #ff4500"/>
    </g>
    <g clip-path="url(#p8eb8125686)">
     <use xlink:href="#C3_0_d67b269c04" x="188.450962" y="69.160092" style="fill: #ff4500; stroke: #ff4500"/>
    </g>
    <g clip-path="url(#p8eb8125686)">
     <use xlink:href="#C3_0_d67b269c04" x="186.975" y="64.948486" style="fill: #ff4500; stroke: #ff4500"/>
    </g>
    <g clip-path="url(#p8eb8125686)">
     <use xlink:href="#C3_0_d67b269c04" x="187.739079" y="62.800469" style="fill: #ff4500; stroke: #ff4500"/>
    </g>
    <g clip-path="url(#p8eb8125686)">
     <use xlink:href="#C3_0_d67b269c04" x="188.877015" y="61.064371" style="fill: #ff4500; stroke: #ff4500"/>
    </g>
    <g clip-path="url(#p8eb8125686)">
     <use xlink:href="#C3_0_d67b269c04" x="186.975" y="56.677024" style="fill: #ff4500; stroke: #ff4500"/>
    </g>
    <g clip-path="url(#p8eb8125686)">
     <use xlink:href="#C3_0_d67b269c04" x="186.975" y="51.052033" style="fill: #ff4500; stroke: #ff4500"/>
    </g>
    <g clip-path="url(#p8eb8125686)">
     <use xlink:href="#C3_0_d67b269c04" x="186.975" y="38.942609" style="fill: #ff4500; stroke: #ff4500"/>
    </g>
   </g>
   <g id="matplotlib.axis_1">
    <g id="xtick_1">
     <g id="line2d_1">
      <defs>
       <path id="m0187188e78" d="M 0 0 
L 0 3.5 
" style="stroke: #000000; stroke-width: 0.8"/>
      </defs>
      <g>
       <use xlink:href="#m0187188e78" x="61.425" y="130.977391" style="stroke: #000000; stroke-width: 0.8"/>
      </g>
     </g>
     <g id="text_1">
      <text style="font: 12px 'inter', sans-serif; text-anchor: middle" x="61.425" y="146.707391" transform="rotate(-0 61.425 146.707391)">Ctrl</text>
     </g>
    </g>
    <g id="xtick_2">
     <g id="line2d_2">
      <g>
       <use xlink:href="#m0187188e78" x="103.275" y="130.977391" style="stroke: #000000; stroke-width: 0.8"/>
      </g>
     </g>
     <g id="text_2">
      <text style="font: 12px 'inter', sans-serif; text-anchor: middle" x="103.275" y="146.707391" transform="rotate(-0 103.275 146.707391)">Test</text>
     </g>
    </g>
    <g id="xtick_3">
     <g id="line2d_3">
      <g>
       <use xlink:href="#m0187188e78" x="145.125" y="130.977391" style="stroke: #000000; stroke-width: 0.8"/>
      </g>
     </g>
     <g id="text_3">
      <text style="font: 12px 'inter', sans-serif; text-anchor: middle" x="145.125" y="146.707391" transform="rotate(-0 145.125 146.707391)">Ctrl</text>
     </g>
    </g>
    <g id="xtick_4">
     <g id="line2d_4">
      <g>
       <use xlink:href="#m0187188e78" x="186.975" y="130.977391" style="stroke: #000000; stroke-width: 0.8"/>
      </g>
     </g>
     <g id="text_4">
      <text style="font: 12px 'inter', sans-serif; text-anchor: middle" x="186.975" y="146.707391" transform="rotate(-0 186.975 146.707391)">Test</text>
     </g>
    </g>
   </g>
   <g id="matplotlib.axis_2">
    <g id="ytick_1">
     <g id="line2d_5">
      <defs>
       <path id="m45909e738f" d="M 0 0 
L -3.5 0 
" style="stroke: #000000; stroke-width: 0.8"/>
      </defs>
      <g>
       <use xlink:href="#m45909e738f" x="40.5" y="127.997502" style="stroke: #000000; stroke-width: 0.8"/>
      </g>
     </g>
     <g id="text_5">
      <text style="font: 6px 'inter', sans-serif; text-anchor: end" x="33.5" y="130.180002" transform="rotate(-0 33.5 130.180002)">0.0</text>
     </g>
    </g>
    <g id="ytick_2">
     <g id="line2d_6">
      <g>
       <use xlink:href="#m45909e738f" x="40.5" y="113.62115" style="stroke: #000000; stroke-width: 0.8"/>
      </g>
     </g>
     <g id="text_6">
      <text style="font: 6px 'inter', sans-serif; text-anchor: end" x="33.5" y="115.80365" transform="rotate(-0 33.5 115.80365)">0.5</text>
     </g>
    </g>
    <g id="ytick_3">
     <g id="line2d_7">
      <g>
       <use xlink:href="#m45909e738f" x="40.5" y="99.244797" style="stroke: #000000; stroke-width: 0.8"/>
      </g>
     </g>
     <g id="text_7">
      <text style="font: 6px 'inter', sans-serif; text-anchor: end" x="33.5" y="101.427297" transform="rotate(-0 33.5 101.427297)">1.0</text>
     </g>
    </g>
    <g id="ytick_4">
     <g id="line2d_8">
      <g>
       <use xlink:href="#m45909e738f" x="40.5" y="84.868445" style="stroke: #000000; stroke-width: 0.8"/>
      </g>
     </g>
     <g id="text_8">
      <text style="font: 6px 'inter', sans-serif; text-anchor: end" x="33.5" y="87.050945" transform="rotate(-0 33.5 87.050945)">1.5</text>
     </g>
    </g>
    <g id="ytick_5">
     <g id="line2d_9">
      <g>
       <use xlink:href="#m45909e738f" x="40.5" y="70.492093" style="stroke: #000000; stroke-width: 0.8"/>
      </g>
     </g>
     <g id="text_9">
      <text style="font: 6px 'inter', sans-serif; text-anchor: end" x="33.5" y="72.674593" transform="rotate(-0 33.5 72.674593)">2.0</text>
     </g>
    </g>
    <g id="ytick_6">
     <g id="line2d_10">
      <g>
       <use xlink:href="#m45909e738f" x="40.5" y="56.11574" style="stroke: #000000; stroke-width: 0.8"/>
      </g>
     </g>
     <g id="text_10">
      <text style="font: 6px 'inter', sans-serif; text-anchor: end" x="33.5" y="58.29824" transform="rotate(-0 33.5 58.29824)">2.5</text>
     </g>
    </g>
    <g id="ytick_7">
     <g id="line2d_11">
      <g>
       <use xlink:href="#m45909e738f" x="40.5" y="41.739388" style="stroke: #000000; stroke-width: 0.8"/>
      </g>
     </g>
     <g id="text_11">
      <text style="font: 6px 'inter', sans-serif; text-anchor: end" x="33.5" y="43.921888" transform="rotate(-0 33.5 43.921888)">3.0</text>
     </g>
    </g>
    <g id="text_12">
     <text style="font: 12px 'inter', sans-serif" transform="translate(4.044625 105.474008) rotate(-90)">Walking</text>
     <text style="font: 12px 'inter', sans-serif" transform="translate(17.75125 122.865571) rotate(-90)">Speed (mm/s)</text>
    </g>
   </g>
   <g id="line2d_12">
    <path d="M 57.24 126.993094 
L 57.24 126.868657 
" clip-path="url(#p8eb8125686)" style="fill: none; stroke: #000000; stroke-width: 2; stroke-linecap: square"/>
   </g>
   <g id="line2d_13">
    <path d="M 57.24 123.976135 
L 57.24 123.851698 
" clip-path="url(#p8eb8125686)" style="fill: none; stroke: #000000; stroke-width: 2; stroke-linecap: square"/>
   </g>
   <g id="line2d_14">
    <path d="M 99.09 110.736651 
L 99.09 92.305082 
" clip-path="url(#p8eb8125686)" style="fill: none; stroke: #000000; stroke-width: 2; stroke-linecap: square"/>
   </g>
   <g id="line2d_15">
    <path d="M 99.09 89.41256 
L 99.09 70.98099 
" clip-path="url(#p8eb8125686)" style="fill: none; stroke: #000000; stroke-width: 2; stroke-linecap: square"/>
   </g>
   <g id="line2d_16">
    <path d="M 140.94 135.218562 
L 140.94 119.337954 
" clip-path="url(#p8eb8125686)" style="fill: none; stroke: #000000; stroke-width: 2; stroke-linecap: square"/>
   </g>
   <g id="line2d_17">
    <path d="M 140.94 116.445432 
L 140.94 100.564824 
" clip-path="url(#p8eb8125686)" style="fill: none; stroke: #000000; stroke-width: 2; stroke-linecap: square"/>
   </g>
   <g id="line2d_18">
    <path d="M 182.79 106.957049 
L 182.79 83.997254 
" clip-path="url(#p8eb8125686)" style="fill: none; stroke: #000000; stroke-width: 2; stroke-linecap: square"/>
   </g>
   <g id="line2d_19">
    <path d="M 182.79 81.104732 
L 182.79 58.144937 
" clip-path="url(#p8eb8125686)" style="fill: none; stroke: #000000; stroke-width: 2; stroke-linecap: square"/>
   </g>
   <g id="legend_1">
    <g id="PathCollection_5">
     <path d="M 241.990938 63.348339 
C 242.158667 63.348339 242.319549 63.281699 242.438151 63.163097 
C 242.556754 63.044494 242.623393 62.883612 242.623393 62.715883 
C 242.623393 62.548154 242.556754 62.387272 242.438151 62.26867 
C 242.319549 62.150067 242.158667 62.083428 241.990938 62.083428 
C 241.823208 62.083428 241.662326 62.150067 241.543724 62.26867 
C 241.425121 62.387272 241.358482 62.548154 241.358482 62.715883 
C 241.358482 62.883612 241.425121 63.044494 241.543724 63.163097 
C 241.662326 63.281699 241.823208 63.348339 241.990938 63.348339 
z
" style="fill: #808080; stroke: #000000"/>
    </g>
    <g id="text_13">
     <text style="font: 14px 'inter', sans-serif; text-anchor: start" x="267.190938" y="66.390883" transform="rotate(-0 267.190938 66.390883)">R50H05/w</text>
    </g>
    <g id="PathCollection_6">
     <path d="M 241.990938 83.390214 
C 242.158667 83.390214 242.319549 83.323574 242.438151 83.204972 
C 242.556754 83.086369 242.623393 82.925487 242.623393 82.757758 
C 242.623393 82.590029 242.556754 82.429147 242.438151 82.310545 
C 242.319549 82.191942 242.158667 82.125303 241.990938 82.125303 
C 241.823208 82.125303 241.662326 82.191942 241.543724 82.310545 
C 241.425121 82.429147 241.358482 82.590029 241.358482 82.757758 
C 241.358482 82.925487 241.425121 83.086369 241.543724 83.204972 
C 241.662326 83.323574 241.823208 83.390214 241.990938 83.390214 
z
" style="fill: #ff4500; stroke: #808080"/>
    </g>
    <g id="text_14">
     <text style="font: 14px 'inter', sans-serif; text-anchor: start" x="267.190938" y="86.432758" transform="rotate(-0 267.190938 86.432758)">Chr/w</text>
    </g>
    <g id="PathCollection_7">
     <path d="M 241.990938 103.432089 
C 242.158667 103.432089 242.319549 103.365449 242.438151 103.246847 
C 242.556754 103.128244 242.623393 102.967362 242.623393 102.799633 
C 242.623393 102.631904 242.556754 102.471022 242.438151 102.35242 
C 242.319549 102.233817 242.158667 102.167178 241.990938 102.167178 
C 241.823208 102.167178 241.662326 102.233817 241.543724 102.35242 
C 241.425121 102.471022 241.358482 102.631904 241.358482 102.799633 
C 241.358482 102.967362 241.425121 103.128244 241.543724 103.246847 
C 241.662326 103.365449 241.823208 103.432089 241.990938 103.432089 
z
" style="fill: #808080; stroke: #ff4500"/>
    </g>
    <g id="text_15">
     <text style="font: 14px 'inter', sans-serif; text-anchor: start" x="267.190938" y="106.474633" transform="rotate(-0 267.190938 106.474633)">R50H05&gt;Chr</text>
    </g>
   </g>
   <g id="LineCollection_1">
    <defs>
     <path id="m90c2d3a0c0" d="M 61.425 -157.022609 
L 103.275 -157.022609 
" style="stroke: #000000"/>
    </defs>
    <g>
     <use xlink:href="#m90c2d3a0c0" x="0" y="288" style="stroke: #000000"/>
    </g>
   </g>
   <g id="LineCollection_2">
    <defs>
     <path id="m42ad55b324" d="M 145.125 -157.022609 
L 186.975 -157.022609 
" style="stroke: #000000"/>
    </defs>
    <g>
     <use xlink:href="#m42ad55b324" x="0" y="288" style="stroke: #000000"/>
    </g>
   </g>
   <g id="LineCollection_3">
    <defs>
     <path id="m537ea28c15" d="M 40.5 -157.022609 
L 40.5 -253.44 
" style="stroke: #000000"/>
    </defs>
    <g>
     <use xlink:href="#m537ea28c15" x="0" y="288" style="stroke: #000000"/>
    </g>
   </g>
  </g>
  <g id="axes_2">
   <g id="patch_6">
    <path d="M 92.8125 219.552102 
L 113.7375 219.552102 
L 113.7375 185.20895 
L 92.8125 185.20895 
z
" clip-path="url(#p21111af776)" style="opacity: 0.05; stroke: #000000; stroke-linejoin: miter"/>
   </g>
   <g id="patch_7">
    <path d="M 176.5125 219.552102 
L 197.4375 219.552102 
L 197.4375 184.436781 
L 176.5125 184.436781 
z
" clip-path="url(#p21111af776)" style="opacity: 0.05; stroke: #000000; stroke-linejoin: miter"/>
   </g>
   <g id="patch_8">
    <path d="M 260.2125 219.552102 
L 281.1375 219.552102 
L 281.1375 218.779934 
L 260.2125 218.779934 
z
" clip-path="url(#p21111af776)" style="opacity: 0.05; stroke: #000000; stroke-linejoin: miter"/>
   </g>
   <g id="PolyCollection_1">
    <defs>
     <path id="m167f126c82" d="M 103.328863 -89.23206 
L 103.27572 -89.23206 
L 103.27572 -89.522559 
L 103.27572 -89.813058 
L 103.27572 -90.103557 
L 103.27572 -90.394056 
L 103.27572 -90.684555 
L 103.27572 -90.975054 
L 103.27572 -91.265553 
L 103.27572 -91.556052 
L 103.27572 -91.846551 
L 103.27572 -92.13705 
L 103.27572 -92.427549 
L 103.27572 -92.718049 
L 103.27572 -93.008548 
L 103.27572 -93.299047 
L 103.27572 -93.589546 
L 103.27572 -93.880045 
L 103.27572 -94.170544 
L 103.27572 -94.461043 
L 103.27572 -94.751542 
L 103.27572 -95.042041 
L 103.27572 -95.33254 
L 103.27572 -95.623039 
L 103.27572 -95.913538 
L 103.27572 -96.204037 
L 103.27572 -96.494537 
L 103.27572 -96.785036 
L 103.27572 -97.075535 
L 103.27572 -97.366034 
L 103.27572 -97.656533 
L 103.27572 -97.947032 
L 103.27572 -98.237531 
L 103.27572 -98.52803 
L 103.27572 -98.818529 
L 103.27572 -99.109028 
L 103.27572 -99.399527 
L 103.27572 -99.690026 
L 103.27572 -99.980525 
L 103.27572 -100.271024 
L 103.27572 -100.561524 
L 103.27572 -100.852023 
L 103.27572 -101.142522 
L 103.27572 -101.433021 
L 103.27572 -101.72352 
L 103.27572 -102.014019 
L 103.27572 -102.304518 
L 103.27572 -102.595017 
L 103.27572 -102.885516 
L 103.27572 -103.176015 
L 103.27572 -103.466514 
L 103.27572 -103.757013 
L 103.27572 -104.047512 
L 103.27572 -104.338012 
L 103.27572 -104.628511 
L 103.27572 -104.91901 
L 103.27572 -105.209509 
L 103.27572 -105.500008 
L 103.27572 -105.790507 
L 103.27572 -106.081006 
L 103.27572 -106.371505 
L 103.27572 -106.662004 
L 103.27572 -106.952503 
L 103.27572 -107.243002 
L 103.27572 -107.533501 
L 103.27572 -107.824 
L 103.27572 -108.1145 
L 103.27572 -108.404999 
L 103.27572 -108.695498 
L 103.27572 -108.985997 
L 103.27572 -109.276496 
L 103.27572 -109.566995 
L 103.27572 -109.857494 
L 103.27572 -110.147993 
L 103.27572 -110.438492 
L 103.27572 -110.728991 
L 103.27572 -111.01949 
L 103.27572 -111.309989 
L 103.27572 -111.600488 
L 103.27572 -111.890988 
L 103.27572 -112.181487 
L 103.27572 -112.471986 
L 103.27572 -112.762485 
L 103.27572 -113.052984 
L 103.27572 -113.343483 
L 103.27572 -113.633982 
L 103.27572 -113.924481 
L 103.27572 -114.21498 
L 103.27572 -114.505479 
L 103.27572 -114.795978 
L 103.27572 -115.086477 
L 103.27572 -115.376976 
L 103.27572 -115.667476 
L 103.27572 -115.957975 
L 103.27572 -116.248474 
L 103.27572 -116.538973 
L 103.27572 -116.829472 
L 103.27572 -117.119971 
L 103.27572 -117.41047 
L 103.27572 -117.700969 
L 103.27572 -117.991468 
L 103.313443 -117.991468 
L 103.313443 -117.991468 
L 103.324976 -117.700969 
L 103.338702 -117.41047 
L 103.35673 -117.119971 
L 103.381124 -116.829472 
L 103.412132 -116.538973 
L 103.447067 -116.248474 
L 103.481081 -115.957975 
L 103.509839 -115.667476 
L 103.53258 -115.376976 
L 103.553482 -115.086477 
L 103.580352 -114.795978 
L 103.621465 -114.505479 
L 103.682374 -114.21498 
L 103.764213 -113.924481 
L 103.863976 -113.633982 
L 103.9763 -113.343483 
L 104.095656 -113.052984 
L 104.217977 -112.762485 
L 104.341411 -112.471986 
L 104.466621 -112.181487 
L 104.59689 -111.890988 
L 104.737813 -111.600488 
L 104.896242 -111.309989 
L 105.078806 -111.01949 
L 105.290804 -110.728991 
L 105.535689 -110.438492 
L 105.81428 -110.147993 
L 106.122966 -109.857494 
L 106.452246 -109.566995 
L 106.788738 -109.276496 
L 107.121764 -108.985997 
L 107.450381 -108.695498 
L 107.784006 -108.404999 
L 108.134071 -108.1145 
L 108.502332 -107.824 
L 108.875734 -107.533501 
L 109.233316 -107.243002 
L 109.561027 -106.952503 
L 109.863672 -106.662004 
L 110.164984 -106.371505 
L 110.495502 -106.081006 
L 110.876249 -105.790507 
L 111.307873 -105.500008 
L 111.770026 -105.209509 
L 112.229465 -104.91901 
L 112.6519 -104.628511 
L 113.012041 -104.338012 
L 113.297672 -104.047512 
L 113.507191 -103.757013 
L 113.644602 -103.466514 
L 113.717236 -103.176015 
L 113.7375 -102.885516 
L 113.724645 -102.595017 
L 113.701769 -102.304518 
L 113.687421 -102.014019 
L 113.685835 -101.72352 
L 113.681613 -101.433021 
L 113.643085 -101.142522 
L 113.534497 -100.852023 
L 113.331952 -100.561524 
L 113.034731 -100.271024 
L 112.665142 -99.980525 
L 112.255928 -99.690026 
L 111.832035 -99.399527 
L 111.398713 -99.109028 
L 110.945076 -98.818529 
L 110.460459 -98.52803 
L 109.949421 -98.237531 
L 109.432273 -97.947032 
L 108.931959 -97.656533 
L 108.460857 -97.366034 
L 108.019276 -97.075535 
L 107.604028 -96.785036 
L 107.215601 -96.494537 
L 106.85626 -96.204037 
L 106.522934 -95.913538 
L 106.204545 -95.623039 
L 105.887995 -95.33254 
L 105.56767 -95.042041 
L 105.250186 -94.751542 
L 104.950982 -94.461043 
L 104.686098 -94.170544 
L 104.464937 -93.880045 
L 104.287457 -93.589546 
L 104.145694 -93.299047 
L 104.027774 -93.008548 
L 103.922446 -92.718049 
L 103.822542 -92.427549 
L 103.72623 -92.13705 
L 103.635871 -91.846551 
L 103.555522 -91.556052 
L 103.488618 -91.265553 
L 103.436746 -90.975054 
L 103.39948 -90.684555 
L 103.374703 -90.394056 
L 103.35905 -90.103557 
L 103.348495 -89.813058 
L 103.339251 -89.522559 
L 103.328863 -89.23206 
z
"/>
    </defs>
    <g clip-path="url(#p21111af776)">
     <use xlink:href="#m167f126c82" x="0" y="288" style="fill: #808080; fill-opacity: 0.8"/>
    </g>
   </g>
   <g id="PolyCollection_2">
    <defs>
     <path id="md900944f16" d="M 186.991065 -81.345507 
L 186.975438 -81.345507 
L 186.975438 -81.77348 
L 186.975438 -82.201452 
L 186.975438 -82.629425 
L 186.975438 -83.057397 
L 186.975438 -83.48537 
L 186.975438 -83.913342 
L 186.975438 -84.341314 
L 186.975438 -84.769287 
L 186.975438 -85.197259 
L 186.975438 -85.625232 
L 186.975438 -86.053204 
L 186.975438 -86.481177 
L 186.975438 -86.909149 
L 186.975438 -87.337122 
L 186.975438 -87.765094 
L 186.975438 -88.193067 
L 186.975438 -88.621039 
L 186.975438 -89.049012 
L 186.975438 -89.476984 
L 186.975438 -89.904957 
L 186.975438 -90.332929 
L 186.975438 -90.760902 
L 186.975438 -91.188874 
L 186.975438 -91.616847 
L 186.975438 -92.044819 
L 186.975438 -92.472792 
L 186.975438 -92.900764 
L 186.975438 -93.328737 
L 186.975438 -93.756709 
L 186.975438 -94.184682 
L 186.975438 -94.612654 
L 186.975438 -95.040626 
L 186.975438 -95.468599 
L 186.975438 -95.896571 
L 186.975438 -96.324544 
L 186.975438 -96.752516 
L 186.975438 -97.180489 
L 186.975438 -97.608461 
L 186.975438 -98.036434 
L 186.975438 -98.464406 
L 186.975438 -98.892379 
L 186.975438 -99.320351 
L 186.975438 -99.748324 
L 186.975438 -100.176296 
L 186.975438 -100.604269 
L 186.975438 -101.032241 
L 186.975438 -101.460214 
L 186.975438 -101.888186 
L 186.975438 -102.316159 
L 186.975438 -102.744131 
L 186.975438 -103.172104 
L 186.975438 -103.600076 
L 186.975438 -104.028049 
L 186.975438 -104.456021 
L 186.975438 -104.883993 
L 186.975438 -105.311966 
L 186.975438 -105.739938 
L 186.975438 -106.167911 
L 186.975438 -106.595883 
L 186.975438 -107.023856 
L 186.975438 -107.451828 
L 186.975438 -107.879801 
L 186.975438 -108.307773 
L 186.975438 -108.735746 
L 186.975438 -109.163718 
L 186.975438 -109.591691 
L 186.975438 -110.019663 
L 186.975438 -110.447636 
L 186.975438 -110.875608 
L 186.975438 -111.303581 
L 186.975438 -111.731553 
L 186.975438 -112.159526 
L 186.975438 -112.587498 
L 186.975438 -113.015471 
L 186.975438 -113.443443 
L 186.975438 -113.871416 
L 186.975438 -114.299388 
L 186.975438 -114.727361 
L 186.975438 -115.155333 
L 186.975438 -115.583305 
L 186.975438 -116.011278 
L 186.975438 -116.43925 
L 186.975438 -116.867223 
L 186.975438 -117.295195 
L 186.975438 -117.723168 
L 186.975438 -118.15114 
L 186.975438 -118.579113 
L 186.975438 -119.007085 
L 186.975438 -119.435058 
L 186.975438 -119.86303 
L 186.975438 -120.291003 
L 186.975438 -120.718975 
L 186.975438 -121.146948 
L 186.975438 -121.57492 
L 186.975438 -122.002893 
L 186.975438 -122.430865 
L 186.975438 -122.858838 
L 186.975438 -123.28681 
L 186.975438 -123.714783 
L 187.031706 -123.714783 
L 187.031706 -123.714783 
L 187.040144 -123.28681 
L 187.042533 -122.858838 
L 187.040609 -122.430865 
L 187.038962 -122.002893 
L 187.043129 -121.57492 
L 187.057549 -121.146948 
L 187.084636 -120.718975 
L 187.125151 -120.291003 
L 187.178932 -119.86303 
L 187.245048 -119.435058 
L 187.321547 -119.007085 
L 187.405992 -118.579113 
L 187.497648 -118.15114 
L 187.600212 -117.723168 
L 187.722348 -117.295195 
L 187.874124 -116.867223 
L 188.060969 -116.43925 
L 188.279528 -116.011278 
L 188.518479 -115.583305 
L 188.763525 -115.155333 
L 189.003518 -114.727361 
L 189.235651 -114.299388 
L 189.468718 -113.871416 
L 189.722853 -113.443443 
L 190.023954 -113.015471 
L 190.393606 -112.587498 
L 190.838952 -112.159526 
L 191.347993 -111.731553 
L 191.893118 -111.303581 
L 192.441349 -110.875608 
L 192.966173 -110.447636 
L 193.45469 -110.019663 
L 193.906024 -109.591691 
L 194.322409 -109.163718 
L 194.700441 -108.735746 
L 195.031121 -108.307773 
L 195.310014 -107.879801 
L 195.548442 -107.451828 
L 195.773774 -107.023856 
L 196.015759 -106.595883 
L 196.288159 -106.167911 
L 196.579338 -105.739938 
L 196.858577 -105.311966 
L 197.093155 -104.883993 
L 197.264102 -104.456021 
L 197.371005 -104.028049 
L 197.425164 -103.600076 
L 197.4375 -103.172104 
L 197.408982 -102.744131 
L 197.329527 -102.316159 
L 197.187576 -101.888186 
L 196.984521 -101.460214 
L 196.740316 -101.032241 
L 196.480757 -100.604269 
L 196.214661 -100.176296 
L 195.922762 -99.748324 
L 195.572041 -99.320351 
L 195.14498 -98.892379 
L 194.657651 -98.464406 
L 194.15064 -98.036434 
L 193.662338 -97.608461 
L 193.208307 -97.180489 
L 192.780612 -96.752516 
L 192.361489 -96.324544 
L 191.937567 -95.896571 
L 191.506759 -95.468599 
L 191.077815 -95.040626 
L 190.665137 -94.612654 
L 190.281471 -94.184682 
L 189.932227 -93.756709 
L 189.615172 -93.328737 
L 189.325364 -92.900764 
L 189.06028 -92.472792 
L 188.820193 -92.044819 
L 188.604323 -91.616847 
L 188.4077 -91.188874 
L 188.222348 -90.760902 
L 188.041877 -90.332929 
L 187.865639 -89.904957 
L 187.69928 -89.476984 
L 187.551248 -89.049012 
L 187.4278 -88.621039 
L 187.330201 -88.193067 
L 187.255863 -87.765094 
L 187.201507 -87.337122 
L 187.164729 -86.909149 
L 187.14272 -86.481177 
L 187.13048 -86.053204 
L 187.121326 -85.625232 
L 187.109628 -85.197259 
L 187.093205 -84.769287 
L 187.073344 -84.341314 
L 187.052885 -83.913342 
L 187.034303 -83.48537 
L 187.019011 -83.057397 
L 187.007537 -82.629425 
L 186.99971 -82.201452 
L 186.994659 -81.77348 
L 186.991065 -81.345507 
z
"/>
    </defs>
    <g clip-path="url(#p21111af776)">
     <use xlink:href="#md900944f16" x="0" y="288" style="fill: #808080; fill-opacity: 0.8"/>
    </g>
   </g>
   <g id="PolyCollection_3">
    <defs>
     <path id="m289cfe3c79" d="M 270.68641 -36.062609 
L 270.675172 -36.062609 
L 270.675172 -36.659279 
L 270.675172 -37.255949 
L 270.675172 -37.852619 
L 270.675172 -38.449288 
L 270.675172 -39.045958 
L 270.675172 -39.642628 
L 270.675172 -40.239298 
L 270.675172 -40.835968 
L 270.675172 -41.432638 
L 270.675172 -42.029308 
L 270.675172 -42.625978 
L 270.675172 -43.222648 
L 270.675172 -43.819318 
L 270.675172 -44.415988 
L 270.675172 -45.012658 
L 270.675172 -45.609328 
L 270.675172 -46.205998 
L 270.675172 -46.802668 
L 270.675172 -47.399337 
L 270.675172 -47.996007 
L 270.675172 -48.592677 
L 270.675172 -49.189347 
L 270.675172 -49.786017 
L 270.675172 -50.382687 
L 270.675172 -50.979357 
L 270.675172 -51.576027 
L 270.675172 -52.172697 
L 270.675172 -52.769367 
L 270.675172 -53.366037 
L 270.675172 -53.962707 
L 270.675172 -54.559377 
L 270.675172 -55.156047 
L 270.675172 -55.752717 
L 270.675172 -56.349387 
L 270.675172 -56.946056 
L 270.675172 -57.542726 
L 270.675172 -58.139396 
L 270.675172 -58.736066 
L 270.675172 -59.332736 
L 270.675172 -59.929406 
L 270.675172 -60.526076 
L 270.675172 -61.122746 
L 270.675172 -61.719416 
L 270.675172 -62.316086 
L 270.675172 -62.912756 
L 270.675172 -63.509426 
L 270.675172 -64.106096 
L 270.675172 -64.702766 
L 270.675172 -65.299436 
L 270.675172 -65.896106 
L 270.675172 -66.492775 
L 270.675172 -67.089445 
L 270.675172 -67.686115 
L 270.675172 -68.282785 
L 270.675172 -68.879455 
L 270.675172 -69.476125 
L 270.675172 -70.072795 
L 270.675172 -70.669465 
L 270.675172 -71.266135 
L 270.675172 -71.862805 
L 270.675172 -72.459475 
L 270.675172 -73.056145 
L 270.675172 -73.652815 
L 270.675172 -74.249485 
L 270.675172 -74.846155 
L 270.675172 -75.442824 
L 270.675172 -76.039494 
L 270.675172 -76.636164 
L 270.675172 -77.232834 
L 270.675172 -77.829504 
L 270.675172 -78.426174 
L 270.675172 -79.022844 
L 270.675172 -79.619514 
L 270.675172 -80.216184 
L 270.675172 -80.812854 
L 270.675172 -81.409524 
L 270.675172 -82.006194 
L 270.675172 -82.602864 
L 270.675172 -83.199534 
L 270.675172 -83.796204 
L 270.675172 -84.392874 
L 270.675172 -84.989543 
L 270.675172 -85.586213 
L 270.675172 -86.182883 
L 270.675172 -86.779553 
L 270.675172 -87.376223 
L 270.675172 -87.972893 
L 270.675172 -88.569563 
L 270.675172 -89.166233 
L 270.675172 -89.762903 
L 270.675172 -90.359573 
L 270.675172 -90.956243 
L 270.675172 -91.552913 
L 270.675172 -92.149583 
L 270.675172 -92.746253 
L 270.675172 -93.342923 
L 270.675172 -93.939592 
L 270.675172 -94.536262 
L 270.675172 -95.132932 
L 270.6871 -95.132932 
L 270.6871 -95.132932 
L 270.687479 -94.536262 
L 270.688317 -93.939592 
L 270.692306 -93.342923 
L 270.701641 -92.746253 
L 270.716908 -92.149583 
L 270.73739 -91.552913 
L 270.762508 -90.956243 
L 270.792986 -90.359573 
L 270.83089 -89.762903 
L 270.879226 -89.166233 
L 270.941758 -88.569563 
L 271.022098 -87.972893 
L 271.121716 -87.376223 
L 271.238917 -86.779553 
L 271.370537 -86.182883 
L 271.515408 -85.586213 
L 271.677602 -84.989543 
L 271.867814 -84.392874 
L 272.100685 -83.796204 
L 272.387439 -83.199534 
L 272.728684 -82.602864 
L 273.114735 -82.006194 
L 273.533633 -81.409524 
L 273.977423 -80.812854 
L 274.439358 -80.216184 
L 274.908409 -79.619514 
L 275.3734 -79.022844 
L 275.834733 -78.426174 
L 276.305226 -77.829504 
L 276.791504 -77.232834 
L 277.27525 -76.636164 
L 277.720079 -76.039494 
L 278.101358 -75.442824 
L 278.426836 -74.846155 
L 278.725132 -74.249485 
L 279.020244 -73.652815 
L 279.326071 -73.056145 
L 279.657957 -72.459475 
L 280.02747 -71.862805 
L 280.417009 -71.266135 
L 280.771617 -70.669465 
L 281.02593 -70.072795 
L 281.1375 -69.476125 
L 281.096852 -68.879455 
L 280.91962 -68.282785 
L 280.639004 -67.686115 
L 280.301613 -67.089445 
L 279.958675 -66.492775 
L 279.648332 -65.896106 
L 279.375163 -65.299436 
L 279.101986 -64.702766 
L 278.766213 -64.106096 
L 278.316116 -63.509426 
L 277.744688 -62.912756 
L 277.097504 -62.316086 
L 276.449674 -61.719416 
L 275.869258 -61.122746 
L 275.389541 -60.526076 
L 275.002218 -59.929406 
L 274.672101 -59.332736 
L 274.363094 -58.736066 
L 274.056533 -58.139396 
L 273.749864 -57.542726 
L 273.443821 -56.946056 
L 273.134742 -56.349387 
L 272.817718 -55.752717 
L 272.494799 -55.156047 
L 272.180587 -54.559377 
L 271.899128 -53.962707 
L 271.671384 -53.366037 
L 271.502701 -52.769367 
L 271.381809 -52.172697 
L 271.290687 -51.576027 
L 271.214316 -50.979357 
L 271.143989 -50.382687 
L 271.076866 -49.786017 
L 271.014432 -49.189347 
L 270.958977 -48.592677 
L 270.909802 -47.996007 
L 270.86381 -47.399337 
L 270.820142 -46.802668 
L 270.78232 -46.205998 
L 270.754504 -45.609328 
L 270.736703 -45.012658 
L 270.724777 -44.415988 
L 270.714379 -43.819318 
L 270.703857 -43.222648 
L 270.693941 -42.625978 
L 270.685936 -42.029308 
L 270.680482 -41.432638 
L 270.677371 -40.835968 
L 270.675939 -40.239298 
L 270.675571 -39.642628 
L 270.675999 -39.045958 
L 270.677312 -38.449288 
L 270.679635 -37.852619 
L 270.682645 -37.255949 
L 270.685323 -36.659279 
L 270.68641 -36.062609 
z
"/>
    </defs>
    <g clip-path="url(#p21111af776)">
     <use xlink:href="#m289cfe3c79" x="0" y="288" style="fill: #808080; fill-opacity: 0.8"/>
    </g>
   </g>
   <g id="matplotlib.axis_3">
    <g id="xtick_5">
     <g id="line2d_20">
      <g>
       <use xlink:href="#m0187188e78" x="61.425" y="256.32" style="stroke: #000000; stroke-width: 0.8"/>
      </g>
     </g>
    </g>
    <g id="xtick_6">
     <g id="line2d_21">
      <g>
       <use xlink:href="#m0187188e78" x="103.275" y="256.32" style="stroke: #000000; stroke-width: 0.8"/>
      </g>
     </g>
     <g id="text_16">
      <text style="font: 12px 'inter', sans-serif; text-anchor: middle" x="103.275" y="272.05" transform="rotate(-0 103.275 272.05)">0 h</text>
     </g>
    </g>
    <g id="xtick_7">
     <g id="line2d_22">
      <g>
       <use xlink:href="#m0187188e78" x="145.125" y="256.32" style="stroke: #000000; stroke-width: 0.8"/>
      </g>
     </g>
    </g>
    <g id="xtick_8">
     <g id="line2d_23">
      <g>
       <use xlink:href="#m0187188e78" x="186.975" y="256.32" style="stroke: #000000; stroke-width: 0.8"/>
      </g>
     </g>
     <g id="text_17">
      <text style="font: 12px 'inter', sans-serif; text-anchor: middle" x="186.975" y="272.05" transform="rotate(-0 186.975 272.05)">24 h</text>
     </g>
    </g>
    <g id="xtick_9">
     <g id="line2d_24">
      <g>
       <use xlink:href="#m0187188e78" x="228.825" y="256.32" style="stroke: #000000; stroke-width: 0.8"/>
      </g>
     </g>
    </g>
    <g id="xtick_10">
     <g id="line2d_25">
      <g>
       <use xlink:href="#m0187188e78" x="270.675" y="256.32" style="stroke: #000000; stroke-width: 0.8"/>
      </g>
     </g>
     <g id="text_18">
      <!-- $\Delta\Delta$ -->
      <g transform="translate(262.455 272.05)">
       <text>
        <tspan style="font: 12px 'DejaVu Sans'" x="0 8.208984" y="-0.25">ΔΔ</tspan>
       </text>
      </g>
     </g>
    </g>
   </g>
   <g id="matplotlib.axis_4">
    <g id="ytick_8">
     <g id="line2d_26">
      <g>
       <use xlink:href="#m45909e738f" x="40.5" y="248.121442" style="stroke: #000000; stroke-width: 0.8"/>
      </g>
     </g>
     <g id="text_19">
      <text style="font: 6px 'inter', sans-serif; text-anchor: end" x="33.5" y="250.303942" transform="rotate(-0 33.5 250.303942)">−1.0</text>
     </g>
    </g>
    <g id="ytick_9">
     <g id="line2d_27">
      <g>
       <use xlink:href="#m45909e738f" x="40.5" y="233.836772" style="stroke: #000000; stroke-width: 0.8"/>
      </g>
     </g>
     <g id="text_20">
      <text style="font: 6px 'inter', sans-serif; text-anchor: end" x="33.5" y="236.019272" transform="rotate(-0 33.5 236.019272)">−0.5</text>
     </g>
    </g>
    <g id="ytick_10">
     <g id="line2d_28">
      <g>
       <use xlink:href="#m45909e738f" x="40.5" y="219.552102" style="stroke: #000000; stroke-width: 0.8"/>
      </g>
     </g>
     <g id="text_21">
      <text style="font: 6px 'inter', sans-serif; text-anchor: end" x="33.5" y="221.734602" transform="rotate(-0 33.5 221.734602)">0.0</text>
     </g>
    </g>
    <g id="ytick_11">
     <g id="line2d_29">
      <g>
       <use xlink:href="#m45909e738f" x="40.5" y="205.267433" style="stroke: #000000; stroke-width: 0.8"/>
      </g>
     </g>
     <g id="text_22">
      <text style="font: 6px 'inter', sans-serif; text-anchor: end" x="33.5" y="207.449933" transform="rotate(-0 33.5 207.449933)">0.5</text>
     </g>
    </g>
    <g id="ytick_12">
     <g id="line2d_30">
      <g>
       <use xlink:href="#m45909e738f" x="40.5" y="190.982763" style="stroke: #000000; stroke-width: 0.8"/>
      </g>
     </g>
     <g id="text_23">
      <text style="font: 6px 'inter', sans-serif; text-anchor: end" x="33.5" y="193.165263" transform="rotate(-0 33.5 193.165263)">1.0</text>
     </g>
    </g>
    <g id="ytick_13">
     <g id="line2d_31">
      <g>
       <use xlink:href="#m45909e738f" x="40.5" y="176.698093" style="stroke: #000000; stroke-width: 0.8"/>
      </g>
     </g>
     <g id="text_24">
      <text style="font: 6px 'inter', sans-serif; text-anchor: end" x="33.5" y="178.880593" transform="rotate(-0 33.5 178.880593)">1.5</text>
     </g>
    </g>
    <g id="ytick_14">
     <g id="line2d_32">
      <g>
       <use xlink:href="#m45909e738f" x="40.5" y="162.413423" style="stroke: #000000; stroke-width: 0.8"/>
      </g>
     </g>
     <g id="text_25">
      <text style="font: 6px 'inter', sans-serif; text-anchor: end" x="33.5" y="164.595923" transform="rotate(-0 33.5 164.595923)">2.0</text>
     </g>
    </g>
    <g id="text_26">
     <!-- $\Delta$ Speed (mm/s) -->
     <g transform="translate(13.848437 254.011304) rotate(-90)">
      <text>
       <tspan style="font: 12px 'DejaVu Sans'" x="0" y="-0.734375">Δ</tspan>
       <tspan style="font: 12px 'Inter'" x="8.208984 11.583984 19.283203 26.630859 33.626953 40.623047 47.970703 51.345703 55.722656 66.234375 76.746094 81.070312 87.404297" y="-0.734375"> Speed (mm/s)</tspan>
      </text>
     </g>
    </g>
   </g>
   <g id="line2d_33">
    <path d="M 103.275 185.20895 
" clip-path="url(#p21111af776)" style="fill: none; stroke: #000000; stroke-width: 1.5; stroke-linecap: square"/>
    <defs>
     <path id="me893c2b905" d="M 0 2.5 
C 0.663008 2.5 1.29895 2.236584 1.767767 1.767767 
C 2.236584 1.29895 2.5 0.663008 2.5 0 
C 2.5 -0.663008 2.236584 -1.29895 1.767767 -1.767767 
C 1.29895 -2.236584 0.663008 -2.5 0 -2.5 
C -0.663008 -2.5 -1.29895 -2.236584 -1.767767 -1.767767 
C -2.236584 -1.29895 -2.5 -0.663008 -2.5 0 
C -2.5 0.663008 -2.236584 1.29895 -1.767767 1.767767 
C -1.29895 2.236584 -0.663008 2.5 0 2.5 
z
" style="stroke: #000000"/>
    </defs>
    <g clip-path="url(#p21111af776)">
     <use xlink:href="#me893c2b905" x="103.275" y="185.20895" style="stroke: #000000"/>
    </g>
   </g>
   <g id="line2d_34">
    <path d="M 103.275 192.608837 
L 103.275 175.449387 
" clip-path="url(#p21111af776)" style="fill: none; stroke: #000000; stroke-width: 2; stroke-linecap: square"/>
   </g>
   <g id="line2d_35">
    <path d="M 186.975 184.436781 
" clip-path="url(#p21111af776)" style="fill: none; stroke: #000000; stroke-width: 1.5; stroke-linecap: square"/>
    <g clip-path="url(#p21111af776)">
     <use xlink:href="#me893c2b905" x="186.975" y="184.436781" style="stroke: #000000"/>
    </g>
   </g>
   <g id="line2d_36">
    <path d="M 186.975 196.210568 
L 186.975 172.983833 
" clip-path="url(#p21111af776)" style="fill: none; stroke: #000000; stroke-width: 2; stroke-linecap: square"/>
   </g>
   <g id="line2d_37">
    <path d="M 270.675 218.779934 
" clip-path="url(#p21111af776)" style="fill: none; stroke: #000000; stroke-width: 1.5; stroke-linecap: square"/>
    <g clip-path="url(#p21111af776)">
     <use xlink:href="#me893c2b905" x="270.675" y="218.779934" style="stroke: #000000"/>
    </g>
   </g>
   <g id="line2d_38">
    <path d="M 270.675 233.24911 
L 270.675 205.058743 
" clip-path="url(#p21111af776)" style="fill: none; stroke: #000000; stroke-width: 2; stroke-linecap: square"/>
   </g>
   <g id="line2d_39">
    <path d="M 40.5 219.552102 
L 291.6 219.552102 
" clip-path="url(#p21111af776)" style="fill: none; stroke: #000000; stroke-width: 0.75; stroke-linecap: square"/>
   </g>
   <g id="text_27">
    <text style="font: 10px 'inter', sans-serif; text-anchor: middle" x="123.363" y="187.826137" transform="rotate(-0 123.363 187.826137)">+1.20</text>
   </g>
   <g id="text_28">
    <text style="font: 10px 'inter', sans-serif; text-anchor: middle" x="207.063" y="187.053969" transform="rotate(-0 207.063 187.053969)">+1.23</text>
   </g>
   <g id="text_29">
    <text style="font: 10px 'inter', sans-serif; text-anchor: middle" x="256.0275" y="221.397122" transform="rotate(-0 256.0275 221.397122)">+0.03</text>
   </g>
   <g id="LineCollection_4">
    <defs>
     <path id="m75549230b3" d="M 61.425 -31.68 
L 103.275 -31.68 
" style="stroke: #000000"/>
    </defs>
    <g>
     <use xlink:href="#m75549230b3" x="0" y="288" style="stroke: #000000"/>
    </g>
   </g>
   <g id="LineCollection_5">
    <defs>
     <path id="mbd30a3b1fc" d="M 145.125 -31.68 
L 186.975 -31.68 
" style="stroke: #000000"/>
    </defs>
    <g>
     <use xlink:href="#mbd30a3b1fc" x="0" y="288" style="stroke: #000000"/>
    </g>
   </g>
   <g id="LineCollection_6">
    <defs>
     <path id="m3348beed1a" d="M 228.825 -31.68 
L 270.675 -31.68 
" style="stroke: #000000"/>
    </defs>
    <g>
     <use xlink:href="#m3348beed1a" x="0" y="288" style="stroke: #000000"/>
    </g>
   </g>
   <g id="LineCollection_7">
    <defs>
     <path id="m0767754775" d="M 40.5 -31.68 
L 40.5 -128.097391 
" style="stroke: #000000"/>
    </defs>
    <g>
     <use xlink:href="#m0767754775" x="0" y="288" style="stroke: #000000"/>
    </g>
   </g>
  </g>
  <g id="axes_3">
   <g id="matplotlib.axis_5">
    <g id="ytick_15">
     <g id="line2d_40">
      <defs>
       <path id="m12bb5d6c62" d="M 0 0 
L 3.5 0 
" style="stroke: #000000; stroke-width: 0.8"/>
      </defs>
      <g>
       <use xlink:href="#m12bb5d6c62" x="291.6" y="248.121442" style="stroke: #000000; stroke-width: 0.8"/>
      </g>
     </g>
     <g id="text_30">
      <text style="font: 6px 'inter', sans-serif; text-anchor: start" x="298.6" y="250.303942" transform="rotate(-0 298.6 250.303942)">−1.0</text>
     </g>
    </g>
    <g id="ytick_16">
     <g id="line2d_41">
      <g>
       <use xlink:href="#m12bb5d6c62" x="291.6" y="233.836772" style="stroke: #000000; stroke-width: 0.8"/>
      </g>
     </g>
     <g id="text_31">
      <text style="font: 6px 'inter', sans-serif; text-anchor: start" x="298.6" y="236.019272" transform="rotate(-0 298.6 236.019272)">−0.5</text>
     </g>
    </g>
    <g id="ytick_17">
     <g id="line2d_42">
      <g>
       <use xlink:href="#m12bb5d6c62" x="291.6" y="219.552102" style="stroke: #000000; stroke-width: 0.8"/>
      </g>
     </g>
     <g id="text_32">
      <text style="font: 6px 'inter', sans-serif; text-anchor: start" x="298.6" y="221.734602" transform="rotate(-0 298.6 221.734602)">0.0</text>
     </g>
    </g>
    <g id="ytick_18">
     <g id="line2d_43">
      <g>
       <use xlink:href="#m12bb5d6c62" x="291.6" y="205.267433" style="stroke: #000000; stroke-width: 0.8"/>
      </g>
     </g>
     <g id="text_33">
      <text style="font: 6px 'inter', sans-serif; text-anchor: start" x="298.6" y="207.449933" transform="rotate(-0 298.6 207.449933)">0.5</text>
     </g>
    </g>
    <g id="ytick_19">
     <g id="line2d_44">
      <g>
       <use xlink:href="#m12bb5d6c62" x="291.6" y="190.982763" style="stroke: #000000; stroke-width: 0.8"/>
      </g>
     </g>
     <g id="text_34">
      <text style="font: 6px 'inter', sans-serif; text-anchor: start" x="298.6" y="193.165263" transform="rotate(-0 298.6 193.165263)">1.0</text>
     </g>
    </g>
    <g id="ytick_20">
     <g id="line2d_45">
      <g>
       <use xlink:href="#m12bb5d6c62" x="291.6" y="176.698093" style="stroke: #000000; stroke-width: 0.8"/>
      </g>
     </g>
     <g id="text_35">
      <text style="font: 6px 'inter', sans-serif; text-anchor: start" x="298.6" y="178.880593" transform="rotate(-0 298.6 178.880593)">1.5</text>
     </g>
    </g>
    <g id="ytick_21">
     <g id="line2d_46">
      <g>
       <use xlink:href="#m12bb5d6c62" x="291.6" y="162.413423" style="stroke: #000000; stroke-width: 0.8"/>
      </g>
     </g>
     <g id="text_36">
      <text style="font: 6px 'inter', sans-serif; text-anchor: start" x="298.6" y="164.595923" transform="rotate(-0 298.6 164.595923)">2.0</text>
     </g>
    </g>
    <g id="text_37">
     <!-- $\Delta\Delta$ -->
     <g transform="translate(324.461563 216.331304) rotate(-90)">
      <text>
       <tspan style="font: 12px 'DejaVu Sans'" x="0 8.208984" y="-0.25">ΔΔ</tspan>
      </text>
     </g>
    </g>
   </g>
   <g id="LineCollection_8">
    <defs>
     <path id="m42ee1f5eed" d="M 291.6 -31.68 
L 291.6 -128.097391 
" style="stroke: #000000"/>
    </defs>
    <g>
     <use xlink:href="#m42ee1f5eed" x="0" y="288" style="stroke: #000000"/>
    </g>
   </g>
  </g>
  <g id="text_38">
   <text style="fill: #ffa500; font: italic 600 20px 'inter'; text-anchor: middle" x="162" y="23.19" transform="rotate(-0 162 23.19)">R50H05&gt;Chr No Food</text>
  </g>
 </g>
 <defs>
  <clipPath id="p8eb8125686">
   <rect x="40.5" y="34.56" width="251.1" height="96.417391"/>
  </clipPath>
  <clipPath id="p21111af776">
   <rect x="40.5" y="159.902609" width="251.1" height="96.417391"/>
  </clipPath>
 </defs>
</svg>
