<?xml version="1.0" encoding="UTF-8"?>
<!DOCTYPE svg PUBLIC "-//W3C//DTD SVG 1.1//EN" "http://www.w3.org/Graphics/SVG/1.1/DTD/svg11.dtd">
<svg version="1.1" xmlns="http://www.w3.org/2000/svg" xmlns:xlink="http://www.w3.org/1999/xlink" x="0" y="0" width="182.277" height="134.625" viewBox="0, 0, 182.277, 134.625">
  <g id="figure_1">
    <path d="M43.024,101.515 L131.447,101.515 L131.447,15.909 L43.024,15.909 z" fill="#FFFFFF"/>
    <g id="matplotlib.axis_1">
      <g id="xtick_1">
        <g id="m21fee5b78b">
          <path d="M47.044,101.515 L47.044,105.015" fill="#000000"/>
          <path d="M47.044,101.515 L47.044,105.015" fill-opacity="0" stroke="#000000" stroke-width="0.8" stroke-linejoin="round"/>
        </g>
        <text transform="matrix(1, 0, 0, 1, 49.704, 111.834)">
          <tspan x="-5.898" y="2.5" font-family="Inter-Regular" font-size="8" fill="#000000">0.0</tspan>
        </text>
      </g>
      <g id="xtick_2">
        <g id="m21fee5b78b">
          <path d="M65.755,101.515 L65.755,105.015" fill="#000000"/>
          <path d="M65.755,101.515 L65.755,105.015" fill-opacity="0" stroke="#000000" stroke-width="0.8" stroke-linejoin="round"/>
        </g>
        <text transform="matrix(1, 0, 0, 1, 68.143, 111.834)">
          <tspan x="-5.875" y="2.5" font-family="Inter-Regular" font-size="8" fill="#000000">0.5</tspan>
        </text>
      </g>
      <g id="xtick_3">
        <g id="m21fee5b78b">
          <path d="M84.467,101.515 L84.467,105.015" fill="#000000"/>
          <path d="M84.467,101.515 L84.467,105.015" fill-opacity="0" stroke="#000000" stroke-width="0.8" stroke-linejoin="round"/>
        </g>
        <text transform="matrix(1, 0, 0, 1, 86.855, 111.834)">
          <tspan x="-5.188" y="2.5" font-family="Inter-Regular" font-size="8" fill="#000000">1.0</tspan>
        </text>
      </g>
      <g id="xtick_4">
        <g id="m21fee5b78b">
          <path d="M103.178,101.515 L103.178,105.015" fill="#000000"/>
          <path d="M103.178,101.515 L103.178,105.015" fill-opacity="0" stroke="#000000" stroke-width="0.8" stroke-linejoin="round"/>
        </g>
        <text transform="matrix(1, 0, 0, 1, 105.566, 111.834)">
          <tspan x="-5.165" y="2.5" font-family="Inter-Regular" font-size="8" fill="#000000">1.5</tspan>
        </text>
      </g>
      <g id="xtick_5">
        <g id="m21fee5b78b">
          <path d="M121.889,101.515 L121.889,105.015" fill="#000000"/>
          <path d="M121.889,101.515 L121.889,105.015" fill-opacity="0" stroke="#000000" stroke-width="0.8" stroke-linejoin="round"/>
        </g>
        <text transform="matrix(1, 0, 0, 1, 124.515, 111.834)">
          <tspan x="-5.92" y="2.5" font-family="Inter-Regular" font-size="8" fill="#000000">2.0</tspan>
        </text>
      </g>
      <text transform="matrix(1, 0, 0, 1, 87.236, 123.289)">
        <tspan x="-9.324" y="2.5" font-family="Inter-Regular" font-size="8" fill="#000000">Time </tspan>
      </text>
    </g>
    <g id="matplotlib.axis_2">
      <g id="ytick_1">
        <g id="mdc6434d827">
          <path d="M43.266,84.058 L39.766,84.058" fill="#000000"/>
          <path d="M43.266,84.058 L39.766,84.058" fill-opacity="0" stroke="#000000" stroke-width="0.8" stroke-linejoin="round"/>
        </g>
        <text transform="matrix(1, 0, 0, 1, 27.238, 84.468)">
          <tspan x="-8.028" y="2.5" font-family="Inter-Regular" font-size="8" fill="#000000">6.40</tspan>
        </text>
      </g>
      <g id="ytick_2">
        <g id="mdc6434d827">
          <path d="M43.266,66.164 L39.766,66.164" fill="#000000"/>
          <path d="M43.266,66.164 L39.766,66.164" fill-opacity="0" stroke="#000000" stroke-width="0.8" stroke-linejoin="round"/>
        </g>
        <text transform="matrix(1, 0, 0, 1, 27.306, 66.574)">
          <tspan x="-7.96" y="2.5" font-family="Inter-Regular" font-size="8" fill="#000000">6.45</tspan>
        </text>
      </g>
      <g id="ytick_3">
        <g id="mdc6434d827">
          <path d="M43.266,48.271 L39.766,48.271" fill="#000000"/>
          <path d="M43.266,48.271 L39.766,48.271" fill-opacity="0" stroke="#000000" stroke-width="0.8" stroke-linejoin="round"/>
        </g>
        <text transform="matrix(1, 0, 0, 1, 27.431, 48.68)">
          <tspan x="-7.835" y="2.5" font-family="Inter-Regular" font-size="8" fill="#000000">6.50</tspan>
        </text>
      </g>
      <g id="ytick_4">
        <g id="mdc6434d827">
          <path d="M43.266,30.377 L39.766,30.377" fill="#000000"/>
          <path d="M43.266,30.377 L39.766,30.377" fill-opacity="0" stroke="#000000" stroke-width="0.8" stroke-linejoin="round"/>
        </g>
        <text transform="matrix(1, 0, 0, 1, 27.499, 30.786)">
          <tspan x="-7.767" y="2.5" font-family="Inter-Regular" font-size="8" fill="#000000">6.55</tspan>
        </text>
      </g>
      <text transform="matrix(0, -1, 1, 0, 10.8, 58.712)">
        <tspan x="-50.097" y="2.5" font-family="Inter-Regular" font-size="8" fill="#000000">Capilary Liquid Level (mm)</tspan>
      </text>
    </g>
    <path d="M47.044,20.484 L47.155,20.401 L47.266,19.979 L47.31,20.085 L47.443,20.576 L47.466,20.429 L47.51,20.578 L47.688,20.327 L47.71,20.191 L47.754,20.35 L47.776,20.455 L47.821,20.433 L47.843,20.151 L47.887,20.394 L47.91,20.293 L47.932,20.509 L48.087,20.074 L48.109,20.185 L48.221,20.467 L48.243,20.319 L48.265,20.543 L48.287,20.55 L48.398,20.775 L48.421,20.609 L48.465,20.839 L48.487,20.717 L48.509,20.744 L48.598,21.045 L48.687,19.8 L48.731,20.132 L48.754,20.468 L48.821,20.425 L48.887,20.448 L48.909,20.579 L48.953,20.418 L49.043,20.237 L49.131,20.501 L49.176,20.579 L49.198,20.556 L49.242,20.492 L49.287,20.755 L49.331,20.636 L49.42,20.144 L49.442,20.177 L49.62,20.264 L49.664,20.104 L49.686,20.167 L49.864,20.58 L49.976,20.285 L49.997,20.451 L50.02,20.317 L50.109,20.278 L50.131,20.19 L50.153,20.363 L50.242,20.614 L50.264,20.647 L50.286,20.408 L50.353,20.441 L50.375,20.475 L50.397,20.677 L50.442,20.452 L50.486,20.395 L50.575,20.529 L50.597,20.458 L50.664,20.438 L50.775,20.604 L50.82,20.429 L50.864,20.456 L50.975,20.369 L51.063,20.603 L51.308,20.103 L51.352,20.219 L51.375,20.151 L51.396,20.062 L51.441,20.164 L51.641,20.568 L51.885,20.38 L51.952,20.678 L51.974,20.525 L52.041,20.291 L52.063,20.553 L52.108,20.301 L52.13,20.344 L52.219,20.714 L52.308,20.758 L52.374,21.047 L52.396,20.911 L52.641,20.525 L52.663,20.692 L52.707,20.532 L52.729,20.621 L52.774,20.581 L52.818,20.466 L52.885,20.885 L52.951,20.669 L53.107,20.671 L53.173,20.359 L53.196,20.412 L53.284,20.182 L53.329,20.228 L53.374,20.559 L53.395,20.432 L53.44,20.325 L53.529,20.922 L53.551,20.89 L53.662,20.876 L53.729,20.538 L53.795,20.906 L53.818,20.71 L53.84,20.691 L53.862,20.394 L53.929,20.465 L53.951,20.758 L53.996,20.573 L54.017,20.446 L54.063,20.543 L54.174,20.399 L54.196,20.517 L54.307,20.214 L54.329,20.239 L54.352,20.178 L54.396,19.987 L54.44,20.022 L54.484,20.334 L54.507,20.158 L54.551,20.095 L54.574,20.136 L54.596,19.878 L54.64,20.222 L54.707,20.367 L54.751,20.281 L54.773,20.2 L54.84,20.434 L54.862,20.412 L54.884,20.311 L54.929,20.443 L55.173,20.177 L55.24,20.23 L55.262,20.424 L55.307,20.259 L55.328,20.252 L55.373,20.506 L55.395,20.48 L55.484,20.525 L55.506,20.578 L55.529,20.467 L55.595,20.389 L55.617,20.164 L55.662,20.448 L55.751,20.629 L55.772,20.434 L55.817,20.467 L55.862,20.807 L55.906,20.769 L55.973,20.609 L56.062,20.172 L56.106,20.442 L56.128,20.335 L56.15,20.148 L56.173,20.492 L56.284,20.284 L56.306,20.169 L56.328,20.273 L56.417,20.535 L56.462,20.367 L56.506,20.219 L56.528,20.361 L56.573,20.477 L56.595,20.4 L56.661,20.093 L56.684,20.142 L56.728,20.328 L56.839,20.579 L56.972,20.643 L57.039,20.294 L57.084,20.353 L57.195,20.242 L57.306,20.728 L57.35,20.5 L57.417,20.594 L57.505,20.817 L57.594,20.419 L57.661,20.112 L57.683,20.171 L57.794,20.657 L57.838,20.534 L58.105,20.854 L58.128,20.983 L58.216,20.987 L58.327,21.5 L58.371,21.291 L58.416,21.379 L58.505,21.255 L58.572,21.639 L58.594,21.536 L58.705,21.572 L58.727,21.848 L58.838,21.843 L58.86,21.965 L58.905,21.836 L58.949,21.625 L58.993,21.654 L59.326,22.403 L59.482,22.444 L59.571,23.219 L59.593,23.016 L59.615,22.918 L59.638,23.006 L59.726,23.083 L59.749,22.938 L59.77,23.145 L59.815,23.109 L59.86,23.372 L59.882,23.406 L59.926,23.622 L59.948,23.424 L60.104,23.213 L60.148,23.306 L60.259,23.368 L60.326,23.214 L60.371,23.279 L60.504,23.608 L60.57,24.084 L60.593,23.913 L60.615,23.981 L60.682,23.691 L60.704,23.829 L60.726,23.725 L60.748,23.987 L60.926,24.444 L60.992,24.351 L61.037,24.799 L61.059,25.228 L61.103,25.062 L61.126,25.011 L61.17,25.08 L61.214,25.036 L61.304,24.973 L61.37,25.479 L61.481,27.244 L61.503,26.958 L61.526,27.152 L61.614,28.585 L61.658,27.707 L61.681,28.396 L61.703,28.648 L61.725,28.608 L61.836,27.07 L61.925,28.533 L61.947,28.064 L61.992,28.369 L62.036,28.142 L62.125,29.228 L62.147,28.814 L62.169,29.395 L62.192,29.175 L62.325,31.121 L62.436,29.1 L62.458,29.091 L62.614,30.957 L62.681,30.456 L62.747,31.318 L62.769,31.107 L62.792,31.14 L62.814,30.824 L62.836,31.245 L62.925,31.777 L62.969,31.649 L62.991,31.501 L63.014,31.76 L63.036,31.821 L63.058,31.3 L63.081,31.966 L63.102,31.863 L63.213,33.35 L63.236,33.34 L63.303,34.089 L63.347,33.976 L63.458,34.501 L63.502,33.936 L63.525,34.004 L63.546,34.651 L63.569,33.912 L63.591,34 L63.747,35.53 L63.813,35.222 L63.858,35.282 L63.924,35.579 L63.946,35.404 L63.991,35.564 L64.08,35.962 L64.124,35.943 L64.257,36.742 L64.279,36.527 L64.324,36.193 L64.346,36.476 L64.457,37.212 L64.501,37.062 L64.524,37.126 L64.546,36.659 L64.613,36.814 L64.635,37.414 L64.68,36.977 L64.702,37.041 L64.724,36.91 L64.857,36.565 L64.901,36.708 L64.924,36.992 L64.969,36.869 L64.991,36.695 L65.013,36.721 L65.08,37.901 L65.124,37.736 L65.213,37.261 L65.368,38.314 L65.391,38.311 L65.413,38.103 L65.458,38.387 L65.479,38.458 L65.502,38.832 L65.546,38.396 L65.613,38.722 L65.635,38.473 L65.768,37.977 L65.812,38.056 L65.879,38.315 L66.013,39.62 L66.035,39.546 L66.101,39.301 L66.212,39.75 L66.257,39.625 L66.324,40.108 L66.368,39.913 L66.412,39.96 L66.435,39.966 L66.479,39.76 L66.501,39.807 L66.568,40.266 L66.59,40.228 L66.612,40.124 L66.634,40.173 L66.723,40.553 L66.812,39.872 L66.857,39.969 L66.968,39.983 L67.057,39.628 L67.101,39.408 L67.145,39.523 L67.256,39.584 L67.523,40.753 L67.545,40.759 L67.568,40.963 L67.612,40.895 L67.7,40.589 L67.723,40.746 L67.745,40.687 L67.767,40.518 L67.79,40.581 L67.811,40.846 L67.856,40.569 L67.878,40.551 L67.901,40.659 L67.922,40.762 L67.945,40.611 L67.967,40.707 L67.989,40.539 L68.033,40.594 L68.123,40.919 L68.145,40.84 L68.167,41.044 L68.256,41.243 L68.278,41.189 L68.389,41.543 L68.433,41.555 L68.5,42.028 L68.522,41.844 L68.567,41.773 L68.722,42.601 L68.767,42.558 L68.833,42.418 L68.856,42.494 L68.878,42.535 L68.989,42.481 L69.078,43.001 L69.1,42.982 L69.167,42.74 L69.189,42.773 L69.322,42.663 L69.411,43.068 L69.456,42.86 L69.477,42.995 L69.633,44.333 L69.678,43.982 L69.699,43.886 L69.722,44.169 L69.766,43.788 L69.921,44.62 L69.944,44.421 L69.988,44.255 L70.011,44.45 L70.122,44.622 L70.21,45.538 L70.233,45.478 L70.255,45.318 L70.322,46.017 L70.344,45.978 L70.455,45.185 L70.477,45.219 L70.632,47.21 L70.655,46.836 L70.677,47.102 L70.877,49.199 L70.899,48.592 L70.944,49.238 L71.01,49.791 L71.032,48.958 L71.099,49.199 L71.143,50.233 L71.21,50.069 L71.455,52.525 L71.476,52.099 L71.521,52.456 L71.698,54.234 L71.765,53.916 L71.788,54.036 L71.876,54.501 L71.943,54.249 L71.965,54.38 L72.031,54.599 L72.076,54.451 L72.165,55.158 L72.187,54.903 L72.232,55.083 L72.32,55.377 L72.365,55.16 L72.387,55.304 L72.565,55.946 L72.587,55.687 L72.609,55.998 L72.698,56.806 L72.743,56.603 L72.854,57.089 L72.875,56.834 L72.92,57.009 L72.942,57.049 L73.009,57.515 L73.031,57.361 L73.12,57.204 L73.209,57.59 L73.231,57.573 L73.253,57.439 L73.275,57.549 L73.32,57.942 L73.342,57.765 L73.364,57.504 L73.431,57.595 L73.52,57.94 L73.586,58.316 L73.631,58.104 L73.653,58.288 L73.742,58.406 L73.764,58.239 L73.808,58.272 L73.942,58.64 L73.964,58.577 L74.164,59.048 L74.253,58.598 L74.408,59.319 L74.475,59.209 L74.497,59.293 L74.631,59.654 L74.697,59.644 L74.742,59.823 L74.786,59.713 L74.853,59.534 L74.874,59.578 L74.919,59.7 L74.942,59.511 L74.986,59.597 L75.208,60.504 L75.275,60.783 L75.297,60.727 L75.319,60.711 L75.342,60.887 L75.386,60.819 L75.563,60.716 L75.608,60.912 L75.807,61.318 L75.83,61.268 L75.919,61.248 L76.074,62.032 L76.097,61.967 L76.119,62.065 L76.185,62.306 L76.208,62.25 L76.275,62.179 L76.363,62.451 L76.474,61.828 L76.497,61.964 L76.586,62.556 L76.608,62.393 L76.652,62.548 L76.808,63.401 L76.83,63.288 L76.852,63.359 L76.874,63.493 L76.896,63.314 L76.919,63.308 L76.963,63.304 L77.185,64.068 L77.274,64.114 L77.296,63.911 L77.363,63.969 L77.452,64.36 L77.496,64.247 L77.585,63.975 L77.629,64.044 L77.652,64.066 L77.696,63.875 L77.719,65.03 L77.785,64.67 L77.83,64.78 L77.851,64.698 L77.874,64.457 L77.941,64.512 L78.052,65.552 L78.118,65.497 L78.163,64.877 L78.207,64.936 L78.229,64.875 L78.318,65.834 L78.362,65.656 L78.385,65.441 L78.406,65.459 L78.429,65.811 L78.473,65.423 L78.518,65.479 L78.562,65.268 L78.74,68.956 L78.762,68.87 L78.806,68.154 L78.851,69.071 L79.007,67.481 L79.14,69.692 L79.362,72.796 L79.451,72.114 L79.495,73.023 L79.54,72.659 L79.584,72.333 L79.606,72.36 L79.739,74.503 L79.806,74.184 L79.917,75.337 L79.94,75.365 L80.028,75.947 L80.072,75.607 L80.117,75.755 L80.139,75.81 L80.162,75.756 L80.206,75.57 L80.228,75.648 L80.317,76.199 L80.339,75.846 L80.361,76.228 L80.45,77.106 L80.561,76.546 L80.739,77.586 L80.828,78.141 L80.894,77.909 L80.983,78.402 L81.028,78.58 L81.072,78.021 L81.094,78.245 L81.117,78.437 L81.138,78.047 L81.161,78.115 L81.25,77.469 L81.272,77.541 L81.339,78.094 L81.361,77.823 L81.428,78.306 L81.45,78.051 L81.472,77.967 L81.627,79.087 L81.716,79.403 L81.761,79.103 L81.783,79.29 L81.849,80.011 L81.916,79.832 L81.939,79.956 L82.005,79.412 L82.027,79.545 L82.05,79.432 L82.071,79.981 L82.116,79.703 L82.182,79.147 L82.205,79.468 L82.227,79.491 L82.249,79.443 L82.272,79.353 L82.293,79.532 L82.316,79.471 L82.405,80.085 L82.427,79.745 L82.471,79.769 L82.56,80.07 L82.605,79.76 L82.627,79.91 L82.693,79.947 L82.782,80.561 L82.804,80.156 L82.849,80.421 L82.915,80.832 L82.938,80.688 L82.96,80.663 L82.982,80.741 L83.182,81.524 L83.027,80.675 L83.204,81.465 L83.293,81.294 L83.382,81.939 L83.449,81.495 L83.471,81.706 L83.493,81.663 L83.515,81.765 L83.538,81.735 L83.626,81.941 L83.649,81.861 L83.76,81.603 L83.782,81.477 L83.804,81.596 L83.937,83.392 L83.959,82.909 L84.004,82.843 L84.07,83.068 L84.093,82.996 L84.115,83.099 L84.16,83.175 L84.181,83.055 L84.226,83.378 L84.271,83.704 L84.315,83.47 L84.337,83.524 L84.382,83.259 L84.404,83.567 L84.448,83.531 L84.47,83.332 L84.493,83.584 L84.537,84.4 L84.581,84.293 L84.648,83.801 L84.781,84.702 L84.826,84.544 L84.848,84.706 L84.87,84.723 L84.893,84.522 L84.981,85.291 L85.004,85.341 L85.115,84.235 L85.181,85.307 L85.203,85.199 L85.314,84.774 L85.381,86.322 L85.403,85.964 L85.448,86.073 L85.514,85.435 L85.581,85.373 L85.692,87.658 L85.758,87.697 L85.781,87.286 L85.803,87.239 L85.914,88.3 L86.048,87.152 L86.092,88.61 L86.136,87.967 L86.247,88.873 L86.27,89.576 L86.314,89.261 L86.336,89.182 L86.358,89.378 L86.492,91.14 L86.558,90.12 L86.58,90.497 L86.647,91.207 L86.714,92.09 L86.736,92.426 L86.759,91.824 L86.781,92.173 L86.803,92.19 L86.87,92.08 L86.892,92.653 L87.092,93.691 L87.114,93.667 L87.225,93.86 L87.247,93.224 L87.425,93.995 L87.447,93.952 L87.47,93.699 L87.514,94.486 L87.558,94.357 L87.736,94.974 L87.758,94.925 L87.803,94.738 L87.825,95.097 L87.891,95.054 L87.981,95.786 L88.092,97.624 L88.18,97.052 L88.314,95.806 L88.358,96.154 L88.38,95.98 L88.447,95.767 L88.536,95.251 L88.669,94.647 L88.691,94.758 L88.869,95.221 L88.891,95.447 L88.913,95.105 L88.935,95.222 L88.98,95.428 L89.002,95.378 L89.024,95.108 L89.091,95.169 L89.135,95.074 L89.246,94.662 L89.269,94.697 L89.29,94.533 L89.313,94.609 L89.424,94.36 L89.446,94.388 L89.468,94.643 L89.491,94.288 L89.513,94.467 L89.535,94.171 L89.579,94.566 L89.602,94.635 L89.624,94.604 L89.668,94.132 L89.69,94.474 L89.735,94.937 L89.779,94.815 L89.801,94.58 L89.824,94.924 L89.846,95.166 L89.89,94.893 L89.98,94.18 L89.935,95.022 L90.024,94.623 L90.068,94.646 L90.223,94.817 L90.246,94.769 L90.29,95.039 L90.313,94.991 L90.334,94.808 L90.357,95.114 L90.379,94.879 L90.49,95.193 L90.535,94.993 L90.556,95.232 L90.601,95.219 L90.667,94.566 L90.69,94.664 L90.801,95.404 L90.845,95.23 L90.868,95.078 L90.956,95.042 L90.979,94.707 L91.023,94.879 L91.045,95.094 L91.09,95.011 L91.156,94.378 L91.178,94.486 L91.201,94.47 L91.223,94.826 L91.268,94.374 L91.334,94.685 L91.356,94.631 L91.445,94.471 L91.467,94.618 L91.49,94.461 L91.556,94.392 L91.712,95.512 L91.734,95.486 L91.756,95.084 L91.801,95.271 L91.823,95.29 L91.956,94.407 L91.978,94.766 L92.023,94.717 L92.045,94.479 L92.089,94.703 L92.2,95.476 L92.289,95.148 L92.311,95.212 L92.333,95.194 L92.423,95.645 L92.534,95.305 L92.622,94.577 L92.711,94.914 L92.733,94.772 L92.756,94.939 L92.778,94.883 L92.8,95.088 L92.822,94.917 L92.844,94.714 L92.867,94.997 L92.911,95.233 L92.933,94.942 L92.978,95.156 L93.022,95.068 L93.044,95.169 L93.133,95.492 L93.155,95.163 L93.2,95.258 L93.288,95.402 L93.355,94.706 L93.399,95.045 L93.466,95.452 L93.533,94.961 L93.555,95.115 L93.577,95.549 L93.6,95.43 L93.711,95.295 L93.777,95.036 L93.866,95.368 L93.91,95.228 L93.933,95.52 L93.977,95.399 L93.999,95.281 L94.044,95.432 L94.088,95.655 L94.11,95.493 L94.155,95.147 L94.177,95.363 L94.199,95.603 L94.244,95.476 L94.266,95.492 L94.288,95.399 L94.488,94.333 L94.51,94.413 L94.533,94.327 L94.554,94.238 L94.599,94.821 L94.643,94.648 L94.688,94.456 L94.843,94.628 L94.888,94.382 L94.91,94.458 L94.977,94.806 L94.999,94.753 L95.021,94.746 L95.043,94.881 L95.065,94.801 L95.088,94.593 L95.11,94.859 L95.132,94.746 L95.287,94.332 L95.31,94.369 L95.398,94.67 L95.421,94.592 L95.443,94.757 L95.576,95.502 L95.643,95.501 L95.665,95.273 L95.687,95.908 L95.754,95.877 L95.776,95.849 L95.798,96.176 L95.842,95.887 L95.887,95.736 L95.909,95.789 L96.065,94.777 L96.131,95.072 L96.154,94.745 L96.198,94.805 L96.22,95.104 L96.265,94.737 L96.287,94.758 L96.331,94.551 L96.398,95.21 L96.42,95.121 L96.442,94.843 L96.487,95.022 L96.509,94.964 L96.553,95.013 L96.576,95.499 L96.62,94.911 L96.687,94.874 L96.709,95.147 L96.731,95.049 L96.754,95.214 L96.865,95.529 L96.887,95.459 L96.931,94.746 L96.953,95.038 L97.131,95.576 L97.242,94.781 L97.286,94.617 L97.309,94.778 L97.353,94.872 L97.487,94.519 L97.598,94.039 L97.642,94.013 L97.664,94.229 L97.687,94.094 L97.709,94.18 L97.731,94.568 L97.776,94.117 L97.798,93.957 L97.82,94.253 L97.931,94.796 L97.954,95.156 L97.976,94.742 L97.998,94.808 L98.065,94.32 L98.087,94.335 L98.153,94.822 L98.198,94.795 L98.287,94.905 L98.331,94.387 L98.354,94.601 L98.375,94.806 L98.398,94.585 L98.486,94.238 L98.509,94.261 L98.553,94.875 L98.597,94.846 L98.62,94.805 L98.664,94.386 L98.687,94.672 L98.731,94.837 L98.819,94.002 L98.842,94.06 L98.93,95.102 L98.953,94.92 L98.975,95.085 L98.997,94.889 L99.042,94.781 L99.064,95.002 L99.086,94.856 L99.153,94.4 L99.197,95.198 L99.219,95.131 L99.242,94.721 L99.308,94.793 L99.375,94.877 L99.419,94.689 L99.552,94.786 L99.663,94.313 L99.775,95.094 L99.864,94.494 L99.886,94.48 L99.93,94.983 L99.975,94.719 L99.997,94.532 L100.041,94.778 L100.064,94.808 L100.086,94.7 L100.13,94.811 L100.175,94.473 L100.219,94.549 L100.242,94.435 L100.263,94.482 L100.308,94.714 L100.397,93.644 L100.419,93.743 L100.53,94.816 L100.552,94.586 L100.575,94.626 L100.619,94.315 L100.641,94.529 L100.663,94.496 L100.686,94.691 L100.707,94.4 L100.73,94.334 L100.752,94.545 L100.797,94.324 L100.885,94.974 L100.908,94.862 L100.929,94.572 L100.996,94.67 L101.063,94.69 L101.085,94.522 L101.107,94.821 L101.13,94.696 L101.152,94.845 L101.196,94.661 L101.218,94.506 L101.241,94.942 L101.285,94.718 L101.374,94.758 L101.418,94.33 L101.485,94.445 L101.596,94.876 L101.685,94.177 L101.707,94.211 L101.752,94.425 L101.774,94.231 L101.796,94.243 L101.818,94.407 L101.84,94.202 L101.884,94.366 L101.907,94.282 L101.951,94.616 L101.974,94.429 L101.996,94.263 L102.018,94.445 L102.085,94.869 L102.107,94.684 L102.129,94.653 L102.284,93.169 L102.418,94.017 L102.44,93.877 L102.462,94.25 L102.507,93.971 L102.529,93.698 L102.551,94.09 L102.595,94.294 L102.662,94.908 L102.729,94.798 L102.796,95.047 L102.84,94.939 L102.862,94.962 L102.951,94.586 L102.973,94.594 L102.995,94.388 L103.04,94.407 L103.062,94.493 L103.151,94.213 L103.24,94.414 L103.262,94.309 L103.306,93.534 L103.351,93.971 L103.395,94.109 L103.417,93.84 L103.439,94.336 L103.506,94.725 L103.684,93.377 L103.706,93.406 L103.772,93.927 L103.795,93.748 L103.817,93.558 L103.862,93.715 L103.906,93.698 L103.95,93.984 L103.973,93.828 L103.994,94.078 L104.017,94.087 L104.084,94.606 L104.15,93.893 L104.172,93.941 L104.195,93.967 L104.239,93.608 L104.283,93.636 L104.417,94.541 L104.439,94.627 L104.461,94.501 L104.572,93.608 L104.594,93.815 L104.639,93.428 L104.661,93.567 L104.684,93.893 L104.705,93.761 L104.728,93.437 L104.75,94.016 L104.772,94.06 L104.816,94.726 L104.861,94.426 L104.905,94.461 L104.972,93.865 L105.061,93.942 L105.239,92.843 L105.305,93.028 L105.461,94.387 L105.505,94.245 L105.616,93.471 L105.683,94.298 L105.727,93.863 L105.816,94.374 L105.838,94.294 L105.927,95.028 L106.083,94.134 L106.149,93.664 L106.171,93.857 L106.238,94.447 L106.26,94.217 L106.349,93.575 L106.371,93.747 L106.393,93.885 L106.416,93.573 L106.438,93.444 L106.46,93.633 L106.482,93.648 L106.571,93.367 L106.638,93.141 L106.815,93.844 L106.837,93.79 L106.882,93.52 L106.927,94.106 L106.971,94.004 L106.993,94.216 L107.038,94.035 L107.06,93.999 L107.104,93.32 L107.149,93.588 L107.238,93.885 L107.304,93.505 L107.326,93.651 L107.46,94.321 L107.571,94.502 L107.593,94.677 L107.615,94.401 L107.638,94.318 L107.659,93.832 L107.704,94.031 L107.77,94.959 L107.815,94.692 L107.837,94.731 L107.971,93.926 L108.015,94.501 L108.037,94.303 L108.059,93.843 L108.126,93.856 L108.193,94.284 L108.281,92.932 L108.37,93.595 L108.415,93.379 L108.437,93.553 L108.459,93.511 L108.481,93.576 L108.548,94.025 L108.637,93.281 L108.66,93.333 L108.682,93.368 L108.727,93.7 L108.748,93.459 L108.771,93.072 L108.815,93.597 L108.882,93.778 L108.926,93.937 L108.97,93.407 L108.993,93.587 L109.037,93.485 L109.06,93.13 L109.126,93.209 L109.171,93.616 L109.215,93.519 L109.259,93.459 L109.303,93.853 L109.393,93.069 L109.504,93.875 L109.615,93.478 L109.703,93.6 L109.748,92.991 L109.792,93.112 L109.904,94.332 L109.925,94.152 L109.97,94.305 L110.015,94.453 L110.103,93.503 L110.17,93.863 L110.192,94.015 L110.237,93.842 L110.281,93.396 L110.303,93.808 L110.37,93.878 L110.437,94.228 L110.459,94.172 L110.481,94.074 L110.57,92.984 L110.659,93.598 L110.703,93.208 L110.725,93.36 L110.858,93.944 L110.881,94.431 L110.925,93.86 L110.947,93.793 L110.992,94.436 L111.014,94.236 L111.103,93.655 L111.125,93.912 L111.147,93.226 L111.191,93.436 L111.281,93.564 L111.303,93.413 L111.325,93.751 L111.347,93.606 L111.458,94.118 L111.48,93.846 L111.525,94.076 L111.547,94.041 L111.591,93.672 L111.614,94.047 L111.658,94.164 L111.68,94.063 L111.769,93.169 L111.836,92.883 L111.858,92.911 L111.947,93.441 L111.969,93.001 L112.014,93.152 L112.036,93.264 L112.058,93.185 L112.08,93.015 L112.102,93.063 L112.146,93.553 L112.169,93.416 L112.191,93.151 L112.236,93.295 L112.302,93.808 L112.325,93.583 L112.347,93.258 L112.413,93.355 L112.458,92.926 L112.524,92.951 L112.546,93.039 L112.635,93.695 L112.657,93.669 L112.746,93.248 L112.924,94.146 L113.035,93.278 L113.102,93.573 L113.124,93.418 L113.146,93.867 L113.19,93.574 L113.213,93.457 L113.235,93.516 L113.257,93.831 L113.302,93.465 L113.324,93.509 L113.346,93.324 L113.368,93.599 L113.413,93.631 L113.546,92.908 L113.457,93.682 L113.568,93.036 L113.724,93.974 L113.746,93.934 L113.768,94.109 L113.857,93.354 L113.879,93.45 L113.923,93.374 L114.057,92.609 L114.301,93.655 L114.323,93.558 L114.346,93.542 L114.434,93.127 L114.457,93.153 L114.479,93.387 L114.523,93.322 L114.545,93.052 L114.59,93.157 L114.679,93.584 L114.745,93.637 L114.812,94.173 L114.834,94.073 L114.923,92.98 L114.945,93.281 L115.012,93.764 L115.056,92.946 L115.101,93.102 L115.167,93.608 L115.212,93.436 L115.234,93.446 L115.323,92.948 L115.345,93.059 L115.367,92.953 L115.434,92.623 L115.456,92.798 L115.501,93.01 L115.523,92.583 L115.567,93.013 L115.589,93.15 L115.612,92.855 L115.656,92.606 L115.678,92.852 L115.7,92.731 L115.723,92.743 L115.856,93.58 L115.901,93.463 L115.945,94.057 L115.967,93.832 L116.078,93.361 L116.1,93.474 L116.144,93.549 L116.167,93.358 L116.189,93.609 L116.211,93.238 L116.234,93.125 L116.255,93.395 L116.278,93.665 L116.322,93.315 L116.345,93.321 L116.366,92.742 L116.411,93.033 L116.433,93.056 L116.456,92.994 L116.477,92.756 L116.522,92.959 L116.544,93.362 L116.589,93.188 L116.722,93.007 L116.766,93.12 L116.833,93.232 L116.944,92.33 L116.989,93.152 L117.033,92.901 L117.055,92.9 L117.122,93.493 L117.144,93.463 L117.166,93.06 L117.211,93.454 L117.255,93.255 L117.388,92.685 L117.477,92.398 L117.522,92.947 L117.566,92.862 L117.655,92.504 L117.744,93.113 L117.766,92.896 L117.81,92.712 L117.833,93.178 L117.877,92.723 L117.9,92.899 L117.921,92.552 L117.988,92.58 L118.011,92.283 L118.143,93.644 L118.188,93.052 L118.233,93.154 L118.277,92.916 L118.388,93.617 L118.499,92.318 L118.654,93.019 L118.699,92.623 L118.743,92.822 L118.81,92.941 L118.854,92.696 L118.899,92.773 L118.921,92.768 L118.943,93.061 L119.01,92.966 L119.054,92.824 L119.076,92.965 L119.121,92.93 L119.143,92.751 L119.165,93.016 L119.188,93.007 L119.232,93.301 L119.254,92.847 L119.32,92.874 L119.343,93.103 L119.365,92.986 L119.521,91.85 L119.544,91.969 L119.588,92.435 L119.632,92.258 L119.655,92.235 L119.788,93.174 L119.832,93.051 L119.899,92.955 L119.921,92.74 L119.988,92.766 L120.01,92.911 L120.076,92.871 L120.121,92.737 L120.21,93.25 L120.232,93.341 L120.254,93.001 L120.277,93.355 L120.321,93.116 L120.343,93.205 L120.365,93.071 L120.388,92.969 L120.409,93.163 L120.432,93.3 L120.476,92.449 L120.543,92.738 L120.632,93.149 L120.676,92.143 L120.721,92.491 L120.854,93.643 L120.876,93.616 L120.898,93.198 L120.92,93.23 L120.965,93.645 L120.987,93.161 L121.054,92.049 L121.076,92.525 L121.12,93.186 L121.165,93.056 L121.276,92.661 L121.298,93.006 L121.342,92.678 L121.476,93.205 L121.52,93.008 L121.543,92.954 L121.609,92.402 L121.631,92.427 L121.698,92.626 L121.72,92.552 L121.742,92.453 L121.765,92.578 L121.92,93.068 L121.987,92.677 L122.031,92.864 L122.075,92.949 L122.098,92.744 L122.142,92.934 L122.209,93.106 L122.231,92.994 L122.276,92.791 L122.297,92.944 L122.387,93.307 L122.498,92.797 L122.609,93.531 L122.653,93.576 L122.764,92.905 L122.786,93.143 L122.808,92.766 L122.853,93.103 L122.919,93.264 L123.008,93.077 L123.053,93.577 L123.075,93.473 L123.142,92.551 L123.186,92.763 L123.275,93.303 L123.341,92.73 L123.364,92.993 L123.386,93.071 L123.408,92.866 L123.497,92.691 L123.519,92.8 L123.541,92.445 L123.586,92.852 L123.675,93.435 L123.719,92.875 L123.764,93.17 L123.786,93.07 L123.808,93.262 L123.83,93.481 L123.897,93.457 L123.919,93.446 L123.986,92.783 L124.03,93.074 L124.052,93.128 L124.074,93.061 L124.141,92.687 L124.164,92.858 L124.23,93.403 L124.252,93.311 L124.319,93.096 L124.341,93.14 L124.363,93.162 L124.474,92.703 L124.563,93.154 L124.608,93.495 L124.629,93.4 L124.696,92.558 L124.763,92.812 L124.807,93.117 L124.83,92.788 L124.874,93.107 L124.918,92.889 L124.941,92.857 L124.985,93.397 L125.052,93.316 L125.118,92.865 L125.163,93.375 L125.207,93.08 L125.34,93.582 L125.385,93.15 L125.429,93.315 L125.451,93.202 L125.474,93.428 L125.496,93.467 L125.629,92.225 L125.696,92.506 L125.74,92.921 L125.763,92.654 L125.807,92.328 L125.851,93.115 L125.896,92.862 L125.918,92.663 L125.94,92.863 L125.985,93.23 L126.029,92.97 L126.051,92.889 L126.096,93.337 L126.14,93.165 L126.229,93.122 L126.251,93.355 L126.273,93.035 L126.295,93.183 L126.318,92.948 L126.385,93.02 L126.451,93.586 L126.473,92.979 L126.54,93.136 L126.562,93.246 L126.584,92.825 L126.651,92.869 L126.673,92.817 L126.695,92.839 L126.739,93.193 L126.762,92.928 L126.895,92.806 L126.962,91.988 L126.984,92.157 L127.073,93.586 L127.095,93.286 L127.139,93.138 L127.184,93.505 L127.206,93.212 L127.228,92.999 L127.251,93.23 L127.295,93.075 L127.384,92.721 L127.406,93.397 L127.428,92.897" fill-opacity="0" stroke="#1F77B4" stroke-width="1.5" stroke-linecap="square" stroke-linejoin="round"/>
    <path d="M43.266,101.515 L43.266,15.909" fill-opacity="0" stroke="#000000" stroke-width="0.8" stroke-linecap="square"/>
    <path d="M131.447,101.515 L131.447,15.909" fill-opacity="0" stroke="#000000" stroke-width="0.8" stroke-linecap="square"/>
    <path d="M43.024,101.515 L131.447,101.515" fill-opacity="0" stroke="#000000" stroke-width="0.8" stroke-linecap="square"/>
    <path d="M43.024,15.909 L131.447,15.909" fill-opacity="0" stroke="#000000" stroke-width="0.8" stroke-linecap="square"/>
  </g>
</svg>
