<?xml version="1.0" encoding="utf-8" standalone="no"?>
<!DOCTYPE svg PUBLIC "-//W3C//DTD SVG 1.1//EN"
  "http://www.w3.org/Graphics/SVG/1.1/DTD/svg11.dtd">
<svg xmlns:xlink="http://www.w3.org/1999/xlink" width="773.289062pt" height="182.63125pt" viewBox="0 0 773.289062 182.63125" xmlns="http://www.w3.org/2000/svg" version="1.1">
 <metadata>
  <rdf:RDF xmlns:dc="http://purl.org/dc/elements/1.1/" xmlns:cc="http://creativecommons.org/ns#" xmlns:rdf="http://www.w3.org/1999/02/22-rdf-syntax-ns#">
   <cc:Work>
    <dc:type rdf:resource="http://purl.org/dc/dcmitype/StillImage"/>
    <dc:date>2025-02-18T00:56:21.799733</dc:date>
    <dc:format>image/svg+xml</dc:format>
    <dc:creator>
     <cc:Agent>
      <dc:title>Matplotlib v3.6.3, https://matplotlib.org/</dc:title>
     </cc:Agent>
    </dc:creator>
   </cc:Work>
  </rdf:RDF>
 </metadata>
 <defs>
  <style type="text/css">*{stroke-linejoin: round; stroke-linecap: butt}</style>
 </defs>
 <g id="figure_1">
  <g id="patch_1">
   <path d="M 0 182.63125 
L 773.289062 182.63125 
L 773.289062 0 
L 0 0 
z
" style="fill: #ffffff"/>
  </g>
  <g id="axes_1">
   <g id="patch_2">
    <path d="M 40.689063 145.8 
L 188.729879 145.8 
L 188.729879 7.2 
L 40.689063 7.2 
z
" style="fill: #ffffff"/>
   </g>
   <g id="line2d_1">
    <path d="M 47.418191 74.43275 
L 182.000751 74.43275 
" clip-path="url(#p345c272a82)" style="fill: none; stroke: #d3d3d3; stroke-width: 0.5; stroke-linecap: square"/>
   </g>
   <g id="line2d_2">
    <path d="M 114.709471 135.365501 
L 114.709471 13.5 
" clip-path="url(#p345c272a82)" style="fill: none; stroke: #d3d3d3; stroke-width: 0.5; stroke-linecap: square"/>
   </g>
   <g id="PathCollection_1">
    <defs>
     <path id="m741efc249c" d="M 0 3 
C 0.795609 3 1.55874 2.683901 2.12132 2.12132 
C 2.683901 1.55874 3 0.795609 3 0 
C 3 -0.795609 2.683901 -1.55874 2.12132 -2.12132 
C 1.55874 -2.683901 0.795609 -3 0 -3 
C -0.795609 -3 -1.55874 -2.683901 -2.12132 -2.12132 
C -2.683901 -1.55874 -3 -0.795609 -3 0 
C -3 0.795609 -2.683901 1.55874 -2.12132 2.12132 
C -1.55874 2.683901 -0.795609 3 0 3 
z
" style="stroke: #1f77b4; stroke-opacity: 0.8"/>
    </defs>
    <g clip-path="url(#p345c272a82)">
     <use xlink:href="#m741efc249c" x="50.428124" y="92.213609" style="fill: #1f77b4; fill-opacity: 0.8; stroke: #1f77b4; stroke-opacity: 0.8"/>
     <use xlink:href="#m741efc249c" x="72.435288" y="93.797655" style="fill: #1f77b4; fill-opacity: 0.8; stroke: #1f77b4; stroke-opacity: 0.8"/>
     <use xlink:href="#m741efc249c" x="72.564464" y="78.010217" style="fill: #1f77b4; fill-opacity: 0.8; stroke: #1f77b4; stroke-opacity: 0.8"/>
     <use xlink:href="#m741efc249c" x="71.685593" y="88.751309" style="fill: #1f77b4; fill-opacity: 0.8; stroke: #1f77b4; stroke-opacity: 0.8"/>
     <use xlink:href="#m741efc249c" x="71.017254" y="85.341145" style="fill: #1f77b4; fill-opacity: 0.8; stroke: #1f77b4; stroke-opacity: 0.8"/>
     <use xlink:href="#m741efc249c" x="104.990857" y="74.511247" style="fill: #1f77b4; fill-opacity: 0.8; stroke: #1f77b4; stroke-opacity: 0.8"/>
     <use xlink:href="#m741efc249c" x="103.898814" y="89.572986" style="fill: #1f77b4; fill-opacity: 0.8; stroke: #1f77b4; stroke-opacity: 0.8"/>
     <use xlink:href="#m741efc249c" x="97.650546" y="73.055029" style="fill: #1f77b4; fill-opacity: 0.8; stroke: #1f77b4; stroke-opacity: 0.8"/>
     <use xlink:href="#m741efc249c" x="131.030881" y="65.21102" style="fill: #1f77b4; fill-opacity: 0.8; stroke: #1f77b4; stroke-opacity: 0.8"/>
     <use xlink:href="#m741efc249c" x="143.330057" y="61.455807" style="fill: #1f77b4; fill-opacity: 0.8; stroke: #1f77b4; stroke-opacity: 0.8"/>
     <use xlink:href="#m741efc249c" x="132.307258" y="54.045085" style="fill: #1f77b4; fill-opacity: 0.8; stroke: #1f77b4; stroke-opacity: 0.8"/>
     <use xlink:href="#m741efc249c" x="127.213541" y="60.158237" style="fill: #1f77b4; fill-opacity: 0.8; stroke: #1f77b4; stroke-opacity: 0.8"/>
     <use xlink:href="#m741efc249c" x="148.246243" y="40.474542" style="fill: #1f77b4; fill-opacity: 0.8; stroke: #1f77b4; stroke-opacity: 0.8"/>
     <use xlink:href="#m741efc249c" x="138.253149" y="51.81739" style="fill: #1f77b4; fill-opacity: 0.8; stroke: #1f77b4; stroke-opacity: 0.8"/>
     <use xlink:href="#m741efc249c" x="110.168705" y="59.460577" style="fill: #1f77b4; fill-opacity: 0.8; stroke: #1f77b4; stroke-opacity: 0.8"/>
     <use xlink:href="#m741efc249c" x="139.323745" y="49.531666" style="fill: #1f77b4; fill-opacity: 0.8; stroke: #1f77b4; stroke-opacity: 0.8"/>
     <use xlink:href="#m741efc249c" x="113.017874" y="59.978522" style="fill: #1f77b4; fill-opacity: 0.8; stroke: #1f77b4; stroke-opacity: 0.8"/>
    </g>
   </g>
   <g id="PolyCollection_1">
    <path d="M 50.428124 90.79184 
L 50.428124 106.235454 
L 51.416186 105.638283 
L 52.404248 105.039969 
L 53.392309 104.441411 
L 54.380371 103.843351 
L 55.368433 103.245549 
L 56.356495 102.647994 
L 57.344557 102.050439 
L 58.332619 101.452884 
L 59.32068 100.876011 
L 60.308742 100.361637 
L 61.296804 99.747568 
L 62.284866 99.133344 
L 63.272928 98.519119 
L 64.260989 97.904895 
L 65.249051 97.338072 
L 66.237113 96.793354 
L 67.225175 96.267791 
L 68.213237 95.727974 
L 69.201298 95.150221 
L 70.18936 94.602859 
L 71.177422 94.001584 
L 72.165484 93.406659 
L 73.153546 92.826127 
L 74.141607 92.245595 
L 75.129669 91.665063 
L 76.117731 91.084532 
L 77.105793 90.502487 
L 78.093855 89.916776 
L 79.081916 89.321216 
L 80.069978 88.706519 
L 81.05804 88.091821 
L 82.046102 87.496364 
L 83.034164 86.92904 
L 84.022226 86.361716 
L 85.010287 85.794393 
L 85.998349 85.212958 
L 86.986411 84.608062 
L 87.974473 84.003095 
L 88.962535 83.397153 
L 89.950596 82.784877 
L 90.938658 82.185791 
L 91.92672 81.607229 
L 92.914782 81.056431 
L 93.902844 80.482732 
L 94.890905 79.908041 
L 95.878967 79.337652 
L 96.867029 78.789789 
L 97.855091 78.241608 
L 98.843153 77.680175 
L 99.831214 77.146497 
L 100.819276 76.577891 
L 101.807338 76.12708 
L 102.7954 75.591368 
L 103.783462 75.062568 
L 104.771523 74.593776 
L 105.759585 74.057343 
L 106.747647 73.565951 
L 107.735709 73.058536 
L 108.723771 72.538879 
L 109.711833 72.033926 
L 110.699894 71.544587 
L 111.687956 71.025416 
L 112.676018 70.575357 
L 113.66408 70.060592 
L 114.652142 69.562177 
L 115.640203 69.159313 
L 116.628265 68.690262 
L 117.616327 68.2752 
L 118.604389 67.809065 
L 119.592451 67.340926 
L 120.580512 66.909019 
L 121.568574 66.50487 
L 122.556636 66.11348 
L 123.544698 65.670601 
L 124.53276 65.258856 
L 125.520821 64.86371 
L 126.508883 64.453704 
L 127.496945 64.021051 
L 128.485007 63.626294 
L 129.473069 63.230067 
L 130.46113 62.792295 
L 131.449192 62.372502 
L 132.437254 61.988169 
L 133.425316 61.621644 
L 134.413378 61.254925 
L 135.40144 60.843167 
L 136.389501 60.430889 
L 137.377563 60.098861 
L 138.365625 59.694254 
L 139.353687 59.288967 
L 140.341749 58.883679 
L 141.32981 58.477201 
L 142.317872 58.068782 
L 143.305934 57.662942 
L 144.293996 57.207216 
L 145.282058 56.79356 
L 146.270119 56.405798 
L 147.258181 56.024428 
L 148.246243 55.633978 
L 148.246243 44.194812 
L 148.246243 44.194812 
L 147.258181 44.79532 
L 146.270119 45.40474 
L 145.282058 45.97758 
L 144.293996 46.534447 
L 143.305934 47.082314 
L 142.317872 47.632584 
L 141.32981 48.203857 
L 140.341749 48.758848 
L 139.353687 49.316795 
L 138.365625 49.834229 
L 137.377563 50.358792 
L 136.389501 50.880134 
L 135.40144 51.391629 
L 134.413378 51.879047 
L 133.425316 52.420308 
L 132.437254 52.96222 
L 131.449192 53.483461 
L 130.46113 54.005719 
L 129.473069 54.525946 
L 128.485007 55.046172 
L 127.496945 55.56245 
L 126.508883 56.038553 
L 125.520821 56.492172 
L 124.53276 56.990603 
L 123.544698 57.469407 
L 122.556636 57.939573 
L 121.568574 58.440334 
L 120.580512 58.944765 
L 119.592451 59.449196 
L 118.604389 59.964598 
L 117.616327 60.475572 
L 116.628265 61.007741 
L 115.640203 61.526216 
L 114.652142 62.067305 
L 113.66408 62.603086 
L 112.676018 63.137051 
L 111.687956 63.646473 
L 110.699894 64.174703 
L 109.711833 64.693842 
L 108.723771 65.175846 
L 107.735709 65.62403 
L 106.747647 66.080978 
L 105.759585 66.536553 
L 104.771523 67.020751 
L 103.783462 67.482608 
L 102.7954 67.977678 
L 101.807338 68.467849 
L 100.819276 68.977101 
L 99.831214 69.471222 
L 98.843153 69.93979 
L 97.855091 70.385311 
L 96.867029 70.864193 
L 95.878967 71.307369 
L 94.890905 71.747836 
L 93.902844 72.197741 
L 92.914782 72.636897 
L 91.92672 73.068131 
L 90.938658 73.512782 
L 89.950596 73.953107 
L 88.962535 74.401002 
L 87.974473 74.861973 
L 86.986411 75.322804 
L 85.998349 75.746632 
L 85.010287 76.172589 
L 84.022226 76.625482 
L 83.034164 77.068658 
L 82.046102 77.511834 
L 81.05804 77.948397 
L 80.069978 78.373373 
L 79.081916 78.777743 
L 78.093855 79.245287 
L 77.105793 79.662325 
L 76.117731 80.070528 
L 75.129669 80.514297 
L 74.141607 80.977137 
L 73.153546 81.439977 
L 72.165484 81.850488 
L 71.177422 82.286888 
L 70.18936 82.693076 
L 69.201298 83.111652 
L 68.213237 83.554962 
L 67.225175 83.985924 
L 66.237113 84.373156 
L 65.249051 84.760388 
L 64.260989 85.147619 
L 63.272928 85.534851 
L 62.284866 85.937509 
L 61.296804 86.352982 
L 60.308742 86.780904 
L 59.32068 87.159165 
L 58.332619 87.557235 
L 57.344557 87.957563 
L 56.356495 88.329379 
L 55.368433 88.701196 
L 54.380371 89.073065 
L 53.392309 89.500111 
L 52.404248 89.950276 
L 51.416186 90.387385 
L 50.428124 90.79184 
z
" clip-path="url(#p345c272a82)" style="fill: #1f77b4; fill-opacity: 0.15"/>
   </g>
   <g id="PathCollection_2">
    <defs>
     <path id="mf6276f8d99" d="M 0 3 
C 0.795609 3 1.55874 2.683901 2.12132 2.12132 
C 2.683901 1.55874 3 0.795609 3 0 
C 3 -0.795609 2.683901 -1.55874 2.12132 -2.12132 
C 1.55874 -2.683901 0.795609 -3 0 -3 
C -0.795609 -3 -1.55874 -2.683901 -2.12132 -2.12132 
C -2.683901 -1.55874 -3 -0.795609 -3 0 
C -3 0.795609 -2.683901 1.55874 -2.12132 2.12132 
C -1.55874 2.683901 -0.795609 3 0 3 
z
" style="stroke: #ff7f0e; stroke-opacity: 0.8"/>
    </defs>
    <g clip-path="url(#p345c272a82)">
     <use xlink:href="#mf6276f8d99" x="50.428124" y="118.335437" style="fill: #ff7f0e; fill-opacity: 0.8; stroke: #ff7f0e; stroke-opacity: 0.8"/>
     <use xlink:href="#mf6276f8d99" x="72.435288" y="127.581187" style="fill: #ff7f0e; fill-opacity: 0.8; stroke: #ff7f0e; stroke-opacity: 0.8"/>
     <use xlink:href="#mf6276f8d99" x="72.564464" y="118.327298" style="fill: #ff7f0e; fill-opacity: 0.8; stroke: #ff7f0e; stroke-opacity: 0.8"/>
     <use xlink:href="#mf6276f8d99" x="71.685593" y="114.987004" style="fill: #ff7f0e; fill-opacity: 0.8; stroke: #ff7f0e; stroke-opacity: 0.8"/>
     <use xlink:href="#mf6276f8d99" x="71.017254" y="84.493349" style="fill: #ff7f0e; fill-opacity: 0.8; stroke: #ff7f0e; stroke-opacity: 0.8"/>
     <use xlink:href="#mf6276f8d99" x="104.990857" y="62.939371" style="fill: #ff7f0e; fill-opacity: 0.8; stroke: #ff7f0e; stroke-opacity: 0.8"/>
     <use xlink:href="#mf6276f8d99" x="103.898814" y="108.695184" style="fill: #ff7f0e; fill-opacity: 0.8; stroke: #ff7f0e; stroke-opacity: 0.8"/>
     <use xlink:href="#mf6276f8d99" x="97.650546" y="76.494711" style="fill: #ff7f0e; fill-opacity: 0.8; stroke: #ff7f0e; stroke-opacity: 0.8"/>
     <use xlink:href="#mf6276f8d99" x="131.030881" y="74.044602" style="fill: #ff7f0e; fill-opacity: 0.8; stroke: #ff7f0e; stroke-opacity: 0.8"/>
     <use xlink:href="#mf6276f8d99" x="143.330057" y="39.320855" style="fill: #ff7f0e; fill-opacity: 0.8; stroke: #ff7f0e; stroke-opacity: 0.8"/>
     <use xlink:href="#mf6276f8d99" x="132.307258" y="56.058557" style="fill: #ff7f0e; fill-opacity: 0.8; stroke: #ff7f0e; stroke-opacity: 0.8"/>
     <use xlink:href="#mf6276f8d99" x="127.213541" y="73.904155" style="fill: #ff7f0e; fill-opacity: 0.8; stroke: #ff7f0e; stroke-opacity: 0.8"/>
     <use xlink:href="#mf6276f8d99" x="148.246243" y="59.648513" style="fill: #ff7f0e; fill-opacity: 0.8; stroke: #ff7f0e; stroke-opacity: 0.8"/>
     <use xlink:href="#mf6276f8d99" x="138.253149" y="66.082559" style="fill: #ff7f0e; fill-opacity: 0.8; stroke: #ff7f0e; stroke-opacity: 0.8"/>
     <use xlink:href="#mf6276f8d99" x="110.168705" y="70.175496" style="fill: #ff7f0e; fill-opacity: 0.8; stroke: #ff7f0e; stroke-opacity: 0.8"/>
     <use xlink:href="#mf6276f8d99" x="139.323745" y="49.058048" style="fill: #ff7f0e; fill-opacity: 0.8; stroke: #ff7f0e; stroke-opacity: 0.8"/>
     <use xlink:href="#mf6276f8d99" x="113.017874" y="79.644619" style="fill: #ff7f0e; fill-opacity: 0.8; stroke: #ff7f0e; stroke-opacity: 0.8"/>
    </g>
   </g>
   <g id="PolyCollection_2">
    <path d="M 50.428124 109.31296 
L 50.428124 139.5 
L 51.416186 138.526947 
L 52.404248 137.553894 
L 53.392309 136.580841 
L 54.380371 135.607789 
L 55.368433 134.644654 
L 56.356495 133.737703 
L 57.344557 132.830752 
L 58.332619 131.923801 
L 59.32068 131.01685 
L 60.308742 130.109899 
L 61.296804 129.202948 
L 62.284866 128.295997 
L 63.272928 127.408227 
L 64.260989 126.496027 
L 65.249051 125.554728 
L 66.237113 124.628534 
L 67.225175 123.755969 
L 68.213237 122.858584 
L 69.201298 121.953522 
L 70.18936 121.046928 
L 71.177422 120.103467 
L 72.165484 119.149436 
L 73.153546 118.300553 
L 74.141607 117.423179 
L 75.129669 116.518724 
L 76.117731 115.61427 
L 77.105793 114.715436 
L 78.093855 113.844783 
L 79.081916 112.962519 
L 80.069978 111.98833 
L 81.05804 111.083358 
L 82.046102 110.179352 
L 83.034164 109.274999 
L 84.022226 108.370028 
L 85.010287 107.464032 
L 85.998349 106.571656 
L 86.986411 105.66469 
L 87.974473 104.643108 
L 88.962535 103.776808 
L 89.950596 102.941821 
L 90.938658 102.147878 
L 91.92672 101.354395 
L 92.914782 100.48795 
L 93.902844 99.51653 
L 94.890905 98.531628 
L 95.878967 97.585028 
L 96.867029 96.777698 
L 97.855091 95.857544 
L 98.843153 95.134389 
L 99.831214 94.245515 
L 100.819276 93.269614 
L 101.807338 92.561257 
L 102.7954 91.801336 
L 103.783462 90.879614 
L 104.771523 90.063637 
L 105.759585 89.197438 
L 106.747647 88.415622 
L 107.735709 87.459367 
L 108.723771 86.635243 
L 109.711833 85.818216 
L 110.699894 85.064201 
L 111.687956 84.26249 
L 112.676018 83.50409 
L 113.66408 82.808528 
L 114.652142 81.989358 
L 115.640203 81.140194 
L 116.628265 80.507882 
L 117.616327 79.970353 
L 118.604389 79.281584 
L 119.592451 78.559981 
L 120.580512 77.904395 
L 121.568574 77.154331 
L 122.556636 76.473146 
L 123.544698 75.791903 
L 124.53276 75.057215 
L 125.520821 74.378668 
L 126.508883 73.587905 
L 127.496945 72.795141 
L 128.485007 72.13527 
L 129.473069 71.47658 
L 130.46113 70.804593 
L 131.449192 70.091118 
L 132.437254 69.417027 
L 133.425316 68.829867 
L 134.413378 68.181654 
L 135.40144 67.513177 
L 136.389501 66.840959 
L 137.377563 66.19568 
L 138.365625 65.544602 
L 139.353687 64.887004 
L 140.341749 64.313619 
L 141.32981 63.62714 
L 142.317872 63.004335 
L 143.305934 62.425928 
L 144.293996 61.790781 
L 145.282058 61.207315 
L 146.270119 60.583754 
L 147.258181 60.022558 
L 148.246243 59.374599 
L 148.246243 41.338689 
L 148.246243 41.338689 
L 147.258181 42.244922 
L 146.270119 43.112984 
L 145.282058 44.086204 
L 144.293996 44.923658 
L 143.305934 45.731564 
L 142.317872 46.577933 
L 141.32981 47.453291 
L 140.341749 48.321353 
L 139.353687 49.139259 
L 138.365625 49.974506 
L 137.377563 50.86853 
L 136.389501 51.732165 
L 135.40144 52.597376 
L 134.413378 53.465566 
L 133.425316 54.333756 
L 132.437254 55.146624 
L 131.449192 55.868429 
L 130.46113 56.677502 
L 129.473069 57.399704 
L 128.485007 58.14351 
L 127.496945 58.966895 
L 126.508883 59.719686 
L 125.520821 60.519478 
L 124.53276 61.434986 
L 123.544698 62.206345 
L 122.556636 63.093462 
L 121.568574 63.858196 
L 120.580512 64.575957 
L 119.592451 65.304161 
L 118.604389 66.211544 
L 117.616327 66.983819 
L 116.628265 67.72417 
L 115.640203 68.475888 
L 114.652142 69.221698 
L 113.66408 69.905615 
L 112.676018 70.387806 
L 111.687956 71.077168 
L 110.699894 71.788864 
L 109.711833 72.492584 
L 108.723771 73.2327 
L 107.735709 73.982983 
L 106.747647 74.694837 
L 105.759585 75.427403 
L 104.771523 76.161168 
L 103.783462 76.845436 
L 102.7954 77.506877 
L 101.807338 78.24312 
L 100.819276 78.759067 
L 99.831214 79.357915 
L 98.843153 79.968451 
L 97.855091 80.551159 
L 96.867029 81.224562 
L 95.878967 81.945678 
L 94.890905 82.593192 
L 93.902844 83.212974 
L 92.914782 83.802662 
L 91.92672 84.354707 
L 90.938658 85.180615 
L 89.950596 85.870908 
L 88.962535 86.408882 
L 87.974473 86.94716 
L 86.986411 87.485438 
L 85.998349 88.221409 
L 85.010287 88.992711 
L 84.022226 89.677311 
L 83.034164 90.233919 
L 82.046102 90.790526 
L 81.05804 91.347133 
L 80.069978 92.038195 
L 79.081916 92.580218 
L 78.093855 93.101559 
L 77.105793 93.567074 
L 76.117731 94.057227 
L 75.129669 94.624096 
L 74.141607 95.218978 
L 73.153546 95.832352 
L 72.165484 96.374374 
L 71.177422 96.916397 
L 70.18936 97.458611 
L 69.201298 98.046576 
L 68.213237 98.662854 
L 67.225175 99.279949 
L 66.237113 99.897044 
L 65.249051 100.514139 
L 64.260989 101.134539 
L 63.272928 101.845995 
L 62.284866 102.524306 
L 61.296804 103.032365 
L 60.308742 103.597317 
L 59.32068 104.211309 
L 58.332619 104.825302 
L 57.344557 105.439294 
L 56.356495 106.03515 
L 55.368433 106.581452 
L 54.380371 107.127753 
L 53.392309 107.674055 
L 52.404248 108.220356 
L 51.416186 108.766658 
L 50.428124 109.31296 
z
" clip-path="url(#p345c272a82)" style="fill: #ff7f0e; fill-opacity: 0.15"/>
   </g>
   <g id="matplotlib.axis_1">
    <g id="xtick_1">
     <g id="line2d_3">
      <defs>
       <path id="m78f01cc643" d="M 0 0 
L 0 3.5 
" style="stroke: #000000; stroke-width: 0.8"/>
      </defs>
      <g>
       <use xlink:href="#m78f01cc643" x="47.418191" y="145.8" style="stroke: #000000; stroke-width: 0.8"/>
      </g>
     </g>
     <g id="text_1">
      <text style="font: 10px 'inter', sans-serif; text-anchor: middle" x="47.418191" y="160.075" transform="rotate(-0 47.418191 160.075)">−2</text>
     </g>
    </g>
    <g id="xtick_2">
     <g id="line2d_4">
      <g>
       <use xlink:href="#m78f01cc643" x="114.709471" y="145.8" style="stroke: #000000; stroke-width: 0.8"/>
      </g>
     </g>
     <g id="text_2">
      <text style="font: 10px 'inter', sans-serif; text-anchor: middle" x="114.709471" y="160.075" transform="rotate(-0 114.709471 160.075)">0</text>
     </g>
    </g>
    <g id="xtick_3">
     <g id="line2d_5">
      <g>
       <use xlink:href="#m78f01cc643" x="182.000751" y="145.8" style="stroke: #000000; stroke-width: 0.8"/>
      </g>
     </g>
     <g id="text_3">
      <text style="font: 10px 'inter', sans-serif; text-anchor: middle" x="182.000751" y="160.075" transform="rotate(-0 182.000751 160.075)">2</text>
     </g>
    </g>
    <g id="text_4">
     <text style="font: 10px 'inter', sans-serif; text-anchor: middle" x="114.709471" y="173.390625" transform="rotate(-0 114.709471 173.390625)">48 h reversed</text>
    </g>
   </g>
   <g id="matplotlib.axis_2">
    <g id="ytick_1">
     <g id="line2d_6">
      <defs>
       <path id="m845525bb12" d="M 0 0 
L -3.5 0 
" style="stroke: #000000; stroke-width: 0.8"/>
      </defs>
      <g>
       <use xlink:href="#m845525bb12" x="40.689063" y="135.365501" style="stroke: #000000; stroke-width: 0.8"/>
      </g>
     </g>
     <g id="text_5">
      <text style="font: 10px 'inter', sans-serif; text-anchor: end" x="33.689063" y="139.003001" transform="rotate(-0 33.689063 139.003001)">−2</text>
     </g>
    </g>
    <g id="ytick_2">
     <g id="line2d_7">
      <g>
       <use xlink:href="#m845525bb12" x="40.689063" y="104.899126" style="stroke: #000000; stroke-width: 0.8"/>
      </g>
     </g>
     <g id="text_6">
      <text style="font: 10px 'inter', sans-serif; text-anchor: end" x="33.689063" y="108.536626" transform="rotate(-0 33.689063 108.536626)">−1</text>
     </g>
    </g>
    <g id="ytick_3">
     <g id="line2d_8">
      <g>
       <use xlink:href="#m845525bb12" x="40.689063" y="74.43275" style="stroke: #000000; stroke-width: 0.8"/>
      </g>
     </g>
     <g id="text_7">
      <text style="font: 10px 'inter', sans-serif; text-anchor: end" x="33.689063" y="78.07025" transform="rotate(-0 33.689063 78.07025)">0</text>
     </g>
    </g>
    <g id="ytick_4">
     <g id="line2d_9">
      <g>
       <use xlink:href="#m845525bb12" x="40.689063" y="43.966375" style="stroke: #000000; stroke-width: 0.8"/>
      </g>
     </g>
     <g id="text_8">
      <text style="font: 10px 'inter', sans-serif; text-anchor: end" x="33.689063" y="47.603875" transform="rotate(-0 33.689063 47.603875)">1</text>
     </g>
    </g>
    <g id="ytick_5">
     <g id="line2d_10">
      <g>
       <use xlink:href="#m845525bb12" x="40.689063" y="13.5" style="stroke: #000000; stroke-width: 0.8"/>
      </g>
     </g>
     <g id="text_9">
      <text style="font: 10px 'inter', sans-serif; text-anchor: end" x="33.689063" y="17.1375" transform="rotate(-0 33.689063 17.1375)">2</text>
     </g>
    </g>
    <g id="text_10">
     <text style="font: 10px 'inter', sans-serif; text-anchor: middle" x="14.817188" y="76.5" transform="rotate(-90 14.817188 76.5)">Optogenetic Effect Size</text>
    </g>
   </g>
   <g id="line2d_11">
    <path d="M 50.428124 96.891343 
L 51.416186 96.412969 
L 52.404248 95.934596 
L 53.392309 95.456222 
L 54.380371 94.977848 
L 55.368433 94.499474 
L 56.356495 94.0211 
L 57.344557 93.542726 
L 58.332619 93.064353 
L 59.32068 92.585979 
L 60.308742 92.107605 
L 61.296804 91.629231 
L 62.284866 91.150857 
L 63.272928 90.672483 
L 64.260989 90.194109 
L 65.249051 89.715736 
L 66.237113 89.237362 
L 67.225175 88.758988 
L 68.213237 88.280614 
L 69.201298 87.80224 
L 70.18936 87.323866 
L 71.177422 86.845493 
L 72.165484 86.367119 
L 73.153546 85.888745 
L 74.141607 85.410371 
L 75.129669 84.931997 
L 76.117731 84.453623 
L 77.105793 83.975249 
L 78.093855 83.496876 
L 79.081916 83.018502 
L 80.069978 82.540128 
L 81.05804 82.061754 
L 82.046102 81.58338 
L 83.034164 81.105006 
L 84.022226 80.626633 
L 85.010287 80.148259 
L 85.998349 79.669885 
L 86.986411 79.191511 
L 87.974473 78.713137 
L 88.962535 78.234763 
L 89.950596 77.756389 
L 90.938658 77.278016 
L 91.92672 76.799642 
L 92.914782 76.321268 
L 93.902844 75.842894 
L 94.890905 75.36452 
L 95.878967 74.886146 
L 96.867029 74.407773 
L 97.855091 73.929399 
L 98.843153 73.451025 
L 99.831214 72.972651 
L 100.819276 72.494277 
L 101.807338 72.015903 
L 102.7954 71.537529 
L 103.783462 71.059156 
L 104.771523 70.580782 
L 105.759585 70.102408 
L 106.747647 69.624034 
L 107.735709 69.14566 
L 108.723771 68.667286 
L 109.711833 68.188913 
L 110.699894 67.710539 
L 111.687956 67.232165 
L 112.676018 66.753791 
L 113.66408 66.275417 
L 114.652142 65.797043 
L 115.640203 65.318669 
L 116.628265 64.840296 
L 117.616327 64.361922 
L 118.604389 63.883548 
L 119.592451 63.405174 
L 120.580512 62.9268 
L 121.568574 62.448426 
L 122.556636 61.970053 
L 123.544698 61.491679 
L 124.53276 61.013305 
L 125.520821 60.534931 
L 126.508883 60.056557 
L 127.496945 59.578183 
L 128.485007 59.099809 
L 129.473069 58.621436 
L 130.46113 58.143062 
L 131.449192 57.664688 
L 132.437254 57.186314 
L 133.425316 56.70794 
L 134.413378 56.229566 
L 135.40144 55.751193 
L 136.389501 55.272819 
L 137.377563 54.794445 
L 138.365625 54.316071 
L 139.353687 53.837697 
L 140.341749 53.359323 
L 141.32981 52.880949 
L 142.317872 52.402576 
L 143.305934 51.924202 
L 144.293996 51.445828 
L 145.282058 50.967454 
L 146.270119 50.48908 
L 147.258181 50.010706 
L 148.246243 49.532333 
" clip-path="url(#p345c272a82)" style="fill: none; stroke: #1f77b4; stroke-width: 2.25; stroke-linecap: square"/>
   </g>
   <g id="line2d_12">
    <path d="M 50.428124 124.043249 
L 51.416186 123.300949 
L 52.404248 122.558649 
L 53.392309 121.816349 
L 54.380371 121.074049 
L 55.368433 120.331749 
L 56.356495 119.589449 
L 57.344557 118.847149 
L 58.332619 118.104849 
L 59.32068 117.362549 
L 60.308742 116.620249 
L 61.296804 115.877949 
L 62.284866 115.13565 
L 63.272928 114.39335 
L 64.260989 113.65105 
L 65.249051 112.90875 
L 66.237113 112.16645 
L 67.225175 111.42415 
L 68.213237 110.68185 
L 69.201298 109.93955 
L 70.18936 109.19725 
L 71.177422 108.45495 
L 72.165484 107.71265 
L 73.153546 106.97035 
L 74.141607 106.22805 
L 75.129669 105.48575 
L 76.117731 104.74345 
L 77.105793 104.00115 
L 78.093855 103.25885 
L 79.081916 102.51655 
L 80.069978 101.77425 
L 81.05804 101.03195 
L 82.046102 100.28965 
L 83.034164 99.54735 
L 84.022226 98.80505 
L 85.010287 98.06275 
L 85.998349 97.32045 
L 86.986411 96.57815 
L 87.974473 95.83585 
L 88.962535 95.09355 
L 89.950596 94.35125 
L 90.938658 93.60895 
L 91.92672 92.86665 
L 92.914782 92.12435 
L 93.902844 91.38205 
L 94.890905 90.63975 
L 95.878967 89.89745 
L 96.867029 89.15515 
L 97.855091 88.41285 
L 98.843153 87.67055 
L 99.831214 86.92825 
L 100.819276 86.18595 
L 101.807338 85.44365 
L 102.7954 84.70135 
L 103.783462 83.95905 
L 104.771523 83.21675 
L 105.759585 82.47445 
L 106.747647 81.73215 
L 107.735709 80.98985 
L 108.723771 80.24755 
L 109.711833 79.50525 
L 110.699894 78.76295 
L 111.687956 78.02065 
L 112.676018 77.27835 
L 113.66408 76.53605 
L 114.652142 75.79375 
L 115.640203 75.05145 
L 116.628265 74.30915 
L 117.616327 73.56685 
L 118.604389 72.82455 
L 119.592451 72.08225 
L 120.580512 71.33995 
L 121.568574 70.59765 
L 122.556636 69.85535 
L 123.544698 69.11305 
L 124.53276 68.37075 
L 125.520821 67.62845 
L 126.508883 66.88615 
L 127.496945 66.14385 
L 128.485007 65.40155 
L 129.473069 64.65925 
L 130.46113 63.91695 
L 131.449192 63.17465 
L 132.437254 62.43235 
L 133.425316 61.69005 
L 134.413378 60.94775 
L 135.40144 60.20545 
L 136.389501 59.46315 
L 137.377563 58.72085 
L 138.365625 57.97855 
L 139.353687 57.23625 
L 140.341749 56.49395 
L 141.32981 55.75165 
L 142.317872 55.00935 
L 143.305934 54.26705 
L 144.293996 53.52475 
L 145.282058 52.78245 
L 146.270119 52.04015 
L 147.258181 51.29785 
L 148.246243 50.55555 
" clip-path="url(#p345c272a82)" style="fill: none; stroke: #ff7f0e; stroke-width: 2.25; stroke-linecap: square"/>
   </g>
   <g id="patch_3">
    <path d="M 40.689063 145.8 
L 40.689063 7.2 
" style="fill: none; stroke: #000000; stroke-width: 0.8; stroke-linejoin: miter; stroke-linecap: square"/>
   </g>
   <g id="patch_4">
    <path d="M 188.729879 145.8 
L 188.729879 7.2 
" style="fill: none; stroke: #000000; stroke-width: 0.8; stroke-linejoin: miter; stroke-linecap: square"/>
   </g>
   <g id="patch_5">
    <path d="M 40.689063 145.8 
L 188.729879 145.8 
" style="fill: none; stroke: #000000; stroke-width: 0.8; stroke-linejoin: miter; stroke-linecap: square"/>
   </g>
   <g id="patch_6">
    <path d="M 40.689063 7.2 
L 188.729879 7.2 
" style="fill: none; stroke: #000000; stroke-width: 0.8; stroke-linejoin: miter; stroke-linecap: square"/>
   </g>
   <g id="text_11">
    <!-- $r^{2} = $0.73 -->
    <g style="fill: #ff7f0e" transform="translate(131.532291 120.132313)">
     <text>
      <tspan style="font: oblique 10px 'DejaVu Sans'" x="0" y="-0.9765625">r</tspan>
      <tspan style="font: 7px 'DejaVu Sans'" x="4.575443" y="-4.8046875">2</tspan>
      <tspan style="font: 10px 'DejaVu Sans'" x="11.250736" y="-0.9765625">=</tspan>
      <tspan style="font: 500 10px 'Inter'" x="21.577884 28.032962 31.065189 36.778079" y="-0.9765625">0.73</tspan>
     </text>
    </g>
   </g>
   <g id="text_12">
    <!-- $r^{2} = $0.80 -->
    <g style="fill: #1f77b4" transform="translate(131.532291 104.899126)">
     <text>
      <tspan style="font: oblique 10px 'DejaVu Sans'" x="0" y="-0.9765625">r</tspan>
      <tspan style="font: 7px 'DejaVu Sans'" x="4.575443" y="-4.8046875">2</tspan>
      <tspan style="font: 10px 'DejaVu Sans'" x="11.250736" y="-0.9765625">=</tspan>
      <tspan style="font: 500 10px 'Inter'" x="21.577884 28.032962 31.065189 37.359134" y="-0.9765625">0.80</tspan>
     </text>
    </g>
   </g>
   <g id="legend_1">
    <g id="patch_7">
     <path d="M 47.689063 43.83125 
L 132.389063 43.83125 
Q 134.389063 43.83125 134.389063 41.83125 
L 134.389063 14.2 
Q 134.389063 12.2 132.389063 12.2 
L 47.689063 12.2 
Q 45.689063 12.2 45.689063 14.2 
L 45.689063 41.83125 
Q 45.689063 43.83125 47.689063 43.83125 
z
" style="fill: #ffffff; opacity: 0.8; stroke: #cccccc; stroke-linejoin: miter"/>
    </g>
    <g id="PathCollection_3">
     <g>
      <use xlink:href="#m741efc249c" x="59.689063" y="20.85" style="fill: #1f77b4; fill-opacity: 0.8; stroke: #1f77b4; stroke-opacity: 0.8"/>
     </g>
    </g>
    <g id="text_13">
     <!-- $\it{Akh&gt;Chr}$ -->
     <g transform="translate(77.689063 23.475)">
      <text>
       <tspan style="font: oblique 10px 'DejaVu Sans'" x="0 6.84082 12.631836 31.245117 38.227539 44.56543" y="-0.40625">AkhChr</tspan>
       <tspan style="font: 10px 'DejaVu Sans'" x="20.917969" y="-0.40625">&gt;</tspan>
      </text>
     </g>
    </g>
    <g id="PathCollection_4">
     <g>
      <use xlink:href="#mf6276f8d99" x="59.689063" y="35.165625" style="fill: #ff7f0e; fill-opacity: 0.8; stroke: #ff7f0e; stroke-opacity: 0.8"/>
     </g>
    </g>
    <g id="text_14">
     <!-- $\it{Trhn&gt;Chr}$ -->
     <g transform="translate(77.689063 37.790625)">
      <text>
       <tspan style="font: oblique 10px 'DejaVu Sans'" x="0 6.108398 10.219727 16.557617 35.170898 42.15332 48.491211" y="-0.40625">TrhnChr</tspan>
       <tspan style="font: 10px 'DejaVu Sans'" x="24.84375" y="-0.40625">&gt;</tspan>
      </text>
     </g>
    </g>
   </g>
  </g>
  <g id="axes_2">
   <g id="patch_8">
    <path d="M 233.142124 145.8 
L 381.18294 145.8 
L 381.18294 7.2 
L 233.142124 7.2 
z
" style="fill: #ffffff"/>
   </g>
   <g id="line2d_13">
    <path d="M 239.871252 77.357255 
L 374.453812 77.357255 
" clip-path="url(#pfa6f05d9f9)" style="fill: none; stroke: #d3d3d3; stroke-width: 0.5; stroke-linecap: square"/>
   </g>
   <g id="line2d_14">
    <path d="M 307.162532 139.5 
L 307.162532 15.21451 
" clip-path="url(#pfa6f05d9f9)" style="fill: none; stroke: #d3d3d3; stroke-width: 0.5; stroke-linecap: square"/>
   </g>
   <g id="PathCollection_5">
    <g clip-path="url(#pfa6f05d9f9)">
     <use xlink:href="#m741efc249c" x="371.443879" y="68.274572" style="fill: #1f77b4; fill-opacity: 0.8; stroke: #1f77b4; stroke-opacity: 0.8"/>
     <use xlink:href="#m741efc249c" x="349.436715" y="76.874881" style="fill: #1f77b4; fill-opacity: 0.8; stroke: #1f77b4; stroke-opacity: 0.8"/>
     <use xlink:href="#m741efc249c" x="349.307539" y="73.814648" style="fill: #1f77b4; fill-opacity: 0.8; stroke: #1f77b4; stroke-opacity: 0.8"/>
     <use xlink:href="#m741efc249c" x="350.18641" y="68.722149" style="fill: #1f77b4; fill-opacity: 0.8; stroke: #1f77b4; stroke-opacity: 0.8"/>
     <use xlink:href="#m741efc249c" x="350.854748" y="65.886761" style="fill: #1f77b4; fill-opacity: 0.8; stroke: #1f77b4; stroke-opacity: 0.8"/>
     <use xlink:href="#m741efc249c" x="316.881146" y="68.518894" style="fill: #1f77b4; fill-opacity: 0.8; stroke: #1f77b4; stroke-opacity: 0.8"/>
     <use xlink:href="#m741efc249c" x="317.973189" y="79.097329" style="fill: #1f77b4; fill-opacity: 0.8; stroke: #1f77b4; stroke-opacity: 0.8"/>
     <use xlink:href="#m741efc249c" x="324.221457" y="62.581335" style="fill: #1f77b4; fill-opacity: 0.8; stroke: #1f77b4; stroke-opacity: 0.8"/>
     <use xlink:href="#m741efc249c" x="290.841121" y="78.626991" style="fill: #1f77b4; fill-opacity: 0.8; stroke: #1f77b4; stroke-opacity: 0.8"/>
     <use xlink:href="#m741efc249c" x="278.541945" y="76.850267" style="fill: #1f77b4; fill-opacity: 0.8; stroke: #1f77b4; stroke-opacity: 0.8"/>
     <use xlink:href="#m741efc249c" x="289.564745" y="70.655385" style="fill: #1f77b4; fill-opacity: 0.8; stroke: #1f77b4; stroke-opacity: 0.8"/>
     <use xlink:href="#m741efc249c" x="294.658461" y="101.750085" style="fill: #1f77b4; fill-opacity: 0.8; stroke: #1f77b4; stroke-opacity: 0.8"/>
     <use xlink:href="#m741efc249c" x="273.62576" y="104.085248" style="fill: #1f77b4; fill-opacity: 0.8; stroke: #1f77b4; stroke-opacity: 0.8"/>
     <use xlink:href="#m741efc249c" x="283.618853" y="103.02914" style="fill: #1f77b4; fill-opacity: 0.8; stroke: #1f77b4; stroke-opacity: 0.8"/>
     <use xlink:href="#m741efc249c" x="311.703298" y="61.460542" style="fill: #1f77b4; fill-opacity: 0.8; stroke: #1f77b4; stroke-opacity: 0.8"/>
     <use xlink:href="#m741efc249c" x="282.548258" y="85.537197" style="fill: #1f77b4; fill-opacity: 0.8; stroke: #1f77b4; stroke-opacity: 0.8"/>
     <use xlink:href="#m741efc249c" x="308.854128" y="76.013302" style="fill: #1f77b4; fill-opacity: 0.8; stroke: #1f77b4; stroke-opacity: 0.8"/>
    </g>
   </g>
   <g id="PolyCollection_3">
    <path d="M 273.62576 77.641211 
L 273.62576 98.135489 
L 274.613821 97.735872 
L 275.601883 97.30815 
L 276.589945 96.880428 
L 277.578007 96.451646 
L 278.566069 96.022801 
L 279.55413 95.63353 
L 280.542192 95.280435 
L 281.530254 94.937583 
L 282.518316 94.571474 
L 283.506378 94.199529 
L 284.494439 93.867172 
L 285.482501 93.305411 
L 286.470563 92.784623 
L 287.458625 92.435419 
L 288.446687 92.094905 
L 289.434748 91.754391 
L 290.42281 91.413877 
L 291.410872 91.078653 
L 292.398934 90.749889 
L 293.386996 90.393862 
L 294.375058 90.031611 
L 295.363119 89.628014 
L 296.351181 89.223061 
L 297.339243 88.871975 
L 298.327305 88.50032 
L 299.315367 88.099826 
L 300.303428 87.780245 
L 301.29149 87.441327 
L 302.279552 87.039263 
L 303.267614 86.651014 
L 304.255676 86.309227 
L 305.243737 85.96744 
L 306.231799 85.625432 
L 307.219861 85.360943 
L 308.207923 85.008732 
L 309.195985 84.636298 
L 310.184046 84.345352 
L 311.172108 83.936836 
L 312.16017 83.570541 
L 313.148232 83.226805 
L 314.136294 82.889868 
L 315.124355 82.540558 
L 316.112417 82.197232 
L 317.100479 81.86771 
L 318.088541 81.555102 
L 319.076603 81.244379 
L 320.064665 80.933813 
L 321.052726 80.622181 
L 322.040788 80.310549 
L 323.02885 79.988467 
L 324.016912 79.631606 
L 325.004974 79.262164 
L 325.993035 78.908485 
L 326.981097 78.589341 
L 327.969159 78.215829 
L 328.957221 77.909412 
L 329.945283 77.611933 
L 330.933344 77.314271 
L 331.921406 76.969567 
L 332.909468 76.683023 
L 333.89753 76.456152 
L 334.885592 76.129532 
L 335.873653 75.833935 
L 336.861715 75.59406 
L 337.849777 75.364694 
L 338.837839 75.100805 
L 339.825901 74.859402 
L 340.813962 74.604797 
L 341.802024 74.361557 
L 342.790086 74.081768 
L 343.778148 73.741804 
L 344.76621 73.450573 
L 345.754272 73.202018 
L 346.742333 73.001452 
L 347.730395 72.838059 
L 348.718457 72.67451 
L 349.706519 72.461593 
L 350.694581 72.209366 
L 351.682642 71.991761 
L 352.670704 71.857028 
L 353.658766 71.700345 
L 354.646828 71.553727 
L 355.63489 71.409105 
L 356.622951 71.205166 
L 357.611013 71.126102 
L 358.599075 71.016246 
L 359.587137 70.845753 
L 360.575199 70.671674 
L 361.56326 70.502731 
L 362.551322 70.330987 
L 363.539384 70.168687 
L 364.527446 70.04447 
L 365.515508 69.832855 
L 366.503569 69.659291 
L 367.491631 69.573691 
L 368.479693 69.484001 
L 369.467755 69.374583 
L 370.455817 69.240144 
L 371.443879 69.197755 
L 371.443879 50.679928 
L 371.443879 50.679928 
L 370.455817 51.10784 
L 369.467755 51.535753 
L 368.479693 51.963666 
L 367.491631 52.392185 
L 366.503569 52.820899 
L 365.515508 53.209019 
L 364.527446 53.592886 
L 363.539384 53.976753 
L 362.551322 54.36062 
L 361.56326 54.744487 
L 360.575199 55.128354 
L 359.587137 55.513389 
L 358.599075 55.898708 
L 357.611013 56.284027 
L 356.622951 56.771209 
L 355.63489 57.153165 
L 354.646828 57.479115 
L 353.658766 57.890648 
L 352.670704 58.353379 
L 351.682642 58.867121 
L 350.694581 59.416783 
L 349.706519 59.888702 
L 348.718457 60.299822 
L 347.730395 60.736939 
L 346.742333 61.092465 
L 345.754272 61.45989 
L 344.76621 61.903688 
L 343.778148 62.347708 
L 342.790086 62.795113 
L 341.802024 63.176127 
L 340.813962 63.689924 
L 339.825901 64.153421 
L 338.837839 64.649756 
L 337.849777 65.14609 
L 336.861715 65.604163 
L 335.873653 65.92118 
L 334.885592 66.363796 
L 333.89753 66.732931 
L 332.909468 67.128802 
L 331.921406 67.551777 
L 330.933344 68.007906 
L 329.945283 68.466111 
L 328.957221 68.677821 
L 327.969159 68.93799 
L 326.981097 69.193537 
L 325.993035 69.329418 
L 325.004974 69.651107 
L 324.016912 69.928691 
L 323.02885 70.106258 
L 322.040788 70.440027 
L 321.052726 70.809313 
L 320.064665 71.140278 
L 319.076603 71.422482 
L 318.088541 71.646688 
L 317.100479 71.812517 
L 316.112417 72.04268 
L 315.124355 72.219369 
L 314.136294 72.363276 
L 313.148232 72.574636 
L 312.16017 72.745263 
L 311.172108 72.924562 
L 310.184046 73.022487 
L 309.195985 73.163979 
L 308.207923 73.458304 
L 307.219861 73.56885 
L 306.231799 73.679555 
L 305.243737 73.818148 
L 304.255676 74.010915 
L 303.267614 74.205082 
L 302.279552 74.319705 
L 301.29149 74.488571 
L 300.303428 74.664499 
L 299.315367 74.820473 
L 298.327305 74.984927 
L 297.339243 75.130054 
L 296.351181 75.275181 
L 295.363119 75.407147 
L 294.375058 75.530357 
L 293.386996 75.656062 
L 292.398934 75.781768 
L 291.410872 75.909343 
L 290.42281 76.037106 
L 289.434748 76.164869 
L 288.446687 76.240843 
L 287.458625 76.341026 
L 286.470563 76.410796 
L 285.482501 76.480566 
L 284.494439 76.550336 
L 283.506378 76.620467 
L 282.518316 76.720007 
L 281.530254 76.832591 
L 280.542192 76.945175 
L 279.55413 77.057759 
L 278.566069 77.170344 
L 277.578007 77.282928 
L 276.589945 77.395512 
L 275.601883 77.488039 
L 274.613821 77.564625 
L 273.62576 77.641211 
z
" clip-path="url(#pfa6f05d9f9)" style="fill: #1f77b4; fill-opacity: 0.15"/>
   </g>
   <g id="PathCollection_6">
    <g clip-path="url(#pfa6f05d9f9)">
     <use xlink:href="#mf6276f8d99" x="371.443879" y="37.002109" style="fill: #ff7f0e; fill-opacity: 0.8; stroke: #ff7f0e; stroke-opacity: 0.8"/>
     <use xlink:href="#mf6276f8d99" x="349.436715" y="39.65064" style="fill: #ff7f0e; fill-opacity: 0.8; stroke: #ff7f0e; stroke-opacity: 0.8"/>
     <use xlink:href="#mf6276f8d99" x="349.307539" y="22.799684" style="fill: #ff7f0e; fill-opacity: 0.8; stroke: #ff7f0e; stroke-opacity: 0.8"/>
     <use xlink:href="#mf6276f8d99" x="350.18641" y="28.80778" style="fill: #ff7f0e; fill-opacity: 0.8; stroke: #ff7f0e; stroke-opacity: 0.8"/>
     <use xlink:href="#mf6276f8d99" x="350.854748" y="54.176208" style="fill: #ff7f0e; fill-opacity: 0.8; stroke: #ff7f0e; stroke-opacity: 0.8"/>
     <use xlink:href="#mf6276f8d99" x="316.881146" y="84.102533" style="fill: #ff7f0e; fill-opacity: 0.8; stroke: #ff7f0e; stroke-opacity: 0.8"/>
     <use xlink:href="#mf6276f8d99" x="317.973189" y="57.17587" style="fill: #ff7f0e; fill-opacity: 0.8; stroke: #ff7f0e; stroke-opacity: 0.8"/>
     <use xlink:href="#mf6276f8d99" x="324.221457" y="66.217456" style="fill: #ff7f0e; fill-opacity: 0.8; stroke: #ff7f0e; stroke-opacity: 0.8"/>
     <use xlink:href="#mf6276f8d99" x="290.841121" y="56.321779" style="fill: #ff7f0e; fill-opacity: 0.8; stroke: #ff7f0e; stroke-opacity: 0.8"/>
     <use xlink:href="#mf6276f8d99" x="278.541945" y="98.891291" style="fill: #ff7f0e; fill-opacity: 0.8; stroke: #ff7f0e; stroke-opacity: 0.8"/>
     <use xlink:href="#mf6276f8d99" x="289.564745" y="88.089008" style="fill: #ff7f0e; fill-opacity: 0.8; stroke: #ff7f0e; stroke-opacity: 0.8"/>
     <use xlink:href="#mf6276f8d99" x="294.658461" y="93.732788" style="fill: #ff7f0e; fill-opacity: 0.8; stroke: #ff7f0e; stroke-opacity: 0.8"/>
     <use xlink:href="#mf6276f8d99" x="273.62576" y="105.265384" style="fill: #ff7f0e; fill-opacity: 0.8; stroke: #ff7f0e; stroke-opacity: 0.8"/>
     <use xlink:href="#mf6276f8d99" x="283.618853" y="96.302236" style="fill: #ff7f0e; fill-opacity: 0.8; stroke: #ff7f0e; stroke-opacity: 0.8"/>
     <use xlink:href="#mf6276f8d99" x="311.703298" y="96.337878" style="fill: #ff7f0e; fill-opacity: 0.8; stroke: #ff7f0e; stroke-opacity: 0.8"/>
     <use xlink:href="#mf6276f8d99" x="282.548258" y="91.585753" style="fill: #ff7f0e; fill-opacity: 0.8; stroke: #ff7f0e; stroke-opacity: 0.8"/>
     <use xlink:href="#mf6276f8d99" x="308.854128" y="78.302935" style="fill: #ff7f0e; fill-opacity: 0.8; stroke: #ff7f0e; stroke-opacity: 0.8"/>
    </g>
   </g>
   <g id="PolyCollection_4">
    <path d="M 273.62576 91.132691 
L 273.62576 111.120279 
L 274.613821 110.237086 
L 275.601883 109.337373 
L 276.589945 108.330901 
L 277.578007 107.410979 
L 278.566069 106.523949 
L 279.55413 105.563741 
L 280.542192 104.600439 
L 281.530254 103.705756 
L 282.518316 102.828593 
L 283.506378 101.952092 
L 284.494439 101.07884 
L 285.482501 100.203015 
L 286.470563 99.398474 
L 287.458625 98.556794 
L 288.446687 97.622839 
L 289.434748 96.753998 
L 290.42281 95.903446 
L 291.410872 95.051165 
L 292.398934 94.198885 
L 293.386996 93.349234 
L 294.375058 92.548762 
L 295.363119 91.728416 
L 296.351181 90.977915 
L 297.339243 90.179307 
L 298.327305 89.387544 
L 299.315367 88.65961 
L 300.303428 87.77616 
L 301.29149 87.005631 
L 302.279552 86.189105 
L 303.267614 85.50205 
L 304.255676 84.627119 
L 305.243737 83.942955 
L 306.231799 83.162477 
L 307.219861 82.371774 
L 308.207923 81.586331 
L 309.195985 80.91482 
L 310.184046 80.157113 
L 311.172108 79.321889 
L 312.16017 78.48242 
L 313.148232 77.659874 
L 314.136294 76.926879 
L 315.124355 76.1795 
L 316.112417 75.52305 
L 317.100479 74.868446 
L 318.088541 74.198596 
L 319.076603 73.316119 
L 320.064665 72.677038 
L 321.052726 72.123189 
L 322.040788 71.201993 
L 323.02885 70.509533 
L 324.016912 69.817073 
L 325.004974 69.124614 
L 325.993035 68.429759 
L 326.981097 67.733922 
L 327.969159 67.043899 
L 328.957221 66.353519 
L 329.945283 65.659835 
L 330.933344 65.057845 
L 331.921406 64.513299 
L 332.909468 63.824112 
L 333.89753 63.13248 
L 334.885592 62.439697 
L 335.873653 61.824818 
L 336.861715 61.288429 
L 337.849777 60.598941 
L 338.837839 59.837714 
L 339.825901 59.199305 
L 340.813962 58.553866 
L 341.802024 57.889544 
L 342.790086 57.265719 
L 343.778148 56.668526 
L 344.76621 56.076108 
L 345.754272 55.464545 
L 346.742333 54.851227 
L 347.730395 54.247858 
L 348.718457 53.65836 
L 349.706519 53.083504 
L 350.694581 52.508648 
L 351.682642 51.874013 
L 352.670704 51.233729 
L 353.658766 50.624881 
L 354.646828 49.981731 
L 355.63489 49.286232 
L 356.622951 48.66742 
L 357.611013 48.017832 
L 358.599075 47.363855 
L 359.587137 46.709879 
L 360.575199 46.055903 
L 361.56326 45.401104 
L 362.551322 44.745622 
L 363.539384 44.100185 
L 364.527446 43.500095 
L 365.515508 42.89419 
L 366.503569 42.293165 
L 367.491631 41.692141 
L 368.479693 41.091116 
L 369.467755 40.490091 
L 370.455817 39.936067 
L 371.443879 39.394168 
L 371.443879 13.5 
L 371.443879 13.5 
L 370.455817 14.368895 
L 369.467755 15.22042 
L 368.479693 16.071946 
L 367.491631 16.923471 
L 366.503569 17.784838 
L 365.515508 18.659637 
L 364.527446 19.534437 
L 363.539384 20.411188 
L 362.551322 21.285723 
L 361.56326 22.161353 
L 360.575199 23.063338 
L 359.587137 23.968002 
L 358.599075 24.822725 
L 357.611013 25.675683 
L 356.622951 26.538079 
L 355.63489 27.414006 
L 354.646828 28.389036 
L 353.658766 29.389479 
L 352.670704 30.389922 
L 351.682642 31.326644 
L 350.694581 32.312081 
L 349.706519 33.174729 
L 348.718457 33.988327 
L 347.730395 34.805175 
L 346.742333 35.685083 
L 345.754272 36.566012 
L 344.76621 37.490641 
L 343.778148 38.484756 
L 342.790086 39.412656 
L 341.802024 40.404586 
L 340.813962 41.353708 
L 339.825901 42.23561 
L 338.837839 43.118508 
L 337.849777 44.003014 
L 336.861715 44.870647 
L 335.873653 45.756355 
L 334.885592 46.627689 
L 333.89753 47.452509 
L 332.909468 48.313257 
L 331.921406 49.175909 
L 330.933344 50.085356 
L 329.945283 51.029119 
L 328.957221 51.898618 
L 327.969159 52.723353 
L 326.981097 53.5066 
L 325.993035 54.342128 
L 325.004974 55.258483 
L 324.016912 56.185365 
L 323.02885 56.962266 
L 322.040788 57.761202 
L 321.052726 58.589143 
L 320.064665 59.502057 
L 319.076603 60.362023 
L 318.088541 61.069472 
L 317.100479 61.694773 
L 316.112417 62.352974 
L 315.124355 63.079303 
L 314.136294 63.905361 
L 313.148232 64.561292 
L 312.16017 65.227915 
L 311.172108 66.00959 
L 310.184046 66.74146 
L 309.195985 67.560128 
L 308.207923 68.354412 
L 307.219861 69.108434 
L 306.231799 69.679756 
L 305.243737 70.512015 
L 304.255676 71.265494 
L 303.267614 72.060621 
L 302.279552 72.733855 
L 301.29149 73.368964 
L 300.303428 74.0771 
L 299.315367 74.78466 
L 298.327305 75.421437 
L 297.339243 76.091561 
L 296.351181 76.761685 
L 295.363119 77.43181 
L 294.375058 78.101934 
L 293.386996 78.76127 
L 292.398934 79.387456 
L 291.410872 79.974695 
L 290.42281 80.436554 
L 289.434748 81.149401 
L 288.446687 81.778667 
L 287.458625 82.454045 
L 286.470563 83.164104 
L 285.482501 83.859049 
L 284.494439 84.478586 
L 283.506378 85.128498 
L 282.518316 85.727738 
L 281.530254 86.327777 
L 280.542192 86.915415 
L 279.55413 87.522346 
L 278.566069 88.134228 
L 277.578007 88.73392 
L 276.589945 89.333613 
L 275.601883 89.933306 
L 274.613821 90.532999 
L 273.62576 91.132691 
z
" clip-path="url(#pfa6f05d9f9)" style="fill: #ff7f0e; fill-opacity: 0.15"/>
   </g>
   <g id="matplotlib.axis_3">
    <g id="xtick_4">
     <g id="line2d_15">
      <g>
       <use xlink:href="#m78f01cc643" x="239.871252" y="145.8" style="stroke: #000000; stroke-width: 0.8"/>
      </g>
     </g>
     <g id="text_15">
      <text style="font: 10px 'inter', sans-serif; text-anchor: middle" x="239.871252" y="160.075" transform="rotate(-0 239.871252 160.075)">−2</text>
     </g>
    </g>
    <g id="xtick_5">
     <g id="line2d_16">
      <g>
       <use xlink:href="#m78f01cc643" x="307.162532" y="145.8" style="stroke: #000000; stroke-width: 0.8"/>
      </g>
     </g>
     <g id="text_16">
      <text style="font: 10px 'inter', sans-serif; text-anchor: middle" x="307.162532" y="160.075" transform="rotate(-0 307.162532 160.075)">0</text>
     </g>
    </g>
    <g id="xtick_6">
     <g id="line2d_17">
      <g>
       <use xlink:href="#m78f01cc643" x="374.453812" y="145.8" style="stroke: #000000; stroke-width: 0.8"/>
      </g>
     </g>
     <g id="text_17">
      <text style="font: 10px 'inter', sans-serif; text-anchor: middle" x="374.453812" y="160.075" transform="rotate(-0 374.453812 160.075)">2</text>
     </g>
    </g>
    <g id="text_18">
     <text style="font: 10px 'inter', sans-serif; text-anchor: middle" x="307.162532" y="173.390625" transform="rotate(-0 307.162532 173.390625)">48 h starved</text>
    </g>
   </g>
   <g id="matplotlib.axis_4">
    <g id="ytick_6">
     <g id="line2d_18">
      <g>
       <use xlink:href="#m845525bb12" x="233.142124" y="139.5" style="stroke: #000000; stroke-width: 0.8"/>
      </g>
     </g>
     <g id="text_19">
      <text style="font: 10px 'inter', sans-serif; text-anchor: end" x="226.142124" y="143.1375" transform="rotate(-0 226.142124 143.1375)">−2</text>
     </g>
    </g>
    <g id="ytick_7">
     <g id="line2d_19">
      <g>
       <use xlink:href="#m845525bb12" x="233.142124" y="108.428628" style="stroke: #000000; stroke-width: 0.8"/>
      </g>
     </g>
     <g id="text_20">
      <text style="font: 10px 'inter', sans-serif; text-anchor: end" x="226.142124" y="112.066128" transform="rotate(-0 226.142124 112.066128)">−1</text>
     </g>
    </g>
    <g id="ytick_8">
     <g id="line2d_20">
      <g>
       <use xlink:href="#m845525bb12" x="233.142124" y="77.357255" style="stroke: #000000; stroke-width: 0.8"/>
      </g>
     </g>
     <g id="text_21">
      <text style="font: 10px 'inter', sans-serif; text-anchor: end" x="226.142124" y="80.994755" transform="rotate(-0 226.142124 80.994755)">0</text>
     </g>
    </g>
    <g id="ytick_9">
     <g id="line2d_21">
      <g>
       <use xlink:href="#m845525bb12" x="233.142124" y="46.285883" style="stroke: #000000; stroke-width: 0.8"/>
      </g>
     </g>
     <g id="text_22">
      <text style="font: 10px 'inter', sans-serif; text-anchor: end" x="226.142124" y="49.923383" transform="rotate(-0 226.142124 49.923383)">1</text>
     </g>
    </g>
    <g id="ytick_10">
     <g id="line2d_22">
      <g>
       <use xlink:href="#m845525bb12" x="233.142124" y="15.21451" style="stroke: #000000; stroke-width: 0.8"/>
      </g>
     </g>
     <g id="text_23">
      <text style="font: 10px 'inter', sans-serif; text-anchor: end" x="226.142124" y="18.85201" transform="rotate(-0 226.142124 18.85201)">2</text>
     </g>
    </g>
    <g id="text_24">
     <text style="font: 10px 'inter', sans-serif; text-anchor: middle" x="207.270249" y="76.5" transform="rotate(-90 207.270249 76.5)">Optogenetic Effect Size</text>
    </g>
   </g>
   <g id="line2d_23">
    <path d="M 273.62576 88.564243 
L 274.613821 88.302024 
L 275.601883 88.039805 
L 276.589945 87.777586 
L 277.578007 87.515367 
L 278.566069 87.253148 
L 279.55413 86.99093 
L 280.542192 86.728711 
L 281.530254 86.466492 
L 282.518316 86.204273 
L 283.506378 85.942054 
L 284.494439 85.679835 
L 285.482501 85.417616 
L 286.470563 85.155398 
L 287.458625 84.893179 
L 288.446687 84.63096 
L 289.434748 84.368741 
L 290.42281 84.106522 
L 291.410872 83.844303 
L 292.398934 83.582085 
L 293.386996 83.319866 
L 294.375058 83.057647 
L 295.363119 82.795428 
L 296.351181 82.533209 
L 297.339243 82.27099 
L 298.327305 82.008771 
L 299.315367 81.746553 
L 300.303428 81.484334 
L 301.29149 81.222115 
L 302.279552 80.959896 
L 303.267614 80.697677 
L 304.255676 80.435458 
L 305.243737 80.17324 
L 306.231799 79.911021 
L 307.219861 79.648802 
L 308.207923 79.386583 
L 309.195985 79.124364 
L 310.184046 78.862145 
L 311.172108 78.599926 
L 312.16017 78.337708 
L 313.148232 78.075489 
L 314.136294 77.81327 
L 315.124355 77.551051 
L 316.112417 77.288832 
L 317.100479 77.026613 
L 318.088541 76.764395 
L 319.076603 76.502176 
L 320.064665 76.239957 
L 321.052726 75.977738 
L 322.040788 75.715519 
L 323.02885 75.4533 
L 324.016912 75.191081 
L 325.004974 74.928863 
L 325.993035 74.666644 
L 326.981097 74.404425 
L 327.969159 74.142206 
L 328.957221 73.879987 
L 329.945283 73.617768 
L 330.933344 73.35555 
L 331.921406 73.093331 
L 332.909468 72.831112 
L 333.89753 72.568893 
L 334.885592 72.306674 
L 335.873653 72.044455 
L 336.861715 71.782236 
L 337.849777 71.520018 
L 338.837839 71.257799 
L 339.825901 70.99558 
L 340.813962 70.733361 
L 341.802024 70.471142 
L 342.790086 70.208923 
L 343.778148 69.946705 
L 344.76621 69.684486 
L 345.754272 69.422267 
L 346.742333 69.160048 
L 347.730395 68.897829 
L 348.718457 68.63561 
L 349.706519 68.373391 
L 350.694581 68.111173 
L 351.682642 67.848954 
L 352.670704 67.586735 
L 353.658766 67.324516 
L 354.646828 67.062297 
L 355.63489 66.800078 
L 356.622951 66.53786 
L 357.611013 66.275641 
L 358.599075 66.013422 
L 359.587137 65.751203 
L 360.575199 65.488984 
L 361.56326 65.226765 
L 362.551322 64.964546 
L 363.539384 64.702328 
L 364.527446 64.440109 
L 365.515508 64.17789 
L 366.503569 63.915671 
L 367.491631 63.653452 
L 368.479693 63.391233 
L 369.467755 63.129015 
L 370.455817 62.866796 
L 371.443879 62.604577 
" clip-path="url(#pfa6f05d9f9)" style="fill: none; stroke: #1f77b4; stroke-width: 2.25; stroke-linecap: square"/>
   </g>
   <g id="line2d_24">
    <path d="M 273.62576 101.313094 
L 274.613821 100.560502 
L 275.601883 99.80791 
L 276.589945 99.055318 
L 277.578007 98.302725 
L 278.566069 97.550133 
L 279.55413 96.797541 
L 280.542192 96.044949 
L 281.530254 95.292357 
L 282.518316 94.539765 
L 283.506378 93.787173 
L 284.494439 93.034581 
L 285.482501 92.281989 
L 286.470563 91.529397 
L 287.458625 90.776805 
L 288.446687 90.024213 
L 289.434748 89.271621 
L 290.42281 88.519029 
L 291.410872 87.766436 
L 292.398934 87.013844 
L 293.386996 86.261252 
L 294.375058 85.50866 
L 295.363119 84.756068 
L 296.351181 84.003476 
L 297.339243 83.250884 
L 298.327305 82.498292 
L 299.315367 81.7457 
L 300.303428 80.993108 
L 301.29149 80.240516 
L 302.279552 79.487924 
L 303.267614 78.735332 
L 304.255676 77.98274 
L 305.243737 77.230147 
L 306.231799 76.477555 
L 307.219861 75.724963 
L 308.207923 74.972371 
L 309.195985 74.219779 
L 310.184046 73.467187 
L 311.172108 72.714595 
L 312.16017 71.962003 
L 313.148232 71.209411 
L 314.136294 70.456819 
L 315.124355 69.704227 
L 316.112417 68.951635 
L 317.100479 68.199043 
L 318.088541 67.446451 
L 319.076603 66.693859 
L 320.064665 65.941266 
L 321.052726 65.188674 
L 322.040788 64.436082 
L 323.02885 63.68349 
L 324.016912 62.930898 
L 325.004974 62.178306 
L 325.993035 61.425714 
L 326.981097 60.673122 
L 327.969159 59.92053 
L 328.957221 59.167938 
L 329.945283 58.415346 
L 330.933344 57.662754 
L 331.921406 56.910162 
L 332.909468 56.15757 
L 333.89753 55.404977 
L 334.885592 54.652385 
L 335.873653 53.899793 
L 336.861715 53.147201 
L 337.849777 52.394609 
L 338.837839 51.642017 
L 339.825901 50.889425 
L 340.813962 50.136833 
L 341.802024 49.384241 
L 342.790086 48.631649 
L 343.778148 47.879057 
L 344.76621 47.126465 
L 345.754272 46.373873 
L 346.742333 45.621281 
L 347.730395 44.868688 
L 348.718457 44.116096 
L 349.706519 43.363504 
L 350.694581 42.610912 
L 351.682642 41.85832 
L 352.670704 41.105728 
L 353.658766 40.353136 
L 354.646828 39.600544 
L 355.63489 38.847952 
L 356.622951 38.09536 
L 357.611013 37.342768 
L 358.599075 36.590176 
L 359.587137 35.837584 
L 360.575199 35.084992 
L 361.56326 34.332399 
L 362.551322 33.579807 
L 363.539384 32.827215 
L 364.527446 32.074623 
L 365.515508 31.322031 
L 366.503569 30.569439 
L 367.491631 29.816847 
L 368.479693 29.064255 
L 369.467755 28.311663 
L 370.455817 27.559071 
L 371.443879 26.806479 
" clip-path="url(#pfa6f05d9f9)" style="fill: none; stroke: #ff7f0e; stroke-width: 2.25; stroke-linecap: square"/>
   </g>
   <g id="patch_9">
    <path d="M 233.142124 145.8 
L 233.142124 7.2 
" style="fill: none; stroke: #000000; stroke-width: 0.8; stroke-linejoin: miter; stroke-linecap: square"/>
   </g>
   <g id="patch_10">
    <path d="M 381.18294 145.8 
L 381.18294 7.2 
" style="fill: none; stroke: #000000; stroke-width: 0.8; stroke-linejoin: miter; stroke-linecap: square"/>
   </g>
   <g id="patch_11">
    <path d="M 233.142124 145.8 
L 381.18294 145.8 
" style="fill: none; stroke: #000000; stroke-width: 0.8; stroke-linejoin: miter; stroke-linecap: square"/>
   </g>
   <g id="patch_12">
    <path d="M 233.142124 7.2 
L 381.18294 7.2 
" style="fill: none; stroke: #000000; stroke-width: 0.8; stroke-linejoin: miter; stroke-linecap: square"/>
   </g>
   <g id="text_25">
    <!-- $r^{2} = $0.74 -->
    <g style="fill: #ff7f0e" transform="translate(323.985352 123.964314)">
     <text>
      <tspan style="font: oblique 10px 'DejaVu Sans'" x="0" y="-0.9765625">r</tspan>
      <tspan style="font: 7px 'DejaVu Sans'" x="4.575443" y="-4.8046875">2</tspan>
      <tspan style="font: 10px 'DejaVu Sans'" x="11.250736" y="-0.9765625">=</tspan>
      <tspan style="font: 500 10px 'Inter'" x="21.577884 28.032962 31.065189 36.778079" y="-0.9765625">0.74</tspan>
     </text>
    </g>
   </g>
   <g id="text_26">
    <!-- $r^{2} = $0.36 -->
    <g style="fill: #1f77b4" transform="translate(323.985352 108.428628)">
     <text>
      <tspan style="font: oblique 10px 'DejaVu Sans'" x="0" y="-0.9765625">r</tspan>
      <tspan style="font: 7px 'DejaVu Sans'" x="4.575443" y="-4.8046875">2</tspan>
      <tspan style="font: 10px 'DejaVu Sans'" x="11.250736" y="-0.9765625">=</tspan>
      <tspan style="font: 500 10px 'Inter'" x="21.577884 28.032962 31.065189 37.33472" y="-0.9765625">0.36</tspan>
     </text>
    </g>
   </g>
   <g id="legend_2">
    <g id="patch_13">
     <path d="M 240.142124 43.83125 
L 334.542124 43.83125 
Q 336.542124 43.83125 336.542124 41.83125 
L 336.542124 14.2 
Q 336.542124 12.2 334.542124 12.2 
L 240.142124 12.2 
Q 238.142124 12.2 238.142124 14.2 
L 238.142124 41.83125 
Q 238.142124 43.83125 240.142124 43.83125 
z
" style="fill: #ffffff; opacity: 0.8; stroke: #cccccc; stroke-linejoin: miter"/>
    </g>
    <g id="PathCollection_7">
     <g>
      <use xlink:href="#m741efc249c" x="252.142124" y="20.85" style="fill: #1f77b4; fill-opacity: 0.8; stroke: #1f77b4; stroke-opacity: 0.8"/>
     </g>
    </g>
    <g id="text_27">
     <!-- $\it{Akh&gt;ACR1}$ -->
     <g transform="translate(270.142124 23.475)">
      <text>
       <tspan style="font: oblique 10px 'DejaVu Sans'" x="0 6.84082 12.631836 31.245117 38.085938 45.068359" y="-0.40625">AkhACR</tspan>
       <tspan style="font: 10px 'DejaVu Sans'" x="20.917969 52.016602" y="-0.40625">&gt;1</tspan>
      </text>
     </g>
    </g>
    <g id="PathCollection_8">
     <g>
      <use xlink:href="#mf6276f8d99" x="252.142124" y="35.165625" style="fill: #ff7f0e; fill-opacity: 0.8; stroke: #ff7f0e; stroke-opacity: 0.8"/>
     </g>
    </g>
    <g id="text_28">
     <!-- $\it{Trhn&gt;ACR1}$ -->
     <g transform="translate(270.142124 37.790625)">
      <text>
       <tspan style="font: oblique 10px 'DejaVu Sans'" x="0 6.108398 10.219727 16.557617 35.170898 42.011719 48.994141" y="-0.40625">TrhnACR</tspan>
       <tspan style="font: 10px 'DejaVu Sans'" x="24.84375 55.942383" y="-0.40625">&gt;1</tspan>
      </text>
     </g>
    </g>
   </g>
  </g>
  <g id="axes_3">
   <g id="patch_14">
    <path d="M 425.595185 145.8 
L 573.636001 145.8 
L 573.636001 7.2 
L 425.595185 7.2 
z
" style="fill: #ffffff"/>
   </g>
   <g id="line2d_25">
    <path d="M 432.324313 77.890727 
L 566.906873 77.890727 
" clip-path="url(#p56348e6dc8)" style="fill: none; stroke: #d3d3d3; stroke-width: 0.5; stroke-linecap: square"/>
   </g>
   <g id="line2d_26">
    <path d="M 499.615593 139.5 
L 499.615593 16.281453 
" clip-path="url(#p56348e6dc8)" style="fill: none; stroke: #d3d3d3; stroke-width: 0.5; stroke-linecap: square"/>
   </g>
   <g id="PathCollection_9">
    <g clip-path="url(#p56348e6dc8)">
     <use xlink:href="#m741efc249c" x="551.04067" y="13.5" style="fill: #1f77b4; fill-opacity: 0.8; stroke: #1f77b4; stroke-opacity: 0.8"/>
     <use xlink:href="#m741efc249c" x="533.43494" y="50.115729" style="fill: #1f77b4; fill-opacity: 0.8; stroke: #1f77b4; stroke-opacity: 0.8"/>
     <use xlink:href="#m741efc249c" x="533.331599" y="64.891411" style="fill: #1f77b4; fill-opacity: 0.8; stroke: #1f77b4; stroke-opacity: 0.8"/>
     <use xlink:href="#m741efc249c" x="534.034695" y="68.216334" style="fill: #1f77b4; fill-opacity: 0.8; stroke: #1f77b4; stroke-opacity: 0.8"/>
     <use xlink:href="#m741efc249c" x="534.569366" y="36.734418" style="fill: #1f77b4; fill-opacity: 0.8; stroke: #1f77b4; stroke-opacity: 0.8"/>
     <use xlink:href="#m741efc249c" x="507.390484" y="39.120672" style="fill: #1f77b4; fill-opacity: 0.8; stroke: #1f77b4; stroke-opacity: 0.8"/>
     <use xlink:href="#m741efc249c" x="508.264118" y="94.353459" style="fill: #1f77b4; fill-opacity: 0.8; stroke: #1f77b4; stroke-opacity: 0.8"/>
     <use xlink:href="#m741efc249c" x="513.262733" y="79.625557" style="fill: #1f77b4; fill-opacity: 0.8; stroke: #1f77b4; stroke-opacity: 0.8"/>
     <use xlink:href="#m741efc249c" x="486.558465" y="86.857091" style="fill: #1f77b4; fill-opacity: 0.8; stroke: #1f77b4; stroke-opacity: 0.8"/>
     <use xlink:href="#m741efc249c" x="476.719124" y="110.002299" style="fill: #1f77b4; fill-opacity: 0.8; stroke: #1f77b4; stroke-opacity: 0.8"/>
     <use xlink:href="#m741efc249c" x="485.537364" y="32.730816" style="fill: #1f77b4; fill-opacity: 0.8; stroke: #1f77b4; stroke-opacity: 0.8"/>
     <use xlink:href="#m741efc249c" x="489.612337" y="53.732379" style="fill: #1f77b4; fill-opacity: 0.8; stroke: #1f77b4; stroke-opacity: 0.8"/>
     <use xlink:href="#m741efc249c" x="472.786175" y="64.45596" style="fill: #1f77b4; fill-opacity: 0.8; stroke: #1f77b4; stroke-opacity: 0.8"/>
     <use xlink:href="#m741efc249c" x="480.78065" y="49.717004" style="fill: #1f77b4; fill-opacity: 0.8; stroke: #1f77b4; stroke-opacity: 0.8"/>
     <use xlink:href="#m741efc249c" x="503.248206" y="101.671502" style="fill: #1f77b4; fill-opacity: 0.8; stroke: #1f77b4; stroke-opacity: 0.8"/>
     <use xlink:href="#m741efc249c" x="479.924174" y="81.221615" style="fill: #1f77b4; fill-opacity: 0.8; stroke: #1f77b4; stroke-opacity: 0.8"/>
     <use xlink:href="#m741efc249c" x="500.96887" y="78.527231" style="fill: #1f77b4; fill-opacity: 0.8; stroke: #1f77b4; stroke-opacity: 0.8"/>
    </g>
   </g>
   <g id="PolyCollection_5">
    <path d="M 472.786175 60.310399 
L 472.786175 102.297516 
L 473.576625 101.643635 
L 474.367074 101.006645 
L 475.157524 100.345812 
L 475.947973 99.788599 
L 476.738422 99.055918 
L 477.528872 98.414101 
L 478.319321 97.698145 
L 479.109771 97.03584 
L 479.90022 96.373177 
L 480.69067 95.709554 
L 481.481119 94.943849 
L 482.271569 94.353581 
L 483.062018 93.657857 
L 483.852467 92.978383 
L 484.642917 92.353792 
L 485.433366 91.736726 
L 486.223816 91.094181 
L 487.014265 90.423729 
L 487.804715 89.750485 
L 488.595164 89.027904 
L 489.385614 88.31869 
L 490.176063 87.741649 
L 490.966512 87.071296 
L 491.756962 86.400944 
L 492.547411 85.730591 
L 493.337861 85.113906 
L 494.12831 84.565425 
L 494.91876 83.853672 
L 495.709209 83.243202 
L 496.499659 82.632731 
L 497.290108 82.015261 
L 498.080558 81.416695 
L 498.871007 80.810579 
L 499.661456 80.322231 
L 500.451906 79.88259 
L 501.242355 79.262819 
L 502.032805 78.71744 
L 502.823254 78.160754 
L 503.613704 77.870385 
L 504.404153 77.696136 
L 505.194603 77.349642 
L 505.985052 77.003991 
L 506.775501 76.710253 
L 507.565951 76.484254 
L 508.3564 76.002819 
L 509.14685 75.810226 
L 509.937299 75.557581 
L 510.727749 75.258107 
L 511.518198 74.827588 
L 512.308648 74.616512 
L 513.099097 73.970912 
L 513.889546 73.50547 
L 514.679996 73.320656 
L 515.470445 73.215026 
L 516.260895 73.00025 
L 517.051344 72.883202 
L 517.841794 72.689468 
L 518.632243 72.821521 
L 519.422693 72.756019 
L 520.213142 72.651715 
L 521.003591 72.612741 
L 521.794041 72.706213 
L 522.58449 72.775408 
L 523.37494 72.741697 
L 524.165389 72.539625 
L 524.955839 72.327122 
L 525.746288 72.124818 
L 526.536738 72.169659 
L 527.327187 72.368572 
L 528.117636 72.566001 
L 528.908086 72.703211 
L 529.698535 72.697724 
L 530.488985 72.686592 
L 531.279434 72.67546 
L 532.069884 72.633547 
L 532.860333 72.64963 
L 533.650783 72.648795 
L 534.441232 72.639976 
L 535.231681 72.628658 
L 536.022131 72.537394 
L 536.81258 72.551522 
L 537.60303 72.601405 
L 538.393479 72.453149 
L 539.183929 72.2902 
L 539.974378 72.127252 
L 540.764828 72.120218 
L 541.555277 72.141549 
L 542.345727 72.162533 
L 543.136176 72.183516 
L 543.926625 72.174671 
L 544.717075 72.232768 
L 545.507524 72.260553 
L 546.297974 72.284052 
L 547.088423 72.307457 
L 547.878873 72.330862 
L 548.669322 72.354267 
L 549.459772 72.377626 
L 550.250221 72.401077 
L 551.04067 72.424482 
L 551.04067 25.563647 
L 551.04067 25.563647 
L 550.250221 26.133753 
L 549.459772 26.815971 
L 548.669322 27.499928 
L 547.878873 28.06357 
L 547.088423 28.726642 
L 546.297974 29.392026 
L 545.507524 29.942491 
L 544.717075 30.537649 
L 543.926625 31.219847 
L 543.136176 31.826068 
L 542.345727 32.383406 
L 541.555277 32.940743 
L 540.764828 33.49808 
L 539.974378 34.055417 
L 539.183929 34.613582 
L 538.393479 35.174091 
L 537.60303 35.735146 
L 536.81258 36.338603 
L 536.022131 36.992263 
L 535.231681 37.418327 
L 534.441232 37.969721 
L 533.650783 38.487973 
L 532.860333 39.030067 
L 532.069884 39.644265 
L 531.279434 40.099413 
L 530.488985 40.613484 
L 529.698535 41.316096 
L 528.908086 41.735459 
L 528.117636 42.196543 
L 527.327187 42.859381 
L 526.536738 43.514666 
L 525.746288 44.022743 
L 524.955839 44.374837 
L 524.165389 44.72693 
L 523.37494 45.079129 
L 522.58449 45.432355 
L 521.794041 45.787169 
L 521.003591 46.144637 
L 520.213142 46.838915 
L 519.422693 47.584714 
L 518.632243 47.899176 
L 517.841794 48.213637 
L 517.051344 48.528099 
L 516.260895 49.018622 
L 515.470445 49.497317 
L 514.679996 50.036882 
L 513.889546 50.561283 
L 513.099097 51.049766 
L 512.308648 51.400464 
L 511.518198 51.904581 
L 510.727749 52.302646 
L 509.937299 52.729033 
L 509.14685 53.054832 
L 508.3564 53.437488 
L 507.565951 53.76923 
L 506.775501 54.20211 
L 505.985052 54.566523 
L 505.194603 54.86041 
L 504.404153 55.158751 
L 503.613704 55.538009 
L 502.823254 55.897975 
L 502.032805 56.279846 
L 501.242355 56.475149 
L 500.451906 56.640402 
L 499.661456 56.923594 
L 498.871007 57.047513 
L 498.080558 57.382133 
L 497.290108 57.702919 
L 496.499659 57.900086 
L 495.709209 57.925186 
L 494.91876 58.208147 
L 494.12831 58.326039 
L 493.337861 58.475671 
L 492.547411 58.722636 
L 491.756962 58.655656 
L 490.966512 58.740305 
L 490.176063 58.777445 
L 489.385614 58.889417 
L 488.595164 59.041491 
L 487.804715 59.301557 
L 487.014265 59.416228 
L 486.223816 59.69999 
L 485.433366 59.759295 
L 484.642917 59.771512 
L 483.852467 59.865525 
L 483.062018 59.91864 
L 482.271569 59.97462 
L 481.481119 60.065348 
L 480.69067 60.306914 
L 479.90022 60.352023 
L 479.109771 60.328608 
L 478.319321 60.308769 
L 477.528872 60.304938 
L 476.738422 60.359321 
L 475.947973 60.410051 
L 475.157524 60.375972 
L 474.367074 60.254182 
L 473.576625 60.275374 
L 472.786175 60.310399 
z
" clip-path="url(#p56348e6dc8)" style="fill: #1f77b4; fill-opacity: 0.15"/>
   </g>
   <g id="matplotlib.axis_5">
    <g id="xtick_7">
     <g id="line2d_27">
      <g>
       <use xlink:href="#m78f01cc643" x="445.782569" y="145.8" style="stroke: #000000; stroke-width: 0.8"/>
      </g>
     </g>
     <g id="text_29">
      <text style="font: 10px 'inter', sans-serif; text-anchor: middle" x="445.782569" y="160.075" transform="rotate(-0 445.782569 160.075)">−2</text>
     </g>
    </g>
    <g id="xtick_8">
     <g id="line2d_28">
      <g>
       <use xlink:href="#m78f01cc643" x="499.615593" y="145.8" style="stroke: #000000; stroke-width: 0.8"/>
      </g>
     </g>
     <g id="text_30">
      <text style="font: 10px 'inter', sans-serif; text-anchor: middle" x="499.615593" y="160.075" transform="rotate(-0 499.615593 160.075)">0</text>
     </g>
    </g>
    <g id="xtick_9">
     <g id="line2d_29">
      <g>
       <use xlink:href="#m78f01cc643" x="553.448617" y="145.8" style="stroke: #000000; stroke-width: 0.8"/>
      </g>
     </g>
     <g id="text_31">
      <text style="font: 10px 'inter', sans-serif; text-anchor: middle" x="553.448617" y="160.075" transform="rotate(-0 553.448617 160.075)">2</text>
     </g>
    </g>
    <g id="text_32">
     <text style="font: 10px 'inter', sans-serif; text-anchor: middle" x="499.615593" y="173.390625" transform="rotate(-0 499.615593 173.390625)">48 h starved</text>
    </g>
   </g>
   <g id="matplotlib.axis_6">
    <g id="ytick_11">
     <g id="line2d_30">
      <g>
       <use xlink:href="#m845525bb12" x="425.595185" y="127.178145" style="stroke: #000000; stroke-width: 0.8"/>
      </g>
     </g>
     <g id="text_33">
      <text style="font: 10px 'inter', sans-serif; text-anchor: end" x="418.595185" y="130.815645" transform="rotate(-0 418.595185 130.815645)">−2</text>
     </g>
    </g>
    <g id="ytick_12">
     <g id="line2d_31">
      <g>
       <use xlink:href="#m845525bb12" x="425.595185" y="102.534436" style="stroke: #000000; stroke-width: 0.8"/>
      </g>
     </g>
     <g id="text_34">
      <text style="font: 10px 'inter', sans-serif; text-anchor: end" x="418.595185" y="106.171936" transform="rotate(-0 418.595185 106.171936)">−1</text>
     </g>
    </g>
    <g id="ytick_13">
     <g id="line2d_32">
      <g>
       <use xlink:href="#m845525bb12" x="425.595185" y="77.890727" style="stroke: #000000; stroke-width: 0.8"/>
      </g>
     </g>
     <g id="text_35">
      <text style="font: 10px 'inter', sans-serif; text-anchor: end" x="418.595185" y="81.528227" transform="rotate(-0 418.595185 81.528227)">0</text>
     </g>
    </g>
    <g id="ytick_14">
     <g id="line2d_33">
      <g>
       <use xlink:href="#m845525bb12" x="425.595185" y="53.247017" style="stroke: #000000; stroke-width: 0.8"/>
      </g>
     </g>
     <g id="text_36">
      <text style="font: 10px 'inter', sans-serif; text-anchor: end" x="418.595185" y="56.884517" transform="rotate(-0 418.595185 56.884517)">1</text>
     </g>
    </g>
    <g id="ytick_15">
     <g id="line2d_34">
      <g>
       <use xlink:href="#m845525bb12" x="425.595185" y="28.603308" style="stroke: #000000; stroke-width: 0.8"/>
      </g>
     </g>
     <g id="text_37">
      <text style="font: 10px 'inter', sans-serif; text-anchor: end" x="418.595185" y="32.240808" transform="rotate(-0 418.595185 32.240808)">2</text>
     </g>
    </g>
    <g id="text_38">
     <text style="font: italic 10px 'inter', sans-serif; text-anchor: middle" x="399.840497" y="76.5" transform="rotate(-90 399.840497 76.5)">R50H05&gt;Chr</text>
    </g>
   </g>
   <g id="line2d_35">
    <path d="M 472.786175 80.023024 
L 473.576625 79.659371 
L 474.367074 79.295718 
L 475.157524 78.932065 
L 475.947973 78.568412 
L 476.738422 78.204759 
L 477.528872 77.841106 
L 478.319321 77.477453 
L 479.109771 77.1138 
L 479.90022 76.750147 
L 480.69067 76.386494 
L 481.481119 76.022841 
L 482.271569 75.659188 
L 483.062018 75.295535 
L 483.852467 74.931882 
L 484.642917 74.568229 
L 485.433366 74.204577 
L 486.223816 73.840924 
L 487.014265 73.477271 
L 487.804715 73.113618 
L 488.595164 72.749965 
L 489.385614 72.386312 
L 490.176063 72.022659 
L 490.966512 71.659006 
L 491.756962 71.295353 
L 492.547411 70.9317 
L 493.337861 70.568047 
L 494.12831 70.204394 
L 494.91876 69.840741 
L 495.709209 69.477088 
L 496.499659 69.113435 
L 497.290108 68.749782 
L 498.080558 68.386129 
L 498.871007 68.022476 
L 499.661456 67.658824 
L 500.451906 67.295171 
L 501.242355 66.931518 
L 502.032805 66.567865 
L 502.823254 66.204212 
L 503.613704 65.840559 
L 504.404153 65.476906 
L 505.194603 65.113253 
L 505.985052 64.7496 
L 506.775501 64.385947 
L 507.565951 64.022294 
L 508.3564 63.658641 
L 509.14685 63.294988 
L 509.937299 62.931335 
L 510.727749 62.567682 
L 511.518198 62.204029 
L 512.308648 61.840376 
L 513.099097 61.476723 
L 513.889546 61.11307 
L 514.679996 60.749418 
L 515.470445 60.385765 
L 516.260895 60.022112 
L 517.051344 59.658459 
L 517.841794 59.294806 
L 518.632243 58.931153 
L 519.422693 58.5675 
L 520.213142 58.203847 
L 521.003591 57.840194 
L 521.794041 57.476541 
L 522.58449 57.112888 
L 523.37494 56.749235 
L 524.165389 56.385582 
L 524.955839 56.021929 
L 525.746288 55.658276 
L 526.536738 55.294623 
L 527.327187 54.93097 
L 528.117636 54.567317 
L 528.908086 54.203665 
L 529.698535 53.840012 
L 530.488985 53.476359 
L 531.279434 53.112706 
L 532.069884 52.749053 
L 532.860333 52.3854 
L 533.650783 52.021747 
L 534.441232 51.658094 
L 535.231681 51.294441 
L 536.022131 50.930788 
L 536.81258 50.567135 
L 537.60303 50.203482 
L 538.393479 49.839829 
L 539.183929 49.476176 
L 539.974378 49.112523 
L 540.764828 48.74887 
L 541.555277 48.385217 
L 542.345727 48.021564 
L 543.136176 47.657912 
L 543.926625 47.294259 
L 544.717075 46.930606 
L 545.507524 46.566953 
L 546.297974 46.2033 
L 547.088423 45.839647 
L 547.878873 45.475994 
L 548.669322 45.112341 
L 549.459772 44.748688 
L 550.250221 44.385035 
L 551.04067 44.021382 
" clip-path="url(#p56348e6dc8)" style="fill: none; stroke: #1f77b4; stroke-width: 2.25; stroke-linecap: square"/>
   </g>
   <g id="patch_15">
    <path d="M 425.595185 145.8 
L 425.595185 7.2 
" style="fill: none; stroke: #000000; stroke-width: 0.8; stroke-linejoin: miter; stroke-linecap: square"/>
   </g>
   <g id="patch_16">
    <path d="M 573.636001 145.8 
L 573.636001 7.2 
" style="fill: none; stroke: #000000; stroke-width: 0.8; stroke-linejoin: miter; stroke-linecap: square"/>
   </g>
   <g id="patch_17">
    <path d="M 425.595185 145.8 
L 573.636001 145.8 
" style="fill: none; stroke: #000000; stroke-width: 0.8; stroke-linejoin: miter; stroke-linecap: square"/>
   </g>
   <g id="patch_18">
    <path d="M 425.595185 7.2 
L 573.636001 7.2 
" style="fill: none; stroke: #000000; stroke-width: 0.8; stroke-linejoin: miter; stroke-linecap: square"/>
   </g>
   <g id="text_39">
    <!-- $r^{2} = $0.18 -->
    <g style="fill: #1f77b4" transform="translate(513.073849 114.856291)">
     <text>
      <tspan style="font: oblique 10px 'DejaVu Sans'" x="0" y="-0.9765625">r</tspan>
      <tspan style="font: 7px 'DejaVu Sans'" x="4.575443" y="-4.8046875">2</tspan>
      <tspan style="font: 10px 'DejaVu Sans'" x="11.250736" y="-0.9765625">=</tspan>
      <tspan style="font: 500 10px 'Inter'" x="21.577884 28.032962 31.065189 35.215579" y="-0.9765625">0.18</tspan>
     </text>
    </g>
   </g>
  </g>
  <g id="axes_4">
   <g id="patch_19">
    <path d="M 618.048246 145.8 
L 766.089062 145.8 
L 766.089062 7.2 
L 618.048246 7.2 
z
" style="fill: #ffffff"/>
   </g>
   <g id="line2d_36">
    <path d="M 624.777374 77.890727 
L 759.359934 77.890727 
" clip-path="url(#p38ea245202)" style="fill: none; stroke: #d3d3d3; stroke-width: 0.5; stroke-linecap: square"/>
   </g>
   <g id="line2d_37">
    <path d="M 692.068654 139.5 
L 692.068654 16.281453 
" clip-path="url(#p38ea245202)" style="fill: none; stroke: #d3d3d3; stroke-width: 0.5; stroke-linecap: square"/>
   </g>
   <g id="PathCollection_10">
    <g clip-path="url(#p38ea245202)">
     <use xlink:href="#m741efc249c" x="726.662414" y="13.5" style="fill: #1f77b4; fill-opacity: 0.8; stroke: #1f77b4; stroke-opacity: 0.8"/>
     <use xlink:href="#m741efc249c" x="701.490183" y="50.115729" style="fill: #1f77b4; fill-opacity: 0.8; stroke: #1f77b4; stroke-opacity: 0.8"/>
     <use xlink:href="#m741efc249c" x="705.661832" y="64.891411" style="fill: #1f77b4; fill-opacity: 0.8; stroke: #1f77b4; stroke-opacity: 0.8"/>
     <use xlink:href="#m741efc249c" x="731.677438" y="68.216334" style="fill: #1f77b4; fill-opacity: 0.8; stroke: #1f77b4; stroke-opacity: 0.8"/>
     <use xlink:href="#m741efc249c" x="744.898327" y="36.734418" style="fill: #1f77b4; fill-opacity: 0.8; stroke: #1f77b4; stroke-opacity: 0.8"/>
     <use xlink:href="#m741efc249c" x="734.072864" y="39.120672" style="fill: #1f77b4; fill-opacity: 0.8; stroke: #1f77b4; stroke-opacity: 0.8"/>
     <use xlink:href="#m741efc249c" x="680.392184" y="94.353459" style="fill: #1f77b4; fill-opacity: 0.8; stroke: #1f77b4; stroke-opacity: 0.8"/>
     <use xlink:href="#m741efc249c" x="720.598833" y="79.625557" style="fill: #1f77b4; fill-opacity: 0.8; stroke: #1f77b4; stroke-opacity: 0.8"/>
     <use xlink:href="#m741efc249c" x="689.525629" y="86.857091" style="fill: #1f77b4; fill-opacity: 0.8; stroke: #1f77b4; stroke-opacity: 0.8"/>
     <use xlink:href="#m741efc249c" x="670.190332" y="110.002299" style="fill: #1f77b4; fill-opacity: 0.8; stroke: #1f77b4; stroke-opacity: 0.8"/>
     <use xlink:href="#m741efc249c" x="747.589874" y="32.730816" style="fill: #1f77b4; fill-opacity: 0.8; stroke: #1f77b4; stroke-opacity: 0.8"/>
     <use xlink:href="#m741efc249c" x="719.198144" y="53.732379" style="fill: #1f77b4; fill-opacity: 0.8; stroke: #1f77b4; stroke-opacity: 0.8"/>
     <use xlink:href="#m741efc249c" x="681.576226" y="64.45596" style="fill: #1f77b4; fill-opacity: 0.8; stroke: #1f77b4; stroke-opacity: 0.8"/>
     <use xlink:href="#m741efc249c" x="724.754217" y="49.717004" style="fill: #1f77b4; fill-opacity: 0.8; stroke: #1f77b4; stroke-opacity: 0.8"/>
     <use xlink:href="#m741efc249c" x="663.494222" y="101.671502" style="fill: #1f77b4; fill-opacity: 0.8; stroke: #1f77b4; stroke-opacity: 0.8"/>
     <use xlink:href="#m741efc249c" x="691.51038" y="81.221615" style="fill: #1f77b4; fill-opacity: 0.8; stroke: #1f77b4; stroke-opacity: 0.8"/>
     <use xlink:href="#m741efc249c" x="700.359527" y="78.527231" style="fill: #1f77b4; fill-opacity: 0.8; stroke: #1f77b4; stroke-opacity: 0.8"/>
    </g>
   </g>
   <g id="PolyCollection_6">
    <path d="M 663.494222 88.632381 
L 663.494222 112.47987 
L 664.343673 111.56728 
L 665.193124 110.56689 
L 666.042575 109.79398 
L 666.892026 108.907878 
L 667.741477 108.020492 
L 668.590928 107.102169 
L 669.440379 106.201965 
L 670.28983 105.416787 
L 671.139281 104.573494 
L 671.988732 103.725851 
L 672.838183 102.886815 
L 673.687634 102.037287 
L 674.537085 101.183208 
L 675.386536 100.337598 
L 676.235987 99.489906 
L 677.085438 98.64193 
L 677.934889 97.792408 
L 678.78434 96.915139 
L 679.633791 96.012135 
L 680.483242 95.235506 
L 681.332693 94.407784 
L 682.182144 93.573822 
L 683.031595 92.786624 
L 683.881047 91.89614 
L 684.730498 91.171384 
L 685.579949 90.397297 
L 686.4294 89.642309 
L 687.278851 88.931991 
L 688.128302 88.172544 
L 688.977753 87.417741 
L 689.827204 86.723364 
L 690.676655 86.043776 
L 691.526106 85.280831 
L 692.375557 84.43463 
L 693.225008 83.629895 
L 694.074459 82.984525 
L 694.92391 82.340213 
L 695.773361 81.557577 
L 696.622812 80.986694 
L 697.472263 80.323919 
L 698.321714 79.612086 
L 699.171165 78.886621 
L 700.020616 78.199162 
L 700.870067 77.559037 
L 701.719518 76.934822 
L 702.568969 76.303114 
L 703.41842 75.66827 
L 704.267871 75.068295 
L 705.117322 74.398582 
L 705.966773 73.681656 
L 706.816224 72.958168 
L 707.665675 72.436449 
L 708.515126 71.754705 
L 709.364577 71.178886 
L 710.214028 70.483711 
L 711.063479 69.939042 
L 711.912931 69.289031 
L 712.762382 68.597312 
L 713.611833 67.97175 
L 714.461284 67.403985 
L 715.310735 66.730835 
L 716.160186 66.159947 
L 717.009637 65.526753 
L 717.859088 64.880193 
L 718.708539 64.253253 
L 719.55799 63.643833 
L 720.407441 63.04292 
L 721.256892 62.442007 
L 722.106343 61.841094 
L 722.955794 61.240181 
L 723.805245 60.639084 
L 724.654696 60.095318 
L 725.504147 59.572531 
L 726.353598 59.013125 
L 727.203049 58.360757 
L 728.0525 57.771727 
L 728.901951 57.201374 
L 729.751402 56.644304 
L 730.600853 56.143769 
L 731.450304 55.637217 
L 732.299755 55.164841 
L 733.149206 54.692223 
L 733.998657 54.171218 
L 734.848108 53.610423 
L 735.697559 53.033007 
L 736.54701 52.489527 
L 737.396461 51.965109 
L 738.245912 51.427561 
L 739.095363 50.912141 
L 739.944814 50.410034 
L 740.794266 49.870808 
L 741.643717 49.305912 
L 742.493168 48.738963 
L 743.342619 48.133804 
L 744.19207 47.516135 
L 745.041521 46.898465 
L 745.890972 46.326174 
L 746.740423 45.808443 
L 747.589874 45.344959 
L 747.589874 16.698199 
L 747.589874 16.698199 
L 746.740423 17.497994 
L 745.890972 18.321194 
L 745.041521 19.168784 
L 744.19207 20.016373 
L 743.342619 20.86657 
L 742.493168 21.743859 
L 741.643717 22.688876 
L 740.794266 23.597429 
L 739.944814 24.466641 
L 739.095363 25.406021 
L 738.245912 26.163975 
L 737.396461 27.064255 
L 736.54701 27.994288 
L 735.697559 28.891535 
L 734.848108 29.786433 
L 733.998657 30.715949 
L 733.149206 31.646588 
L 732.299755 32.542754 
L 731.450304 33.45233 
L 730.600853 34.427992 
L 729.751402 35.367925 
L 728.901951 36.297703 
L 728.0525 37.229058 
L 727.203049 38.160414 
L 726.353598 38.963 
L 725.504147 39.714067 
L 724.654696 40.61989 
L 723.805245 41.453954 
L 722.955794 42.373939 
L 722.106343 43.253209 
L 721.256892 44.162639 
L 720.407441 45.019636 
L 719.55799 45.888296 
L 718.708539 46.716039 
L 717.859088 47.515981 
L 717.009637 48.388411 
L 716.160186 49.143254 
L 715.310735 49.90903 
L 714.461284 50.616279 
L 713.611833 51.123022 
L 712.762382 51.915929 
L 711.912931 52.93956 
L 711.063479 53.726754 
L 710.214028 54.490468 
L 709.364577 55.325895 
L 708.515126 56.177753 
L 707.665675 56.980211 
L 706.816224 57.763029 
L 705.966773 58.541233 
L 705.117322 59.180065 
L 704.267871 59.965136 
L 703.41842 60.779608 
L 702.568969 61.500375 
L 701.719518 62.284845 
L 700.870067 62.877435 
L 700.020616 63.637952 
L 699.171165 64.29221 
L 698.321714 64.859902 
L 697.472263 65.535164 
L 696.622812 66.216956 
L 695.773361 66.807456 
L 694.92391 67.4085 
L 694.074459 68.08201 
L 693.225008 68.750355 
L 692.375557 69.430795 
L 691.526106 70.097385 
L 690.676655 70.612559 
L 689.827204 71.298008 
L 688.977753 71.984715 
L 688.128302 72.672832 
L 687.278851 73.267084 
L 686.4294 73.779395 
L 685.579949 74.316265 
L 684.730498 74.935221 
L 683.881047 75.554487 
L 683.031595 76.174094 
L 682.182144 76.795985 
L 681.332693 77.313374 
L 680.483242 77.821793 
L 679.633791 78.459877 
L 678.78434 79.103905 
L 677.934889 79.749509 
L 677.085438 80.394016 
L 676.235987 81.034544 
L 675.386536 81.611128 
L 674.537085 82.046119 
L 673.687634 82.51366 
L 672.838183 82.94543 
L 671.988732 83.3772 
L 671.139281 83.80897 
L 670.28983 84.24074 
L 669.440379 84.764088 
L 668.590928 85.348773 
L 667.741477 85.891938 
L 666.892026 86.434273 
L 666.042575 86.885578 
L 665.193124 87.373029 
L 664.343673 87.991984 
L 663.494222 88.632381 
z
" clip-path="url(#p38ea245202)" style="fill: #1f77b4; fill-opacity: 0.15"/>
   </g>
   <g id="matplotlib.axis_7">
    <g id="xtick_10">
     <g id="line2d_38">
      <g>
       <use xlink:href="#m78f01cc643" x="638.23563" y="145.8" style="stroke: #000000; stroke-width: 0.8"/>
      </g>
     </g>
     <g id="text_40">
      <text style="font: 10px 'inter', sans-serif; text-anchor: middle" x="638.23563" y="160.075" transform="rotate(-0 638.23563 160.075)">−2</text>
     </g>
    </g>
    <g id="xtick_11">
     <g id="line2d_39">
      <g>
       <use xlink:href="#m78f01cc643" x="692.068654" y="145.8" style="stroke: #000000; stroke-width: 0.8"/>
      </g>
     </g>
     <g id="text_41">
      <text style="font: 10px 'inter', sans-serif; text-anchor: middle" x="692.068654" y="160.075" transform="rotate(-0 692.068654 160.075)">0</text>
     </g>
    </g>
    <g id="xtick_12">
     <g id="line2d_40">
      <g>
       <use xlink:href="#m78f01cc643" x="745.901678" y="145.8" style="stroke: #000000; stroke-width: 0.8"/>
      </g>
     </g>
     <g id="text_42">
      <text style="font: 10px 'inter', sans-serif; text-anchor: middle" x="745.901678" y="160.075" transform="rotate(-0 745.901678 160.075)">2</text>
     </g>
    </g>
    <g id="text_43">
     <text style="font: italic 10px 'inter', sans-serif; text-anchor: middle" x="692.068654" y="173.390625" transform="rotate(-0 692.068654 173.390625)">NPF&gt;Chr</text>
    </g>
   </g>
   <g id="matplotlib.axis_8">
    <g id="ytick_16">
     <g id="line2d_41">
      <g>
       <use xlink:href="#m845525bb12" x="618.048246" y="127.178145" style="stroke: #000000; stroke-width: 0.8"/>
      </g>
     </g>
     <g id="text_44">
      <text style="font: 10px 'inter', sans-serif; text-anchor: end" x="611.048246" y="130.815645" transform="rotate(-0 611.048246 130.815645)">−2</text>
     </g>
    </g>
    <g id="ytick_17">
     <g id="line2d_42">
      <g>
       <use xlink:href="#m845525bb12" x="618.048246" y="102.534436" style="stroke: #000000; stroke-width: 0.8"/>
      </g>
     </g>
     <g id="text_45">
      <text style="font: 10px 'inter', sans-serif; text-anchor: end" x="611.048246" y="106.171936" transform="rotate(-0 611.048246 106.171936)">−1</text>
     </g>
    </g>
    <g id="ytick_18">
     <g id="line2d_43">
      <g>
       <use xlink:href="#m845525bb12" x="618.048246" y="77.890727" style="stroke: #000000; stroke-width: 0.8"/>
      </g>
     </g>
     <g id="text_46">
      <text style="font: 10px 'inter', sans-serif; text-anchor: end" x="611.048246" y="81.528227" transform="rotate(-0 611.048246 81.528227)">0</text>
     </g>
    </g>
    <g id="ytick_19">
     <g id="line2d_44">
      <g>
       <use xlink:href="#m845525bb12" x="618.048246" y="53.247017" style="stroke: #000000; stroke-width: 0.8"/>
      </g>
     </g>
     <g id="text_47">
      <text style="font: 10px 'inter', sans-serif; text-anchor: end" x="611.048246" y="56.884517" transform="rotate(-0 611.048246 56.884517)">1</text>
     </g>
    </g>
    <g id="ytick_20">
     <g id="line2d_45">
      <g>
       <use xlink:href="#m845525bb12" x="618.048246" y="28.603308" style="stroke: #000000; stroke-width: 0.8"/>
      </g>
     </g>
     <g id="text_48">
      <text style="font: 10px 'inter', sans-serif; text-anchor: end" x="611.048246" y="32.240808" transform="rotate(-0 611.048246 32.240808)">2</text>
     </g>
    </g>
    <g id="text_49">
     <text style="font: italic 10px 'inter', sans-serif; text-anchor: middle" x="592.293559" y="76.5" transform="rotate(-90 592.293559 76.5)">R50H05&gt;Chr</text>
    </g>
   </g>
   <g id="line2d_46">
    <path d="M 663.494222 101.966372 
L 664.343673 101.259157 
L 665.193124 100.551943 
L 666.042575 99.844729 
L 666.892026 99.137515 
L 667.741477 98.430301 
L 668.590928 97.723087 
L 669.440379 97.015872 
L 670.28983 96.308658 
L 671.139281 95.601444 
L 671.988732 94.89423 
L 672.838183 94.187016 
L 673.687634 93.479802 
L 674.537085 92.772587 
L 675.386536 92.065373 
L 676.235987 91.358159 
L 677.085438 90.650945 
L 677.934889 89.943731 
L 678.78434 89.236517 
L 679.633791 88.529303 
L 680.483242 87.822088 
L 681.332693 87.114874 
L 682.182144 86.40766 
L 683.031595 85.700446 
L 683.881047 84.993232 
L 684.730498 84.286018 
L 685.579949 83.578803 
L 686.4294 82.871589 
L 687.278851 82.164375 
L 688.128302 81.457161 
L 688.977753 80.749947 
L 689.827204 80.042733 
L 690.676655 79.335519 
L 691.526106 78.628304 
L 692.375557 77.92109 
L 693.225008 77.213876 
L 694.074459 76.506662 
L 694.92391 75.799448 
L 695.773361 75.092234 
L 696.622812 74.385019 
L 697.472263 73.677805 
L 698.321714 72.970591 
L 699.171165 72.263377 
L 700.020616 71.556163 
L 700.870067 70.848949 
L 701.719518 70.141735 
L 702.568969 69.43452 
L 703.41842 68.727306 
L 704.267871 68.020092 
L 705.117322 67.312878 
L 705.966773 66.605664 
L 706.816224 65.89845 
L 707.665675 65.191235 
L 708.515126 64.484021 
L 709.364577 63.776807 
L 710.214028 63.069593 
L 711.063479 62.362379 
L 711.912931 61.655165 
L 712.762382 60.947951 
L 713.611833 60.240736 
L 714.461284 59.533522 
L 715.310735 58.826308 
L 716.160186 58.119094 
L 717.009637 57.41188 
L 717.859088 56.704666 
L 718.708539 55.997451 
L 719.55799 55.290237 
L 720.407441 54.583023 
L 721.256892 53.875809 
L 722.106343 53.168595 
L 722.955794 52.461381 
L 723.805245 51.754166 
L 724.654696 51.046952 
L 725.504147 50.339738 
L 726.353598 49.632524 
L 727.203049 48.92531 
L 728.0525 48.218096 
L 728.901951 47.510882 
L 729.751402 46.803667 
L 730.600853 46.096453 
L 731.450304 45.389239 
L 732.299755 44.682025 
L 733.149206 43.974811 
L 733.998657 43.267597 
L 734.848108 42.560382 
L 735.697559 41.853168 
L 736.54701 41.145954 
L 737.396461 40.43874 
L 738.245912 39.731526 
L 739.095363 39.024312 
L 739.944814 38.317098 
L 740.794266 37.609883 
L 741.643717 36.902669 
L 742.493168 36.195455 
L 743.342619 35.488241 
L 744.19207 34.781027 
L 745.041521 34.073813 
L 745.890972 33.366598 
L 746.740423 32.659384 
L 747.589874 31.95217 
" clip-path="url(#p38ea245202)" style="fill: none; stroke: #1f77b4; stroke-width: 2.25; stroke-linecap: square"/>
   </g>
   <g id="patch_20">
    <path d="M 618.048246 145.8 
L 618.048246 7.2 
" style="fill: none; stroke: #000000; stroke-width: 0.8; stroke-linejoin: miter; stroke-linecap: square"/>
   </g>
   <g id="patch_21">
    <path d="M 766.089062 145.8 
L 766.089062 7.2 
" style="fill: none; stroke: #000000; stroke-width: 0.8; stroke-linejoin: miter; stroke-linecap: square"/>
   </g>
   <g id="patch_22">
    <path d="M 618.048246 145.8 
L 766.089062 145.8 
" style="fill: none; stroke: #000000; stroke-width: 0.8; stroke-linejoin: miter; stroke-linecap: square"/>
   </g>
   <g id="patch_23">
    <path d="M 618.048246 7.2 
L 766.089062 7.2 
" style="fill: none; stroke: #000000; stroke-width: 0.8; stroke-linejoin: miter; stroke-linecap: square"/>
   </g>
   <g id="text_50">
    <!-- $r^{2} = $0.66 -->
    <g style="fill: #1f77b4" transform="translate(705.52691 114.856291)">
     <text>
      <tspan style="font: oblique 10px 'DejaVu Sans'" x="0" y="-0.9765625">r</tspan>
      <tspan style="font: 7px 'DejaVu Sans'" x="4.575443" y="-4.8046875">2</tspan>
      <tspan style="font: 10px 'DejaVu Sans'" x="11.250736" y="-0.9765625">=</tspan>
      <tspan style="font: 500 10px 'Inter'" x="21.577884 28.032962 31.065189 37.364017" y="-0.9765625">0.66</tspan>
     </text>
    </g>
   </g>
  </g>
 </g>
 <defs>
  <clipPath id="p345c272a82">
   <rect x="40.689063" y="7.2" width="148.040816" height="138.6"/>
  </clipPath>
  <clipPath id="pfa6f05d9f9">
   <rect x="233.142124" y="7.2" width="148.040816" height="138.6"/>
  </clipPath>
  <clipPath id="p56348e6dc8">
   <rect x="425.595185" y="7.2" width="148.040816" height="138.6"/>
  </clipPath>
  <clipPath id="p38ea245202">
   <rect x="618.048246" y="7.2" width="148.040816" height="138.6"/>
  </clipPath>
 </defs>
</svg>
