<?xml version="1.0" encoding="utf-8" standalone="no"?>
<!DOCTYPE svg PUBLIC "-//W3C//DTD SVG 1.1//EN"
  "http://www.w3.org/Graphics/SVG/1.1/DTD/svg11.dtd">
<svg xmlns:xlink="http://www.w3.org/1999/xlink" width="108pt" height="288pt" viewBox="0 0 108 288" xmlns="http://www.w3.org/2000/svg" version="1.1">
 <metadata>
  <rdf:RDF xmlns:dc="http://purl.org/dc/elements/1.1/" xmlns:cc="http://creativecommons.org/ns#" xmlns:rdf="http://www.w3.org/1999/02/22-rdf-syntax-ns#">
   <cc:Work>
    <dc:type rdf:resource="http://purl.org/dc/dcmitype/StillImage"/>
    <dc:date>2025-02-16T02:07:09.329677</dc:date>
    <dc:format>image/svg+xml</dc:format>
    <dc:creator>
     <cc:Agent>
      <dc:title>Matplotlib v3.6.3, https://matplotlib.org/</dc:title>
     </cc:Agent>
    </dc:creator>
   </cc:Work>
  </rdf:RDF>
 </metadata>
 <defs>
  <style type="text/css">*{stroke-linejoin: round; stroke-linecap: butt}</style>
 </defs>
 <g id="figure_1">
  <g id="patch_1">
   <path d="M 0 288 
L 108 288 
L 108 0 
L 0 0 
z
" style="fill: #ffffff"/>
  </g>
  <g id="axes_1">
   <g id="patch_2">
    <path d="M 23.9625 130.413547 
L 44.8875 130.413547 
L 44.8875 114.477881 
L 23.9625 114.477881 
z
" clip-path="url(#p5831ba07a9)" style="opacity: 0.15; stroke: #000000; stroke-linejoin: miter"/>
   </g>
   <g id="patch_3">
    <path d="M 65.8125 130.413547 
L 86.7375 130.413547 
L 86.7375 127.720818 
L 65.8125 127.720818 
z
" clip-path="url(#p5831ba07a9)" style="opacity: 0.15; stroke: #000000; stroke-linejoin: miter"/>
   </g>
   <g id="PathCollection_1">
    <defs>
     <path id="C0_0_4162e91c8c" d="M 0 0.632456 
C 0.167729 0.632456 0.328611 0.565816 0.447214 0.447214 
C 0.565816 0.328611 0.632456 0.167729 0.632456 -0 
C 0.632456 -0.167729 0.565816 -0.328611 0.447214 -0.447214 
C 0.328611 -0.565816 0.167729 -0.632456 0 -0.632456 
C -0.167729 -0.632456 -0.328611 -0.565816 -0.447214 -0.447214 
C -0.565816 -0.328611 -0.632456 -0.167729 -0.632456 0 
C -0.632456 0.167729 -0.565816 0.328611 -0.447214 0.447214 
C -0.328611 0.565816 -0.167729 0.632456 0 0.632456 
z
"/>
    </defs>
    <g clip-path="url(#p5831ba07a9)">
     <use xlink:href="#C0_0_4162e91c8c" x="34.425" y="130.413547" style="fill: #808080; stroke: #808080"/>
    </g>
    <g clip-path="url(#p5831ba07a9)">
     <use xlink:href="#C0_0_4162e91c8c" x="36.107678" y="130.413547" style="fill: #808080; stroke: #808080"/>
    </g>
    <g clip-path="url(#p5831ba07a9)">
     <use xlink:href="#C0_0_4162e91c8c" x="37.790356" y="130.413547" style="fill: #808080; stroke: #808080"/>
    </g>
    <g clip-path="url(#p5831ba07a9)">
     <use xlink:href="#C0_0_4162e91c8c" x="39.473034" y="130.413547" style="stroke: #000000"/>
    </g>
    <g clip-path="url(#p5831ba07a9)">
     <use xlink:href="#C0_0_4162e91c8c" x="41.155712" y="130.413547" style="stroke: #000000"/>
    </g>
    <g clip-path="url(#p5831ba07a9)">
     <use xlink:href="#C0_0_4162e91c8c" x="42.83839" y="130.413547" style="fill: #808080; stroke: #808080"/>
    </g>
    <g clip-path="url(#p5831ba07a9)">
     <use xlink:href="#C0_0_4162e91c8c" x="44.521068" y="130.413547" style="stroke: #000000"/>
    </g>
    <g clip-path="url(#p5831ba07a9)">
     <use xlink:href="#C0_0_4162e91c8c" x="46.203746" y="130.413547" style="fill: #808080; stroke: #808080"/>
    </g>
    <g clip-path="url(#p5831ba07a9)">
     <use xlink:href="#C0_0_4162e91c8c" x="47.886424" y="130.413547" style="fill: #808080; stroke: #808080"/>
    </g>
    <g clip-path="url(#p5831ba07a9)">
     <use xlink:href="#C0_0_4162e91c8c" x="49.569102" y="130.413547" style="fill: #808080; stroke: #808080"/>
    </g>
    <g clip-path="url(#p5831ba07a9)">
     <use xlink:href="#C0_0_4162e91c8c" x="51.25178" y="130.413547" style="fill: #808080; stroke: #808080"/>
    </g>
    <g clip-path="url(#p5831ba07a9)">
     <use xlink:href="#C0_0_4162e91c8c" x="52.934458" y="130.413547" style="stroke: #000000"/>
    </g>
    <g clip-path="url(#p5831ba07a9)">
     <use xlink:href="#C0_0_4162e91c8c" x="34.425" y="125.772431" style="stroke: #000000"/>
    </g>
    <g clip-path="url(#p5831ba07a9)">
     <use xlink:href="#C0_0_4162e91c8c" x="34.425" y="123.611215" style="fill: #808080; stroke: #808080"/>
    </g>
    <g clip-path="url(#p5831ba07a9)">
     <use xlink:href="#C0_0_4162e91c8c" x="34.425" y="120.480413" style="stroke: #000000"/>
    </g>
    <g clip-path="url(#p5831ba07a9)">
     <use xlink:href="#C0_0_4162e91c8c" x="35.96271" y="119.797146" style="stroke: #000000"/>
    </g>
    <g clip-path="url(#p5831ba07a9)">
     <use xlink:href="#C0_0_4162e91c8c" x="34.425" y="117.405318" style="stroke: #000000"/>
    </g>
    <g clip-path="url(#p5831ba07a9)">
     <use xlink:href="#C0_0_4162e91c8c" x="35.643348" y="116.244701" style="stroke: #000000"/>
    </g>
    <g clip-path="url(#p5831ba07a9)">
     <use xlink:href="#C0_0_4162e91c8c" x="37.137423" y="115.470656" style="stroke: #000000"/>
    </g>
    <g clip-path="url(#p5831ba07a9)">
     <use xlink:href="#C0_0_4162e91c8c" x="34.425" y="114.07266" style="stroke: #000000"/>
    </g>
    <g clip-path="url(#p5831ba07a9)">
     <use xlink:href="#C0_0_4162e91c8c" x="35.754881" y="113.041727" style="stroke: #000000"/>
    </g>
    <g clip-path="url(#p5831ba07a9)">
     <use xlink:href="#C0_0_4162e91c8c" x="37.430493" y="112.887684" style="stroke: #000000"/>
    </g>
    <g clip-path="url(#p5831ba07a9)">
     <use xlink:href="#C0_0_4162e91c8c" x="34.425" y="111.902761" style="fill: #808080; stroke: #808080"/>
    </g>
    <g clip-path="url(#p5831ba07a9)">
     <use xlink:href="#C0_0_4162e91c8c" x="38.417015" y="111.524534" style="stroke: #000000"/>
    </g>
    <g clip-path="url(#p5831ba07a9)">
     <use xlink:href="#C0_0_4162e91c8c" x="35.770625" y="110.892465" style="fill: #808080; stroke: #808080"/>
    </g>
    <g clip-path="url(#p5831ba07a9)">
     <use xlink:href="#C0_0_4162e91c8c" x="37.292693" y="110.175029" style="fill: #808080; stroke: #808080"/>
    </g>
    <g clip-path="url(#p5831ba07a9)">
     <use xlink:href="#C0_0_4162e91c8c" x="38.953019" y="109.901677" style="stroke: #000000"/>
    </g>
    <g clip-path="url(#p5831ba07a9)">
     <use xlink:href="#C0_0_4162e91c8c" x="34.425" y="109.529991" style="stroke: #000000"/>
    </g>
    <g clip-path="url(#p5831ba07a9)">
     <use xlink:href="#C0_0_4162e91c8c" x="35.842811" y="108.62378" style="stroke: #000000"/>
    </g>
    <g clip-path="url(#p5831ba07a9)">
     <use xlink:href="#C0_0_4162e91c8c" x="37.517348" y="108.458461" style="stroke: #000000"/>
    </g>
    <g clip-path="url(#p5831ba07a9)">
     <use xlink:href="#C0_0_4162e91c8c" x="34.425" y="107.462599" style="fill: #808080; stroke: #808080"/>
    </g>
    <g clip-path="url(#p5831ba07a9)">
     <use xlink:href="#C0_0_4162e91c8c" x="35.694185" y="106.357802" style="stroke: #000000"/>
    </g>
    <g clip-path="url(#p5831ba07a9)">
     <use xlink:href="#C0_0_4162e91c8c" x="37.376685" y="106.333332" style="fill: #808080; stroke: #808080"/>
    </g>
    <g clip-path="url(#p5831ba07a9)">
     <use xlink:href="#C0_0_4162e91c8c" x="39.024047" y="105.990401" style="stroke: #000000"/>
    </g>
    <g clip-path="url(#p5831ba07a9)">
     <use xlink:href="#C0_0_4162e91c8c" x="34.425" y="103.90305" style="stroke: #000000"/>
    </g>
    <g clip-path="url(#p5831ba07a9)">
     <use xlink:href="#C0_0_4162e91c8c" x="36.089456" y="103.656086" style="stroke: #000000"/>
    </g>
    <g clip-path="url(#p5831ba07a9)">
     <use xlink:href="#C0_0_4162e91c8c" x="37.772126" y="103.651011" style="stroke: #000000"/>
    </g>
    <g clip-path="url(#p5831ba07a9)">
     <use xlink:href="#C0_0_4162e91c8c" x="39.44192" y="103.443178" style="fill: #808080; stroke: #808080"/>
    </g>
    <g clip-path="url(#p5831ba07a9)">
     <use xlink:href="#C0_0_4162e91c8c" x="41.121616" y="103.343039" style="fill: #808080; stroke: #808080"/>
    </g>
    <g clip-path="url(#p5831ba07a9)">
     <use xlink:href="#C0_0_4162e91c8c" x="42.784219" y="103.083896" style="stroke: #000000"/>
    </g>
    <g clip-path="url(#p5831ba07a9)">
     <use xlink:href="#C0_0_4162e91c8c" x="44.466399" y="103.042961" style="stroke: #000000"/>
    </g>
    <g clip-path="url(#p5831ba07a9)">
     <use xlink:href="#C0_0_4162e91c8c" x="46.128347" y="102.779646" style="stroke: #000000"/>
    </g>
    <g clip-path="url(#p5831ba07a9)">
     <use xlink:href="#C0_0_4162e91c8c" x="47.81101" y="102.772654" style="fill: #808080; stroke: #808080"/>
    </g>
    <g clip-path="url(#p5831ba07a9)">
     <use xlink:href="#C0_0_4162e91c8c" x="34.425" y="101.802729" style="fill: #808080; stroke: #808080"/>
    </g>
    <g clip-path="url(#p5831ba07a9)">
     <use xlink:href="#C0_0_4162e91c8c" x="35.830002" y="100.876784" style="stroke: #000000"/>
    </g>
    <g clip-path="url(#p5831ba07a9)">
     <use xlink:href="#C0_0_4162e91c8c" x="37.497466" y="100.651021" style="stroke: #000000"/>
    </g>
    <g clip-path="url(#p5831ba07a9)">
     <use xlink:href="#C0_0_4162e91c8c" x="34.425" y="98.204725" style="fill: #808080; stroke: #808080"/>
    </g>
    <g clip-path="url(#p5831ba07a9)">
     <use xlink:href="#C0_0_4162e91c8c" x="36.095999" y="98.006816" style="fill: #808080; stroke: #808080"/>
    </g>
    <g clip-path="url(#p5831ba07a9)">
     <use xlink:href="#C0_0_4162e91c8c" x="37.162991" y="96.705689" style="fill: #808080; stroke: #808080"/>
    </g>
    <g clip-path="url(#p5831ba07a9)">
     <use xlink:href="#C0_0_4162e91c8c" x="34.425" y="93.527298" style="fill: #808080; stroke: #808080"/>
    </g>
    <g clip-path="url(#p5831ba07a9)">
     <use xlink:href="#C0_0_4162e91c8c" x="34.425" y="89.961546" style="fill: #808080; stroke: #808080"/>
    </g>
    <g clip-path="url(#p5831ba07a9)">
     <use xlink:href="#C0_0_4162e91c8c" x="36.094794" y="89.753713" style="stroke: #000000"/>
    </g>
    <g clip-path="url(#p5831ba07a9)">
     <use xlink:href="#C0_0_4162e91c8c" x="37.749048" y="89.445741" style="fill: #808080; stroke: #808080"/>
    </g>
    <g clip-path="url(#p5831ba07a9)">
     <use xlink:href="#C0_0_4162e91c8c" x="34.425" y="86.563819" style="fill: #808080; stroke: #808080"/>
    </g>
    <g clip-path="url(#p5831ba07a9)">
     <use xlink:href="#C0_0_4162e91c8c" x="34.425" y="83.491206" style="fill: #808080; stroke: #808080"/>
    </g>
    <g clip-path="url(#p5831ba07a9)">
     <use xlink:href="#C0_0_4162e91c8c" x="34.425" y="81.094867" style="fill: #808080; stroke: #808080"/>
    </g>
    <g clip-path="url(#p5831ba07a9)">
     <use xlink:href="#C0_0_4162e91c8c" x="35.649971" y="79.941242" style="fill: #808080; stroke: #808080"/>
    </g>
    <g clip-path="url(#p5831ba07a9)">
     <use xlink:href="#C0_0_4162e91c8c" x="34.425" y="77.926851" style="fill: #808080; stroke: #808080"/>
    </g>
    <g clip-path="url(#p5831ba07a9)">
     <use xlink:href="#C0_0_4162e91c8c" x="34.425" y="72.06208" style="fill: #808080; stroke: #808080"/>
    </g>
   </g>
   <g id="PathCollection_2">
    <defs>
     <path id="C1_0_43cd77021b" d="M 0 0.632456 
C 0.167729 0.632456 0.328611 0.565816 0.447214 0.447214 
C 0.565816 0.328611 0.632456 0.167729 0.632456 -0 
C 0.632456 -0.167729 0.565816 -0.328611 0.447214 -0.447214 
C 0.328611 -0.565816 0.167729 -0.632456 0 -0.632456 
C -0.167729 -0.632456 -0.328611 -0.565816 -0.447214 -0.447214 
C -0.565816 -0.328611 -0.632456 -0.167729 -0.632456 0 
C -0.632456 0.167729 -0.565816 0.328611 -0.447214 0.447214 
C -0.328611 0.565816 -0.167729 0.632456 0 0.632456 
z
"/>
    </defs>
    <g clip-path="url(#p5831ba07a9)">
     <use xlink:href="#C1_0_43cd77021b" x="76.275" y="130.413547" style="fill: #ff4500; stroke: #ff4500"/>
    </g>
    <g clip-path="url(#p5831ba07a9)">
     <use xlink:href="#C1_0_43cd77021b" x="77.957678" y="130.413547" style="fill: #ff4500; stroke: #ff4500"/>
    </g>
    <g clip-path="url(#p5831ba07a9)">
     <use xlink:href="#C1_0_43cd77021b" x="79.640356" y="130.413547" style="fill: #ff4500; stroke: #ff4500"/>
    </g>
    <g clip-path="url(#p5831ba07a9)">
     <use xlink:href="#C1_0_43cd77021b" x="81.323034" y="130.413547" style="fill: #ff4500; stroke: #ff4500"/>
    </g>
    <g clip-path="url(#p5831ba07a9)">
     <use xlink:href="#C1_0_43cd77021b" x="83.005712" y="130.413547" style="fill: #ff4500; stroke: #ff4500"/>
    </g>
    <g clip-path="url(#p5831ba07a9)">
     <use xlink:href="#C1_0_43cd77021b" x="84.68839" y="130.413547" style="fill: #ff4500; stroke: #ff4500"/>
    </g>
    <g clip-path="url(#p5831ba07a9)">
     <use xlink:href="#C1_0_43cd77021b" x="86.371068" y="130.413547" style="fill: #ff4500; stroke: #ff4500"/>
    </g>
    <g clip-path="url(#p5831ba07a9)">
     <use xlink:href="#C1_0_43cd77021b" x="88.053746" y="130.413547" style="fill: #ff4500; stroke: #ff4500"/>
    </g>
    <g clip-path="url(#p5831ba07a9)">
     <use xlink:href="#C1_0_43cd77021b" x="89.736424" y="130.413547" style="fill: #ff4500; stroke: #ff4500"/>
    </g>
    <g clip-path="url(#p5831ba07a9)">
     <use xlink:href="#C1_0_43cd77021b" x="91.419102" y="130.413547" style="fill: #ff4500; stroke: #ff4500"/>
    </g>
    <g clip-path="url(#p5831ba07a9)">
     <use xlink:href="#C1_0_43cd77021b" x="93.10178" y="130.413547" style="fill: #ff4500; stroke: #ff4500"/>
    </g>
    <g clip-path="url(#p5831ba07a9)">
     <use xlink:href="#C1_0_43cd77021b" x="94.784458" y="130.413547" style="fill: #ff4500; stroke: #ff4500"/>
    </g>
    <g clip-path="url(#p5831ba07a9)">
     <use xlink:href="#C1_0_43cd77021b" x="76.275" y="128.141818" style="fill: #ff4500; stroke: #ff4500"/>
    </g>
    <g clip-path="url(#p5831ba07a9)">
     <use xlink:href="#C1_0_43cd77021b" x="77.823735" y="127.483924" style="fill: #ff4500; stroke: #ff4500"/>
    </g>
    <g clip-path="url(#p5831ba07a9)">
     <use xlink:href="#C1_0_43cd77021b" x="79.488822" y="127.241246" style="fill: #ff4500; stroke: #ff4500"/>
    </g>
    <g clip-path="url(#p5831ba07a9)">
     <use xlink:href="#C1_0_43cd77021b" x="76.275" y="125.197986" style="fill: #ff4500; stroke: #ff4500"/>
    </g>
    <g clip-path="url(#p5831ba07a9)">
     <use xlink:href="#C1_0_43cd77021b" x="77.643359" y="124.218701" style="fill: #ff4500; stroke: #ff4500"/>
    </g>
    <g clip-path="url(#p5831ba07a9)">
     <use xlink:href="#C1_0_43cd77021b" x="76.275" y="118.486998" style="fill: #ff4500; stroke: #ff4500"/>
    </g>
    <g clip-path="url(#p5831ba07a9)">
     <use xlink:href="#C1_0_43cd77021b" x="77.834544" y="117.855154" style="fill: #ff4500; stroke: #ff4500"/>
    </g>
    <g clip-path="url(#p5831ba07a9)">
     <use xlink:href="#C1_0_43cd77021b" x="76.275" y="102.528059" style="fill: #ff4500; stroke: #ff4500"/>
    </g>
    <g clip-path="url(#p5831ba07a9)">
     <use xlink:href="#C1_0_43cd77021b" x="76.275" y="97.08369" style="fill: #ff4500; stroke: #ff4500"/>
    </g>
   </g>
   <g id="matplotlib.axis_1">
    <g id="xtick_1">
     <g id="line2d_1">
      <defs>
       <path id="m8b27ae0e90" d="M 0 0 
L 0 3.5 
" style="stroke: #000000; stroke-width: 0.8"/>
      </defs>
      <g>
       <use xlink:href="#m8b27ae0e90" x="34.425" y="130.977391" style="stroke: #000000; stroke-width: 0.8"/>
      </g>
     </g>
     <g id="text_1">
      <text style="font: 12px 'Helvetica', sans-serif; text-anchor: middle" x="34.425" y="146.585516" transform="rotate(-0 34.425 146.585516)">C</text>
     </g>
    </g>
    <g id="xtick_2">
     <g id="line2d_2">
      <g>
       <use xlink:href="#m8b27ae0e90" x="76.275" y="130.977391" style="stroke: #000000; stroke-width: 0.8"/>
      </g>
     </g>
     <g id="text_2">
      <text style="font: 12px 'Helvetica', sans-serif; text-anchor: middle" x="76.275" y="146.585516" transform="rotate(-0 76.275 146.585516)">T</text>
     </g>
    </g>
   </g>
   <g id="matplotlib.axis_2">
    <g id="ytick_1">
     <g id="line2d_3">
      <defs>
       <path id="me346c5a19c" d="M 0 0 
L -3.5 0 
" style="stroke: #000000; stroke-width: 0.8"/>
      </defs>
      <g>
       <use xlink:href="#me346c5a19c" x="13.5" y="130.413547" style="stroke: #000000; stroke-width: 0.8"/>
      </g>
     </g>
     <g id="text_3">
      <text style="font: 6px 'Helvetica', sans-serif; text-anchor: end" x="6.5" y="132.565578" transform="rotate(-0 6.5 132.565578)">0</text>
     </g>
    </g>
    <g id="ytick_2">
     <g id="line2d_4">
      <g>
       <use xlink:href="#me346c5a19c" x="13.5" y="107.859771" style="stroke: #000000; stroke-width: 0.8"/>
      </g>
     </g>
     <g id="text_4">
      <text style="font: 6px 'Helvetica', sans-serif; text-anchor: end" x="6.5" y="110.011802" transform="rotate(-0 6.5 110.011802)">200</text>
     </g>
    </g>
    <g id="ytick_3">
     <g id="line2d_5">
      <g>
       <use xlink:href="#me346c5a19c" x="13.5" y="85.305995" style="stroke: #000000; stroke-width: 0.8"/>
      </g>
     </g>
     <g id="text_5">
      <text style="font: 6px 'Helvetica', sans-serif; text-anchor: end" x="6.5" y="87.458027" transform="rotate(-0 6.5 87.458027)">400</text>
     </g>
    </g>
    <g id="ytick_4">
     <g id="line2d_6">
      <g>
       <use xlink:href="#me346c5a19c" x="13.5" y="62.75222" style="stroke: #000000; stroke-width: 0.8"/>
      </g>
     </g>
     <g id="text_6">
      <text style="font: 6px 'Helvetica', sans-serif; text-anchor: end" x="6.5" y="64.904251" transform="rotate(-0 6.5 64.904251)">600</text>
     </g>
    </g>
    <g id="ytick_5">
     <g id="line2d_7">
      <g>
       <use xlink:href="#me346c5a19c" x="13.5" y="40.198444" style="stroke: #000000; stroke-width: 0.8"/>
      </g>
     </g>
     <g id="text_7">
      <text style="font: 6px 'Helvetica', sans-serif; text-anchor: end" x="6.5" y="42.350475" transform="rotate(-0 6.5 42.350475)">800</text>
     </g>
    </g>
    <g id="text_8">
     <text style="font: 12px 'Helvetica', sans-serif; text-anchor: middle" x="-10.010937" y="82.768696" transform="rotate(-90 -10.010937 82.768696)">Total Volume (nL)</text>
    </g>
   </g>
   <g id="line2d_8">
    <path d="M 30.24 130.794202 
L 30.24 115.924142 
" clip-path="url(#p5831ba07a9)" style="fill: none; stroke: #000000; stroke-width: 2; stroke-linecap: square"/>
   </g>
   <g id="line2d_9">
    <path d="M 30.24 113.03162 
L 30.24 98.161559 
" clip-path="url(#p5831ba07a9)" style="fill: none; stroke: #000000; stroke-width: 2; stroke-linecap: square"/>
   </g>
   <g id="line2d_10">
    <path d="M 72.09 134.861682 
L 72.09 129.167079 
" clip-path="url(#p5831ba07a9)" style="fill: none; stroke: #000000; stroke-width: 2; stroke-linecap: square"/>
   </g>
   <g id="line2d_11">
    <path d="M 72.09 126.274557 
L 72.09 120.579953 
" clip-path="url(#p5831ba07a9)" style="fill: none; stroke: #000000; stroke-width: 2; stroke-linecap: square"/>
   </g>
   <g id="legend_1"/>
   <g id="LineCollection_1">
    <defs>
     <path id="m9a34c4ebc2" d="M 34.425 -157.022609 
L 76.275 -157.022609 
" style="stroke: #000000"/>
    </defs>
    <g>
     <use xlink:href="#m9a34c4ebc2" x="0" y="288" style="stroke: #000000"/>
    </g>
   </g>
   <g id="LineCollection_2">
    <defs>
     <path id="m30039b956e" d="M 13.5 -157.022609 
L 13.5 -253.44 
" style="stroke: #000000"/>
    </defs>
    <g>
     <use xlink:href="#m30039b956e" x="0" y="288" style="stroke: #000000"/>
    </g>
   </g>
  </g>
  <g id="axes_2">
   <g id="patch_4">
    <path d="M 65.8125 132.528369 
L 86.7375 132.528369 
L 86.7375 209.28479 
L 65.8125 209.28479 
z
" clip-path="url(#pa5671f0618)" style="opacity: 0.15; stroke: #000000; stroke-linejoin: miter"/>
   </g>
   <g id="PolyCollection_1">
    <defs>
     <path id="m37824e9093" d="M 76.309717 -36.062609 
L 76.27546 -36.062609 
L 76.27546 -36.947984 
L 76.27546 -37.83336 
L 76.27546 -38.718735 
L 76.27546 -39.604111 
L 76.27546 -40.489486 
L 76.27546 -41.374862 
L 76.27546 -42.260237 
L 76.27546 -43.145613 
L 76.27546 -44.030988 
L 76.27546 -44.916364 
L 76.27546 -45.801739 
L 76.27546 -46.687115 
L 76.27546 -47.57249 
L 76.27546 -48.457866 
L 76.27546 -49.343241 
L 76.27546 -50.228617 
L 76.27546 -51.113992 
L 76.27546 -51.999368 
L 76.27546 -52.884743 
L 76.27546 -53.770119 
L 76.27546 -54.655494 
L 76.27546 -55.54087 
L 76.27546 -56.426245 
L 76.27546 -57.311621 
L 76.27546 -58.196996 
L 76.27546 -59.082372 
L 76.27546 -59.967747 
L 76.27546 -60.853123 
L 76.27546 -61.738498 
L 76.27546 -62.623874 
L 76.27546 -63.509249 
L 76.27546 -64.394625 
L 76.27546 -65.28 
L 76.27546 -66.165375 
L 76.27546 -67.050751 
L 76.27546 -67.936126 
L 76.27546 -68.821502 
L 76.27546 -69.706877 
L 76.27546 -70.592253 
L 76.27546 -71.477628 
L 76.27546 -72.363004 
L 76.27546 -73.248379 
L 76.27546 -74.133755 
L 76.27546 -75.01913 
L 76.27546 -75.904506 
L 76.27546 -76.789881 
L 76.27546 -77.675257 
L 76.27546 -78.560632 
L 76.27546 -79.446008 
L 76.27546 -80.331383 
L 76.27546 -81.216759 
L 76.27546 -82.102134 
L 76.27546 -82.98751 
L 76.27546 -83.872885 
L 76.27546 -84.758261 
L 76.27546 -85.643636 
L 76.27546 -86.529012 
L 76.27546 -87.414387 
L 76.27546 -88.299763 
L 76.27546 -89.185138 
L 76.27546 -90.070514 
L 76.27546 -90.955889 
L 76.27546 -91.841265 
L 76.27546 -92.72664 
L 76.27546 -93.612016 
L 76.27546 -94.497391 
L 76.27546 -95.382767 
L 76.27546 -96.268142 
L 76.27546 -97.153518 
L 76.27546 -98.038893 
L 76.27546 -98.924269 
L 76.27546 -99.809644 
L 76.27546 -100.69502 
L 76.27546 -101.580395 
L 76.27546 -102.465771 
L 76.27546 -103.351146 
L 76.27546 -104.236522 
L 76.27546 -105.121897 
L 76.27546 -106.007273 
L 76.27546 -106.892648 
L 76.27546 -107.778024 
L 76.27546 -108.663399 
L 76.27546 -109.548775 
L 76.27546 -110.43415 
L 76.27546 -111.319526 
L 76.27546 -112.204901 
L 76.27546 -113.090277 
L 76.27546 -113.975652 
L 76.27546 -114.861028 
L 76.27546 -115.746403 
L 76.27546 -116.631779 
L 76.27546 -117.517154 
L 76.27546 -118.40253 
L 76.27546 -119.287905 
L 76.27546 -120.173281 
L 76.27546 -121.058656 
L 76.27546 -121.944032 
L 76.27546 -122.829407 
L 76.27546 -123.714783 
L 76.298946 -123.714783 
L 76.298946 -123.714783 
L 76.305378 -122.829407 
L 76.311522 -121.944032 
L 76.317038 -121.058656 
L 76.321721 -120.173281 
L 76.325787 -119.287905 
L 76.330272 -118.40253 
L 76.337331 -117.517154 
L 76.350189 -116.631779 
L 76.372309 -115.746403 
L 76.405649 -114.861028 
L 76.449076 -113.975652 
L 76.498889 -113.090277 
L 76.552058 -112.204901 
L 76.609612 -111.319526 
L 76.676636 -110.43415 
L 76.758573 -109.548775 
L 76.85761 -108.663399 
L 76.972782 -107.778024 
L 77.103094 -106.892648 
L 77.249868 -106.007273 
L 77.416042 -105.121897 
L 77.603751 -104.236522 
L 77.812838 -103.351146 
L 78.04137 -102.465771 
L 78.287613 -101.580395 
L 78.552615 -100.69502 
L 78.842356 -99.809644 
L 79.167559 -98.924269 
L 79.539316 -98.038893 
L 79.961276 -97.153518 
L 80.423412 -96.268142 
L 80.903427 -95.382767 
L 81.375996 -94.497391 
L 81.822082 -93.612016 
L 82.230836 -92.72664 
L 82.596122 -91.841265 
L 82.915777 -90.955889 
L 83.195972 -90.070514 
L 83.454291 -89.185138 
L 83.715435 -88.299763 
L 84.001149 -87.414387 
L 84.320855 -86.529012 
L 84.667982 -85.643636 
L 85.023459 -84.758261 
L 85.364438 -83.872885 
L 85.672831 -82.98751 
L 85.938289 -82.102134 
L 86.15656 -81.216759 
L 86.329417 -80.331383 
L 86.466794 -79.446008 
L 86.582576 -78.560632 
L 86.679855 -77.675257 
L 86.7375 -76.789881 
L 86.714766 -75.904506 
L 86.574352 -75.01913 
L 86.305958 -74.133755 
L 85.932922 -73.248379 
L 85.499872 -72.363004 
L 85.052135 -71.477628 
L 84.619577 -70.592253 
L 84.211711 -69.706877 
L 83.822771 -68.821502 
L 83.440292 -67.936126 
L 83.051376 -67.050751 
L 82.645447 -66.165375 
L 82.215911 -65.28 
L 81.762765 -64.394625 
L 81.294972 -63.509249 
L 80.829446 -62.623874 
L 80.385457 -61.738498 
L 79.977073 -60.853123 
L 79.608054 -59.967747 
L 79.272116 -59.082372 
L 78.95816 -58.196996 
L 78.657318 -57.311621 
L 78.367842 -56.426245 
L 78.095322 -55.54087 
L 77.848475 -54.655494 
L 77.633403 -53.770119 
L 77.450118 -52.884743 
L 77.293325 -51.999368 
L 77.156259 -51.113992 
L 77.034433 -50.228617 
L 76.926972 -49.343241 
L 76.835462 -48.457866 
L 76.761711 -47.57249 
L 76.705556 -46.687115 
L 76.663262 -45.801739 
L 76.627431 -44.916364 
L 76.589429 -44.030988 
L 76.54373 -43.145613 
L 76.491223 -42.260237 
L 76.438591 -41.374862 
L 76.393922 -40.489486 
L 76.361845 -39.604111 
L 76.341639 -38.718735 
L 76.328971 -37.83336 
L 76.319209 -36.947984 
L 76.309717 -36.062609 
z
"/>
    </defs>
    <g clip-path="url(#pa5671f0618)">
     <use xlink:href="#m37824e9093" x="0" y="288" style="fill: #808080; fill-opacity: 0.8"/>
    </g>
   </g>
   <g id="matplotlib.axis_3">
    <g id="xtick_3">
     <g id="line2d_12">
      <g>
       <use xlink:href="#m8b27ae0e90" x="34.425" y="256.32" style="stroke: #000000; stroke-width: 0.8"/>
      </g>
     </g>
    </g>
    <g id="xtick_4">
     <g id="line2d_13">
      <g>
       <use xlink:href="#m8b27ae0e90" x="76.275" y="256.32" style="stroke: #000000; stroke-width: 0.8"/>
      </g>
     </g>
     <g id="text_9">
      <text style="font: 12px 'Helvetica', sans-serif; text-anchor: middle" x="76.275" y="271.928125" transform="rotate(-0 76.275 271.928125)">T - C</text>
     </g>
    </g>
   </g>
   <g id="matplotlib.axis_4">
    <g id="ytick_6">
     <g id="line2d_14">
      <g>
       <use xlink:href="#me346c5a19c" x="13.5" y="250.178433" style="stroke: #000000; stroke-width: 0.8"/>
      </g>
     </g>
     <g id="text_10">
      <text style="font: 6px 'Helvetica', sans-serif; text-anchor: end" x="6.5" y="252.330464" transform="rotate(-0 6.5 252.330464)">−180</text>
     </g>
    </g>
    <g id="ytick_7">
     <g id="line2d_15">
      <g>
       <use xlink:href="#me346c5a19c" x="13.5" y="237.106204" style="stroke: #000000; stroke-width: 0.8"/>
      </g>
     </g>
     <g id="text_11">
      <text style="font: 6px 'Helvetica', sans-serif; text-anchor: end" x="6.5" y="239.258235" transform="rotate(-0 6.5 239.258235)">−160</text>
     </g>
    </g>
    <g id="ytick_8">
     <g id="line2d_16">
      <g>
       <use xlink:href="#me346c5a19c" x="13.5" y="224.033974" style="stroke: #000000; stroke-width: 0.8"/>
      </g>
     </g>
     <g id="text_12">
      <text style="font: 6px 'Helvetica', sans-serif; text-anchor: end" x="6.5" y="226.186005" transform="rotate(-0 6.5 226.186005)">−140</text>
     </g>
    </g>
    <g id="ytick_9">
     <g id="line2d_17">
      <g>
       <use xlink:href="#me346c5a19c" x="13.5" y="210.961745" style="stroke: #000000; stroke-width: 0.8"/>
      </g>
     </g>
     <g id="text_13">
      <text style="font: 6px 'Helvetica', sans-serif; text-anchor: end" x="6.5" y="213.113776" transform="rotate(-0 6.5 213.113776)">−120</text>
     </g>
    </g>
    <g id="ytick_10">
     <g id="line2d_18">
      <g>
       <use xlink:href="#me346c5a19c" x="13.5" y="197.889515" style="stroke: #000000; stroke-width: 0.8"/>
      </g>
     </g>
     <g id="text_14">
      <text style="font: 6px 'Helvetica', sans-serif; text-anchor: end" x="6.5" y="200.041547" transform="rotate(-0 6.5 200.041547)">−100</text>
     </g>
    </g>
    <g id="ytick_11">
     <g id="line2d_19">
      <g>
       <use xlink:href="#me346c5a19c" x="13.5" y="184.817286" style="stroke: #000000; stroke-width: 0.8"/>
      </g>
     </g>
     <g id="text_15">
      <text style="font: 6px 'Helvetica', sans-serif; text-anchor: end" x="6.5" y="186.969317" transform="rotate(-0 6.5 186.969317)">−80</text>
     </g>
    </g>
    <g id="ytick_12">
     <g id="line2d_20">
      <g>
       <use xlink:href="#me346c5a19c" x="13.5" y="171.745057" style="stroke: #000000; stroke-width: 0.8"/>
      </g>
     </g>
     <g id="text_16">
      <text style="font: 6px 'Helvetica', sans-serif; text-anchor: end" x="6.5" y="173.897088" transform="rotate(-0 6.5 173.897088)">−60</text>
     </g>
    </g>
    <g id="text_17">
     <!-- $\Delta$ Total Volume (nL) -->
     <g transform="translate(-13.534063 261.571304) rotate(-90)">
      <text>
       <tspan style="font: 12px 'DejaVu Sans'" x="0" y="-0.25">Δ</tspan>
       <tspan style="font: 12px 'Helvetica'" x="8.208984 11.542969 18.873047 25.546875 28.880859 35.554688 38.220703 41.554688 49.558594 56.232422 58.898438 65.572266 75.568359 82.242188 85.576172 89.572266 96.246094 102.919922" y="-0.25"> Total Volume (nL)</tspan>
      </text>
     </g>
    </g>
   </g>
   <g id="line2d_21">
    <path d="M 76.275 209.28479 
" clip-path="url(#pa5671f0618)" style="fill: none; stroke: #000000; stroke-width: 1.5; stroke-linecap: square"/>
    <defs>
     <path id="md36df95ec8" d="M 0 2.5 
C 0.663008 2.5 1.29895 2.236584 1.767767 1.767767 
C 2.236584 1.29895 2.5 0.663008 2.5 0 
C 2.5 -0.663008 2.236584 -1.29895 1.767767 -1.767767 
C 1.29895 -2.236584 0.663008 -2.5 0 -2.5 
C -0.663008 -2.5 -1.29895 -2.236584 -1.767767 -1.767767 
C -2.236584 -1.29895 -2.5 -0.663008 -2.5 0 
C -2.5 0.663008 -2.236584 1.29895 -1.767767 1.767767 
C -1.29895 2.236584 -0.663008 2.5 0 2.5 
z
" style="stroke: #000000"/>
    </defs>
    <g clip-path="url(#pa5671f0618)">
     <use xlink:href="#md36df95ec8" x="76.275" y="209.28479" style="stroke: #000000"/>
    </g>
   </g>
   <g id="line2d_22">
    <path d="M 76.275 232.221275 
L 76.275 184.108943 
" clip-path="url(#pa5671f0618)" style="fill: none; stroke: #000000; stroke-width: 2; stroke-linecap: square"/>
   </g>
   <g id="LineCollection_3">
    <defs>
     <path id="m6c56631f9a" d="M 34.425 -31.68 
L 76.275 -31.68 
" style="stroke: #000000"/>
    </defs>
    <g>
     <use xlink:href="#m6c56631f9a" x="0" y="288" style="stroke: #000000"/>
    </g>
   </g>
   <g id="LineCollection_4">
    <defs>
     <path id="m35452c12ab" d="M 13.5 -31.68 
L 13.5 -128.097391 
" style="stroke: #000000"/>
    </defs>
    <g>
     <use xlink:href="#m35452c12ab" x="0" y="288" style="stroke: #000000"/>
    </g>
   </g>
  </g>
  <g id="text_18">
   <text style="fill: #4682b4; font: italic 500 12px 'inter'; text-anchor: middle" x="54" y="17.758125" transform="rotate(-0 54 17.758125)">Trhn-NOT-R50H05&gt;Chr</text>
  </g>
 </g>
 <defs>
  <clipPath id="p5831ba07a9">
   <rect x="13.5" y="34.56" width="83.7" height="96.417391"/>
  </clipPath>
  <clipPath id="pa5671f0618">
   <rect x="13.5" y="159.902609" width="83.7" height="96.417391"/>
  </clipPath>
 </defs>
</svg>
