<?xml version="1.0" encoding="utf-8" standalone="no"?>
<!DOCTYPE svg PUBLIC "-//W3C//DTD SVG 1.1//EN"
  "http://www.w3.org/Graphics/SVG/1.1/DTD/svg11.dtd">
<svg xmlns:xlink="http://www.w3.org/1999/xlink" width="144pt" height="288pt" viewBox="0 0 144 288" xmlns="http://www.w3.org/2000/svg" version="1.1">
 <metadata>
  <rdf:RDF xmlns:dc="http://purl.org/dc/elements/1.1/" xmlns:cc="http://creativecommons.org/ns#" xmlns:rdf="http://www.w3.org/1999/02/22-rdf-syntax-ns#">
   <cc:Work>
    <dc:type rdf:resource="http://purl.org/dc/dcmitype/StillImage"/>
    <dc:date>2025-02-16T02:07:40.580678</dc:date>
    <dc:format>image/svg+xml</dc:format>
    <dc:creator>
     <cc:Agent>
      <dc:title>Matplotlib v3.6.3, https://matplotlib.org/</dc:title>
     </cc:Agent>
    </dc:creator>
   </cc:Work>
  </rdf:RDF>
 </metadata>
 <defs>
  <style type="text/css">*{stroke-linejoin: round; stroke-linecap: butt}</style>
 </defs>
 <g id="figure_1">
  <g id="patch_1">
   <path d="M 0 288 
L 144 288 
L 144 0 
L 0 0 
z
" style="fill: #ffffff"/>
  </g>
  <g id="axes_1">
   <g id="patch_2">
    <path d="M 22.65 128.735126 
L 31.95 128.735126 
L 31.95 122.433288 
L 22.65 122.433288 
z
" clip-path="url(#pf54a617284)" style="opacity: 0.15; stroke: #000000; stroke-linejoin: miter"/>
   </g>
   <g id="patch_3">
    <path d="M 41.25 128.735126 
L 50.55 128.735126 
L 50.55 127.175759 
L 41.25 127.175759 
z
" clip-path="url(#pf54a617284)" style="opacity: 0.15; stroke: #000000; stroke-linejoin: miter"/>
   </g>
   <g id="patch_4">
    <path d="M 59.85 128.735126 
L 69.15 128.735126 
L 69.15 123.841014 
L 59.85 123.841014 
z
" clip-path="url(#pf54a617284)" style="opacity: 0.15; stroke: #000000; stroke-linejoin: miter"/>
   </g>
   <g id="patch_5">
    <path d="M 78.45 128.735126 
L 87.75 128.735126 
L 87.75 128.519304 
L 78.45 128.519304 
z
" clip-path="url(#pf54a617284)" style="opacity: 0.15; stroke: #000000; stroke-linejoin: miter"/>
   </g>
   <g id="PathCollection_1">
    <defs>
     <path id="C0_0_e9c59596ae" d="M 0 0.632456 
C 0.167729 0.632456 0.328611 0.565816 0.447214 0.447214 
C 0.565816 0.328611 0.632456 0.167729 0.632456 -0 
C 0.632456 -0.167729 0.565816 -0.328611 0.447214 -0.447214 
C 0.328611 -0.565816 0.167729 -0.632456 0 -0.632456 
C -0.167729 -0.632456 -0.328611 -0.565816 -0.447214 -0.447214 
C -0.565816 -0.328611 -0.632456 -0.167729 -0.632456 0 
C -0.632456 0.167729 -0.565816 0.328611 -0.447214 0.447214 
C -0.328611 0.565816 -0.167729 0.632456 0 0.632456 
z
"/>
    </defs>
    <g clip-path="url(#pf54a617284)">
     <use xlink:href="#C0_0_e9c59596ae" x="27.3" y="127.777231" style="fill: #808080; stroke: #808080"/>
    </g>
    <g clip-path="url(#pf54a617284)">
     <use xlink:href="#C0_0_e9c59596ae" x="28.884004" y="127.246048" style="fill: #808080; stroke: #808080"/>
    </g>
    <g clip-path="url(#pf54a617284)">
     <use xlink:href="#C0_0_e9c59596ae" x="30.429876" y="126.503961" style="fill: #808080; stroke: #808080"/>
    </g>
    <g clip-path="url(#pf54a617284)">
     <use xlink:href="#C0_0_e9c59596ae" x="32.045768" y="126.274677" style="fill: #808080; stroke: #808080"/>
    </g>
    <g clip-path="url(#pf54a617284)">
     <use xlink:href="#C0_0_e9c59596ae" x="33.664996" y="126.106485" style="stroke: #000000"/>
    </g>
    <g clip-path="url(#pf54a617284)">
     <use xlink:href="#C0_0_e9c59596ae" x="35.282861" y="125.910994" style="fill: #808080; stroke: #808080"/>
    </g>
    <g clip-path="url(#pf54a617284)">
     <use xlink:href="#C0_0_e9c59596ae" x="27.3" y="124.264333" style="fill: #808080; stroke: #808080"/>
    </g>
    <g clip-path="url(#pf54a617284)">
     <use xlink:href="#C0_0_e9c59596ae" x="28.783594" y="123.276813" style="stroke: #000000"/>
    </g>
    <g clip-path="url(#pf54a617284)">
     <use xlink:href="#C0_0_e9c59596ae" x="30.406693" y="123.269606" style="stroke: #000000"/>
    </g>
    <g clip-path="url(#pf54a617284)">
     <use xlink:href="#C0_0_e9c59596ae" x="32.005525" y="122.850123" style="fill: #808080; stroke: #808080"/>
    </g>
    <g clip-path="url(#pf54a617284)">
     <use xlink:href="#C0_0_e9c59596ae" x="33.614591" y="122.530587" style="stroke: #000000"/>
    </g>
    <g clip-path="url(#pf54a617284)">
     <use xlink:href="#C0_0_e9c59596ae" x="35.235312" y="122.398665" style="stroke: #000000"/>
    </g>
    <g clip-path="url(#pf54a617284)">
     <use xlink:href="#C0_0_e9c59596ae" x="27.3" y="119.862148" style="stroke: #000000"/>
    </g>
    <g clip-path="url(#pf54a617284)">
     <use xlink:href="#C0_0_e9c59596ae" x="27.3" y="114.166324" style="stroke: #000000"/>
    </g>
    <g clip-path="url(#pf54a617284)">
     <use xlink:href="#C0_0_e9c59596ae" x="27.3" y="104.464313" style="stroke: #000000"/>
    </g>
   </g>
   <g id="PathCollection_2">
    <defs>
     <path id="C1_0_0d0d48945e" d="M 0 0.632456 
C 0.167729 0.632456 0.328611 0.565816 0.447214 0.447214 
C 0.565816 0.328611 0.632456 0.167729 0.632456 -0 
C 0.632456 -0.167729 0.565816 -0.328611 0.447214 -0.447214 
C 0.328611 -0.565816 0.167729 -0.632456 0 -0.632456 
C -0.167729 -0.632456 -0.328611 -0.565816 -0.447214 -0.447214 
C -0.565816 -0.328611 -0.632456 -0.167729 -0.632456 0 
C -0.632456 0.167729 -0.565816 0.328611 -0.447214 0.447214 
C -0.328611 0.565816 -0.167729 0.632456 0 0.632456 
z
"/>
    </defs>
    <g clip-path="url(#pf54a617284)">
     <use xlink:href="#C1_0_0d0d48945e" x="45.9" y="128.735126" style="fill: #2e8b57; stroke: #2e8b57"/>
    </g>
    <g clip-path="url(#pf54a617284)">
     <use xlink:href="#C1_0_0d0d48945e" x="47.523106" y="128.735126" style="fill: #2e8b57; stroke: #2e8b57"/>
    </g>
    <g clip-path="url(#pf54a617284)">
     <use xlink:href="#C1_0_0d0d48945e" x="49.146211" y="128.735126" style="fill: #2e8b57; stroke: #2e8b57"/>
    </g>
    <g clip-path="url(#pf54a617284)">
     <use xlink:href="#C1_0_0d0d48945e" x="50.769317" y="128.735126" style="fill: #2e8b57; stroke: #2e8b57"/>
    </g>
    <g clip-path="url(#pf54a617284)">
     <use xlink:href="#C1_0_0d0d48945e" x="52.392422" y="128.735126" style="fill: #2e8b57; stroke: #2e8b57"/>
    </g>
    <g clip-path="url(#pf54a617284)">
     <use xlink:href="#C1_0_0d0d48945e" x="54.015528" y="128.735126" style="fill: #2e8b57; stroke: #2e8b57"/>
    </g>
    <g clip-path="url(#pf54a617284)">
     <use xlink:href="#C1_0_0d0d48945e" x="45.9" y="106.903987" style="fill: #2e8b57; stroke: #2e8b57"/>
    </g>
   </g>
   <g id="PathCollection_3">
    <defs>
     <path id="C2_0_5eb0bdd6a9" d="M 0 0.632456 
C 0.167729 0.632456 0.328611 0.565816 0.447214 0.447214 
C 0.565816 0.328611 0.632456 0.167729 0.632456 -0 
C 0.632456 -0.167729 0.565816 -0.328611 0.447214 -0.447214 
C 0.328611 -0.565816 0.167729 -0.632456 0 -0.632456 
C -0.167729 -0.632456 -0.328611 -0.565816 -0.447214 -0.447214 
C -0.565816 -0.328611 -0.632456 -0.167729 -0.632456 0 
C -0.632456 0.167729 -0.565816 0.328611 -0.447214 0.447214 
C -0.328611 0.565816 -0.167729 0.632456 0 0.632456 
z
"/>
    </defs>
    <g clip-path="url(#pf54a617284)">
     <use xlink:href="#C2_0_5eb0bdd6a9" x="64.5" y="128.735126" style="fill: #808080; stroke: #808080"/>
    </g>
    <g clip-path="url(#pf54a617284)">
     <use xlink:href="#C2_0_5eb0bdd6a9" x="66.123106" y="128.735126" style="fill: #808080; stroke: #808080"/>
    </g>
    <g clip-path="url(#pf54a617284)">
     <use xlink:href="#C2_0_5eb0bdd6a9" x="67.746211" y="128.735126" style="fill: #808080; stroke: #808080"/>
    </g>
    <g clip-path="url(#pf54a617284)">
     <use xlink:href="#C2_0_5eb0bdd6a9" x="69.369317" y="128.735126" style="fill: #808080; stroke: #808080"/>
    </g>
    <g clip-path="url(#pf54a617284)">
     <use xlink:href="#C2_0_5eb0bdd6a9" x="70.992422" y="128.735126" style="stroke: #000000"/>
    </g>
    <g clip-path="url(#pf54a617284)">
     <use xlink:href="#C2_0_5eb0bdd6a9" x="72.615528" y="128.735126" style="stroke: #000000"/>
    </g>
    <g clip-path="url(#pf54a617284)">
     <use xlink:href="#C2_0_5eb0bdd6a9" x="64.93412" y="126.389167" style="fill: #808080; stroke: #808080"/>
    </g>
    <g clip-path="url(#pf54a617284)">
     <use xlink:href="#C2_0_5eb0bdd6a9" x="66.557226" y="126.387699" style="fill: #808080; stroke: #808080"/>
    </g>
    <g clip-path="url(#pf54a617284)">
     <use xlink:href="#C2_0_5eb0bdd6a9" x="68.176193" y="126.213956" style="stroke: #000000"/>
    </g>
    <g clip-path="url(#pf54a617284)">
     <use xlink:href="#C2_0_5eb0bdd6a9" x="69.798576" y="126.14134" style="fill: #808080; stroke: #808080"/>
    </g>
    <g clip-path="url(#pf54a617284)">
     <use xlink:href="#C2_0_5eb0bdd6a9" x="71.421516" y="126.106553" style="fill: #808080; stroke: #808080"/>
    </g>
    <g clip-path="url(#pf54a617284)">
     <use xlink:href="#C2_0_5eb0bdd6a9" x="64.5" y="123.721059" style="stroke: #000000"/>
    </g>
    <g clip-path="url(#pf54a617284)">
     <use xlink:href="#C2_0_5eb0bdd6a9" x="66.116651" y="123.504147" style="stroke: #000000"/>
    </g>
    <g clip-path="url(#pf54a617284)">
     <use xlink:href="#C2_0_5eb0bdd6a9" x="67.734045" y="123.300086" style="stroke: #000000"/>
    </g>
    <g clip-path="url(#pf54a617284)">
     <use xlink:href="#C2_0_5eb0bdd6a9" x="69.330981" y="122.864653" style="stroke: #000000"/>
    </g>
    <g clip-path="url(#pf54a617284)">
     <use xlink:href="#C2_0_5eb0bdd6a9" x="70.940148" y="122.546264" style="stroke: #000000"/>
    </g>
    <g clip-path="url(#pf54a617284)">
     <use xlink:href="#C2_0_5eb0bdd6a9" x="72.525232" y="122.022374" style="stroke: #000000"/>
    </g>
    <g clip-path="url(#pf54a617284)">
     <use xlink:href="#C2_0_5eb0bdd6a9" x="64.5" y="119.146125" style="stroke: #000000"/>
    </g>
    <g clip-path="url(#pf54a617284)">
     <use xlink:href="#C2_0_5eb0bdd6a9" x="64.5" y="116.259613" style="stroke: #000000"/>
    </g>
    <g clip-path="url(#pf54a617284)">
     <use xlink:href="#C2_0_5eb0bdd6a9" x="65.978521" y="115.255119" style="stroke: #000000"/>
    </g>
    <g clip-path="url(#pf54a617284)">
     <use xlink:href="#C2_0_5eb0bdd6a9" x="64.5" y="108.491959" style="stroke: #000000"/>
    </g>
    <g clip-path="url(#pf54a617284)">
     <use xlink:href="#C2_0_5eb0bdd6a9" x="64.5" y="101.711798" style="fill: #808080; stroke: #808080"/>
    </g>
   </g>
   <g id="PathCollection_4">
    <defs>
     <path id="C3_0_22d17c356d" d="M 0 0.632456 
C 0.167729 0.632456 0.328611 0.565816 0.447214 0.447214 
C 0.565816 0.328611 0.632456 0.167729 0.632456 -0 
C 0.632456 -0.167729 0.565816 -0.328611 0.447214 -0.447214 
C 0.328611 -0.565816 0.167729 -0.632456 0 -0.632456 
C -0.167729 -0.632456 -0.328611 -0.565816 -0.447214 -0.447214 
C -0.565816 -0.328611 -0.632456 -0.167729 -0.632456 0 
C -0.632456 0.167729 -0.565816 0.328611 -0.447214 0.447214 
C -0.328611 0.565816 -0.167729 0.632456 0 0.632456 
z
"/>
    </defs>
    <g clip-path="url(#pf54a617284)">
     <use xlink:href="#C3_0_22d17c356d" x="83.1" y="128.735126" style="fill: #2e8b57; stroke: #2e8b57"/>
    </g>
    <g clip-path="url(#pf54a617284)">
     <use xlink:href="#C3_0_22d17c356d" x="84.723106" y="128.735126" style="fill: #2e8b57; stroke: #2e8b57"/>
    </g>
    <g clip-path="url(#pf54a617284)">
     <use xlink:href="#C3_0_22d17c356d" x="86.346211" y="128.735126" style="fill: #2e8b57; stroke: #2e8b57"/>
    </g>
    <g clip-path="url(#pf54a617284)">
     <use xlink:href="#C3_0_22d17c356d" x="87.969317" y="128.735126" style="fill: #2e8b57; stroke: #2e8b57"/>
    </g>
    <g clip-path="url(#pf54a617284)">
     <use xlink:href="#C3_0_22d17c356d" x="89.592422" y="128.735126" style="fill: #2e8b57; stroke: #2e8b57"/>
    </g>
    <g clip-path="url(#pf54a617284)">
     <use xlink:href="#C3_0_22d17c356d" x="91.215528" y="128.735126" style="fill: #2e8b57; stroke: #2e8b57"/>
    </g>
    <g clip-path="url(#pf54a617284)">
     <use xlink:href="#C3_0_22d17c356d" x="83.1" y="124.436615" style="fill: #2e8b57; stroke: #2e8b57"/>
    </g>
   </g>
   <g id="matplotlib.axis_1">
    <g id="xtick_1">
     <g id="line2d_1">
      <defs>
       <path id="mc9f34a06d4" d="M 0 0 
L 0 3.5 
" style="stroke: #000000; stroke-width: 0.8"/>
      </defs>
      <g>
       <use xlink:href="#mc9f34a06d4" x="27.3" y="130.977391" style="stroke: #000000; stroke-width: 0.8"/>
      </g>
     </g>
     <g id="text_1">
      <text style="font: 12px 'Helvetica', sans-serif; text-anchor: middle" x="27.3" y="146.585516" transform="rotate(-0 27.3 146.585516)">C</text>
     </g>
    </g>
    <g id="xtick_2">
     <g id="line2d_2">
      <g>
       <use xlink:href="#mc9f34a06d4" x="45.9" y="130.977391" style="stroke: #000000; stroke-width: 0.8"/>
      </g>
     </g>
     <g id="text_2">
      <text style="font: 12px 'Helvetica', sans-serif; text-anchor: middle" x="45.9" y="146.585516" transform="rotate(-0 45.9 146.585516)">T</text>
     </g>
    </g>
    <g id="xtick_3">
     <g id="line2d_3">
      <g>
       <use xlink:href="#mc9f34a06d4" x="64.5" y="130.977391" style="stroke: #000000; stroke-width: 0.8"/>
      </g>
     </g>
     <g id="text_3">
      <text style="font: 12px 'Helvetica', sans-serif; text-anchor: middle" x="64.5" y="146.585516" transform="rotate(-0 64.5 146.585516)">C</text>
     </g>
    </g>
    <g id="xtick_4">
     <g id="line2d_4">
      <g>
       <use xlink:href="#mc9f34a06d4" x="83.1" y="130.977391" style="stroke: #000000; stroke-width: 0.8"/>
      </g>
     </g>
     <g id="text_4">
      <text style="font: 12px 'Helvetica', sans-serif; text-anchor: middle" x="83.1" y="146.585516" transform="rotate(-0 83.1 146.585516)">T</text>
     </g>
    </g>
   </g>
   <g id="matplotlib.axis_2">
    <g id="ytick_1">
     <g id="line2d_5">
      <defs>
       <path id="m1a699374a1" d="M 0 0 
L -3.5 0 
" style="stroke: #000000; stroke-width: 0.8"/>
      </defs>
      <g>
       <use xlink:href="#m1a699374a1" x="18" y="128.735126" style="stroke: #000000; stroke-width: 0.8"/>
      </g>
     </g>
     <g id="text_5">
      <text style="font: 6px 'Helvetica', sans-serif; text-anchor: end" x="11" y="130.887158" transform="rotate(-0 11 130.887158)">0</text>
     </g>
    </g>
    <g id="ytick_2">
     <g id="line2d_6">
      <g>
       <use xlink:href="#m1a699374a1" x="18" y="106.312477" style="stroke: #000000; stroke-width: 0.8"/>
      </g>
     </g>
     <g id="text_6">
      <text style="font: 6px 'Helvetica', sans-serif; text-anchor: end" x="11" y="108.464508" transform="rotate(-0 11 108.464508)">50</text>
     </g>
    </g>
    <g id="ytick_3">
     <g id="line2d_7">
      <g>
       <use xlink:href="#m1a699374a1" x="18" y="83.889828" style="stroke: #000000; stroke-width: 0.8"/>
      </g>
     </g>
     <g id="text_7">
      <text style="font: 6px 'Helvetica', sans-serif; text-anchor: end" x="11" y="86.041859" transform="rotate(-0 11 86.041859)">100</text>
     </g>
    </g>
    <g id="ytick_4">
     <g id="line2d_8">
      <g>
       <use xlink:href="#m1a699374a1" x="18" y="61.467179" style="stroke: #000000; stroke-width: 0.8"/>
      </g>
     </g>
     <g id="text_8">
      <text style="font: 6px 'Helvetica', sans-serif; text-anchor: end" x="11" y="63.61921" transform="rotate(-0 11 63.61921)">150</text>
     </g>
    </g>
    <g id="ytick_5">
     <g id="line2d_9">
      <g>
       <use xlink:href="#m1a699374a1" x="18" y="39.04453" style="stroke: #000000; stroke-width: 0.8"/>
      </g>
     </g>
     <g id="text_9">
      <text style="font: 6px 'Helvetica', sans-serif; text-anchor: end" x="11" y="41.196561" transform="rotate(-0 11 41.196561)">200</text>
     </g>
    </g>
    <g id="text_10">
     <text style="font: 12px 'Helvetica', sans-serif; text-anchor: middle" x="-5.510937" y="82.768696" transform="rotate(-90 -5.510937 82.768696)">Meal Size (nL)</text>
    </g>
   </g>
   <g id="line2d_10">
    <path d="M 25.44 128.273276 
L 25.44 123.879549 
" clip-path="url(#pf54a617284)" style="fill: none; stroke: #000000; stroke-width: 2; stroke-linecap: square"/>
   </g>
   <g id="line2d_11">
    <path d="M 25.44 120.987027 
L 25.44 116.5933 
" clip-path="url(#pf54a617284)" style="fill: none; stroke: #000000; stroke-width: 2; stroke-linecap: square"/>
   </g>
   <g id="line2d_12">
    <path d="M 44.04 133.010377 
L 44.04 128.62202 
" clip-path="url(#pf54a617284)" style="fill: none; stroke: #000000; stroke-width: 2; stroke-linecap: square"/>
   </g>
   <g id="line2d_13">
    <path d="M 44.04 125.729498 
L 44.04 121.341142 
" clip-path="url(#pf54a617284)" style="fill: none; stroke: #000000; stroke-width: 2; stroke-linecap: square"/>
   </g>
   <g id="line2d_14">
    <path d="M 62.64 129.89426 
L 62.64 125.287275 
" clip-path="url(#pf54a617284)" style="fill: none; stroke: #000000; stroke-width: 2; stroke-linecap: square"/>
   </g>
   <g id="line2d_15">
    <path d="M 62.64 122.394754 
L 62.64 117.787769 
" clip-path="url(#pf54a617284)" style="fill: none; stroke: #000000; stroke-width: 2; stroke-linecap: square"/>
   </g>
   <g id="line2d_16">
    <path d="M 81.24 129.384609 
L 81.24 129.965565 
" clip-path="url(#pf54a617284)" style="fill: none; stroke: #000000; stroke-width: 2; stroke-linecap: square"/>
   </g>
   <g id="line2d_17">
    <path d="M 81.24 127.073043 
L 81.24 127.653998 
" clip-path="url(#pf54a617284)" style="fill: none; stroke: #000000; stroke-width: 2; stroke-linecap: square"/>
   </g>
   <g id="legend_1"/>
   <g id="LineCollection_1">
    <defs>
     <path id="m7daf4e2955" d="M 27.3 -157.022609 
L 45.9 -157.022609 
" style="stroke: #000000"/>
    </defs>
    <g>
     <use xlink:href="#m7daf4e2955" x="0" y="288" style="stroke: #000000"/>
    </g>
   </g>
   <g id="LineCollection_2">
    <defs>
     <path id="m0815f90e30" d="M 64.5 -157.022609 
L 83.1 -157.022609 
" style="stroke: #000000"/>
    </defs>
    <g>
     <use xlink:href="#m0815f90e30" x="0" y="288" style="stroke: #000000"/>
    </g>
   </g>
   <g id="LineCollection_3">
    <defs>
     <path id="m5ae32a3716" d="M 18 -157.022609 
L 18 -253.44 
" style="stroke: #000000"/>
    </defs>
    <g>
     <use xlink:href="#m5ae32a3716" x="0" y="288" style="stroke: #000000"/>
    </g>
   </g>
  </g>
  <g id="axes_2">
   <g id="patch_6">
    <path d="M 41.25 196.87211 
L 50.55 196.87211 
L 50.55 216.866521 
L 41.25 216.866521 
z
" clip-path="url(#pc053732c26)" style="opacity: 0.15; stroke: #000000; stroke-linejoin: miter"/>
   </g>
   <g id="patch_7">
    <path d="M 78.45 196.87211 
L 87.75 196.87211 
L 87.75 216.595929 
L 78.45 216.595929 
z
" clip-path="url(#pc053732c26)" style="opacity: 0.15; stroke: #000000; stroke-linejoin: miter"/>
   </g>
   <g id="patch_8">
    <path d="M 115.65 196.87211 
L 124.95 196.87211 
L 124.95 196.601518 
L 115.65 196.601518 
z
" clip-path="url(#pc053732c26)" style="opacity: 0.15; stroke: #000000; stroke-linejoin: miter"/>
   </g>
   <g id="PolyCollection_1">
    <defs>
     <path id="mbd2d98ab0c" d="M 45.905036 -36.062609 
L 45.900074 -36.062609 
L 45.900074 -36.812185 
L 45.900074 -37.561762 
L 45.900074 -38.311339 
L 45.900074 -39.060916 
L 45.900074 -39.810492 
L 45.900074 -40.560069 
L 45.900074 -41.309646 
L 45.900074 -42.059222 
L 45.900074 -42.808799 
L 45.900074 -43.558376 
L 45.900074 -44.307953 
L 45.900074 -45.057529 
L 45.900074 -45.807106 
L 45.900074 -46.556683 
L 45.900074 -47.306259 
L 45.900074 -48.055836 
L 45.900074 -48.805413 
L 45.900074 -49.55499 
L 45.900074 -50.304566 
L 45.900074 -51.054143 
L 45.900074 -51.80372 
L 45.900074 -52.553296 
L 45.900074 -53.302873 
L 45.900074 -54.05245 
L 45.900074 -54.802027 
L 45.900074 -55.551603 
L 45.900074 -56.30118 
L 45.900074 -57.050757 
L 45.900074 -57.800333 
L 45.900074 -58.54991 
L 45.900074 -59.299487 
L 45.900074 -60.049064 
L 45.900074 -60.79864 
L 45.900074 -61.548217 
L 45.900074 -62.297794 
L 45.900074 -63.04737 
L 45.900074 -63.796947 
L 45.900074 -64.546524 
L 45.900074 -65.296101 
L 45.900074 -66.045677 
L 45.900074 -66.795254 
L 45.900074 -67.544831 
L 45.900074 -68.294408 
L 45.900074 -69.043984 
L 45.900074 -69.793561 
L 45.900074 -70.543138 
L 45.900074 -71.292714 
L 45.900074 -72.042291 
L 45.900074 -72.791868 
L 45.900074 -73.541445 
L 45.900074 -74.291021 
L 45.900074 -75.040598 
L 45.900074 -75.790175 
L 45.900074 -76.539751 
L 45.900074 -77.289328 
L 45.900074 -78.038905 
L 45.900074 -78.788482 
L 45.900074 -79.538058 
L 45.900074 -80.287635 
L 45.900074 -81.037212 
L 45.900074 -81.786788 
L 45.900074 -82.536365 
L 45.900074 -83.285942 
L 45.900074 -84.035519 
L 45.900074 -84.785095 
L 45.900074 -85.534672 
L 45.900074 -86.284249 
L 45.900074 -87.033825 
L 45.900074 -87.783402 
L 45.900074 -88.532979 
L 45.900074 -89.282556 
L 45.900074 -90.032132 
L 45.900074 -90.781709 
L 45.900074 -91.531286 
L 45.900074 -92.280862 
L 45.900074 -93.030439 
L 45.900074 -93.780016 
L 45.900074 -94.529593 
L 45.900074 -95.279169 
L 45.900074 -96.028746 
L 45.900074 -96.778323 
L 45.900074 -97.527899 
L 45.900074 -98.277476 
L 45.900074 -99.027053 
L 45.900074 -99.77663 
L 45.900074 -100.526206 
L 45.900074 -101.275783 
L 45.900074 -102.02536 
L 45.900074 -102.774936 
L 45.900074 -103.524513 
L 45.900074 -104.27409 
L 45.900074 -105.023667 
L 45.900074 -105.773243 
L 45.900074 -106.52282 
L 45.900074 -107.272397 
L 45.900074 -108.021973 
L 45.900074 -108.77155 
L 45.900074 -109.521127 
L 45.900074 -110.270704 
L 45.90504 -110.270704 
L 45.90504 -110.270704 
L 45.904587 -109.521127 
L 45.903542 -108.77155 
L 45.902727 -108.021973 
L 45.902941 -107.272397 
L 45.90465 -106.52282 
L 45.907892 -105.773243 
L 45.912295 -105.023667 
L 45.917214 -104.27409 
L 45.922044 -103.524513 
L 45.926604 -102.774936 
L 45.931426 -102.02536 
L 45.937661 -101.275783 
L 45.946317 -100.526206 
L 45.957117 -99.77663 
L 45.968252 -99.027053 
L 45.978101 -98.277476 
L 45.987771 -97.527899 
L 46.001476 -96.778323 
L 46.023656 -96.028746 
L 46.055816 -95.279169 
L 46.096549 -94.529593 
L 46.144004 -93.780016 
L 46.197323 -93.030439 
L 46.256055 -92.280862 
L 46.31984 -91.531286 
L 46.389667 -90.781709 
L 46.46842 -90.032132 
L 46.558424 -89.282556 
L 46.658313 -88.532979 
L 46.76367 -87.783402 
L 46.871168 -87.033825 
L 46.98138 -86.284249 
L 47.098123 -85.534672 
L 47.227139 -84.785095 
L 47.376306 -84.035519 
L 47.554562 -83.285942 
L 47.765913 -82.536365 
L 48.00184 -81.786788 
L 48.241656 -81.037212 
L 48.465225 -80.287635 
L 48.668731 -79.538058 
L 48.867572 -78.788482 
L 49.081793 -78.038905 
L 49.318202 -77.289328 
L 49.565872 -76.539751 
L 49.804777 -75.790175 
L 50.015418 -75.040598 
L 50.184548 -74.291021 
L 50.310471 -73.541445 
L 50.404686 -72.791868 
L 50.480724 -72.042291 
L 50.536039 -71.292714 
L 50.55 -70.543138 
L 50.506323 -69.793561 
L 50.414992 -69.043984 
L 50.305614 -68.294408 
L 50.19877 -67.544831 
L 50.087066 -66.795254 
L 49.943977 -66.045677 
L 49.749473 -65.296101 
L 49.508335 -64.546524 
L 49.245917 -63.796947 
L 48.987041 -63.04737 
L 48.739144 -62.297794 
L 48.494745 -61.548217 
L 48.246773 -60.79864 
L 47.998738 -60.049064 
L 47.761407 -59.299487 
L 47.542922 -58.54991 
L 47.342981 -57.800333 
L 47.155651 -57.050757 
L 46.977658 -56.30118 
L 46.813688 -55.551603 
L 46.672552 -54.802027 
L 46.558199 -54.05245 
L 46.465601 -53.302873 
L 46.385203 -52.553296 
L 46.310171 -51.80372 
L 46.239438 -51.054143 
L 46.175393 -50.304566 
L 46.120098 -49.55499 
L 46.074061 -48.805413 
L 46.037542 -48.055836 
L 46.011052 -47.306259 
L 45.993683 -46.556683 
L 45.981918 -45.807106 
L 45.971234 -45.057529 
L 45.958925 -44.307953 
L 45.945182 -43.558376 
L 45.931902 -42.808799 
L 45.920848 -42.059222 
L 45.912702 -41.309646 
L 45.90725 -40.560069 
L 45.904002 -39.810492 
L 45.902556 -39.060916 
L 45.902555 -38.311339 
L 45.90348 -37.561762 
L 45.904569 -36.812185 
L 45.905036 -36.062609 
z
"/>
    </defs>
    <g clip-path="url(#pc053732c26)">
     <use xlink:href="#mbd2d98ab0c" x="0" y="288" style="fill: #808080; fill-opacity: 0.8"/>
    </g>
   </g>
   <g id="PolyCollection_2">
    <defs>
     <path id="m95bd846e7f" d="M 83.11195 -54.062553 
L 83.100193 -54.062553 
L 83.100193 -54.372684 
L 83.100193 -54.682816 
L 83.100193 -54.992948 
L 83.100193 -55.303079 
L 83.100193 -55.613211 
L 83.100193 -55.923343 
L 83.100193 -56.233474 
L 83.100193 -56.543606 
L 83.100193 -56.853738 
L 83.100193 -57.163869 
L 83.100193 -57.474001 
L 83.100193 -57.784133 
L 83.100193 -58.094264 
L 83.100193 -58.404396 
L 83.100193 -58.714528 
L 83.100193 -59.024659 
L 83.100193 -59.334791 
L 83.100193 -59.644922 
L 83.100193 -59.955054 
L 83.100193 -60.265186 
L 83.100193 -60.575317 
L 83.100193 -60.885449 
L 83.100193 -61.195581 
L 83.100193 -61.505712 
L 83.100193 -61.815844 
L 83.100193 -62.125976 
L 83.100193 -62.436107 
L 83.100193 -62.746239 
L 83.100193 -63.056371 
L 83.100193 -63.366502 
L 83.100193 -63.676634 
L 83.100193 -63.986766 
L 83.100193 -64.296897 
L 83.100193 -64.607029 
L 83.100193 -64.91716 
L 83.100193 -65.227292 
L 83.100193 -65.537424 
L 83.100193 -65.847555 
L 83.100193 -66.157687 
L 83.100193 -66.467819 
L 83.100193 -66.77795 
L 83.100193 -67.088082 
L 83.100193 -67.398214 
L 83.100193 -67.708345 
L 83.100193 -68.018477 
L 83.100193 -68.328609 
L 83.100193 -68.63874 
L 83.100193 -68.948872 
L 83.100193 -69.259004 
L 83.100193 -69.569135 
L 83.100193 -69.879267 
L 83.100193 -70.189398 
L 83.100193 -70.49953 
L 83.100193 -70.809662 
L 83.100193 -71.119793 
L 83.100193 -71.429925 
L 83.100193 -71.740057 
L 83.100193 -72.050188 
L 83.100193 -72.36032 
L 83.100193 -72.670452 
L 83.100193 -72.980583 
L 83.100193 -73.290715 
L 83.100193 -73.600847 
L 83.100193 -73.910978 
L 83.100193 -74.22111 
L 83.100193 -74.531242 
L 83.100193 -74.841373 
L 83.100193 -75.151505 
L 83.100193 -75.461636 
L 83.100193 -75.771768 
L 83.100193 -76.0819 
L 83.100193 -76.392031 
L 83.100193 -76.702163 
L 83.100193 -77.012295 
L 83.100193 -77.322426 
L 83.100193 -77.632558 
L 83.100193 -77.94269 
L 83.100193 -78.252821 
L 83.100193 -78.562953 
L 83.100193 -78.873085 
L 83.100193 -79.183216 
L 83.100193 -79.493348 
L 83.100193 -79.80348 
L 83.100193 -80.113611 
L 83.100193 -80.423743 
L 83.100193 -80.733874 
L 83.100193 -81.044006 
L 83.100193 -81.354138 
L 83.100193 -81.664269 
L 83.100193 -81.974401 
L 83.100193 -82.284533 
L 83.100193 -82.594664 
L 83.100193 -82.904796 
L 83.100193 -83.214928 
L 83.100193 -83.525059 
L 83.100193 -83.835191 
L 83.100193 -84.145323 
L 83.100193 -84.455454 
L 83.100193 -84.765586 
L 83.11518 -84.765586 
L 83.11518 -84.765586 
L 83.119621 -84.455454 
L 83.12492 -84.145323 
L 83.132381 -83.835191 
L 83.143831 -83.525059 
L 83.160877 -83.214928 
L 83.184109 -82.904796 
L 83.212812 -82.594664 
L 83.245512 -82.284533 
L 83.28114 -81.974401 
L 83.320192 -81.664269 
L 83.365309 -81.354138 
L 83.420945 -81.044006 
L 83.492158 -80.733874 
L 83.58288 -80.423743 
L 83.694441 -80.113611 
L 83.82523 -79.80348 
L 83.971787 -79.493348 
L 84.130682 -79.183216 
L 84.300021 -78.873085 
L 84.479749 -78.562953 
L 84.670709 -78.252821 
L 84.873021 -77.94269 
L 85.084754 -77.632558 
L 85.301797 -77.322426 
L 85.519094 -77.012295 
L 85.732297 -76.702163 
L 85.938667 -76.392031 
L 86.137074 -76.0819 
L 86.327761 -75.771768 
L 86.511945 -75.461636 
L 86.69058 -75.151505 
L 86.862315 -74.841373 
L 87.022253 -74.531242 
L 87.163213 -74.22111 
L 87.279524 -73.910978 
L 87.371361 -73.600847 
L 87.44652 -73.290715 
L 87.517095 -72.980583 
L 87.591505 -72.670452 
L 87.66667 -72.36032 
L 87.726684 -72.050188 
L 87.75 -71.740057 
L 87.720217 -71.429925 
L 87.633336 -71.119793 
L 87.498361 -70.809662 
L 87.333116 -70.49953 
L 87.158322 -70.189398 
L 86.99157 -69.879267 
L 86.842327 -69.569135 
L 86.709788 -69.259004 
L 86.584993 -68.948872 
L 86.456326 -68.63874 
L 86.315265 -68.328609 
L 86.159396 -68.018477 
L 85.992041 -67.708345 
L 85.819899 -67.398214 
L 85.650343 -67.088082 
L 85.489119 -66.77795 
L 85.338692 -66.467819 
L 85.197574 -66.157687 
L 85.061165 -65.847555 
L 84.924108 -65.537424 
L 84.783218 -65.227292 
L 84.639397 -64.91716 
L 84.497538 -64.607029 
L 84.364643 -64.296897 
L 84.247003 -63.986766 
L 84.147371 -63.676634 
L 84.06323 -63.366502 
L 83.987435 -63.056371 
L 83.911535 -62.746239 
L 83.830192 -62.436107 
L 83.743934 -62.125976 
L 83.658484 -61.815844 
L 83.581254 -61.505712 
L 83.517346 -61.195581 
L 83.467339 -60.885449 
L 83.427791 -60.575317 
L 83.393774 -60.265186 
L 83.361758 -59.955054 
L 83.331135 -59.644922 
L 83.303642 -59.334791 
L 83.281344 -59.024659 
L 83.264759 -58.714528 
L 83.252408 -58.404396 
L 83.241887 -58.094264 
L 83.231349 -57.784133 
L 83.220207 -57.474001 
L 83.208727 -57.163869 
L 83.19719 -56.853738 
L 83.185448 -56.543606 
L 83.17315 -56.233474 
L 83.160277 -55.923343 
L 83.14749 -55.613211 
L 83.135945 -55.303079 
L 83.126672 -54.992948 
L 83.119986 -54.682816 
L 83.115378 -54.372684 
L 83.11195 -54.062553 
z
"/>
    </defs>
    <g clip-path="url(#pc053732c26)">
     <use xlink:href="#m95bd846e7f" x="0" y="288" style="fill: #808080; fill-opacity: 0.8"/>
    </g>
   </g>
   <g id="PolyCollection_3">
    <defs>
     <path id="mb55a8b59c2" d="M 120.313162 -53.234146 
L 120.300183 -53.234146 
L 120.300183 -53.946071 
L 120.300183 -54.657997 
L 120.300183 -55.369922 
L 120.300183 -56.081848 
L 120.300183 -56.793774 
L 120.300183 -57.505699 
L 120.300183 -58.217625 
L 120.300183 -58.929551 
L 120.300183 -59.641476 
L 120.300183 -60.353402 
L 120.300183 -61.065327 
L 120.300183 -61.777253 
L 120.300183 -62.489179 
L 120.300183 -63.201104 
L 120.300183 -63.91303 
L 120.300183 -64.624956 
L 120.300183 -65.336881 
L 120.300183 -66.048807 
L 120.300183 -66.760732 
L 120.300183 -67.472658 
L 120.300183 -68.184584 
L 120.300183 -68.896509 
L 120.300183 -69.608435 
L 120.300183 -70.320361 
L 120.300183 -71.032286 
L 120.300183 -71.744212 
L 120.300183 -72.456137 
L 120.300183 -73.168063 
L 120.300183 -73.879989 
L 120.300183 -74.591914 
L 120.300183 -75.30384 
L 120.300183 -76.015766 
L 120.300183 -76.727691 
L 120.300183 -77.439617 
L 120.300183 -78.151542 
L 120.300183 -78.863468 
L 120.300183 -79.575394 
L 120.300183 -80.287319 
L 120.300183 -80.999245 
L 120.300183 -81.711171 
L 120.300183 -82.423096 
L 120.300183 -83.135022 
L 120.300183 -83.846947 
L 120.300183 -84.558873 
L 120.300183 -85.270799 
L 120.300183 -85.982724 
L 120.300183 -86.69465 
L 120.300183 -87.406576 
L 120.300183 -88.118501 
L 120.300183 -88.830427 
L 120.300183 -89.542353 
L 120.300183 -90.254278 
L 120.300183 -90.966204 
L 120.300183 -91.678129 
L 120.300183 -92.390055 
L 120.300183 -93.101981 
L 120.300183 -93.813906 
L 120.300183 -94.525832 
L 120.300183 -95.237758 
L 120.300183 -95.949683 
L 120.300183 -96.661609 
L 120.300183 -97.373534 
L 120.300183 -98.08546 
L 120.300183 -98.797386 
L 120.300183 -99.509311 
L 120.300183 -100.221237 
L 120.300183 -100.933163 
L 120.300183 -101.645088 
L 120.300183 -102.357014 
L 120.300183 -103.068939 
L 120.300183 -103.780865 
L 120.300183 -104.492791 
L 120.300183 -105.204716 
L 120.300183 -105.916642 
L 120.300183 -106.628568 
L 120.300183 -107.340493 
L 120.300183 -108.052419 
L 120.300183 -108.764344 
L 120.300183 -109.47627 
L 120.300183 -110.188196 
L 120.300183 -110.900121 
L 120.300183 -111.612047 
L 120.300183 -112.323973 
L 120.300183 -113.035898 
L 120.300183 -113.747824 
L 120.300183 -114.459749 
L 120.300183 -115.171675 
L 120.300183 -115.883601 
L 120.300183 -116.595526 
L 120.300183 -117.307452 
L 120.300183 -118.019378 
L 120.300183 -118.731303 
L 120.300183 -119.443229 
L 120.300183 -120.155154 
L 120.300183 -120.86708 
L 120.300183 -121.579006 
L 120.300183 -122.290931 
L 120.300183 -123.002857 
L 120.300183 -123.714783 
L 120.310888 -123.714783 
L 120.310888 -123.714783 
L 120.31564 -123.002857 
L 120.32224 -122.290931 
L 120.33115 -121.579006 
L 120.342543 -120.86708 
L 120.356372 -120.155154 
L 120.372515 -119.443229 
L 120.390688 -118.731303 
L 120.410266 -118.019378 
L 120.430584 -117.307452 
L 120.451817 -116.595526 
L 120.475616 -115.883601 
L 120.504691 -115.171675 
L 120.541731 -114.459749 
L 120.588669 -113.747824 
L 120.646558 -113.035898 
L 120.715446 -112.323973 
L 120.794196 -111.612047 
L 120.881123 -110.900121 
L 120.975765 -110.188196 
L 121.080505 -109.47627 
L 121.200317 -108.764344 
L 121.340288 -108.052419 
L 121.502174 -107.340493 
L 121.681974 -106.628568 
L 121.870232 -105.916642 
L 122.055653 -105.204716 
L 122.230405 -104.492791 
L 122.39356 -103.780865 
L 122.549908 -103.068939 
L 122.705022 -102.357014 
L 122.860868 -101.645088 
L 123.01597 -100.933163 
L 123.17017 -100.221237 
L 123.3298 -99.509311 
L 123.50796 -98.797386 
L 123.717655 -98.08546 
L 123.961136 -97.373534 
L 124.22319 -96.661609 
L 124.474765 -95.949683 
L 124.685537 -95.237758 
L 124.836397 -94.525832 
L 124.923038 -93.813906 
L 124.95 -93.101981 
L 124.922717 -92.390055 
L 124.845536 -91.678129 
L 124.726208 -90.966204 
L 124.579564 -90.254278 
L 124.423844 -89.542353 
L 124.272161 -88.830427 
L 124.127987 -88.118501 
L 123.988936 -87.406576 
L 123.853294 -86.69465 
L 123.721464 -85.982724 
L 123.592069 -85.270799 
L 123.459195 -84.558873 
L 123.314809 -83.846947 
L 123.153509 -83.135022 
L 122.975071 -82.423096 
L 122.784306 -81.711171 
L 122.590264 -80.999245 
L 122.404525 -80.287319 
L 122.236602 -79.575394 
L 122.087857 -78.863468 
L 121.949608 -78.151542 
L 121.809156 -77.439617 
L 121.659728 -76.727691 
L 121.50582 -76.015766 
L 121.359707 -75.30384 
L 121.232975 -74.591914 
L 121.130069 -73.879989 
L 121.047597 -73.168063 
L 120.978315 -72.456137 
L 120.916153 -71.744212 
L 120.858742 -71.032286 
L 120.806253 -70.320361 
L 120.758583 -69.608435 
L 120.714073 -68.896509 
L 120.670744 -68.184584 
L 120.628107 -67.472658 
L 120.587347 -66.760732 
L 120.549965 -66.048807 
L 120.516591 -65.336881 
L 120.487028 -64.624956 
L 120.460996 -63.91303 
L 120.438515 -63.201104 
L 120.419637 -62.489179 
L 120.404017 -61.777253 
L 120.390838 -61.065327 
L 120.379157 -60.353402 
L 120.368392 -59.641476 
L 120.358524 -58.929551 
L 120.349837 -58.217625 
L 120.342461 -57.505699 
L 120.336182 -56.793774 
L 120.330653 -56.081848 
L 120.325659 -55.369922 
L 120.321132 -54.657997 
L 120.317005 -53.946071 
L 120.313162 -53.234146 
z
"/>
    </defs>
    <g clip-path="url(#pc053732c26)">
     <use xlink:href="#mb55a8b59c2" x="0" y="288" style="fill: #808080; fill-opacity: 0.8"/>
    </g>
   </g>
   <g id="matplotlib.axis_3">
    <g id="xtick_5">
     <g id="line2d_18">
      <g>
       <use xlink:href="#mc9f34a06d4" x="27.3" y="256.32" style="stroke: #000000; stroke-width: 0.8"/>
      </g>
     </g>
    </g>
    <g id="xtick_6">
     <g id="line2d_19">
      <g>
       <use xlink:href="#mc9f34a06d4" x="45.9" y="256.32" style="stroke: #000000; stroke-width: 0.8"/>
      </g>
     </g>
     <g id="text_11">
      <text style="font: 12px 'Helvetica', sans-serif; text-anchor: middle" x="45.9" y="271.928125" transform="rotate(-0 45.9 271.928125)">Off</text>
     </g>
    </g>
    <g id="xtick_7">
     <g id="line2d_20">
      <g>
       <use xlink:href="#mc9f34a06d4" x="64.5" y="256.32" style="stroke: #000000; stroke-width: 0.8"/>
      </g>
     </g>
    </g>
    <g id="xtick_8">
     <g id="line2d_21">
      <g>
       <use xlink:href="#mc9f34a06d4" x="83.1" y="256.32" style="stroke: #000000; stroke-width: 0.8"/>
      </g>
     </g>
     <g id="text_12">
      <text style="font: 12px 'Helvetica', sans-serif; text-anchor: middle" x="83.1" y="271.928125" transform="rotate(-0 83.1 271.928125)">On</text>
     </g>
    </g>
    <g id="xtick_9">
     <g id="line2d_22">
      <g>
       <use xlink:href="#mc9f34a06d4" x="101.7" y="256.32" style="stroke: #000000; stroke-width: 0.8"/>
      </g>
     </g>
    </g>
    <g id="xtick_10">
     <g id="line2d_23">
      <g>
       <use xlink:href="#mc9f34a06d4" x="120.3" y="256.32" style="stroke: #000000; stroke-width: 0.8"/>
      </g>
     </g>
     <g id="text_13">
      <!-- $\Delta\Delta$ -->
      <g transform="translate(112.08 271.928125)">
       <text>
        <tspan style="font: 12px 'DejaVu Sans'" x="0 8.208984" y="-0.25">ΔΔ</tspan>
       </text>
      </g>
     </g>
    </g>
   </g>
   <g id="matplotlib.axis_4">
    <g id="ytick_6">
     <g id="line2d_24">
      <g>
       <use xlink:href="#m1a699374a1" x="18" y="253.592878" style="stroke: #000000; stroke-width: 0.8"/>
      </g>
     </g>
     <g id="text_14">
      <text style="font: 6px 'Helvetica', sans-serif; text-anchor: end" x="11" y="255.74491" transform="rotate(-0 11 255.74491)">−30</text>
     </g>
    </g>
    <g id="ytick_7">
     <g id="line2d_25">
      <g>
       <use xlink:href="#m1a699374a1" x="18" y="234.685956" style="stroke: #000000; stroke-width: 0.8"/>
      </g>
     </g>
     <g id="text_15">
      <text style="font: 6px 'Helvetica', sans-serif; text-anchor: end" x="11" y="236.837987" transform="rotate(-0 11 236.837987)">−20</text>
     </g>
    </g>
    <g id="ytick_8">
     <g id="line2d_26">
      <g>
       <use xlink:href="#m1a699374a1" x="18" y="215.779033" style="stroke: #000000; stroke-width: 0.8"/>
      </g>
     </g>
     <g id="text_16">
      <text style="font: 6px 'Helvetica', sans-serif; text-anchor: end" x="11" y="217.931064" transform="rotate(-0 11 217.931064)">−10</text>
     </g>
    </g>
    <g id="ytick_9">
     <g id="line2d_27">
      <g>
       <use xlink:href="#m1a699374a1" x="18" y="196.87211" style="stroke: #000000; stroke-width: 0.8"/>
      </g>
     </g>
     <g id="text_17">
      <text style="font: 6px 'Helvetica', sans-serif; text-anchor: end" x="11" y="199.024142" transform="rotate(-0 11 199.024142)">0</text>
     </g>
    </g>
    <g id="ytick_10">
     <g id="line2d_28">
      <g>
       <use xlink:href="#m1a699374a1" x="18" y="177.965188" style="stroke: #000000; stroke-width: 0.8"/>
      </g>
     </g>
     <g id="text_18">
      <text style="font: 6px 'Helvetica', sans-serif; text-anchor: end" x="11" y="180.117219" transform="rotate(-0 11 180.117219)">10</text>
     </g>
    </g>
    <g id="text_19">
     <!-- $\Delta$ Meal Size (nL) -->
     <g transform="translate(-5.6975 252.571304) rotate(-90)">
      <text>
       <tspan style="font: 12px 'DejaVu Sans'" x="0" y="-0.15625">Δ</tspan>
       <tspan style="font: 12px 'Helvetica'" x="8.208984 11.542969 21.539062 28.212891 34.886719 37.552734 40.886719 48.890625 51.556641 57.556641 64.230469 67.564453 71.560547 78.234375 84.908203" y="-0.15625"> Meal Size (nL)</tspan>
      </text>
     </g>
    </g>
   </g>
   <g id="line2d_29">
    <path d="M 45.9 216.866521 
" clip-path="url(#pc053732c26)" style="fill: none; stroke: #000000; stroke-width: 1.5; stroke-linecap: square"/>
    <defs>
     <path id="m91810752cc" d="M 0 2.5 
C 0.663008 2.5 1.29895 2.236584 1.767767 1.767767 
C 2.236584 1.29895 2.5 0.663008 2.5 0 
C 2.5 -0.663008 2.236584 -1.29895 1.767767 -1.767767 
C 1.29895 -2.236584 0.663008 -2.5 0 -2.5 
C -0.663008 -2.5 -1.29895 -2.236584 -1.767767 -1.767767 
C -2.236584 -1.29895 -2.5 -0.663008 -2.5 0 
C -2.5 0.663008 -2.236584 1.29895 -1.767767 1.767767 
C -1.29895 2.236584 -0.663008 2.5 0 2.5 
z
" style="stroke: #000000"/>
    </defs>
    <g clip-path="url(#pc053732c26)">
     <use xlink:href="#m91810752cc" x="45.9" y="216.866521" style="stroke: #000000"/>
    </g>
   </g>
   <g id="line2d_30">
    <path d="M 45.9 232.381653 
L 45.9 196.986841 
" clip-path="url(#pc053732c26)" style="fill: none; stroke: #000000; stroke-width: 2; stroke-linecap: square"/>
   </g>
   <g id="line2d_31">
    <path d="M 83.1 216.595929 
" clip-path="url(#pc053732c26)" style="fill: none; stroke: #000000; stroke-width: 1.5; stroke-linecap: square"/>
    <g clip-path="url(#pc053732c26)">
     <use xlink:href="#m91810752cc" x="83.1" y="216.595929" style="stroke: #000000"/>
    </g>
   </g>
   <g id="line2d_32">
    <path d="M 83.1 228.817316 
L 83.1 209.776103 
" clip-path="url(#pc053732c26)" style="fill: none; stroke: #000000; stroke-width: 2; stroke-linecap: square"/>
   </g>
   <g id="line2d_33">
    <path d="M 120.3 196.601518 
" clip-path="url(#pc053732c26)" style="fill: none; stroke: #000000; stroke-width: 1.5; stroke-linecap: square"/>
    <g clip-path="url(#pc053732c26)">
     <use xlink:href="#m91810752cc" x="120.3" y="196.601518" style="stroke: #000000"/>
    </g>
   </g>
   <g id="line2d_34">
    <path d="M 120.3 218.940092 
L 120.3 179.003659 
" clip-path="url(#pc053732c26)" style="fill: none; stroke: #000000; stroke-width: 2; stroke-linecap: square"/>
   </g>
   <g id="line2d_35">
    <path d="M 18 196.87211 
L 129.6 196.87211 
" clip-path="url(#pc053732c26)" style="fill: none; stroke: #000000; stroke-width: 0.75; stroke-linecap: square"/>
   </g>
   <g id="LineCollection_4">
    <defs>
     <path id="m9c4e4a418d" d="M 27.3 -31.68 
L 45.9 -31.68 
" style="stroke: #000000"/>
    </defs>
    <g>
     <use xlink:href="#m9c4e4a418d" x="0" y="288" style="stroke: #000000"/>
    </g>
   </g>
   <g id="LineCollection_5">
    <defs>
     <path id="mf521600e49" d="M 64.5 -31.68 
L 83.1 -31.68 
" style="stroke: #000000"/>
    </defs>
    <g>
     <use xlink:href="#mf521600e49" x="0" y="288" style="stroke: #000000"/>
    </g>
   </g>
   <g id="LineCollection_6">
    <defs>
     <path id="md48b7082c7" d="M 101.7 -31.68 
L 120.3 -31.68 
" style="stroke: #000000"/>
    </defs>
    <g>
     <use xlink:href="#md48b7082c7" x="0" y="288" style="stroke: #000000"/>
    </g>
   </g>
   <g id="LineCollection_7">
    <defs>
     <path id="m073d52ef82" d="M 18 -31.68 
L 18 -128.097391 
" style="stroke: #000000"/>
    </defs>
    <g>
     <use xlink:href="#m073d52ef82" x="0" y="288" style="stroke: #000000"/>
    </g>
   </g>
  </g>
  <g id="axes_3">
   <g id="matplotlib.axis_5">
    <g id="ytick_11">
     <g id="line2d_36">
      <defs>
       <path id="m0008b6ed5d" d="M 0 0 
L 3.5 0 
" style="stroke: #000000; stroke-width: 0.8"/>
      </defs>
      <g>
       <use xlink:href="#m0008b6ed5d" x="129.6" y="253.592878" style="stroke: #000000; stroke-width: 0.8"/>
      </g>
     </g>
     <g id="text_20">
      <text style="font: 6px 'Helvetica', sans-serif; text-anchor: start" x="136.6" y="255.74491" transform="rotate(-0 136.6 255.74491)">−30</text>
     </g>
    </g>
    <g id="ytick_12">
     <g id="line2d_37">
      <g>
       <use xlink:href="#m0008b6ed5d" x="129.6" y="234.685956" style="stroke: #000000; stroke-width: 0.8"/>
      </g>
     </g>
     <g id="text_21">
      <text style="font: 6px 'Helvetica', sans-serif; text-anchor: start" x="136.6" y="236.837987" transform="rotate(-0 136.6 236.837987)">−20</text>
     </g>
    </g>
    <g id="ytick_13">
     <g id="line2d_38">
      <g>
       <use xlink:href="#m0008b6ed5d" x="129.6" y="215.779033" style="stroke: #000000; stroke-width: 0.8"/>
      </g>
     </g>
     <g id="text_22">
      <text style="font: 6px 'Helvetica', sans-serif; text-anchor: start" x="136.6" y="217.931064" transform="rotate(-0 136.6 217.931064)">−10</text>
     </g>
    </g>
    <g id="ytick_14">
     <g id="line2d_39">
      <g>
       <use xlink:href="#m0008b6ed5d" x="129.6" y="196.87211" style="stroke: #000000; stroke-width: 0.8"/>
      </g>
     </g>
     <g id="text_23">
      <text style="font: 6px 'Helvetica', sans-serif; text-anchor: start" x="136.6" y="199.024142" transform="rotate(-0 136.6 199.024142)">0</text>
     </g>
    </g>
    <g id="ytick_15">
     <g id="line2d_40">
      <g>
       <use xlink:href="#m0008b6ed5d" x="129.6" y="177.965188" style="stroke: #000000; stroke-width: 0.8"/>
      </g>
     </g>
     <g id="text_24">
      <text style="font: 6px 'Helvetica', sans-serif; text-anchor: start" x="136.6" y="180.117219" transform="rotate(-0 136.6 180.117219)">10</text>
     </g>
    </g>
    <g id="text_25">
     <!-- $\Delta\Delta$ -->
     <g transform="translate(159.385625 216.331304) rotate(-90)">
      <text>
       <tspan style="font: 12px 'DejaVu Sans'" x="0 8.208984" y="-0.25">ΔΔ</tspan>
      </text>
     </g>
    </g>
   </g>
   <g id="LineCollection_8">
    <defs>
     <path id="m3cb1cc683b" d="M 129.6 -31.68 
L 129.6 -128.097391 
" style="stroke: #000000"/>
    </defs>
    <g>
     <use xlink:href="#m3cb1cc683b" x="0" y="288" style="stroke: #000000"/>
    </g>
   </g>
  </g>
  <g id="text_26">
   <text style="fill: #ffa500; font: italic 500 12px 'inter'; text-anchor: middle" x="72" y="17.758125" transform="rotate(-0 72 17.758125)">SXVNC1&gt;ACR1</text>
  </g>
 </g>
 <defs>
  <clipPath id="pf54a617284">
   <rect x="18" y="34.56" width="111.6" height="96.417391"/>
  </clipPath>
  <clipPath id="pc053732c26">
   <rect x="18" y="159.902609" width="111.6" height="96.417391"/>
  </clipPath>
 </defs>
</svg>
