<?xml version="1.0" encoding="utf-8" standalone="no"?>
<!DOCTYPE svg PUBLIC "-//W3C//DTD SVG 1.1//EN"
  "http://www.w3.org/Graphics/SVG/1.1/DTD/svg11.dtd">
<svg xmlns:xlink="http://www.w3.org/1999/xlink" width="144pt" height="288pt" viewBox="0 0 144 288" xmlns="http://www.w3.org/2000/svg" version="1.1">
 <metadata>
  <rdf:RDF xmlns:dc="http://purl.org/dc/elements/1.1/" xmlns:cc="http://creativecommons.org/ns#" xmlns:rdf="http://www.w3.org/1999/02/22-rdf-syntax-ns#">
   <cc:Work>
    <dc:type rdf:resource="http://purl.org/dc/dcmitype/StillImage"/>
    <dc:date>2025-02-16T02:07:48.821829</dc:date>
    <dc:format>image/svg+xml</dc:format>
    <dc:creator>
     <cc:Agent>
      <dc:title>Matplotlib v3.6.3, https://matplotlib.org/</dc:title>
     </cc:Agent>
    </dc:creator>
   </cc:Work>
  </rdf:RDF>
 </metadata>
 <defs>
  <style type="text/css">*{stroke-linejoin: round; stroke-linecap: butt}</style>
 </defs>
 <g id="figure_1">
  <g id="patch_1">
   <path d="M 0 288 
L 144 288 
L 144 0 
L 0 0 
z
" style="fill: #ffffff"/>
  </g>
  <g id="axes_1">
   <g id="patch_2">
    <path d="M 22.65 98.838261 
L 31.95 98.838261 
L 31.95 96.892424 
L 22.65 96.892424 
z
" clip-path="url(#p70c0eb50bb)" style="opacity: 0.15; stroke: #000000; stroke-linejoin: miter"/>
   </g>
   <g id="patch_3">
    <path d="M 41.25 98.838261 
L 50.55 98.838261 
L 50.55 96.58092 
L 41.25 96.58092 
z
" clip-path="url(#p70c0eb50bb)" style="opacity: 0.15; stroke: #000000; stroke-linejoin: miter"/>
   </g>
   <g id="patch_4">
    <path d="M 59.85 98.838261 
L 69.15 98.838261 
L 69.15 98.058369 
L 59.85 98.058369 
z
" clip-path="url(#p70c0eb50bb)" style="opacity: 0.15; stroke: #000000; stroke-linejoin: miter"/>
   </g>
   <g id="patch_5">
    <path d="M 78.45 98.838261 
L 87.75 98.838261 
L 87.75 98.24574 
L 78.45 98.24574 
z
" clip-path="url(#p70c0eb50bb)" style="opacity: 0.15; stroke: #000000; stroke-linejoin: miter"/>
   </g>
   <g id="PathCollection_1">
    <defs>
     <path id="C0_0_b0edf81ae6" d="M 0 0.632456 
C 0.167729 0.632456 0.328611 0.565816 0.447214 0.447214 
C 0.565816 0.328611 0.632456 0.167729 0.632456 -0 
C 0.632456 -0.167729 0.565816 -0.328611 0.447214 -0.447214 
C 0.328611 -0.565816 0.167729 -0.632456 0 -0.632456 
C -0.167729 -0.632456 -0.328611 -0.565816 -0.447214 -0.447214 
C -0.565816 -0.328611 -0.632456 -0.167729 -0.632456 0 
C -0.632456 0.167729 -0.565816 0.328611 -0.447214 0.447214 
C -0.328611 0.565816 -0.167729 0.632456 0 0.632456 
z
"/>
    </defs>
    <g clip-path="url(#p70c0eb50bb)">
     <use xlink:href="#C0_0_b0edf81ae6" x="27.3" y="98.436115" style="fill: #808080; stroke: #808080"/>
    </g>
    <g clip-path="url(#p70c0eb50bb)">
     <use xlink:href="#C0_0_b0edf81ae6" x="28.923095" y="98.427481" style="stroke: #000000"/>
    </g>
    <g clip-path="url(#p70c0eb50bb)">
     <use xlink:href="#C0_0_b0edf81ae6" x="30.545518" y="98.356866" style="fill: #808080; stroke: #808080"/>
    </g>
    <g clip-path="url(#p70c0eb50bb)">
     <use xlink:href="#C0_0_b0edf81ae6" x="32.16862" y="98.351632" style="stroke: #000000"/>
    </g>
    <g clip-path="url(#p70c0eb50bb)">
     <use xlink:href="#C0_0_b0edf81ae6" x="33.791304" y="98.296148" style="stroke: #000000"/>
    </g>
    <g clip-path="url(#p70c0eb50bb)">
     <use xlink:href="#C0_0_b0edf81ae6" x="35.412967" y="98.193504" style="fill: #808080; stroke: #808080"/>
    </g>
    <g clip-path="url(#p70c0eb50bb)">
     <use xlink:href="#C0_0_b0edf81ae6" x="27.906899" y="96.178056" style="fill: #808080; stroke: #808080"/>
    </g>
    <g clip-path="url(#p70c0eb50bb)">
     <use xlink:href="#C0_0_b0edf81ae6" x="29.529252" y="96.103931" style="fill: #808080; stroke: #808080"/>
    </g>
    <g clip-path="url(#p70c0eb50bb)">
     <use xlink:href="#C0_0_b0edf81ae6" x="31.092582" y="95.449283" style="stroke: #000000"/>
    </g>
    <g clip-path="url(#p70c0eb50bb)">
     <use xlink:href="#C0_0_b0edf81ae6" x="32.696578" y="95.076784" style="fill: #808080; stroke: #808080"/>
    </g>
    <g clip-path="url(#p70c0eb50bb)">
     <use xlink:href="#C0_0_b0edf81ae6" x="34.31968" y="95.071856" style="stroke: #000000"/>
    </g>
    <g clip-path="url(#p70c0eb50bb)">
     <use xlink:href="#C0_0_b0edf81ae6" x="27.3" y="93.054785" style="fill: #808080; stroke: #808080"/>
    </g>
    <g clip-path="url(#p70c0eb50bb)">
     <use xlink:href="#C0_0_b0edf81ae6" x="28.813314" y="92.174564" style="fill: #808080; stroke: #808080"/>
    </g>
    <g clip-path="url(#p70c0eb50bb)">
     <use xlink:href="#C0_0_b0edf81ae6" x="27.3" y="90.21462" style="fill: #808080; stroke: #808080"/>
    </g>
    <g clip-path="url(#p70c0eb50bb)">
     <use xlink:href="#C0_0_b0edf81ae6" x="28.891448" y="89.73611" style="stroke: #000000"/>
    </g>
   </g>
   <g id="PathCollection_2">
    <defs>
     <path id="C1_0_02757ee4a3" d="M 0 0.632456 
C 0.167729 0.632456 0.328611 0.565816 0.447214 0.447214 
C 0.565816 0.328611 0.632456 0.167729 0.632456 -0 
C 0.632456 -0.167729 0.565816 -0.328611 0.447214 -0.447214 
C 0.328611 -0.565816 0.167729 -0.632456 0 -0.632456 
C -0.167729 -0.632456 -0.328611 -0.565816 -0.447214 -0.447214 
C -0.565816 -0.328611 -0.632456 -0.167729 -0.632456 0 
C -0.632456 0.167729 -0.565816 0.328611 -0.447214 0.447214 
C -0.328611 0.565816 -0.167729 0.632456 0 0.632456 
z
"/>
    </defs>
    <g clip-path="url(#p70c0eb50bb)">
     <use xlink:href="#C1_0_02757ee4a3" x="45.9" y="98.344534" style="fill: #ff4500; stroke: #ff4500"/>
    </g>
    <g clip-path="url(#p70c0eb50bb)">
     <use xlink:href="#C1_0_02757ee4a3" x="47.522636" y="98.285983" style="fill: #ff4500; stroke: #ff4500"/>
    </g>
    <g clip-path="url(#p70c0eb50bb)">
     <use xlink:href="#C1_0_02757ee4a3" x="49.1456" y="98.25379" style="fill: #ff4500; stroke: #ff4500"/>
    </g>
    <g clip-path="url(#p70c0eb50bb)">
     <use xlink:href="#C1_0_02757ee4a3" x="50.766685" y="98.132351" style="fill: #ff4500; stroke: #ff4500"/>
    </g>
    <g clip-path="url(#p70c0eb50bb)">
     <use xlink:href="#C1_0_02757ee4a3" x="52.389447" y="98.082263" style="fill: #ff4500; stroke: #ff4500"/>
    </g>
    <g clip-path="url(#p70c0eb50bb)">
     <use xlink:href="#C1_0_02757ee4a3" x="54.012381" y="98.046872" style="fill: #ff4500; stroke: #ff4500"/>
    </g>
    <g clip-path="url(#p70c0eb50bb)">
     <use xlink:href="#C1_0_02757ee4a3" x="45.9" y="95.596236" style="fill: #ff4500; stroke: #ff4500"/>
    </g>
    <g clip-path="url(#p70c0eb50bb)">
     <use xlink:href="#C1_0_02757ee4a3" x="47.523055" y="95.577038" style="fill: #ff4500; stroke: #ff4500"/>
    </g>
    <g clip-path="url(#p70c0eb50bb)">
     <use xlink:href="#C1_0_02757ee4a3" x="49.146159" y="95.572977" style="fill: #ff4500; stroke: #ff4500"/>
    </g>
    <g clip-path="url(#p70c0eb50bb)">
     <use xlink:href="#C1_0_02757ee4a3" x="50.75574" y="95.25934" style="fill: #ff4500; stroke: #ff4500"/>
    </g>
    <g clip-path="url(#p70c0eb50bb)">
     <use xlink:href="#C1_0_02757ee4a3" x="52.373757" y="95.066709" style="fill: #ff4500; stroke: #ff4500"/>
    </g>
    <g clip-path="url(#p70c0eb50bb)">
     <use xlink:href="#C1_0_02757ee4a3" x="53.995959" y="94.985441" style="fill: #ff4500; stroke: #ff4500"/>
    </g>
    <g clip-path="url(#p70c0eb50bb)">
     <use xlink:href="#C1_0_02757ee4a3" x="45.9" y="93.062753" style="fill: #ff4500; stroke: #ff4500"/>
    </g>
    <g clip-path="url(#p70c0eb50bb)">
     <use xlink:href="#C1_0_02757ee4a3" x="47.522972" y="93.03152" style="fill: #ff4500; stroke: #ff4500"/>
    </g>
    <g clip-path="url(#p70c0eb50bb)">
     <use xlink:href="#C1_0_02757ee4a3" x="48.937601" y="91.837819" style="fill: #ff4500; stroke: #ff4500"/>
    </g>
    <g clip-path="url(#p70c0eb50bb)">
     <use xlink:href="#C1_0_02757ee4a3" x="45.9" y="90.522174" style="fill: #ff4500; stroke: #ff4500"/>
    </g>
    <g clip-path="url(#p70c0eb50bb)">
     <use xlink:href="#C1_0_02757ee4a3" x="47.521245" y="90.405622" style="fill: #ff4500; stroke: #ff4500"/>
    </g>
   </g>
   <g id="PathCollection_3">
    <defs>
     <path id="C2_0_6914095b8f" d="M 0 0.632456 
C 0.167729 0.632456 0.328611 0.565816 0.447214 0.447214 
C 0.565816 0.328611 0.632456 0.167729 0.632456 -0 
C 0.632456 -0.167729 0.565816 -0.328611 0.447214 -0.447214 
C 0.328611 -0.565816 0.167729 -0.632456 0 -0.632456 
C -0.167729 -0.632456 -0.328611 -0.565816 -0.447214 -0.447214 
C -0.565816 -0.328611 -0.632456 -0.167729 -0.632456 0 
C -0.632456 0.167729 -0.565816 0.328611 -0.447214 0.447214 
C -0.328611 0.565816 -0.167729 0.632456 0 0.632456 
z
"/>
    </defs>
    <g clip-path="url(#p70c0eb50bb)">
     <use xlink:href="#C2_0_6914095b8f" x="64.5" y="98.485469" style="fill: #808080; stroke: #808080"/>
    </g>
    <g clip-path="url(#p70c0eb50bb)">
     <use xlink:href="#C2_0_6914095b8f" x="66.123091" y="98.475" style="fill: #808080; stroke: #808080"/>
    </g>
    <g clip-path="url(#p70c0eb50bb)">
     <use xlink:href="#C2_0_6914095b8f" x="67.745996" y="98.436795" style="fill: #808080; stroke: #808080"/>
    </g>
    <g clip-path="url(#p70c0eb50bb)">
     <use xlink:href="#C2_0_6914095b8f" x="69.369097" y="98.430563" style="stroke: #000000"/>
    </g>
    <g clip-path="url(#p70c0eb50bb)">
     <use xlink:href="#C2_0_6914095b8f" x="70.992198" y="98.425276" style="fill: #808080; stroke: #808080"/>
    </g>
    <g clip-path="url(#p70c0eb50bb)">
     <use xlink:href="#C2_0_6914095b8f" x="72.615302" y="98.421592" style="stroke: #000000"/>
    </g>
   </g>
   <g id="PathCollection_4">
    <defs>
     <path id="C3_0_58a53fae3b" d="M 0 0.632456 
C 0.167729 0.632456 0.328611 0.565816 0.447214 0.447214 
C 0.565816 0.328611 0.632456 0.167729 0.632456 -0 
C 0.632456 -0.167729 0.565816 -0.328611 0.447214 -0.447214 
C 0.328611 -0.565816 0.167729 -0.632456 0 -0.632456 
C -0.167729 -0.632456 -0.328611 -0.565816 -0.447214 -0.447214 
C -0.565816 -0.328611 -0.632456 -0.167729 -0.632456 0 
C -0.632456 0.167729 -0.565816 0.328611 -0.447214 0.447214 
C -0.328611 0.565816 -0.167729 0.632456 0 0.632456 
z
"/>
    </defs>
    <g clip-path="url(#p70c0eb50bb)">
     <use xlink:href="#C3_0_58a53fae3b" x="83.1" y="98.516902" style="fill: #ff4500; stroke: #ff4500"/>
    </g>
    <g clip-path="url(#p70c0eb50bb)">
     <use xlink:href="#C3_0_58a53fae3b" x="84.723088" y="98.505674" style="fill: #ff4500; stroke: #ff4500"/>
    </g>
    <g clip-path="url(#p70c0eb50bb)">
     <use xlink:href="#C3_0_58a53fae3b" x="86.346185" y="98.497651" style="fill: #ff4500; stroke: #ff4500"/>
    </g>
    <g clip-path="url(#p70c0eb50bb)">
     <use xlink:href="#C3_0_58a53fae3b" x="87.969279" y="98.488397" style="fill: #ff4500; stroke: #ff4500"/>
    </g>
    <g clip-path="url(#p70c0eb50bb)">
     <use xlink:href="#C3_0_58a53fae3b" x="89.592384" y="98.486139" style="fill: #ff4500; stroke: #ff4500"/>
    </g>
    <g clip-path="url(#p70c0eb50bb)">
     <use xlink:href="#C3_0_58a53fae3b" x="91.215489" y="98.483335" style="fill: #ff4500; stroke: #ff4500"/>
    </g>
    <g clip-path="url(#p70c0eb50bb)">
     <use xlink:href="#C3_0_58a53fae3b" x="83.1" y="94.190018" style="fill: #ff4500; stroke: #ff4500"/>
    </g>
   </g>
   <g id="matplotlib.axis_1">
    <g id="xtick_1">
     <g id="line2d_1">
      <defs>
       <path id="m1e4a046a89" d="M 0 0 
L 0 3.5 
" style="stroke: #000000; stroke-width: 0.8"/>
      </defs>
      <g>
       <use xlink:href="#m1e4a046a89" x="27.3" y="130.977391" style="stroke: #000000; stroke-width: 0.8"/>
      </g>
     </g>
     <g id="text_1">
      <text style="font: 12px 'Helvetica', sans-serif; text-anchor: middle" x="27.3" y="146.585516" transform="rotate(-0 27.3 146.585516)">C</text>
     </g>
    </g>
    <g id="xtick_2">
     <g id="line2d_2">
      <g>
       <use xlink:href="#m1e4a046a89" x="45.9" y="130.977391" style="stroke: #000000; stroke-width: 0.8"/>
      </g>
     </g>
     <g id="text_2">
      <text style="font: 12px 'Helvetica', sans-serif; text-anchor: middle" x="45.9" y="146.585516" transform="rotate(-0 45.9 146.585516)">T</text>
     </g>
    </g>
    <g id="xtick_3">
     <g id="line2d_3">
      <g>
       <use xlink:href="#m1e4a046a89" x="64.5" y="130.977391" style="stroke: #000000; stroke-width: 0.8"/>
      </g>
     </g>
     <g id="text_3">
      <text style="font: 12px 'Helvetica', sans-serif; text-anchor: middle" x="64.5" y="146.585516" transform="rotate(-0 64.5 146.585516)">C</text>
     </g>
    </g>
    <g id="xtick_4">
     <g id="line2d_4">
      <g>
       <use xlink:href="#m1e4a046a89" x="83.1" y="130.977391" style="stroke: #000000; stroke-width: 0.8"/>
      </g>
     </g>
     <g id="text_4">
      <text style="font: 12px 'Helvetica', sans-serif; text-anchor: middle" x="83.1" y="146.585516" transform="rotate(-0 83.1 146.585516)">T</text>
     </g>
    </g>
   </g>
   <g id="matplotlib.axis_2">
    <g id="ytick_1">
     <g id="line2d_5">
      <defs>
       <path id="m83f05fef2a" d="M 0 0 
L -3.5 0 
" style="stroke: #000000; stroke-width: 0.8"/>
      </defs>
      <g>
       <use xlink:href="#m83f05fef2a" x="18" y="124.549565" style="stroke: #000000; stroke-width: 0.8"/>
      </g>
     </g>
     <g id="text_5">
      <text style="font: 6px 'Helvetica', sans-serif; text-anchor: end" x="11" y="126.701596" transform="rotate(-0 11 126.701596)">−4</text>
     </g>
    </g>
    <g id="ytick_2">
     <g id="line2d_6">
      <g>
       <use xlink:href="#m83f05fef2a" x="18" y="111.693913" style="stroke: #000000; stroke-width: 0.8"/>
      </g>
     </g>
     <g id="text_6">
      <text style="font: 6px 'Helvetica', sans-serif; text-anchor: end" x="11" y="113.845944" transform="rotate(-0 11 113.845944)">−2</text>
     </g>
    </g>
    <g id="ytick_3">
     <g id="line2d_7">
      <g>
       <use xlink:href="#m83f05fef2a" x="18" y="98.838261" style="stroke: #000000; stroke-width: 0.8"/>
      </g>
     </g>
     <g id="text_7">
      <text style="font: 6px 'Helvetica', sans-serif; text-anchor: end" x="11" y="100.990292" transform="rotate(-0 11 100.990292)">0</text>
     </g>
    </g>
    <g id="ytick_4">
     <g id="line2d_8">
      <g>
       <use xlink:href="#m83f05fef2a" x="18" y="85.982609" style="stroke: #000000; stroke-width: 0.8"/>
      </g>
     </g>
     <g id="text_8">
      <text style="font: 6px 'Helvetica', sans-serif; text-anchor: end" x="11" y="88.13464" transform="rotate(-0 11 88.13464)">2</text>
     </g>
    </g>
    <g id="ytick_5">
     <g id="line2d_9">
      <g>
       <use xlink:href="#m83f05fef2a" x="18" y="73.126957" style="stroke: #000000; stroke-width: 0.8"/>
      </g>
     </g>
     <g id="text_9">
      <text style="font: 6px 'Helvetica', sans-serif; text-anchor: end" x="11" y="75.278988" transform="rotate(-0 11 75.278988)">4</text>
     </g>
    </g>
    <g id="ytick_6">
     <g id="line2d_10">
      <g>
       <use xlink:href="#m83f05fef2a" x="18" y="60.271304" style="stroke: #000000; stroke-width: 0.8"/>
      </g>
     </g>
     <g id="text_10">
      <text style="font: 6px 'Helvetica', sans-serif; text-anchor: end" x="11" y="62.423336" transform="rotate(-0 11 62.423336)">6</text>
     </g>
    </g>
    <g id="ytick_7">
     <g id="line2d_11">
      <g>
       <use xlink:href="#m83f05fef2a" x="18" y="47.415652" style="stroke: #000000; stroke-width: 0.8"/>
      </g>
     </g>
     <g id="text_11">
      <text style="font: 6px 'Helvetica', sans-serif; text-anchor: end" x="11" y="49.567683" transform="rotate(-0 11 49.567683)">8</text>
     </g>
    </g>
    <g id="ytick_8">
     <g id="line2d_12">
      <g>
       <use xlink:href="#m83f05fef2a" x="18" y="34.56" style="stroke: #000000; stroke-width: 0.8"/>
      </g>
     </g>
     <g id="text_12">
      <text style="font: 6px 'Helvetica', sans-serif; text-anchor: end" x="11" y="36.712031" transform="rotate(-0 11 36.712031)">10</text>
     </g>
    </g>
    <g id="text_13">
     <text style="font: 12px 'Helvetica', sans-serif; text-anchor: middle" x="-2.342187" y="82.768696" transform="rotate(-90 -2.342187 82.768696)">Speed (mm/s)</text>
    </g>
   </g>
   <g id="line2d_13">
    <path d="M 25.44 98.875559 
L 25.44 98.338685 
" style="fill: none; stroke: #000000; stroke-width: 2; stroke-linecap: square"/>
   </g>
   <g id="line2d_14">
    <path d="M 25.44 95.446163 
L 25.44 94.90929 
" style="fill: none; stroke: #000000; stroke-width: 2; stroke-linecap: square"/>
   </g>
   <g id="line2d_15">
    <path d="M 44.04 98.680186 
L 44.04 98.027181 
" style="fill: none; stroke: #000000; stroke-width: 2; stroke-linecap: square"/>
   </g>
   <g id="line2d_16">
    <path d="M 44.04 95.134659 
L 44.04 94.481655 
" style="fill: none; stroke: #000000; stroke-width: 2; stroke-linecap: square"/>
   </g>
   <g id="line2d_17">
    <path d="M 62.64 98.481151 
L 62.64 99.50463 
" style="fill: none; stroke: #000000; stroke-width: 2; stroke-linecap: square"/>
   </g>
   <g id="line2d_18">
    <path d="M 62.64 96.612108 
L 62.64 97.635587 
" style="fill: none; stroke: #000000; stroke-width: 2; stroke-linecap: square"/>
   </g>
   <g id="line2d_19">
    <path d="M 81.24 98.810938 
L 81.24 99.692 
" style="fill: none; stroke: #000000; stroke-width: 2; stroke-linecap: square"/>
   </g>
   <g id="line2d_20">
    <path d="M 81.24 96.799479 
L 81.24 97.680541 
" style="fill: none; stroke: #000000; stroke-width: 2; stroke-linecap: square"/>
   </g>
   <g id="legend_1"/>
   <g id="LineCollection_1">
    <defs>
     <path id="m85d53b3299" d="M 27.3 -157.022609 
L 45.9 -157.022609 
" style="stroke: #000000"/>
    </defs>
    <g>
     <use xlink:href="#m85d53b3299" x="0" y="288" style="stroke: #000000"/>
    </g>
   </g>
   <g id="LineCollection_2">
    <defs>
     <path id="m9f24b50280" d="M 64.5 -157.022609 
L 83.1 -157.022609 
" style="stroke: #000000"/>
    </defs>
    <g>
     <use xlink:href="#m9f24b50280" x="0" y="288" style="stroke: #000000"/>
    </g>
   </g>
   <g id="LineCollection_3">
    <defs>
     <path id="m52ed1148a8" d="M 18 -157.022609 
L 18 -253.44 
" style="stroke: #000000"/>
    </defs>
    <g>
     <use xlink:href="#m52ed1148a8" x="0" y="288" style="stroke: #000000"/>
    </g>
   </g>
  </g>
  <g id="axes_2">
   <g id="patch_6">
    <path d="M 41.25 205.791564 
L 50.55 205.791564 
L 50.55 198.760313 
L 41.25 198.760313 
z
" clip-path="url(#pe59046bd47)" style="opacity: 0.15; stroke: #000000; stroke-linejoin: miter"/>
   </g>
   <g id="patch_7">
    <path d="M 78.45 205.791564 
L 87.75 205.791564 
L 87.75 210.020887 
L 78.45 210.020887 
z
" clip-path="url(#pe59046bd47)" style="opacity: 0.15; stroke: #000000; stroke-linejoin: miter"/>
   </g>
   <g id="patch_8">
    <path d="M 115.65 205.791564 
L 124.95 205.791564 
L 124.95 217.052138 
L 115.65 217.052138 
z
" clip-path="url(#pe59046bd47)" style="opacity: 0.15; stroke: #000000; stroke-linejoin: miter"/>
   </g>
   <g id="PolyCollection_1">
    <defs>
     <path id="me4e3d80ec1" d="M 45.914418 -55.864306 
L 45.90019 -55.864306 
L 45.90019 -56.549664 
L 45.90019 -57.235023 
L 45.90019 -57.920381 
L 45.90019 -58.605739 
L 45.90019 -59.291098 
L 45.90019 -59.976456 
L 45.90019 -60.661814 
L 45.90019 -61.347173 
L 45.90019 -62.032531 
L 45.90019 -62.717889 
L 45.90019 -63.403248 
L 45.90019 -64.088606 
L 45.90019 -64.773964 
L 45.90019 -65.459323 
L 45.90019 -66.144681 
L 45.90019 -66.83004 
L 45.90019 -67.515398 
L 45.90019 -68.200756 
L 45.90019 -68.886115 
L 45.90019 -69.571473 
L 45.90019 -70.256831 
L 45.90019 -70.94219 
L 45.90019 -71.627548 
L 45.90019 -72.312906 
L 45.90019 -72.998265 
L 45.90019 -73.683623 
L 45.90019 -74.368981 
L 45.90019 -75.05434 
L 45.90019 -75.739698 
L 45.90019 -76.425056 
L 45.90019 -77.110415 
L 45.90019 -77.795773 
L 45.90019 -78.481131 
L 45.90019 -79.16649 
L 45.90019 -79.851848 
L 45.90019 -80.537207 
L 45.90019 -81.222565 
L 45.90019 -81.907923 
L 45.90019 -82.593282 
L 45.90019 -83.27864 
L 45.90019 -83.963998 
L 45.90019 -84.649357 
L 45.90019 -85.334715 
L 45.90019 -86.020073 
L 45.90019 -86.705432 
L 45.90019 -87.39079 
L 45.90019 -88.076148 
L 45.90019 -88.761507 
L 45.90019 -89.446865 
L 45.90019 -90.132223 
L 45.90019 -90.817582 
L 45.90019 -91.50294 
L 45.90019 -92.188298 
L 45.90019 -92.873657 
L 45.90019 -93.559015 
L 45.90019 -94.244374 
L 45.90019 -94.929732 
L 45.90019 -95.61509 
L 45.90019 -96.300449 
L 45.90019 -96.985807 
L 45.90019 -97.671165 
L 45.90019 -98.356524 
L 45.90019 -99.041882 
L 45.90019 -99.72724 
L 45.90019 -100.412599 
L 45.90019 -101.097957 
L 45.90019 -101.783315 
L 45.90019 -102.468674 
L 45.90019 -103.154032 
L 45.90019 -103.83939 
L 45.90019 -104.524749 
L 45.90019 -105.210107 
L 45.90019 -105.895466 
L 45.90019 -106.580824 
L 45.90019 -107.266182 
L 45.90019 -107.951541 
L 45.90019 -108.636899 
L 45.90019 -109.322257 
L 45.90019 -110.007616 
L 45.90019 -110.692974 
L 45.90019 -111.378332 
L 45.90019 -112.063691 
L 45.90019 -112.749049 
L 45.90019 -113.434407 
L 45.90019 -114.119766 
L 45.90019 -114.805124 
L 45.90019 -115.490482 
L 45.90019 -116.175841 
L 45.90019 -116.861199 
L 45.90019 -117.546557 
L 45.90019 -118.231916 
L 45.90019 -118.917274 
L 45.90019 -119.602633 
L 45.90019 -120.287991 
L 45.90019 -120.973349 
L 45.90019 -121.658708 
L 45.90019 -122.344066 
L 45.90019 -123.029424 
L 45.90019 -123.714783 
L 45.909666 -123.714783 
L 45.909666 -123.714783 
L 45.912641 -123.029424 
L 45.916158 -122.344066 
L 45.920272 -121.658708 
L 45.924874 -120.973349 
L 45.929893 -120.287991 
L 45.935745 -119.602633 
L 45.943692 -118.917274 
L 45.955679 -118.231916 
L 45.973474 -117.546557 
L 45.997513 -116.861199 
L 46.026326 -116.175841 
L 46.057242 -115.490482 
L 46.088138 -114.805124 
L 46.11902 -114.119766 
L 46.152329 -113.434407 
L 46.191876 -112.749049 
L 46.24113 -112.063691 
L 46.30156 -111.378332 
L 46.371534 -110.692974 
L 46.446381 -110.007616 
L 46.520323 -109.322257 
L 46.590111 -108.636899 
L 46.658512 -107.951541 
L 46.73486 -107.266182 
L 46.831267 -106.580824 
L 46.956171 -105.895466 
L 47.109049 -105.210107 
L 47.279556 -104.524749 
L 47.451819 -103.83939 
L 47.612268 -103.154032 
L 47.757701 -102.468674 
L 47.899239 -101.783315 
L 48.058536 -101.097957 
L 48.256394 -100.412599 
L 48.499236 -99.72724 
L 48.771639 -99.041882 
L 49.040651 -98.356524 
L 49.270952 -97.671165 
L 49.442779 -96.985807 
L 49.561549 -96.300449 
L 49.652679 -95.61509 
L 49.745606 -94.929732 
L 49.858635 -94.244374 
L 49.993639 -93.559015 
L 50.140106 -92.873657 
L 50.282039 -92.188298 
L 50.403261 -91.50294 
L 50.491155 -90.817582 
L 50.539605 -90.132223 
L 50.55 -89.446865 
L 50.529232 -88.761507 
L 50.485919 -88.076148 
L 50.427205 -87.39079 
L 50.357176 -86.705432 
L 50.27653 -86.020073 
L 50.18328 -85.334715 
L 50.074445 -84.649357 
L 49.947869 -83.963998 
L 49.802678 -83.27864 
L 49.638155 -82.593282 
L 49.452894 -81.907923 
L 49.246213 -81.222565 
L 49.021285 -80.537207 
L 48.786785 -79.851848 
L 48.5544 -79.16649 
L 48.333441 -78.481131 
L 48.127085 -77.795773 
L 47.93361 -77.110415 
L 47.751264 -76.425056 
L 47.582032 -75.739698 
L 47.430857 -75.05434 
L 47.301108 -74.368981 
L 47.190266 -73.683623 
L 47.089607 -72.998265 
L 46.988577 -72.312906 
L 46.880792 -71.627548 
L 46.767101 -70.94219 
L 46.653632 -70.256831 
L 46.547035 -69.571473 
L 46.451118 -68.886115 
L 46.366855 -68.200756 
L 46.294177 -67.515398 
L 46.232954 -66.83004 
L 46.182571 -66.144681 
L 46.141459 -65.459323 
L 46.107533 -64.773964 
L 46.07897 -64.088606 
L 46.054446 -63.403248 
L 46.032897 -62.717889 
L 46.013427 -62.032531 
L 45.995575 -61.347173 
L 45.979474 -60.661814 
L 45.965527 -59.976456 
L 45.953832 -59.291098 
L 45.943961 -58.605739 
L 45.935274 -57.920381 
L 45.927398 -57.235023 
L 45.920373 -56.549664 
L 45.914418 -55.864306 
z
"/>
    </defs>
    <g clip-path="url(#pe59046bd47)">
     <use xlink:href="#me4e3d80ec1" x="0" y="288" style="fill: #808080; fill-opacity: 0.8"/>
    </g>
   </g>
   <g id="PolyCollection_2">
    <defs>
     <path id="m3cacb6de12" d="M 83.106027 -71.582526 
L 83.100085 -71.582526 
L 83.100085 -71.737916 
L 83.100085 -71.893306 
L 83.100085 -72.048696 
L 83.100085 -72.204086 
L 83.100085 -72.359476 
L 83.100085 -72.514865 
L 83.100085 -72.670255 
L 83.100085 -72.825645 
L 83.100085 -72.981035 
L 83.100085 -73.136425 
L 83.100085 -73.291815 
L 83.100085 -73.447205 
L 83.100085 -73.602595 
L 83.100085 -73.757985 
L 83.100085 -73.913375 
L 83.100085 -74.068765 
L 83.100085 -74.224155 
L 83.100085 -74.379545 
L 83.100085 -74.534935 
L 83.100085 -74.690325 
L 83.100085 -74.845715 
L 83.100085 -75.001104 
L 83.100085 -75.156494 
L 83.100085 -75.311884 
L 83.100085 -75.467274 
L 83.100085 -75.622664 
L 83.100085 -75.778054 
L 83.100085 -75.933444 
L 83.100085 -76.088834 
L 83.100085 -76.244224 
L 83.100085 -76.399614 
L 83.100085 -76.555004 
L 83.100085 -76.710394 
L 83.100085 -76.865784 
L 83.100085 -77.021174 
L 83.100085 -77.176564 
L 83.100085 -77.331953 
L 83.100085 -77.487343 
L 83.100085 -77.642733 
L 83.100085 -77.798123 
L 83.100085 -77.953513 
L 83.100085 -78.108903 
L 83.100085 -78.264293 
L 83.100085 -78.419683 
L 83.100085 -78.575073 
L 83.100085 -78.730463 
L 83.100085 -78.885853 
L 83.100085 -79.041243 
L 83.100085 -79.196633 
L 83.100085 -79.352023 
L 83.100085 -79.507413 
L 83.100085 -79.662803 
L 83.100085 -79.818192 
L 83.100085 -79.973582 
L 83.100085 -80.128972 
L 83.100085 -80.284362 
L 83.100085 -80.439752 
L 83.100085 -80.595142 
L 83.100085 -80.750532 
L 83.100085 -80.905922 
L 83.100085 -81.061312 
L 83.100085 -81.216702 
L 83.100085 -81.372092 
L 83.100085 -81.527482 
L 83.100085 -81.682872 
L 83.100085 -81.838262 
L 83.100085 -81.993652 
L 83.100085 -82.149042 
L 83.100085 -82.304431 
L 83.100085 -82.459821 
L 83.100085 -82.615211 
L 83.100085 -82.770601 
L 83.100085 -82.925991 
L 83.100085 -83.081381 
L 83.100085 -83.236771 
L 83.100085 -83.392161 
L 83.100085 -83.547551 
L 83.100085 -83.702941 
L 83.100085 -83.858331 
L 83.100085 -84.013721 
L 83.100085 -84.169111 
L 83.100085 -84.324501 
L 83.100085 -84.479891 
L 83.100085 -84.63528 
L 83.100085 -84.79067 
L 83.100085 -84.94606 
L 83.100085 -85.10145 
L 83.100085 -85.25684 
L 83.100085 -85.41223 
L 83.100085 -85.56762 
L 83.100085 -85.72301 
L 83.100085 -85.8784 
L 83.100085 -86.03379 
L 83.100085 -86.18918 
L 83.100085 -86.34457 
L 83.100085 -86.49996 
L 83.100085 -86.65535 
L 83.100085 -86.81074 
L 83.100085 -86.96613 
L 83.105115 -86.96613 
L 83.105115 -86.96613 
L 83.104606 -86.81074 
L 83.10338 -86.65535 
L 83.102117 -86.49996 
L 83.101464 -86.34457 
L 83.101891 -86.18918 
L 83.103743 -86.03379 
L 83.10707 -85.8784 
L 83.111198 -85.72301 
L 83.114697 -85.56762 
L 83.116273 -85.41223 
L 83.115969 -85.25684 
L 83.11528 -85.10145 
L 83.11595 -84.94606 
L 83.11882 -84.79067 
L 83.123889 -84.63528 
L 83.13108 -84.479891 
L 83.140632 -84.324501 
L 83.152904 -84.169111 
L 83.167754 -84.013721 
L 83.183807 -83.858331 
L 83.198876 -83.702941 
L 83.212434 -83.547551 
L 83.22791 -83.392161 
L 83.251237 -83.236771 
L 83.286392 -83.081381 
L 83.332975 -82.925991 
L 83.388064 -82.770601 
L 83.448609 -82.615211 
L 83.510732 -82.459821 
L 83.568318 -82.304431 
L 83.615859 -82.149042 
L 83.655024 -81.993652 
L 83.697613 -81.838262 
L 83.759396 -81.682872 
L 83.848963 -81.527482 
L 83.962035 -81.372092 
L 84.08649 -81.216702 
L 84.212472 -81.061312 
L 84.338229 -80.905922 
L 84.468937 -80.750532 
L 84.61265 -80.595142 
L 84.777046 -80.439752 
L 84.967253 -80.284362 
L 85.184254 -80.128972 
L 85.4231 -79.973582 
L 85.670476 -79.818192 
L 85.905879 -79.662803 
L 86.112322 -79.507413 
L 86.291064 -79.352023 
L 86.463086 -79.196633 
L 86.650091 -79.041243 
L 86.852151 -78.885853 
L 87.045886 -78.730463 
L 87.205697 -78.575073 
L 87.325853 -78.419683 
L 87.421301 -78.264293 
L 87.509676 -78.108903 
L 87.596053 -77.953513 
L 87.672942 -77.798123 
L 87.728 -77.642733 
L 87.75 -77.487343 
L 87.73331 -77.331953 
L 87.68014 -77.176564 
L 87.595138 -77.021174 
L 87.475809 -76.865784 
L 87.312037 -76.710394 
L 87.098115 -76.555004 
L 86.843356 -76.399614 
L 86.568452 -76.244224 
L 86.291812 -76.088834 
L 86.019509 -75.933444 
L 85.746182 -75.778054 
L 85.464102 -75.622664 
L 85.172846 -75.467274 
L 84.882456 -75.311884 
L 84.60821 -75.156494 
L 84.362413 -75.001104 
L 84.15022 -74.845715 
L 83.970881 -74.690325 
L 83.820698 -74.534935 
L 83.694551 -74.379545 
L 83.586478 -74.224155 
L 83.491164 -74.068765 
L 83.406069 -73.913375 
L 83.332177 -73.757985 
L 83.27219 -73.602595 
L 83.227394 -73.447205 
L 83.195876 -73.291815 
L 83.173594 -73.136425 
L 83.156867 -72.981035 
L 83.143726 -72.825645 
L 83.133417 -72.670255 
L 83.12539 -72.514865 
L 83.119021 -72.359476 
L 83.113949 -72.204086 
L 83.110235 -72.048696 
L 83.10798 -71.893306 
L 83.106837 -71.737916 
L 83.106027 -71.582526 
z
"/>
    </defs>
    <g clip-path="url(#pe59046bd47)">
     <use xlink:href="#m3cacb6de12" x="0" y="288" style="fill: #808080; fill-opacity: 0.8"/>
    </g>
   </g>
   <g id="PolyCollection_3">
    <defs>
     <path id="m978fbaf735" d="M 120.317758 -36.062609 
L 120.300201 -36.062609 
L 120.300201 -36.804154 
L 120.300201 -37.5457 
L 120.300201 -38.287246 
L 120.300201 -39.028791 
L 120.300201 -39.770337 
L 120.300201 -40.511882 
L 120.300201 -41.253428 
L 120.300201 -41.994974 
L 120.300201 -42.736519 
L 120.300201 -43.478065 
L 120.300201 -44.21961 
L 120.300201 -44.961156 
L 120.300201 -45.702702 
L 120.300201 -46.444247 
L 120.300201 -47.185793 
L 120.300201 -47.927339 
L 120.300201 -48.668884 
L 120.300201 -49.41043 
L 120.300201 -50.151975 
L 120.300201 -50.893521 
L 120.300201 -51.635067 
L 120.300201 -52.376612 
L 120.300201 -53.118158 
L 120.300201 -53.859703 
L 120.300201 -54.601249 
L 120.300201 -55.342795 
L 120.300201 -56.08434 
L 120.300201 -56.825886 
L 120.300201 -57.567431 
L 120.300201 -58.308977 
L 120.300201 -59.050523 
L 120.300201 -59.792068 
L 120.300201 -60.533614 
L 120.300201 -61.27516 
L 120.300201 -62.016705 
L 120.300201 -62.758251 
L 120.300201 -63.499796 
L 120.300201 -64.241342 
L 120.300201 -64.982888 
L 120.300201 -65.724433 
L 120.300201 -66.465979 
L 120.300201 -67.207524 
L 120.300201 -67.94907 
L 120.300201 -68.690616 
L 120.300201 -69.432161 
L 120.300201 -70.173707 
L 120.300201 -70.915252 
L 120.300201 -71.656798 
L 120.300201 -72.398344 
L 120.300201 -73.139889 
L 120.300201 -73.881435 
L 120.300201 -74.622981 
L 120.300201 -75.364526 
L 120.300201 -76.106072 
L 120.300201 -76.847617 
L 120.300201 -77.589163 
L 120.300201 -78.330709 
L 120.300201 -79.072254 
L 120.300201 -79.8138 
L 120.300201 -80.555345 
L 120.300201 -81.296891 
L 120.300201 -82.038437 
L 120.300201 -82.779982 
L 120.300201 -83.521528 
L 120.300201 -84.263074 
L 120.300201 -85.004619 
L 120.300201 -85.746165 
L 120.300201 -86.48771 
L 120.300201 -87.229256 
L 120.300201 -87.970802 
L 120.300201 -88.712347 
L 120.300201 -89.453893 
L 120.300201 -90.195438 
L 120.300201 -90.936984 
L 120.300201 -91.67853 
L 120.300201 -92.420075 
L 120.300201 -93.161621 
L 120.300201 -93.903166 
L 120.300201 -94.644712 
L 120.300201 -95.386258 
L 120.300201 -96.127803 
L 120.300201 -96.869349 
L 120.300201 -97.610895 
L 120.300201 -98.35244 
L 120.300201 -99.093986 
L 120.300201 -99.835531 
L 120.300201 -100.577077 
L 120.300201 -101.318623 
L 120.300201 -102.060168 
L 120.300201 -102.801714 
L 120.300201 -103.543259 
L 120.300201 -104.284805 
L 120.300201 -105.026351 
L 120.300201 -105.767896 
L 120.300201 -106.509442 
L 120.300201 -107.250988 
L 120.300201 -107.992533 
L 120.300201 -108.734079 
L 120.300201 -109.475624 
L 120.305234 -109.475624 
L 120.305234 -109.475624 
L 120.305056 -108.734079 
L 120.304616 -107.992533 
L 120.304734 -107.250988 
L 120.306294 -106.509442 
L 120.30992 -105.767896 
L 120.315827 -105.026351 
L 120.323818 -104.284805 
L 120.333384 -103.543259 
L 120.343837 -102.801714 
L 120.354479 -102.060168 
L 120.364751 -101.318623 
L 120.37431 -100.577077 
L 120.383066 -99.835531 
L 120.391313 -99.093986 
L 120.400005 -98.35244 
L 120.410954 -97.610895 
L 120.426618 -96.869349 
L 120.449376 -96.127803 
L 120.480716 -95.386258 
L 120.521089 -94.644712 
L 120.57068 -93.903166 
L 120.630171 -93.161621 
L 120.700367 -92.420075 
L 120.781167 -91.67853 
L 120.871726 -90.936984 
L 120.972294 -90.195438 
L 121.085751 -89.453893 
L 121.21634 -88.712347 
L 121.365737 -87.970802 
L 121.529759 -87.229256 
L 121.69933 -86.48771 
L 121.866035 -85.746165 
L 122.028164 -85.004619 
L 122.192083 -84.263074 
L 122.367866 -83.521528 
L 122.563562 -82.779982 
L 122.782509 -82.038437 
L 123.023063 -81.296891 
L 123.27759 -80.555345 
L 123.531127 -79.8138 
L 123.763807 -79.072254 
L 123.958803 -78.330709 
L 124.110971 -77.589163 
L 124.228437 -76.847617 
L 124.324947 -76.106072 
L 124.410292 -75.364526 
L 124.487855 -74.622981 
L 124.55953 -73.881435 
L 124.630117 -73.139889 
L 124.705632 -72.398344 
L 124.787502 -71.656798 
L 124.867766 -70.915252 
L 124.928914 -70.173707 
L 124.95 -69.432161 
L 124.916905 -68.690616 
L 124.829593 -67.94907 
L 124.699998 -67.207524 
L 124.542653 -66.465979 
L 124.366325 -65.724433 
L 124.171992 -64.982888 
L 123.956621 -64.241342 
L 123.719736 -63.499796 
L 123.468585 -62.758251 
L 123.217456 -62.016705 
L 122.981002 -61.27516 
L 122.767482 -60.533614 
L 122.577566 -59.792068 
L 122.407619 -59.050523 
L 122.252496 -58.308977 
L 122.105972 -57.567431 
L 121.961244 -56.825886 
L 121.813262 -56.08434 
L 121.661184 -55.342795 
L 121.508544 -54.601249 
L 121.361072 -53.859703 
L 121.224007 -53.118158 
L 121.100515 -52.376612 
L 120.991698 -51.635067 
L 120.897492 -50.893521 
L 120.81712 -50.151975 
L 120.748693 -49.41043 
L 120.689201 -48.668884 
L 120.635906 -47.927339 
L 120.587873 -47.185793 
L 120.545596 -46.444247 
L 120.508998 -45.702702 
L 120.476326 -44.961156 
L 120.44532 -44.21961 
L 120.415231 -43.478065 
L 120.387389 -42.736519 
L 120.363907 -41.994974 
L 120.346056 -41.253428 
L 120.333726 -40.511882 
L 120.325956 -39.770337 
L 120.321654 -39.028791 
L 120.319844 -38.287246 
L 120.319455 -37.5457 
L 120.31917 -36.804154 
L 120.317758 -36.062609 
z
"/>
    </defs>
    <g clip-path="url(#pe59046bd47)">
     <use xlink:href="#m978fbaf735" x="0" y="288" style="fill: #808080; fill-opacity: 0.8"/>
    </g>
   </g>
   <g id="matplotlib.axis_3">
    <g id="xtick_5">
     <g id="line2d_21">
      <g>
       <use xlink:href="#m1e4a046a89" x="27.3" y="256.32" style="stroke: #000000; stroke-width: 0.8"/>
      </g>
     </g>
    </g>
    <g id="xtick_6">
     <g id="line2d_22">
      <g>
       <use xlink:href="#m1e4a046a89" x="45.9" y="256.32" style="stroke: #000000; stroke-width: 0.8"/>
      </g>
     </g>
     <g id="text_14">
      <text style="font: 12px 'Helvetica', sans-serif; text-anchor: middle" x="45.9" y="271.928125" transform="rotate(-0 45.9 271.928125)">Off</text>
     </g>
    </g>
    <g id="xtick_7">
     <g id="line2d_23">
      <g>
       <use xlink:href="#m1e4a046a89" x="64.5" y="256.32" style="stroke: #000000; stroke-width: 0.8"/>
      </g>
     </g>
    </g>
    <g id="xtick_8">
     <g id="line2d_24">
      <g>
       <use xlink:href="#m1e4a046a89" x="83.1" y="256.32" style="stroke: #000000; stroke-width: 0.8"/>
      </g>
     </g>
     <g id="text_15">
      <text style="font: 12px 'Helvetica', sans-serif; text-anchor: middle" x="83.1" y="271.928125" transform="rotate(-0 83.1 271.928125)">On</text>
     </g>
    </g>
    <g id="xtick_9">
     <g id="line2d_25">
      <g>
       <use xlink:href="#m1e4a046a89" x="101.7" y="256.32" style="stroke: #000000; stroke-width: 0.8"/>
      </g>
     </g>
    </g>
    <g id="xtick_10">
     <g id="line2d_26">
      <g>
       <use xlink:href="#m1e4a046a89" x="120.3" y="256.32" style="stroke: #000000; stroke-width: 0.8"/>
      </g>
     </g>
     <g id="text_16">
      <!-- $\Delta\Delta$ -->
      <g transform="translate(112.08 271.928125)">
       <text>
        <tspan style="font: 12px 'DejaVu Sans'" x="0 8.208984" y="-0.25">ΔΔ</tspan>
       </text>
      </g>
     </g>
    </g>
   </g>
   <g id="matplotlib.axis_4">
    <g id="ytick_9">
     <g id="line2d_27">
      <g>
       <use xlink:href="#m83f05fef2a" x="18" y="249.318119" style="stroke: #000000; stroke-width: 0.8"/>
      </g>
     </g>
     <g id="text_17">
      <text style="font: 6px 'Helvetica', sans-serif; text-anchor: end" x="11" y="251.470151" transform="rotate(-0 11 251.470151)">−0.3</text>
     </g>
    </g>
    <g id="ytick_10">
     <g id="line2d_28">
      <g>
       <use xlink:href="#m83f05fef2a" x="18" y="234.809268" style="stroke: #000000; stroke-width: 0.8"/>
      </g>
     </g>
     <g id="text_18">
      <text style="font: 6px 'Helvetica', sans-serif; text-anchor: end" x="11" y="236.961299" transform="rotate(-0 11 236.961299)">−0.2</text>
     </g>
    </g>
    <g id="ytick_11">
     <g id="line2d_29">
      <g>
       <use xlink:href="#m83f05fef2a" x="18" y="220.300416" style="stroke: #000000; stroke-width: 0.8"/>
      </g>
     </g>
     <g id="text_19">
      <text style="font: 6px 'Helvetica', sans-serif; text-anchor: end" x="11" y="222.452447" transform="rotate(-0 11 222.452447)">−0.1</text>
     </g>
    </g>
    <g id="ytick_12">
     <g id="line2d_30">
      <g>
       <use xlink:href="#m83f05fef2a" x="18" y="205.791564" style="stroke: #000000; stroke-width: 0.8"/>
      </g>
     </g>
     <g id="text_20">
      <text style="font: 6px 'Helvetica', sans-serif; text-anchor: end" x="11" y="207.943595" transform="rotate(-0 11 207.943595)">0.0</text>
     </g>
    </g>
    <g id="ytick_13">
     <g id="line2d_31">
      <g>
       <use xlink:href="#m83f05fef2a" x="18" y="191.282712" style="stroke: #000000; stroke-width: 0.8"/>
      </g>
     </g>
     <g id="text_21">
      <text style="font: 6px 'Helvetica', sans-serif; text-anchor: end" x="11" y="193.434743" transform="rotate(-0 11 193.434743)">0.1</text>
     </g>
    </g>
    <g id="ytick_14">
     <g id="line2d_32">
      <g>
       <use xlink:href="#m83f05fef2a" x="18" y="176.77386" style="stroke: #000000; stroke-width: 0.8"/>
      </g>
     </g>
     <g id="text_22">
      <text style="font: 6px 'Helvetica', sans-serif; text-anchor: end" x="11" y="178.925891" transform="rotate(-0 11 178.925891)">0.2</text>
     </g>
    </g>
    <g id="ytick_15">
     <g id="line2d_33">
      <g>
       <use xlink:href="#m83f05fef2a" x="18" y="162.265008" style="stroke: #000000; stroke-width: 0.8"/>
      </g>
     </g>
     <g id="text_23">
      <text style="font: 6px 'Helvetica', sans-serif; text-anchor: end" x="11" y="164.41704" transform="rotate(-0 11 164.41704)">0.3</text>
     </g>
    </g>
    <g id="text_24">
     <!-- $\Delta$ Speed (mm/s) -->
     <g transform="translate(-7.364375 251.611304) rotate(-90)">
      <text>
       <tspan style="font: 12px 'DejaVu Sans'" x="0" y="-0.15625">Δ</tspan>
       <tspan style="font: 12px 'Helvetica'" x="8.208984 11.542969 19.546875 26.220703 32.894531 39.568359 46.242188 49.576172 53.572266 63.568359 73.564453 76.898438 82.898438" y="-0.15625"> Speed (mm/s)</tspan>
      </text>
     </g>
    </g>
   </g>
   <g id="line2d_34">
    <path d="M 45.9 198.760313 
" clip-path="url(#pe59046bd47)" style="fill: none; stroke: #000000; stroke-width: 1.5; stroke-linecap: square"/>
    <defs>
     <path id="mf78124c56e" d="M 0 2.5 
C 0.663008 2.5 1.29895 2.236584 1.767767 1.767767 
C 2.236584 1.29895 2.5 0.663008 2.5 0 
C 2.5 -0.663008 2.236584 -1.29895 1.767767 -1.767767 
C 1.29895 -2.236584 0.663008 -2.5 0 -2.5 
C -0.663008 -2.5 -1.29895 -2.236584 -1.767767 -1.767767 
C -2.236584 -1.29895 -2.5 -0.663008 -2.5 0 
C -2.5 0.663008 -2.236584 1.29895 -1.767767 1.767767 
C -1.29895 2.236584 -0.663008 2.5 0 2.5 
z
" style="stroke: #000000"/>
    </defs>
    <g clip-path="url(#pe59046bd47)">
     <use xlink:href="#mf78124c56e" x="45.9" y="198.760313" style="stroke: #000000"/>
    </g>
   </g>
   <g id="line2d_35">
    <path d="M 45.9 217.805759 
L 45.9 179.495771 
" clip-path="url(#pe59046bd47)" style="fill: none; stroke: #000000; stroke-width: 2; stroke-linecap: square"/>
   </g>
   <g id="line2d_36">
    <path d="M 83.1 210.020887 
" clip-path="url(#pe59046bd47)" style="fill: none; stroke: #000000; stroke-width: 1.5; stroke-linecap: square"/>
    <g clip-path="url(#pe59046bd47)">
     <use xlink:href="#mf78124c56e" x="83.1" y="210.020887" style="stroke: #000000"/>
    </g>
   </g>
   <g id="line2d_37">
    <path d="M 83.1 212.758775 
L 83.1 205.049846 
" clip-path="url(#pe59046bd47)" style="fill: none; stroke: #000000; stroke-width: 2; stroke-linecap: square"/>
   </g>
   <g id="line2d_38">
    <path d="M 120.3 217.052138 
" clip-path="url(#pe59046bd47)" style="fill: none; stroke: #000000; stroke-width: 1.5; stroke-linecap: square"/>
    <g clip-path="url(#pe59046bd47)">
     <use xlink:href="#mf78124c56e" x="120.3" y="217.052138" style="stroke: #000000"/>
    </g>
   </g>
   <g id="line2d_39">
    <path d="M 120.3 236.40417 
L 120.3 197.977966 
" clip-path="url(#pe59046bd47)" style="fill: none; stroke: #000000; stroke-width: 2; stroke-linecap: square"/>
   </g>
   <g id="line2d_40">
    <path d="M 18 205.791564 
L 129.6 205.791564 
" clip-path="url(#pe59046bd47)" style="fill: none; stroke: #000000; stroke-width: 0.75; stroke-linecap: square"/>
   </g>
   <g id="LineCollection_4">
    <defs>
     <path id="md11a7a83de" d="M 27.3 -31.68 
L 45.9 -31.68 
" style="stroke: #000000"/>
    </defs>
    <g>
     <use xlink:href="#md11a7a83de" x="0" y="288" style="stroke: #000000"/>
    </g>
   </g>
   <g id="LineCollection_5">
    <defs>
     <path id="mb1d2003b4c" d="M 64.5 -31.68 
L 83.1 -31.68 
" style="stroke: #000000"/>
    </defs>
    <g>
     <use xlink:href="#mb1d2003b4c" x="0" y="288" style="stroke: #000000"/>
    </g>
   </g>
   <g id="LineCollection_6">
    <defs>
     <path id="ma2b69a8286" d="M 101.7 -31.68 
L 120.3 -31.68 
" style="stroke: #000000"/>
    </defs>
    <g>
     <use xlink:href="#ma2b69a8286" x="0" y="288" style="stroke: #000000"/>
    </g>
   </g>
   <g id="LineCollection_7">
    <defs>
     <path id="m5d92bbd493" d="M 18 -31.68 
L 18 -128.097391 
" style="stroke: #000000"/>
    </defs>
    <g>
     <use xlink:href="#m5d92bbd493" x="0" y="288" style="stroke: #000000"/>
    </g>
   </g>
  </g>
  <g id="axes_3">
   <g id="matplotlib.axis_5">
    <g id="ytick_16">
     <g id="line2d_41">
      <defs>
       <path id="m776d5a912f" d="M 0 0 
L 3.5 0 
" style="stroke: #000000; stroke-width: 0.8"/>
      </defs>
      <g>
       <use xlink:href="#m776d5a912f" x="129.6" y="249.318119" style="stroke: #000000; stroke-width: 0.8"/>
      </g>
     </g>
     <g id="text_25">
      <text style="font: 6px 'Helvetica', sans-serif; text-anchor: start" x="136.6" y="251.470151" transform="rotate(-0 136.6 251.470151)">−0.3</text>
     </g>
    </g>
    <g id="ytick_17">
     <g id="line2d_42">
      <g>
       <use xlink:href="#m776d5a912f" x="129.6" y="234.809268" style="stroke: #000000; stroke-width: 0.8"/>
      </g>
     </g>
     <g id="text_26">
      <text style="font: 6px 'Helvetica', sans-serif; text-anchor: start" x="136.6" y="236.961299" transform="rotate(-0 136.6 236.961299)">−0.2</text>
     </g>
    </g>
    <g id="ytick_18">
     <g id="line2d_43">
      <g>
       <use xlink:href="#m776d5a912f" x="129.6" y="220.300416" style="stroke: #000000; stroke-width: 0.8"/>
      </g>
     </g>
     <g id="text_27">
      <text style="font: 6px 'Helvetica', sans-serif; text-anchor: start" x="136.6" y="222.452447" transform="rotate(-0 136.6 222.452447)">−0.1</text>
     </g>
    </g>
    <g id="ytick_19">
     <g id="line2d_44">
      <g>
       <use xlink:href="#m776d5a912f" x="129.6" y="205.791564" style="stroke: #000000; stroke-width: 0.8"/>
      </g>
     </g>
     <g id="text_28">
      <text style="font: 6px 'Helvetica', sans-serif; text-anchor: start" x="136.6" y="207.943595" transform="rotate(-0 136.6 207.943595)">0.0</text>
     </g>
    </g>
    <g id="ytick_20">
     <g id="line2d_45">
      <g>
       <use xlink:href="#m776d5a912f" x="129.6" y="191.282712" style="stroke: #000000; stroke-width: 0.8"/>
      </g>
     </g>
     <g id="text_29">
      <text style="font: 6px 'Helvetica', sans-serif; text-anchor: start" x="136.6" y="193.434743" transform="rotate(-0 136.6 193.434743)">0.1</text>
     </g>
    </g>
    <g id="ytick_21">
     <g id="line2d_46">
      <g>
       <use xlink:href="#m776d5a912f" x="129.6" y="176.77386" style="stroke: #000000; stroke-width: 0.8"/>
      </g>
     </g>
     <g id="text_30">
      <text style="font: 6px 'Helvetica', sans-serif; text-anchor: start" x="136.6" y="178.925891" transform="rotate(-0 136.6 178.925891)">0.2</text>
     </g>
    </g>
    <g id="ytick_22">
     <g id="line2d_47">
      <g>
       <use xlink:href="#m776d5a912f" x="129.6" y="162.265008" style="stroke: #000000; stroke-width: 0.8"/>
      </g>
     </g>
     <g id="text_31">
      <text style="font: 6px 'Helvetica', sans-serif; text-anchor: start" x="136.6" y="164.41704" transform="rotate(-0 136.6 164.41704)">0.3</text>
     </g>
    </g>
    <g id="text_32">
     <!-- $\Delta\Delta$ -->
     <g transform="translate(161.0525 216.331304) rotate(-90)">
      <text>
       <tspan style="font: 12px 'DejaVu Sans'" x="0 8.208984" y="-0.25">ΔΔ</tspan>
      </text>
     </g>
    </g>
   </g>
   <g id="LineCollection_8">
    <defs>
     <path id="me75d3d37ef" d="M 129.6 -31.68 
L 129.6 -128.097391 
" style="stroke: #000000"/>
    </defs>
    <g>
     <use xlink:href="#me75d3d37ef" x="0" y="288" style="stroke: #000000"/>
    </g>
   </g>
  </g>
  <g id="text_33">
   <text style="fill: #4682b4; font: italic 500 12px 'inter'; text-anchor: middle" x="72" y="17.758125" transform="rotate(-0 72 17.758125)">SXVNC2&gt;Chr</text>
  </g>
 </g>
 <defs>
  <clipPath id="p70c0eb50bb">
   <rect x="18" y="34.56" width="111.6" height="96.417391"/>
  </clipPath>
  <clipPath id="pe59046bd47">
   <rect x="18" y="159.902609" width="111.6" height="96.417391"/>
  </clipPath>
 </defs>
</svg>
