<?xml version="1.0" encoding="utf-8" standalone="no"?>
<!DOCTYPE svg PUBLIC "-//W3C//DTD SVG 1.1//EN"
  "http://www.w3.org/Graphics/SVG/1.1/DTD/svg11.dtd">
<svg xmlns:xlink="http://www.w3.org/1999/xlink" width="144pt" height="288pt" viewBox="0 0 144 288" xmlns="http://www.w3.org/2000/svg" version="1.1">
 <metadata>
  <rdf:RDF xmlns:dc="http://purl.org/dc/elements/1.1/" xmlns:cc="http://creativecommons.org/ns#" xmlns:rdf="http://www.w3.org/1999/02/22-rdf-syntax-ns#">
   <cc:Work>
    <dc:type rdf:resource="http://purl.org/dc/dcmitype/StillImage"/>
    <dc:date>2025-02-16T02:07:51.816443</dc:date>
    <dc:format>image/svg+xml</dc:format>
    <dc:creator>
     <cc:Agent>
      <dc:title>Matplotlib v3.6.3, https://matplotlib.org/</dc:title>
     </cc:Agent>
    </dc:creator>
   </cc:Work>
  </rdf:RDF>
 </metadata>
 <defs>
  <style type="text/css">*{stroke-linejoin: round; stroke-linecap: butt}</style>
 </defs>
 <g id="figure_1">
  <g id="patch_1">
   <path d="M 0 288 
L 144 288 
L 144 0 
L 0 0 
z
" style="fill: #ffffff"/>
  </g>
  <g id="axes_1">
   <g id="patch_2">
    <path d="M 22.65 128.735126 
L 31.95 128.735126 
L 31.95 119.140348 
L 22.65 119.140348 
z
" clip-path="url(#pb50df4b4b0)" style="opacity: 0.15; stroke: #000000; stroke-linejoin: miter"/>
   </g>
   <g id="patch_3">
    <path d="M 41.25 128.735126 
L 50.55 128.735126 
L 50.55 124.191235 
L 41.25 124.191235 
z
" clip-path="url(#pb50df4b4b0)" style="opacity: 0.15; stroke: #000000; stroke-linejoin: miter"/>
   </g>
   <g id="patch_4">
    <path d="M 59.85 128.735126 
L 69.15 128.735126 
L 69.15 126.033363 
L 59.85 126.033363 
z
" clip-path="url(#pb50df4b4b0)" style="opacity: 0.15; stroke: #000000; stroke-linejoin: miter"/>
   </g>
   <g id="patch_5">
    <path d="M 78.45 128.735126 
L 87.75 128.735126 
L 87.75 126.949044 
L 78.45 126.949044 
z
" clip-path="url(#pb50df4b4b0)" style="opacity: 0.15; stroke: #000000; stroke-linejoin: miter"/>
   </g>
   <g id="PathCollection_1">
    <defs>
     <path id="C0_0_a74f5dbd1f" d="M 0 0.632456 
C 0.167729 0.632456 0.328611 0.565816 0.447214 0.447214 
C 0.565816 0.328611 0.632456 0.167729 0.632456 -0 
C 0.632456 -0.167729 0.565816 -0.328611 0.447214 -0.447214 
C 0.328611 -0.565816 0.167729 -0.632456 0 -0.632456 
C -0.167729 -0.632456 -0.328611 -0.565816 -0.447214 -0.447214 
C -0.565816 -0.328611 -0.632456 -0.167729 -0.632456 0 
C -0.632456 0.167729 -0.565816 0.328611 -0.447214 0.447214 
C -0.328611 0.565816 -0.167729 0.632456 0 0.632456 
z
"/>
    </defs>
    <g clip-path="url(#pb50df4b4b0)">
     <use xlink:href="#C0_0_a74f5dbd1f" x="27.3" y="128.735126" style="fill: #808080; stroke: #808080"/>
    </g>
    <g clip-path="url(#pb50df4b4b0)">
     <use xlink:href="#C0_0_a74f5dbd1f" x="28.923106" y="128.735126" style="fill: #808080; stroke: #808080"/>
    </g>
    <g clip-path="url(#pb50df4b4b0)">
     <use xlink:href="#C0_0_a74f5dbd1f" x="30.546211" y="128.735126" style="stroke: #000000"/>
    </g>
    <g clip-path="url(#pb50df4b4b0)">
     <use xlink:href="#C0_0_a74f5dbd1f" x="32.169317" y="128.735126" style="fill: #808080; stroke: #808080"/>
    </g>
    <g clip-path="url(#pb50df4b4b0)">
     <use xlink:href="#C0_0_a74f5dbd1f" x="33.792422" y="128.735126" style="stroke: #000000"/>
    </g>
    <g clip-path="url(#pb50df4b4b0)">
     <use xlink:href="#C0_0_a74f5dbd1f" x="35.415528" y="128.735126" style="fill: #808080; stroke: #808080"/>
    </g>
    <g clip-path="url(#pb50df4b4b0)">
     <use xlink:href="#C0_0_a74f5dbd1f" x="27.3" y="125.284105" style="fill: #808080; stroke: #808080"/>
    </g>
    <g clip-path="url(#pb50df4b4b0)">
     <use xlink:href="#C0_0_a74f5dbd1f" x="28.679696" y="124.001705" style="stroke: #000000"/>
    </g>
    <g clip-path="url(#pb50df4b4b0)">
     <use xlink:href="#C0_0_a74f5dbd1f" x="27.3" y="122.555577" style="fill: #808080; stroke: #808080"/>
    </g>
    <g clip-path="url(#pb50df4b4b0)">
     <use xlink:href="#C0_0_a74f5dbd1f" x="28.041836" y="120.390089" style="stroke: #000000"/>
    </g>
    <g clip-path="url(#pb50df4b4b0)">
     <use xlink:href="#C0_0_a74f5dbd1f" x="29.240145" y="118.747929" style="stroke: #000000"/>
    </g>
    <g clip-path="url(#pb50df4b4b0)">
     <use xlink:href="#C0_0_a74f5dbd1f" x="27.3" y="115.066877" style="stroke: #000000"/>
    </g>
    <g clip-path="url(#pb50df4b4b0)">
     <use xlink:href="#C0_0_a74f5dbd1f" x="27.3" y="111.248779" style="fill: #808080; stroke: #808080"/>
    </g>
    <g clip-path="url(#pb50df4b4b0)">
     <use xlink:href="#C0_0_a74f5dbd1f" x="28.888271" y="110.747079" style="stroke: #000000"/>
    </g>
    <g clip-path="url(#pb50df4b4b0)">
     <use xlink:href="#C0_0_a74f5dbd1f" x="27.3" y="57.057541" style="stroke: #000000"/>
    </g>
   </g>
   <g id="PathCollection_2">
    <defs>
     <path id="C1_0_52cdf51b1f" d="M 0 0.632456 
C 0.167729 0.632456 0.328611 0.565816 0.447214 0.447214 
C 0.565816 0.328611 0.632456 0.167729 0.632456 -0 
C 0.632456 -0.167729 0.565816 -0.328611 0.447214 -0.447214 
C 0.328611 -0.565816 0.167729 -0.632456 0 -0.632456 
C -0.167729 -0.632456 -0.328611 -0.565816 -0.447214 -0.447214 
C -0.565816 -0.328611 -0.632456 -0.167729 -0.632456 0 
C -0.632456 0.167729 -0.565816 0.328611 -0.447214 0.447214 
C -0.328611 0.565816 -0.167729 0.632456 0 0.632456 
z
"/>
    </defs>
    <g clip-path="url(#pb50df4b4b0)">
     <use xlink:href="#C1_0_52cdf51b1f" x="45.9" y="128.735126" style="fill: #2e8b57; stroke: #2e8b57"/>
    </g>
    <g clip-path="url(#pb50df4b4b0)">
     <use xlink:href="#C1_0_52cdf51b1f" x="47.523106" y="128.735126" style="fill: #2e8b57; stroke: #2e8b57"/>
    </g>
    <g clip-path="url(#pb50df4b4b0)">
     <use xlink:href="#C1_0_52cdf51b1f" x="49.146211" y="128.735126" style="fill: #2e8b57; stroke: #2e8b57"/>
    </g>
    <g clip-path="url(#pb50df4b4b0)">
     <use xlink:href="#C1_0_52cdf51b1f" x="50.769317" y="128.735126" style="fill: #2e8b57; stroke: #2e8b57"/>
    </g>
    <g clip-path="url(#pb50df4b4b0)">
     <use xlink:href="#C1_0_52cdf51b1f" x="52.392422" y="128.735126" style="fill: #2e8b57; stroke: #2e8b57"/>
    </g>
    <g clip-path="url(#pb50df4b4b0)">
     <use xlink:href="#C1_0_52cdf51b1f" x="53.88218" y="127.76871" style="fill: #2e8b57; stroke: #2e8b57"/>
    </g>
    <g clip-path="url(#pb50df4b4b0)">
     <use xlink:href="#C1_0_52cdf51b1f" x="45.9" y="125.001008" style="fill: #2e8b57; stroke: #2e8b57"/>
    </g>
    <g clip-path="url(#pb50df4b4b0)">
     <use xlink:href="#C1_0_52cdf51b1f" x="47.520553" y="124.864514" style="fill: #2e8b57; stroke: #2e8b57"/>
    </g>
    <g clip-path="url(#pb50df4b4b0)">
     <use xlink:href="#C1_0_52cdf51b1f" x="45.9" y="120.203533" style="fill: #2e8b57; stroke: #2e8b57"/>
    </g>
    <g clip-path="url(#pb50df4b4b0)">
     <use xlink:href="#C1_0_52cdf51b1f" x="47.512598" y="119.926949" style="fill: #2e8b57; stroke: #2e8b57"/>
    </g>
    <g clip-path="url(#pb50df4b4b0)">
     <use xlink:href="#C1_0_52cdf51b1f" x="48.925349" y="118.728257" style="fill: #2e8b57; stroke: #2e8b57"/>
    </g>
    <g clip-path="url(#pb50df4b4b0)">
     <use xlink:href="#C1_0_52cdf51b1f" x="45.9" y="117.272092" style="fill: #2e8b57; stroke: #2e8b57"/>
    </g>
    <g clip-path="url(#pb50df4b4b0)">
     <use xlink:href="#C1_0_52cdf51b1f" x="45.9" y="113.473711" style="fill: #2e8b57; stroke: #2e8b57"/>
    </g>
   </g>
   <g id="PathCollection_3">
    <defs>
     <path id="C2_0_21ef208d89" d="M 0 0.632456 
C 0.167729 0.632456 0.328611 0.565816 0.447214 0.447214 
C 0.565816 0.328611 0.632456 0.167729 0.632456 -0 
C 0.632456 -0.167729 0.565816 -0.328611 0.447214 -0.447214 
C 0.328611 -0.565816 0.167729 -0.632456 0 -0.632456 
C -0.167729 -0.632456 -0.328611 -0.565816 -0.447214 -0.447214 
C -0.565816 -0.328611 -0.632456 -0.167729 -0.632456 0 
C -0.632456 0.167729 -0.565816 0.328611 -0.447214 0.447214 
C -0.328611 0.565816 -0.167729 0.632456 0 0.632456 
z
"/>
    </defs>
    <g clip-path="url(#pb50df4b4b0)">
     <use xlink:href="#C2_0_21ef208d89" x="64.5" y="128.735126" style="stroke: #000000"/>
    </g>
    <g clip-path="url(#pb50df4b4b0)">
     <use xlink:href="#C2_0_21ef208d89" x="66.123106" y="128.735126" style="stroke: #000000"/>
    </g>
    <g clip-path="url(#pb50df4b4b0)">
     <use xlink:href="#C2_0_21ef208d89" x="67.746211" y="128.735126" style="stroke: #000000"/>
    </g>
    <g clip-path="url(#pb50df4b4b0)">
     <use xlink:href="#C2_0_21ef208d89" x="69.369317" y="128.735126" style="stroke: #000000"/>
    </g>
    <g clip-path="url(#pb50df4b4b0)">
     <use xlink:href="#C2_0_21ef208d89" x="70.992422" y="128.735126" style="fill: #808080; stroke: #808080"/>
    </g>
    <g clip-path="url(#pb50df4b4b0)">
     <use xlink:href="#C2_0_21ef208d89" x="72.615528" y="128.735126" style="stroke: #000000"/>
    </g>
    <g clip-path="url(#pb50df4b4b0)">
     <use xlink:href="#C2_0_21ef208d89" x="64.5" y="125.784306" style="fill: #808080; stroke: #808080"/>
    </g>
    <g clip-path="url(#pb50df4b4b0)">
     <use xlink:href="#C2_0_21ef208d89" x="66.04887" y="125.056422" style="fill: #808080; stroke: #808080"/>
    </g>
    <g clip-path="url(#pb50df4b4b0)">
     <use xlink:href="#C2_0_21ef208d89" x="64.5" y="121.180712" style="fill: #808080; stroke: #808080"/>
    </g>
    <g clip-path="url(#pb50df4b4b0)">
     <use xlink:href="#C2_0_21ef208d89" x="66.123065" y="121.163446" style="fill: #808080; stroke: #808080"/>
    </g>
    <g clip-path="url(#pb50df4b4b0)">
     <use xlink:href="#C2_0_21ef208d89" x="67.593177" y="120.131556" style="stroke: #000000"/>
    </g>
    <g clip-path="url(#pb50df4b4b0)">
     <use xlink:href="#C2_0_21ef208d89" x="64.5" y="115.866095" style="stroke: #000000"/>
    </g>
   </g>
   <g id="PathCollection_4">
    <defs>
     <path id="C3_0_fdbca1bad3" d="M 0 0.632456 
C 0.167729 0.632456 0.328611 0.565816 0.447214 0.447214 
C 0.565816 0.328611 0.632456 0.167729 0.632456 -0 
C 0.632456 -0.167729 0.565816 -0.328611 0.447214 -0.447214 
C 0.328611 -0.565816 0.167729 -0.632456 0 -0.632456 
C -0.167729 -0.632456 -0.328611 -0.565816 -0.447214 -0.447214 
C -0.565816 -0.328611 -0.632456 -0.167729 -0.632456 0 
C -0.632456 0.167729 -0.565816 0.328611 -0.447214 0.447214 
C -0.328611 0.565816 -0.167729 0.632456 0 0.632456 
z
"/>
    </defs>
    <g clip-path="url(#pb50df4b4b0)">
     <use xlink:href="#C3_0_fdbca1bad3" x="83.1" y="128.735126" style="fill: #2e8b57; stroke: #2e8b57"/>
    </g>
    <g clip-path="url(#pb50df4b4b0)">
     <use xlink:href="#C3_0_fdbca1bad3" x="84.723106" y="128.735126" style="fill: #2e8b57; stroke: #2e8b57"/>
    </g>
    <g clip-path="url(#pb50df4b4b0)">
     <use xlink:href="#C3_0_fdbca1bad3" x="86.346211" y="128.735126" style="fill: #2e8b57; stroke: #2e8b57"/>
    </g>
    <g clip-path="url(#pb50df4b4b0)">
     <use xlink:href="#C3_0_fdbca1bad3" x="87.969317" y="128.735126" style="fill: #2e8b57; stroke: #2e8b57"/>
    </g>
    <g clip-path="url(#pb50df4b4b0)">
     <use xlink:href="#C3_0_fdbca1bad3" x="89.592422" y="128.735126" style="fill: #2e8b57; stroke: #2e8b57"/>
    </g>
    <g clip-path="url(#pb50df4b4b0)">
     <use xlink:href="#C3_0_fdbca1bad3" x="91.215528" y="128.735126" style="fill: #2e8b57; stroke: #2e8b57"/>
    </g>
    <g clip-path="url(#pb50df4b4b0)">
     <use xlink:href="#C3_0_fdbca1bad3" x="83.1" y="125.869512" style="fill: #2e8b57; stroke: #2e8b57"/>
    </g>
    <g clip-path="url(#pb50df4b4b0)">
     <use xlink:href="#C3_0_fdbca1bad3" x="84.544066" y="124.757946" style="fill: #2e8b57; stroke: #2e8b57"/>
    </g>
    <g clip-path="url(#pb50df4b4b0)">
     <use xlink:href="#C3_0_fdbca1bad3" x="83.1" y="122.957707" style="fill: #2e8b57; stroke: #2e8b57"/>
    </g>
    <g clip-path="url(#pb50df4b4b0)">
     <use xlink:href="#C3_0_fdbca1bad3" x="84.577831" y="121.95093" style="fill: #2e8b57; stroke: #2e8b57"/>
    </g>
   </g>
   <g id="matplotlib.axis_1">
    <g id="xtick_1">
     <g id="line2d_1">
      <defs>
       <path id="mc03fa3225a" d="M 0 0 
L 0 3.5 
" style="stroke: #000000; stroke-width: 0.8"/>
      </defs>
      <g>
       <use xlink:href="#mc03fa3225a" x="27.3" y="130.977391" style="stroke: #000000; stroke-width: 0.8"/>
      </g>
     </g>
     <g id="text_1">
      <text style="font: 12px 'Helvetica', sans-serif; text-anchor: middle" x="27.3" y="146.585516" transform="rotate(-0 27.3 146.585516)">C</text>
     </g>
    </g>
    <g id="xtick_2">
     <g id="line2d_2">
      <g>
       <use xlink:href="#mc03fa3225a" x="45.9" y="130.977391" style="stroke: #000000; stroke-width: 0.8"/>
      </g>
     </g>
     <g id="text_2">
      <text style="font: 12px 'Helvetica', sans-serif; text-anchor: middle" x="45.9" y="146.585516" transform="rotate(-0 45.9 146.585516)">T</text>
     </g>
    </g>
    <g id="xtick_3">
     <g id="line2d_3">
      <g>
       <use xlink:href="#mc03fa3225a" x="64.5" y="130.977391" style="stroke: #000000; stroke-width: 0.8"/>
      </g>
     </g>
     <g id="text_3">
      <text style="font: 12px 'Helvetica', sans-serif; text-anchor: middle" x="64.5" y="146.585516" transform="rotate(-0 64.5 146.585516)">C</text>
     </g>
    </g>
    <g id="xtick_4">
     <g id="line2d_4">
      <g>
       <use xlink:href="#mc03fa3225a" x="83.1" y="130.977391" style="stroke: #000000; stroke-width: 0.8"/>
      </g>
     </g>
     <g id="text_4">
      <text style="font: 12px 'Helvetica', sans-serif; text-anchor: middle" x="83.1" y="146.585516" transform="rotate(-0 83.1 146.585516)">T</text>
     </g>
    </g>
   </g>
   <g id="matplotlib.axis_2">
    <g id="ytick_1">
     <g id="line2d_5">
      <defs>
       <path id="mb4442fc712" d="M 0 0 
L -3.5 0 
" style="stroke: #000000; stroke-width: 0.8"/>
      </defs>
      <g>
       <use xlink:href="#mb4442fc712" x="18" y="128.735126" style="stroke: #000000; stroke-width: 0.8"/>
      </g>
     </g>
     <g id="text_5">
      <text style="font: 6px 'Helvetica', sans-serif; text-anchor: end" x="11" y="130.887158" transform="rotate(-0 11 130.887158)">0</text>
     </g>
    </g>
    <g id="ytick_2">
     <g id="line2d_6">
      <g>
       <use xlink:href="#mb4442fc712" x="18" y="106.312477" style="stroke: #000000; stroke-width: 0.8"/>
      </g>
     </g>
     <g id="text_6">
      <text style="font: 6px 'Helvetica', sans-serif; text-anchor: end" x="11" y="108.464508" transform="rotate(-0 11 108.464508)">50</text>
     </g>
    </g>
    <g id="ytick_3">
     <g id="line2d_7">
      <g>
       <use xlink:href="#mb4442fc712" x="18" y="83.889828" style="stroke: #000000; stroke-width: 0.8"/>
      </g>
     </g>
     <g id="text_7">
      <text style="font: 6px 'Helvetica', sans-serif; text-anchor: end" x="11" y="86.041859" transform="rotate(-0 11 86.041859)">100</text>
     </g>
    </g>
    <g id="ytick_4">
     <g id="line2d_8">
      <g>
       <use xlink:href="#mb4442fc712" x="18" y="61.467179" style="stroke: #000000; stroke-width: 0.8"/>
      </g>
     </g>
     <g id="text_8">
      <text style="font: 6px 'Helvetica', sans-serif; text-anchor: end" x="11" y="63.61921" transform="rotate(-0 11 63.61921)">150</text>
     </g>
    </g>
    <g id="ytick_5">
     <g id="line2d_9">
      <g>
       <use xlink:href="#mb4442fc712" x="18" y="39.04453" style="stroke: #000000; stroke-width: 0.8"/>
      </g>
     </g>
     <g id="text_9">
      <text style="font: 6px 'Helvetica', sans-serif; text-anchor: end" x="11" y="41.196561" transform="rotate(-0 11 41.196561)">200</text>
     </g>
    </g>
    <g id="text_10">
     <text style="font: 12px 'Helvetica', sans-serif; text-anchor: middle" x="-5.510937" y="82.768696" transform="rotate(-90 -5.510937 82.768696)">Meal Size (nL)</text>
    </g>
   </g>
   <g id="line2d_10">
    <path d="M 25.44 136.884396 
L 25.44 120.586609 
" clip-path="url(#pb50df4b4b0)" style="fill: none; stroke: #000000; stroke-width: 2; stroke-linecap: square"/>
   </g>
   <g id="line2d_11">
    <path d="M 25.44 117.694087 
L 25.44 101.3963 
" clip-path="url(#pb50df4b4b0)" style="fill: none; stroke: #000000; stroke-width: 2; stroke-linecap: square"/>
   </g>
   <g id="line2d_12">
    <path d="M 44.04 129.428444 
L 44.04 125.637496 
" clip-path="url(#pb50df4b4b0)" style="fill: none; stroke: #000000; stroke-width: 2; stroke-linecap: square"/>
   </g>
   <g id="line2d_13">
    <path d="M 44.04 122.744974 
L 44.04 118.954026 
" clip-path="url(#pb50df4b4b0)" style="fill: none; stroke: #000000; stroke-width: 2; stroke-linecap: square"/>
   </g>
   <g id="line2d_14">
    <path d="M 62.64 130.192534 
L 62.64 127.479623 
" clip-path="url(#pb50df4b4b0)" style="fill: none; stroke: #000000; stroke-width: 2; stroke-linecap: square"/>
   </g>
   <g id="line2d_15">
    <path d="M 62.64 124.587102 
L 62.64 121.874191 
" clip-path="url(#pb50df4b4b0)" style="fill: none; stroke: #000000; stroke-width: 2; stroke-linecap: square"/>
   </g>
   <g id="line2d_16">
    <path d="M 81.24 129.226208 
L 81.24 128.395305 
" clip-path="url(#pb50df4b4b0)" style="fill: none; stroke: #000000; stroke-width: 2; stroke-linecap: square"/>
   </g>
   <g id="line2d_17">
    <path d="M 81.24 125.502783 
L 81.24 124.67188 
" clip-path="url(#pb50df4b4b0)" style="fill: none; stroke: #000000; stroke-width: 2; stroke-linecap: square"/>
   </g>
   <g id="legend_1"/>
   <g id="LineCollection_1">
    <defs>
     <path id="m454543543d" d="M 27.3 -157.022609 
L 45.9 -157.022609 
" style="stroke: #000000"/>
    </defs>
    <g>
     <use xlink:href="#m454543543d" x="0" y="288" style="stroke: #000000"/>
    </g>
   </g>
   <g id="LineCollection_2">
    <defs>
     <path id="mb4577f794f" d="M 64.5 -157.022609 
L 83.1 -157.022609 
" style="stroke: #000000"/>
    </defs>
    <g>
     <use xlink:href="#mb4577f794f" x="0" y="288" style="stroke: #000000"/>
    </g>
   </g>
   <g id="LineCollection_3">
    <defs>
     <path id="mdcdf555c11" d="M 18 -157.022609 
L 18 -253.44 
" style="stroke: #000000"/>
    </defs>
    <g>
     <use xlink:href="#mdcdf555c11" x="0" y="288" style="stroke: #000000"/>
    </g>
   </g>
  </g>
  <g id="axes_2">
   <g id="patch_6">
    <path d="M 41.25 209.990416 
L 50.55 209.990416 
L 50.55 218.46909 
L 41.25 218.46909 
z
" clip-path="url(#p803db9bc58)" style="opacity: 0.15; stroke: #000000; stroke-linejoin: miter"/>
   </g>
   <g id="patch_7">
    <path d="M 78.45 209.990416 
L 87.75 209.990416 
L 87.75 211.527526 
L 78.45 211.527526 
z
" clip-path="url(#p803db9bc58)" style="opacity: 0.15; stroke: #000000; stroke-linejoin: miter"/>
   </g>
   <g id="patch_8">
    <path d="M 115.65 209.990416 
L 124.95 209.990416 
L 124.95 203.048852 
L 115.65 203.048852 
z
" clip-path="url(#p803db9bc58)" style="opacity: 0.15; stroke: #000000; stroke-linejoin: miter"/>
   </g>
   <g id="PolyCollection_1">
    <defs>
     <path id="m74c75016bb" d="M 45.906462 -36.062609 
L 45.900278 -36.062609 
L 45.900278 -36.584651 
L 45.900278 -37.106694 
L 45.900278 -37.628736 
L 45.900278 -38.150779 
L 45.900278 -38.672821 
L 45.900278 -39.194864 
L 45.900278 -39.716906 
L 45.900278 -40.238949 
L 45.900278 -40.760991 
L 45.900278 -41.283034 
L 45.900278 -41.805076 
L 45.900278 -42.327119 
L 45.900278 -42.849161 
L 45.900278 -43.371204 
L 45.900278 -43.893246 
L 45.900278 -44.415289 
L 45.900278 -44.937331 
L 45.900278 -45.459374 
L 45.900278 -45.981416 
L 45.900278 -46.503459 
L 45.900278 -47.025501 
L 45.900278 -47.547544 
L 45.900278 -48.069586 
L 45.900278 -48.591629 
L 45.900278 -49.113671 
L 45.900278 -49.635714 
L 45.900278 -50.157756 
L 45.900278 -50.679799 
L 45.900278 -51.201841 
L 45.900278 -51.723884 
L 45.900278 -52.245926 
L 45.900278 -52.767969 
L 45.900278 -53.290011 
L 45.900278 -53.812054 
L 45.900278 -54.334096 
L 45.900278 -54.856139 
L 45.900278 -55.378181 
L 45.900278 -55.900224 
L 45.900278 -56.422266 
L 45.900278 -56.944309 
L 45.900278 -57.466351 
L 45.900278 -57.988394 
L 45.900278 -58.510436 
L 45.900278 -59.032479 
L 45.900278 -59.554521 
L 45.900278 -60.076564 
L 45.900278 -60.598606 
L 45.900278 -61.120649 
L 45.900278 -61.642691 
L 45.900278 -62.164734 
L 45.900278 -62.686776 
L 45.900278 -63.208819 
L 45.900278 -63.730861 
L 45.900278 -64.252904 
L 45.900278 -64.774946 
L 45.900278 -65.296989 
L 45.900278 -65.819031 
L 45.900278 -66.341074 
L 45.900278 -66.863116 
L 45.900278 -67.385159 
L 45.900278 -67.907201 
L 45.900278 -68.429244 
L 45.900278 -68.951286 
L 45.900278 -69.473329 
L 45.900278 -69.995371 
L 45.900278 -70.517414 
L 45.900278 -71.039456 
L 45.900278 -71.561499 
L 45.900278 -72.083541 
L 45.900278 -72.605584 
L 45.900278 -73.127627 
L 45.900278 -73.649669 
L 45.900278 -74.171712 
L 45.900278 -74.693754 
L 45.900278 -75.215797 
L 45.900278 -75.737839 
L 45.900278 -76.259882 
L 45.900278 -76.781924 
L 45.900278 -77.303967 
L 45.900278 -77.826009 
L 45.900278 -78.348052 
L 45.900278 -78.870094 
L 45.900278 -79.392137 
L 45.900278 -79.914179 
L 45.900278 -80.436222 
L 45.900278 -80.958264 
L 45.900278 -81.480307 
L 45.900278 -82.002349 
L 45.900278 -82.524392 
L 45.900278 -83.046434 
L 45.900278 -83.568477 
L 45.900278 -84.090519 
L 45.900278 -84.612562 
L 45.900278 -85.134604 
L 45.900278 -85.656647 
L 45.900278 -86.178689 
L 45.900278 -86.700732 
L 45.900278 -87.222774 
L 45.900278 -87.744817 
L 45.943555 -87.744817 
L 45.943555 -87.744817 
L 45.962968 -87.222774 
L 45.988735 -86.700732 
L 46.023125 -86.178689 
L 46.069111 -85.656647 
L 46.130407 -85.134604 
L 46.211273 -84.612562 
L 46.315875 -84.090519 
L 46.447438 -83.568477 
L 46.608002 -83.046434 
L 46.799133 -82.524392 
L 47.022827 -82.002349 
L 47.28097 -81.480307 
L 47.572563 -80.958264 
L 47.890101 -80.436222 
L 48.218352 -79.914179 
L 48.538121 -79.392137 
L 48.833877 -78.870094 
L 49.100221 -78.348052 
L 49.341902 -77.826009 
L 49.566715 -77.303967 
L 49.776651 -76.781924 
L 49.964476 -76.259882 
L 50.118562 -75.737839 
L 50.231933 -75.215797 
L 50.308303 -74.693754 
L 50.360736 -74.171712 
L 50.404363 -73.649669 
L 50.448457 -73.127627 
L 50.492846 -72.605584 
L 50.529969 -72.083541 
L 50.55 -71.561499 
L 50.545036 -71.039456 
L 50.510445 -70.517414 
L 50.444556 -69.995371 
L 50.34861 -69.473329 
L 50.226924 -68.951286 
L 50.085877 -68.429244 
L 49.931709 -67.907201 
L 49.769214 -67.385159 
L 49.602918 -66.863116 
L 49.439339 -66.341074 
L 49.287026 -65.819031 
L 49.152766 -65.296989 
L 49.036427 -64.774946 
L 48.929168 -64.252904 
L 48.817585 -63.730861 
L 48.691235 -63.208819 
L 48.547707 -62.686776 
L 48.391479 -62.164734 
L 48.228358 -61.642691 
L 48.061021 -61.120649 
L 47.889438 -60.598606 
L 47.714763 -60.076564 
L 47.542229 -59.554521 
L 47.38036 -59.032479 
L 47.237565 -58.510436 
L 47.118786 -57.988394 
L 47.02374 -57.466351 
L 46.946986 -56.944309 
L 46.879836 -56.422266 
L 46.813794 -55.900224 
L 46.74394 -55.378181 
L 46.670138 -54.856139 
L 46.595445 -54.334096 
L 46.523428 -53.812054 
L 46.456609 -53.290011 
L 46.396537 -52.767969 
L 46.344427 -52.245926 
L 46.301307 -51.723884 
L 46.267583 -51.201841 
L 46.242372 -50.679799 
L 46.223035 -50.157756 
L 46.205346 -49.635714 
L 46.184711 -49.113671 
L 46.158181 -48.591629 
L 46.12616 -48.069586 
L 46.092413 -47.547544 
L 46.061999 -47.025501 
L 46.038365 -46.503459 
L 46.021705 -45.981416 
L 46.009665 -45.459374 
L 45.999541 -44.937331 
L 45.989965 -44.415289 
L 45.980928 -43.893246 
L 45.972648 -43.371204 
L 45.964759 -42.849161 
L 45.956566 -42.327119 
L 45.947859 -41.805076 
L 45.939285 -41.283034 
L 45.931879 -40.760991 
L 45.926247 -40.238949 
L 45.922185 -39.716906 
L 45.918977 -39.194864 
L 45.916012 -38.672821 
L 45.913164 -38.150779 
L 45.910686 -37.628736 
L 45.908822 -37.106694 
L 45.90752 -36.584651 
L 45.906462 -36.062609 
z
"/>
    </defs>
    <g clip-path="url(#p803db9bc58)">
     <use xlink:href="#m74c75016bb" x="0" y="288" style="fill: #808080; fill-opacity: 0.8"/>
    </g>
   </g>
   <g id="PolyCollection_2">
    <defs>
     <path id="m032cffbb97" d="M 83.109899 -68.045017 
L 83.100134 -68.045017 
L 83.100134 -68.200215 
L 83.100134 -68.355414 
L 83.100134 -68.510612 
L 83.100134 -68.665811 
L 83.100134 -68.821009 
L 83.100134 -68.976208 
L 83.100134 -69.131406 
L 83.100134 -69.286605 
L 83.100134 -69.441803 
L 83.100134 -69.597001 
L 83.100134 -69.7522 
L 83.100134 -69.907398 
L 83.100134 -70.062597 
L 83.100134 -70.217795 
L 83.100134 -70.372994 
L 83.100134 -70.528192 
L 83.100134 -70.683391 
L 83.100134 -70.838589 
L 83.100134 -70.993788 
L 83.100134 -71.148986 
L 83.100134 -71.304185 
L 83.100134 -71.459383 
L 83.100134 -71.614582 
L 83.100134 -71.76978 
L 83.100134 -71.924978 
L 83.100134 -72.080177 
L 83.100134 -72.235375 
L 83.100134 -72.390574 
L 83.100134 -72.545772 
L 83.100134 -72.700971 
L 83.100134 -72.856169 
L 83.100134 -73.011368 
L 83.100134 -73.166566 
L 83.100134 -73.321765 
L 83.100134 -73.476963 
L 83.100134 -73.632162 
L 83.100134 -73.78736 
L 83.100134 -73.942558 
L 83.100134 -74.097757 
L 83.100134 -74.252955 
L 83.100134 -74.408154 
L 83.100134 -74.563352 
L 83.100134 -74.718551 
L 83.100134 -74.873749 
L 83.100134 -75.028948 
L 83.100134 -75.184146 
L 83.100134 -75.339345 
L 83.100134 -75.494543 
L 83.100134 -75.649742 
L 83.100134 -75.80494 
L 83.100134 -75.960138 
L 83.100134 -76.115337 
L 83.100134 -76.270535 
L 83.100134 -76.425734 
L 83.100134 -76.580932 
L 83.100134 -76.736131 
L 83.100134 -76.891329 
L 83.100134 -77.046528 
L 83.100134 -77.201726 
L 83.100134 -77.356925 
L 83.100134 -77.512123 
L 83.100134 -77.667322 
L 83.100134 -77.82252 
L 83.100134 -77.977718 
L 83.100134 -78.132917 
L 83.100134 -78.288115 
L 83.100134 -78.443314 
L 83.100134 -78.598512 
L 83.100134 -78.753711 
L 83.100134 -78.908909 
L 83.100134 -79.064108 
L 83.100134 -79.219306 
L 83.100134 -79.374505 
L 83.100134 -79.529703 
L 83.100134 -79.684902 
L 83.100134 -79.8401 
L 83.100134 -79.995298 
L 83.100134 -80.150497 
L 83.100134 -80.305695 
L 83.100134 -80.460894 
L 83.100134 -80.616092 
L 83.100134 -80.771291 
L 83.100134 -80.926489 
L 83.100134 -81.081688 
L 83.100134 -81.236886 
L 83.100134 -81.392085 
L 83.100134 -81.547283 
L 83.100134 -81.702482 
L 83.100134 -81.85768 
L 83.100134 -82.012879 
L 83.100134 -82.168077 
L 83.100134 -82.323275 
L 83.100134 -82.478474 
L 83.100134 -82.633672 
L 83.100134 -82.788871 
L 83.100134 -82.944069 
L 83.100134 -83.099268 
L 83.100134 -83.254466 
L 83.100134 -83.409665 
L 83.107355 -83.409665 
L 83.107355 -83.409665 
L 83.109116 -83.254466 
L 83.111236 -83.099268 
L 83.114079 -82.944069 
L 83.117692 -82.788871 
L 83.121846 -82.633672 
L 83.126511 -82.478474 
L 83.132449 -82.323275 
L 83.141353 -82.168077 
L 83.155045 -82.012879 
L 83.174155 -81.85768 
L 83.197664 -81.702482 
L 83.224077 -81.547283 
L 83.253074 -81.392085 
L 83.285893 -81.236886 
L 83.324429 -81.081688 
L 83.370615 -80.926489 
L 83.427026 -80.771291 
L 83.497922 -80.616092 
L 83.588708 -80.460894 
L 83.702837 -80.305695 
L 83.838594 -80.150497 
L 83.989879 -79.995298 
L 84.150716 -79.8401 
L 84.318238 -79.684902 
L 84.492115 -79.529703 
L 84.674744 -79.374505 
L 84.873396 -79.219306 
L 85.097845 -79.064108 
L 85.35119 -78.908909 
L 85.623442 -78.753711 
L 85.89595 -78.598512 
L 86.150786 -78.443314 
L 86.375154 -78.288115 
L 86.561533 -78.132917 
L 86.710302 -77.977718 
L 86.834029 -77.82252 
L 86.955172 -77.667322 
L 87.094246 -77.512123 
L 87.256743 -77.356925 
L 87.429152 -77.201726 
L 87.585397 -77.046528 
L 87.698122 -76.891329 
L 87.75 -76.736131 
L 87.741268 -76.580932 
L 87.688937 -76.425734 
L 87.616709 -76.270535 
L 87.541038 -76.115337 
L 87.461529 -75.960138 
L 87.362123 -75.80494 
L 87.223824 -75.649742 
L 87.041006 -75.494543 
L 86.828343 -75.339345 
L 86.61161 -75.184146 
L 86.409755 -75.028948 
L 86.224044 -74.873749 
L 86.042429 -74.718551 
L 85.851657 -74.563352 
L 85.644741 -74.408154 
L 85.421358 -74.252955 
L 85.187344 -74.097757 
L 84.955491 -73.942558 
L 84.742661 -73.78736 
L 84.561133 -73.632162 
L 84.411033 -73.476963 
L 84.281819 -73.321765 
L 84.161617 -73.166566 
L 84.045357 -73.011368 
L 83.935066 -72.856169 
L 83.834501 -72.700971 
L 83.744954 -72.545772 
L 83.665182 -72.390574 
L 83.592797 -72.235375 
L 83.524782 -72.080177 
L 83.458306 -71.924978 
L 83.392844 -71.76978 
L 83.331469 -71.614582 
L 83.279254 -71.459383 
L 83.240099 -71.304185 
L 83.214718 -71.148986 
L 83.200581 -70.993788 
L 83.193019 -70.838589 
L 83.18691 -70.683391 
L 83.178575 -70.528192 
L 83.166942 -70.372994 
L 83.153179 -70.217795 
L 83.139279 -70.062597 
L 83.126881 -69.907398 
L 83.11699 -69.7522 
L 83.110126 -69.597001 
L 83.106332 -69.441803 
L 83.105058 -69.286605 
L 83.105271 -69.131406 
L 83.105919 -68.976208 
L 83.106471 -68.821009 
L 83.107085 -68.665811 
L 83.108124 -68.510612 
L 83.109464 -68.355414 
L 83.110329 -68.200215 
L 83.109899 -68.045017 
z
"/>
    </defs>
    <g clip-path="url(#p803db9bc58)">
     <use xlink:href="#m032cffbb97" x="0" y="288" style="fill: #808080; fill-opacity: 0.8"/>
    </g>
   </g>
   <g id="PolyCollection_3">
    <defs>
     <path id="m978f401fc9" d="M 120.348579 -65.678581 
L 120.300529 -65.678581 
L 120.300529 -66.264805 
L 120.300529 -66.851029 
L 120.300529 -67.437254 
L 120.300529 -68.023478 
L 120.300529 -68.609702 
L 120.300529 -69.195926 
L 120.300529 -69.782151 
L 120.300529 -70.368375 
L 120.300529 -70.954599 
L 120.300529 -71.540823 
L 120.300529 -72.127048 
L 120.300529 -72.713272 
L 120.300529 -73.299496 
L 120.300529 -73.88572 
L 120.300529 -74.471945 
L 120.300529 -75.058169 
L 120.300529 -75.644393 
L 120.300529 -76.230617 
L 120.300529 -76.816842 
L 120.300529 -77.403066 
L 120.300529 -77.98929 
L 120.300529 -78.575515 
L 120.300529 -79.161739 
L 120.300529 -79.747963 
L 120.300529 -80.334187 
L 120.300529 -80.920412 
L 120.300529 -81.506636 
L 120.300529 -82.09286 
L 120.300529 -82.679084 
L 120.300529 -83.265309 
L 120.300529 -83.851533 
L 120.300529 -84.437757 
L 120.300529 -85.023981 
L 120.300529 -85.610206 
L 120.300529 -86.19643 
L 120.300529 -86.782654 
L 120.300529 -87.368878 
L 120.300529 -87.955103 
L 120.300529 -88.541327 
L 120.300529 -89.127551 
L 120.300529 -89.713775 
L 120.300529 -90.3 
L 120.300529 -90.886224 
L 120.300529 -91.472448 
L 120.300529 -92.058673 
L 120.300529 -92.644897 
L 120.300529 -93.231121 
L 120.300529 -93.817345 
L 120.300529 -94.40357 
L 120.300529 -94.989794 
L 120.300529 -95.576018 
L 120.300529 -96.162242 
L 120.300529 -96.748467 
L 120.300529 -97.334691 
L 120.300529 -97.920915 
L 120.300529 -98.507139 
L 120.300529 -99.093364 
L 120.300529 -99.679588 
L 120.300529 -100.265812 
L 120.300529 -100.852036 
L 120.300529 -101.438261 
L 120.300529 -102.024485 
L 120.300529 -102.610709 
L 120.300529 -103.196933 
L 120.300529 -103.783158 
L 120.300529 -104.369382 
L 120.300529 -104.955606 
L 120.300529 -105.541831 
L 120.300529 -106.128055 
L 120.300529 -106.714279 
L 120.300529 -107.300503 
L 120.300529 -107.886728 
L 120.300529 -108.472952 
L 120.300529 -109.059176 
L 120.300529 -109.6454 
L 120.300529 -110.231625 
L 120.300529 -110.817849 
L 120.300529 -111.404073 
L 120.300529 -111.990297 
L 120.300529 -112.576522 
L 120.300529 -113.162746 
L 120.300529 -113.74897 
L 120.300529 -114.335194 
L 120.300529 -114.921419 
L 120.300529 -115.507643 
L 120.300529 -116.093867 
L 120.300529 -116.680091 
L 120.300529 -117.266316 
L 120.300529 -117.85254 
L 120.300529 -118.438764 
L 120.300529 -119.024989 
L 120.300529 -119.611213 
L 120.300529 -120.197437 
L 120.300529 -120.783661 
L 120.300529 -121.369886 
L 120.300529 -121.95611 
L 120.300529 -122.542334 
L 120.300529 -123.128558 
L 120.300529 -123.714783 
L 120.310183 -123.714783 
L 120.310183 -123.714783 
L 120.309539 -123.128558 
L 120.307586 -122.542334 
L 120.305205 -121.95611 
L 120.303314 -121.369886 
L 120.302471 -120.783661 
L 120.302813 -120.197437 
L 120.304166 -119.611213 
L 120.30613 -119.024989 
L 120.308167 -118.438764 
L 120.309768 -117.85254 
L 120.310679 -117.266316 
L 120.311021 -116.680091 
L 120.311204 -116.093867 
L 120.311731 -115.507643 
L 120.313103 -114.921419 
L 120.315935 -114.335194 
L 120.32111 -113.74897 
L 120.329714 -113.162746 
L 120.342579 -112.576522 
L 120.359707 -111.990297 
L 120.380061 -111.404073 
L 120.401944 -110.817849 
L 120.423539 -110.231625 
L 120.443182 -109.6454 
L 120.459663 -109.059176 
L 120.472987 -108.472952 
L 120.485001 -107.886728 
L 120.498782 -107.300503 
L 120.516988 -106.714279 
L 120.540852 -106.128055 
L 120.570848 -105.541831 
L 120.607949 -104.955606 
L 120.653618 -104.369382 
L 120.708169 -103.783158 
L 120.769103 -103.196933 
L 120.831468 -102.610709 
L 120.890656 -102.024485 
L 120.945741 -101.438261 
L 121.000564 -100.852036 
L 121.061377 -100.265812 
L 121.13279 -99.679588 
L 121.215265 -99.093364 
L 121.306151 -98.507139 
L 121.403448 -97.920915 
L 121.509176 -97.334691 
L 121.628962 -96.748467 
L 121.767225 -96.162242 
L 121.92171 -95.576018 
L 122.083093 -94.989794 
L 122.241614 -94.40357 
L 122.395419 -93.817345 
L 122.552174 -93.231121 
L 122.721431 -92.644897 
L 122.904783 -92.058673 
L 123.093353 -91.472448 
L 123.274726 -90.886224 
L 123.442394 -90.3 
L 123.59941 -89.713775 
L 123.754179 -89.127551 
L 123.913387 -88.541327 
L 124.078268 -87.955103 
L 124.244962 -87.368878 
L 124.404942 -86.782654 
L 124.54439 -86.19643 
L 124.647623 -85.610206 
L 124.707386 -85.023981 
L 124.73428 -84.437757 
L 124.75355 -83.851533 
L 124.788392 -83.265309 
L 124.843477 -82.679084 
L 124.903149 -82.09286 
L 124.944242 -81.506636 
L 124.95 -80.920412 
L 124.913896 -80.334187 
L 124.834931 -79.747963 
L 124.713005 -79.161739 
L 124.548338 -78.575515 
L 124.342338 -77.98929 
L 124.097579 -77.403066 
L 123.818294 -76.816842 
L 123.512256 -76.230617 
L 123.191329 -75.644393 
L 122.868525 -75.058169 
L 122.553951 -74.471945 
L 122.253269 -73.88572 
L 121.968882 -73.299496 
L 121.702017 -72.713272 
L 121.454777 -72.127048 
L 121.231473 -71.540823 
L 121.037721 -70.954599 
L 120.877212 -70.368375 
L 120.748919 -69.782151 
L 120.647485 -69.195926 
L 120.566315 -68.609702 
L 120.500452 -68.023478 
L 120.447241 -67.437254 
L 120.405211 -66.851029 
L 120.372898 -66.264805 
L 120.348579 -65.678581 
z
"/>
    </defs>
    <g clip-path="url(#p803db9bc58)">
     <use xlink:href="#m978f401fc9" x="0" y="288" style="fill: #808080; fill-opacity: 0.8"/>
    </g>
   </g>
   <g id="matplotlib.axis_3">
    <g id="xtick_5">
     <g id="line2d_18">
      <g>
       <use xlink:href="#mc03fa3225a" x="27.3" y="256.32" style="stroke: #000000; stroke-width: 0.8"/>
      </g>
     </g>
    </g>
    <g id="xtick_6">
     <g id="line2d_19">
      <g>
       <use xlink:href="#mc03fa3225a" x="45.9" y="256.32" style="stroke: #000000; stroke-width: 0.8"/>
      </g>
     </g>
     <g id="text_11">
      <text style="font: 12px 'Helvetica', sans-serif; text-anchor: middle" x="45.9" y="271.928125" transform="rotate(-0 45.9 271.928125)">Off</text>
     </g>
    </g>
    <g id="xtick_7">
     <g id="line2d_20">
      <g>
       <use xlink:href="#mc03fa3225a" x="64.5" y="256.32" style="stroke: #000000; stroke-width: 0.8"/>
      </g>
     </g>
    </g>
    <g id="xtick_8">
     <g id="line2d_21">
      <g>
       <use xlink:href="#mc03fa3225a" x="83.1" y="256.32" style="stroke: #000000; stroke-width: 0.8"/>
      </g>
     </g>
     <g id="text_12">
      <text style="font: 12px 'Helvetica', sans-serif; text-anchor: middle" x="83.1" y="271.928125" transform="rotate(-0 83.1 271.928125)">On</text>
     </g>
    </g>
    <g id="xtick_9">
     <g id="line2d_22">
      <g>
       <use xlink:href="#mc03fa3225a" x="101.7" y="256.32" style="stroke: #000000; stroke-width: 0.8"/>
      </g>
     </g>
    </g>
    <g id="xtick_10">
     <g id="line2d_23">
      <g>
       <use xlink:href="#mc03fa3225a" x="120.3" y="256.32" style="stroke: #000000; stroke-width: 0.8"/>
      </g>
     </g>
     <g id="text_13">
      <!-- $\Delta\Delta$ -->
      <g transform="translate(112.08 271.928125)">
       <text>
        <tspan style="font: 12px 'DejaVu Sans'" x="0 8.208984" y="-0.25">ΔΔ</tspan>
       </text>
      </g>
     </g>
    </g>
   </g>
   <g id="matplotlib.axis_4">
    <g id="ytick_6">
     <g id="line2d_24">
      <g>
       <use xlink:href="#mb4442fc712" x="18" y="255.158165" style="stroke: #000000; stroke-width: 0.8"/>
      </g>
     </g>
     <g id="text_14">
      <text style="font: 6px 'Helvetica', sans-serif; text-anchor: end" x="11" y="257.310196" transform="rotate(-0 11 257.310196)">−60</text>
     </g>
    </g>
    <g id="ytick_7">
     <g id="line2d_25">
      <g>
       <use xlink:href="#mb4442fc712" x="18" y="240.102249" style="stroke: #000000; stroke-width: 0.8"/>
      </g>
     </g>
     <g id="text_15">
      <text style="font: 6px 'Helvetica', sans-serif; text-anchor: end" x="11" y="242.25428" transform="rotate(-0 11 242.25428)">−40</text>
     </g>
    </g>
    <g id="ytick_8">
     <g id="line2d_26">
      <g>
       <use xlink:href="#mb4442fc712" x="18" y="225.046332" style="stroke: #000000; stroke-width: 0.8"/>
      </g>
     </g>
     <g id="text_16">
      <text style="font: 6px 'Helvetica', sans-serif; text-anchor: end" x="11" y="227.198364" transform="rotate(-0 11 227.198364)">−20</text>
     </g>
    </g>
    <g id="ytick_9">
     <g id="line2d_27">
      <g>
       <use xlink:href="#mb4442fc712" x="18" y="209.990416" style="stroke: #000000; stroke-width: 0.8"/>
      </g>
     </g>
     <g id="text_17">
      <text style="font: 6px 'Helvetica', sans-serif; text-anchor: end" x="11" y="212.142448" transform="rotate(-0 11 212.142448)">0</text>
     </g>
    </g>
    <g id="ytick_10">
     <g id="line2d_28">
      <g>
       <use xlink:href="#mb4442fc712" x="18" y="194.9345" style="stroke: #000000; stroke-width: 0.8"/>
      </g>
     </g>
     <g id="text_18">
      <text style="font: 6px 'Helvetica', sans-serif; text-anchor: end" x="11" y="197.086531" transform="rotate(-0 11 197.086531)">20</text>
     </g>
    </g>
    <g id="ytick_11">
     <g id="line2d_29">
      <g>
       <use xlink:href="#mb4442fc712" x="18" y="179.878584" style="stroke: #000000; stroke-width: 0.8"/>
      </g>
     </g>
     <g id="text_19">
      <text style="font: 6px 'Helvetica', sans-serif; text-anchor: end" x="11" y="182.030615" transform="rotate(-0 11 182.030615)">40</text>
     </g>
    </g>
    <g id="ytick_12">
     <g id="line2d_30">
      <g>
       <use xlink:href="#mb4442fc712" x="18" y="164.822668" style="stroke: #000000; stroke-width: 0.8"/>
      </g>
     </g>
     <g id="text_20">
      <text style="font: 6px 'Helvetica', sans-serif; text-anchor: end" x="11" y="166.974699" transform="rotate(-0 11 166.974699)">60</text>
     </g>
    </g>
    <g id="text_21">
     <!-- $\Delta$ Meal Size (nL) -->
     <g transform="translate(-5.6975 252.571304) rotate(-90)">
      <text>
       <tspan style="font: 12px 'DejaVu Sans'" x="0" y="-0.15625">Δ</tspan>
       <tspan style="font: 12px 'Helvetica'" x="8.208984 11.542969 21.539062 28.212891 34.886719 37.552734 40.886719 48.890625 51.556641 57.556641 64.230469 67.564453 71.560547 78.234375 84.908203" y="-0.15625"> Meal Size (nL)</tspan>
      </text>
     </g>
    </g>
   </g>
   <g id="line2d_31">
    <path d="M 45.9 218.46909 
" clip-path="url(#p803db9bc58)" style="fill: none; stroke: #000000; stroke-width: 1.5; stroke-linecap: square"/>
    <defs>
     <path id="m8b7cbbfc7b" d="M 0 2.5 
C 0.663008 2.5 1.29895 2.236584 1.767767 1.767767 
C 2.236584 1.29895 2.5 0.663008 2.5 0 
C 2.5 -0.663008 2.236584 -1.29895 1.767767 -1.767767 
C 1.29895 -2.236584 0.663008 -2.5 0 -2.5 
C -0.663008 -2.5 -1.29895 -2.236584 -1.767767 -1.767767 
C -2.236584 -1.29895 -2.5 -0.663008 -2.5 0 
C -2.5 0.663008 -2.236584 1.29895 -1.767767 1.767767 
C -1.29895 2.236584 -0.663008 2.5 0 2.5 
z
" style="stroke: #000000"/>
    </defs>
    <g clip-path="url(#p803db9bc58)">
     <use xlink:href="#m8b7cbbfc7b" x="45.9" y="218.46909" style="stroke: #000000"/>
    </g>
   </g>
   <g id="line2d_32">
    <path d="M 45.9 244.488363 
L 45.9 208.754279 
" clip-path="url(#p803db9bc58)" style="fill: none; stroke: #000000; stroke-width: 2; stroke-linecap: square"/>
   </g>
   <g id="line2d_33">
    <path d="M 83.1 211.527526 
" clip-path="url(#p803db9bc58)" style="fill: none; stroke: #000000; stroke-width: 1.5; stroke-linecap: square"/>
    <g clip-path="url(#p803db9bc58)">
     <use xlink:href="#m8b7cbbfc7b" x="83.1" y="211.527526" style="stroke: #000000"/>
    </g>
   </g>
   <g id="line2d_34">
    <path d="M 83.1 215.83545 
L 83.1 208.192772 
" clip-path="url(#p803db9bc58)" style="fill: none; stroke: #000000; stroke-width: 2; stroke-linecap: square"/>
   </g>
   <g id="line2d_35">
    <path d="M 120.3 203.048852 
" clip-path="url(#p803db9bc58)" style="fill: none; stroke: #000000; stroke-width: 1.5; stroke-linecap: square"/>
    <g clip-path="url(#p803db9bc58)">
     <use xlink:href="#m8b7cbbfc7b" x="120.3" y="203.048852" style="stroke: #000000"/>
    </g>
   </g>
   <g id="line2d_36">
    <path d="M 120.3 214.959003 
L 120.3 183.46106 
" clip-path="url(#p803db9bc58)" style="fill: none; stroke: #000000; stroke-width: 2; stroke-linecap: square"/>
   </g>
   <g id="line2d_37">
    <path d="M 18 209.990416 
L 129.6 209.990416 
" clip-path="url(#p803db9bc58)" style="fill: none; stroke: #000000; stroke-width: 0.75; stroke-linecap: square"/>
   </g>
   <g id="LineCollection_4">
    <defs>
     <path id="me90751ee84" d="M 27.3 -31.68 
L 45.9 -31.68 
" style="stroke: #000000"/>
    </defs>
    <g>
     <use xlink:href="#me90751ee84" x="0" y="288" style="stroke: #000000"/>
    </g>
   </g>
   <g id="LineCollection_5">
    <defs>
     <path id="m855b79d5ec" d="M 64.5 -31.68 
L 83.1 -31.68 
" style="stroke: #000000"/>
    </defs>
    <g>
     <use xlink:href="#m855b79d5ec" x="0" y="288" style="stroke: #000000"/>
    </g>
   </g>
   <g id="LineCollection_6">
    <defs>
     <path id="m66a4a86368" d="M 101.7 -31.68 
L 120.3 -31.68 
" style="stroke: #000000"/>
    </defs>
    <g>
     <use xlink:href="#m66a4a86368" x="0" y="288" style="stroke: #000000"/>
    </g>
   </g>
   <g id="LineCollection_7">
    <defs>
     <path id="m534e3726b5" d="M 18 -31.68 
L 18 -128.097391 
" style="stroke: #000000"/>
    </defs>
    <g>
     <use xlink:href="#m534e3726b5" x="0" y="288" style="stroke: #000000"/>
    </g>
   </g>
  </g>
  <g id="axes_3">
   <g id="matplotlib.axis_5">
    <g id="ytick_13">
     <g id="line2d_38">
      <defs>
       <path id="m49e57bc563" d="M 0 0 
L 3.5 0 
" style="stroke: #000000; stroke-width: 0.8"/>
      </defs>
      <g>
       <use xlink:href="#m49e57bc563" x="129.6" y="255.158165" style="stroke: #000000; stroke-width: 0.8"/>
      </g>
     </g>
     <g id="text_22">
      <text style="font: 6px 'Helvetica', sans-serif; text-anchor: start" x="136.6" y="257.310196" transform="rotate(-0 136.6 257.310196)">−60</text>
     </g>
    </g>
    <g id="ytick_14">
     <g id="line2d_39">
      <g>
       <use xlink:href="#m49e57bc563" x="129.6" y="240.102249" style="stroke: #000000; stroke-width: 0.8"/>
      </g>
     </g>
     <g id="text_23">
      <text style="font: 6px 'Helvetica', sans-serif; text-anchor: start" x="136.6" y="242.25428" transform="rotate(-0 136.6 242.25428)">−40</text>
     </g>
    </g>
    <g id="ytick_15">
     <g id="line2d_40">
      <g>
       <use xlink:href="#m49e57bc563" x="129.6" y="225.046332" style="stroke: #000000; stroke-width: 0.8"/>
      </g>
     </g>
     <g id="text_24">
      <text style="font: 6px 'Helvetica', sans-serif; text-anchor: start" x="136.6" y="227.198364" transform="rotate(-0 136.6 227.198364)">−20</text>
     </g>
    </g>
    <g id="ytick_16">
     <g id="line2d_41">
      <g>
       <use xlink:href="#m49e57bc563" x="129.6" y="209.990416" style="stroke: #000000; stroke-width: 0.8"/>
      </g>
     </g>
     <g id="text_25">
      <text style="font: 6px 'Helvetica', sans-serif; text-anchor: start" x="136.6" y="212.142448" transform="rotate(-0 136.6 212.142448)">0</text>
     </g>
    </g>
    <g id="ytick_17">
     <g id="line2d_42">
      <g>
       <use xlink:href="#m49e57bc563" x="129.6" y="194.9345" style="stroke: #000000; stroke-width: 0.8"/>
      </g>
     </g>
     <g id="text_26">
      <text style="font: 6px 'Helvetica', sans-serif; text-anchor: start" x="136.6" y="197.086531" transform="rotate(-0 136.6 197.086531)">20</text>
     </g>
    </g>
    <g id="ytick_18">
     <g id="line2d_43">
      <g>
       <use xlink:href="#m49e57bc563" x="129.6" y="179.878584" style="stroke: #000000; stroke-width: 0.8"/>
      </g>
     </g>
     <g id="text_27">
      <text style="font: 6px 'Helvetica', sans-serif; text-anchor: start" x="136.6" y="182.030615" transform="rotate(-0 136.6 182.030615)">40</text>
     </g>
    </g>
    <g id="ytick_19">
     <g id="line2d_44">
      <g>
       <use xlink:href="#m49e57bc563" x="129.6" y="164.822668" style="stroke: #000000; stroke-width: 0.8"/>
      </g>
     </g>
     <g id="text_28">
      <text style="font: 6px 'Helvetica', sans-serif; text-anchor: start" x="136.6" y="166.974699" transform="rotate(-0 136.6 166.974699)">60</text>
     </g>
    </g>
    <g id="text_29">
     <!-- $\Delta\Delta$ -->
     <g transform="translate(159.385625 216.331304) rotate(-90)">
      <text>
       <tspan style="font: 12px 'DejaVu Sans'" x="0 8.208984" y="-0.25">ΔΔ</tspan>
      </text>
     </g>
    </g>
   </g>
   <g id="LineCollection_8">
    <defs>
     <path id="m1c02a0590a" d="M 129.6 -31.68 
L 129.6 -128.097391 
" style="stroke: #000000"/>
    </defs>
    <g>
     <use xlink:href="#m1c02a0590a" x="0" y="288" style="stroke: #000000"/>
    </g>
   </g>
  </g>
  <g id="text_30">
   <text style="fill: #ffa500; font: italic 500 12px 'inter'; text-anchor: middle" x="72" y="17.758125" transform="rotate(-0 72 17.758125)">SXVNC2&gt;ACR1</text>
  </g>
 </g>
 <defs>
  <clipPath id="pb50df4b4b0">
   <rect x="18" y="34.56" width="111.6" height="96.417391"/>
  </clipPath>
  <clipPath id="p803db9bc58">
   <rect x="18" y="159.902609" width="111.6" height="96.417391"/>
  </clipPath>
 </defs>
</svg>
