<?xml version="1.0" encoding="utf-8" standalone="no"?>
<!DOCTYPE svg PUBLIC "-//W3C//DTD SVG 1.1//EN"
  "http://www.w3.org/Graphics/SVG/1.1/DTD/svg11.dtd">
<svg xmlns:xlink="http://www.w3.org/1999/xlink" width="144pt" height="288pt" viewBox="0 0 144 288" xmlns="http://www.w3.org/2000/svg" version="1.1">
 <metadata>
  <rdf:RDF xmlns:dc="http://purl.org/dc/elements/1.1/" xmlns:cc="http://creativecommons.org/ns#" xmlns:rdf="http://www.w3.org/1999/02/22-rdf-syntax-ns#">
   <cc:Work>
    <dc:type rdf:resource="http://purl.org/dc/dcmitype/StillImage"/>
    <dc:date>2025-02-16T02:07:53.106562</dc:date>
    <dc:format>image/svg+xml</dc:format>
    <dc:creator>
     <cc:Agent>
      <dc:title>Matplotlib v3.6.3, https://matplotlib.org/</dc:title>
     </cc:Agent>
    </dc:creator>
   </cc:Work>
  </rdf:RDF>
 </metadata>
 <defs>
  <style type="text/css">*{stroke-linejoin: round; stroke-linecap: butt}</style>
 </defs>
 <g id="figure_1">
  <g id="patch_1">
   <path d="M 0 288 
L 144 288 
L 144 0 
L 0 0 
z
" style="fill: #ffffff"/>
  </g>
  <g id="axes_1">
   <g id="patch_2">
    <path d="M 22.65 98.838261 
L 31.95 98.838261 
L 31.95 96.496179 
L 22.65 96.496179 
z
" clip-path="url(#pf9086dc95d)" style="opacity: 0.15; stroke: #000000; stroke-linejoin: miter"/>
   </g>
   <g id="patch_3">
    <path d="M 41.25 98.838261 
L 50.55 98.838261 
L 50.55 97.134764 
L 41.25 97.134764 
z
" clip-path="url(#pf9086dc95d)" style="opacity: 0.15; stroke: #000000; stroke-linejoin: miter"/>
   </g>
   <g id="patch_4">
    <path d="M 59.85 98.838261 
L 69.15 98.838261 
L 69.15 97.260267 
L 59.85 97.260267 
z
" clip-path="url(#pf9086dc95d)" style="opacity: 0.15; stroke: #000000; stroke-linejoin: miter"/>
   </g>
   <g id="patch_5">
    <path d="M 78.45 98.838261 
L 87.75 98.838261 
L 87.75 97.641643 
L 78.45 97.641643 
z
" clip-path="url(#pf9086dc95d)" style="opacity: 0.15; stroke: #000000; stroke-linejoin: miter"/>
   </g>
   <g id="PathCollection_1">
    <defs>
     <path id="C0_0_c308f9bfba" d="M 0 0.632456 
C 0.167729 0.632456 0.328611 0.565816 0.447214 0.447214 
C 0.565816 0.328611 0.632456 0.167729 0.632456 -0 
C 0.632456 -0.167729 0.565816 -0.328611 0.447214 -0.447214 
C 0.328611 -0.565816 0.167729 -0.632456 0 -0.632456 
C -0.167729 -0.632456 -0.328611 -0.565816 -0.447214 -0.447214 
C -0.565816 -0.328611 -0.632456 -0.167729 -0.632456 0 
C -0.632456 0.167729 -0.565816 0.328611 -0.447214 0.447214 
C -0.328611 0.565816 -0.167729 0.632456 0 0.632456 
z
"/>
    </defs>
    <g clip-path="url(#pf9086dc95d)">
     <use xlink:href="#C0_0_c308f9bfba" x="27.3" y="98.380486" style="stroke: #000000"/>
    </g>
    <g clip-path="url(#pf9086dc95d)">
     <use xlink:href="#C0_0_c308f9bfba" x="28.92306" y="98.362135" style="stroke: #000000"/>
    </g>
    <g clip-path="url(#pf9086dc95d)">
     <use xlink:href="#C0_0_c308f9bfba" x="30.54563" y="98.299602" style="fill: #808080; stroke: #808080"/>
    </g>
    <g clip-path="url(#pf9086dc95d)">
     <use xlink:href="#C0_0_c308f9bfba" x="32.168723" y="98.290199" style="fill: #808080; stroke: #808080"/>
    </g>
    <g clip-path="url(#pf9086dc95d)">
     <use xlink:href="#C0_0_c308f9bfba" x="33.791699" y="98.259428" style="fill: #808080; stroke: #808080"/>
    </g>
    <g clip-path="url(#pf9086dc95d)">
     <use xlink:href="#C0_0_c308f9bfba" x="35.414673" y="98.22836" style="stroke: #000000"/>
    </g>
    <g clip-path="url(#pf9086dc95d)">
     <use xlink:href="#C0_0_c308f9bfba" x="27.7399" y="96.03695" style="stroke: #000000"/>
    </g>
    <g clip-path="url(#pf9086dc95d)">
     <use xlink:href="#C0_0_c308f9bfba" x="27.3" y="91.044146" style="fill: #808080; stroke: #808080"/>
    </g>
    <g clip-path="url(#pf9086dc95d)">
     <use xlink:href="#C0_0_c308f9bfba" x="27.3" y="81.818054" style="fill: #808080; stroke: #808080"/>
    </g>
   </g>
   <g id="PathCollection_2">
    <defs>
     <path id="C1_0_625a66dd22" d="M 0 0.632456 
C 0.167729 0.632456 0.328611 0.565816 0.447214 0.447214 
C 0.565816 0.328611 0.632456 0.167729 0.632456 -0 
C 0.632456 -0.167729 0.565816 -0.328611 0.447214 -0.447214 
C 0.328611 -0.565816 0.167729 -0.632456 0 -0.632456 
C -0.167729 -0.632456 -0.328611 -0.565816 -0.447214 -0.447214 
C -0.565816 -0.328611 -0.632456 -0.167729 -0.632456 0 
C -0.632456 0.167729 -0.565816 0.328611 -0.447214 0.447214 
C -0.328611 0.565816 -0.167729 0.632456 0 0.632456 
z
"/>
    </defs>
    <g clip-path="url(#pf9086dc95d)">
     <use xlink:href="#C1_0_625a66dd22" x="45.9" y="98.333787" style="fill: #2e8b57; stroke: #2e8b57"/>
    </g>
    <g clip-path="url(#pf9086dc95d)">
     <use xlink:href="#C1_0_625a66dd22" x="47.523051" y="98.313839" style="fill: #2e8b57; stroke: #2e8b57"/>
    </g>
    <g clip-path="url(#pf9086dc95d)">
     <use xlink:href="#C1_0_625a66dd22" x="49.145822" y="98.264396" style="fill: #2e8b57; stroke: #2e8b57"/>
    </g>
    <g clip-path="url(#pf9086dc95d)">
     <use xlink:href="#C1_0_625a66dd22" x="50.768718" y="98.22527" style="fill: #2e8b57; stroke: #2e8b57"/>
    </g>
    <g clip-path="url(#pf9086dc95d)">
     <use xlink:href="#C1_0_625a66dd22" x="52.391695" y="98.194671" style="fill: #2e8b57; stroke: #2e8b57"/>
    </g>
    <g clip-path="url(#pf9086dc95d)">
     <use xlink:href="#C1_0_625a66dd22" x="54.014698" y="98.167268" style="fill: #2e8b57; stroke: #2e8b57"/>
    </g>
    <g clip-path="url(#pf9086dc95d)">
     <use xlink:href="#C1_0_625a66dd22" x="46.086586" y="95.915269" style="fill: #2e8b57; stroke: #2e8b57"/>
    </g>
    <g clip-path="url(#pf9086dc95d)">
     <use xlink:href="#C1_0_625a66dd22" x="45.9" y="89.39552" style="fill: #2e8b57; stroke: #2e8b57"/>
    </g>
   </g>
   <g id="PathCollection_3">
    <defs>
     <path id="C2_0_2aade71fa3" d="M 0 0.632456 
C 0.167729 0.632456 0.328611 0.565816 0.447214 0.447214 
C 0.565816 0.328611 0.632456 0.167729 0.632456 -0 
C 0.632456 -0.167729 0.565816 -0.328611 0.447214 -0.447214 
C 0.328611 -0.565816 0.167729 -0.632456 0 -0.632456 
C -0.167729 -0.632456 -0.328611 -0.565816 -0.447214 -0.447214 
C -0.565816 -0.328611 -0.632456 -0.167729 -0.632456 0 
C -0.632456 0.167729 -0.565816 0.328611 -0.447214 0.447214 
C -0.328611 0.565816 -0.167729 0.632456 0 0.632456 
z
"/>
    </defs>
    <g clip-path="url(#pf9086dc95d)">
     <use xlink:href="#C2_0_2aade71fa3" x="64.5" y="98.239024" style="fill: #808080; stroke: #808080"/>
    </g>
    <g clip-path="url(#pf9086dc95d)">
     <use xlink:href="#C2_0_2aade71fa3" x="66.123075" y="98.224161" style="fill: #808080; stroke: #808080"/>
    </g>
    <g clip-path="url(#pf9086dc95d)">
     <use xlink:href="#C2_0_2aade71fa3" x="67.746177" y="98.218484" style="stroke: #000000"/>
    </g>
    <g clip-path="url(#pf9086dc95d)">
     <use xlink:href="#C2_0_2aade71fa3" x="69.36919" y="98.192507" style="fill: #808080; stroke: #808080"/>
    </g>
    <g clip-path="url(#pf9086dc95d)">
     <use xlink:href="#C2_0_2aade71fa3" x="70.992295" y="98.190003" style="stroke: #000000"/>
    </g>
    <g clip-path="url(#pf9086dc95d)">
     <use xlink:href="#C2_0_2aade71fa3" x="72.615135" y="98.146024" style="fill: #808080; stroke: #808080"/>
    </g>
    <g clip-path="url(#pf9086dc95d)">
     <use xlink:href="#C2_0_2aade71fa3" x="64.5" y="87.983789" style="stroke: #000000"/>
    </g>
   </g>
   <g id="PathCollection_4">
    <defs>
     <path id="C3_0_b962564dd1" d="M 0 0.632456 
C 0.167729 0.632456 0.328611 0.565816 0.447214 0.447214 
C 0.565816 0.328611 0.632456 0.167729 0.632456 -0 
C 0.632456 -0.167729 0.565816 -0.328611 0.447214 -0.447214 
C 0.328611 -0.565816 0.167729 -0.632456 0 -0.632456 
C -0.167729 -0.632456 -0.328611 -0.565816 -0.447214 -0.447214 
C -0.565816 -0.328611 -0.632456 -0.167729 -0.632456 0 
C -0.632456 0.167729 -0.565816 0.328611 -0.447214 0.447214 
C -0.328611 0.565816 -0.167729 0.632456 0 0.632456 
z
"/>
    </defs>
    <g clip-path="url(#pf9086dc95d)">
     <use xlink:href="#C3_0_b962564dd1" x="83.1" y="98.408335" style="fill: #2e8b57; stroke: #2e8b57"/>
    </g>
    <g clip-path="url(#pf9086dc95d)">
     <use xlink:href="#C3_0_b962564dd1" x="84.723087" y="98.396607" style="fill: #2e8b57; stroke: #2e8b57"/>
    </g>
    <g clip-path="url(#pf9086dc95d)">
     <use xlink:href="#C3_0_b962564dd1" x="86.345326" y="98.317045" style="fill: #2e8b57; stroke: #2e8b57"/>
    </g>
    <g clip-path="url(#pf9086dc95d)">
     <use xlink:href="#C3_0_b962564dd1" x="87.968425" y="98.310483" style="fill: #2e8b57; stroke: #2e8b57"/>
    </g>
    <g clip-path="url(#pf9086dc95d)">
     <use xlink:href="#C3_0_b962564dd1" x="89.591509" y="98.297915" style="fill: #2e8b57; stroke: #2e8b57"/>
    </g>
    <g clip-path="url(#pf9086dc95d)">
     <use xlink:href="#C3_0_b962564dd1" x="91.214235" y="98.245234" style="fill: #2e8b57; stroke: #2e8b57"/>
    </g>
    <g clip-path="url(#pf9086dc95d)">
     <use xlink:href="#C3_0_b962564dd1" x="83.1" y="90.292875" style="fill: #2e8b57; stroke: #2e8b57"/>
    </g>
   </g>
   <g id="matplotlib.axis_1">
    <g id="xtick_1">
     <g id="line2d_1">
      <defs>
       <path id="m3799ee8903" d="M 0 0 
L 0 3.5 
" style="stroke: #000000; stroke-width: 0.8"/>
      </defs>
      <g>
       <use xlink:href="#m3799ee8903" x="27.3" y="130.977391" style="stroke: #000000; stroke-width: 0.8"/>
      </g>
     </g>
     <g id="text_1">
      <text style="font: 12px 'Helvetica', sans-serif; text-anchor: middle" x="27.3" y="146.585516" transform="rotate(-0 27.3 146.585516)">C</text>
     </g>
    </g>
    <g id="xtick_2">
     <g id="line2d_2">
      <g>
       <use xlink:href="#m3799ee8903" x="45.9" y="130.977391" style="stroke: #000000; stroke-width: 0.8"/>
      </g>
     </g>
     <g id="text_2">
      <text style="font: 12px 'Helvetica', sans-serif; text-anchor: middle" x="45.9" y="146.585516" transform="rotate(-0 45.9 146.585516)">T</text>
     </g>
    </g>
    <g id="xtick_3">
     <g id="line2d_3">
      <g>
       <use xlink:href="#m3799ee8903" x="64.5" y="130.977391" style="stroke: #000000; stroke-width: 0.8"/>
      </g>
     </g>
     <g id="text_3">
      <text style="font: 12px 'Helvetica', sans-serif; text-anchor: middle" x="64.5" y="146.585516" transform="rotate(-0 64.5 146.585516)">C</text>
     </g>
    </g>
    <g id="xtick_4">
     <g id="line2d_4">
      <g>
       <use xlink:href="#m3799ee8903" x="83.1" y="130.977391" style="stroke: #000000; stroke-width: 0.8"/>
      </g>
     </g>
     <g id="text_4">
      <text style="font: 12px 'Helvetica', sans-serif; text-anchor: middle" x="83.1" y="146.585516" transform="rotate(-0 83.1 146.585516)">T</text>
     </g>
    </g>
   </g>
   <g id="matplotlib.axis_2">
    <g id="ytick_1">
     <g id="line2d_5">
      <defs>
       <path id="m27d6791d67" d="M 0 0 
L -3.5 0 
" style="stroke: #000000; stroke-width: 0.8"/>
      </defs>
      <g>
       <use xlink:href="#m27d6791d67" x="18" y="124.549565" style="stroke: #000000; stroke-width: 0.8"/>
      </g>
     </g>
     <g id="text_5">
      <text style="font: 6px 'Helvetica', sans-serif; text-anchor: end" x="11" y="126.701596" transform="rotate(-0 11 126.701596)">−4</text>
     </g>
    </g>
    <g id="ytick_2">
     <g id="line2d_6">
      <g>
       <use xlink:href="#m27d6791d67" x="18" y="111.693913" style="stroke: #000000; stroke-width: 0.8"/>
      </g>
     </g>
     <g id="text_6">
      <text style="font: 6px 'Helvetica', sans-serif; text-anchor: end" x="11" y="113.845944" transform="rotate(-0 11 113.845944)">−2</text>
     </g>
    </g>
    <g id="ytick_3">
     <g id="line2d_7">
      <g>
       <use xlink:href="#m27d6791d67" x="18" y="98.838261" style="stroke: #000000; stroke-width: 0.8"/>
      </g>
     </g>
     <g id="text_7">
      <text style="font: 6px 'Helvetica', sans-serif; text-anchor: end" x="11" y="100.990292" transform="rotate(-0 11 100.990292)">0</text>
     </g>
    </g>
    <g id="ytick_4">
     <g id="line2d_8">
      <g>
       <use xlink:href="#m27d6791d67" x="18" y="85.982609" style="stroke: #000000; stroke-width: 0.8"/>
      </g>
     </g>
     <g id="text_8">
      <text style="font: 6px 'Helvetica', sans-serif; text-anchor: end" x="11" y="88.13464" transform="rotate(-0 11 88.13464)">2</text>
     </g>
    </g>
    <g id="ytick_5">
     <g id="line2d_9">
      <g>
       <use xlink:href="#m27d6791d67" x="18" y="73.126957" style="stroke: #000000; stroke-width: 0.8"/>
      </g>
     </g>
     <g id="text_9">
      <text style="font: 6px 'Helvetica', sans-serif; text-anchor: end" x="11" y="75.278988" transform="rotate(-0 11 75.278988)">4</text>
     </g>
    </g>
    <g id="ytick_6">
     <g id="line2d_10">
      <g>
       <use xlink:href="#m27d6791d67" x="18" y="60.271304" style="stroke: #000000; stroke-width: 0.8"/>
      </g>
     </g>
     <g id="text_10">
      <text style="font: 6px 'Helvetica', sans-serif; text-anchor: end" x="11" y="62.423336" transform="rotate(-0 11 62.423336)">6</text>
     </g>
    </g>
    <g id="ytick_7">
     <g id="line2d_11">
      <g>
       <use xlink:href="#m27d6791d67" x="18" y="47.415652" style="stroke: #000000; stroke-width: 0.8"/>
      </g>
     </g>
     <g id="text_11">
      <text style="font: 6px 'Helvetica', sans-serif; text-anchor: end" x="11" y="49.567683" transform="rotate(-0 11 49.567683)">8</text>
     </g>
    </g>
    <g id="ytick_8">
     <g id="line2d_12">
      <g>
       <use xlink:href="#m27d6791d67" x="18" y="34.56" style="stroke: #000000; stroke-width: 0.8"/>
      </g>
     </g>
     <g id="text_12">
      <text style="font: 6px 'Helvetica', sans-serif; text-anchor: end" x="11" y="36.712031" transform="rotate(-0 11 36.712031)">10</text>
     </g>
    </g>
    <g id="text_13">
     <text style="font: 12px 'Helvetica', sans-serif; text-anchor: middle" x="-2.342187" y="82.768696" transform="rotate(-90 -2.342187 82.768696)">Speed (mm/s)</text>
    </g>
   </g>
   <g id="line2d_13">
    <path d="M 25.44 100.813376 
L 25.44 97.942439 
" style="fill: none; stroke: #000000; stroke-width: 2; stroke-linecap: square"/>
   </g>
   <g id="line2d_14">
    <path d="M 25.44 95.049918 
L 25.44 92.178981 
" style="fill: none; stroke: #000000; stroke-width: 2; stroke-linecap: square"/>
   </g>
   <g id="line2d_15">
    <path d="M 44.04 99.486171 
L 44.04 98.581025 
" style="fill: none; stroke: #000000; stroke-width: 2; stroke-linecap: square"/>
   </g>
   <g id="line2d_16">
    <path d="M 44.04 95.688503 
L 44.04 94.783358 
" style="fill: none; stroke: #000000; stroke-width: 2; stroke-linecap: square"/>
   </g>
   <g id="line2d_17">
    <path d="M 62.64 99.777546 
L 62.64 98.706528 
" style="fill: none; stroke: #000000; stroke-width: 2; stroke-linecap: square"/>
   </g>
   <g id="line2d_18">
    <path d="M 62.64 95.814006 
L 62.64 94.742988 
" style="fill: none; stroke: #000000; stroke-width: 2; stroke-linecap: square"/>
   </g>
   <g id="line2d_19">
    <path d="M 81.24 99.761165 
L 81.24 99.087904 
" style="fill: none; stroke: #000000; stroke-width: 2; stroke-linecap: square"/>
   </g>
   <g id="line2d_20">
    <path d="M 81.24 96.195382 
L 81.24 95.52212 
" style="fill: none; stroke: #000000; stroke-width: 2; stroke-linecap: square"/>
   </g>
   <g id="legend_1"/>
   <g id="LineCollection_1">
    <defs>
     <path id="mc03d7c97d3" d="M 27.3 -157.022609 
L 45.9 -157.022609 
" style="stroke: #000000"/>
    </defs>
    <g>
     <use xlink:href="#mc03d7c97d3" x="0" y="288" style="stroke: #000000"/>
    </g>
   </g>
   <g id="LineCollection_2">
    <defs>
     <path id="m39d286522f" d="M 64.5 -157.022609 
L 83.1 -157.022609 
" style="stroke: #000000"/>
    </defs>
    <g>
     <use xlink:href="#m39d286522f" x="0" y="288" style="stroke: #000000"/>
    </g>
   </g>
   <g id="LineCollection_3">
    <defs>
     <path id="m75c776847a" d="M 18 -157.022609 
L 18 -253.44 
" style="stroke: #000000"/>
    </defs>
    <g>
     <use xlink:href="#m75c776847a" x="0" y="288" style="stroke: #000000"/>
    </g>
   </g>
  </g>
  <g id="axes_2">
   <g id="patch_6">
    <path d="M 41.25 207.334717 
L 50.55 207.334717 
L 50.55 211.656354 
L 41.25 211.656354 
z
" clip-path="url(#pcfeee8638f)" style="opacity: 0.15; stroke: #000000; stroke-linejoin: miter"/>
   </g>
   <g id="patch_7">
    <path d="M 78.45 207.334717 
L 87.75 207.334717 
L 87.75 209.915681 
L 78.45 209.915681 
z
" clip-path="url(#pcfeee8638f)" style="opacity: 0.15; stroke: #000000; stroke-linejoin: miter"/>
   </g>
   <g id="patch_8">
    <path d="M 115.65 207.334717 
L 124.95 207.334717 
L 124.95 205.594045 
L 115.65 205.594045 
z
" clip-path="url(#pcfeee8638f)" style="opacity: 0.15; stroke: #000000; stroke-linejoin: miter"/>
   </g>
   <g id="PolyCollection_1">
    <defs>
     <path id="m1bf8a04625" d="M 45.905145 -36.062609 
L 45.900113 -36.062609 
L 45.900113 -36.744285 
L 45.900113 -37.425961 
L 45.900113 -38.107637 
L 45.900113 -38.789313 
L 45.900113 -39.470989 
L 45.900113 -40.152665 
L 45.900113 -40.834341 
L 45.900113 -41.516018 
L 45.900113 -42.197694 
L 45.900113 -42.87937 
L 45.900113 -43.561046 
L 45.900113 -44.242722 
L 45.900113 -44.924398 
L 45.900113 -45.606074 
L 45.900113 -46.28775 
L 45.900113 -46.969426 
L 45.900113 -47.651103 
L 45.900113 -48.332779 
L 45.900113 -49.014455 
L 45.900113 -49.696131 
L 45.900113 -50.377807 
L 45.900113 -51.059483 
L 45.900113 -51.741159 
L 45.900113 -52.422835 
L 45.900113 -53.104512 
L 45.900113 -53.786188 
L 45.900113 -54.467864 
L 45.900113 -55.14954 
L 45.900113 -55.831216 
L 45.900113 -56.512892 
L 45.900113 -57.194568 
L 45.900113 -57.876244 
L 45.900113 -58.55792 
L 45.900113 -59.239597 
L 45.900113 -59.921273 
L 45.900113 -60.602949 
L 45.900113 -61.284625 
L 45.900113 -61.966301 
L 45.900113 -62.647977 
L 45.900113 -63.329653 
L 45.900113 -64.011329 
L 45.900113 -64.693005 
L 45.900113 -65.374682 
L 45.900113 -66.056358 
L 45.900113 -66.738034 
L 45.900113 -67.41971 
L 45.900113 -68.101386 
L 45.900113 -68.783062 
L 45.900113 -69.464738 
L 45.900113 -70.146414 
L 45.900113 -70.82809 
L 45.900113 -71.509767 
L 45.900113 -72.191443 
L 45.900113 -72.873119 
L 45.900113 -73.554795 
L 45.900113 -74.236471 
L 45.900113 -74.918147 
L 45.900113 -75.599823 
L 45.900113 -76.281499 
L 45.900113 -76.963175 
L 45.900113 -77.644852 
L 45.900113 -78.326528 
L 45.900113 -79.008204 
L 45.900113 -79.68988 
L 45.900113 -80.371556 
L 45.900113 -81.053232 
L 45.900113 -81.734908 
L 45.900113 -82.416584 
L 45.900113 -83.09826 
L 45.900113 -83.779937 
L 45.900113 -84.461613 
L 45.900113 -85.143289 
L 45.900113 -85.824965 
L 45.900113 -86.506641 
L 45.900113 -87.188317 
L 45.900113 -87.869993 
L 45.900113 -88.551669 
L 45.900113 -89.233345 
L 45.900113 -89.915022 
L 45.900113 -90.596698 
L 45.900113 -91.278374 
L 45.900113 -91.96005 
L 45.900113 -92.641726 
L 45.900113 -93.323402 
L 45.900113 -94.005078 
L 45.900113 -94.686754 
L 45.900113 -95.36843 
L 45.900113 -96.050107 
L 45.900113 -96.731783 
L 45.900113 -97.413459 
L 45.900113 -98.095135 
L 45.900113 -98.776811 
L 45.900113 -99.458487 
L 45.900113 -100.140163 
L 45.900113 -100.821839 
L 45.900113 -101.503515 
L 45.900113 -102.185192 
L 45.900113 -102.866868 
L 45.900113 -103.548544 
L 45.912619 -103.548544 
L 45.912619 -103.548544 
L 45.913891 -102.866868 
L 45.914288 -102.185192 
L 45.915472 -101.503515 
L 45.919707 -100.821839 
L 45.928706 -100.140163 
L 45.942509 -99.458487 
L 45.959352 -98.776811 
L 45.977154 -98.095135 
L 45.99567 -97.413459 
L 46.017564 -96.731783 
L 46.04767 -96.050107 
L 46.091221 -95.36843 
L 46.152142 -94.686754 
L 46.232355 -94.005078 
L 46.332663 -93.323402 
L 46.454271 -92.641726 
L 46.598424 -91.96005 
L 46.763485 -91.278374 
L 46.943172 -90.596698 
L 47.129456 -89.915022 
L 47.317814 -89.233345 
L 47.50972 -88.551669 
L 47.71153 -87.869993 
L 47.932005 -87.188317 
L 48.178403 -86.506641 
L 48.450583 -85.824965 
L 48.737621 -85.143289 
L 49.022789 -84.461613 
L 49.294082 -83.779937 
L 49.549079 -83.09826 
L 49.788882 -82.416584 
L 50.009816 -81.734908 
L 50.202737 -81.053232 
L 50.357715 -80.371556 
L 50.467446 -79.68988 
L 50.529658 -79.008204 
L 50.55 -78.326528 
L 50.540771 -77.644852 
L 50.513265 -76.963175 
L 50.470811 -76.281499 
L 50.409374 -75.599823 
L 50.32382 -74.918147 
L 50.213435 -74.236471 
L 50.081932 -73.554795 
L 49.931977 -72.873119 
L 49.760863 -72.191443 
L 49.564469 -71.509767 
L 49.346151 -70.82809 
L 49.118586 -70.146414 
L 48.8947 -69.464738 
L 48.678943 -68.783062 
L 48.469624 -68.101386 
L 48.267253 -67.41971 
L 48.076618 -66.738034 
L 47.901106 -66.056358 
L 47.738511 -65.374682 
L 47.583307 -64.693005 
L 47.430523 -64.011329 
L 47.276646 -63.329653 
L 47.119968 -62.647977 
L 46.962731 -61.966301 
L 46.811744 -61.284625 
L 46.674731 -60.602949 
L 46.556077 -59.921273 
L 46.456493 -59.239597 
L 46.375203 -58.55792 
L 46.310605 -57.876244 
L 46.259424 -57.194568 
L 46.217076 -56.512892 
L 46.17953 -55.831216 
L 46.144777 -55.14954 
L 46.112997 -54.467864 
L 46.085586 -53.786188 
L 46.063516 -53.104512 
L 46.046105 -52.422835 
L 46.031302 -51.741159 
L 46.017181 -51.059483 
L 46.003107 -50.377807 
L 45.989464 -49.696131 
L 45.976553 -49.014455 
L 45.963991 -48.332779 
L 45.951201 -47.651103 
L 45.938374 -46.969426 
L 45.926899 -46.28775 
L 45.918699 -45.606074 
L 45.91494 -44.924398 
L 45.915177 -44.242722 
L 45.917601 -43.561046 
L 45.920049 -42.87937 
L 45.920893 -42.197694 
L 45.919404 -41.516018 
L 45.915819 -40.834341 
L 45.911207 -40.152665 
L 45.907 -39.470989 
L 45.904296 -38.789313 
L 45.903405 -38.107637 
L 45.903864 -37.425961 
L 45.904748 -36.744285 
L 45.905145 -36.062609 
z
"/>
    </defs>
    <g clip-path="url(#pcfeee8638f)">
     <use xlink:href="#m1bf8a04625" x="0" y="288" style="fill: #808080; fill-opacity: 0.8"/>
    </g>
   </g>
   <g id="PolyCollection_2">
    <defs>
     <path id="m0fc800a6bd" d="M 83.117725 -57.239174 
L 83.100251 -57.239174 
L 83.100251 -57.653901 
L 83.100251 -58.068627 
L 83.100251 -58.483354 
L 83.100251 -58.89808 
L 83.100251 -59.312807 
L 83.100251 -59.727534 
L 83.100251 -60.14226 
L 83.100251 -60.556987 
L 83.100251 -60.971713 
L 83.100251 -61.38644 
L 83.100251 -61.801167 
L 83.100251 -62.215893 
L 83.100251 -62.63062 
L 83.100251 -63.045346 
L 83.100251 -63.460073 
L 83.100251 -63.874799 
L 83.100251 -64.289526 
L 83.100251 -64.704253 
L 83.100251 -65.118979 
L 83.100251 -65.533706 
L 83.100251 -65.948432 
L 83.100251 -66.363159 
L 83.100251 -66.777886 
L 83.100251 -67.192612 
L 83.100251 -67.607339 
L 83.100251 -68.022065 
L 83.100251 -68.436792 
L 83.100251 -68.851518 
L 83.100251 -69.266245 
L 83.100251 -69.680972 
L 83.100251 -70.095698 
L 83.100251 -70.510425 
L 83.100251 -70.925151 
L 83.100251 -71.339878 
L 83.100251 -71.754605 
L 83.100251 -72.169331 
L 83.100251 -72.584058 
L 83.100251 -72.998784 
L 83.100251 -73.413511 
L 83.100251 -73.828237 
L 83.100251 -74.242964 
L 83.100251 -74.657691 
L 83.100251 -75.072417 
L 83.100251 -75.487144 
L 83.100251 -75.90187 
L 83.100251 -76.316597 
L 83.100251 -76.731323 
L 83.100251 -77.14605 
L 83.100251 -77.560777 
L 83.100251 -77.975503 
L 83.100251 -78.39023 
L 83.100251 -78.804956 
L 83.100251 -79.219683 
L 83.100251 -79.63441 
L 83.100251 -80.049136 
L 83.100251 -80.463863 
L 83.100251 -80.878589 
L 83.100251 -81.293316 
L 83.100251 -81.708042 
L 83.100251 -82.122769 
L 83.100251 -82.537496 
L 83.100251 -82.952222 
L 83.100251 -83.366949 
L 83.100251 -83.781675 
L 83.100251 -84.196402 
L 83.100251 -84.611129 
L 83.100251 -85.025855 
L 83.100251 -85.440582 
L 83.100251 -85.855308 
L 83.100251 -86.270035 
L 83.100251 -86.684761 
L 83.100251 -87.099488 
L 83.100251 -87.514215 
L 83.100251 -87.928941 
L 83.100251 -88.343668 
L 83.100251 -88.758394 
L 83.100251 -89.173121 
L 83.100251 -89.587848 
L 83.100251 -90.002574 
L 83.100251 -90.417301 
L 83.100251 -90.832027 
L 83.100251 -91.246754 
L 83.100251 -91.66148 
L 83.100251 -92.076207 
L 83.100251 -92.490934 
L 83.100251 -92.90566 
L 83.100251 -93.320387 
L 83.100251 -93.735113 
L 83.100251 -94.14984 
L 83.100251 -94.564567 
L 83.100251 -94.979293 
L 83.100251 -95.39402 
L 83.100251 -95.808746 
L 83.100251 -96.223473 
L 83.100251 -96.638199 
L 83.100251 -97.052926 
L 83.100251 -97.467653 
L 83.100251 -97.882379 
L 83.100251 -98.297106 
L 83.1155 -98.297106 
L 83.1155 -98.297106 
L 83.118275 -97.882379 
L 83.119119 -97.467653 
L 83.118437 -97.052926 
L 83.117815 -96.638199 
L 83.11932 -96.223473 
L 83.124419 -95.808746 
L 83.133134 -95.39402 
L 83.143925 -94.979293 
L 83.154353 -94.564567 
L 83.16227 -94.14984 
L 83.167076 -93.735113 
L 83.170615 -93.320387 
L 83.177407 -92.90566 
L 83.193862 -92.490934 
L 83.226177 -92.076207 
L 83.277209 -91.66148 
L 83.343634 -91.246754 
L 83.415137 -90.832027 
L 83.476856 -90.417301 
L 83.51513 -90.002574 
L 83.525111 -89.587848 
L 83.517224 -89.173121 
L 83.518601 -88.758394 
L 83.566272 -88.343668 
L 83.691668 -87.928941 
L 83.901144 -87.514215 
L 84.163065 -87.099488 
L 84.413 -86.684761 
L 84.580343 -86.270035 
L 84.625367 -85.855308 
L 84.566333 -85.440582 
L 84.479893 -85.025855 
L 84.472085 -84.611129 
L 84.631838 -84.196402 
L 84.98685 -83.781675 
L 85.481726 -83.366949 
L 85.991308 -82.952222 
L 86.3679 -82.537496 
L 86.503731 -82.122769 
L 86.380232 -81.708042 
L 86.081729 -81.293316 
L 85.768164 -80.878589 
L 85.617 -80.463863 
L 85.752897 -80.049136 
L 86.1893 -79.63441 
L 86.809056 -79.219683 
L 87.401959 -78.804956 
L 87.75 -78.39023 
L 87.720877 -77.975503 
L 87.32286 -77.560777 
L 86.697435 -77.14605 
L 86.059892 -76.731323 
L 85.616975 -76.316597 
L 85.491387 -75.90187 
L 85.677516 -75.487144 
L 86.046025 -75.072417 
L 86.399411 -74.657691 
L 86.555947 -74.242964 
L 86.422394 -73.828237 
L 86.022373 -73.413511 
L 85.473055 -72.998784 
L 84.928638 -72.584058 
L 84.519978 -72.169331 
L 84.313644 -71.754605 
L 84.299567 -71.339878 
L 84.40503 -70.925151 
L 84.527506 -70.510425 
L 84.575088 -70.095698 
L 84.499385 -69.680972 
L 84.307418 -69.266245 
L 84.049366 -68.851518 
L 83.791449 -68.436792 
L 83.588821 -68.022065 
L 83.469352 -67.607339 
L 83.43078 -67.192612 
L 83.447566 -66.777886 
L 83.482812 -66.363159 
L 83.501987 -65.948432 
L 83.484886 -65.533706 
L 83.431057 -65.118979 
L 83.355919 -64.704253 
L 83.280407 -64.289526 
L 83.220946 -63.874799 
L 83.184828 -63.460073 
L 83.170922 -63.045346 
L 83.17263 -62.63062 
L 83.180852 -62.215893 
L 83.186777 -61.801167 
L 83.184647 -61.38644 
L 83.173481 -60.971713 
L 83.156581 -60.556987 
L 83.139081 -60.14226 
L 83.125303 -59.727534 
L 83.117343 -59.312807 
L 83.114989 -58.89808 
L 83.116328 -58.483354 
L 83.118636 -58.068627 
L 83.119481 -57.653901 
L 83.117725 -57.239174 
z
"/>
    </defs>
    <g clip-path="url(#pcfeee8638f)">
     <use xlink:href="#m0fc800a6bd" x="0" y="288" style="fill: #808080; fill-opacity: 0.8"/>
    </g>
   </g>
   <g id="PolyCollection_3">
    <defs>
     <path id="m3f8fd92d30" d="M 120.309951 -48.750529 
L 120.30014 -48.750529 
L 120.30014 -49.507744 
L 120.30014 -50.264958 
L 120.30014 -51.022173 
L 120.30014 -51.779388 
L 120.30014 -52.536602 
L 120.30014 -53.293817 
L 120.30014 -54.051032 
L 120.30014 -54.808246 
L 120.30014 -55.565461 
L 120.30014 -56.322676 
L 120.30014 -57.079891 
L 120.30014 -57.837105 
L 120.30014 -58.59432 
L 120.30014 -59.351535 
L 120.30014 -60.108749 
L 120.30014 -60.865964 
L 120.30014 -61.623179 
L 120.30014 -62.380393 
L 120.30014 -63.137608 
L 120.30014 -63.894823 
L 120.30014 -64.652037 
L 120.30014 -65.409252 
L 120.30014 -66.166467 
L 120.30014 -66.923681 
L 120.30014 -67.680896 
L 120.30014 -68.438111 
L 120.30014 -69.195325 
L 120.30014 -69.95254 
L 120.30014 -70.709755 
L 120.30014 -71.46697 
L 120.30014 -72.224184 
L 120.30014 -72.981399 
L 120.30014 -73.738614 
L 120.30014 -74.495828 
L 120.30014 -75.253043 
L 120.30014 -76.010258 
L 120.30014 -76.767472 
L 120.30014 -77.524687 
L 120.30014 -78.281902 
L 120.30014 -79.039116 
L 120.30014 -79.796331 
L 120.30014 -80.553546 
L 120.30014 -81.31076 
L 120.30014 -82.067975 
L 120.30014 -82.82519 
L 120.30014 -83.582404 
L 120.30014 -84.339619 
L 120.30014 -85.096834 
L 120.30014 -85.854048 
L 120.30014 -86.611263 
L 120.30014 -87.368478 
L 120.30014 -88.125693 
L 120.30014 -88.882907 
L 120.30014 -89.640122 
L 120.30014 -90.397337 
L 120.30014 -91.154551 
L 120.30014 -91.911766 
L 120.30014 -92.668981 
L 120.30014 -93.426195 
L 120.30014 -94.18341 
L 120.30014 -94.940625 
L 120.30014 -95.697839 
L 120.30014 -96.455054 
L 120.30014 -97.212269 
L 120.30014 -97.969483 
L 120.30014 -98.726698 
L 120.30014 -99.483913 
L 120.30014 -100.241127 
L 120.30014 -100.998342 
L 120.30014 -101.755557 
L 120.30014 -102.512771 
L 120.30014 -103.269986 
L 120.30014 -104.027201 
L 120.30014 -104.784416 
L 120.30014 -105.54163 
L 120.30014 -106.298845 
L 120.30014 -107.05606 
L 120.30014 -107.813274 
L 120.30014 -108.570489 
L 120.30014 -109.327704 
L 120.30014 -110.084918 
L 120.30014 -110.842133 
L 120.30014 -111.599348 
L 120.30014 -112.356562 
L 120.30014 -113.113777 
L 120.30014 -113.870992 
L 120.30014 -114.628206 
L 120.30014 -115.385421 
L 120.30014 -116.142636 
L 120.30014 -116.89985 
L 120.30014 -117.657065 
L 120.30014 -118.41428 
L 120.30014 -119.171495 
L 120.30014 -119.928709 
L 120.30014 -120.685924 
L 120.30014 -121.443139 
L 120.30014 -122.200353 
L 120.30014 -122.957568 
L 120.30014 -123.714783 
L 120.308483 -123.714783 
L 120.308483 -123.714783 
L 120.309523 -122.957568 
L 120.309903 -122.200353 
L 120.310395 -121.443139 
L 120.312341 -120.685924 
L 120.317005 -119.928709 
L 120.324627 -119.171495 
L 120.333894 -118.41428 
L 120.342513 -117.657065 
L 120.348712 -116.89985 
L 120.352412 -116.142636 
L 120.35489 -115.385421 
L 120.357363 -114.628206 
L 120.360104 -113.870992 
L 120.363069 -113.113777 
L 120.367226 -112.356562 
L 120.375045 -111.599348 
L 120.389477 -110.842133 
L 120.412156 -110.084918 
L 120.442312 -109.327704 
L 120.477381 -108.570489 
L 120.515119 -107.813274 
L 120.555983 -107.05606 
L 120.604111 -106.298845 
L 120.665579 -105.54163 
L 120.744292 -104.784416 
L 120.838348 -104.027201 
L 120.940342 -103.269986 
L 121.041937 -102.512771 
L 121.138635 -101.755557 
L 121.230318 -100.998342 
L 121.317917 -100.241127 
L 121.401344 -99.483913 
L 121.482431 -98.726698 
L 121.570106 -97.969483 
L 121.680846 -97.212269 
L 121.830915 -96.455054 
L 122.024826 -95.697839 
L 122.249252 -94.940625 
L 122.478685 -94.18341 
L 122.690384 -93.426195 
L 122.878156 -92.668981 
L 123.054377 -91.911766 
L 123.238806 -91.154551 
L 123.443461 -90.397337 
L 123.665369 -89.640122 
L 123.891596 -88.882907 
L 124.110164 -88.125693 
L 124.315913 -87.368478 
L 124.506415 -86.611263 
L 124.674251 -85.854048 
L 124.80632 -85.096834 
L 124.892715 -84.339619 
L 124.93596 -83.582404 
L 124.95 -82.82519 
L 124.949153 -82.067975 
L 124.937536 -81.31076 
L 124.908284 -80.553546 
L 124.852306 -79.796331 
L 124.768551 -79.039116 
L 124.666862 -78.281902 
L 124.559845 -77.524687 
L 124.449604 -76.767472 
L 124.321822 -76.010258 
L 124.155019 -75.253043 
L 123.938256 -74.495828 
L 123.681212 -73.738614 
L 123.407927 -72.981399 
L 123.141355 -72.224184 
L 122.892569 -71.46697 
L 122.660881 -70.709755 
L 122.440668 -69.95254 
L 122.227832 -69.195325 
L 122.022575 -68.438111 
L 121.828873 -67.680896 
L 121.651915 -66.923681 
L 121.494873 -66.166467 
L 121.357006 -65.409252 
L 121.234613 -64.652037 
L 121.123936 -63.894823 
L 121.02309 -63.137608 
L 120.931259 -62.380393 
L 120.846705 -61.623179 
L 120.766558 -60.865964 
L 120.689063 -60.108749 
L 120.61576 -59.351535 
L 120.550862 -58.59432 
L 120.498125 -57.837105 
L 120.458182 -57.079891 
L 120.428643 -56.322676 
L 120.406243 -55.565461 
L 120.388566 -54.808246 
L 120.37409 -54.051032 
L 120.361527 -53.293817 
L 120.349789 -52.536602 
L 120.338551 -51.779388 
L 120.328399 -51.022173 
L 120.320167 -50.264958 
L 120.314154 -49.507744 
L 120.309951 -48.750529 
z
"/>
    </defs>
    <g clip-path="url(#pcfeee8638f)">
     <use xlink:href="#m3f8fd92d30" x="0" y="288" style="fill: #808080; fill-opacity: 0.8"/>
    </g>
   </g>
   <g id="matplotlib.axis_3">
    <g id="xtick_5">
     <g id="line2d_21">
      <g>
       <use xlink:href="#m3799ee8903" x="27.3" y="256.32" style="stroke: #000000; stroke-width: 0.8"/>
      </g>
     </g>
    </g>
    <g id="xtick_6">
     <g id="line2d_22">
      <g>
       <use xlink:href="#m3799ee8903" x="45.9" y="256.32" style="stroke: #000000; stroke-width: 0.8"/>
      </g>
     </g>
     <g id="text_14">
      <text style="font: 12px 'Helvetica', sans-serif; text-anchor: middle" x="45.9" y="271.928125" transform="rotate(-0 45.9 271.928125)">Off</text>
     </g>
    </g>
    <g id="xtick_7">
     <g id="line2d_23">
      <g>
       <use xlink:href="#m3799ee8903" x="64.5" y="256.32" style="stroke: #000000; stroke-width: 0.8"/>
      </g>
     </g>
    </g>
    <g id="xtick_8">
     <g id="line2d_24">
      <g>
       <use xlink:href="#m3799ee8903" x="83.1" y="256.32" style="stroke: #000000; stroke-width: 0.8"/>
      </g>
     </g>
     <g id="text_15">
      <text style="font: 12px 'Helvetica', sans-serif; text-anchor: middle" x="83.1" y="271.928125" transform="rotate(-0 83.1 271.928125)">On</text>
     </g>
    </g>
    <g id="xtick_9">
     <g id="line2d_25">
      <g>
       <use xlink:href="#m3799ee8903" x="101.7" y="256.32" style="stroke: #000000; stroke-width: 0.8"/>
      </g>
     </g>
    </g>
    <g id="xtick_10">
     <g id="line2d_26">
      <g>
       <use xlink:href="#m3799ee8903" x="120.3" y="256.32" style="stroke: #000000; stroke-width: 0.8"/>
      </g>
     </g>
     <g id="text_16">
      <!-- $\Delta\Delta$ -->
      <g transform="translate(112.08 271.928125)">
       <text>
        <tspan style="font: 12px 'DejaVu Sans'" x="0 8.208984" y="-0.25">ΔΔ</tspan>
       </text>
      </g>
     </g>
    </g>
   </g>
   <g id="matplotlib.axis_4">
    <g id="ytick_9">
     <g id="line2d_27">
      <g>
       <use xlink:href="#m27d6791d67" x="18" y="250.835109" style="stroke: #000000; stroke-width: 0.8"/>
      </g>
     </g>
     <g id="text_17">
      <text style="font: 6px 'Helvetica', sans-serif; text-anchor: end" x="11" y="252.98714" transform="rotate(-0 11 252.98714)">−1.0</text>
     </g>
    </g>
    <g id="ytick_10">
     <g id="line2d_28">
      <g>
       <use xlink:href="#m27d6791d67" x="18" y="229.084913" style="stroke: #000000; stroke-width: 0.8"/>
      </g>
     </g>
     <g id="text_18">
      <text style="font: 6px 'Helvetica', sans-serif; text-anchor: end" x="11" y="231.236944" transform="rotate(-0 11 231.236944)">−0.5</text>
     </g>
    </g>
    <g id="ytick_11">
     <g id="line2d_29">
      <g>
       <use xlink:href="#m27d6791d67" x="18" y="207.334717" style="stroke: #000000; stroke-width: 0.8"/>
      </g>
     </g>
     <g id="text_19">
      <text style="font: 6px 'Helvetica', sans-serif; text-anchor: end" x="11" y="209.486748" transform="rotate(-0 11 209.486748)">0.0</text>
     </g>
    </g>
    <g id="ytick_12">
     <g id="line2d_30">
      <g>
       <use xlink:href="#m27d6791d67" x="18" y="185.584521" style="stroke: #000000; stroke-width: 0.8"/>
      </g>
     </g>
     <g id="text_20">
      <text style="font: 6px 'Helvetica', sans-serif; text-anchor: end" x="11" y="187.736552" transform="rotate(-0 11 187.736552)">0.5</text>
     </g>
    </g>
    <g id="ytick_13">
     <g id="line2d_31">
      <g>
       <use xlink:href="#m27d6791d67" x="18" y="163.834325" style="stroke: #000000; stroke-width: 0.8"/>
      </g>
     </g>
     <g id="text_21">
      <text style="font: 6px 'Helvetica', sans-serif; text-anchor: end" x="11" y="165.986356" transform="rotate(-0 11 165.986356)">1.0</text>
     </g>
    </g>
    <g id="text_22">
     <!-- $\Delta$ Speed (mm/s) -->
     <g transform="translate(-7.364375 251.611304) rotate(-90)">
      <text>
       <tspan style="font: 12px 'DejaVu Sans'" x="0" y="-0.15625">Δ</tspan>
       <tspan style="font: 12px 'Helvetica'" x="8.208984 11.542969 19.546875 26.220703 32.894531 39.568359 46.242188 49.576172 53.572266 63.568359 73.564453 76.898438 82.898438" y="-0.15625"> Speed (mm/s)</tspan>
      </text>
     </g>
    </g>
   </g>
   <g id="line2d_32">
    <path d="M 45.9 211.656354 
" clip-path="url(#pcfeee8638f)" style="fill: none; stroke: #000000; stroke-width: 1.5; stroke-linecap: square"/>
    <defs>
     <path id="m36891d97d2" d="M 0 2.5 
C 0.663008 2.5 1.29895 2.236584 1.767767 1.767767 
C 2.236584 1.29895 2.5 0.663008 2.5 0 
C 2.5 -0.663008 2.236584 -1.29895 1.767767 -1.767767 
C 1.29895 -2.236584 0.663008 -2.5 0 -2.5 
C -0.663008 -2.5 -1.29895 -2.236584 -1.767767 -1.767767 
C -2.236584 -1.29895 -2.5 -0.663008 -2.5 0 
C -2.5 0.663008 -2.236584 1.29895 -1.767767 1.767767 
C -1.29895 2.236584 -0.663008 2.5 0 2.5 
z
" style="stroke: #000000"/>
    </defs>
    <g clip-path="url(#pcfeee8638f)">
     <use xlink:href="#m36891d97d2" x="45.9" y="211.656354" style="stroke: #000000"/>
    </g>
   </g>
   <g id="line2d_33">
    <path d="M 45.9 232.958933 
L 45.9 198.718677 
" clip-path="url(#pcfeee8638f)" style="fill: none; stroke: #000000; stroke-width: 2; stroke-linecap: square"/>
   </g>
   <g id="line2d_34">
    <path d="M 83.1 209.915681 
" clip-path="url(#pcfeee8638f)" style="fill: none; stroke: #000000; stroke-width: 1.5; stroke-linecap: square"/>
    <g clip-path="url(#pcfeee8638f)">
     <use xlink:href="#m36891d97d2" x="83.1" y="209.915681" style="stroke: #000000"/>
    </g>
   </g>
   <g id="line2d_35">
    <path d="M 83.1 222.186972 
L 83.1 200.67457 
" clip-path="url(#pcfeee8638f)" style="fill: none; stroke: #000000; stroke-width: 2; stroke-linecap: square"/>
   </g>
   <g id="line2d_36">
    <path d="M 120.3 205.594045 
" clip-path="url(#pcfeee8638f)" style="fill: none; stroke: #000000; stroke-width: 1.5; stroke-linecap: square"/>
    <g clip-path="url(#pcfeee8638f)">
     <use xlink:href="#m36891d97d2" x="120.3" y="205.594045" style="stroke: #000000"/>
    </g>
   </g>
   <g id="line2d_37">
    <path d="M 120.3 224.257959 
L 120.3 184.892642 
" clip-path="url(#pcfeee8638f)" style="fill: none; stroke: #000000; stroke-width: 2; stroke-linecap: square"/>
   </g>
   <g id="line2d_38">
    <path d="M 18 207.334717 
L 129.6 207.334717 
" clip-path="url(#pcfeee8638f)" style="fill: none; stroke: #000000; stroke-width: 0.75; stroke-linecap: square"/>
   </g>
   <g id="LineCollection_4">
    <defs>
     <path id="m6b2782f29d" d="M 27.3 -31.68 
L 45.9 -31.68 
" style="stroke: #000000"/>
    </defs>
    <g>
     <use xlink:href="#m6b2782f29d" x="0" y="288" style="stroke: #000000"/>
    </g>
   </g>
   <g id="LineCollection_5">
    <defs>
     <path id="md1a4dad0c3" d="M 64.5 -31.68 
L 83.1 -31.68 
" style="stroke: #000000"/>
    </defs>
    <g>
     <use xlink:href="#md1a4dad0c3" x="0" y="288" style="stroke: #000000"/>
    </g>
   </g>
   <g id="LineCollection_6">
    <defs>
     <path id="mfb5cea0be7" d="M 101.7 -31.68 
L 120.3 -31.68 
" style="stroke: #000000"/>
    </defs>
    <g>
     <use xlink:href="#mfb5cea0be7" x="0" y="288" style="stroke: #000000"/>
    </g>
   </g>
   <g id="LineCollection_7">
    <defs>
     <path id="m219ed50a6f" d="M 18 -31.68 
L 18 -128.097391 
" style="stroke: #000000"/>
    </defs>
    <g>
     <use xlink:href="#m219ed50a6f" x="0" y="288" style="stroke: #000000"/>
    </g>
   </g>
  </g>
  <g id="axes_3">
   <g id="matplotlib.axis_5">
    <g id="ytick_14">
     <g id="line2d_39">
      <defs>
       <path id="m2c42508fbb" d="M 0 0 
L 3.5 0 
" style="stroke: #000000; stroke-width: 0.8"/>
      </defs>
      <g>
       <use xlink:href="#m2c42508fbb" x="129.6" y="250.835109" style="stroke: #000000; stroke-width: 0.8"/>
      </g>
     </g>
     <g id="text_23">
      <text style="font: 6px 'Helvetica', sans-serif; text-anchor: start" x="136.6" y="252.98714" transform="rotate(-0 136.6 252.98714)">−1.0</text>
     </g>
    </g>
    <g id="ytick_15">
     <g id="line2d_40">
      <g>
       <use xlink:href="#m2c42508fbb" x="129.6" y="229.084913" style="stroke: #000000; stroke-width: 0.8"/>
      </g>
     </g>
     <g id="text_24">
      <text style="font: 6px 'Helvetica', sans-serif; text-anchor: start" x="136.6" y="231.236944" transform="rotate(-0 136.6 231.236944)">−0.5</text>
     </g>
    </g>
    <g id="ytick_16">
     <g id="line2d_41">
      <g>
       <use xlink:href="#m2c42508fbb" x="129.6" y="207.334717" style="stroke: #000000; stroke-width: 0.8"/>
      </g>
     </g>
     <g id="text_25">
      <text style="font: 6px 'Helvetica', sans-serif; text-anchor: start" x="136.6" y="209.486748" transform="rotate(-0 136.6 209.486748)">0.0</text>
     </g>
    </g>
    <g id="ytick_17">
     <g id="line2d_42">
      <g>
       <use xlink:href="#m2c42508fbb" x="129.6" y="185.584521" style="stroke: #000000; stroke-width: 0.8"/>
      </g>
     </g>
     <g id="text_26">
      <text style="font: 6px 'Helvetica', sans-serif; text-anchor: start" x="136.6" y="187.736552" transform="rotate(-0 136.6 187.736552)">0.5</text>
     </g>
    </g>
    <g id="ytick_18">
     <g id="line2d_43">
      <g>
       <use xlink:href="#m2c42508fbb" x="129.6" y="163.834325" style="stroke: #000000; stroke-width: 0.8"/>
      </g>
     </g>
     <g id="text_27">
      <text style="font: 6px 'Helvetica', sans-serif; text-anchor: start" x="136.6" y="165.986356" transform="rotate(-0 136.6 165.986356)">1.0</text>
     </g>
    </g>
    <g id="text_28">
     <!-- $\Delta\Delta$ -->
     <g transform="translate(161.0525 216.331304) rotate(-90)">
      <text>
       <tspan style="font: 12px 'DejaVu Sans'" x="0 8.208984" y="-0.25">ΔΔ</tspan>
      </text>
     </g>
    </g>
   </g>
   <g id="LineCollection_8">
    <defs>
     <path id="m4f47e6ba56" d="M 129.6 -31.68 
L 129.6 -128.097391 
" style="stroke: #000000"/>
    </defs>
    <g>
     <use xlink:href="#m4f47e6ba56" x="0" y="288" style="stroke: #000000"/>
    </g>
   </g>
  </g>
  <g id="text_29">
   <text style="fill: #ffa500; font: italic 500 12px 'inter'; text-anchor: middle" x="72" y="17.758125" transform="rotate(-0 72 17.758125)">SXVNC2&gt;ACR1</text>
  </g>
 </g>
 <defs>
  <clipPath id="pf9086dc95d">
   <rect x="18" y="34.56" width="111.6" height="96.417391"/>
  </clipPath>
  <clipPath id="pcfeee8638f">
   <rect x="18" y="159.902609" width="111.6" height="96.417391"/>
  </clipPath>
 </defs>
</svg>
