<?xml version="1.0" encoding="utf-8" standalone="no"?>
<!DOCTYPE svg PUBLIC "-//W3C//DTD SVG 1.1//EN"
  "http://www.w3.org/Graphics/SVG/1.1/DTD/svg11.dtd">
<svg xmlns:xlink="http://www.w3.org/1999/xlink" width="144pt" height="288pt" viewBox="0 0 144 288" xmlns="http://www.w3.org/2000/svg" version="1.1">
 <metadata>
  <rdf:RDF xmlns:dc="http://purl.org/dc/elements/1.1/" xmlns:cc="http://creativecommons.org/ns#" xmlns:rdf="http://www.w3.org/1999/02/22-rdf-syntax-ns#">
   <cc:Work>
    <dc:type rdf:resource="http://purl.org/dc/dcmitype/StillImage"/>
    <dc:date>2025-02-16T02:07:37.722434</dc:date>
    <dc:format>image/svg+xml</dc:format>
    <dc:creator>
     <cc:Agent>
      <dc:title>Matplotlib v3.6.3, https://matplotlib.org/</dc:title>
     </cc:Agent>
    </dc:creator>
   </cc:Work>
  </rdf:RDF>
 </metadata>
 <defs>
  <style type="text/css">*{stroke-linejoin: round; stroke-linecap: butt}</style>
 </defs>
 <g id="figure_1">
  <g id="patch_1">
   <path d="M 0 288 
L 144 288 
L 144 0 
L 0 0 
z
" style="fill: #ffffff"/>
  </g>
  <g id="axes_1">
   <g id="patch_2">
    <path d="M 22.65 98.838261 
L 31.95 98.838261 
L 31.95 97.472952 
L 22.65 97.472952 
z
" clip-path="url(#pedb978e9a8)" style="opacity: 0.15; stroke: #000000; stroke-linejoin: miter"/>
   </g>
   <g id="patch_3">
    <path d="M 41.25 98.838261 
L 50.55 98.838261 
L 50.55 97.679179 
L 41.25 97.679179 
z
" clip-path="url(#pedb978e9a8)" style="opacity: 0.15; stroke: #000000; stroke-linejoin: miter"/>
   </g>
   <g id="patch_4">
    <path d="M 59.85 98.838261 
L 69.15 98.838261 
L 69.15 97.238657 
L 59.85 97.238657 
z
" clip-path="url(#pedb978e9a8)" style="opacity: 0.15; stroke: #000000; stroke-linejoin: miter"/>
   </g>
   <g id="patch_5">
    <path d="M 78.45 98.838261 
L 87.75 98.838261 
L 87.75 97.803798 
L 78.45 97.803798 
z
" clip-path="url(#pedb978e9a8)" style="opacity: 0.15; stroke: #000000; stroke-linejoin: miter"/>
   </g>
   <g id="PathCollection_1">
    <defs>
     <path id="C0_0_141c15466f" d="M 0 0.632456 
C 0.167729 0.632456 0.328611 0.565816 0.447214 0.447214 
C 0.565816 0.328611 0.632456 0.167729 0.632456 -0 
C 0.632456 -0.167729 0.565816 -0.328611 0.447214 -0.447214 
C 0.328611 -0.565816 0.167729 -0.632456 0 -0.632456 
C -0.167729 -0.632456 -0.328611 -0.565816 -0.447214 -0.447214 
C -0.565816 -0.328611 -0.632456 -0.167729 -0.632456 0 
C -0.632456 0.167729 -0.565816 0.328611 -0.447214 0.447214 
C -0.328611 0.565816 -0.167729 0.632456 0 0.632456 
z
"/>
    </defs>
    <g clip-path="url(#pedb978e9a8)">
     <use xlink:href="#C0_0_141c15466f" x="27.3" y="98.387169" style="fill: #808080; stroke: #808080"/>
    </g>
    <g clip-path="url(#pedb978e9a8)">
     <use xlink:href="#C0_0_141c15466f" x="28.922002" y="98.297404" style="stroke: #000000"/>
    </g>
    <g clip-path="url(#pedb978e9a8)">
     <use xlink:href="#C0_0_141c15466f" x="30.544734" y="98.245182" style="fill: #808080; stroke: #808080"/>
    </g>
    <g clip-path="url(#pedb978e9a8)">
     <use xlink:href="#C0_0_141c15466f" x="32.167544" y="98.198731" style="fill: #808080; stroke: #808080"/>
    </g>
    <g clip-path="url(#pedb978e9a8)">
     <use xlink:href="#C0_0_141c15466f" x="33.789811" y="98.120452" style="fill: #808080; stroke: #808080"/>
    </g>
    <g clip-path="url(#pedb978e9a8)">
     <use xlink:href="#C0_0_141c15466f" x="35.410898" y="97.999061" style="stroke: #000000"/>
    </g>
    <g clip-path="url(#pedb978e9a8)">
     <use xlink:href="#C0_0_141c15466f" x="27.3" y="93.938042" style="fill: #808080; stroke: #808080"/>
    </g>
   </g>
   <g id="PathCollection_2">
    <defs>
     <path id="C1_0_2caed698f3" d="M 0 0.632456 
C 0.167729 0.632456 0.328611 0.565816 0.447214 0.447214 
C 0.565816 0.328611 0.632456 0.167729 0.632456 -0 
C 0.632456 -0.167729 0.565816 -0.328611 0.447214 -0.447214 
C 0.328611 -0.565816 0.167729 -0.632456 0 -0.632456 
C -0.167729 -0.632456 -0.328611 -0.565816 -0.447214 -0.447214 
C -0.565816 -0.328611 -0.632456 -0.167729 -0.632456 0 
C -0.632456 0.167729 -0.565816 0.328611 -0.447214 0.447214 
C -0.328611 0.565816 -0.167729 0.632456 0 0.632456 
z
"/>
    </defs>
    <g clip-path="url(#pedb978e9a8)">
     <use xlink:href="#C1_0_2caed698f3" x="45.9" y="98.297088" style="fill: #ff4500; stroke: #ff4500"/>
    </g>
    <g clip-path="url(#pedb978e9a8)">
     <use xlink:href="#C1_0_2caed698f3" x="47.522853" y="98.254125" style="fill: #ff4500; stroke: #ff4500"/>
    </g>
    <g clip-path="url(#pedb978e9a8)">
     <use xlink:href="#C1_0_2caed698f3" x="49.143628" y="98.123701" style="fill: #ff4500; stroke: #ff4500"/>
    </g>
    <g clip-path="url(#pedb978e9a8)">
     <use xlink:href="#C1_0_2caed698f3" x="50.766632" y="98.096444" style="fill: #ff4500; stroke: #ff4500"/>
    </g>
    <g clip-path="url(#pedb978e9a8)">
     <use xlink:href="#C1_0_2caed698f3" x="52.389312" y="98.040711" style="fill: #ff4500; stroke: #ff4500"/>
    </g>
    <g clip-path="url(#pedb978e9a8)">
     <use xlink:href="#C1_0_2caed698f3" x="54.011046" y="97.940635" style="fill: #ff4500; stroke: #ff4500"/>
    </g>
    <g clip-path="url(#pedb978e9a8)">
     <use xlink:href="#C1_0_2caed698f3" x="45.9" y="95.385002" style="fill: #ff4500; stroke: #ff4500"/>
    </g>
   </g>
   <g id="PathCollection_3">
    <defs>
     <path id="C2_0_f57861eed3" d="M 0 0.632456 
C 0.167729 0.632456 0.328611 0.565816 0.447214 0.447214 
C 0.565816 0.328611 0.632456 0.167729 0.632456 -0 
C 0.632456 -0.167729 0.565816 -0.328611 0.447214 -0.447214 
C 0.328611 -0.565816 0.167729 -0.632456 0 -0.632456 
C -0.167729 -0.632456 -0.328611 -0.565816 -0.447214 -0.447214 
C -0.565816 -0.328611 -0.632456 -0.167729 -0.632456 0 
C -0.632456 0.167729 -0.565816 0.328611 -0.447214 0.447214 
C -0.328611 0.565816 -0.167729 0.632456 0 0.632456 
z
"/>
    </defs>
    <g clip-path="url(#pedb978e9a8)">
     <use xlink:href="#C2_0_f57861eed3" x="64.5" y="98.426146" style="stroke: #000000"/>
    </g>
    <g clip-path="url(#pedb978e9a8)">
     <use xlink:href="#C2_0_f57861eed3" x="66.123105" y="98.423472" style="fill: #808080; stroke: #808080"/>
    </g>
    <g clip-path="url(#pedb978e9a8)">
     <use xlink:href="#C2_0_f57861eed3" x="67.746201" y="98.41546" style="stroke: #000000"/>
    </g>
    <g clip-path="url(#pedb978e9a8)">
     <use xlink:href="#C2_0_f57861eed3" x="69.369212" y="98.389136" style="stroke: #000000"/>
    </g>
    <g clip-path="url(#pedb978e9a8)">
     <use xlink:href="#C2_0_f57861eed3" x="70.992301" y="98.377937" style="fill: #808080; stroke: #808080"/>
    </g>
    <g clip-path="url(#pedb978e9a8)">
     <use xlink:href="#C2_0_f57861eed3" x="72.615359" y="98.35943" style="fill: #808080; stroke: #808080"/>
    </g>
    <g clip-path="url(#pedb978e9a8)">
     <use xlink:href="#C2_0_f57861eed3" x="65.187813" y="96.220898" style="stroke: #000000"/>
    </g>
    <g clip-path="url(#pedb978e9a8)">
     <use xlink:href="#C2_0_f57861eed3" x="66.788504" y="95.817682" style="fill: #808080; stroke: #808080"/>
    </g>
    <g clip-path="url(#pedb978e9a8)">
     <use xlink:href="#C2_0_f57861eed3" x="68.129421" y="94.445849" style="fill: #808080; stroke: #808080"/>
    </g>
    <g clip-path="url(#pedb978e9a8)">
     <use xlink:href="#C2_0_f57861eed3" x="69.751893" y="94.377783" style="fill: #808080; stroke: #808080"/>
    </g>
    <g clip-path="url(#pedb978e9a8)">
     <use xlink:href="#C2_0_f57861eed3" x="71.368427" y="94.158925" style="stroke: #000000"/>
    </g>
    <g clip-path="url(#pedb978e9a8)">
     <use xlink:href="#C2_0_f57861eed3" x="64.5" y="93.553454" style="fill: #808080; stroke: #808080"/>
    </g>
    <g clip-path="url(#pedb978e9a8)">
     <use xlink:href="#C2_0_f57861eed3" x="66.082864" y="93.014678" style="stroke: #000000"/>
    </g>
    <g clip-path="url(#pedb978e9a8)">
     <use xlink:href="#C2_0_f57861eed3" x="72.442451" y="92.333515" style="stroke: #000000"/>
    </g>
    <g clip-path="url(#pedb978e9a8)">
     <use xlink:href="#C2_0_f57861eed3" x="64.5" y="90.071647" style="fill: #808080; stroke: #808080"/>
    </g>
    <g clip-path="url(#pedb978e9a8)">
     <use xlink:href="#C2_0_f57861eed3" x="66.084164" y="89.541536" style="fill: #808080; stroke: #808080"/>
    </g>
   </g>
   <g id="PathCollection_4">
    <defs>
     <path id="C3_0_9648280e19" d="M 0 0.632456 
C 0.167729 0.632456 0.328611 0.565816 0.447214 0.447214 
C 0.565816 0.328611 0.632456 0.167729 0.632456 -0 
C 0.632456 -0.167729 0.565816 -0.328611 0.447214 -0.447214 
C 0.328611 -0.565816 0.167729 -0.632456 0 -0.632456 
C -0.167729 -0.632456 -0.328611 -0.565816 -0.447214 -0.447214 
C -0.565816 -0.328611 -0.632456 -0.167729 -0.632456 0 
C -0.632456 0.167729 -0.565816 0.328611 -0.447214 0.447214 
C -0.328611 0.565816 -0.167729 0.632456 0 0.632456 
z
"/>
    </defs>
    <g clip-path="url(#pedb978e9a8)">
     <use xlink:href="#C3_0_9648280e19" x="83.1" y="98.838261" style="fill: #ff4500; stroke: #ff4500"/>
    </g>
    <g clip-path="url(#pedb978e9a8)">
     <use xlink:href="#C3_0_9648280e19" x="84.708536" y="98.512776" style="fill: #ff4500; stroke: #ff4500"/>
    </g>
    <g clip-path="url(#pedb978e9a8)">
     <use xlink:href="#C3_0_9648280e19" x="86.331397" y="98.470516" style="fill: #ff4500; stroke: #ff4500"/>
    </g>
    <g clip-path="url(#pedb978e9a8)">
     <use xlink:href="#C3_0_9648280e19" x="87.954497" y="98.464296" style="fill: #ff4500; stroke: #ff4500"/>
    </g>
    <g clip-path="url(#pedb978e9a8)">
     <use xlink:href="#C3_0_9648280e19" x="89.577554" y="98.445347" style="fill: #ff4500; stroke: #ff4500"/>
    </g>
    <g clip-path="url(#pedb978e9a8)">
     <use xlink:href="#C3_0_9648280e19" x="91.200659" y="98.443902" style="fill: #ff4500; stroke: #ff4500"/>
    </g>
    <g clip-path="url(#pedb978e9a8)">
     <use xlink:href="#C3_0_9648280e19" x="83.679497" y="96.564064" style="fill: #ff4500; stroke: #ff4500"/>
    </g>
    <g clip-path="url(#pedb978e9a8)">
     <use xlink:href="#C3_0_9648280e19" x="85.200952" y="95.716002" style="fill: #ff4500; stroke: #ff4500"/>
    </g>
    <g clip-path="url(#pedb978e9a8)">
     <use xlink:href="#C3_0_9648280e19" x="83.1" y="93.568162" style="fill: #ff4500; stroke: #ff4500"/>
    </g>
    <g clip-path="url(#pedb978e9a8)">
     <use xlink:href="#C3_0_9648280e19" x="83.1" y="90.991251" style="fill: #ff4500; stroke: #ff4500"/>
    </g>
   </g>
   <g id="matplotlib.axis_1">
    <g id="xtick_1">
     <g id="line2d_1">
      <defs>
       <path id="m0e733ff611" d="M 0 0 
L 0 3.5 
" style="stroke: #000000; stroke-width: 0.8"/>
      </defs>
      <g>
       <use xlink:href="#m0e733ff611" x="27.3" y="130.977391" style="stroke: #000000; stroke-width: 0.8"/>
      </g>
     </g>
     <g id="text_1">
      <text style="font: 12px 'Helvetica', sans-serif; text-anchor: middle" x="27.3" y="146.585516" transform="rotate(-0 27.3 146.585516)">C</text>
     </g>
    </g>
    <g id="xtick_2">
     <g id="line2d_2">
      <g>
       <use xlink:href="#m0e733ff611" x="45.9" y="130.977391" style="stroke: #000000; stroke-width: 0.8"/>
      </g>
     </g>
     <g id="text_2">
      <text style="font: 12px 'Helvetica', sans-serif; text-anchor: middle" x="45.9" y="146.585516" transform="rotate(-0 45.9 146.585516)">T</text>
     </g>
    </g>
    <g id="xtick_3">
     <g id="line2d_3">
      <g>
       <use xlink:href="#m0e733ff611" x="64.5" y="130.977391" style="stroke: #000000; stroke-width: 0.8"/>
      </g>
     </g>
     <g id="text_3">
      <text style="font: 12px 'Helvetica', sans-serif; text-anchor: middle" x="64.5" y="146.585516" transform="rotate(-0 64.5 146.585516)">C</text>
     </g>
    </g>
    <g id="xtick_4">
     <g id="line2d_4">
      <g>
       <use xlink:href="#m0e733ff611" x="83.1" y="130.977391" style="stroke: #000000; stroke-width: 0.8"/>
      </g>
     </g>
     <g id="text_4">
      <text style="font: 12px 'Helvetica', sans-serif; text-anchor: middle" x="83.1" y="146.585516" transform="rotate(-0 83.1 146.585516)">T</text>
     </g>
    </g>
   </g>
   <g id="matplotlib.axis_2">
    <g id="ytick_1">
     <g id="line2d_5">
      <defs>
       <path id="ma523be109f" d="M 0 0 
L -3.5 0 
" style="stroke: #000000; stroke-width: 0.8"/>
      </defs>
      <g>
       <use xlink:href="#ma523be109f" x="18" y="124.549565" style="stroke: #000000; stroke-width: 0.8"/>
      </g>
     </g>
     <g id="text_5">
      <text style="font: 6px 'Helvetica', sans-serif; text-anchor: end" x="11" y="126.701596" transform="rotate(-0 11 126.701596)">−4</text>
     </g>
    </g>
    <g id="ytick_2">
     <g id="line2d_6">
      <g>
       <use xlink:href="#ma523be109f" x="18" y="111.693913" style="stroke: #000000; stroke-width: 0.8"/>
      </g>
     </g>
     <g id="text_6">
      <text style="font: 6px 'Helvetica', sans-serif; text-anchor: end" x="11" y="113.845944" transform="rotate(-0 11 113.845944)">−2</text>
     </g>
    </g>
    <g id="ytick_3">
     <g id="line2d_7">
      <g>
       <use xlink:href="#ma523be109f" x="18" y="98.838261" style="stroke: #000000; stroke-width: 0.8"/>
      </g>
     </g>
     <g id="text_7">
      <text style="font: 6px 'Helvetica', sans-serif; text-anchor: end" x="11" y="100.990292" transform="rotate(-0 11 100.990292)">0</text>
     </g>
    </g>
    <g id="ytick_4">
     <g id="line2d_8">
      <g>
       <use xlink:href="#ma523be109f" x="18" y="85.982609" style="stroke: #000000; stroke-width: 0.8"/>
      </g>
     </g>
     <g id="text_8">
      <text style="font: 6px 'Helvetica', sans-serif; text-anchor: end" x="11" y="88.13464" transform="rotate(-0 11 88.13464)">2</text>
     </g>
    </g>
    <g id="ytick_5">
     <g id="line2d_9">
      <g>
       <use xlink:href="#ma523be109f" x="18" y="73.126957" style="stroke: #000000; stroke-width: 0.8"/>
      </g>
     </g>
     <g id="text_9">
      <text style="font: 6px 'Helvetica', sans-serif; text-anchor: end" x="11" y="75.278988" transform="rotate(-0 11 75.278988)">4</text>
     </g>
    </g>
    <g id="ytick_6">
     <g id="line2d_10">
      <g>
       <use xlink:href="#ma523be109f" x="18" y="60.271304" style="stroke: #000000; stroke-width: 0.8"/>
      </g>
     </g>
     <g id="text_10">
      <text style="font: 6px 'Helvetica', sans-serif; text-anchor: end" x="11" y="62.423336" transform="rotate(-0 11 62.423336)">6</text>
     </g>
    </g>
    <g id="ytick_7">
     <g id="line2d_11">
      <g>
       <use xlink:href="#ma523be109f" x="18" y="47.415652" style="stroke: #000000; stroke-width: 0.8"/>
      </g>
     </g>
     <g id="text_11">
      <text style="font: 6px 'Helvetica', sans-serif; text-anchor: end" x="11" y="49.567683" transform="rotate(-0 11 49.567683)">8</text>
     </g>
    </g>
    <g id="ytick_8">
     <g id="line2d_12">
      <g>
       <use xlink:href="#ma523be109f" x="18" y="34.56" style="stroke: #000000; stroke-width: 0.8"/>
      </g>
     </g>
     <g id="text_12">
      <text style="font: 6px 'Helvetica', sans-serif; text-anchor: end" x="11" y="36.712031" transform="rotate(-0 11 36.712031)">10</text>
     </g>
    </g>
    <g id="text_13">
     <text style="font: 12px 'Helvetica', sans-serif; text-anchor: middle" x="-2.342187" y="82.768696" transform="rotate(-90 -2.342187 82.768696)">Speed (mm/s)</text>
    </g>
   </g>
   <g id="line2d_13">
    <path d="M 25.44 98.571259 
L 25.44 98.919213 
" style="fill: none; stroke: #000000; stroke-width: 2; stroke-linecap: square"/>
   </g>
   <g id="line2d_14">
    <path d="M 25.44 96.026691 
L 25.44 96.374644 
" style="fill: none; stroke: #000000; stroke-width: 2; stroke-linecap: square"/>
   </g>
   <g id="line2d_15">
    <path d="M 44.04 98.428379 
L 44.04 99.12544 
" style="fill: none; stroke: #000000; stroke-width: 2; stroke-linecap: square"/>
   </g>
   <g id="line2d_16">
    <path d="M 44.04 96.232918 
L 44.04 96.929979 
" style="fill: none; stroke: #000000; stroke-width: 2; stroke-linecap: square"/>
   </g>
   <g id="line2d_17">
    <path d="M 62.64 99.119039 
L 62.64 98.684918 
" style="fill: none; stroke: #000000; stroke-width: 2; stroke-linecap: square"/>
   </g>
   <g id="line2d_18">
    <path d="M 62.64 95.792396 
L 62.64 95.358275 
" style="fill: none; stroke: #000000; stroke-width: 2; stroke-linecap: square"/>
   </g>
   <g id="line2d_19">
    <path d="M 81.24 99.083701 
L 81.24 99.250059 
" style="fill: none; stroke: #000000; stroke-width: 2; stroke-linecap: square"/>
   </g>
   <g id="line2d_20">
    <path d="M 81.24 96.357538 
L 81.24 96.523896 
" style="fill: none; stroke: #000000; stroke-width: 2; stroke-linecap: square"/>
   </g>
   <g id="legend_1"/>
   <g id="LineCollection_1">
    <defs>
     <path id="md14832a995" d="M 27.3 -157.022609 
L 45.9 -157.022609 
" style="stroke: #000000"/>
    </defs>
    <g>
     <use xlink:href="#md14832a995" x="0" y="288" style="stroke: #000000"/>
    </g>
   </g>
   <g id="LineCollection_2">
    <defs>
     <path id="m6d49f6c4d9" d="M 64.5 -157.022609 
L 83.1 -157.022609 
" style="stroke: #000000"/>
    </defs>
    <g>
     <use xlink:href="#m6d49f6c4d9" x="0" y="288" style="stroke: #000000"/>
    </g>
   </g>
   <g id="LineCollection_3">
    <defs>
     <path id="m584f0dacd9" d="M 18 -157.022609 
L 18 -253.44 
" style="stroke: #000000"/>
    </defs>
    <g>
     <use xlink:href="#m584f0dacd9" x="0" y="288" style="stroke: #000000"/>
    </g>
   </g>
  </g>
  <g id="axes_2">
   <g id="patch_6">
    <path d="M 41.25 197.066818 
L 50.55 197.066818 
L 50.55 202.012343 
L 41.25 202.012343 
z
" clip-path="url(#pb26b9f3e7d)" style="opacity: 0.15; stroke: #000000; stroke-linejoin: miter"/>
   </g>
   <g id="patch_7">
    <path d="M 78.45 197.066818 
L 87.75 197.066818 
L 87.75 210.619419 
L 78.45 210.619419 
z
" clip-path="url(#pb26b9f3e7d)" style="opacity: 0.15; stroke: #000000; stroke-linejoin: miter"/>
   </g>
   <g id="patch_8">
    <path d="M 115.65 197.066818 
L 124.95 197.066818 
L 124.95 205.673894 
L 115.65 205.673894 
z
" clip-path="url(#pb26b9f3e7d)" style="opacity: 0.15; stroke: #000000; stroke-linejoin: miter"/>
   </g>
   <g id="PolyCollection_1">
    <defs>
     <path id="m2972e9f61e" d="M 45.914105 -57.058869 
L 45.900163 -57.058869 
L 45.900163 -57.671004 
L 45.900163 -58.283139 
L 45.900163 -58.895274 
L 45.900163 -59.507409 
L 45.900163 -60.119544 
L 45.900163 -60.731679 
L 45.900163 -61.343814 
L 45.900163 -61.955949 
L 45.900163 -62.568084 
L 45.900163 -63.180219 
L 45.900163 -63.792354 
L 45.900163 -64.404489 
L 45.900163 -65.016624 
L 45.900163 -65.628759 
L 45.900163 -66.240893 
L 45.900163 -66.853028 
L 45.900163 -67.465163 
L 45.900163 -68.077298 
L 45.900163 -68.689433 
L 45.900163 -69.301568 
L 45.900163 -69.913703 
L 45.900163 -70.525838 
L 45.900163 -71.137973 
L 45.900163 -71.750108 
L 45.900163 -72.362243 
L 45.900163 -72.974378 
L 45.900163 -73.586513 
L 45.900163 -74.198648 
L 45.900163 -74.810783 
L 45.900163 -75.422917 
L 45.900163 -76.035052 
L 45.900163 -76.647187 
L 45.900163 -77.259322 
L 45.900163 -77.871457 
L 45.900163 -78.483592 
L 45.900163 -79.095727 
L 45.900163 -79.707862 
L 45.900163 -80.319997 
L 45.900163 -80.932132 
L 45.900163 -81.544267 
L 45.900163 -82.156402 
L 45.900163 -82.768537 
L 45.900163 -83.380672 
L 45.900163 -83.992807 
L 45.900163 -84.604942 
L 45.900163 -85.217076 
L 45.900163 -85.829211 
L 45.900163 -86.441346 
L 45.900163 -87.053481 
L 45.900163 -87.665616 
L 45.900163 -88.277751 
L 45.900163 -88.889886 
L 45.900163 -89.502021 
L 45.900163 -90.114156 
L 45.900163 -90.726291 
L 45.900163 -91.338426 
L 45.900163 -91.950561 
L 45.900163 -92.562696 
L 45.900163 -93.174831 
L 45.900163 -93.786966 
L 45.900163 -94.3991 
L 45.900163 -95.011235 
L 45.900163 -95.62337 
L 45.900163 -96.235505 
L 45.900163 -96.84764 
L 45.900163 -97.459775 
L 45.900163 -98.07191 
L 45.900163 -98.684045 
L 45.900163 -99.29618 
L 45.900163 -99.908315 
L 45.900163 -100.52045 
L 45.900163 -101.132585 
L 45.900163 -101.74472 
L 45.900163 -102.356855 
L 45.900163 -102.96899 
L 45.900163 -103.581125 
L 45.900163 -104.193259 
L 45.900163 -104.805394 
L 45.900163 -105.417529 
L 45.900163 -106.029664 
L 45.900163 -106.641799 
L 45.900163 -107.253934 
L 45.900163 -107.866069 
L 45.900163 -108.478204 
L 45.900163 -109.090339 
L 45.900163 -109.702474 
L 45.900163 -110.314609 
L 45.900163 -110.926744 
L 45.900163 -111.538879 
L 45.900163 -112.151014 
L 45.900163 -112.763149 
L 45.900163 -113.375284 
L 45.900163 -113.987418 
L 45.900163 -114.599553 
L 45.900163 -115.211688 
L 45.900163 -115.823823 
L 45.900163 -116.435958 
L 45.900163 -117.048093 
L 45.900163 -117.660228 
L 45.904878 -117.660228 
L 45.904878 -117.660228 
L 45.90446 -117.048093 
L 45.903409 -116.435958 
L 45.902186 -115.823823 
L 45.901206 -115.211688 
L 45.90069 -114.599553 
L 45.900756 -113.987418 
L 45.901633 -113.375284 
L 45.90379 -112.763149 
L 45.907861 -112.151014 
L 45.914362 -111.538879 
L 45.92339 -110.926744 
L 45.934537 -110.314609 
L 45.947143 -109.702474 
L 45.960767 -109.090339 
L 45.975641 -108.478204 
L 45.992772 -107.866069 
L 46.013597 -107.253934 
L 46.039462 -106.641799 
L 46.071509 -106.029664 
L 46.110908 -105.417529 
L 46.158579 -104.805394 
L 46.214064 -104.193259 
L 46.274959 -103.581125 
L 46.338616 -102.96899 
L 46.405143 -102.356855 
L 46.478387 -101.74472 
L 46.563506 -101.132585 
L 46.663961 -100.52045 
L 46.781332 -99.908315 
L 46.9173 -99.29618 
L 47.074331 -98.684045 
L 47.253954 -98.07191 
L 47.455024 -97.459775 
L 47.673855 -96.84764 
L 47.905217 -96.235505 
L 48.142949 -95.62337 
L 48.381012 -95.011235 
L 48.615476 -94.3991 
L 48.845331 -93.786966 
L 49.069941 -93.174831 
L 49.284988 -92.562696 
L 49.481746 -91.950561 
L 49.652228 -91.338426 
L 49.796662 -90.726291 
L 49.926139 -90.114156 
L 50.056519 -89.502021 
L 50.197092 -88.889886 
L 50.341635 -88.277751 
L 50.467633 -87.665616 
L 50.544859 -87.053481 
L 50.55 -86.441346 
L 50.479838 -85.829211 
L 50.354025 -85.217076 
L 50.203783 -84.604942 
L 50.053727 -83.992807 
L 49.91077 -83.380672 
L 49.767844 -82.768537 
L 49.615866 -82.156402 
L 49.451107 -81.544267 
L 49.273369 -80.932132 
L 49.081613 -80.319997 
L 48.874291 -79.707862 
L 48.653669 -79.095727 
L 48.428205 -78.483592 
L 48.209948 -77.871457 
L 48.00948 -77.259322 
L 47.832484 -76.647187 
L 47.679256 -76.035052 
L 47.545883 -75.422917 
L 47.42566 -74.810783 
L 47.310715 -74.198648 
L 47.194484 -73.586513 
L 47.074501 -72.974378 
L 46.953326 -72.362243 
L 46.836253 -71.750108 
L 46.72771 -71.137973 
L 46.629616 -70.525838 
L 46.542213 -69.913703 
L 46.465098 -69.301568 
L 46.397001 -68.689433 
L 46.335332 -68.077298 
L 46.276937 -67.465163 
L 46.219931 -66.853028 
L 46.16521 -66.240893 
L 46.116218 -65.628759 
L 46.076792 -65.016624 
L 46.048586 -64.404489 
L 46.03011 -63.792354 
L 46.01797 -63.180219 
L 46.008891 -62.568084 
L 46.000729 -61.955949 
L 45.992188 -61.343814 
L 45.982283 -60.731679 
L 45.970451 -60.119544 
L 45.957063 -59.507409 
L 45.943457 -58.895274 
L 45.931231 -58.283139 
L 45.921403 -57.671004 
L 45.914105 -57.058869 
z
"/>
    </defs>
    <g clip-path="url(#pb26b9f3e7d)">
     <use xlink:href="#m2972e9f61e" x="0" y="288" style="fill: #808080; fill-opacity: 0.8"/>
    </g>
   </g>
   <g id="PolyCollection_2">
    <defs>
     <path id="m42099249a6" d="M 83.109652 -50.671929 
L 83.100209 -50.671929 
L 83.100209 -51.173574 
L 83.100209 -51.675219 
L 83.100209 -52.176864 
L 83.100209 -52.678509 
L 83.100209 -53.180155 
L 83.100209 -53.6818 
L 83.100209 -54.183445 
L 83.100209 -54.68509 
L 83.100209 -55.186735 
L 83.100209 -55.68838 
L 83.100209 -56.190025 
L 83.100209 -56.69167 
L 83.100209 -57.193315 
L 83.100209 -57.69496 
L 83.100209 -58.196605 
L 83.100209 -58.69825 
L 83.100209 -59.199895 
L 83.100209 -59.701541 
L 83.100209 -60.203186 
L 83.100209 -60.704831 
L 83.100209 -61.206476 
L 83.100209 -61.708121 
L 83.100209 -62.209766 
L 83.100209 -62.711411 
L 83.100209 -63.213056 
L 83.100209 -63.714701 
L 83.100209 -64.216346 
L 83.100209 -64.717991 
L 83.100209 -65.219636 
L 83.100209 -65.721281 
L 83.100209 -66.222927 
L 83.100209 -66.724572 
L 83.100209 -67.226217 
L 83.100209 -67.727862 
L 83.100209 -68.229507 
L 83.100209 -68.731152 
L 83.100209 -69.232797 
L 83.100209 -69.734442 
L 83.100209 -70.236087 
L 83.100209 -70.737732 
L 83.100209 -71.239377 
L 83.100209 -71.741022 
L 83.100209 -72.242667 
L 83.100209 -72.744313 
L 83.100209 -73.245958 
L 83.100209 -73.747603 
L 83.100209 -74.249248 
L 83.100209 -74.750893 
L 83.100209 -75.252538 
L 83.100209 -75.754183 
L 83.100209 -76.255828 
L 83.100209 -76.757473 
L 83.100209 -77.259118 
L 83.100209 -77.760763 
L 83.100209 -78.262408 
L 83.100209 -78.764053 
L 83.100209 -79.265699 
L 83.100209 -79.767344 
L 83.100209 -80.268989 
L 83.100209 -80.770634 
L 83.100209 -81.272279 
L 83.100209 -81.773924 
L 83.100209 -82.275569 
L 83.100209 -82.777214 
L 83.100209 -83.278859 
L 83.100209 -83.780504 
L 83.100209 -84.282149 
L 83.100209 -84.783794 
L 83.100209 -85.285439 
L 83.100209 -85.787085 
L 83.100209 -86.28873 
L 83.100209 -86.790375 
L 83.100209 -87.29202 
L 83.100209 -87.793665 
L 83.100209 -88.29531 
L 83.100209 -88.796955 
L 83.100209 -89.2986 
L 83.100209 -89.800245 
L 83.100209 -90.30189 
L 83.100209 -90.803535 
L 83.100209 -91.30518 
L 83.100209 -91.806825 
L 83.100209 -92.30847 
L 83.100209 -92.810116 
L 83.100209 -93.311761 
L 83.100209 -93.813406 
L 83.100209 -94.315051 
L 83.100209 -94.816696 
L 83.100209 -95.318341 
L 83.100209 -95.819986 
L 83.100209 -96.321631 
L 83.100209 -96.823276 
L 83.100209 -97.324921 
L 83.100209 -97.826566 
L 83.100209 -98.328211 
L 83.100209 -98.829856 
L 83.100209 -99.331502 
L 83.100209 -99.833147 
L 83.100209 -100.334792 
L 83.123212 -100.334792 
L 83.123212 -100.334792 
L 83.129544 -99.833147 
L 83.135148 -99.331502 
L 83.140211 -98.829856 
L 83.145484 -98.328211 
L 83.151949 -97.826566 
L 83.160581 -97.324921 
L 83.172428 -96.823276 
L 83.188791 -96.321631 
L 83.211036 -95.819986 
L 83.239828 -95.318341 
L 83.274288 -94.816696 
L 83.312166 -94.315051 
L 83.351571 -93.813406 
L 83.39317 -93.311761 
L 83.440673 -92.810116 
L 83.498516 -92.30847 
L 83.568355 -91.806825 
L 83.647659 -91.30518 
L 83.732151 -90.803535 
L 83.820349 -90.30189 
L 83.916314 -89.800245 
L 84.028003 -89.2986 
L 84.16217 -88.796955 
L 84.319664 -88.29531 
L 84.495078 -87.793665 
L 84.681307 -87.29202 
L 84.874893 -86.790375 
L 85.07674 -86.28873 
L 85.287654 -85.787085 
L 85.503991 -85.285439 
L 85.718307 -84.783794 
L 85.923819 -84.282149 
L 86.118319 -83.780504 
L 86.305678 -83.278859 
L 86.49494 -82.777214 
L 86.695658 -82.275569 
L 86.909502 -81.773924 
L 87.124121 -81.272279 
L 87.316881 -80.770634 
L 87.468067 -80.268989 
L 87.573225 -79.767344 
L 87.643966 -79.265699 
L 87.696193 -78.764053 
L 87.735227 -78.262408 
L 87.75 -77.760763 
L 87.721386 -77.259118 
L 87.637945 -76.757473 
L 87.505996 -76.255828 
L 87.34636 -75.754183 
L 87.182273 -75.252538 
L 87.029085 -74.750893 
L 86.891495 -74.249248 
L 86.765896 -73.747603 
L 86.643433 -73.245958 
L 86.512868 -72.744313 
L 86.364266 -72.242667 
L 86.192705 -71.741022 
L 86.000072 -71.239377 
L 85.794324 -70.737732 
L 85.58677 -70.236087 
L 85.387984 -69.734442 
L 85.203875 -69.232797 
L 85.034515 -68.731152 
L 84.876474 -68.229507 
L 84.726092 -67.727862 
L 84.580916 -67.226217 
L 84.439626 -66.724572 
L 84.302444 -66.222927 
L 84.171847 -65.721281 
L 84.051497 -65.219636 
L 83.943188 -64.717991 
L 83.844783 -64.216346 
L 83.751705 -63.714701 
L 83.660783 -63.213056 
L 83.572789 -62.711411 
L 83.491626 -62.209766 
L 83.42145 -61.708121 
L 83.364196 -61.206476 
L 83.31886 -60.704831 
L 83.282334 -60.203186 
L 83.251043 -59.701541 
L 83.222596 -59.199895 
L 83.196627 -58.69825 
L 83.174401 -58.196605 
L 83.15753 -57.69496 
L 83.146805 -57.193315 
L 83.141742 -56.69167 
L 83.140759 -56.190025 
L 83.141636 -55.68838 
L 83.142168 -55.186735 
L 83.140933 -54.68509 
L 83.137735 -54.183445 
L 83.133334 -53.6818 
L 83.128655 -53.180155 
L 83.124204 -52.678509 
L 83.120071 -52.176864 
L 83.116243 -51.675219 
L 83.112758 -51.173574 
L 83.109652 -50.671929 
z
"/>
    </defs>
    <g clip-path="url(#pb26b9f3e7d)">
     <use xlink:href="#m42099249a6" x="0" y="288" style="fill: #808080; fill-opacity: 0.8"/>
    </g>
   </g>
   <g id="PolyCollection_3">
    <defs>
     <path id="ma7df365002" d="M 120.305639 -36.062609 
L 120.30011 -36.062609 
L 120.30011 -36.947984 
L 120.30011 -37.83336 
L 120.30011 -38.718735 
L 120.30011 -39.604111 
L 120.30011 -40.489486 
L 120.30011 -41.374862 
L 120.30011 -42.260237 
L 120.30011 -43.145613 
L 120.30011 -44.030988 
L 120.30011 -44.916364 
L 120.30011 -45.801739 
L 120.30011 -46.687115 
L 120.30011 -47.57249 
L 120.30011 -48.457866 
L 120.30011 -49.343241 
L 120.30011 -50.228617 
L 120.30011 -51.113992 
L 120.30011 -51.999368 
L 120.30011 -52.884743 
L 120.30011 -53.770119 
L 120.30011 -54.655494 
L 120.30011 -55.54087 
L 120.30011 -56.426245 
L 120.30011 -57.311621 
L 120.30011 -58.196996 
L 120.30011 -59.082372 
L 120.30011 -59.967747 
L 120.30011 -60.853123 
L 120.30011 -61.738498 
L 120.30011 -62.623874 
L 120.30011 -63.509249 
L 120.30011 -64.394625 
L 120.30011 -65.28 
L 120.30011 -66.165375 
L 120.30011 -67.050751 
L 120.30011 -67.936126 
L 120.30011 -68.821502 
L 120.30011 -69.706877 
L 120.30011 -70.592253 
L 120.30011 -71.477628 
L 120.30011 -72.363004 
L 120.30011 -73.248379 
L 120.30011 -74.133755 
L 120.30011 -75.01913 
L 120.30011 -75.904506 
L 120.30011 -76.789881 
L 120.30011 -77.675257 
L 120.30011 -78.560632 
L 120.30011 -79.446008 
L 120.30011 -80.331383 
L 120.30011 -81.216759 
L 120.30011 -82.102134 
L 120.30011 -82.98751 
L 120.30011 -83.872885 
L 120.30011 -84.758261 
L 120.30011 -85.643636 
L 120.30011 -86.529012 
L 120.30011 -87.414387 
L 120.30011 -88.299763 
L 120.30011 -89.185138 
L 120.30011 -90.070514 
L 120.30011 -90.955889 
L 120.30011 -91.841265 
L 120.30011 -92.72664 
L 120.30011 -93.612016 
L 120.30011 -94.497391 
L 120.30011 -95.382767 
L 120.30011 -96.268142 
L 120.30011 -97.153518 
L 120.30011 -98.038893 
L 120.30011 -98.924269 
L 120.30011 -99.809644 
L 120.30011 -100.69502 
L 120.30011 -101.580395 
L 120.30011 -102.465771 
L 120.30011 -103.351146 
L 120.30011 -104.236522 
L 120.30011 -105.121897 
L 120.30011 -106.007273 
L 120.30011 -106.892648 
L 120.30011 -107.778024 
L 120.30011 -108.663399 
L 120.30011 -109.548775 
L 120.30011 -110.43415 
L 120.30011 -111.319526 
L 120.30011 -112.204901 
L 120.30011 -113.090277 
L 120.30011 -113.975652 
L 120.30011 -114.861028 
L 120.30011 -115.746403 
L 120.30011 -116.631779 
L 120.30011 -117.517154 
L 120.30011 -118.40253 
L 120.30011 -119.287905 
L 120.30011 -120.173281 
L 120.30011 -121.058656 
L 120.30011 -121.944032 
L 120.30011 -122.829407 
L 120.30011 -123.714783 
L 120.311001 -123.714783 
L 120.311001 -123.714783 
L 120.312415 -122.829407 
L 120.313724 -121.944032 
L 120.315927 -121.058656 
L 120.318951 -120.173281 
L 120.321498 -119.287905 
L 120.322432 -118.40253 
L 120.322211 -117.517154 
L 120.322855 -116.631779 
L 120.326647 -115.746403 
L 120.334996 -114.861028 
L 120.348354 -113.975652 
L 120.366837 -113.090277 
L 120.390523 -112.204901 
L 120.419018 -111.319526 
L 120.451023 -110.43415 
L 120.484761 -109.548775 
L 120.519191 -108.663399 
L 120.555665 -107.778024 
L 120.599499 -106.892648 
L 120.659378 -106.007273 
L 120.742663 -105.121897 
L 120.849261 -104.236522 
L 120.970332 -103.351146 
L 121.094312 -102.465771 
L 121.215337 -101.580395 
L 121.336423 -100.69502 
L 121.464663 -99.809644 
L 121.603947 -98.924269 
L 121.753107 -98.038893 
L 121.910379 -97.153518 
L 122.07809 -96.268142 
L 122.263151 -95.382767 
L 122.474261 -94.497391 
L 122.717224 -93.612016 
L 122.988614 -92.72664 
L 123.27164 -91.841265 
L 123.540952 -90.955889 
L 123.775785 -90.070514 
L 123.970508 -89.185138 
L 124.134562 -88.299763 
L 124.285461 -87.414387 
L 124.440161 -86.529012 
L 124.604435 -85.643636 
L 124.764133 -84.758261 
L 124.889003 -83.872885 
L 124.95 -82.98751 
L 124.935719 -82.102134 
L 124.856229 -81.216759 
L 124.736075 -80.331383 
L 124.602013 -79.446008 
L 124.46949 -78.560632 
L 124.335838 -77.675257 
L 124.187732 -76.789881 
L 124.016754 -75.904506 
L 123.826839 -75.01913 
L 123.627728 -74.133755 
L 123.425363 -73.248379 
L 123.22025 -72.363004 
L 123.011855 -71.477628 
L 122.801176 -70.592253 
L 122.589298 -69.706877 
L 122.375769 -68.821502 
L 122.160098 -67.936126 
L 121.944846 -67.050751 
L 121.736152 -66.165375 
L 121.540297 -65.28 
L 121.359802 -64.394625 
L 121.193549 -63.509249 
L 121.040799 -62.623874 
L 120.904408 -61.738498 
L 120.789655 -60.853123 
L 120.700216 -59.967747 
L 120.635303 -59.082372 
L 120.589883 -58.196996 
L 120.556958 -57.311621 
L 120.530181 -56.426245 
L 120.505665 -55.54087 
L 120.48207 -54.655494 
L 120.45885 -53.770119 
L 120.434763 -52.884743 
L 120.408926 -51.999368 
L 120.382939 -51.113992 
L 120.360607 -50.228617 
L 120.344981 -49.343241 
L 120.33589 -48.457866 
L 120.33031 -47.57249 
L 120.324921 -46.687115 
L 120.318418 -45.801739 
L 120.311748 -44.916364 
L 120.30659 -44.030988 
L 120.303857 -43.145613 
L 120.303336 -42.260237 
L 120.304126 -41.374862 
L 120.305187 -40.489486 
L 120.305832 -39.604111 
L 120.305994 -38.718735 
L 120.305995 -37.83336 
L 120.305969 -36.947984 
L 120.305639 -36.062609 
z
"/>
    </defs>
    <g clip-path="url(#pb26b9f3e7d)">
     <use xlink:href="#ma7df365002" x="0" y="288" style="fill: #808080; fill-opacity: 0.8"/>
    </g>
   </g>
   <g id="matplotlib.axis_3">
    <g id="xtick_5">
     <g id="line2d_21">
      <g>
       <use xlink:href="#m0e733ff611" x="27.3" y="256.32" style="stroke: #000000; stroke-width: 0.8"/>
      </g>
     </g>
    </g>
    <g id="xtick_6">
     <g id="line2d_22">
      <g>
       <use xlink:href="#m0e733ff611" x="45.9" y="256.32" style="stroke: #000000; stroke-width: 0.8"/>
      </g>
     </g>
     <g id="text_14">
      <text style="font: 12px 'Helvetica', sans-serif; text-anchor: middle" x="45.9" y="271.928125" transform="rotate(-0 45.9 271.928125)">Off</text>
     </g>
    </g>
    <g id="xtick_7">
     <g id="line2d_23">
      <g>
       <use xlink:href="#m0e733ff611" x="64.5" y="256.32" style="stroke: #000000; stroke-width: 0.8"/>
      </g>
     </g>
    </g>
    <g id="xtick_8">
     <g id="line2d_24">
      <g>
       <use xlink:href="#m0e733ff611" x="83.1" y="256.32" style="stroke: #000000; stroke-width: 0.8"/>
      </g>
     </g>
     <g id="text_15">
      <text style="font: 12px 'Helvetica', sans-serif; text-anchor: middle" x="83.1" y="271.928125" transform="rotate(-0 83.1 271.928125)">On</text>
     </g>
    </g>
    <g id="xtick_9">
     <g id="line2d_25">
      <g>
       <use xlink:href="#m0e733ff611" x="101.7" y="256.32" style="stroke: #000000; stroke-width: 0.8"/>
      </g>
     </g>
    </g>
    <g id="xtick_10">
     <g id="line2d_26">
      <g>
       <use xlink:href="#m0e733ff611" x="120.3" y="256.32" style="stroke: #000000; stroke-width: 0.8"/>
      </g>
     </g>
     <g id="text_16">
      <!-- $\Delta\Delta$ -->
      <g transform="translate(112.08 271.928125)">
       <text>
        <tspan style="font: 12px 'DejaVu Sans'" x="0 8.208984" y="-0.25">ΔΔ</tspan>
       </text>
      </g>
     </g>
    </g>
   </g>
   <g id="matplotlib.axis_4">
    <g id="ytick_9">
     <g id="line2d_27">
      <g>
       <use xlink:href="#ma523be109f" x="18" y="243.310352" style="stroke: #000000; stroke-width: 0.8"/>
      </g>
     </g>
     <g id="text_17">
      <text style="font: 6px 'Helvetica', sans-serif; text-anchor: end" x="11" y="245.462384" transform="rotate(-0 11 245.462384)">−0.3</text>
     </g>
    </g>
    <g id="ytick_10">
     <g id="line2d_28">
      <g>
       <use xlink:href="#ma523be109f" x="18" y="227.895841" style="stroke: #000000; stroke-width: 0.8"/>
      </g>
     </g>
     <g id="text_18">
      <text style="font: 6px 'Helvetica', sans-serif; text-anchor: end" x="11" y="230.047872" transform="rotate(-0 11 230.047872)">−0.2</text>
     </g>
    </g>
    <g id="ytick_11">
     <g id="line2d_29">
      <g>
       <use xlink:href="#ma523be109f" x="18" y="212.481329" style="stroke: #000000; stroke-width: 0.8"/>
      </g>
     </g>
     <g id="text_19">
      <text style="font: 6px 'Helvetica', sans-serif; text-anchor: end" x="11" y="214.633361" transform="rotate(-0 11 214.633361)">−0.1</text>
     </g>
    </g>
    <g id="ytick_12">
     <g id="line2d_30">
      <g>
       <use xlink:href="#ma523be109f" x="18" y="197.066818" style="stroke: #000000; stroke-width: 0.8"/>
      </g>
     </g>
     <g id="text_20">
      <text style="font: 6px 'Helvetica', sans-serif; text-anchor: end" x="11" y="199.218849" transform="rotate(-0 11 199.218849)">0.0</text>
     </g>
    </g>
    <g id="ytick_13">
     <g id="line2d_31">
      <g>
       <use xlink:href="#ma523be109f" x="18" y="181.652307" style="stroke: #000000; stroke-width: 0.8"/>
      </g>
     </g>
     <g id="text_21">
      <text style="font: 6px 'Helvetica', sans-serif; text-anchor: end" x="11" y="183.804338" transform="rotate(-0 11 183.804338)">0.1</text>
     </g>
    </g>
    <g id="ytick_14">
     <g id="line2d_32">
      <g>
       <use xlink:href="#ma523be109f" x="18" y="166.237795" style="stroke: #000000; stroke-width: 0.8"/>
      </g>
     </g>
     <g id="text_22">
      <text style="font: 6px 'Helvetica', sans-serif; text-anchor: end" x="11" y="168.389826" transform="rotate(-0 11 168.389826)">0.2</text>
     </g>
    </g>
    <g id="text_23">
     <!-- $\Delta$ Speed (mm/s) -->
     <g transform="translate(-7.364375 251.611304) rotate(-90)">
      <text>
       <tspan style="font: 12px 'DejaVu Sans'" x="0" y="-0.15625">Δ</tspan>
       <tspan style="font: 12px 'Helvetica'" x="8.208984 11.542969 19.546875 26.220703 32.894531 39.568359 46.242188 49.576172 53.572266 63.568359 73.564453 76.898438 82.898438" y="-0.15625"> Speed (mm/s)</tspan>
      </text>
     </g>
    </g>
   </g>
   <g id="line2d_33">
    <path d="M 45.9 202.012343 
" clip-path="url(#pb26b9f3e7d)" style="fill: none; stroke: #000000; stroke-width: 1.5; stroke-linecap: square"/>
    <defs>
     <path id="m5d8087060e" d="M 0 2.5 
C 0.663008 2.5 1.29895 2.236584 1.767767 1.767767 
C 2.236584 1.29895 2.5 0.663008 2.5 0 
C 2.5 -0.663008 2.236584 -1.29895 1.767767 -1.767767 
C 1.29895 -2.236584 0.663008 -2.5 0 -2.5 
C -0.663008 -2.5 -1.29895 -2.236584 -1.767767 -1.767767 
C -2.236584 -1.29895 -2.5 -0.663008 -2.5 0 
C -2.5 0.663008 -2.236584 1.29895 -1.767767 1.767767 
C -1.29895 2.236584 -0.663008 2.5 0 2.5 
z
" style="stroke: #000000"/>
    </defs>
    <g clip-path="url(#pb26b9f3e7d)">
     <use xlink:href="#m5d8087060e" x="45.9" y="202.012343" style="stroke: #000000"/>
    </g>
   </g>
   <g id="line2d_34">
    <path d="M 45.9 220.488274 
L 45.9 188.574626 
" clip-path="url(#pb26b9f3e7d)" style="fill: none; stroke: #000000; stroke-width: 2; stroke-linecap: square"/>
   </g>
   <g id="line2d_35">
    <path d="M 83.1 210.619419 
" clip-path="url(#pb26b9f3e7d)" style="fill: none; stroke: #000000; stroke-width: 1.5; stroke-linecap: square"/>
    <g clip-path="url(#pb26b9f3e7d)">
     <use xlink:href="#m5d8087060e" x="83.1" y="210.619419" style="stroke: #000000"/>
    </g>
   </g>
   <g id="line2d_36">
    <path d="M 83.1 224.311592 
L 83.1 197.897494 
" clip-path="url(#pb26b9f3e7d)" style="fill: none; stroke: #000000; stroke-width: 2; stroke-linecap: square"/>
   </g>
   <g id="line2d_37">
    <path d="M 120.3 205.673894 
" clip-path="url(#pb26b9f3e7d)" style="fill: none; stroke: #000000; stroke-width: 1.5; stroke-linecap: square"/>
    <g clip-path="url(#pb26b9f3e7d)">
     <use xlink:href="#m5d8087060e" x="120.3" y="205.673894" style="stroke: #000000"/>
    </g>
   </g>
   <g id="line2d_38">
    <path d="M 120.3 225.683783 
L 120.3 185.020295 
" clip-path="url(#pb26b9f3e7d)" style="fill: none; stroke: #000000; stroke-width: 2; stroke-linecap: square"/>
   </g>
   <g id="line2d_39">
    <path d="M 18 197.066818 
L 129.6 197.066818 
" clip-path="url(#pb26b9f3e7d)" style="fill: none; stroke: #000000; stroke-width: 0.75; stroke-linecap: square"/>
   </g>
   <g id="LineCollection_4">
    <defs>
     <path id="m19136da08a" d="M 27.3 -31.68 
L 45.9 -31.68 
" style="stroke: #000000"/>
    </defs>
    <g>
     <use xlink:href="#m19136da08a" x="0" y="288" style="stroke: #000000"/>
    </g>
   </g>
   <g id="LineCollection_5">
    <defs>
     <path id="m6d1d3e5220" d="M 64.5 -31.68 
L 83.1 -31.68 
" style="stroke: #000000"/>
    </defs>
    <g>
     <use xlink:href="#m6d1d3e5220" x="0" y="288" style="stroke: #000000"/>
    </g>
   </g>
   <g id="LineCollection_6">
    <defs>
     <path id="me0668b8006" d="M 101.7 -31.68 
L 120.3 -31.68 
" style="stroke: #000000"/>
    </defs>
    <g>
     <use xlink:href="#me0668b8006" x="0" y="288" style="stroke: #000000"/>
    </g>
   </g>
   <g id="LineCollection_7">
    <defs>
     <path id="mc9b0c10bba" d="M 18 -31.68 
L 18 -128.097391 
" style="stroke: #000000"/>
    </defs>
    <g>
     <use xlink:href="#mc9b0c10bba" x="0" y="288" style="stroke: #000000"/>
    </g>
   </g>
  </g>
  <g id="axes_3">
   <g id="matplotlib.axis_5">
    <g id="ytick_15">
     <g id="line2d_40">
      <defs>
       <path id="m694bca7e33" d="M 0 0 
L 3.5 0 
" style="stroke: #000000; stroke-width: 0.8"/>
      </defs>
      <g>
       <use xlink:href="#m694bca7e33" x="129.6" y="243.310352" style="stroke: #000000; stroke-width: 0.8"/>
      </g>
     </g>
     <g id="text_24">
      <text style="font: 6px 'Helvetica', sans-serif; text-anchor: start" x="136.6" y="245.462384" transform="rotate(-0 136.6 245.462384)">−0.3</text>
     </g>
    </g>
    <g id="ytick_16">
     <g id="line2d_41">
      <g>
       <use xlink:href="#m694bca7e33" x="129.6" y="227.895841" style="stroke: #000000; stroke-width: 0.8"/>
      </g>
     </g>
     <g id="text_25">
      <text style="font: 6px 'Helvetica', sans-serif; text-anchor: start" x="136.6" y="230.047872" transform="rotate(-0 136.6 230.047872)">−0.2</text>
     </g>
    </g>
    <g id="ytick_17">
     <g id="line2d_42">
      <g>
       <use xlink:href="#m694bca7e33" x="129.6" y="212.481329" style="stroke: #000000; stroke-width: 0.8"/>
      </g>
     </g>
     <g id="text_26">
      <text style="font: 6px 'Helvetica', sans-serif; text-anchor: start" x="136.6" y="214.633361" transform="rotate(-0 136.6 214.633361)">−0.1</text>
     </g>
    </g>
    <g id="ytick_18">
     <g id="line2d_43">
      <g>
       <use xlink:href="#m694bca7e33" x="129.6" y="197.066818" style="stroke: #000000; stroke-width: 0.8"/>
      </g>
     </g>
     <g id="text_27">
      <text style="font: 6px 'Helvetica', sans-serif; text-anchor: start" x="136.6" y="199.218849" transform="rotate(-0 136.6 199.218849)">0.0</text>
     </g>
    </g>
    <g id="ytick_19">
     <g id="line2d_44">
      <g>
       <use xlink:href="#m694bca7e33" x="129.6" y="181.652307" style="stroke: #000000; stroke-width: 0.8"/>
      </g>
     </g>
     <g id="text_28">
      <text style="font: 6px 'Helvetica', sans-serif; text-anchor: start" x="136.6" y="183.804338" transform="rotate(-0 136.6 183.804338)">0.1</text>
     </g>
    </g>
    <g id="ytick_20">
     <g id="line2d_45">
      <g>
       <use xlink:href="#m694bca7e33" x="129.6" y="166.237795" style="stroke: #000000; stroke-width: 0.8"/>
      </g>
     </g>
     <g id="text_29">
      <text style="font: 6px 'Helvetica', sans-serif; text-anchor: start" x="136.6" y="168.389826" transform="rotate(-0 136.6 168.389826)">0.2</text>
     </g>
    </g>
    <g id="text_30">
     <!-- $\Delta\Delta$ -->
     <g transform="translate(161.0525 216.331304) rotate(-90)">
      <text>
       <tspan style="font: 12px 'DejaVu Sans'" x="0 8.208984" y="-0.25">ΔΔ</tspan>
      </text>
     </g>
    </g>
   </g>
   <g id="LineCollection_8">
    <defs>
     <path id="m87d788391e" d="M 129.6 -31.68 
L 129.6 -128.097391 
" style="stroke: #000000"/>
    </defs>
    <g>
     <use xlink:href="#m87d788391e" x="0" y="288" style="stroke: #000000"/>
    </g>
   </g>
  </g>
  <g id="text_31">
   <text style="fill: #4682b4; font: italic 500 12px 'inter'; text-anchor: middle" x="72" y="17.758125" transform="rotate(-0 72 17.758125)">SXVNC1&gt;Chr</text>
  </g>
 </g>
 <defs>
  <clipPath id="pedb978e9a8">
   <rect x="18" y="34.56" width="111.6" height="96.417391"/>
  </clipPath>
  <clipPath id="pb26b9f3e7d">
   <rect x="18" y="159.902609" width="111.6" height="96.417391"/>
  </clipPath>
 </defs>
</svg>
