<?xml version="1.0" encoding="utf-8" standalone="no"?>
<!DOCTYPE svg PUBLIC "-//W3C//DTD SVG 1.1//EN"
  "http://www.w3.org/Graphics/SVG/1.1/DTD/svg11.dtd">
<svg xmlns:xlink="http://www.w3.org/1999/xlink" width="144pt" height="288pt" viewBox="0 0 144 288" xmlns="http://www.w3.org/2000/svg" version="1.1">
 <metadata>
  <rdf:RDF xmlns:dc="http://purl.org/dc/elements/1.1/" xmlns:cc="http://creativecommons.org/ns#" xmlns:rdf="http://www.w3.org/1999/02/22-rdf-syntax-ns#">
   <cc:Work>
    <dc:type rdf:resource="http://purl.org/dc/dcmitype/StillImage"/>
    <dc:date>2025-02-16T02:07:41.976065</dc:date>
    <dc:format>image/svg+xml</dc:format>
    <dc:creator>
     <cc:Agent>
      <dc:title>Matplotlib v3.6.3, https://matplotlib.org/</dc:title>
     </cc:Agent>
    </dc:creator>
   </cc:Work>
  </rdf:RDF>
 </metadata>
 <defs>
  <style type="text/css">*{stroke-linejoin: round; stroke-linecap: butt}</style>
 </defs>
 <g id="figure_1">
  <g id="patch_1">
   <path d="M 0 288 
L 144 288 
L 144 0 
L 0 0 
z
" style="fill: #ffffff"/>
  </g>
  <g id="axes_1">
   <g id="patch_2">
    <path d="M 22.65 98.838261 
L 31.95 98.838261 
L 31.95 93.524388 
L 22.65 93.524388 
z
" clip-path="url(#p0059c031f9)" style="opacity: 0.15; stroke: #000000; stroke-linejoin: miter"/>
   </g>
   <g id="patch_3">
    <path d="M 41.25 98.838261 
L 50.55 98.838261 
L 50.55 98.019692 
L 41.25 98.019692 
z
" clip-path="url(#p0059c031f9)" style="opacity: 0.15; stroke: #000000; stroke-linejoin: miter"/>
   </g>
   <g id="patch_4">
    <path d="M 59.85 98.838261 
L 69.15 98.838261 
L 69.15 95.123456 
L 59.85 95.123456 
z
" clip-path="url(#p0059c031f9)" style="opacity: 0.15; stroke: #000000; stroke-linejoin: miter"/>
   </g>
   <g id="patch_5">
    <path d="M 78.45 98.838261 
L 87.75 98.838261 
L 87.75 98.278164 
L 78.45 98.278164 
z
" clip-path="url(#p0059c031f9)" style="opacity: 0.15; stroke: #000000; stroke-linejoin: miter"/>
   </g>
   <g id="PathCollection_1">
    <defs>
     <path id="C0_0_d5d16f7a79" d="M 0 0.632456 
C 0.167729 0.632456 0.328611 0.565816 0.447214 0.447214 
C 0.565816 0.328611 0.632456 0.167729 0.632456 -0 
C 0.632456 -0.167729 0.565816 -0.328611 0.447214 -0.447214 
C 0.328611 -0.565816 0.167729 -0.632456 0 -0.632456 
C -0.167729 -0.632456 -0.328611 -0.565816 -0.447214 -0.447214 
C -0.565816 -0.328611 -0.632456 -0.167729 -0.632456 0 
C -0.632456 0.167729 -0.565816 0.328611 -0.447214 0.447214 
C -0.328611 0.565816 -0.167729 0.632456 0 0.632456 
z
"/>
    </defs>
    <g clip-path="url(#p0059c031f9)">
     <use xlink:href="#C0_0_d5d16f7a79" x="27.3" y="98.088438" style="fill: #808080; stroke: #808080"/>
    </g>
    <g clip-path="url(#p0059c031f9)">
     <use xlink:href="#C0_0_d5d16f7a79" x="28.899722" y="97.676661" style="stroke: #000000"/>
    </g>
    <g clip-path="url(#p0059c031f9)">
     <use xlink:href="#C0_0_d5d16f7a79" x="30.364558" y="96.628024" style="fill: #808080; stroke: #808080"/>
    </g>
    <g clip-path="url(#p0059c031f9)">
     <use xlink:href="#C0_0_d5d16f7a79" x="31.987593" y="96.605313" style="stroke: #000000"/>
    </g>
    <g clip-path="url(#p0059c031f9)">
     <use xlink:href="#C0_0_d5d16f7a79" x="33.610366" y="96.556016" style="fill: #808080; stroke: #808080"/>
    </g>
    <g clip-path="url(#p0059c031f9)">
     <use xlink:href="#C0_0_d5d16f7a79" x="35.225974" y="96.322274" style="stroke: #000000"/>
    </g>
    <g clip-path="url(#p0059c031f9)">
     <use xlink:href="#C0_0_d5d16f7a79" x="27.3" y="95.596973" style="stroke: #000000"/>
    </g>
    <g clip-path="url(#p0059c031f9)">
     <use xlink:href="#C0_0_d5d16f7a79" x="28.862235" y="94.936475" style="stroke: #000000"/>
    </g>
    <g clip-path="url(#p0059c031f9)">
     <use xlink:href="#C0_0_d5d16f7a79" x="27.3" y="92.912379" style="stroke: #000000"/>
    </g>
    <g clip-path="url(#p0059c031f9)">
     <use xlink:href="#C0_0_d5d16f7a79" x="29.304701" y="92.594026" style="stroke: #000000"/>
    </g>
    <g clip-path="url(#p0059c031f9)">
     <use xlink:href="#C0_0_d5d16f7a79" x="30.897427" y="92.125184" style="fill: #808080; stroke: #808080"/>
    </g>
    <g clip-path="url(#p0059c031f9)">
     <use xlink:href="#C0_0_d5d16f7a79" x="27.3" y="90.352534" style="fill: #808080; stroke: #808080"/>
    </g>
    <g clip-path="url(#p0059c031f9)">
     <use xlink:href="#C0_0_d5d16f7a79" x="27.3" y="84.274269" style="fill: #808080; stroke: #808080"/>
    </g>
    <g clip-path="url(#p0059c031f9)">
     <use xlink:href="#C0_0_d5d16f7a79" x="27.3" y="80.748695" style="fill: #808080; stroke: #808080"/>
    </g>
   </g>
   <g id="PathCollection_2">
    <defs>
     <path id="C1_0_b1427338cd" d="M 0 0.632456 
C 0.167729 0.632456 0.328611 0.565816 0.447214 0.447214 
C 0.565816 0.328611 0.632456 0.167729 0.632456 -0 
C 0.632456 -0.167729 0.565816 -0.328611 0.447214 -0.447214 
C 0.328611 -0.565816 0.167729 -0.632456 0 -0.632456 
C -0.167729 -0.632456 -0.328611 -0.565816 -0.447214 -0.447214 
C -0.565816 -0.328611 -0.632456 -0.167729 -0.632456 0 
C -0.632456 0.167729 -0.565816 0.328611 -0.447214 0.447214 
C -0.328611 0.565816 -0.167729 0.632456 0 0.632456 
z
"/>
    </defs>
    <g clip-path="url(#p0059c031f9)">
     <use xlink:href="#C1_0_b1427338cd" x="45.9" y="98.388824" style="fill: #2e8b57; stroke: #2e8b57"/>
    </g>
    <g clip-path="url(#p0059c031f9)">
     <use xlink:href="#C1_0_b1427338cd" x="47.522242" y="98.309399" style="fill: #2e8b57; stroke: #2e8b57"/>
    </g>
    <g clip-path="url(#p0059c031f9)">
     <use xlink:href="#C1_0_b1427338cd" x="49.145327" y="98.297072" style="fill: #2e8b57; stroke: #2e8b57"/>
    </g>
    <g clip-path="url(#p0059c031f9)">
     <use xlink:href="#C1_0_b1427338cd" x="50.768429" y="98.292261" style="fill: #2e8b57; stroke: #2e8b57"/>
    </g>
    <g clip-path="url(#p0059c031f9)">
     <use xlink:href="#C1_0_b1427338cd" x="52.391175" y="98.240991" style="fill: #2e8b57; stroke: #2e8b57"/>
    </g>
    <g clip-path="url(#p0059c031f9)">
     <use xlink:href="#C1_0_b1427338cd" x="54.014245" y="98.224829" style="fill: #2e8b57; stroke: #2e8b57"/>
    </g>
   </g>
   <g id="PathCollection_3">
    <defs>
     <path id="C2_0_8931ce6e59" d="M 0 0.632456 
C 0.167729 0.632456 0.328611 0.565816 0.447214 0.447214 
C 0.565816 0.328611 0.632456 0.167729 0.632456 -0 
C 0.632456 -0.167729 0.565816 -0.328611 0.447214 -0.447214 
C 0.328611 -0.565816 0.167729 -0.632456 0 -0.632456 
C -0.167729 -0.632456 -0.328611 -0.565816 -0.447214 -0.447214 
C -0.565816 -0.328611 -0.632456 -0.167729 -0.632456 0 
C -0.632456 0.167729 -0.565816 0.328611 -0.447214 0.447214 
C -0.328611 0.565816 -0.167729 0.632456 0 0.632456 
z
"/>
    </defs>
    <g clip-path="url(#p0059c031f9)">
     <use xlink:href="#C2_0_8931ce6e59" x="64.5" y="98.411906" style="fill: #808080; stroke: #808080"/>
    </g>
    <g clip-path="url(#p0059c031f9)">
     <use xlink:href="#C2_0_8931ce6e59" x="66.121446" y="98.301823" style="stroke: #000000"/>
    </g>
    <g clip-path="url(#p0059c031f9)">
     <use xlink:href="#C2_0_8931ce6e59" x="67.743813" y="98.228377" style="fill: #808080; stroke: #808080"/>
    </g>
    <g clip-path="url(#p0059c031f9)">
     <use xlink:href="#C2_0_8931ce6e59" x="69.365953" y="98.144442" style="fill: #808080; stroke: #808080"/>
    </g>
    <g clip-path="url(#p0059c031f9)">
     <use xlink:href="#C2_0_8931ce6e59" x="70.988972" y="98.119314" style="stroke: #000000"/>
    </g>
    <g clip-path="url(#p0059c031f9)">
     <use xlink:href="#C2_0_8931ce6e59" x="72.611964" y="98.090464" style="fill: #808080; stroke: #808080"/>
    </g>
    <g clip-path="url(#p0059c031f9)">
     <use xlink:href="#C2_0_8931ce6e59" x="64.5" y="95.596727" style="stroke: #000000"/>
    </g>
    <g clip-path="url(#p0059c031f9)">
     <use xlink:href="#C2_0_8931ce6e59" x="66.089855" y="95.106446" style="stroke: #000000"/>
    </g>
    <g clip-path="url(#p0059c031f9)">
     <use xlink:href="#C2_0_8931ce6e59" x="67.673011" y="94.569607" style="stroke: #000000"/>
    </g>
    <g clip-path="url(#p0059c031f9)">
     <use xlink:href="#C2_0_8931ce6e59" x="69.291577" y="94.387638" style="fill: #808080; stroke: #808080"/>
    </g>
    <g clip-path="url(#p0059c031f9)">
     <use xlink:href="#C2_0_8931ce6e59" x="70.837182" y="93.644302" style="fill: #808080; stroke: #808080"/>
    </g>
    <g clip-path="url(#p0059c031f9)">
     <use xlink:href="#C2_0_8931ce6e59" x="72.452196" y="93.401498" style="stroke: #000000"/>
    </g>
    <g clip-path="url(#p0059c031f9)">
     <use xlink:href="#C2_0_8931ce6e59" x="64.5" y="92.441701" style="fill: #808080; stroke: #808080"/>
    </g>
    <g clip-path="url(#p0059c031f9)">
     <use xlink:href="#C2_0_8931ce6e59" x="66.123068" y="92.425055" style="fill: #808080; stroke: #808080"/>
    </g>
    <g clip-path="url(#p0059c031f9)">
     <use xlink:href="#C2_0_8931ce6e59" x="67.729429" y="92.076241" style="fill: #808080; stroke: #808080"/>
    </g>
    <g clip-path="url(#p0059c031f9)">
     <use xlink:href="#C2_0_8931ce6e59" x="69.350087" y="91.942594" style="stroke: #000000"/>
    </g>
    <g clip-path="url(#p0059c031f9)">
     <use xlink:href="#C2_0_8931ce6e59" x="70.880286" y="91.130702" style="fill: #808080; stroke: #808080"/>
    </g>
    <g clip-path="url(#p0059c031f9)">
     <use xlink:href="#C2_0_8931ce6e59" x="72.473535" y="90.665874" style="fill: #808080; stroke: #808080"/>
    </g>
    <g clip-path="url(#p0059c031f9)">
     <use xlink:href="#C2_0_8931ce6e59" x="64.950575" y="90.102733" style="stroke: #000000"/>
    </g>
    <g clip-path="url(#p0059c031f9)">
     <use xlink:href="#C2_0_8931ce6e59" x="66.586143" y="90.091587" style="fill: #808080; stroke: #808080"/>
    </g>
    <g clip-path="url(#p0059c031f9)">
     <use xlink:href="#C2_0_8931ce6e59" x="64.5" y="85.241574" style="fill: #808080; stroke: #808080"/>
    </g>
   </g>
   <g id="PathCollection_4">
    <defs>
     <path id="C3_0_7830975b9f" d="M 0 0.632456 
C 0.167729 0.632456 0.328611 0.565816 0.447214 0.447214 
C 0.565816 0.328611 0.632456 0.167729 0.632456 -0 
C 0.632456 -0.167729 0.565816 -0.328611 0.447214 -0.447214 
C 0.328611 -0.565816 0.167729 -0.632456 0 -0.632456 
C -0.167729 -0.632456 -0.328611 -0.565816 -0.447214 -0.447214 
C -0.565816 -0.328611 -0.632456 -0.167729 -0.632456 0 
C -0.632456 0.167729 -0.565816 0.328611 -0.447214 0.447214 
C -0.328611 0.565816 -0.167729 0.632456 0 0.632456 
z
"/>
    </defs>
    <g clip-path="url(#p0059c031f9)">
     <use xlink:href="#C3_0_7830975b9f" x="83.1" y="98.562096" style="fill: #2e8b57; stroke: #2e8b57"/>
    </g>
    <g clip-path="url(#p0059c031f9)">
     <use xlink:href="#C3_0_7830975b9f" x="84.722931" y="98.52639" style="fill: #2e8b57; stroke: #2e8b57"/>
    </g>
    <g clip-path="url(#p0059c031f9)">
     <use xlink:href="#C3_0_7830975b9f" x="86.345352" y="98.455662" style="fill: #2e8b57; stroke: #2e8b57"/>
    </g>
    <g clip-path="url(#p0059c031f9)">
     <use xlink:href="#C3_0_7830975b9f" x="87.968452" y="98.449558" style="fill: #2e8b57; stroke: #2e8b57"/>
    </g>
    <g clip-path="url(#p0059c031f9)">
     <use xlink:href="#C3_0_7830975b9f" x="89.591557" y="98.447598" style="fill: #2e8b57; stroke: #2e8b57"/>
    </g>
    <g clip-path="url(#p0059c031f9)">
     <use xlink:href="#C3_0_7830975b9f" x="91.214661" y="98.443709" style="fill: #2e8b57; stroke: #2e8b57"/>
    </g>
   </g>
   <g id="matplotlib.axis_1">
    <g id="xtick_1">
     <g id="line2d_1">
      <defs>
       <path id="m4b91c93ec6" d="M 0 0 
L 0 3.5 
" style="stroke: #000000; stroke-width: 0.8"/>
      </defs>
      <g>
       <use xlink:href="#m4b91c93ec6" x="27.3" y="130.977391" style="stroke: #000000; stroke-width: 0.8"/>
      </g>
     </g>
     <g id="text_1">
      <text style="font: 12px 'Helvetica', sans-serif; text-anchor: middle" x="27.3" y="146.585516" transform="rotate(-0 27.3 146.585516)">C</text>
     </g>
    </g>
    <g id="xtick_2">
     <g id="line2d_2">
      <g>
       <use xlink:href="#m4b91c93ec6" x="45.9" y="130.977391" style="stroke: #000000; stroke-width: 0.8"/>
      </g>
     </g>
     <g id="text_2">
      <text style="font: 12px 'Helvetica', sans-serif; text-anchor: middle" x="45.9" y="146.585516" transform="rotate(-0 45.9 146.585516)">T</text>
     </g>
    </g>
    <g id="xtick_3">
     <g id="line2d_3">
      <g>
       <use xlink:href="#m4b91c93ec6" x="64.5" y="130.977391" style="stroke: #000000; stroke-width: 0.8"/>
      </g>
     </g>
     <g id="text_3">
      <text style="font: 12px 'Helvetica', sans-serif; text-anchor: middle" x="64.5" y="146.585516" transform="rotate(-0 64.5 146.585516)">C</text>
     </g>
    </g>
    <g id="xtick_4">
     <g id="line2d_4">
      <g>
       <use xlink:href="#m4b91c93ec6" x="83.1" y="130.977391" style="stroke: #000000; stroke-width: 0.8"/>
      </g>
     </g>
     <g id="text_4">
      <text style="font: 12px 'Helvetica', sans-serif; text-anchor: middle" x="83.1" y="146.585516" transform="rotate(-0 83.1 146.585516)">T</text>
     </g>
    </g>
   </g>
   <g id="matplotlib.axis_2">
    <g id="ytick_1">
     <g id="line2d_5">
      <defs>
       <path id="m9c86bc8ae0" d="M 0 0 
L -3.5 0 
" style="stroke: #000000; stroke-width: 0.8"/>
      </defs>
      <g>
       <use xlink:href="#m9c86bc8ae0" x="18" y="124.549565" style="stroke: #000000; stroke-width: 0.8"/>
      </g>
     </g>
     <g id="text_5">
      <text style="font: 6px 'Helvetica', sans-serif; text-anchor: end" x="11" y="126.701596" transform="rotate(-0 11 126.701596)">−4</text>
     </g>
    </g>
    <g id="ytick_2">
     <g id="line2d_6">
      <g>
       <use xlink:href="#m9c86bc8ae0" x="18" y="111.693913" style="stroke: #000000; stroke-width: 0.8"/>
      </g>
     </g>
     <g id="text_6">
      <text style="font: 6px 'Helvetica', sans-serif; text-anchor: end" x="11" y="113.845944" transform="rotate(-0 11 113.845944)">−2</text>
     </g>
    </g>
    <g id="ytick_3">
     <g id="line2d_7">
      <g>
       <use xlink:href="#m9c86bc8ae0" x="18" y="98.838261" style="stroke: #000000; stroke-width: 0.8"/>
      </g>
     </g>
     <g id="text_7">
      <text style="font: 6px 'Helvetica', sans-serif; text-anchor: end" x="11" y="100.990292" transform="rotate(-0 11 100.990292)">0</text>
     </g>
    </g>
    <g id="ytick_4">
     <g id="line2d_8">
      <g>
       <use xlink:href="#m9c86bc8ae0" x="18" y="85.982609" style="stroke: #000000; stroke-width: 0.8"/>
      </g>
     </g>
     <g id="text_8">
      <text style="font: 6px 'Helvetica', sans-serif; text-anchor: end" x="11" y="88.13464" transform="rotate(-0 11 88.13464)">2</text>
     </g>
    </g>
    <g id="ytick_5">
     <g id="line2d_9">
      <g>
       <use xlink:href="#m9c86bc8ae0" x="18" y="73.126957" style="stroke: #000000; stroke-width: 0.8"/>
      </g>
     </g>
     <g id="text_9">
      <text style="font: 6px 'Helvetica', sans-serif; text-anchor: end" x="11" y="75.278988" transform="rotate(-0 11 75.278988)">4</text>
     </g>
    </g>
    <g id="ytick_6">
     <g id="line2d_10">
      <g>
       <use xlink:href="#m9c86bc8ae0" x="18" y="60.271304" style="stroke: #000000; stroke-width: 0.8"/>
      </g>
     </g>
     <g id="text_10">
      <text style="font: 6px 'Helvetica', sans-serif; text-anchor: end" x="11" y="62.423336" transform="rotate(-0 11 62.423336)">6</text>
     </g>
    </g>
    <g id="ytick_7">
     <g id="line2d_11">
      <g>
       <use xlink:href="#m9c86bc8ae0" x="18" y="47.415652" style="stroke: #000000; stroke-width: 0.8"/>
      </g>
     </g>
     <g id="text_11">
      <text style="font: 6px 'Helvetica', sans-serif; text-anchor: end" x="11" y="49.567683" transform="rotate(-0 11 49.567683)">8</text>
     </g>
    </g>
    <g id="ytick_8">
     <g id="line2d_12">
      <g>
       <use xlink:href="#m9c86bc8ae0" x="18" y="34.56" style="stroke: #000000; stroke-width: 0.8"/>
      </g>
     </g>
     <g id="text_12">
      <text style="font: 6px 'Helvetica', sans-serif; text-anchor: end" x="11" y="36.712031" transform="rotate(-0 11 36.712031)">10</text>
     </g>
    </g>
    <g id="text_13">
     <text style="font: 12px 'Helvetica', sans-serif; text-anchor: middle" x="-2.342187" y="82.768696" transform="rotate(-90 -2.342187 82.768696)">Speed (mm/s)</text>
    </g>
   </g>
   <g id="line2d_13">
    <path d="M 25.44 98.356585 
L 25.44 94.970648 
" style="fill: none; stroke: #000000; stroke-width: 2; stroke-linecap: square"/>
   </g>
   <g id="line2d_14">
    <path d="M 25.44 92.078127 
L 25.44 88.69219 
" style="fill: none; stroke: #000000; stroke-width: 2; stroke-linecap: square"/>
   </g>
   <g id="line2d_15">
    <path d="M 44.04 98.351413 
L 44.04 99.465953 
" style="fill: none; stroke: #000000; stroke-width: 2; stroke-linecap: square"/>
   </g>
   <g id="line2d_16">
    <path d="M 44.04 96.573431 
L 44.04 97.687971 
" style="fill: none; stroke: #000000; stroke-width: 2; stroke-linecap: square"/>
   </g>
   <g id="line2d_17">
    <path d="M 62.64 98.452346 
L 62.64 96.569717 
" style="fill: none; stroke: #000000; stroke-width: 2; stroke-linecap: square"/>
   </g>
   <g id="line2d_18">
    <path d="M 62.64 93.677195 
L 62.64 91.794567 
" style="fill: none; stroke: #000000; stroke-width: 2; stroke-linecap: square"/>
   </g>
   <g id="line2d_19">
    <path d="M 81.24 98.617066 
L 81.24 99.724425 
" style="fill: none; stroke: #000000; stroke-width: 2; stroke-linecap: square"/>
   </g>
   <g id="line2d_20">
    <path d="M 81.24 96.831904 
L 81.24 97.939263 
" style="fill: none; stroke: #000000; stroke-width: 2; stroke-linecap: square"/>
   </g>
   <g id="legend_1"/>
   <g id="LineCollection_1">
    <defs>
     <path id="m14fc1d71ae" d="M 27.3 -157.022609 
L 45.9 -157.022609 
" style="stroke: #000000"/>
    </defs>
    <g>
     <use xlink:href="#m14fc1d71ae" x="0" y="288" style="stroke: #000000"/>
    </g>
   </g>
   <g id="LineCollection_2">
    <defs>
     <path id="ma184100589" d="M 64.5 -157.022609 
L 83.1 -157.022609 
" style="stroke: #000000"/>
    </defs>
    <g>
     <use xlink:href="#ma184100589" x="0" y="288" style="stroke: #000000"/>
    </g>
   </g>
   <g id="LineCollection_3">
    <defs>
     <path id="m6e93506a8c" d="M 18 -157.022609 
L 18 -253.44 
" style="stroke: #000000"/>
    </defs>
    <g>
     <use xlink:href="#m6e93506a8c" x="0" y="288" style="stroke: #000000"/>
    </g>
   </g>
  </g>
  <g id="axes_2">
   <g id="patch_6">
    <path d="M 41.25 198.401643 
L 50.55 198.401643 
L 50.55 220.21973 
L 41.25 220.21973 
z
" clip-path="url(#pc6b2912152)" style="opacity: 0.15; stroke: #000000; stroke-linejoin: miter"/>
   </g>
   <g id="patch_7">
    <path d="M 78.45 198.401643 
L 87.75 198.401643 
L 87.75 213.713108 
L 78.45 213.713108 
z
" clip-path="url(#pc6b2912152)" style="opacity: 0.15; stroke: #000000; stroke-linejoin: miter"/>
   </g>
   <g id="patch_8">
    <path d="M 115.65 198.401643 
L 124.95 198.401643 
L 124.95 191.895022 
L 115.65 191.895022 
z
" clip-path="url(#pc6b2912152)" style="opacity: 0.15; stroke: #000000; stroke-linejoin: miter"/>
   </g>
   <g id="PolyCollection_1">
    <defs>
     <path id="m24150bd88d" d="M 45.905341 -36.062609 
L 45.900277 -36.062609 
L 45.900277 -36.53213 
L 45.900277 -37.001651 
L 45.900277 -37.471172 
L 45.900277 -37.940693 
L 45.900277 -38.410214 
L 45.900277 -38.879735 
L 45.900277 -39.349256 
L 45.900277 -39.818777 
L 45.900277 -40.288298 
L 45.900277 -40.757819 
L 45.900277 -41.22734 
L 45.900277 -41.696861 
L 45.900277 -42.166382 
L 45.900277 -42.635904 
L 45.900277 -43.105425 
L 45.900277 -43.574946 
L 45.900277 -44.044467 
L 45.900277 -44.513988 
L 45.900277 -44.983509 
L 45.900277 -45.45303 
L 45.900277 -45.922551 
L 45.900277 -46.392072 
L 45.900277 -46.861593 
L 45.900277 -47.331114 
L 45.900277 -47.800635 
L 45.900277 -48.270156 
L 45.900277 -48.739677 
L 45.900277 -49.209198 
L 45.900277 -49.678719 
L 45.900277 -50.148241 
L 45.900277 -50.617762 
L 45.900277 -51.087283 
L 45.900277 -51.556804 
L 45.900277 -52.026325 
L 45.900277 -52.495846 
L 45.900277 -52.965367 
L 45.900277 -53.434888 
L 45.900277 -53.904409 
L 45.900277 -54.37393 
L 45.900277 -54.843451 
L 45.900277 -55.312972 
L 45.900277 -55.782493 
L 45.900277 -56.252014 
L 45.900277 -56.721535 
L 45.900277 -57.191056 
L 45.900277 -57.660577 
L 45.900277 -58.130099 
L 45.900277 -58.59962 
L 45.900277 -59.069141 
L 45.900277 -59.538662 
L 45.900277 -60.008183 
L 45.900277 -60.477704 
L 45.900277 -60.947225 
L 45.900277 -61.416746 
L 45.900277 -61.886267 
L 45.900277 -62.355788 
L 45.900277 -62.825309 
L 45.900277 -63.29483 
L 45.900277 -63.764351 
L 45.900277 -64.233872 
L 45.900277 -64.703393 
L 45.900277 -65.172914 
L 45.900277 -65.642436 
L 45.900277 -66.111957 
L 45.900277 -66.581478 
L 45.900277 -67.050999 
L 45.900277 -67.52052 
L 45.900277 -67.990041 
L 45.900277 -68.459562 
L 45.900277 -68.929083 
L 45.900277 -69.398604 
L 45.900277 -69.868125 
L 45.900277 -70.337646 
L 45.900277 -70.807167 
L 45.900277 -71.276688 
L 45.900277 -71.746209 
L 45.900277 -72.21573 
L 45.900277 -72.685251 
L 45.900277 -73.154772 
L 45.900277 -73.624294 
L 45.900277 -74.093815 
L 45.900277 -74.563336 
L 45.900277 -75.032857 
L 45.900277 -75.502378 
L 45.900277 -75.971899 
L 45.900277 -76.44142 
L 45.900277 -76.910941 
L 45.900277 -77.380462 
L 45.900277 -77.849983 
L 45.900277 -78.319504 
L 45.900277 -78.789025 
L 45.900277 -79.258546 
L 45.900277 -79.728067 
L 45.900277 -80.197588 
L 45.900277 -80.667109 
L 45.900277 -81.136631 
L 45.900277 -81.606152 
L 45.900277 -82.075673 
L 45.900277 -82.545194 
L 45.945565 -82.545194 
L 45.945565 -82.545194 
L 45.968366 -82.075673 
L 45.997218 -81.606152 
L 46.035764 -81.136631 
L 46.089803 -80.667109 
L 46.165121 -80.197588 
L 46.264873 -79.728067 
L 46.388517 -79.258546 
L 46.533877 -78.789025 
L 46.701211 -78.319504 
L 46.894467 -77.849983 
L 47.115955 -77.380462 
L 47.358515 -76.910941 
L 47.605343 -76.44142 
L 47.841836 -75.971899 
L 48.069711 -75.502378 
L 48.307844 -75.032857 
L 48.576547 -74.563336 
L 48.8798 -74.093815 
L 49.201953 -73.624294 
L 49.518857 -73.154772 
L 49.80885 -72.685251 
L 50.053835 -72.21573 
L 50.237044 -71.746209 
L 50.348718 -71.276688 
L 50.397178 -70.807167 
L 50.410425 -70.337646 
L 50.421507 -69.868125 
L 50.449233 -69.398604 
L 50.490703 -68.929083 
L 50.529589 -68.459562 
L 50.55 -67.990041 
L 50.543297 -67.52052 
L 50.505025 -67.050999 
L 50.430325 -66.581478 
L 50.315598 -66.111957 
L 50.164131 -65.642436 
L 49.988284 -65.172914 
L 49.804623 -64.703393 
L 49.623847 -64.233872 
L 49.442401 -63.764351 
L 49.245171 -63.29483 
L 49.02104 -62.825309 
L 48.778371 -62.355788 
L 48.543336 -61.886267 
L 48.339529 -61.416746 
L 48.167091 -60.947225 
L 48.00149 -60.477704 
L 47.813835 -60.008183 
L 47.595095 -59.538662 
L 47.363944 -59.069141 
L 47.152893 -58.59962 
L 46.986277 -58.130099 
L 46.868877 -57.660577 
L 46.790501 -57.191056 
L 46.735941 -56.721535 
L 46.690034 -56.252014 
L 46.639051 -55.782493 
L 46.573655 -55.312972 
L 46.492384 -54.843451 
L 46.401499 -54.37393 
L 46.311162 -53.904409 
L 46.231119 -53.434888 
L 46.167625 -52.965367 
L 46.121765 -52.495846 
L 46.089793 -52.026325 
L 46.065833 -51.556804 
L 46.045274 -51.087283 
L 46.026286 -50.617762 
L 46.008925 -50.148241 
L 45.993575 -49.678719 
L 45.980271 -49.209198 
L 45.968703 -48.739677 
L 45.958271 -48.270156 
L 45.948312 -47.800635 
L 45.938618 -47.331114 
L 45.929683 -46.861593 
L 45.922239 -46.392072 
L 45.91667 -45.922551 
L 45.913011 -45.45303 
L 45.911224 -44.983509 
L 45.911036 -44.513988 
L 45.911545 -44.044467 
L 45.911435 -43.574946 
L 45.909881 -43.105425 
L 45.907163 -42.635904 
L 45.904287 -42.166382 
L 45.902106 -41.696861 
L 45.900846 -41.22734 
L 45.900278 -40.757819 
L 45.900277 -40.288298 
L 45.900277 -39.818777 
L 45.900277 -39.349256 
L 45.900277 -38.879735 
L 45.900427 -38.410214 
L 45.90106 -37.940693 
L 45.90215 -37.471172 
L 45.903564 -37.001651 
L 45.904827 -36.53213 
L 45.905341 -36.062609 
z
"/>
    </defs>
    <g clip-path="url(#pc6b2912152)">
     <use xlink:href="#m24150bd88d" x="0" y="288" style="fill: #808080; fill-opacity: 0.8"/>
    </g>
   </g>
   <g id="PolyCollection_2">
    <defs>
     <path id="m6601eff2b7" d="M 83.110296 -63.632084 
L 83.100187 -63.632084 
L 83.100187 -63.828568 
L 83.100187 -64.025053 
L 83.100187 -64.221537 
L 83.100187 -64.418022 
L 83.100187 -64.614506 
L 83.100187 -64.810991 
L 83.100187 -65.007476 
L 83.100187 -65.20396 
L 83.100187 -65.400445 
L 83.100187 -65.596929 
L 83.100187 -65.793414 
L 83.100187 -65.989898 
L 83.100187 -66.186383 
L 83.100187 -66.382868 
L 83.100187 -66.579352 
L 83.100187 -66.775837 
L 83.100187 -66.972321 
L 83.100187 -67.168806 
L 83.100187 -67.36529 
L 83.100187 -67.561775 
L 83.100187 -67.758259 
L 83.100187 -67.954744 
L 83.100187 -68.151229 
L 83.100187 -68.347713 
L 83.100187 -68.544198 
L 83.100187 -68.740682 
L 83.100187 -68.937167 
L 83.100187 -69.133651 
L 83.100187 -69.330136 
L 83.100187 -69.526621 
L 83.100187 -69.723105 
L 83.100187 -69.91959 
L 83.100187 -70.116074 
L 83.100187 -70.312559 
L 83.100187 -70.509043 
L 83.100187 -70.705528 
L 83.100187 -70.902013 
L 83.100187 -71.098497 
L 83.100187 -71.294982 
L 83.100187 -71.491466 
L 83.100187 -71.687951 
L 83.100187 -71.884435 
L 83.100187 -72.08092 
L 83.100187 -72.277405 
L 83.100187 -72.473889 
L 83.100187 -72.670374 
L 83.100187 -72.866858 
L 83.100187 -73.063343 
L 83.100187 -73.259827 
L 83.100187 -73.456312 
L 83.100187 -73.652796 
L 83.100187 -73.849281 
L 83.100187 -74.045766 
L 83.100187 -74.24225 
L 83.100187 -74.438735 
L 83.100187 -74.635219 
L 83.100187 -74.831704 
L 83.100187 -75.028188 
L 83.100187 -75.224673 
L 83.100187 -75.421158 
L 83.100187 -75.617642 
L 83.100187 -75.814127 
L 83.100187 -76.010611 
L 83.100187 -76.207096 
L 83.100187 -76.40358 
L 83.100187 -76.600065 
L 83.100187 -76.79655 
L 83.100187 -76.993034 
L 83.100187 -77.189519 
L 83.100187 -77.386003 
L 83.100187 -77.582488 
L 83.100187 -77.778972 
L 83.100187 -77.975457 
L 83.100187 -78.171942 
L 83.100187 -78.368426 
L 83.100187 -78.564911 
L 83.100187 -78.761395 
L 83.100187 -78.95788 
L 83.100187 -79.154364 
L 83.100187 -79.350849 
L 83.100187 -79.547333 
L 83.100187 -79.743818 
L 83.100187 -79.940303 
L 83.100187 -80.136787 
L 83.100187 -80.333272 
L 83.100187 -80.529756 
L 83.100187 -80.726241 
L 83.100187 -80.922725 
L 83.100187 -81.11921 
L 83.100187 -81.315695 
L 83.100187 -81.512179 
L 83.100187 -81.708664 
L 83.100187 -81.905148 
L 83.100187 -82.101633 
L 83.100187 -82.298117 
L 83.100187 -82.494602 
L 83.100187 -82.691087 
L 83.100187 -82.887571 
L 83.100187 -83.084056 
L 83.117274 -83.084056 
L 83.117274 -83.084056 
L 83.125343 -82.887571 
L 83.135815 -82.691087 
L 83.148775 -82.494602 
L 83.163915 -82.298117 
L 83.180626 -82.101633 
L 83.198389 -81.905148 
L 83.217299 -81.708664 
L 83.23845 -81.512179 
L 83.263932 -81.315695 
L 83.296342 -81.11921 
L 83.338002 -80.922725 
L 83.390244 -80.726241 
L 83.453136 -80.529756 
L 83.525741 -80.333272 
L 83.606765 -80.136787 
L 83.695298 -79.940303 
L 83.791363 -79.743818 
L 83.89604 -79.547333 
L 84.011244 -79.350849 
L 84.139417 -79.154364 
L 84.283016 -78.95788 
L 84.443441 -78.761395 
L 84.61968 -78.564911 
L 84.807948 -78.368426 
L 85.003154 -78.171942 
L 85.201157 -77.975457 
L 85.399762 -77.778972 
L 85.597749 -77.582488 
L 85.793209 -77.386003 
L 85.982771 -77.189519 
L 86.162282 -76.993034 
L 86.328555 -76.79655 
L 86.481379 -76.600065 
L 86.624678 -76.40358 
L 86.765689 -76.207096 
L 86.911831 -76.010611 
L 87.06656 -75.814127 
L 87.226611 -75.617642 
L 87.382466 -75.421158 
L 87.521854 -75.224673 
L 87.633953 -75.028188 
L 87.711503 -74.831704 
L 87.75 -74.635219 
L 87.746369 -74.438735 
L 87.700482 -74.24225 
L 87.619143 -74.045766 
L 87.517163 -73.849281 
L 87.411016 -73.652796 
L 87.308496 -73.456312 
L 87.203756 -73.259827 
L 87.082946 -73.063343 
L 86.935505 -72.866858 
L 86.761679 -72.670374 
L 86.571658 -72.473889 
L 86.379092 -72.277405 
L 86.194367 -72.08092 
L 86.021085 -71.884435 
L 85.856551 -71.687951 
L 85.695307 -71.491466 
L 85.533673 -71.294982 
L 85.372631 -71.098497 
L 85.217156 -70.902013 
L 85.072212 -70.705528 
L 84.938109 -70.509043 
L 84.808767 -70.312559 
L 84.674794 -70.116074 
L 84.529888 -69.91959 
L 84.376248 -69.723105 
L 84.224926 -69.526621 
L 84.090437 -69.330136 
L 83.983069 -69.133651 
L 83.903866 -68.937167 
L 83.845097 -68.740682 
L 83.795089 -68.544198 
L 83.743815 -68.347713 
L 83.686042 -68.151229 
L 83.621258 -67.954744 
L 83.551859 -67.758259 
L 83.481478 -67.561775 
L 83.414165 -67.36529 
L 83.353799 -67.168806 
L 83.303145 -66.972321 
L 83.262973 -66.775837 
L 83.232048 -66.579352 
L 83.208089 -66.382868 
L 83.188908 -66.186383 
L 83.172983 -65.989898 
L 83.159463 -65.793414 
L 83.148033 -65.596929 
L 83.138829 -65.400445 
L 83.132204 -65.20396 
L 83.128244 -65.007476 
L 83.126346 -64.810991 
L 83.125269 -64.614506 
L 83.123734 -64.418022 
L 83.121107 -64.221537 
L 83.117581 -64.025053 
L 83.113794 -63.828568 
L 83.110296 -63.632084 
z
"/>
    </defs>
    <g clip-path="url(#pc6b2912152)">
     <use xlink:href="#m6601eff2b7" x="0" y="288" style="fill: #808080; fill-opacity: 0.8"/>
    </g>
   </g>
   <g id="PolyCollection_3">
    <defs>
     <path id="ma8909a9643" d="M 120.305025 -73.772706 
L 120.300074 -73.772706 
L 120.300074 -74.277172 
L 120.300074 -74.781637 
L 120.300074 -75.286103 
L 120.300074 -75.790568 
L 120.300074 -76.295033 
L 120.300074 -76.799499 
L 120.300074 -77.303964 
L 120.300074 -77.80843 
L 120.300074 -78.312895 
L 120.300074 -78.81736 
L 120.300074 -79.321826 
L 120.300074 -79.826291 
L 120.300074 -80.330757 
L 120.300074 -80.835222 
L 120.300074 -81.339688 
L 120.300074 -81.844153 
L 120.300074 -82.348618 
L 120.300074 -82.853084 
L 120.300074 -83.357549 
L 120.300074 -83.862015 
L 120.300074 -84.36648 
L 120.300074 -84.870945 
L 120.300074 -85.375411 
L 120.300074 -85.879876 
L 120.300074 -86.384342 
L 120.300074 -86.888807 
L 120.300074 -87.393273 
L 120.300074 -87.897738 
L 120.300074 -88.402203 
L 120.300074 -88.906669 
L 120.300074 -89.411134 
L 120.300074 -89.9156 
L 120.300074 -90.420065 
L 120.300074 -90.92453 
L 120.300074 -91.428996 
L 120.300074 -91.933461 
L 120.300074 -92.437927 
L 120.300074 -92.942392 
L 120.300074 -93.446858 
L 120.300074 -93.951323 
L 120.300074 -94.455788 
L 120.300074 -94.960254 
L 120.300074 -95.464719 
L 120.300074 -95.969185 
L 120.300074 -96.47365 
L 120.300074 -96.978115 
L 120.300074 -97.482581 
L 120.300074 -97.987046 
L 120.300074 -98.491512 
L 120.300074 -98.995977 
L 120.300074 -99.500443 
L 120.300074 -100.004908 
L 120.300074 -100.509373 
L 120.300074 -101.013839 
L 120.300074 -101.518304 
L 120.300074 -102.02277 
L 120.300074 -102.527235 
L 120.300074 -103.0317 
L 120.300074 -103.536166 
L 120.300074 -104.040631 
L 120.300074 -104.545097 
L 120.300074 -105.049562 
L 120.300074 -105.554028 
L 120.300074 -106.058493 
L 120.300074 -106.562958 
L 120.300074 -107.067424 
L 120.300074 -107.571889 
L 120.300074 -108.076355 
L 120.300074 -108.58082 
L 120.300074 -109.085285 
L 120.300074 -109.589751 
L 120.300074 -110.094216 
L 120.300074 -110.598682 
L 120.300074 -111.103147 
L 120.300074 -111.607613 
L 120.300074 -112.112078 
L 120.300074 -112.616543 
L 120.300074 -113.121009 
L 120.300074 -113.625474 
L 120.300074 -114.12994 
L 120.300074 -114.634405 
L 120.300074 -115.138871 
L 120.300074 -115.643336 
L 120.300074 -116.147801 
L 120.300074 -116.652267 
L 120.300074 -117.156732 
L 120.300074 -117.661198 
L 120.300074 -118.165663 
L 120.300074 -118.670128 
L 120.300074 -119.174594 
L 120.300074 -119.679059 
L 120.300074 -120.183525 
L 120.300074 -120.68799 
L 120.300074 -121.192456 
L 120.300074 -121.696921 
L 120.300074 -122.201386 
L 120.300074 -122.705852 
L 120.300074 -123.210317 
L 120.300074 -123.714783 
L 120.30502 -123.714783 
L 120.30502 -123.714783 
L 120.304583 -123.210317 
L 120.303512 -122.705852 
L 120.302397 -122.201386 
L 120.301844 -121.696921 
L 120.302305 -121.192456 
L 120.304094 -120.68799 
L 120.307396 -120.183525 
L 120.312134 -119.679059 
L 120.317788 -119.174594 
L 120.323432 -118.670128 
L 120.328219 -118.165663 
L 120.332179 -117.661198 
L 120.33665 -117.156732 
L 120.343682 -116.652267 
L 120.354759 -116.147801 
L 120.370018 -115.643336 
L 120.388702 -115.138871 
L 120.410417 -114.634405 
L 120.436021 -114.12994 
L 120.46729 -113.625474 
L 120.50552 -113.121009 
L 120.550126 -112.616543 
L 120.59841 -112.112078 
L 120.646937 -111.607613 
L 120.693929 -111.103147 
L 120.741151 -110.598682 
L 120.793674 -110.094216 
L 120.857534 -109.589751 
L 120.937133 -109.085285 
L 121.034135 -108.58082 
L 121.147881 -108.076355 
L 121.2764 -107.571889 
L 121.417061 -107.067424 
L 121.566578 -106.562958 
L 121.721008 -106.058493 
L 121.876491 -105.554028 
L 122.030519 -105.049562 
L 122.18289 -104.545097 
L 122.335965 -104.040631 
L 122.493961 -103.536166 
L 122.661 -103.0317 
L 122.838715 -102.527235 
L 123.025271 -102.02277 
L 123.216635 -101.518304 
L 123.408861 -101.013839 
L 123.599379 -100.509373 
L 123.786628 -100.004908 
L 123.969213 -99.500443 
L 124.14604 -98.995977 
L 124.316783 -98.491512 
L 124.480691 -97.987046 
L 124.633973 -97.482581 
L 124.768629 -96.978115 
L 124.873833 -96.47365 
L 124.937875 -95.969185 
L 124.95 -95.464719 
L 124.904038 -94.960254 
L 124.803453 -94.455788 
L 124.663033 -93.951323 
L 124.503605 -93.446858 
L 124.342565 -92.942392 
L 124.18725 -92.437927 
L 124.035255 -91.933461 
L 123.879343 -91.428996 
L 123.712072 -90.92453 
L 123.528151 -90.420065 
L 123.325807 -89.9156 
L 123.107871 -89.411134 
L 122.881311 -88.906669 
L 122.654452 -88.402203 
L 122.433653 -87.897738 
L 122.221974 -87.393273 
L 122.020422 -86.888807 
L 121.830015 -86.384342 
L 121.652411 -85.879876 
L 121.488269 -85.375411 
L 121.335154 -84.870945 
L 121.188173 -84.36648 
L 121.044051 -83.862015 
L 120.905005 -83.357549 
L 120.778303 -82.853084 
L 120.671778 -82.348618 
L 120.589266 -81.844153 
L 120.528948 -81.339688 
L 120.484777 -80.835222 
L 120.449626 -80.330757 
L 120.418389 -79.826291 
L 120.389365 -79.321826 
L 120.363402 -78.81736 
L 120.34197 -78.312895 
L 120.325794 -77.80843 
L 120.314627 -77.303964 
L 120.307656 -76.799499 
L 120.303912 -76.295033 
L 120.302495 -75.790568 
L 120.30263 -75.286103 
L 120.303584 -74.781637 
L 120.304602 -74.277172 
L 120.305025 -73.772706 
z
"/>
    </defs>
    <g clip-path="url(#pc6b2912152)">
     <use xlink:href="#ma8909a9643" x="0" y="288" style="fill: #808080; fill-opacity: 0.8"/>
    </g>
   </g>
   <g id="matplotlib.axis_3">
    <g id="xtick_5">
     <g id="line2d_21">
      <g>
       <use xlink:href="#m4b91c93ec6" x="27.3" y="256.32" style="stroke: #000000; stroke-width: 0.8"/>
      </g>
     </g>
    </g>
    <g id="xtick_6">
     <g id="line2d_22">
      <g>
       <use xlink:href="#m4b91c93ec6" x="45.9" y="256.32" style="stroke: #000000; stroke-width: 0.8"/>
      </g>
     </g>
     <g id="text_14">
      <text style="font: 12px 'Helvetica', sans-serif; text-anchor: middle" x="45.9" y="271.928125" transform="rotate(-0 45.9 271.928125)">Off</text>
     </g>
    </g>
    <g id="xtick_7">
     <g id="line2d_23">
      <g>
       <use xlink:href="#m4b91c93ec6" x="64.5" y="256.32" style="stroke: #000000; stroke-width: 0.8"/>
      </g>
     </g>
    </g>
    <g id="xtick_8">
     <g id="line2d_24">
      <g>
       <use xlink:href="#m4b91c93ec6" x="83.1" y="256.32" style="stroke: #000000; stroke-width: 0.8"/>
      </g>
     </g>
     <g id="text_15">
      <text style="font: 12px 'Helvetica', sans-serif; text-anchor: middle" x="83.1" y="271.928125" transform="rotate(-0 83.1 271.928125)">On</text>
     </g>
    </g>
    <g id="xtick_9">
     <g id="line2d_25">
      <g>
       <use xlink:href="#m4b91c93ec6" x="101.7" y="256.32" style="stroke: #000000; stroke-width: 0.8"/>
      </g>
     </g>
    </g>
    <g id="xtick_10">
     <g id="line2d_26">
      <g>
       <use xlink:href="#m4b91c93ec6" x="120.3" y="256.32" style="stroke: #000000; stroke-width: 0.8"/>
      </g>
     </g>
     <g id="text_16">
      <!-- $\Delta\Delta$ -->
      <g transform="translate(112.08 271.928125)">
       <text>
        <tspan style="font: 12px 'DejaVu Sans'" x="0 8.208984" y="-0.25">ΔΔ</tspan>
       </text>
      </g>
     </g>
    </g>
   </g>
   <g id="matplotlib.axis_4">
    <g id="ytick_9">
     <g id="line2d_27">
      <g>
       <use xlink:href="#m9c86bc8ae0" x="18" y="245.198095" style="stroke: #000000; stroke-width: 0.8"/>
      </g>
     </g>
     <g id="text_17">
      <text style="font: 6px 'Helvetica', sans-serif; text-anchor: end" x="11" y="247.350126" transform="rotate(-0 11 247.350126)">−1.5</text>
     </g>
    </g>
    <g id="ytick_10">
     <g id="line2d_28">
      <g>
       <use xlink:href="#m9c86bc8ae0" x="18" y="229.599278" style="stroke: #000000; stroke-width: 0.8"/>
      </g>
     </g>
     <g id="text_18">
      <text style="font: 6px 'Helvetica', sans-serif; text-anchor: end" x="11" y="231.751309" transform="rotate(-0 11 231.751309)">−1.0</text>
     </g>
    </g>
    <g id="ytick_11">
     <g id="line2d_29">
      <g>
       <use xlink:href="#m9c86bc8ae0" x="18" y="214.000461" style="stroke: #000000; stroke-width: 0.8"/>
      </g>
     </g>
     <g id="text_19">
      <text style="font: 6px 'Helvetica', sans-serif; text-anchor: end" x="11" y="216.152492" transform="rotate(-0 11 216.152492)">−0.5</text>
     </g>
    </g>
    <g id="ytick_12">
     <g id="line2d_30">
      <g>
       <use xlink:href="#m9c86bc8ae0" x="18" y="198.401643" style="stroke: #000000; stroke-width: 0.8"/>
      </g>
     </g>
     <g id="text_20">
      <text style="font: 6px 'Helvetica', sans-serif; text-anchor: end" x="11" y="200.553675" transform="rotate(-0 11 200.553675)">0.0</text>
     </g>
    </g>
    <g id="ytick_13">
     <g id="line2d_31">
      <g>
       <use xlink:href="#m9c86bc8ae0" x="18" y="182.802826" style="stroke: #000000; stroke-width: 0.8"/>
      </g>
     </g>
     <g id="text_21">
      <text style="font: 6px 'Helvetica', sans-serif; text-anchor: end" x="11" y="184.954857" transform="rotate(-0 11 184.954857)">0.5</text>
     </g>
    </g>
    <g id="ytick_14">
     <g id="line2d_32">
      <g>
       <use xlink:href="#m9c86bc8ae0" x="18" y="167.204009" style="stroke: #000000; stroke-width: 0.8"/>
      </g>
     </g>
     <g id="text_22">
      <text style="font: 6px 'Helvetica', sans-serif; text-anchor: end" x="11" y="169.35604" transform="rotate(-0 11 169.35604)">1.0</text>
     </g>
    </g>
    <g id="text_23">
     <!-- $\Delta$ Speed (mm/s) -->
     <g transform="translate(-7.364375 251.611304) rotate(-90)">
      <text>
       <tspan style="font: 12px 'DejaVu Sans'" x="0" y="-0.15625">Δ</tspan>
       <tspan style="font: 12px 'Helvetica'" x="8.208984 11.542969 19.546875 26.220703 32.894531 39.568359 46.242188 49.576172 53.572266 63.568359 73.564453 76.898438 82.898438" y="-0.15625"> Speed (mm/s)</tspan>
      </text>
     </g>
    </g>
   </g>
   <g id="line2d_33">
    <path d="M 45.9 220.21973 
" clip-path="url(#pc6b2912152)" style="fill: none; stroke: #000000; stroke-width: 1.5; stroke-linecap: square"/>
    <defs>
     <path id="m7fd167d0c9" d="M 0 2.5 
C 0.663008 2.5 1.29895 2.236584 1.767767 1.767767 
C 2.236584 1.29895 2.5 0.663008 2.5 0 
C 2.5 -0.663008 2.236584 -1.29895 1.767767 -1.767767 
C 1.29895 -2.236584 0.663008 -2.5 0 -2.5 
C -0.663008 -2.5 -1.29895 -2.236584 -1.767767 -1.767767 
C -2.236584 -1.29895 -2.5 -0.663008 -2.5 0 
C -2.5 0.663008 -2.236584 1.29895 -1.767767 1.767767 
C -1.29895 2.236584 -0.663008 2.5 0 2.5 
z
" style="stroke: #000000"/>
    </defs>
    <g clip-path="url(#pc6b2912152)">
     <use xlink:href="#m7fd167d0c9" x="45.9" y="220.21973" style="stroke: #000000"/>
    </g>
   </g>
   <g id="line2d_34">
    <path d="M 45.9 236.078066 
L 45.9 211.779313 
" clip-path="url(#pc6b2912152)" style="fill: none; stroke: #000000; stroke-width: 2; stroke-linecap: square"/>
   </g>
   <g id="line2d_35">
    <path d="M 83.1 213.713108 
" clip-path="url(#pc6b2912152)" style="fill: none; stroke: #000000; stroke-width: 1.5; stroke-linecap: square"/>
    <g clip-path="url(#pc6b2912152)">
     <use xlink:href="#m7fd167d0c9" x="83.1" y="213.713108" style="stroke: #000000"/>
    </g>
   </g>
   <g id="line2d_36">
    <path d="M 83.1 220.029036 
L 83.1 208.884337 
" clip-path="url(#pc6b2912152)" style="fill: none; stroke: #000000; stroke-width: 2; stroke-linecap: square"/>
   </g>
   <g id="line2d_37">
    <path d="M 120.3 191.895022 
" clip-path="url(#pc6b2912152)" style="fill: none; stroke: #000000; stroke-width: 1.5; stroke-linecap: square"/>
    <g clip-path="url(#pc6b2912152)">
     <use xlink:href="#m7fd167d0c9" x="120.3" y="191.895022" style="stroke: #000000"/>
    </g>
   </g>
   <g id="line2d_38">
    <path d="M 120.3 203.362421 
L 120.3 178.196062 
" clip-path="url(#pc6b2912152)" style="fill: none; stroke: #000000; stroke-width: 2; stroke-linecap: square"/>
   </g>
   <g id="line2d_39">
    <path d="M 18 198.401643 
L 129.6 198.401643 
" clip-path="url(#pc6b2912152)" style="fill: none; stroke: #000000; stroke-width: 0.75; stroke-linecap: square"/>
   </g>
   <g id="LineCollection_4">
    <defs>
     <path id="ma2d89a7a94" d="M 27.3 -31.68 
L 45.9 -31.68 
" style="stroke: #000000"/>
    </defs>
    <g>
     <use xlink:href="#ma2d89a7a94" x="0" y="288" style="stroke: #000000"/>
    </g>
   </g>
   <g id="LineCollection_5">
    <defs>
     <path id="m926dc158ba" d="M 64.5 -31.68 
L 83.1 -31.68 
" style="stroke: #000000"/>
    </defs>
    <g>
     <use xlink:href="#m926dc158ba" x="0" y="288" style="stroke: #000000"/>
    </g>
   </g>
   <g id="LineCollection_6">
    <defs>
     <path id="m8b4be90ea9" d="M 101.7 -31.68 
L 120.3 -31.68 
" style="stroke: #000000"/>
    </defs>
    <g>
     <use xlink:href="#m8b4be90ea9" x="0" y="288" style="stroke: #000000"/>
    </g>
   </g>
   <g id="LineCollection_7">
    <defs>
     <path id="ma66c3e5b26" d="M 18 -31.68 
L 18 -128.097391 
" style="stroke: #000000"/>
    </defs>
    <g>
     <use xlink:href="#ma66c3e5b26" x="0" y="288" style="stroke: #000000"/>
    </g>
   </g>
  </g>
  <g id="axes_3">
   <g id="matplotlib.axis_5">
    <g id="ytick_15">
     <g id="line2d_40">
      <defs>
       <path id="ma192b16330" d="M 0 0 
L 3.5 0 
" style="stroke: #000000; stroke-width: 0.8"/>
      </defs>
      <g>
       <use xlink:href="#ma192b16330" x="129.6" y="245.198095" style="stroke: #000000; stroke-width: 0.8"/>
      </g>
     </g>
     <g id="text_24">
      <text style="font: 6px 'Helvetica', sans-serif; text-anchor: start" x="136.6" y="247.350126" transform="rotate(-0 136.6 247.350126)">−1.5</text>
     </g>
    </g>
    <g id="ytick_16">
     <g id="line2d_41">
      <g>
       <use xlink:href="#ma192b16330" x="129.6" y="229.599278" style="stroke: #000000; stroke-width: 0.8"/>
      </g>
     </g>
     <g id="text_25">
      <text style="font: 6px 'Helvetica', sans-serif; text-anchor: start" x="136.6" y="231.751309" transform="rotate(-0 136.6 231.751309)">−1.0</text>
     </g>
    </g>
    <g id="ytick_17">
     <g id="line2d_42">
      <g>
       <use xlink:href="#ma192b16330" x="129.6" y="214.000461" style="stroke: #000000; stroke-width: 0.8"/>
      </g>
     </g>
     <g id="text_26">
      <text style="font: 6px 'Helvetica', sans-serif; text-anchor: start" x="136.6" y="216.152492" transform="rotate(-0 136.6 216.152492)">−0.5</text>
     </g>
    </g>
    <g id="ytick_18">
     <g id="line2d_43">
      <g>
       <use xlink:href="#ma192b16330" x="129.6" y="198.401643" style="stroke: #000000; stroke-width: 0.8"/>
      </g>
     </g>
     <g id="text_27">
      <text style="font: 6px 'Helvetica', sans-serif; text-anchor: start" x="136.6" y="200.553675" transform="rotate(-0 136.6 200.553675)">0.0</text>
     </g>
    </g>
    <g id="ytick_19">
     <g id="line2d_44">
      <g>
       <use xlink:href="#ma192b16330" x="129.6" y="182.802826" style="stroke: #000000; stroke-width: 0.8"/>
      </g>
     </g>
     <g id="text_28">
      <text style="font: 6px 'Helvetica', sans-serif; text-anchor: start" x="136.6" y="184.954857" transform="rotate(-0 136.6 184.954857)">0.5</text>
     </g>
    </g>
    <g id="ytick_20">
     <g id="line2d_45">
      <g>
       <use xlink:href="#ma192b16330" x="129.6" y="167.204009" style="stroke: #000000; stroke-width: 0.8"/>
      </g>
     </g>
     <g id="text_29">
      <text style="font: 6px 'Helvetica', sans-serif; text-anchor: start" x="136.6" y="169.35604" transform="rotate(-0 136.6 169.35604)">1.0</text>
     </g>
    </g>
    <g id="text_30">
     <!-- $\Delta\Delta$ -->
     <g transform="translate(161.0525 216.331304) rotate(-90)">
      <text>
       <tspan style="font: 12px 'DejaVu Sans'" x="0 8.208984" y="-0.25">ΔΔ</tspan>
      </text>
     </g>
    </g>
   </g>
   <g id="LineCollection_8">
    <defs>
     <path id="m9e97ccad02" d="M 129.6 -31.68 
L 129.6 -128.097391 
" style="stroke: #000000"/>
    </defs>
    <g>
     <use xlink:href="#m9e97ccad02" x="0" y="288" style="stroke: #000000"/>
    </g>
   </g>
  </g>
  <g id="text_31">
   <text style="fill: #ffa500; font: italic 500 12px 'inter'; text-anchor: middle" x="72" y="17.758125" transform="rotate(-0 72 17.758125)">SXVNC1&gt;ACR1</text>
  </g>
 </g>
 <defs>
  <clipPath id="p0059c031f9">
   <rect x="18" y="34.56" width="111.6" height="96.417391"/>
  </clipPath>
  <clipPath id="pc6b2912152">
   <rect x="18" y="159.902609" width="111.6" height="96.417391"/>
  </clipPath>
 </defs>
</svg>
