<?xml version="1.0" encoding="utf-8" standalone="no"?>
<!DOCTYPE svg PUBLIC "-//W3C//DTD SVG 1.1//EN"
  "http://www.w3.org/Graphics/SVG/1.1/DTD/svg11.dtd">
<svg xmlns:xlink="http://www.w3.org/1999/xlink" width="144pt" height="288pt" viewBox="0 0 144 288" xmlns="http://www.w3.org/2000/svg" version="1.1">
 <metadata>
  <rdf:RDF xmlns:dc="http://purl.org/dc/elements/1.1/" xmlns:cc="http://creativecommons.org/ns#" xmlns:rdf="http://www.w3.org/1999/02/22-rdf-syntax-ns#">
   <cc:Work>
    <dc:type rdf:resource="http://purl.org/dc/dcmitype/StillImage"/>
    <dc:date>2025-02-16T02:07:26.989610</dc:date>
    <dc:format>image/svg+xml</dc:format>
    <dc:creator>
     <cc:Agent>
      <dc:title>Matplotlib v3.6.3, https://matplotlib.org/</dc:title>
     </cc:Agent>
    </dc:creator>
   </cc:Work>
  </rdf:RDF>
 </metadata>
 <defs>
  <style type="text/css">*{stroke-linejoin: round; stroke-linecap: butt}</style>
 </defs>
 <g id="figure_1">
  <g id="patch_1">
   <path d="M 0 288 
L 144 288 
L 144 0 
L 0 0 
z
" style="fill: #ffffff"/>
  </g>
  <g id="axes_1">
   <g id="patch_2">
    <path d="M 22.65 98.838261 
L 31.95 98.838261 
L 31.95 92.749854 
L 22.65 92.749854 
z
" clip-path="url(#pe7c4cb87c9)" style="opacity: 0.15; stroke: #000000; stroke-linejoin: miter"/>
   </g>
   <g id="patch_3">
    <path d="M 41.25 98.838261 
L 50.55 98.838261 
L 50.55 86.291355 
L 41.25 86.291355 
z
" clip-path="url(#pe7c4cb87c9)" style="opacity: 0.15; stroke: #000000; stroke-linejoin: miter"/>
   </g>
   <g id="patch_4">
    <path d="M 59.85 98.838261 
L 69.15 98.838261 
L 69.15 95.364501 
L 59.85 95.364501 
z
" clip-path="url(#pe7c4cb87c9)" style="opacity: 0.15; stroke: #000000; stroke-linejoin: miter"/>
   </g>
   <g id="patch_5">
    <path d="M 78.45 98.838261 
L 87.75 98.838261 
L 87.75 95.016569 
L 78.45 95.016569 
z
" clip-path="url(#pe7c4cb87c9)" style="opacity: 0.15; stroke: #000000; stroke-linejoin: miter"/>
   </g>
   <g id="PathCollection_1">
    <defs>
     <path id="C0_0_1f886d1c54" d="M 0 0.632456 
C 0.167729 0.632456 0.328611 0.565816 0.447214 0.447214 
C 0.565816 0.328611 0.632456 0.167729 0.632456 -0 
C 0.632456 -0.167729 0.565816 -0.328611 0.447214 -0.447214 
C 0.328611 -0.565816 0.167729 -0.632456 0 -0.632456 
C -0.167729 -0.632456 -0.328611 -0.565816 -0.447214 -0.447214 
C -0.565816 -0.328611 -0.632456 -0.167729 -0.632456 0 
C -0.632456 0.167729 -0.565816 0.328611 -0.447214 0.447214 
C -0.328611 0.565816 -0.167729 0.632456 0 0.632456 
z
"/>
    </defs>
    <g clip-path="url(#pe7c4cb87c9)">
     <use xlink:href="#C0_0_1f886d1c54" x="27.3" y="98.401676" style="stroke: #000000"/>
    </g>
    <g clip-path="url(#pe7c4cb87c9)">
     <use xlink:href="#C0_0_1f886d1c54" x="28.922844" y="98.357951" style="fill: #808080; stroke: #808080"/>
    </g>
    <g clip-path="url(#pe7c4cb87c9)">
     <use xlink:href="#C0_0_1f886d1c54" x="30.545329" y="98.290633" style="fill: #808080; stroke: #808080"/>
    </g>
    <g clip-path="url(#pe7c4cb87c9)">
     <use xlink:href="#C0_0_1f886d1c54" x="32.168434" y="98.289035" style="fill: #808080; stroke: #808080"/>
    </g>
    <g clip-path="url(#pe7c4cb87c9)">
     <use xlink:href="#C0_0_1f886d1c54" x="33.791526" y="98.279168" style="stroke: #000000"/>
    </g>
    <g clip-path="url(#pe7c4cb87c9)">
     <use xlink:href="#C0_0_1f886d1c54" x="35.414354" y="98.234108" style="stroke: #000000"/>
    </g>
    <g clip-path="url(#pe7c4cb87c9)">
     <use xlink:href="#C0_0_1f886d1c54" x="28.059446" y="96.249966" style="fill: #808080; stroke: #808080"/>
    </g>
    <g clip-path="url(#pe7c4cb87c9)">
     <use xlink:href="#C0_0_1f886d1c54" x="29.682257" y="96.20353" style="stroke: #000000"/>
    </g>
    <g clip-path="url(#pe7c4cb87c9)">
     <use xlink:href="#C0_0_1f886d1c54" x="31.297266" y="95.960663" style="stroke: #000000"/>
    </g>
    <g clip-path="url(#pe7c4cb87c9)">
     <use xlink:href="#C0_0_1f886d1c54" x="32.919873" y="95.900316" style="stroke: #000000"/>
    </g>
    <g clip-path="url(#pe7c4cb87c9)">
     <use xlink:href="#C0_0_1f886d1c54" x="34.537092" y="95.693152" style="fill: #808080; stroke: #808080"/>
    </g>
    <g clip-path="url(#pe7c4cb87c9)">
     <use xlink:href="#C0_0_1f886d1c54" x="28.828511" y="94.105957" style="fill: #808080; stroke: #808080"/>
    </g>
    <g clip-path="url(#pe7c4cb87c9)">
     <use xlink:href="#C0_0_1f886d1c54" x="30.401558" y="93.505969" style="stroke: #000000"/>
    </g>
    <g clip-path="url(#pe7c4cb87c9)">
     <use xlink:href="#C0_0_1f886d1c54" x="27.3" y="92.888343" style="fill: #808080; stroke: #808080"/>
    </g>
    <g clip-path="url(#pe7c4cb87c9)">
     <use xlink:href="#C0_0_1f886d1c54" x="28.312704" y="90.985705" style="stroke: #000000"/>
    </g>
    <g clip-path="url(#pe7c4cb87c9)">
     <use xlink:href="#C0_0_1f886d1c54" x="29.934292" y="90.880447" style="fill: #808080; stroke: #808080"/>
    </g>
    <g clip-path="url(#pe7c4cb87c9)">
     <use xlink:href="#C0_0_1f886d1c54" x="31.557165" y="90.83921" style="fill: #808080; stroke: #808080"/>
    </g>
    <g clip-path="url(#pe7c4cb87c9)">
     <use xlink:href="#C0_0_1f886d1c54" x="33.133609" y="90.259627" style="fill: #808080; stroke: #808080"/>
    </g>
    <g clip-path="url(#pe7c4cb87c9)">
     <use xlink:href="#C0_0_1f886d1c54" x="34.756628" y="90.234517" style="fill: #808080; stroke: #808080"/>
    </g>
    <g clip-path="url(#pe7c4cb87c9)">
     <use xlink:href="#C0_0_1f886d1c54" x="27.3" y="88.193521" style="fill: #808080; stroke: #808080"/>
    </g>
    <g clip-path="url(#pe7c4cb87c9)">
     <use xlink:href="#C0_0_1f886d1c54" x="28.868783" y="87.568918" style="stroke: #000000"/>
    </g>
    <g clip-path="url(#pe7c4cb87c9)">
     <use xlink:href="#C0_0_1f886d1c54" x="30.428843" y="86.896948" style="stroke: #000000"/>
    </g>
    <g clip-path="url(#pe7c4cb87c9)">
     <use xlink:href="#C0_0_1f886d1c54" x="32.049972" y="86.776838" style="stroke: #000000"/>
    </g>
    <g clip-path="url(#pe7c4cb87c9)">
     <use xlink:href="#C0_0_1f886d1c54" x="27.3" y="85.026142" style="stroke: #000000"/>
    </g>
    <g clip-path="url(#pe7c4cb87c9)">
     <use xlink:href="#C0_0_1f886d1c54" x="28.600157" y="83.568698" style="stroke: #000000"/>
    </g>
    <g clip-path="url(#pe7c4cb87c9)">
     <use xlink:href="#C0_0_1f886d1c54" x="30.219113" y="83.394703" style="stroke: #000000"/>
    </g>
    <g clip-path="url(#pe7c4cb87c9)">
     <use xlink:href="#C0_0_1f886d1c54" x="27.3" y="79.069374" style="fill: #808080; stroke: #808080"/>
    </g>
    <g clip-path="url(#pe7c4cb87c9)">
     <use xlink:href="#C0_0_1f886d1c54" x="27.3" y="74.611376" style="stroke: #000000"/>
    </g>
    <g clip-path="url(#pe7c4cb87c9)">
     <use xlink:href="#C0_0_1f886d1c54" x="27.3" y="71.175896" style="stroke: #000000"/>
    </g>
   </g>
   <g id="PathCollection_2">
    <defs>
     <path id="C1_0_f02696f931" d="M 0 0.632456 
C 0.167729 0.632456 0.328611 0.565816 0.447214 0.447214 
C 0.565816 0.328611 0.632456 0.167729 0.632456 -0 
C 0.632456 -0.167729 0.565816 -0.328611 0.447214 -0.447214 
C 0.328611 -0.565816 0.167729 -0.632456 0 -0.632456 
C -0.167729 -0.632456 -0.328611 -0.565816 -0.447214 -0.447214 
C -0.565816 -0.328611 -0.632456 -0.167729 -0.632456 0 
C -0.632456 0.167729 -0.565816 0.328611 -0.447214 0.447214 
C -0.328611 0.565816 -0.167729 0.632456 0 0.632456 
z
"/>
    </defs>
    <g clip-path="url(#pe7c4cb87c9)">
     <use xlink:href="#C1_0_f02696f931" x="45.9" y="98.421904" style="fill: #2e8b57; stroke: #2e8b57"/>
    </g>
    <g clip-path="url(#pe7c4cb87c9)">
     <use xlink:href="#C1_0_f02696f931" x="47.52263" y="98.362942" style="fill: #2e8b57; stroke: #2e8b57"/>
    </g>
    <g clip-path="url(#pe7c4cb87c9)">
     <use xlink:href="#C1_0_f02696f931" x="49.145407" y="98.313957" style="fill: #2e8b57; stroke: #2e8b57"/>
    </g>
    <g clip-path="url(#pe7c4cb87c9)">
     <use xlink:href="#C1_0_f02696f931" x="50.768483" y="98.299328" style="fill: #2e8b57; stroke: #2e8b57"/>
    </g>
    <g clip-path="url(#pe7c4cb87c9)">
     <use xlink:href="#C1_0_f02696f931" x="52.391532" y="98.279062" style="fill: #2e8b57; stroke: #2e8b57"/>
    </g>
    <g clip-path="url(#pe7c4cb87c9)">
     <use xlink:href="#C1_0_f02696f931" x="54.014623" y="98.268466" style="fill: #2e8b57; stroke: #2e8b57"/>
    </g>
    <g clip-path="url(#pe7c4cb87c9)">
     <use xlink:href="#C1_0_f02696f931" x="45.9" y="95.253217" style="fill: #2e8b57; stroke: #2e8b57"/>
    </g>
    <g clip-path="url(#pe7c4cb87c9)">
     <use xlink:href="#C1_0_f02696f931" x="47.519014" y="95.080445" style="fill: #2e8b57; stroke: #2e8b57"/>
    </g>
    <g clip-path="url(#pe7c4cb87c9)">
     <use xlink:href="#C1_0_f02696f931" x="45.9" y="91.194876" style="fill: #2e8b57; stroke: #2e8b57"/>
    </g>
    <g clip-path="url(#pe7c4cb87c9)">
     <use xlink:href="#C1_0_f02696f931" x="47.523084" y="91.182167" style="fill: #2e8b57; stroke: #2e8b57"/>
    </g>
    <g clip-path="url(#pe7c4cb87c9)">
     <use xlink:href="#C1_0_f02696f931" x="49.14509" y="91.092579" style="fill: #2e8b57; stroke: #2e8b57"/>
    </g>
    <g clip-path="url(#pe7c4cb87c9)">
     <use xlink:href="#C1_0_f02696f931" x="50.766576" y="90.983861" style="fill: #2e8b57; stroke: #2e8b57"/>
    </g>
    <g clip-path="url(#pe7c4cb87c9)">
     <use xlink:href="#C1_0_f02696f931" x="45.9" y="86.757446" style="fill: #2e8b57; stroke: #2e8b57"/>
    </g>
    <g clip-path="url(#pe7c4cb87c9)">
     <use xlink:href="#C1_0_f02696f931" x="45.9" y="83.532838" style="fill: #2e8b57; stroke: #2e8b57"/>
    </g>
    <g clip-path="url(#pe7c4cb87c9)">
     <use xlink:href="#C1_0_f02696f931" x="47.522552" y="83.469256" style="fill: #2e8b57; stroke: #2e8b57"/>
    </g>
    <g clip-path="url(#pe7c4cb87c9)">
     <use xlink:href="#C1_0_f02696f931" x="49.10749" y="82.944375" style="fill: #2e8b57; stroke: #2e8b57"/>
    </g>
    <g clip-path="url(#pe7c4cb87c9)">
     <use xlink:href="#C1_0_f02696f931" x="50.718778" y="82.651118" style="fill: #2e8b57; stroke: #2e8b57"/>
    </g>
    <g clip-path="url(#pe7c4cb87c9)">
     <use xlink:href="#C1_0_f02696f931" x="45.9" y="80.567805" style="fill: #2e8b57; stroke: #2e8b57"/>
    </g>
    <g clip-path="url(#pe7c4cb87c9)">
     <use xlink:href="#C1_0_f02696f931" x="47.489238" y="80.073045" style="fill: #2e8b57; stroke: #2e8b57"/>
    </g>
    <g clip-path="url(#pe7c4cb87c9)">
     <use xlink:href="#C1_0_f02696f931" x="49.097252" y="79.741806" style="fill: #2e8b57; stroke: #2e8b57"/>
    </g>
    <g clip-path="url(#pe7c4cb87c9)">
     <use xlink:href="#C1_0_f02696f931" x="50.601569" y="78.827542" style="fill: #2e8b57; stroke: #2e8b57"/>
    </g>
    <g clip-path="url(#pe7c4cb87c9)">
     <use xlink:href="#C1_0_f02696f931" x="52.209508" y="78.495494" style="fill: #2e8b57; stroke: #2e8b57"/>
    </g>
    <g clip-path="url(#pe7c4cb87c9)">
     <use xlink:href="#C1_0_f02696f931" x="53.831213" y="78.394379" style="fill: #2e8b57; stroke: #2e8b57"/>
    </g>
    <g clip-path="url(#pe7c4cb87c9)">
     <use xlink:href="#C1_0_f02696f931" x="45.961388" y="78.134888" style="fill: #2e8b57; stroke: #2e8b57"/>
    </g>
    <g clip-path="url(#pe7c4cb87c9)">
     <use xlink:href="#C1_0_f02696f931" x="47.32371" y="76.811354" style="fill: #2e8b57; stroke: #2e8b57"/>
    </g>
    <g clip-path="url(#pe7c4cb87c9)">
     <use xlink:href="#C1_0_f02696f931" x="48.940797" y="76.601881" style="fill: #2e8b57; stroke: #2e8b57"/>
    </g>
    <g clip-path="url(#pe7c4cb87c9)">
     <use xlink:href="#C1_0_f02696f931" x="51.076967" y="76.499656" style="fill: #2e8b57; stroke: #2e8b57"/>
    </g>
    <g clip-path="url(#pe7c4cb87c9)">
     <use xlink:href="#C1_0_f02696f931" x="52.673803" y="76.063401" style="fill: #2e8b57; stroke: #2e8b57"/>
    </g>
    <g clip-path="url(#pe7c4cb87c9)">
     <use xlink:href="#C1_0_f02696f931" x="45.9" y="74.188059" style="fill: #2e8b57; stroke: #2e8b57"/>
    </g>
    <g clip-path="url(#pe7c4cb87c9)">
     <use xlink:href="#C1_0_f02696f931" x="47.165179" y="72.662924" style="fill: #2e8b57; stroke: #2e8b57"/>
    </g>
    <g clip-path="url(#pe7c4cb87c9)">
     <use xlink:href="#C1_0_f02696f931" x="48.78624" y="72.540755" style="fill: #2e8b57; stroke: #2e8b57"/>
    </g>
    <g clip-path="url(#pe7c4cb87c9)">
     <use xlink:href="#C1_0_f02696f931" x="45.9" y="70.02395" style="fill: #2e8b57; stroke: #2e8b57"/>
    </g>
   </g>
   <g id="PathCollection_3">
    <defs>
     <path id="C2_0_fc97bb979a" d="M 0 0.632456 
C 0.167729 0.632456 0.328611 0.565816 0.447214 0.447214 
C 0.565816 0.328611 0.632456 0.167729 0.632456 -0 
C 0.632456 -0.167729 0.565816 -0.328611 0.447214 -0.447214 
C 0.328611 -0.565816 0.167729 -0.632456 0 -0.632456 
C -0.167729 -0.632456 -0.328611 -0.565816 -0.447214 -0.447214 
C -0.565816 -0.328611 -0.632456 -0.167729 -0.632456 0 
C -0.632456 0.167729 -0.565816 0.328611 -0.447214 0.447214 
C -0.328611 0.565816 -0.167729 0.632456 0 0.632456 
z
"/>
    </defs>
    <g clip-path="url(#pe7c4cb87c9)">
     <use xlink:href="#C2_0_fc97bb979a" x="64.5" y="98.375527" style="fill: #808080; stroke: #808080"/>
    </g>
    <g clip-path="url(#pe7c4cb87c9)">
     <use xlink:href="#C2_0_fc97bb979a" x="66.122745" y="98.324179" style="fill: #808080; stroke: #808080"/>
    </g>
    <g clip-path="url(#pe7c4cb87c9)">
     <use xlink:href="#C2_0_fc97bb979a" x="67.745832" y="98.312624" style="fill: #808080; stroke: #808080"/>
    </g>
    <g clip-path="url(#pe7c4cb87c9)">
     <use xlink:href="#C2_0_fc97bb979a" x="69.368937" y="98.311753" style="stroke: #000000"/>
    </g>
    <g clip-path="url(#pe7c4cb87c9)">
     <use xlink:href="#C2_0_fc97bb979a" x="70.991483" y="98.247817" style="fill: #808080; stroke: #808080"/>
    </g>
    <g clip-path="url(#pe7c4cb87c9)">
     <use xlink:href="#C2_0_fc97bb979a" x="72.614587" y="98.244288" style="fill: #808080; stroke: #808080"/>
    </g>
    <g clip-path="url(#pe7c4cb87c9)">
     <use xlink:href="#C2_0_fc97bb979a" x="64.5" y="95.172219" style="stroke: #000000"/>
    </g>
    <g clip-path="url(#pe7c4cb87c9)">
     <use xlink:href="#C2_0_fc97bb979a" x="66.11491" y="94.927864" style="stroke: #000000"/>
    </g>
    <g clip-path="url(#pe7c4cb87c9)">
     <use xlink:href="#C2_0_fc97bb979a" x="67.73745" y="94.863579" style="stroke: #000000"/>
    </g>
    <g clip-path="url(#pe7c4cb87c9)">
     <use xlink:href="#C2_0_fc97bb979a" x="69.288168" y="94.144604" style="stroke: #000000"/>
    </g>
    <g clip-path="url(#pe7c4cb87c9)">
     <use xlink:href="#C2_0_fc97bb979a" x="70.906361" y="93.95532" style="stroke: #000000"/>
    </g>
    <g clip-path="url(#pe7c4cb87c9)">
     <use xlink:href="#C2_0_fc97bb979a" x="72.510238" y="93.581667" style="stroke: #000000"/>
    </g>
    <g clip-path="url(#pe7c4cb87c9)">
     <use xlink:href="#C2_0_fc97bb979a" x="64.5" y="91.240341" style="stroke: #000000"/>
    </g>
    <g clip-path="url(#pe7c4cb87c9)">
     <use xlink:href="#C2_0_fc97bb979a" x="66.114219" y="90.985925" style="stroke: #000000"/>
    </g>
    <g clip-path="url(#pe7c4cb87c9)">
     <use xlink:href="#C2_0_fc97bb979a" x="67.38917" y="89.47921" style="stroke: #000000"/>
    </g>
    <g clip-path="url(#pe7c4cb87c9)">
     <use xlink:href="#C2_0_fc97bb979a" x="69.008542" y="89.314168" style="stroke: #000000"/>
    </g>
    <g clip-path="url(#pe7c4cb87c9)">
     <use xlink:href="#C2_0_fc97bb979a" x="70.628969" y="89.174358" style="stroke: #000000"/>
    </g>
    <g clip-path="url(#pe7c4cb87c9)">
     <use xlink:href="#C2_0_fc97bb979a" x="64.5" y="87.687017" style="stroke: #000000"/>
    </g>
    <g clip-path="url(#pe7c4cb87c9)">
     <use xlink:href="#C2_0_fc97bb979a" x="65.829358" y="86.2901" style="stroke: #000000"/>
    </g>
    <g clip-path="url(#pe7c4cb87c9)">
     <use xlink:href="#C2_0_fc97bb979a" x="64.5" y="84.294618" style="stroke: #000000"/>
    </g>
    <g clip-path="url(#pe7c4cb87c9)">
     <use xlink:href="#C2_0_fc97bb979a" x="64.5" y="78.583734" style="stroke: #000000"/>
    </g>
   </g>
   <g id="PathCollection_4">
    <defs>
     <path id="C3_0_188d1a5e71" d="M 0 0.632456 
C 0.167729 0.632456 0.328611 0.565816 0.447214 0.447214 
C 0.565816 0.328611 0.632456 0.167729 0.632456 -0 
C 0.632456 -0.167729 0.565816 -0.328611 0.447214 -0.447214 
C 0.328611 -0.565816 0.167729 -0.632456 0 -0.632456 
C -0.167729 -0.632456 -0.328611 -0.565816 -0.447214 -0.447214 
C -0.565816 -0.328611 -0.632456 -0.167729 -0.632456 0 
C -0.632456 0.167729 -0.565816 0.328611 -0.447214 0.447214 
C -0.328611 0.565816 -0.167729 0.632456 0 0.632456 
z
"/>
    </defs>
    <g clip-path="url(#pe7c4cb87c9)">
     <use xlink:href="#C3_0_188d1a5e71" x="83.1" y="98.201668" style="fill: #2e8b57; stroke: #2e8b57"/>
    </g>
    <g clip-path="url(#pe7c4cb87c9)">
     <use xlink:href="#C3_0_188d1a5e71" x="84.722523" y="98.13644" style="fill: #2e8b57; stroke: #2e8b57"/>
    </g>
    <g clip-path="url(#pe7c4cb87c9)">
     <use xlink:href="#C3_0_188d1a5e71" x="86.345564" y="98.114668" style="fill: #2e8b57; stroke: #2e8b57"/>
    </g>
    <g clip-path="url(#pe7c4cb87c9)">
     <use xlink:href="#C3_0_188d1a5e71" x="87.96131" y="97.883082" style="fill: #2e8b57; stroke: #2e8b57"/>
    </g>
    <g clip-path="url(#pe7c4cb87c9)">
     <use xlink:href="#C3_0_188d1a5e71" x="89.582764" y="97.773283" style="fill: #2e8b57; stroke: #2e8b57"/>
    </g>
    <g clip-path="url(#pe7c4cb87c9)">
     <use xlink:href="#C3_0_188d1a5e71" x="91.203746" y="97.648776" style="fill: #2e8b57; stroke: #2e8b57"/>
    </g>
    <g clip-path="url(#pe7c4cb87c9)">
     <use xlink:href="#C3_0_188d1a5e71" x="83.845433" y="96.038961" style="fill: #2e8b57; stroke: #2e8b57"/>
    </g>
    <g clip-path="url(#pe7c4cb87c9)">
     <use xlink:href="#C3_0_188d1a5e71" x="85.482054" y="95.984797" style="fill: #2e8b57; stroke: #2e8b57"/>
    </g>
    <g clip-path="url(#pe7c4cb87c9)">
     <use xlink:href="#C3_0_188d1a5e71" x="87.091265" y="95.666913" style="fill: #2e8b57; stroke: #2e8b57"/>
    </g>
    <g clip-path="url(#pe7c4cb87c9)">
     <use xlink:href="#C3_0_188d1a5e71" x="88.70687" y="95.433122" style="fill: #2e8b57; stroke: #2e8b57"/>
    </g>
    <g clip-path="url(#pe7c4cb87c9)">
     <use xlink:href="#C3_0_188d1a5e71" x="90.3288" y="95.340496" style="fill: #2e8b57; stroke: #2e8b57"/>
    </g>
    <g clip-path="url(#pe7c4cb87c9)">
     <use xlink:href="#C3_0_188d1a5e71" x="83.1" y="93.698838" style="fill: #2e8b57; stroke: #2e8b57"/>
    </g>
    <g clip-path="url(#pe7c4cb87c9)">
     <use xlink:href="#C3_0_188d1a5e71" x="84.718701" y="93.5196" style="fill: #2e8b57; stroke: #2e8b57"/>
    </g>
    <g clip-path="url(#pe7c4cb87c9)">
     <use xlink:href="#C3_0_188d1a5e71" x="86.190928" y="92.494517" style="fill: #2e8b57; stroke: #2e8b57"/>
    </g>
    <g clip-path="url(#pe7c4cb87c9)">
     <use xlink:href="#C3_0_188d1a5e71" x="87.779095" y="91.992077" style="fill: #2e8b57; stroke: #2e8b57"/>
    </g>
    <g clip-path="url(#pe7c4cb87c9)">
     <use xlink:href="#C3_0_188d1a5e71" x="83.1" y="90.152315" style="fill: #2e8b57; stroke: #2e8b57"/>
    </g>
    <g clip-path="url(#pe7c4cb87c9)">
     <use xlink:href="#C3_0_188d1a5e71" x="84.270977" y="88.466375" style="fill: #2e8b57; stroke: #2e8b57"/>
    </g>
    <g clip-path="url(#pe7c4cb87c9)">
     <use xlink:href="#C3_0_188d1a5e71" x="83.1" y="85.703567" style="fill: #2e8b57; stroke: #2e8b57"/>
    </g>
    <g clip-path="url(#pe7c4cb87c9)">
     <use xlink:href="#C3_0_188d1a5e71" x="83.1" y="82.458844" style="fill: #2e8b57; stroke: #2e8b57"/>
    </g>
   </g>
   <g id="matplotlib.axis_1">
    <g id="xtick_1">
     <g id="line2d_1">
      <defs>
       <path id="m67c6da4ffb" d="M 0 0 
L 0 3.5 
" style="stroke: #000000; stroke-width: 0.8"/>
      </defs>
      <g>
       <use xlink:href="#m67c6da4ffb" x="27.3" y="130.977391" style="stroke: #000000; stroke-width: 0.8"/>
      </g>
     </g>
     <g id="text_1">
      <text style="font: 12px 'Helvetica', sans-serif; text-anchor: middle" x="27.3" y="146.585516" transform="rotate(-0 27.3 146.585516)">C</text>
     </g>
    </g>
    <g id="xtick_2">
     <g id="line2d_2">
      <g>
       <use xlink:href="#m67c6da4ffb" x="45.9" y="130.977391" style="stroke: #000000; stroke-width: 0.8"/>
      </g>
     </g>
     <g id="text_2">
      <text style="font: 12px 'Helvetica', sans-serif; text-anchor: middle" x="45.9" y="146.585516" transform="rotate(-0 45.9 146.585516)">T</text>
     </g>
    </g>
    <g id="xtick_3">
     <g id="line2d_3">
      <g>
       <use xlink:href="#m67c6da4ffb" x="64.5" y="130.977391" style="stroke: #000000; stroke-width: 0.8"/>
      </g>
     </g>
     <g id="text_3">
      <text style="font: 12px 'Helvetica', sans-serif; text-anchor: middle" x="64.5" y="146.585516" transform="rotate(-0 64.5 146.585516)">C</text>
     </g>
    </g>
    <g id="xtick_4">
     <g id="line2d_4">
      <g>
       <use xlink:href="#m67c6da4ffb" x="83.1" y="130.977391" style="stroke: #000000; stroke-width: 0.8"/>
      </g>
     </g>
     <g id="text_4">
      <text style="font: 12px 'Helvetica', sans-serif; text-anchor: middle" x="83.1" y="146.585516" transform="rotate(-0 83.1 146.585516)">T</text>
     </g>
    </g>
   </g>
   <g id="matplotlib.axis_2">
    <g id="ytick_1">
     <g id="line2d_5">
      <defs>
       <path id="m2136abfdbd" d="M 0 0 
L -3.5 0 
" style="stroke: #000000; stroke-width: 0.8"/>
      </defs>
      <g>
       <use xlink:href="#m2136abfdbd" x="18" y="124.549565" style="stroke: #000000; stroke-width: 0.8"/>
      </g>
     </g>
     <g id="text_5">
      <text style="font: 6px 'Helvetica', sans-serif; text-anchor: end" x="11" y="126.701596" transform="rotate(-0 11 126.701596)">−4</text>
     </g>
    </g>
    <g id="ytick_2">
     <g id="line2d_6">
      <g>
       <use xlink:href="#m2136abfdbd" x="18" y="111.693913" style="stroke: #000000; stroke-width: 0.8"/>
      </g>
     </g>
     <g id="text_6">
      <text style="font: 6px 'Helvetica', sans-serif; text-anchor: end" x="11" y="113.845944" transform="rotate(-0 11 113.845944)">−2</text>
     </g>
    </g>
    <g id="ytick_3">
     <g id="line2d_7">
      <g>
       <use xlink:href="#m2136abfdbd" x="18" y="98.838261" style="stroke: #000000; stroke-width: 0.8"/>
      </g>
     </g>
     <g id="text_7">
      <text style="font: 6px 'Helvetica', sans-serif; text-anchor: end" x="11" y="100.990292" transform="rotate(-0 11 100.990292)">0</text>
     </g>
    </g>
    <g id="ytick_4">
     <g id="line2d_8">
      <g>
       <use xlink:href="#m2136abfdbd" x="18" y="85.982609" style="stroke: #000000; stroke-width: 0.8"/>
      </g>
     </g>
     <g id="text_8">
      <text style="font: 6px 'Helvetica', sans-serif; text-anchor: end" x="11" y="88.13464" transform="rotate(-0 11 88.13464)">2</text>
     </g>
    </g>
    <g id="ytick_5">
     <g id="line2d_9">
      <g>
       <use xlink:href="#m2136abfdbd" x="18" y="73.126957" style="stroke: #000000; stroke-width: 0.8"/>
      </g>
     </g>
     <g id="text_9">
      <text style="font: 6px 'Helvetica', sans-serif; text-anchor: end" x="11" y="75.278988" transform="rotate(-0 11 75.278988)">4</text>
     </g>
    </g>
    <g id="ytick_6">
     <g id="line2d_10">
      <g>
       <use xlink:href="#m2136abfdbd" x="18" y="60.271304" style="stroke: #000000; stroke-width: 0.8"/>
      </g>
     </g>
     <g id="text_10">
      <text style="font: 6px 'Helvetica', sans-serif; text-anchor: end" x="11" y="62.423336" transform="rotate(-0 11 62.423336)">6</text>
     </g>
    </g>
    <g id="ytick_7">
     <g id="line2d_11">
      <g>
       <use xlink:href="#m2136abfdbd" x="18" y="47.415652" style="stroke: #000000; stroke-width: 0.8"/>
      </g>
     </g>
     <g id="text_11">
      <text style="font: 6px 'Helvetica', sans-serif; text-anchor: end" x="11" y="49.567683" transform="rotate(-0 11 49.567683)">8</text>
     </g>
    </g>
    <g id="ytick_8">
     <g id="line2d_12">
      <g>
       <use xlink:href="#m2136abfdbd" x="18" y="34.56" style="stroke: #000000; stroke-width: 0.8"/>
      </g>
     </g>
     <g id="text_12">
      <text style="font: 6px 'Helvetica', sans-serif; text-anchor: end" x="11" y="36.712031" transform="rotate(-0 11 36.712031)">10</text>
     </g>
    </g>
    <g id="text_13">
     <text style="font: 12px 'Helvetica', sans-serif; text-anchor: middle" x="-2.342187" y="82.768696" transform="rotate(-90 -2.342187 82.768696)">Speed (mm/s)</text>
    </g>
   </g>
   <g id="line2d_13">
    <path d="M 25.44 99.01485 
L 25.44 94.196115 
" style="fill: none; stroke: #000000; stroke-width: 2; stroke-linecap: square"/>
   </g>
   <g id="line2d_14">
    <path d="M 25.44 91.303593 
L 25.44 86.484859 
" style="fill: none; stroke: #000000; stroke-width: 2; stroke-linecap: square"/>
   </g>
   <g id="line2d_15">
    <path d="M 44.04 95.990122 
L 44.04 87.737615 
" style="fill: none; stroke: #000000; stroke-width: 2; stroke-linecap: square"/>
   </g>
   <g id="line2d_16">
    <path d="M 44.04 84.845094 
L 44.04 76.592587 
" style="fill: none; stroke: #000000; stroke-width: 2; stroke-linecap: square"/>
   </g>
   <g id="line2d_17">
    <path d="M 62.64 99.58582 
L 62.64 96.810761 
" style="fill: none; stroke: #000000; stroke-width: 2; stroke-linecap: square"/>
   </g>
   <g id="line2d_18">
    <path d="M 62.64 93.91824 
L 62.64 91.143182 
" style="fill: none; stroke: #000000; stroke-width: 2; stroke-linecap: square"/>
   </g>
   <g id="line2d_19">
    <path d="M 81.24 98.419052 
L 81.24 96.462829 
" style="fill: none; stroke: #000000; stroke-width: 2; stroke-linecap: square"/>
   </g>
   <g id="line2d_20">
    <path d="M 81.24 93.570308 
L 81.24 91.614085 
" style="fill: none; stroke: #000000; stroke-width: 2; stroke-linecap: square"/>
   </g>
   <g id="legend_1"/>
   <g id="LineCollection_1">
    <defs>
     <path id="m5342fa799c" d="M 27.3 -157.022609 
L 45.9 -157.022609 
" style="stroke: #000000"/>
    </defs>
    <g>
     <use xlink:href="#m5342fa799c" x="0" y="288" style="stroke: #000000"/>
    </g>
   </g>
   <g id="LineCollection_2">
    <defs>
     <path id="m198fdc785e" d="M 64.5 -157.022609 
L 83.1 -157.022609 
" style="stroke: #000000"/>
    </defs>
    <g>
     <use xlink:href="#m198fdc785e" x="0" y="288" style="stroke: #000000"/>
    </g>
   </g>
   <g id="LineCollection_3">
    <defs>
     <path id="m3362639bca" d="M 18 -157.022609 
L 18 -253.44 
" style="stroke: #000000"/>
    </defs>
    <g>
     <use xlink:href="#m3362639bca" x="0" y="288" style="stroke: #000000"/>
    </g>
   </g>
  </g>
  <g id="axes_2">
   <g id="patch_6">
    <path d="M 41.25 205.859377 
L 50.55 205.859377 
L 50.55 184.337973 
L 41.25 184.337973 
z
" clip-path="url(#pa5165d6661)" style="opacity: 0.15; stroke: #000000; stroke-linejoin: miter"/>
   </g>
   <g id="patch_7">
    <path d="M 78.45 205.859377 
L 87.75 205.859377 
L 87.75 204.699977 
L 78.45 204.699977 
z
" clip-path="url(#pa5165d6661)" style="opacity: 0.15; stroke: #000000; stroke-linejoin: miter"/>
   </g>
   <g id="patch_8">
    <path d="M 115.65 205.859377 
L 124.95 205.859377 
L 124.95 226.221381 
L 115.65 226.221381 
z
" clip-path="url(#pa5165d6661)" style="opacity: 0.15; stroke: #000000; stroke-linejoin: miter"/>
   </g>
   <g id="PolyCollection_1">
    <defs>
     <path id="m8cea9c22bf" d="M 45.921351 -83.978919 
L 45.900302 -83.978919 
L 45.900302 -84.380292 
L 45.900302 -84.781664 
L 45.900302 -85.183036 
L 45.900302 -85.584409 
L 45.900302 -85.985781 
L 45.900302 -86.387153 
L 45.900302 -86.788526 
L 45.900302 -87.189898 
L 45.900302 -87.59127 
L 45.900302 -87.992643 
L 45.900302 -88.394015 
L 45.900302 -88.795387 
L 45.900302 -89.19676 
L 45.900302 -89.598132 
L 45.900302 -89.999505 
L 45.900302 -90.400877 
L 45.900302 -90.802249 
L 45.900302 -91.203622 
L 45.900302 -91.604994 
L 45.900302 -92.006366 
L 45.900302 -92.407739 
L 45.900302 -92.809111 
L 45.900302 -93.210483 
L 45.900302 -93.611856 
L 45.900302 -94.013228 
L 45.900302 -94.4146 
L 45.900302 -94.815973 
L 45.900302 -95.217345 
L 45.900302 -95.618718 
L 45.900302 -96.02009 
L 45.900302 -96.421462 
L 45.900302 -96.822835 
L 45.900302 -97.224207 
L 45.900302 -97.625579 
L 45.900302 -98.026952 
L 45.900302 -98.428324 
L 45.900302 -98.829696 
L 45.900302 -99.231069 
L 45.900302 -99.632441 
L 45.900302 -100.033813 
L 45.900302 -100.435186 
L 45.900302 -100.836558 
L 45.900302 -101.237931 
L 45.900302 -101.639303 
L 45.900302 -102.040675 
L 45.900302 -102.442048 
L 45.900302 -102.84342 
L 45.900302 -103.244792 
L 45.900302 -103.646165 
L 45.900302 -104.047537 
L 45.900302 -104.448909 
L 45.900302 -104.850282 
L 45.900302 -105.251654 
L 45.900302 -105.653026 
L 45.900302 -106.054399 
L 45.900302 -106.455771 
L 45.900302 -106.857144 
L 45.900302 -107.258516 
L 45.900302 -107.659888 
L 45.900302 -108.061261 
L 45.900302 -108.462633 
L 45.900302 -108.864005 
L 45.900302 -109.265378 
L 45.900302 -109.66675 
L 45.900302 -110.068122 
L 45.900302 -110.469495 
L 45.900302 -110.870867 
L 45.900302 -111.27224 
L 45.900302 -111.673612 
L 45.900302 -112.074984 
L 45.900302 -112.476357 
L 45.900302 -112.877729 
L 45.900302 -113.279101 
L 45.900302 -113.680474 
L 45.900302 -114.081846 
L 45.900302 -114.483218 
L 45.900302 -114.884591 
L 45.900302 -115.285963 
L 45.900302 -115.687335 
L 45.900302 -116.088708 
L 45.900302 -116.49008 
L 45.900302 -116.891453 
L 45.900302 -117.292825 
L 45.900302 -117.694197 
L 45.900302 -118.09557 
L 45.900302 -118.496942 
L 45.900302 -118.898314 
L 45.900302 -119.299687 
L 45.900302 -119.701059 
L 45.900302 -120.102431 
L 45.900302 -120.503804 
L 45.900302 -120.905176 
L 45.900302 -121.306548 
L 45.900302 -121.707921 
L 45.900302 -122.109293 
L 45.900302 -122.510666 
L 45.900302 -122.912038 
L 45.900302 -123.31341 
L 45.900302 -123.714783 
L 45.918556 -123.714783 
L 45.918556 -123.714783 
L 45.923571 -123.31341 
L 45.928402 -122.912038 
L 45.933337 -122.510666 
L 45.939363 -122.109293 
L 45.948019 -121.707921 
L 45.960872 -121.306548 
L 45.978857 -120.905176 
L 46.001905 -120.503804 
L 46.02916 -120.102431 
L 46.059583 -119.701059 
L 46.092462 -119.299687 
L 46.127443 -118.898314 
L 46.164299 -118.496942 
L 46.202914 -118.09557 
L 46.243768 -117.694197 
L 46.288672 -117.292825 
L 46.341122 -116.891453 
L 46.405758 -116.49008 
L 46.486915 -116.088708 
L 46.586807 -115.687335 
L 46.704341 -115.285963 
L 46.835352 -114.884591 
L 46.974312 -114.483218 
L 47.116597 -114.081846 
L 47.260142 -113.680474 
L 47.405866 -113.279101 
L 47.556906 -112.877729 
L 47.71702 -112.476357 
L 47.888762 -112.074984 
L 48.072463 -111.673612 
L 48.266698 -111.27224 
L 48.469348 -110.870867 
L 48.677492 -110.469495 
L 48.88597 -110.068122 
L 49.087033 -109.66675 
L 49.273238 -109.265378 
L 49.441985 -108.864005 
L 49.597166 -108.462633 
L 49.745578 -108.061261 
L 49.891045 -107.659888 
L 50.031573 -107.258516 
L 50.161587 -106.857144 
L 50.276261 -106.455771 
L 50.373445 -106.054399 
L 50.451891 -105.653026 
L 50.508864 -105.251654 
L 50.54121 -104.850282 
L 50.55 -104.448909 
L 50.54374 -104.047537 
L 50.53477 -103.646165 
L 50.5299 -103.244792 
L 50.523204 -102.84342 
L 50.498349 -102.442048 
L 50.439385 -102.040675 
L 50.341158 -101.639303 
L 50.21132 -101.237931 
L 50.063897 -100.836558 
L 49.910959 -100.435186 
L 49.758494 -100.033813 
L 49.607288 -99.632441 
L 49.455528 -99.231069 
L 49.300134 -98.829696 
L 49.136756 -98.428324 
L 48.960521 -98.026952 
L 48.768926 -97.625579 
L 48.565591 -97.224207 
L 48.361537 -96.822835 
L 48.171606 -96.421462 
L 48.00728 -96.02009 
L 47.87041 -95.618718 
L 47.752238 -95.217345 
L 47.638314 -94.815973 
L 47.515778 -94.4146 
L 47.378508 -94.013228 
L 47.228126 -93.611856 
L 47.071811 -93.210483 
L 46.91891 -92.809111 
L 46.777735 -92.407739 
L 46.653291 -92.006366 
L 46.546636 -91.604994 
L 46.456045 -91.203622 
L 46.379075 -90.802249 
L 46.313951 -90.400877 
L 46.259498 -89.999505 
L 46.214233 -89.598132 
L 46.175839 -89.19676 
L 46.141581 -88.795387 
L 46.109229 -88.394015 
L 46.077737 -87.992643 
L 46.0473 -87.59127 
L 46.018929 -87.189898 
L 45.993872 -86.788526 
L 45.973138 -86.387153 
L 45.95718 -85.985781 
L 45.945724 -85.584409 
L 45.937769 -85.183036 
L 45.931874 -84.781664 
L 45.926666 -84.380292 
L 45.921351 -83.978919 
z
"/>
    </defs>
    <g clip-path="url(#pa5165d6661)">
     <use xlink:href="#m8cea9c22bf" x="0" y="288" style="fill: #808080; fill-opacity: 0.8"/>
    </g>
   </g>
   <g id="PolyCollection_2">
    <defs>
     <path id="m4337ca1ac5" d="M 83.115425 -73.272288 
L 83.100189 -73.272288 
L 83.100189 -73.474828 
L 83.100189 -73.677368 
L 83.100189 -73.879908 
L 83.100189 -74.082448 
L 83.100189 -74.284988 
L 83.100189 -74.487528 
L 83.100189 -74.690069 
L 83.100189 -74.892609 
L 83.100189 -75.095149 
L 83.100189 -75.297689 
L 83.100189 -75.500229 
L 83.100189 -75.702769 
L 83.100189 -75.90531 
L 83.100189 -76.10785 
L 83.100189 -76.31039 
L 83.100189 -76.51293 
L 83.100189 -76.71547 
L 83.100189 -76.91801 
L 83.100189 -77.12055 
L 83.100189 -77.323091 
L 83.100189 -77.525631 
L 83.100189 -77.728171 
L 83.100189 -77.930711 
L 83.100189 -78.133251 
L 83.100189 -78.335791 
L 83.100189 -78.538332 
L 83.100189 -78.740872 
L 83.100189 -78.943412 
L 83.100189 -79.145952 
L 83.100189 -79.348492 
L 83.100189 -79.551032 
L 83.100189 -79.753572 
L 83.100189 -79.956113 
L 83.100189 -80.158653 
L 83.100189 -80.361193 
L 83.100189 -80.563733 
L 83.100189 -80.766273 
L 83.100189 -80.968813 
L 83.100189 -81.171354 
L 83.100189 -81.373894 
L 83.100189 -81.576434 
L 83.100189 -81.778974 
L 83.100189 -81.981514 
L 83.100189 -82.184054 
L 83.100189 -82.386594 
L 83.100189 -82.589135 
L 83.100189 -82.791675 
L 83.100189 -82.994215 
L 83.100189 -83.196755 
L 83.100189 -83.399295 
L 83.100189 -83.601835 
L 83.100189 -83.804376 
L 83.100189 -84.006916 
L 83.100189 -84.209456 
L 83.100189 -84.411996 
L 83.100189 -84.614536 
L 83.100189 -84.817076 
L 83.100189 -85.019616 
L 83.100189 -85.222157 
L 83.100189 -85.424697 
L 83.100189 -85.627237 
L 83.100189 -85.829777 
L 83.100189 -86.032317 
L 83.100189 -86.234857 
L 83.100189 -86.437398 
L 83.100189 -86.639938 
L 83.100189 -86.842478 
L 83.100189 -87.045018 
L 83.100189 -87.247558 
L 83.100189 -87.450098 
L 83.100189 -87.652638 
L 83.100189 -87.855179 
L 83.100189 -88.057719 
L 83.100189 -88.260259 
L 83.100189 -88.462799 
L 83.100189 -88.665339 
L 83.100189 -88.867879 
L 83.100189 -89.07042 
L 83.100189 -89.27296 
L 83.100189 -89.4755 
L 83.100189 -89.67804 
L 83.100189 -89.88058 
L 83.100189 -90.08312 
L 83.100189 -90.285661 
L 83.100189 -90.488201 
L 83.100189 -90.690741 
L 83.100189 -90.893281 
L 83.100189 -91.095821 
L 83.100189 -91.298361 
L 83.100189 -91.500901 
L 83.100189 -91.703442 
L 83.100189 -91.905982 
L 83.100189 -92.108522 
L 83.100189 -92.311062 
L 83.100189 -92.513602 
L 83.100189 -92.716142 
L 83.100189 -92.918683 
L 83.100189 -93.121223 
L 83.100189 -93.323763 
L 83.107556 -93.323763 
L 83.107556 -93.323763 
L 83.109322 -93.121223 
L 83.111214 -92.918683 
L 83.113202 -92.716142 
L 83.115065 -92.513602 
L 83.116642 -92.311062 
L 83.118137 -92.108522 
L 83.120181 -91.905982 
L 83.123669 -91.703442 
L 83.129522 -91.500901 
L 83.138432 -91.298361 
L 83.150626 -91.095821 
L 83.165892 -90.893281 
L 83.184047 -90.690741 
L 83.205678 -90.488201 
L 83.232693 -90.285661 
L 83.268208 -90.08312 
L 83.315469 -89.88058 
L 83.376106 -89.67804 
L 83.448955 -89.4755 
L 83.530827 -89.27296 
L 83.618921 -89.07042 
L 83.712608 -88.867879 
L 83.812838 -88.665339 
L 83.920069 -88.462799 
L 84.033326 -88.260259 
L 84.151798 -88.057719 
L 84.277574 -87.855179 
L 84.416536 -87.652638 
L 84.575847 -87.450098 
L 84.759574 -87.247558 
L 84.965516 -87.045018 
L 85.185074 -86.842478 
L 85.405953 -86.639938 
L 85.616888 -86.437398 
L 85.81336 -86.234857 
L 86.00131 -86.032317 
L 86.194259 -85.829777 
L 86.403013 -85.627237 
L 86.625353 -85.424697 
L 86.845843 -85.222157 
L 87.046924 -85.019616 
L 87.220305 -84.817076 
L 87.367349 -84.614536 
L 87.490409 -84.411996 
L 87.587453 -84.209456 
L 87.656268 -84.006916 
L 87.700806 -83.804376 
L 87.729663 -83.601835 
L 87.747639 -83.399295 
L 87.75 -83.196755 
L 87.725284 -82.994215 
L 87.663406 -82.791675 
L 87.561815 -82.589135 
L 87.425788 -82.386594 
L 87.264593 -82.184054 
L 87.087819 -81.981514 
L 86.903885 -81.778974 
L 86.719317 -81.576434 
L 86.537652 -81.373894 
L 86.359205 -81.171354 
L 86.182578 -80.968813 
L 86.006333 -80.766273 
L 85.828878 -80.563733 
L 85.647087 -80.361193 
L 85.456331 -80.158653 
L 85.254076 -79.956113 
L 85.045514 -79.753572 
L 84.845377 -79.551032 
L 84.67117 -79.348492 
L 84.531299 -79.145952 
L 84.418417 -78.943412 
L 84.314631 -78.740872 
L 84.203979 -78.538332 
L 84.08137 -78.335791 
L 83.952249 -78.133251 
L 83.826296 -77.930711 
L 83.711624 -77.728171 
L 83.612367 -77.525631 
L 83.52879 -77.323091 
L 83.458571 -77.12055 
L 83.398749 -76.91801 
L 83.347681 -76.71547 
L 83.305698 -76.51293 
L 83.273772 -76.31039 
L 83.251305 -76.10785 
L 83.235141 -75.90531 
L 83.220875 -75.702769 
L 83.205465 -75.500229 
L 83.188904 -75.297689 
L 83.173533 -75.095149 
L 83.161687 -74.892609 
L 83.15382 -74.690069 
L 83.148536 -74.487528 
L 83.143991 -74.284988 
L 83.139051 -74.082448 
L 83.133453 -73.879908 
L 83.127399 -73.677368 
L 83.121247 -73.474828 
L 83.115425 -73.272288 
z
"/>
    </defs>
    <g clip-path="url(#pa5165d6661)">
     <use xlink:href="#m4337ca1ac5" x="0" y="288" style="fill: #808080; fill-opacity: 0.8"/>
    </g>
   </g>
   <g id="PolyCollection_3">
    <defs>
     <path id="m304fbdfe87" d="M 120.306193 -36.062609 
L 120.300139 -36.062609 
L 120.300139 -36.53772 
L 120.300139 -37.012832 
L 120.300139 -37.487943 
L 120.300139 -37.963054 
L 120.300139 -38.438166 
L 120.300139 -38.913277 
L 120.300139 -39.388389 
L 120.300139 -39.8635 
L 120.300139 -40.338612 
L 120.300139 -40.813723 
L 120.300139 -41.288835 
L 120.300139 -41.763946 
L 120.300139 -42.239057 
L 120.300139 -42.714169 
L 120.300139 -43.18928 
L 120.300139 -43.664392 
L 120.300139 -44.139503 
L 120.300139 -44.614615 
L 120.300139 -45.089726 
L 120.300139 -45.564838 
L 120.300139 -46.039949 
L 120.300139 -46.51506 
L 120.300139 -46.990172 
L 120.300139 -47.465283 
L 120.300139 -47.940395 
L 120.300139 -48.415506 
L 120.300139 -48.890618 
L 120.300139 -49.365729 
L 120.300139 -49.840841 
L 120.300139 -50.315952 
L 120.300139 -50.791063 
L 120.300139 -51.266175 
L 120.300139 -51.741286 
L 120.300139 -52.216398 
L 120.300139 -52.691509 
L 120.300139 -53.166621 
L 120.300139 -53.641732 
L 120.300139 -54.116844 
L 120.300139 -54.591955 
L 120.300139 -55.067066 
L 120.300139 -55.542178 
L 120.300139 -56.017289 
L 120.300139 -56.492401 
L 120.300139 -56.967512 
L 120.300139 -57.442624 
L 120.300139 -57.917735 
L 120.300139 -58.392847 
L 120.300139 -58.867958 
L 120.300139 -59.34307 
L 120.300139 -59.818181 
L 120.300139 -60.293292 
L 120.300139 -60.768404 
L 120.300139 -61.243515 
L 120.300139 -61.718627 
L 120.300139 -62.193738 
L 120.300139 -62.66885 
L 120.300139 -63.143961 
L 120.300139 -63.619073 
L 120.300139 -64.094184 
L 120.300139 -64.569295 
L 120.300139 -65.044407 
L 120.300139 -65.519518 
L 120.300139 -65.99463 
L 120.300139 -66.469741 
L 120.300139 -66.944853 
L 120.300139 -67.419964 
L 120.300139 -67.895076 
L 120.300139 -68.370187 
L 120.300139 -68.845298 
L 120.300139 -69.32041 
L 120.300139 -69.795521 
L 120.300139 -70.270633 
L 120.300139 -70.745744 
L 120.300139 -71.220856 
L 120.300139 -71.695967 
L 120.300139 -72.171079 
L 120.300139 -72.64619 
L 120.300139 -73.121301 
L 120.300139 -73.596413 
L 120.300139 -74.071524 
L 120.300139 -74.546636 
L 120.300139 -75.021747 
L 120.300139 -75.496859 
L 120.300139 -75.97197 
L 120.300139 -76.447082 
L 120.300139 -76.922193 
L 120.300139 -77.397304 
L 120.300139 -77.872416 
L 120.300139 -78.347527 
L 120.300139 -78.822639 
L 120.300139 -79.29775 
L 120.300139 -79.772862 
L 120.300139 -80.247973 
L 120.300139 -80.723085 
L 120.300139 -81.198196 
L 120.300139 -81.673307 
L 120.300139 -82.148419 
L 120.300139 -82.62353 
L 120.300139 -83.098642 
L 120.315756 -83.098642 
L 120.315756 -83.098642 
L 120.320739 -82.62353 
L 120.327974 -82.148419 
L 120.338693 -81.673307 
L 120.353171 -81.198196 
L 120.370406 -80.723085 
L 120.388898 -80.247973 
L 120.408 -79.772862 
L 120.428608 -79.29775 
L 120.452408 -78.822639 
L 120.480386 -78.347527 
L 120.512255 -77.872416 
L 120.547574 -77.397304 
L 120.587426 -76.922193 
L 120.634843 -76.447082 
L 120.69348 -75.97197 
L 120.765894 -75.496859 
L 120.853122 -75.021747 
L 120.95547 -74.546636 
L 121.072798 -74.071524 
L 121.203357 -73.596413 
L 121.342592 -73.121301 
L 121.483972 -72.64619 
L 121.622076 -72.171079 
L 121.756055 -71.695967 
L 121.890943 -71.220856 
L 122.035316 -70.745744 
L 122.196408 -70.270633 
L 122.376055 -69.795521 
L 122.570253 -69.32041 
L 122.772253 -68.845298 
L 122.97713 -68.370187 
L 123.185186 -67.895076 
L 123.401212 -67.419964 
L 123.628276 -66.944853 
L 123.859816 -66.469741 
L 124.077811 -65.99463 
L 124.261048 -65.519518 
L 124.397944 -65.044407 
L 124.493055 -64.569295 
L 124.562088 -64.094184 
L 124.621158 -63.619073 
L 124.680227 -63.143961 
L 124.74381 -62.66885 
L 124.812866 -62.193738 
L 124.882014 -61.718627 
L 124.935431 -61.243515 
L 124.95 -60.768404 
L 124.907331 -60.293292 
L 124.805775 -59.818181 
L 124.662987 -59.34307 
L 124.508149 -58.867958 
L 124.369512 -58.392847 
L 124.263079 -57.917735 
L 124.18652 -57.442624 
L 124.120885 -56.967512 
L 124.039109 -56.492401 
L 123.916265 -56.017289 
L 123.737014 -55.542178 
L 123.499811 -55.067066 
L 123.218611 -54.591955 
L 122.919914 -54.116844 
L 122.632893 -53.641732 
L 122.376514 -53.166621 
L 122.153187 -52.691509 
L 121.954352 -52.216398 
L 121.772307 -51.741286 
L 121.607016 -51.266175 
L 121.462962 -50.791063 
L 121.341322 -50.315952 
L 121.235927 -49.840841 
L 121.136285 -49.365729 
L 121.034371 -48.890618 
L 120.929492 -48.415506 
L 120.827836 -47.940395 
L 120.737655 -47.465283 
L 120.664112 -46.990172 
L 120.60725 -46.51506 
L 120.563415 -46.039949 
L 120.527895 -45.564838 
L 120.496714 -45.089726 
L 120.467263 -44.614615 
L 120.43847 -44.139503 
L 120.410761 -43.664392 
L 120.385588 -43.18928 
L 120.364577 -42.714169 
L 120.348746 -42.239057 
L 120.338106 -41.763946 
L 120.331672 -41.288835 
L 120.327861 -40.813723 
L 120.32516 -40.338612 
L 120.322662 -39.8635 
L 120.320081 -39.388389 
L 120.317392 -38.913277 
L 120.314614 -38.438166 
L 120.311894 -37.963054 
L 120.309582 -37.487943 
L 120.307971 -37.012832 
L 120.306983 -36.53772 
L 120.306193 -36.062609 
z
"/>
    </defs>
    <g clip-path="url(#pa5165d6661)">
     <use xlink:href="#m304fbdfe87" x="0" y="288" style="fill: #808080; fill-opacity: 0.8"/>
    </g>
   </g>
   <g id="matplotlib.axis_3">
    <g id="xtick_5">
     <g id="line2d_21">
      <g>
       <use xlink:href="#m67c6da4ffb" x="27.3" y="256.32" style="stroke: #000000; stroke-width: 0.8"/>
      </g>
     </g>
    </g>
    <g id="xtick_6">
     <g id="line2d_22">
      <g>
       <use xlink:href="#m67c6da4ffb" x="45.9" y="256.32" style="stroke: #000000; stroke-width: 0.8"/>
      </g>
     </g>
     <g id="text_14">
      <text style="font: 12px 'Helvetica', sans-serif; text-anchor: middle" x="45.9" y="271.928125" transform="rotate(-0 45.9 271.928125)">Off</text>
     </g>
    </g>
    <g id="xtick_7">
     <g id="line2d_23">
      <g>
       <use xlink:href="#m67c6da4ffb" x="64.5" y="256.32" style="stroke: #000000; stroke-width: 0.8"/>
      </g>
     </g>
    </g>
    <g id="xtick_8">
     <g id="line2d_24">
      <g>
       <use xlink:href="#m67c6da4ffb" x="83.1" y="256.32" style="stroke: #000000; stroke-width: 0.8"/>
      </g>
     </g>
     <g id="text_15">
      <text style="font: 12px 'Helvetica', sans-serif; text-anchor: middle" x="83.1" y="271.928125" transform="rotate(-0 83.1 271.928125)">On</text>
     </g>
    </g>
    <g id="xtick_9">
     <g id="line2d_25">
      <g>
       <use xlink:href="#m67c6da4ffb" x="101.7" y="256.32" style="stroke: #000000; stroke-width: 0.8"/>
      </g>
     </g>
    </g>
    <g id="xtick_10">
     <g id="line2d_26">
      <g>
       <use xlink:href="#m67c6da4ffb" x="120.3" y="256.32" style="stroke: #000000; stroke-width: 0.8"/>
      </g>
     </g>
     <g id="text_16">
      <!-- $\Delta\Delta$ -->
      <g transform="translate(112.08 271.928125)">
       <text>
        <tspan style="font: 12px 'DejaVu Sans'" x="0 8.208984" y="-0.25">ΔΔ</tspan>
       </text>
      </g>
     </g>
    </g>
   </g>
   <g id="matplotlib.axis_4">
    <g id="ytick_9">
     <g id="line2d_27">
      <g>
       <use xlink:href="#m2136abfdbd" x="18" y="248.697762" style="stroke: #000000; stroke-width: 0.8"/>
      </g>
     </g>
     <g id="text_17">
      <text style="font: 6px 'Helvetica', sans-serif; text-anchor: end" x="11" y="250.849793" transform="rotate(-0 11 250.849793)">−2</text>
     </g>
    </g>
    <g id="ytick_10">
     <g id="line2d_28">
      <g>
       <use xlink:href="#m2136abfdbd" x="18" y="227.27857" style="stroke: #000000; stroke-width: 0.8"/>
      </g>
     </g>
     <g id="text_18">
      <text style="font: 6px 'Helvetica', sans-serif; text-anchor: end" x="11" y="229.430601" transform="rotate(-0 11 229.430601)">−1</text>
     </g>
    </g>
    <g id="ytick_11">
     <g id="line2d_29">
      <g>
       <use xlink:href="#m2136abfdbd" x="18" y="205.859377" style="stroke: #000000; stroke-width: 0.8"/>
      </g>
     </g>
     <g id="text_19">
      <text style="font: 6px 'Helvetica', sans-serif; text-anchor: end" x="11" y="208.011409" transform="rotate(-0 11 208.011409)">0</text>
     </g>
    </g>
    <g id="ytick_12">
     <g id="line2d_30">
      <g>
       <use xlink:href="#m2136abfdbd" x="18" y="184.440185" style="stroke: #000000; stroke-width: 0.8"/>
      </g>
     </g>
     <g id="text_20">
      <text style="font: 6px 'Helvetica', sans-serif; text-anchor: end" x="11" y="186.592216" transform="rotate(-0 11 186.592216)">1</text>
     </g>
    </g>
    <g id="ytick_13">
     <g id="line2d_31">
      <g>
       <use xlink:href="#m2136abfdbd" x="18" y="163.020993" style="stroke: #000000; stroke-width: 0.8"/>
      </g>
     </g>
     <g id="text_21">
      <text style="font: 6px 'Helvetica', sans-serif; text-anchor: end" x="11" y="165.173024" transform="rotate(-0 11 165.173024)">2</text>
     </g>
    </g>
    <g id="text_22">
     <!-- $\Delta$ Speed (mm/s) -->
     <g transform="translate(-2.360938 251.611304) rotate(-90)">
      <text>
       <tspan style="font: 12px 'DejaVu Sans'" x="0" y="-0.15625">Δ</tspan>
       <tspan style="font: 12px 'Helvetica'" x="8.208984 11.542969 19.546875 26.220703 32.894531 39.568359 46.242188 49.576172 53.572266 63.568359 73.564453 76.898438 82.898438" y="-0.15625"> Speed (mm/s)</tspan>
      </text>
     </g>
    </g>
   </g>
   <g id="line2d_32">
    <path d="M 45.9 184.337973 
" clip-path="url(#pa5165d6661)" style="fill: none; stroke: #000000; stroke-width: 1.5; stroke-linecap: square"/>
    <defs>
     <path id="mf49b39547b" d="M 0 2.5 
C 0.663008 2.5 1.29895 2.236584 1.767767 1.767767 
C 2.236584 1.29895 2.5 0.663008 2.5 0 
C 2.5 -0.663008 2.236584 -1.29895 1.767767 -1.767767 
C 1.29895 -2.236584 0.663008 -2.5 0 -2.5 
C -0.663008 -2.5 -1.29895 -2.236584 -1.767767 -1.767767 
C -2.236584 -1.29895 -2.5 -0.663008 -2.5 0 
C -2.5 0.663008 -2.236584 1.29895 -1.767767 1.767767 
C -1.29895 2.236584 -0.663008 2.5 0 2.5 
z
" style="stroke: #000000"/>
    </defs>
    <g clip-path="url(#pa5165d6661)">
     <use xlink:href="#mf49b39547b" x="45.9" y="184.337973" style="stroke: #000000"/>
    </g>
   </g>
   <g id="line2d_33">
    <path d="M 45.9 196.441398 
L 45.9 173.16066 
" clip-path="url(#pa5165d6661)" style="fill: none; stroke: #000000; stroke-width: 2; stroke-linecap: square"/>
   </g>
   <g id="line2d_34">
    <path d="M 83.1 204.699977 
" clip-path="url(#pa5165d6661)" style="fill: none; stroke: #000000; stroke-width: 1.5; stroke-linecap: square"/>
    <g clip-path="url(#pa5165d6661)">
     <use xlink:href="#mf49b39547b" x="83.1" y="204.699977" style="stroke: #000000"/>
    </g>
   </g>
   <g id="line2d_35">
    <path d="M 83.1 209.943449 
L 83.1 199.395267 
" clip-path="url(#pa5165d6661)" style="fill: none; stroke: #000000; stroke-width: 2; stroke-linecap: square"/>
   </g>
   <g id="line2d_36">
    <path d="M 120.3 226.221381 
" clip-path="url(#pa5165d6661)" style="fill: none; stroke: #000000; stroke-width: 1.5; stroke-linecap: square"/>
    <g clip-path="url(#pa5165d6661)">
     <use xlink:href="#mf49b39547b" x="120.3" y="226.221381" style="stroke: #000000"/>
    </g>
   </g>
   <g id="line2d_37">
    <path d="M 120.3 238.38276 
L 120.3 213.181757 
" clip-path="url(#pa5165d6661)" style="fill: none; stroke: #000000; stroke-width: 2; stroke-linecap: square"/>
   </g>
   <g id="line2d_38">
    <path d="M 18 205.859377 
L 129.6 205.859377 
" clip-path="url(#pa5165d6661)" style="fill: none; stroke: #000000; stroke-width: 0.75; stroke-linecap: square"/>
   </g>
   <g id="LineCollection_4">
    <defs>
     <path id="m3b0a35ac30" d="M 27.3 -31.68 
L 45.9 -31.68 
" style="stroke: #000000"/>
    </defs>
    <g>
     <use xlink:href="#m3b0a35ac30" x="0" y="288" style="stroke: #000000"/>
    </g>
   </g>
   <g id="LineCollection_5">
    <defs>
     <path id="mf6882e063e" d="M 64.5 -31.68 
L 83.1 -31.68 
" style="stroke: #000000"/>
    </defs>
    <g>
     <use xlink:href="#mf6882e063e" x="0" y="288" style="stroke: #000000"/>
    </g>
   </g>
   <g id="LineCollection_6">
    <defs>
     <path id="m698739851e" d="M 101.7 -31.68 
L 120.3 -31.68 
" style="stroke: #000000"/>
    </defs>
    <g>
     <use xlink:href="#m698739851e" x="0" y="288" style="stroke: #000000"/>
    </g>
   </g>
   <g id="LineCollection_7">
    <defs>
     <path id="m80e35b1bc4" d="M 18 -31.68 
L 18 -128.097391 
" style="stroke: #000000"/>
    </defs>
    <g>
     <use xlink:href="#m80e35b1bc4" x="0" y="288" style="stroke: #000000"/>
    </g>
   </g>
  </g>
  <g id="axes_3">
   <g id="matplotlib.axis_5">
    <g id="ytick_14">
     <g id="line2d_39">
      <defs>
       <path id="mab73f7914b" d="M 0 0 
L 3.5 0 
" style="stroke: #000000; stroke-width: 0.8"/>
      </defs>
      <g>
       <use xlink:href="#mab73f7914b" x="129.6" y="248.697762" style="stroke: #000000; stroke-width: 0.8"/>
      </g>
     </g>
     <g id="text_23">
      <text style="font: 6px 'Helvetica', sans-serif; text-anchor: start" x="136.6" y="250.849793" transform="rotate(-0 136.6 250.849793)">−2</text>
     </g>
    </g>
    <g id="ytick_15">
     <g id="line2d_40">
      <g>
       <use xlink:href="#mab73f7914b" x="129.6" y="227.27857" style="stroke: #000000; stroke-width: 0.8"/>
      </g>
     </g>
     <g id="text_24">
      <text style="font: 6px 'Helvetica', sans-serif; text-anchor: start" x="136.6" y="229.430601" transform="rotate(-0 136.6 229.430601)">−1</text>
     </g>
    </g>
    <g id="ytick_16">
     <g id="line2d_41">
      <g>
       <use xlink:href="#mab73f7914b" x="129.6" y="205.859377" style="stroke: #000000; stroke-width: 0.8"/>
      </g>
     </g>
     <g id="text_25">
      <text style="font: 6px 'Helvetica', sans-serif; text-anchor: start" x="136.6" y="208.011409" transform="rotate(-0 136.6 208.011409)">0</text>
     </g>
    </g>
    <g id="ytick_17">
     <g id="line2d_42">
      <g>
       <use xlink:href="#mab73f7914b" x="129.6" y="184.440185" style="stroke: #000000; stroke-width: 0.8"/>
      </g>
     </g>
     <g id="text_26">
      <text style="font: 6px 'Helvetica', sans-serif; text-anchor: start" x="136.6" y="186.592216" transform="rotate(-0 136.6 186.592216)">1</text>
     </g>
    </g>
    <g id="ytick_18">
     <g id="line2d_43">
      <g>
       <use xlink:href="#mab73f7914b" x="129.6" y="163.020993" style="stroke: #000000; stroke-width: 0.8"/>
      </g>
     </g>
     <g id="text_27">
      <text style="font: 6px 'Helvetica', sans-serif; text-anchor: start" x="136.6" y="165.173024" transform="rotate(-0 136.6 165.173024)">2</text>
     </g>
    </g>
    <g id="text_28">
     <!-- $\Delta\Delta$ -->
     <g transform="translate(156.049062 216.331304) rotate(-90)">
      <text>
       <tspan style="font: 12px 'DejaVu Sans'" x="0 8.208984" y="-0.25">ΔΔ</tspan>
      </text>
     </g>
    </g>
   </g>
   <g id="LineCollection_8">
    <defs>
     <path id="m0edb311a62" d="M 129.6 -31.68 
L 129.6 -128.097391 
" style="stroke: #000000"/>
    </defs>
    <g>
     <use xlink:href="#m0edb311a62" x="0" y="288" style="stroke: #000000"/>
    </g>
   </g>
  </g>
  <g id="text_29">
   <text style="fill: #ffa500; font: italic 500 12px 'inter'; text-anchor: middle" x="72" y="17.758125" transform="rotate(-0 72 17.758125)">Trhn-AND-tsh&gt;ACR1</text>
  </g>
 </g>
 <defs>
  <clipPath id="pe7c4cb87c9">
   <rect x="18" y="34.56" width="111.6" height="96.417391"/>
  </clipPath>
  <clipPath id="pa5165d6661">
   <rect x="18" y="159.902609" width="111.6" height="96.417391"/>
  </clipPath>
 </defs>
</svg>
