<?xml version="1.0" encoding="utf-8" standalone="no"?>
<!DOCTYPE svg PUBLIC "-//W3C//DTD SVG 1.1//EN"
  "http://www.w3.org/Graphics/SVG/1.1/DTD/svg11.dtd">
<svg xmlns:xlink="http://www.w3.org/1999/xlink" width="144pt" height="288pt" viewBox="0 0 144 288" xmlns="http://www.w3.org/2000/svg" version="1.1">
 <metadata>
  <rdf:RDF xmlns:dc="http://purl.org/dc/elements/1.1/" xmlns:cc="http://creativecommons.org/ns#" xmlns:rdf="http://www.w3.org/1999/02/22-rdf-syntax-ns#">
   <cc:Work>
    <dc:type rdf:resource="http://purl.org/dc/dcmitype/StillImage"/>
    <dc:date>2025-02-16T02:07:25.368505</dc:date>
    <dc:format>image/svg+xml</dc:format>
    <dc:creator>
     <cc:Agent>
      <dc:title>Matplotlib v3.6.3, https://matplotlib.org/</dc:title>
     </cc:Agent>
    </dc:creator>
   </cc:Work>
  </rdf:RDF>
 </metadata>
 <defs>
  <style type="text/css">*{stroke-linejoin: round; stroke-linecap: butt}</style>
 </defs>
 <g id="figure_1">
  <g id="patch_1">
   <path d="M 0 288 
L 144 288 
L 144 0 
L 0 0 
z
" style="fill: #ffffff"/>
  </g>
  <g id="axes_1">
   <g id="patch_2">
    <path d="M 22.65 128.735126 
L 31.95 128.735126 
L 31.95 123.378123 
L 22.65 123.378123 
z
" clip-path="url(#pfda7695412)" style="opacity: 0.15; stroke: #000000; stroke-linejoin: miter"/>
   </g>
   <g id="patch_3">
    <path d="M 41.25 128.735126 
L 50.55 128.735126 
L 50.55 126.276247 
L 41.25 126.276247 
z
" clip-path="url(#pfda7695412)" style="opacity: 0.15; stroke: #000000; stroke-linejoin: miter"/>
   </g>
   <g id="patch_4">
    <path d="M 59.85 128.735126 
L 69.15 128.735126 
L 69.15 125.40555 
L 59.85 125.40555 
z
" clip-path="url(#pfda7695412)" style="opacity: 0.15; stroke: #000000; stroke-linejoin: miter"/>
   </g>
   <g id="patch_5">
    <path d="M 78.45 128.735126 
L 87.75 128.735126 
L 87.75 118.119993 
L 78.45 118.119993 
z
" clip-path="url(#pfda7695412)" style="opacity: 0.15; stroke: #000000; stroke-linejoin: miter"/>
   </g>
   <g id="PathCollection_1">
    <defs>
     <path id="C0_0_6d0c43ac89" d="M 0 0.632456 
C 0.167729 0.632456 0.328611 0.565816 0.447214 0.447214 
C 0.565816 0.328611 0.632456 0.167729 0.632456 -0 
C 0.632456 -0.167729 0.565816 -0.328611 0.447214 -0.447214 
C 0.328611 -0.565816 0.167729 -0.632456 0 -0.632456 
C -0.167729 -0.632456 -0.328611 -0.565816 -0.447214 -0.447214 
C -0.565816 -0.328611 -0.632456 -0.167729 -0.632456 0 
C -0.632456 0.167729 -0.565816 0.328611 -0.447214 0.447214 
C -0.328611 0.565816 -0.167729 0.632456 0 0.632456 
z
"/>
    </defs>
    <g clip-path="url(#pfda7695412)">
     <use xlink:href="#C0_0_6d0c43ac89" x="27.3" y="128.735126" style="stroke: #000000"/>
    </g>
    <g clip-path="url(#pfda7695412)">
     <use xlink:href="#C0_0_6d0c43ac89" x="28.923106" y="128.735126" style="fill: #808080; stroke: #808080"/>
    </g>
    <g clip-path="url(#pfda7695412)">
     <use xlink:href="#C0_0_6d0c43ac89" x="30.546211" y="128.735126" style="stroke: #000000"/>
    </g>
    <g clip-path="url(#pfda7695412)">
     <use xlink:href="#C0_0_6d0c43ac89" x="32.169317" y="128.735126" style="stroke: #000000"/>
    </g>
    <g clip-path="url(#pfda7695412)">
     <use xlink:href="#C0_0_6d0c43ac89" x="33.792422" y="128.735126" style="stroke: #000000"/>
    </g>
    <g clip-path="url(#pfda7695412)">
     <use xlink:href="#C0_0_6d0c43ac89" x="35.415528" y="128.735126" style="stroke: #000000"/>
    </g>
    <g clip-path="url(#pfda7695412)">
     <use xlink:href="#C0_0_6d0c43ac89" x="28.084912" y="126.604078" style="stroke: #000000"/>
    </g>
    <g clip-path="url(#pfda7695412)">
     <use xlink:href="#C0_0_6d0c43ac89" x="29.707943" y="126.580878" style="stroke: #000000"/>
    </g>
    <g clip-path="url(#pfda7695412)">
     <use xlink:href="#C0_0_6d0c43ac89" x="31.330209" y="126.502578" style="stroke: #000000"/>
    </g>
    <g clip-path="url(#pfda7695412)">
     <use xlink:href="#C0_0_6d0c43ac89" x="32.952768" y="126.439389" style="fill: #808080; stroke: #808080"/>
    </g>
    <g clip-path="url(#pfda7695412)">
     <use xlink:href="#C0_0_6d0c43ac89" x="34.574734" y="126.348161" style="fill: #808080; stroke: #808080"/>
    </g>
    <g clip-path="url(#pfda7695412)">
     <use xlink:href="#C0_0_6d0c43ac89" x="27.3" y="124.450818" style="fill: #808080; stroke: #808080"/>
    </g>
    <g clip-path="url(#pfda7695412)">
     <use xlink:href="#C0_0_6d0c43ac89" x="28.896263" y="124.009865" style="stroke: #000000"/>
    </g>
    <g clip-path="url(#pfda7695412)">
     <use xlink:href="#C0_0_6d0c43ac89" x="30.408222" y="123.124419" style="stroke: #000000"/>
    </g>
    <g clip-path="url(#pfda7695412)">
     <use xlink:href="#C0_0_6d0c43ac89" x="32.020524" y="122.843979" style="fill: #808080; stroke: #808080"/>
    </g>
    <g clip-path="url(#pfda7695412)">
     <use xlink:href="#C0_0_6d0c43ac89" x="33.607673" y="122.334357" style="fill: #808080; stroke: #808080"/>
    </g>
    <g clip-path="url(#pfda7695412)">
     <use xlink:href="#C0_0_6d0c43ac89" x="27.3" y="121.863563" style="fill: #808080; stroke: #808080"/>
    </g>
    <g clip-path="url(#pfda7695412)">
     <use xlink:href="#C0_0_6d0c43ac89" x="28.76057" y="120.801624" style="fill: #808080; stroke: #808080"/>
    </g>
    <g clip-path="url(#pfda7695412)">
     <use xlink:href="#C0_0_6d0c43ac89" x="30.337606" y="120.225675" style="fill: #808080; stroke: #808080"/>
    </g>
    <g clip-path="url(#pfda7695412)">
     <use xlink:href="#C0_0_6d0c43ac89" x="31.950253" y="119.949729" style="fill: #808080; stroke: #808080"/>
    </g>
    <g clip-path="url(#pfda7695412)">
     <use xlink:href="#C0_0_6d0c43ac89" x="27.3" y="119.307156" style="fill: #808080; stroke: #808080"/>
    </g>
    <g clip-path="url(#pfda7695412)">
     <use xlink:href="#C0_0_6d0c43ac89" x="27.3" y="113.80792" style="stroke: #000000"/>
    </g>
    <g clip-path="url(#pfda7695412)">
     <use xlink:href="#C0_0_6d0c43ac89" x="28.391099" y="112.005438" style="fill: #808080; stroke: #808080"/>
    </g>
    <g clip-path="url(#pfda7695412)">
     <use xlink:href="#C0_0_6d0c43ac89" x="27.3" y="102.117087" style="fill: #808080; stroke: #808080"/>
    </g>
    <g clip-path="url(#pfda7695412)">
     <use xlink:href="#C0_0_6d0c43ac89" x="28.859018" y="101.439699" style="fill: #808080; stroke: #808080"/>
    </g>
    <g clip-path="url(#pfda7695412)">
     <use xlink:href="#C0_0_6d0c43ac89" x="27.3" y="67.609639" style="fill: #808080; stroke: #808080"/>
    </g>
   </g>
   <g id="PathCollection_2">
    <defs>
     <path id="C1_0_93b3cb4d18" d="M 0 0.632456 
C 0.167729 0.632456 0.328611 0.565816 0.447214 0.447214 
C 0.565816 0.328611 0.632456 0.167729 0.632456 -0 
C 0.632456 -0.167729 0.565816 -0.328611 0.447214 -0.447214 
C 0.328611 -0.565816 0.167729 -0.632456 0 -0.632456 
C -0.167729 -0.632456 -0.328611 -0.565816 -0.447214 -0.447214 
C -0.565816 -0.328611 -0.632456 -0.167729 -0.632456 0 
C -0.632456 0.167729 -0.565816 0.328611 -0.447214 0.447214 
C -0.328611 0.565816 -0.167729 0.632456 0 0.632456 
z
"/>
    </defs>
    <g clip-path="url(#pfda7695412)">
     <use xlink:href="#C1_0_93b3cb4d18" x="45.9" y="128.735126" style="fill: #2e8b57; stroke: #2e8b57"/>
    </g>
    <g clip-path="url(#pfda7695412)">
     <use xlink:href="#C1_0_93b3cb4d18" x="47.523106" y="128.735126" style="fill: #2e8b57; stroke: #2e8b57"/>
    </g>
    <g clip-path="url(#pfda7695412)">
     <use xlink:href="#C1_0_93b3cb4d18" x="49.146211" y="128.735126" style="fill: #2e8b57; stroke: #2e8b57"/>
    </g>
    <g clip-path="url(#pfda7695412)">
     <use xlink:href="#C1_0_93b3cb4d18" x="50.769317" y="128.735126" style="fill: #2e8b57; stroke: #2e8b57"/>
    </g>
    <g clip-path="url(#pfda7695412)">
     <use xlink:href="#C1_0_93b3cb4d18" x="52.392422" y="128.735126" style="fill: #2e8b57; stroke: #2e8b57"/>
    </g>
    <g clip-path="url(#pfda7695412)">
     <use xlink:href="#C1_0_93b3cb4d18" x="54.015528" y="128.735126" style="fill: #2e8b57; stroke: #2e8b57"/>
    </g>
    <g clip-path="url(#pfda7695412)">
     <use xlink:href="#C1_0_93b3cb4d18" x="46.498728" y="126.472165" style="fill: #2e8b57; stroke: #2e8b57"/>
    </g>
    <g clip-path="url(#pfda7695412)">
     <use xlink:href="#C1_0_93b3cb4d18" x="48.114232" y="126.236818" style="fill: #2e8b57; stroke: #2e8b57"/>
    </g>
    <g clip-path="url(#pfda7695412)">
     <use xlink:href="#C1_0_93b3cb4d18" x="49.736098" y="126.141653" style="fill: #2e8b57; stroke: #2e8b57"/>
    </g>
    <g clip-path="url(#pfda7695412)">
     <use xlink:href="#C1_0_93b3cb4d18" x="51.35484" y="125.963253" style="fill: #2e8b57; stroke: #2e8b57"/>
    </g>
    <g clip-path="url(#pfda7695412)">
     <use xlink:href="#C1_0_93b3cb4d18" x="52.974059" y="125.794859" style="fill: #2e8b57; stroke: #2e8b57"/>
    </g>
    <g clip-path="url(#pfda7695412)">
     <use xlink:href="#C1_0_93b3cb4d18" x="45.9" y="124.13454" style="fill: #2e8b57; stroke: #2e8b57"/>
    </g>
    <g clip-path="url(#pfda7695412)">
     <use xlink:href="#C1_0_93b3cb4d18" x="47.503655" y="123.75875" style="fill: #2e8b57; stroke: #2e8b57"/>
    </g>
    <g clip-path="url(#pfda7695412)">
     <use xlink:href="#C1_0_93b3cb4d18" x="48.592449" y="121.953135" style="fill: #2e8b57; stroke: #2e8b57"/>
    </g>
    <g clip-path="url(#pfda7695412)">
     <use xlink:href="#C1_0_93b3cb4d18" x="46.469102" y="121.854443" style="fill: #2e8b57; stroke: #2e8b57"/>
    </g>
    <g clip-path="url(#pfda7695412)">
     <use xlink:href="#C1_0_93b3cb4d18" x="45.9" y="117.242173" style="fill: #2e8b57; stroke: #2e8b57"/>
    </g>
   </g>
   <g id="PathCollection_3">
    <defs>
     <path id="C2_0_68c67f743a" d="M 0 0.632456 
C 0.167729 0.632456 0.328611 0.565816 0.447214 0.447214 
C 0.565816 0.328611 0.632456 0.167729 0.632456 -0 
C 0.632456 -0.167729 0.565816 -0.328611 0.447214 -0.447214 
C 0.328611 -0.565816 0.167729 -0.632456 0 -0.632456 
C -0.167729 -0.632456 -0.328611 -0.565816 -0.447214 -0.447214 
C -0.565816 -0.328611 -0.632456 -0.167729 -0.632456 0 
C -0.632456 0.167729 -0.565816 0.328611 -0.447214 0.447214 
C -0.328611 0.565816 -0.167729 0.632456 0 0.632456 
z
"/>
    </defs>
    <g clip-path="url(#pfda7695412)">
     <use xlink:href="#C2_0_68c67f743a" x="64.5" y="128.735126" style="fill: #808080; stroke: #808080"/>
    </g>
    <g clip-path="url(#pfda7695412)">
     <use xlink:href="#C2_0_68c67f743a" x="66.123106" y="128.735126" style="fill: #808080; stroke: #808080"/>
    </g>
    <g clip-path="url(#pfda7695412)">
     <use xlink:href="#C2_0_68c67f743a" x="67.746211" y="128.735126" style="fill: #808080; stroke: #808080"/>
    </g>
    <g clip-path="url(#pfda7695412)">
     <use xlink:href="#C2_0_68c67f743a" x="69.369317" y="128.735126" style="stroke: #000000"/>
    </g>
    <g clip-path="url(#pfda7695412)">
     <use xlink:href="#C2_0_68c67f743a" x="70.992422" y="128.735126" style="fill: #808080; stroke: #808080"/>
    </g>
    <g clip-path="url(#pfda7695412)">
     <use xlink:href="#C2_0_68c67f743a" x="72.615528" y="128.735126" style="stroke: #000000"/>
    </g>
    <g clip-path="url(#pfda7695412)">
     <use xlink:href="#C2_0_68c67f743a" x="65.122897" y="126.486891" style="stroke: #000000"/>
    </g>
    <g clip-path="url(#pfda7695412)">
     <use xlink:href="#C2_0_68c67f743a" x="66.610018" y="125.511381" style="stroke: #000000"/>
    </g>
    <g clip-path="url(#pfda7695412)">
     <use xlink:href="#C2_0_68c67f743a" x="68.172825" y="124.853931" style="stroke: #000000"/>
    </g>
    <g clip-path="url(#pfda7695412)">
     <use xlink:href="#C2_0_68c67f743a" x="69.79589" y="124.836738" style="stroke: #000000"/>
    </g>
    <g clip-path="url(#pfda7695412)">
     <use xlink:href="#C2_0_68c67f743a" x="64.5" y="124.167857" style="fill: #808080; stroke: #808080"/>
    </g>
    <g clip-path="url(#pfda7695412)">
     <use xlink:href="#C2_0_68c67f743a" x="71.295863" y="123.906554" style="stroke: #000000"/>
    </g>
    <g clip-path="url(#pfda7695412)">
     <use xlink:href="#C2_0_68c67f743a" x="65.786686" y="122.683758" style="stroke: #000000"/>
    </g>
    <g clip-path="url(#pfda7695412)">
     <use xlink:href="#C2_0_68c67f743a" x="67.409725" y="122.661728" style="fill: #808080; stroke: #808080"/>
    </g>
    <g clip-path="url(#pfda7695412)">
     <use xlink:href="#C2_0_68c67f743a" x="69.032802" y="122.647178" style="fill: #808080; stroke: #808080"/>
    </g>
    <g clip-path="url(#pfda7695412)">
     <use xlink:href="#C2_0_68c67f743a" x="72.076662" y="121.772109" style="fill: #808080; stroke: #808080"/>
    </g>
    <g clip-path="url(#pfda7695412)">
     <use xlink:href="#C2_0_68c67f743a" x="64.5" y="121.195479" style="fill: #808080; stroke: #808080"/>
    </g>
    <g clip-path="url(#pfda7695412)">
     <use xlink:href="#C2_0_68c67f743a" x="70.331627" y="121.187065" style="stroke: #000000"/>
    </g>
    <g clip-path="url(#pfda7695412)">
     <use xlink:href="#C2_0_68c67f743a" x="66.321251" y="120.384932" style="fill: #808080; stroke: #808080"/>
    </g>
    <g clip-path="url(#pfda7695412)">
     <use xlink:href="#C2_0_68c67f743a" x="67.943598" y="120.310466" style="stroke: #000000"/>
    </g>
    <g clip-path="url(#pfda7695412)">
     <use xlink:href="#C2_0_68c67f743a" x="64.5" y="118.754058" style="fill: #808080; stroke: #808080"/>
    </g>
    <g clip-path="url(#pfda7695412)">
     <use xlink:href="#C2_0_68c67f743a" x="69.014399" y="118.4808" style="fill: #808080; stroke: #808080"/>
    </g>
    <g clip-path="url(#pfda7695412)">
     <use xlink:href="#C2_0_68c67f743a" x="65.493932" y="116.829276" style="stroke: #000000"/>
    </g>
   </g>
   <g id="PathCollection_4">
    <defs>
     <path id="C3_0_7e72f71fa0" d="M 0 0.632456 
C 0.167729 0.632456 0.328611 0.565816 0.447214 0.447214 
C 0.565816 0.328611 0.632456 0.167729 0.632456 -0 
C 0.632456 -0.167729 0.565816 -0.328611 0.447214 -0.447214 
C 0.328611 -0.565816 0.167729 -0.632456 0 -0.632456 
C -0.167729 -0.632456 -0.328611 -0.565816 -0.447214 -0.447214 
C -0.565816 -0.328611 -0.632456 -0.167729 -0.632456 0 
C -0.632456 0.167729 -0.565816 0.328611 -0.447214 0.447214 
C -0.328611 0.565816 -0.167729 0.632456 0 0.632456 
z
"/>
    </defs>
    <g clip-path="url(#pfda7695412)">
     <use xlink:href="#C3_0_7e72f71fa0" x="83.1" y="128.735126" style="fill: #2e8b57; stroke: #2e8b57"/>
    </g>
    <g clip-path="url(#pfda7695412)">
     <use xlink:href="#C3_0_7e72f71fa0" x="84.47758" y="127.447618" style="fill: #2e8b57; stroke: #2e8b57"/>
    </g>
    <g clip-path="url(#pfda7695412)">
     <use xlink:href="#C3_0_7e72f71fa0" x="86.085556" y="127.11597" style="fill: #2e8b57; stroke: #2e8b57"/>
    </g>
    <g clip-path="url(#pfda7695412)">
     <use xlink:href="#C3_0_7e72f71fa0" x="87.691104" y="126.758837" style="fill: #2e8b57; stroke: #2e8b57"/>
    </g>
    <g clip-path="url(#pfda7695412)">
     <use xlink:href="#C3_0_7e72f71fa0" x="89.313362" y="126.680165" style="fill: #2e8b57; stroke: #2e8b57"/>
    </g>
    <g clip-path="url(#pfda7695412)">
     <use xlink:href="#C3_0_7e72f71fa0" x="90.93207" y="126.501062" style="fill: #2e8b57; stroke: #2e8b57"/>
    </g>
    <g clip-path="url(#pfda7695412)">
     <use xlink:href="#C3_0_7e72f71fa0" x="83.1" y="125.851311" style="fill: #2e8b57; stroke: #2e8b57"/>
    </g>
    <g clip-path="url(#pfda7695412)">
     <use xlink:href="#C3_0_7e72f71fa0" x="84.998475" y="125.141742" style="fill: #2e8b57; stroke: #2e8b57"/>
    </g>
    <g clip-path="url(#pfda7695412)">
     <use xlink:href="#C3_0_7e72f71fa0" x="86.591194" y="124.672847" style="fill: #2e8b57; stroke: #2e8b57"/>
    </g>
    <g clip-path="url(#pfda7695412)">
     <use xlink:href="#C3_0_7e72f71fa0" x="88.194495" y="124.293669" style="fill: #2e8b57; stroke: #2e8b57"/>
    </g>
    <g clip-path="url(#pfda7695412)">
     <use xlink:href="#C3_0_7e72f71fa0" x="89.816267" y="124.195026" style="fill: #2e8b57; stroke: #2e8b57"/>
    </g>
    <g clip-path="url(#pfda7695412)">
     <use xlink:href="#C3_0_7e72f71fa0" x="91.418249" y="123.803508" style="fill: #2e8b57; stroke: #2e8b57"/>
    </g>
    <g clip-path="url(#pfda7695412)">
     <use xlink:href="#C3_0_7e72f71fa0" x="83.708023" y="123.593933" style="fill: #2e8b57; stroke: #2e8b57"/>
    </g>
    <g clip-path="url(#pfda7695412)">
     <use xlink:href="#C3_0_7e72f71fa0" x="85.133427" y="122.429429" style="fill: #2e8b57; stroke: #2e8b57"/>
    </g>
    <g clip-path="url(#pfda7695412)">
     <use xlink:href="#C3_0_7e72f71fa0" x="86.624816" y="121.468693" style="fill: #2e8b57; stroke: #2e8b57"/>
    </g>
    <g clip-path="url(#pfda7695412)">
     <use xlink:href="#C3_0_7e72f71fa0" x="83.1" y="120.341816" style="fill: #2e8b57; stroke: #2e8b57"/>
    </g>
    <g clip-path="url(#pfda7695412)">
     <use xlink:href="#C3_0_7e72f71fa0" x="84.308047" y="118.71579" style="fill: #2e8b57; stroke: #2e8b57"/>
    </g>
    <g clip-path="url(#pfda7695412)">
     <use xlink:href="#C3_0_7e72f71fa0" x="85.897635" y="118.223568" style="fill: #2e8b57; stroke: #2e8b57"/>
    </g>
    <g clip-path="url(#pfda7695412)">
     <use xlink:href="#C3_0_7e72f71fa0" x="87.515387" y="118.025979" style="fill: #2e8b57; stroke: #2e8b57"/>
    </g>
    <g clip-path="url(#pfda7695412)">
     <use xlink:href="#C3_0_7e72f71fa0" x="89.068877" y="117.320597" style="fill: #2e8b57; stroke: #2e8b57"/>
    </g>
    <g clip-path="url(#pfda7695412)">
     <use xlink:href="#C3_0_7e72f71fa0" x="83.1" y="114.948112" style="fill: #2e8b57; stroke: #2e8b57"/>
    </g>
    <g clip-path="url(#pfda7695412)">
     <use xlink:href="#C3_0_7e72f71fa0" x="83.1" y="110.609554" style="fill: #2e8b57; stroke: #2e8b57"/>
    </g>
    <g clip-path="url(#pfda7695412)">
     <use xlink:href="#C3_0_7e72f71fa0" x="84.56288" y="109.554792" style="fill: #2e8b57; stroke: #2e8b57"/>
    </g>
    <g clip-path="url(#pfda7695412)">
     <use xlink:href="#C3_0_7e72f71fa0" x="83.1" y="108.01985" style="fill: #2e8b57; stroke: #2e8b57"/>
    </g>
    <g clip-path="url(#pfda7695412)">
     <use xlink:href="#C3_0_7e72f71fa0" x="83.1" y="104.265439" style="fill: #2e8b57; stroke: #2e8b57"/>
    </g>
    <g clip-path="url(#pfda7695412)">
     <use xlink:href="#C3_0_7e72f71fa0" x="83.1" y="92.269621" style="fill: #2e8b57; stroke: #2e8b57"/>
    </g>
    <g clip-path="url(#pfda7695412)">
     <use xlink:href="#C3_0_7e72f71fa0" x="83.1" y="89.813444" style="fill: #2e8b57; stroke: #2e8b57"/>
    </g>
    <g clip-path="url(#pfda7695412)">
     <use xlink:href="#C3_0_7e72f71fa0" x="84.451894" y="88.466067" style="fill: #2e8b57; stroke: #2e8b57"/>
    </g>
    <g clip-path="url(#pfda7695412)">
     <use xlink:href="#C3_0_7e72f71fa0" x="83.1" y="76.095715" style="fill: #2e8b57; stroke: #2e8b57"/>
    </g>
   </g>
   <g id="matplotlib.axis_1">
    <g id="xtick_1">
     <g id="line2d_1">
      <defs>
       <path id="m83fe96d2c2" d="M 0 0 
L 0 3.5 
" style="stroke: #000000; stroke-width: 0.8"/>
      </defs>
      <g>
       <use xlink:href="#m83fe96d2c2" x="27.3" y="130.977391" style="stroke: #000000; stroke-width: 0.8"/>
      </g>
     </g>
     <g id="text_1">
      <text style="font: 12px 'Helvetica', sans-serif; text-anchor: middle" x="27.3" y="146.585516" transform="rotate(-0 27.3 146.585516)">C</text>
     </g>
    </g>
    <g id="xtick_2">
     <g id="line2d_2">
      <g>
       <use xlink:href="#m83fe96d2c2" x="45.9" y="130.977391" style="stroke: #000000; stroke-width: 0.8"/>
      </g>
     </g>
     <g id="text_2">
      <text style="font: 12px 'Helvetica', sans-serif; text-anchor: middle" x="45.9" y="146.585516" transform="rotate(-0 45.9 146.585516)">T</text>
     </g>
    </g>
    <g id="xtick_3">
     <g id="line2d_3">
      <g>
       <use xlink:href="#m83fe96d2c2" x="64.5" y="130.977391" style="stroke: #000000; stroke-width: 0.8"/>
      </g>
     </g>
     <g id="text_3">
      <text style="font: 12px 'Helvetica', sans-serif; text-anchor: middle" x="64.5" y="146.585516" transform="rotate(-0 64.5 146.585516)">C</text>
     </g>
    </g>
    <g id="xtick_4">
     <g id="line2d_4">
      <g>
       <use xlink:href="#m83fe96d2c2" x="83.1" y="130.977391" style="stroke: #000000; stroke-width: 0.8"/>
      </g>
     </g>
     <g id="text_4">
      <text style="font: 12px 'Helvetica', sans-serif; text-anchor: middle" x="83.1" y="146.585516" transform="rotate(-0 83.1 146.585516)">T</text>
     </g>
    </g>
   </g>
   <g id="matplotlib.axis_2">
    <g id="ytick_1">
     <g id="line2d_5">
      <defs>
       <path id="maa574497fb" d="M 0 0 
L -3.5 0 
" style="stroke: #000000; stroke-width: 0.8"/>
      </defs>
      <g>
       <use xlink:href="#maa574497fb" x="18" y="128.735126" style="stroke: #000000; stroke-width: 0.8"/>
      </g>
     </g>
     <g id="text_5">
      <text style="font: 6px 'Helvetica', sans-serif; text-anchor: end" x="11" y="130.887158" transform="rotate(-0 11 130.887158)">0</text>
     </g>
    </g>
    <g id="ytick_2">
     <g id="line2d_6">
      <g>
       <use xlink:href="#maa574497fb" x="18" y="106.312477" style="stroke: #000000; stroke-width: 0.8"/>
      </g>
     </g>
     <g id="text_6">
      <text style="font: 6px 'Helvetica', sans-serif; text-anchor: end" x="11" y="108.464508" transform="rotate(-0 11 108.464508)">50</text>
     </g>
    </g>
    <g id="ytick_3">
     <g id="line2d_7">
      <g>
       <use xlink:href="#maa574497fb" x="18" y="83.889828" style="stroke: #000000; stroke-width: 0.8"/>
      </g>
     </g>
     <g id="text_7">
      <text style="font: 6px 'Helvetica', sans-serif; text-anchor: end" x="11" y="86.041859" transform="rotate(-0 11 86.041859)">100</text>
     </g>
    </g>
    <g id="ytick_4">
     <g id="line2d_8">
      <g>
       <use xlink:href="#maa574497fb" x="18" y="61.467179" style="stroke: #000000; stroke-width: 0.8"/>
      </g>
     </g>
     <g id="text_8">
      <text style="font: 6px 'Helvetica', sans-serif; text-anchor: end" x="11" y="63.61921" transform="rotate(-0 11 63.61921)">150</text>
     </g>
    </g>
    <g id="ytick_5">
     <g id="line2d_9">
      <g>
       <use xlink:href="#maa574497fb" x="18" y="39.04453" style="stroke: #000000; stroke-width: 0.8"/>
      </g>
     </g>
     <g id="text_9">
      <text style="font: 6px 'Helvetica', sans-serif; text-anchor: end" x="11" y="41.196561" transform="rotate(-0 11 41.196561)">200</text>
     </g>
    </g>
    <g id="text_10">
     <text style="font: 12px 'Helvetica', sans-serif; text-anchor: middle" x="-5.510937" y="82.768696" transform="rotate(-90 -5.510937 82.768696)">Meal Size (nL)</text>
    </g>
   </g>
   <g id="line2d_10">
    <path d="M 25.44 133.255159 
L 25.44 124.824384 
" clip-path="url(#pfda7695412)" style="fill: none; stroke: #000000; stroke-width: 2; stroke-linecap: square"/>
   </g>
   <g id="line2d_11">
    <path d="M 25.44 121.931862 
L 25.44 113.501087 
" clip-path="url(#pfda7695412)" style="fill: none; stroke: #000000; stroke-width: 2; stroke-linecap: square"/>
   </g>
   <g id="line2d_12">
    <path d="M 44.04 128.716545 
L 44.04 127.722508 
" clip-path="url(#pfda7695412)" style="fill: none; stroke: #000000; stroke-width: 2; stroke-linecap: square"/>
   </g>
   <g id="line2d_13">
    <path d="M 44.04 124.829986 
L 44.04 123.835948 
" clip-path="url(#pfda7695412)" style="fill: none; stroke: #000000; stroke-width: 2; stroke-linecap: square"/>
   </g>
   <g id="line2d_14">
    <path d="M 62.64 128.763535 
L 62.64 126.851811 
" clip-path="url(#pfda7695412)" style="fill: none; stroke: #000000; stroke-width: 2; stroke-linecap: square"/>
   </g>
   <g id="line2d_15">
    <path d="M 62.64 123.959289 
L 62.64 122.047566 
" clip-path="url(#pfda7695412)" style="fill: none; stroke: #000000; stroke-width: 2; stroke-linecap: square"/>
   </g>
   <g id="line2d_16">
    <path d="M 81.24 130.623417 
L 81.24 119.566254 
" clip-path="url(#pfda7695412)" style="fill: none; stroke: #000000; stroke-width: 2; stroke-linecap: square"/>
   </g>
   <g id="line2d_17">
    <path d="M 81.24 116.673732 
L 81.24 105.616569 
" clip-path="url(#pfda7695412)" style="fill: none; stroke: #000000; stroke-width: 2; stroke-linecap: square"/>
   </g>
   <g id="legend_1"/>
   <g id="LineCollection_1">
    <defs>
     <path id="m9f4b57dcac" d="M 27.3 -157.022609 
L 45.9 -157.022609 
" style="stroke: #000000"/>
    </defs>
    <g>
     <use xlink:href="#m9f4b57dcac" x="0" y="288" style="stroke: #000000"/>
    </g>
   </g>
   <g id="LineCollection_2">
    <defs>
     <path id="mff343c6135" d="M 64.5 -157.022609 
L 83.1 -157.022609 
" style="stroke: #000000"/>
    </defs>
    <g>
     <use xlink:href="#mff343c6135" x="0" y="288" style="stroke: #000000"/>
    </g>
   </g>
   <g id="LineCollection_3">
    <defs>
     <path id="m8f20ee23ad" d="M 18 -157.022609 
L 18 -253.44 
" style="stroke: #000000"/>
    </defs>
    <g>
     <use xlink:href="#m8f20ee23ad" x="0" y="288" style="stroke: #000000"/>
    </g>
   </g>
  </g>
  <g id="axes_2">
   <g id="patch_6">
    <path d="M 41.25 223.754526 
L 50.55 223.754526 
L 50.55 232.397006 
L 41.25 232.397006 
z
" clip-path="url(#p1782a044e1)" style="opacity: 0.15; stroke: #000000; stroke-linejoin: miter"/>
   </g>
   <g id="patch_7">
    <path d="M 78.45 223.754526 
L 87.75 223.754526 
L 87.75 202.028302 
L 78.45 202.028302 
z
" clip-path="url(#p1782a044e1)" style="opacity: 0.15; stroke: #000000; stroke-linejoin: miter"/>
   </g>
   <g id="patch_8">
    <path d="M 115.65 223.754526 
L 124.95 223.754526 
L 124.95 193.385822 
L 115.65 193.385822 
z
" clip-path="url(#p1782a044e1)" style="opacity: 0.15; stroke: #000000; stroke-linejoin: miter"/>
   </g>
   <g id="PolyCollection_1">
    <defs>
     <path id="mf0f11172a4" d="M 45.907157 -36.062609 
L 45.900113 -36.062609 
L 45.900113 -36.387209 
L 45.900113 -36.711809 
L 45.900113 -37.036409 
L 45.900113 -37.361008 
L 45.900113 -37.685608 
L 45.900113 -38.010208 
L 45.900113 -38.334808 
L 45.900113 -38.659408 
L 45.900113 -38.984008 
L 45.900113 -39.308608 
L 45.900113 -39.633208 
L 45.900113 -39.957808 
L 45.900113 -40.282408 
L 45.900113 -40.607008 
L 45.900113 -40.931608 
L 45.900113 -41.256208 
L 45.900113 -41.580808 
L 45.900113 -41.905408 
L 45.900113 -42.230008 
L 45.900113 -42.554607 
L 45.900113 -42.879207 
L 45.900113 -43.203807 
L 45.900113 -43.528407 
L 45.900113 -43.853007 
L 45.900113 -44.177607 
L 45.900113 -44.502207 
L 45.900113 -44.826807 
L 45.900113 -45.151407 
L 45.900113 -45.476007 
L 45.900113 -45.800607 
L 45.900113 -46.125207 
L 45.900113 -46.449807 
L 45.900113 -46.774407 
L 45.900113 -47.099007 
L 45.900113 -47.423607 
L 45.900113 -47.748206 
L 45.900113 -48.072806 
L 45.900113 -48.397406 
L 45.900113 -48.722006 
L 45.900113 -49.046606 
L 45.900113 -49.371206 
L 45.900113 -49.695806 
L 45.900113 -50.020406 
L 45.900113 -50.345006 
L 45.900113 -50.669606 
L 45.900113 -50.994206 
L 45.900113 -51.318806 
L 45.900113 -51.643406 
L 45.900113 -51.968006 
L 45.900113 -52.292606 
L 45.900113 -52.617206 
L 45.900113 -52.941806 
L 45.900113 -53.266405 
L 45.900113 -53.591005 
L 45.900113 -53.915605 
L 45.900113 -54.240205 
L 45.900113 -54.564805 
L 45.900113 -54.889405 
L 45.900113 -55.214005 
L 45.900113 -55.538605 
L 45.900113 -55.863205 
L 45.900113 -56.187805 
L 45.900113 -56.512405 
L 45.900113 -56.837005 
L 45.900113 -57.161605 
L 45.900113 -57.486205 
L 45.900113 -57.810805 
L 45.900113 -58.135405 
L 45.900113 -58.460004 
L 45.900113 -58.784604 
L 45.900113 -59.109204 
L 45.900113 -59.433804 
L 45.900113 -59.758404 
L 45.900113 -60.083004 
L 45.900113 -60.407604 
L 45.900113 -60.732204 
L 45.900113 -61.056804 
L 45.900113 -61.381404 
L 45.900113 -61.706004 
L 45.900113 -62.030604 
L 45.900113 -62.355204 
L 45.900113 -62.679804 
L 45.900113 -63.004404 
L 45.900113 -63.329004 
L 45.900113 -63.653603 
L 45.900113 -63.978203 
L 45.900113 -64.302803 
L 45.900113 -64.627403 
L 45.900113 -64.952003 
L 45.900113 -65.276603 
L 45.900113 -65.601203 
L 45.900113 -65.925803 
L 45.900113 -66.250403 
L 45.900113 -66.575003 
L 45.900113 -66.899603 
L 45.900113 -67.224203 
L 45.900113 -67.548803 
L 45.900113 -67.873403 
L 45.900113 -68.198003 
L 45.908575 -68.198003 
L 45.908575 -68.198003 
L 45.911646 -67.873403 
L 45.915793 -67.548803 
L 45.921478 -67.224203 
L 45.929306 -66.899603 
L 45.940633 -66.575003 
L 45.958297 -66.250403 
L 45.986688 -65.925803 
L 46.030569 -65.601203 
L 46.092795 -65.276603 
L 46.172344 -64.952003 
L 46.264681 -64.627403 
L 46.365027 -64.302803 
L 46.472415 -63.978203 
L 46.591269 -63.653603 
L 46.729143 -63.329004 
L 46.892178 -63.004404 
L 47.081366 -62.679804 
L 47.292495 -62.355204 
L 47.520312 -62.030604 
L 47.7635 -61.706004 
L 48.02474 -61.381404 
L 48.304048 -61.056804 
L 48.591677 -60.732204 
L 48.869229 -60.407604 
L 49.11937 -60.083004 
L 49.334832 -59.758404 
L 49.518511 -59.433804 
L 49.676782 -59.109204 
L 49.814789 -58.784604 
L 49.937924 -58.460004 
L 50.054737 -58.135405 
L 50.1744 -57.810805 
L 50.298748 -57.486205 
L 50.416473 -57.161605 
L 50.506594 -56.837005 
L 50.55 -56.512405 
L 50.540479 -56.187805 
L 50.486896 -55.863205 
L 50.40538 -55.538605 
L 50.308083 -55.214005 
L 50.197397 -54.889405 
L 50.069348 -54.564805 
L 49.921378 -54.240205 
L 49.756299 -53.915605 
L 49.579102 -53.591005 
L 49.390891 -53.266405 
L 49.187072 -52.941806 
L 48.963138 -52.617206 
L 48.72391 -52.292606 
L 48.486724 -51.968006 
L 48.272899 -51.643406 
L 48.093717 -51.318806 
L 47.94416 -50.994206 
L 47.809541 -50.669606 
L 47.676519 -50.345006 
L 47.538174 -50.020406 
L 47.392917 -49.695806 
L 47.243289 -49.371206 
L 47.096487 -49.046606 
L 46.963016 -48.722006 
L 46.851796 -48.397406 
L 46.765098 -48.072806 
L 46.697338 -47.748206 
L 46.638181 -47.423607 
L 46.577673 -47.099007 
L 46.510859 -46.774407 
L 46.439703 -46.449807 
L 46.370988 -46.125207 
L 46.311457 -45.800607 
L 46.263725 -45.476007 
L 46.225637 -45.151407 
L 46.19255 -44.826807 
L 46.16024 -44.502207 
L 46.126835 -44.177607 
L 46.093364 -43.853007 
L 46.062794 -43.528407 
L 46.037851 -43.203807 
L 46.019011 -42.879207 
L 46.004241 -42.554607 
L 45.990665 -42.230008 
L 45.976688 -41.905408 
L 45.96293 -41.580808 
L 45.951421 -41.256208 
L 45.943841 -40.931608 
L 45.940251 -40.607008 
L 45.939141 -40.282408 
L 45.93846 -39.957808 
L 45.936677 -39.633208 
L 45.933245 -39.308608 
L 45.928518 -38.984008 
L 45.923337 -38.659408 
L 45.918572 -38.334808 
L 45.914805 -38.010208 
L 45.912212 -37.685608 
L 45.910632 -37.361008 
L 45.909709 -37.036409 
L 45.90904 -36.711809 
L 45.90827 -36.387209 
L 45.907157 -36.062609 
z
"/>
    </defs>
    <g clip-path="url(#p1782a044e1)">
     <use xlink:href="#mf0f11172a4" x="0" y="288" style="fill: #808080; fill-opacity: 0.8"/>
    </g>
   </g>
   <g id="PolyCollection_2">
    <defs>
     <path id="mc4be9709ae" d="M 83.130487 -68.11918 
L 83.100329 -68.11918 
L 83.100329 -68.569458 
L 83.100329 -69.019735 
L 83.100329 -69.470013 
L 83.100329 -69.920291 
L 83.100329 -70.370568 
L 83.100329 -70.820846 
L 83.100329 -71.271123 
L 83.100329 -71.721401 
L 83.100329 -72.171679 
L 83.100329 -72.621956 
L 83.100329 -73.072234 
L 83.100329 -73.522512 
L 83.100329 -73.972789 
L 83.100329 -74.423067 
L 83.100329 -74.873345 
L 83.100329 -75.323622 
L 83.100329 -75.7739 
L 83.100329 -76.224178 
L 83.100329 -76.674455 
L 83.100329 -77.124733 
L 83.100329 -77.57501 
L 83.100329 -78.025288 
L 83.100329 -78.475566 
L 83.100329 -78.925843 
L 83.100329 -79.376121 
L 83.100329 -79.826399 
L 83.100329 -80.276676 
L 83.100329 -80.726954 
L 83.100329 -81.177232 
L 83.100329 -81.627509 
L 83.100329 -82.077787 
L 83.100329 -82.528065 
L 83.100329 -82.978342 
L 83.100329 -83.42862 
L 83.100329 -83.878898 
L 83.100329 -84.329175 
L 83.100329 -84.779453 
L 83.100329 -85.22973 
L 83.100329 -85.680008 
L 83.100329 -86.130286 
L 83.100329 -86.580563 
L 83.100329 -87.030841 
L 83.100329 -87.481119 
L 83.100329 -87.931396 
L 83.100329 -88.381674 
L 83.100329 -88.831952 
L 83.100329 -89.282229 
L 83.100329 -89.732507 
L 83.100329 -90.182785 
L 83.100329 -90.633062 
L 83.100329 -91.08334 
L 83.100329 -91.533617 
L 83.100329 -91.983895 
L 83.100329 -92.434173 
L 83.100329 -92.88445 
L 83.100329 -93.334728 
L 83.100329 -93.785006 
L 83.100329 -94.235283 
L 83.100329 -94.685561 
L 83.100329 -95.135839 
L 83.100329 -95.586116 
L 83.100329 -96.036394 
L 83.100329 -96.486672 
L 83.100329 -96.936949 
L 83.100329 -97.387227 
L 83.100329 -97.837505 
L 83.100329 -98.287782 
L 83.100329 -98.73806 
L 83.100329 -99.188337 
L 83.100329 -99.638615 
L 83.100329 -100.088893 
L 83.100329 -100.53917 
L 83.100329 -100.989448 
L 83.100329 -101.439726 
L 83.100329 -101.890003 
L 83.100329 -102.340281 
L 83.100329 -102.790559 
L 83.100329 -103.240836 
L 83.100329 -103.691114 
L 83.100329 -104.141392 
L 83.100329 -104.591669 
L 83.100329 -105.041947 
L 83.100329 -105.492224 
L 83.100329 -105.942502 
L 83.100329 -106.39278 
L 83.100329 -106.843057 
L 83.100329 -107.293335 
L 83.100329 -107.743613 
L 83.100329 -108.19389 
L 83.100329 -108.644168 
L 83.100329 -109.094446 
L 83.100329 -109.544723 
L 83.100329 -109.995001 
L 83.100329 -110.445279 
L 83.100329 -110.895556 
L 83.100329 -111.345834 
L 83.100329 -111.796112 
L 83.100329 -112.246389 
L 83.100329 -112.696667 
L 83.105893 -112.696667 
L 83.105893 -112.696667 
L 83.106399 -112.246389 
L 83.106943 -111.796112 
L 83.108049 -111.345834 
L 83.110095 -110.895556 
L 83.113066 -110.445279 
L 83.116493 -109.995001 
L 83.119577 -109.544723 
L 83.121519 -109.094446 
L 83.122052 -108.644168 
L 83.121854 -108.19389 
L 83.122477 -107.743613 
L 83.125669 -107.293335 
L 83.132471 -106.843057 
L 83.1428 -106.39278 
L 83.155879 -105.942502 
L 83.171122 -105.492224 
L 83.188594 -105.041947 
L 83.208652 -104.591669 
L 83.231485 -104.141392 
L 83.257416 -103.691114 
L 83.287679 -103.240836 
L 83.32425 -102.790559 
L 83.36806 -102.340281 
L 83.417006 -101.890003 
L 83.466115 -101.439726 
L 83.510557 -100.989448 
L 83.549239 -100.53917 
L 83.585682 -100.088893 
L 83.62517 -99.638615 
L 83.670902 -99.188337 
L 83.723079 -98.73806 
L 83.781877 -98.287782 
L 83.85096 -97.837505 
L 83.937346 -97.387227 
L 84.047187 -96.936949 
L 84.18116 -96.486672 
L 84.333433 -96.036394 
L 84.494732 -95.586116 
L 84.656799 -95.135839 
L 84.814997 -94.685561 
L 84.967733 -94.235283 
L 85.114076 -93.785006 
L 85.25255 -93.334728 
L 85.383173 -92.88445 
L 85.511334 -92.434173 
L 85.648796 -91.983895 
L 85.80836 -91.533617 
L 85.994939 -91.08334 
L 86.20094 -90.633062 
L 86.410934 -90.182785 
L 86.611583 -89.732507 
L 86.797496 -89.282229 
L 86.968682 -88.831952 
L 87.124405 -88.381674 
L 87.260904 -87.931396 
L 87.374458 -87.481119 
L 87.465308 -87.030841 
L 87.538513 -86.580563 
L 87.601496 -86.130286 
L 87.659499 -85.680008 
L 87.710761 -85.22973 
L 87.745235 -84.779453 
L 87.75 -84.329175 
L 87.718063 -83.878898 
L 87.651904 -83.42862 
L 87.558084 -82.978342 
L 87.439924 -82.528065 
L 87.297459 -82.077787 
L 87.133737 -81.627509 
L 86.957604 -81.177232 
L 86.777656 -80.726954 
L 86.594193 -80.276676 
L 86.399353 -79.826399 
L 86.185999 -79.376121 
L 85.955782 -78.925843 
L 85.718311 -78.475566 
L 85.483609 -78.025288 
L 85.256389 -77.57501 
L 85.037139 -77.124733 
L 84.826909 -76.674455 
L 84.62938 -76.224178 
L 84.448283 -75.7739 
L 84.28403 -75.323622 
L 84.13352 -74.873345 
L 83.992628 -74.423067 
L 83.858455 -73.972789 
L 83.730201 -73.522512 
L 83.609423 -73.072234 
L 83.499908 -72.621956 
L 83.406421 -72.171679 
L 83.332412 -71.721401 
L 83.278052 -71.271123 
L 83.239995 -70.820846 
L 83.212944 -70.370568 
L 83.191916 -69.920291 
L 83.173789 -69.470013 
L 83.157446 -69.019735 
L 83.142917 -68.569458 
L 83.130487 -68.11918 
z
"/>
    </defs>
    <g clip-path="url(#p1782a044e1)">
     <use xlink:href="#mc4be9709ae" x="0" y="288" style="fill: #808080; fill-opacity: 0.8"/>
    </g>
   </g>
   <g id="PolyCollection_3">
    <defs>
     <path id="mf6f65cc927" d="M 120.31675 -71.604338 
L 120.300237 -71.604338 
L 120.300237 -72.130706 
L 120.300237 -72.657074 
L 120.300237 -73.183442 
L 120.300237 -73.70981 
L 120.300237 -74.236178 
L 120.300237 -74.762547 
L 120.300237 -75.288915 
L 120.300237 -75.815283 
L 120.300237 -76.341651 
L 120.300237 -76.868019 
L 120.300237 -77.394387 
L 120.300237 -77.920755 
L 120.300237 -78.447123 
L 120.300237 -78.973492 
L 120.300237 -79.49986 
L 120.300237 -80.026228 
L 120.300237 -80.552596 
L 120.300237 -81.078964 
L 120.300237 -81.605332 
L 120.300237 -82.1317 
L 120.300237 -82.658069 
L 120.300237 -83.184437 
L 120.300237 -83.710805 
L 120.300237 -84.237173 
L 120.300237 -84.763541 
L 120.300237 -85.289909 
L 120.300237 -85.816277 
L 120.300237 -86.342645 
L 120.300237 -86.869014 
L 120.300237 -87.395382 
L 120.300237 -87.92175 
L 120.300237 -88.448118 
L 120.300237 -88.974486 
L 120.300237 -89.500854 
L 120.300237 -90.027222 
L 120.300237 -90.55359 
L 120.300237 -91.079959 
L 120.300237 -91.606327 
L 120.300237 -92.132695 
L 120.300237 -92.659063 
L 120.300237 -93.185431 
L 120.300237 -93.711799 
L 120.300237 -94.238167 
L 120.300237 -94.764535 
L 120.300237 -95.290904 
L 120.300237 -95.817272 
L 120.300237 -96.34364 
L 120.300237 -96.870008 
L 120.300237 -97.396376 
L 120.300237 -97.922744 
L 120.300237 -98.449112 
L 120.300237 -98.975481 
L 120.300237 -99.501849 
L 120.300237 -100.028217 
L 120.300237 -100.554585 
L 120.300237 -101.080953 
L 120.300237 -101.607321 
L 120.300237 -102.133689 
L 120.300237 -102.660057 
L 120.300237 -103.186426 
L 120.300237 -103.712794 
L 120.300237 -104.239162 
L 120.300237 -104.76553 
L 120.300237 -105.291898 
L 120.300237 -105.818266 
L 120.300237 -106.344634 
L 120.300237 -106.871002 
L 120.300237 -107.397371 
L 120.300237 -107.923739 
L 120.300237 -108.450107 
L 120.300237 -108.976475 
L 120.300237 -109.502843 
L 120.300237 -110.029211 
L 120.300237 -110.555579 
L 120.300237 -111.081948 
L 120.300237 -111.608316 
L 120.300237 -112.134684 
L 120.300237 -112.661052 
L 120.300237 -113.18742 
L 120.300237 -113.713788 
L 120.300237 -114.240156 
L 120.300237 -114.766524 
L 120.300237 -115.292893 
L 120.300237 -115.819261 
L 120.300237 -116.345629 
L 120.300237 -116.871997 
L 120.300237 -117.398365 
L 120.300237 -117.924733 
L 120.300237 -118.451101 
L 120.300237 -118.977469 
L 120.300237 -119.503838 
L 120.300237 -120.030206 
L 120.300237 -120.556574 
L 120.300237 -121.082942 
L 120.300237 -121.60931 
L 120.300237 -122.135678 
L 120.300237 -122.662046 
L 120.300237 -123.188414 
L 120.300237 -123.714783 
L 120.314678 -123.714783 
L 120.314678 -123.714783 
L 120.318026 -123.188414 
L 120.320885 -122.662046 
L 120.323249 -122.135678 
L 120.325162 -121.60931 
L 120.326667 -121.082942 
L 120.328004 -120.556574 
L 120.329948 -120.030206 
L 120.333843 -119.503838 
L 120.34104 -118.977469 
L 120.351911 -118.451101 
L 120.365275 -117.924733 
L 120.378938 -117.398365 
L 120.391233 -116.871997 
L 120.402468 -116.345629 
L 120.415136 -115.819261 
L 120.432693 -115.292893 
L 120.457839 -114.766524 
L 120.491446 -114.240156 
L 120.53268 -113.713788 
L 120.580083 -113.18742 
L 120.632848 -112.661052 
L 120.691526 -112.134684 
L 120.757809 -111.608316 
L 120.833596 -111.081948 
L 120.919736 -110.555579 
L 121.014799 -110.029211 
L 121.114494 -109.502843 
L 121.212693 -108.976475 
L 121.304384 -108.450107 
L 121.389092 -107.923739 
L 121.471987 -107.397371 
L 121.561249 -106.871002 
L 121.663603 -106.344634 
L 121.781724 -105.818266 
L 121.914922 -105.291898 
L 122.060877 -104.76553 
L 122.215992 -104.239162 
L 122.375018 -103.712794 
L 122.532437 -103.186426 
L 122.685819 -102.660057 
L 122.838181 -102.133689 
L 122.996413 -101.607321 
L 123.166451 -101.080953 
L 123.349508 -100.554585 
L 123.54304 -100.028217 
L 123.744961 -99.501849 
L 123.955316 -98.975481 
L 124.1719 -98.449112 
L 124.383627 -97.922744 
L 124.569672 -97.396376 
L 124.708073 -96.870008 
L 124.788671 -96.34364 
L 124.820541 -95.817272 
L 124.82781 -95.290904 
L 124.836382 -94.764535 
L 124.86049 -94.238167 
L 124.897497 -93.711799 
L 124.932853 -93.185431 
L 124.95 -92.659063 
L 124.938006 -92.132695 
L 124.8934 -91.606327 
L 124.817771 -91.079959 
L 124.714601 -90.55359 
L 124.587596 -90.027222 
L 124.440645 -89.500854 
L 124.27805 -88.974486 
L 124.103735 -88.448118 
L 123.919725 -87.92175 
L 123.725676 -87.395382 
L 123.520449 -86.869014 
L 123.304233 -86.342645 
L 123.079111 -85.816277 
L 122.84811 -85.289909 
L 122.614487 -84.763541 
L 122.381978 -84.237173 
L 122.155109 -83.710805 
L 121.938742 -83.184437 
L 121.737092 -82.658069 
L 121.55269 -82.1317 
L 121.385643 -81.605332 
L 121.233832 -81.078964 
L 121.094543 -80.552596 
L 120.966708 -80.026228 
L 120.85186 -79.49986 
L 120.752708 -78.973492 
L 120.67052 -78.447123 
L 120.60362 -77.920755 
L 120.54822 -77.394387 
L 120.500628 -76.868019 
L 120.45896 -76.341651 
L 120.42323 -75.815283 
L 120.39416 -75.288915 
L 120.371878 -74.762547 
L 120.355481 -74.236178 
L 120.343483 -73.70981 
L 120.334491 -73.183442 
L 120.327491 -72.657074 
L 120.321754 -72.130706 
L 120.31675 -71.604338 
z
"/>
    </defs>
    <g clip-path="url(#p1782a044e1)">
     <use xlink:href="#mf6f65cc927" x="0" y="288" style="fill: #808080; fill-opacity: 0.8"/>
    </g>
   </g>
   <g id="matplotlib.axis_3">
    <g id="xtick_5">
     <g id="line2d_18">
      <g>
       <use xlink:href="#m83fe96d2c2" x="27.3" y="256.32" style="stroke: #000000; stroke-width: 0.8"/>
      </g>
     </g>
    </g>
    <g id="xtick_6">
     <g id="line2d_19">
      <g>
       <use xlink:href="#m83fe96d2c2" x="45.9" y="256.32" style="stroke: #000000; stroke-width: 0.8"/>
      </g>
     </g>
     <g id="text_11">
      <text style="font: 12px 'Helvetica', sans-serif; text-anchor: middle" x="45.9" y="271.928125" transform="rotate(-0 45.9 271.928125)">Off</text>
     </g>
    </g>
    <g id="xtick_7">
     <g id="line2d_20">
      <g>
       <use xlink:href="#m83fe96d2c2" x="64.5" y="256.32" style="stroke: #000000; stroke-width: 0.8"/>
      </g>
     </g>
    </g>
    <g id="xtick_8">
     <g id="line2d_21">
      <g>
       <use xlink:href="#m83fe96d2c2" x="83.1" y="256.32" style="stroke: #000000; stroke-width: 0.8"/>
      </g>
     </g>
     <g id="text_12">
      <text style="font: 12px 'Helvetica', sans-serif; text-anchor: middle" x="83.1" y="271.928125" transform="rotate(-0 83.1 271.928125)">On</text>
     </g>
    </g>
    <g id="xtick_9">
     <g id="line2d_22">
      <g>
       <use xlink:href="#m83fe96d2c2" x="101.7" y="256.32" style="stroke: #000000; stroke-width: 0.8"/>
      </g>
     </g>
    </g>
    <g id="xtick_10">
     <g id="line2d_23">
      <g>
       <use xlink:href="#m83fe96d2c2" x="120.3" y="256.32" style="stroke: #000000; stroke-width: 0.8"/>
      </g>
     </g>
     <g id="text_13">
      <!-- $\Delta\Delta$ -->
      <g transform="translate(112.08 271.928125)">
       <text>
        <tspan style="font: 12px 'DejaVu Sans'" x="0 8.208984" y="-0.25">ΔΔ</tspan>
       </text>
      </g>
     </g>
    </g>
   </g>
   <g id="matplotlib.axis_4">
    <g id="ytick_6">
     <g id="line2d_24">
      <g>
       <use xlink:href="#maa574497fb" x="18" y="250.501114" style="stroke: #000000; stroke-width: 0.8"/>
      </g>
     </g>
     <g id="text_14">
      <text style="font: 6px 'Helvetica', sans-serif; text-anchor: end" x="11" y="252.653145" transform="rotate(-0 11 252.653145)">−20</text>
     </g>
    </g>
    <g id="ytick_7">
     <g id="line2d_25">
      <g>
       <use xlink:href="#maa574497fb" x="18" y="237.12782" style="stroke: #000000; stroke-width: 0.8"/>
      </g>
     </g>
     <g id="text_15">
      <text style="font: 6px 'Helvetica', sans-serif; text-anchor: end" x="11" y="239.279851" transform="rotate(-0 11 239.279851)">−10</text>
     </g>
    </g>
    <g id="ytick_8">
     <g id="line2d_26">
      <g>
       <use xlink:href="#maa574497fb" x="18" y="223.754526" style="stroke: #000000; stroke-width: 0.8"/>
      </g>
     </g>
     <g id="text_16">
      <text style="font: 6px 'Helvetica', sans-serif; text-anchor: end" x="11" y="225.906557" transform="rotate(-0 11 225.906557)">0</text>
     </g>
    </g>
    <g id="ytick_9">
     <g id="line2d_27">
      <g>
       <use xlink:href="#maa574497fb" x="18" y="210.381232" style="stroke: #000000; stroke-width: 0.8"/>
      </g>
     </g>
     <g id="text_17">
      <text style="font: 6px 'Helvetica', sans-serif; text-anchor: end" x="11" y="212.533263" transform="rotate(-0 11 212.533263)">10</text>
     </g>
    </g>
    <g id="ytick_10">
     <g id="line2d_28">
      <g>
       <use xlink:href="#maa574497fb" x="18" y="197.007938" style="stroke: #000000; stroke-width: 0.8"/>
      </g>
     </g>
     <g id="text_18">
      <text style="font: 6px 'Helvetica', sans-serif; text-anchor: end" x="11" y="199.159969" transform="rotate(-0 11 199.159969)">20</text>
     </g>
    </g>
    <g id="ytick_11">
     <g id="line2d_29">
      <g>
       <use xlink:href="#maa574497fb" x="18" y="183.634644" style="stroke: #000000; stroke-width: 0.8"/>
      </g>
     </g>
     <g id="text_19">
      <text style="font: 6px 'Helvetica', sans-serif; text-anchor: end" x="11" y="185.786676" transform="rotate(-0 11 185.786676)">30</text>
     </g>
    </g>
    <g id="ytick_12">
     <g id="line2d_30">
      <g>
       <use xlink:href="#maa574497fb" x="18" y="170.26135" style="stroke: #000000; stroke-width: 0.8"/>
      </g>
     </g>
     <g id="text_20">
      <text style="font: 6px 'Helvetica', sans-serif; text-anchor: end" x="11" y="172.413382" transform="rotate(-0 11 172.413382)">40</text>
     </g>
    </g>
    <g id="text_21">
     <!-- $\Delta$ Meal Size (nL) -->
     <g transform="translate(-5.6975 252.571304) rotate(-90)">
      <text>
       <tspan style="font: 12px 'DejaVu Sans'" x="0" y="-0.15625">Δ</tspan>
       <tspan style="font: 12px 'Helvetica'" x="8.208984 11.542969 21.539062 28.212891 34.886719 37.552734 40.886719 48.890625 51.556641 57.556641 64.230469 67.564453 71.560547 78.234375 84.908203" y="-0.15625"> Meal Size (nL)</tspan>
      </text>
     </g>
    </g>
   </g>
   <g id="line2d_31">
    <path d="M 45.9 232.397006 
" clip-path="url(#p1782a044e1)" style="fill: none; stroke: #000000; stroke-width: 1.5; stroke-linecap: square"/>
    <defs>
     <path id="m5171269a94" d="M 0 2.5 
C 0.663008 2.5 1.29895 2.236584 1.767767 1.767767 
C 2.236584 1.29895 2.5 0.663008 2.5 0 
C 2.5 -0.663008 2.236584 -1.29895 1.767767 -1.767767 
C 1.29895 -2.236584 0.663008 -2.5 0 -2.5 
C -0.663008 -2.5 -1.29895 -2.236584 -1.767767 -1.767767 
C -2.236584 -1.29895 -2.5 -0.663008 -2.5 0 
C -2.5 0.663008 -2.236584 1.29895 -1.767767 1.767767 
C -1.29895 2.236584 -0.663008 2.5 0 2.5 
z
" style="stroke: #000000"/>
    </defs>
    <g clip-path="url(#p1782a044e1)">
     <use xlink:href="#m5171269a94" x="45.9" y="232.397006" style="stroke: #000000"/>
    </g>
   </g>
   <g id="line2d_32">
    <path d="M 45.9 243.914874 
L 45.9 226.028522 
" clip-path="url(#p1782a044e1)" style="fill: none; stroke: #000000; stroke-width: 2; stroke-linecap: square"/>
   </g>
   <g id="line2d_33">
    <path d="M 83.1 202.028302 
" clip-path="url(#p1782a044e1)" style="fill: none; stroke: #000000; stroke-width: 1.5; stroke-linecap: square"/>
    <g clip-path="url(#p1782a044e1)">
     <use xlink:href="#m5171269a94" x="83.1" y="202.028302" style="stroke: #000000"/>
    </g>
   </g>
   <g id="line2d_34">
    <path d="M 83.1 211.969949 
L 83.1 186.467727 
" clip-path="url(#p1782a044e1)" style="fill: none; stroke: #000000; stroke-width: 2; stroke-linecap: square"/>
   </g>
   <g id="line2d_35">
    <path d="M 120.3 193.385822 
" clip-path="url(#p1782a044e1)" style="fill: none; stroke: #000000; stroke-width: 1.5; stroke-linecap: square"/>
    <g clip-path="url(#p1782a044e1)">
     <use xlink:href="#m5171269a94" x="120.3" y="193.385822" style="stroke: #000000"/>
    </g>
   </g>
   <g id="line2d_36">
    <path d="M 120.3 206.204461 
L 120.3 177.113008 
" clip-path="url(#p1782a044e1)" style="fill: none; stroke: #000000; stroke-width: 2; stroke-linecap: square"/>
   </g>
   <g id="line2d_37">
    <path d="M 18 223.754526 
L 129.6 223.754526 
" clip-path="url(#p1782a044e1)" style="fill: none; stroke: #000000; stroke-width: 0.75; stroke-linecap: square"/>
   </g>
   <g id="LineCollection_4">
    <defs>
     <path id="m2b42f3b20e" d="M 27.3 -31.68 
L 45.9 -31.68 
" style="stroke: #000000"/>
    </defs>
    <g>
     <use xlink:href="#m2b42f3b20e" x="0" y="288" style="stroke: #000000"/>
    </g>
   </g>
   <g id="LineCollection_5">
    <defs>
     <path id="m929b443b05" d="M 64.5 -31.68 
L 83.1 -31.68 
" style="stroke: #000000"/>
    </defs>
    <g>
     <use xlink:href="#m929b443b05" x="0" y="288" style="stroke: #000000"/>
    </g>
   </g>
   <g id="LineCollection_6">
    <defs>
     <path id="m9d295587f7" d="M 101.7 -31.68 
L 120.3 -31.68 
" style="stroke: #000000"/>
    </defs>
    <g>
     <use xlink:href="#m9d295587f7" x="0" y="288" style="stroke: #000000"/>
    </g>
   </g>
   <g id="LineCollection_7">
    <defs>
     <path id="mb8c96c5ca9" d="M 18 -31.68 
L 18 -128.097391 
" style="stroke: #000000"/>
    </defs>
    <g>
     <use xlink:href="#mb8c96c5ca9" x="0" y="288" style="stroke: #000000"/>
    </g>
   </g>
  </g>
  <g id="axes_3">
   <g id="matplotlib.axis_5">
    <g id="ytick_13">
     <g id="line2d_38">
      <defs>
       <path id="m7bc823e903" d="M 0 0 
L 3.5 0 
" style="stroke: #000000; stroke-width: 0.8"/>
      </defs>
      <g>
       <use xlink:href="#m7bc823e903" x="129.6" y="250.501114" style="stroke: #000000; stroke-width: 0.8"/>
      </g>
     </g>
     <g id="text_22">
      <text style="font: 6px 'Helvetica', sans-serif; text-anchor: start" x="136.6" y="252.653145" transform="rotate(-0 136.6 252.653145)">−20</text>
     </g>
    </g>
    <g id="ytick_14">
     <g id="line2d_39">
      <g>
       <use xlink:href="#m7bc823e903" x="129.6" y="237.12782" style="stroke: #000000; stroke-width: 0.8"/>
      </g>
     </g>
     <g id="text_23">
      <text style="font: 6px 'Helvetica', sans-serif; text-anchor: start" x="136.6" y="239.279851" transform="rotate(-0 136.6 239.279851)">−10</text>
     </g>
    </g>
    <g id="ytick_15">
     <g id="line2d_40">
      <g>
       <use xlink:href="#m7bc823e903" x="129.6" y="223.754526" style="stroke: #000000; stroke-width: 0.8"/>
      </g>
     </g>
     <g id="text_24">
      <text style="font: 6px 'Helvetica', sans-serif; text-anchor: start" x="136.6" y="225.906557" transform="rotate(-0 136.6 225.906557)">0</text>
     </g>
    </g>
    <g id="ytick_16">
     <g id="line2d_41">
      <g>
       <use xlink:href="#m7bc823e903" x="129.6" y="210.381232" style="stroke: #000000; stroke-width: 0.8"/>
      </g>
     </g>
     <g id="text_25">
      <text style="font: 6px 'Helvetica', sans-serif; text-anchor: start" x="136.6" y="212.533263" transform="rotate(-0 136.6 212.533263)">10</text>
     </g>
    </g>
    <g id="ytick_17">
     <g id="line2d_42">
      <g>
       <use xlink:href="#m7bc823e903" x="129.6" y="197.007938" style="stroke: #000000; stroke-width: 0.8"/>
      </g>
     </g>
     <g id="text_26">
      <text style="font: 6px 'Helvetica', sans-serif; text-anchor: start" x="136.6" y="199.159969" transform="rotate(-0 136.6 199.159969)">20</text>
     </g>
    </g>
    <g id="ytick_18">
     <g id="line2d_43">
      <g>
       <use xlink:href="#m7bc823e903" x="129.6" y="183.634644" style="stroke: #000000; stroke-width: 0.8"/>
      </g>
     </g>
     <g id="text_27">
      <text style="font: 6px 'Helvetica', sans-serif; text-anchor: start" x="136.6" y="185.786676" transform="rotate(-0 136.6 185.786676)">30</text>
     </g>
    </g>
    <g id="ytick_19">
     <g id="line2d_44">
      <g>
       <use xlink:href="#m7bc823e903" x="129.6" y="170.26135" style="stroke: #000000; stroke-width: 0.8"/>
      </g>
     </g>
     <g id="text_28">
      <text style="font: 6px 'Helvetica', sans-serif; text-anchor: start" x="136.6" y="172.413382" transform="rotate(-0 136.6 172.413382)">40</text>
     </g>
    </g>
    <g id="text_29">
     <!-- $\Delta\Delta$ -->
     <g transform="translate(159.385625 216.331304) rotate(-90)">
      <text>
       <tspan style="font: 12px 'DejaVu Sans'" x="0 8.208984" y="-0.25">ΔΔ</tspan>
      </text>
     </g>
    </g>
   </g>
   <g id="LineCollection_8">
    <defs>
     <path id="m3c72be73f0" d="M 129.6 -31.68 
L 129.6 -128.097391 
" style="stroke: #000000"/>
    </defs>
    <g>
     <use xlink:href="#m3c72be73f0" x="0" y="288" style="stroke: #000000"/>
    </g>
   </g>
  </g>
  <g id="text_30">
   <text style="fill: #ffa500; font: italic 500 12px 'inter'; text-anchor: middle" x="72" y="17.758125" transform="rotate(-0 72 17.758125)">Trhn-AND-tsh&gt;ACR1</text>
  </g>
 </g>
 <defs>
  <clipPath id="pfda7695412">
   <rect x="18" y="34.56" width="111.6" height="96.417391"/>
  </clipPath>
  <clipPath id="p1782a044e1">
   <rect x="18" y="159.902609" width="111.6" height="96.417391"/>
  </clipPath>
 </defs>
</svg>
