<?xml version="1.0" encoding="utf-8" standalone="no"?>
<!DOCTYPE svg PUBLIC "-//W3C//DTD SVG 1.1//EN"
  "http://www.w3.org/Graphics/SVG/1.1/DTD/svg11.dtd">
<svg xmlns:xlink="http://www.w3.org/1999/xlink" width="180pt" height="180pt" viewBox="0 0 180 180" xmlns="http://www.w3.org/2000/svg" version="1.1">
 <metadata>
  <rdf:RDF xmlns:dc="http://purl.org/dc/elements/1.1/" xmlns:cc="http://creativecommons.org/ns#" xmlns:rdf="http://www.w3.org/1999/02/22-rdf-syntax-ns#">
   <cc:Work>
    <dc:type rdf:resource="http://purl.org/dc/dcmitype/StillImage"/>
    <dc:date>2025-02-16T01:32:18.516839</dc:date>
    <dc:format>image/svg+xml</dc:format>
    <dc:creator>
     <cc:Agent>
      <dc:title>Matplotlib v3.6.3, https://matplotlib.org/</dc:title>
     </cc:Agent>
    </dc:creator>
   </cc:Work>
  </rdf:RDF>
 </metadata>
 <defs>
  <style type="text/css">*{stroke-linejoin: round; stroke-linecap: butt}</style>
 </defs>
 <g id="figure_1">
  <g id="patch_1">
   <path d="M 0 180 
L 180 180 
L 180 0 
L 0 0 
z
" style="fill: #ffffff"/>
  </g>
  <g id="axes_1">
   <g id="patch_2">
    <path d="M 22.5 160.2 
L 162 160.2 
L 162 21.6 
L 22.5 21.6 
z
" style="fill: #ffffff"/>
   </g>
   <g id="PolyCollection_1">
    <defs>
     <path id="m44be251513" d="M 50.432414 -63.001836 
L 50.400358 -63.001836 
L 50.400358 -63.695959 
L 50.400358 -64.390082 
L 50.400358 -65.084205 
L 50.400358 -65.778328 
L 50.400358 -66.472451 
L 50.400358 -67.166574 
L 50.400358 -67.860698 
L 50.400358 -68.554821 
L 50.400358 -69.248944 
L 50.400358 -69.943067 
L 50.400358 -70.63719 
L 50.400358 -71.331313 
L 50.400358 -72.025436 
L 50.400358 -72.719559 
L 50.400358 -73.413682 
L 50.400358 -74.107805 
L 50.400358 -74.801928 
L 50.400358 -75.496051 
L 50.400358 -76.190174 
L 50.400358 -76.884298 
L 50.400358 -77.578421 
L 50.400358 -78.272544 
L 50.400358 -78.966667 
L 50.400358 -79.66079 
L 50.400358 -80.354913 
L 50.400358 -81.049036 
L 50.400358 -81.743159 
L 50.400358 -82.437282 
L 50.400358 -83.131405 
L 50.400358 -83.825528 
L 50.400358 -84.519651 
L 50.400358 -85.213774 
L 50.400358 -85.907898 
L 50.400358 -86.602021 
L 50.400358 -87.296144 
L 50.400358 -87.990267 
L 50.400358 -88.68439 
L 50.400358 -89.378513 
L 50.400358 -90.072636 
L 50.400358 -90.766759 
L 50.400358 -91.460882 
L 50.400358 -92.155005 
L 50.400358 -92.849128 
L 50.400358 -93.543251 
L 50.400358 -94.237374 
L 50.400358 -94.931498 
L 50.400358 -95.625621 
L 50.400358 -96.319744 
L 50.400358 -97.013867 
L 50.400358 -97.70799 
L 50.400358 -98.402113 
L 50.400358 -99.096236 
L 50.400358 -99.790359 
L 50.400358 -100.484482 
L 50.400358 -101.178605 
L 50.400358 -101.872728 
L 50.400358 -102.566851 
L 50.400358 -103.260974 
L 50.400358 -103.955097 
L 50.400358 -104.649221 
L 50.400358 -105.343344 
L 50.400358 -106.037467 
L 50.400358 -106.73159 
L 50.400358 -107.425713 
L 50.400358 -108.119836 
L 50.400358 -108.813959 
L 50.400358 -109.508082 
L 50.400358 -110.202205 
L 50.400358 -110.896328 
L 50.400358 -111.590451 
L 50.400358 -112.284574 
L 50.400358 -112.978697 
L 50.400358 -113.672821 
L 50.400358 -114.366944 
L 50.400358 -115.061067 
L 50.400358 -115.75519 
L 50.400358 -116.449313 
L 50.400358 -117.143436 
L 50.400358 -117.837559 
L 50.400358 -118.531682 
L 50.400358 -119.225805 
L 50.400358 -119.919928 
L 50.400358 -120.614051 
L 50.400358 -121.308174 
L 50.400358 -122.002297 
L 50.400358 -122.696421 
L 50.400358 -123.390544 
L 50.400358 -124.084667 
L 50.400358 -124.77879 
L 50.400358 -125.472913 
L 50.400358 -126.167036 
L 50.400358 -126.861159 
L 50.400358 -127.555282 
L 50.400358 -128.249405 
L 50.400358 -128.943528 
L 50.400358 -129.637651 
L 50.400358 -130.331774 
L 50.400358 -131.025897 
L 50.400358 -131.720021 
L 50.407759 -131.720021 
L 50.407759 -131.720021 
L 50.407051 -131.025897 
L 50.405294 -130.331774 
L 50.403283 -129.637651 
L 50.401682 -128.943528 
L 50.400711 -128.249405 
L 50.400358 -127.555282 
L 50.400358 -126.861159 
L 50.400358 -126.167036 
L 50.400358 -125.472913 
L 50.400358 -124.77879 
L 50.400358 -124.084667 
L 50.400358 -123.390544 
L 50.400427 -122.696421 
L 50.401335 -122.002297 
L 50.403525 -121.308174 
L 50.407896 -120.614051 
L 50.415126 -119.919928 
L 50.425071 -119.225805 
L 50.436636 -118.531682 
L 50.448649 -117.837559 
L 50.461297 -117.143436 
L 50.476896 -116.449313 
L 50.499116 -115.75519 
L 50.531178 -115.061067 
L 50.574444 -114.366944 
L 50.628417 -113.672821 
L 50.692173 -112.978697 
L 50.766372 -112.284574 
L 50.854502 -111.590451 
L 50.961755 -110.896328 
L 51.090902 -110.202205 
L 51.23763 -109.508082 
L 51.390435 -108.813959 
L 51.537777 -108.119836 
L 51.677501 -107.425713 
L 51.818948 -106.73159 
L 51.974913 -106.037467 
L 52.152474 -105.343344 
L 52.352947 -104.649221 
L 52.578999 -103.955097 
L 52.837192 -103.260974 
L 53.13042 -102.566851 
L 53.448788 -101.872728 
L 53.771029 -101.178605 
L 54.076827 -100.484482 
L 54.35924 -99.790359 
L 54.628725 -99.096236 
L 54.908018 -98.402113 
L 55.219562 -97.70799 
L 55.568953 -97.013867 
L 55.934163 -96.319744 
L 56.272075 -95.625621 
L 56.542361 -94.931498 
L 56.731984 -94.237374 
L 56.859753 -93.543251 
L 56.958129 -92.849128 
L 57.051614 -92.155005 
L 57.149707 -91.460882 
L 57.249689 -90.766759 
L 57.335379 -90.072636 
L 57.375 -89.378513 
L 57.332912 -88.68439 
L 57.193181 -87.990267 
L 56.972095 -87.296144 
L 56.70542 -86.602021 
L 56.424267 -85.907898 
L 56.142661 -85.213774 
L 55.861406 -84.519651 
L 55.576035 -83.825528 
L 55.281245 -83.131405 
L 54.974777 -82.437282 
L 54.661356 -81.743159 
L 54.351145 -81.049036 
L 54.052744 -80.354913 
L 53.768935 -79.66079 
L 53.498243 -78.966667 
L 53.236319 -78.272544 
L 52.975042 -77.578421 
L 52.70562 -76.884298 
L 52.427106 -76.190174 
L 52.15069 -75.496051 
L 51.89309 -74.801928 
L 51.666001 -74.107805 
L 51.472187 -73.413682 
L 51.30885 -72.719559 
L 51.17146 -72.025436 
L 51.054398 -71.331313 
L 50.950894 -70.63719 
L 50.855207 -69.943067 
L 50.765706 -69.248944 
L 50.685151 -68.554821 
L 50.617453 -67.860698 
L 50.564243 -67.166574 
L 50.524258 -66.472451 
L 50.494891 -65.778328 
L 50.473463 -65.084205 
L 50.457385 -64.390082 
L 50.444231 -63.695959 
L 50.432414 -63.001836 
z
"/>
    </defs>
    <g clip-path="url(#pe83647a8fa)">
     <use xlink:href="#m44be251513" x="0" y="180" style="fill: #ff4500; fill-opacity: 0.4"/>
    </g>
   </g>
   <g id="PolyCollection_2">
    <defs>
     <path id="m63d3fbe8f2" d="M 78.347913 -26.1 
L 78.300551 -26.1 
L 78.300551 -26.949417 
L 78.300551 -27.798833 
L 78.300551 -28.64825 
L 78.300551 -29.497667 
L 78.300551 -30.347083 
L 78.300551 -31.1965 
L 78.300551 -32.045917 
L 78.300551 -32.895333 
L 78.300551 -33.74475 
L 78.300551 -34.594167 
L 78.300551 -35.443583 
L 78.300551 -36.293 
L 78.300551 -37.142416 
L 78.300551 -37.991833 
L 78.300551 -38.84125 
L 78.300551 -39.690666 
L 78.300551 -40.540083 
L 78.300551 -41.3895 
L 78.300551 -42.238916 
L 78.300551 -43.088333 
L 78.300551 -43.93775 
L 78.300551 -44.787166 
L 78.300551 -45.636583 
L 78.300551 -46.486 
L 78.300551 -47.335416 
L 78.300551 -48.184833 
L 78.300551 -49.03425 
L 78.300551 -49.883666 
L 78.300551 -50.733083 
L 78.300551 -51.5825 
L 78.300551 -52.431916 
L 78.300551 -53.281333 
L 78.300551 -54.13075 
L 78.300551 -54.980166 
L 78.300551 -55.829583 
L 78.300551 -56.678999 
L 78.300551 -57.528416 
L 78.300551 -58.377833 
L 78.300551 -59.227249 
L 78.300551 -60.076666 
L 78.300551 -60.926083 
L 78.300551 -61.775499 
L 78.300551 -62.624916 
L 78.300551 -63.474333 
L 78.300551 -64.323749 
L 78.300551 -65.173166 
L 78.300551 -66.022583 
L 78.300551 -66.871999 
L 78.300551 -67.721416 
L 78.300551 -68.570833 
L 78.300551 -69.420249 
L 78.300551 -70.269666 
L 78.300551 -71.119083 
L 78.300551 -71.968499 
L 78.300551 -72.817916 
L 78.300551 -73.667333 
L 78.300551 -74.516749 
L 78.300551 -75.366166 
L 78.300551 -76.215582 
L 78.300551 -77.064999 
L 78.300551 -77.914416 
L 78.300551 -78.763832 
L 78.300551 -79.613249 
L 78.300551 -80.462666 
L 78.300551 -81.312082 
L 78.300551 -82.161499 
L 78.300551 -83.010916 
L 78.300551 -83.860332 
L 78.300551 -84.709749 
L 78.300551 -85.559166 
L 78.300551 -86.408582 
L 78.300551 -87.257999 
L 78.300551 -88.107416 
L 78.300551 -88.956832 
L 78.300551 -89.806249 
L 78.300551 -90.655666 
L 78.300551 -91.505082 
L 78.300551 -92.354499 
L 78.300551 -93.203916 
L 78.300551 -94.053332 
L 78.300551 -94.902749 
L 78.300551 -95.752166 
L 78.300551 -96.601582 
L 78.300551 -97.450999 
L 78.300551 -98.300415 
L 78.300551 -99.149832 
L 78.300551 -99.999249 
L 78.300551 -100.848665 
L 78.300551 -101.698082 
L 78.300551 -102.547499 
L 78.300551 -103.396915 
L 78.300551 -104.246332 
L 78.300551 -105.095749 
L 78.300551 -105.945165 
L 78.300551 -106.794582 
L 78.300551 -107.643999 
L 78.300551 -108.493415 
L 78.300551 -109.342832 
L 78.300551 -110.192249 
L 78.315997 -110.192249 
L 78.315997 -110.192249 
L 78.315722 -109.342832 
L 78.314783 -108.493415 
L 78.315182 -107.643999 
L 78.319181 -106.794582 
L 78.328516 -105.945165 
L 78.343881 -105.095749 
L 78.364788 -104.246332 
L 78.389703 -103.396915 
L 78.416324 -102.547499 
L 78.441982 -101.698082 
L 78.464372 -100.848665 
L 78.482671 -99.999249 
L 78.498619 -99.149832 
L 78.516592 -98.300415 
L 78.542116 -97.450999 
L 78.579486 -96.601582 
L 78.630237 -95.752166 
L 78.693739 -94.902749 
L 78.769241 -94.053332 
L 78.857275 -93.203916 
L 78.958921 -92.354499 
L 79.073857 -91.505082 
L 79.199622 -90.655666 
L 79.333289 -89.806249 
L 79.473801 -88.956832 
L 79.622118 -88.107416 
L 79.779003 -87.257999 
L 79.943698 -86.408582 
L 80.116265 -85.559166 
L 80.301606 -84.709749 
L 80.509862 -83.860332 
L 80.75099 -83.010916 
L 81.027901 -82.161499 
L 81.334769 -81.312082 
L 81.661713 -80.462666 
L 82.000287 -79.613249 
L 82.344172 -78.763832 
L 82.685838 -77.914416 
L 83.014799 -77.064999 
L 83.320888 -76.215582 
L 83.59999 -75.366166 
L 83.856619 -74.516749 
L 84.10051 -73.667333 
L 84.339613 -72.817916 
L 84.574464 -71.968499 
L 84.79685 -71.119083 
L 84.99219 -70.269666 
L 85.143917 -69.420249 
L 85.239212 -68.570833 
L 85.275 -67.721416 
L 85.26095 -66.871999 
L 85.216309 -66.022583 
L 85.161201 -65.173166 
L 85.107202 -64.323749 
L 85.05248 -63.474333 
L 84.983888 -62.624916 
L 84.8848 -61.775499 
L 84.74469 -60.926083 
L 84.565034 -60.076666 
L 84.357472 -59.227249 
L 84.135383 -58.377833 
L 83.905398 -57.528416 
L 83.665491 -56.678999 
L 83.41022 -55.829583 
L 83.137435 -54.980166 
L 82.850483 -54.13075 
L 82.555133 -53.281333 
L 82.255279 -52.431916 
L 81.951715 -51.5825 
L 81.644719 -50.733083 
L 81.337765 -49.883666 
L 81.039028 -49.03425 
L 80.759507 -48.184833 
L 80.509076 -47.335416 
L 80.292792 -46.486 
L 80.108993 -45.636583 
L 79.949712 -44.787166 
L 79.803414 -43.93775 
L 79.659568 -43.088333 
L 79.513328 -42.238916 
L 79.36741 -41.3895 
L 79.22944 -40.540083 
L 79.106527 -39.690666 
L 79.001318 -38.84125 
L 78.912129 -37.991833 
L 78.835647 -37.142416 
L 78.768995 -36.293 
L 78.709922 -35.443583 
L 78.656326 -34.594167 
L 78.606403 -33.74475 
L 78.559266 -32.895333 
L 78.515295 -32.045917 
L 78.475848 -31.1965 
L 78.442443 -30.347083 
L 78.415737 -29.497667 
L 78.3949 -28.64825 
L 78.377898 -27.798833 
L 78.362604 -26.949417 
L 78.347913 -26.1 
z
"/>
    </defs>
    <g clip-path="url(#pe83647a8fa)">
     <use xlink:href="#m63d3fbe8f2" x="0" y="180" style="fill: #2e8b57; fill-opacity: 0.4"/>
    </g>
   </g>
   <g id="PolyCollection_3">
    <defs>
     <path id="m10b8c8ebad" d="M 106.207745 -93.655501 
L 106.200188 -93.655501 
L 106.200188 -94.245849 
L 106.200188 -94.836198 
L 106.200188 -95.426546 
L 106.200188 -96.016895 
L 106.200188 -96.607243 
L 106.200188 -97.197592 
L 106.200188 -97.78794 
L 106.200188 -98.378289 
L 106.200188 -98.968637 
L 106.200188 -99.558986 
L 106.200188 -100.149334 
L 106.200188 -100.739683 
L 106.200188 -101.330031 
L 106.200188 -101.92038 
L 106.200188 -102.510728 
L 106.200188 -103.101077 
L 106.200188 -103.691425 
L 106.200188 -104.281773 
L 106.200188 -104.872122 
L 106.200188 -105.46247 
L 106.200188 -106.052819 
L 106.200188 -106.643167 
L 106.200188 -107.233516 
L 106.200188 -107.823864 
L 106.200188 -108.414213 
L 106.200188 -109.004561 
L 106.200188 -109.59491 
L 106.200188 -110.185258 
L 106.200188 -110.775607 
L 106.200188 -111.365955 
L 106.200188 -111.956304 
L 106.200188 -112.546652 
L 106.200188 -113.137001 
L 106.200188 -113.727349 
L 106.200188 -114.317698 
L 106.200188 -114.908046 
L 106.200188 -115.498395 
L 106.200188 -116.088743 
L 106.200188 -116.679091 
L 106.200188 -117.26944 
L 106.200188 -117.859788 
L 106.200188 -118.450137 
L 106.200188 -119.040485 
L 106.200188 -119.630834 
L 106.200188 -120.221182 
L 106.200188 -120.811531 
L 106.200188 -121.401879 
L 106.200188 -121.992228 
L 106.200188 -122.582576 
L 106.200188 -123.172925 
L 106.200188 -123.763273 
L 106.200188 -124.353622 
L 106.200188 -124.94397 
L 106.200188 -125.534319 
L 106.200188 -126.124667 
L 106.200188 -126.715016 
L 106.200188 -127.305364 
L 106.200188 -127.895712 
L 106.200188 -128.486061 
L 106.200188 -129.076409 
L 106.200188 -129.666758 
L 106.200188 -130.257106 
L 106.200188 -130.847455 
L 106.200188 -131.437803 
L 106.200188 -132.028152 
L 106.200188 -132.6185 
L 106.200188 -133.208849 
L 106.200188 -133.799197 
L 106.200188 -134.389546 
L 106.200188 -134.979894 
L 106.200188 -135.570243 
L 106.200188 -136.160591 
L 106.200188 -136.75094 
L 106.200188 -137.341288 
L 106.200188 -137.931637 
L 106.200188 -138.521985 
L 106.200188 -139.112334 
L 106.200188 -139.702682 
L 106.200188 -140.29303 
L 106.200188 -140.883379 
L 106.200188 -141.473727 
L 106.200188 -142.064076 
L 106.200188 -142.654424 
L 106.200188 -143.244773 
L 106.200188 -143.835121 
L 106.200188 -144.42547 
L 106.200188 -145.015818 
L 106.200188 -145.606167 
L 106.200188 -146.196515 
L 106.200188 -146.786864 
L 106.200188 -147.377212 
L 106.200188 -147.967561 
L 106.200188 -148.557909 
L 106.200188 -149.148258 
L 106.200188 -149.738606 
L 106.200188 -150.328955 
L 106.200188 -150.919303 
L 106.200188 -151.509652 
L 106.200188 -152.1 
L 106.222679 -152.1 
L 106.222679 -152.1 
L 106.229457 -151.509652 
L 106.237944 -150.919303 
L 106.249726 -150.328955 
L 106.265677 -149.738606 
L 106.285693 -149.148258 
L 106.309481 -148.557909 
L 106.337152 -147.967561 
L 106.368683 -147.377212 
L 106.403242 -146.786864 
L 106.440148 -146.196515 
L 106.481093 -145.606167 
L 106.530851 -145.015818 
L 106.59487 -144.42547 
L 106.675559 -143.835121 
L 106.770083 -143.244773 
L 106.871 -142.654424 
L 106.969895 -142.064076 
L 107.062908 -141.473727 
L 107.154707 -140.883379 
L 107.257745 -140.29303 
L 107.3876 -139.702682 
L 107.557648 -139.112334 
L 107.774804 -138.521985 
L 108.036957 -137.931637 
L 108.334022 -137.341288 
L 108.653626 -136.75094 
L 108.987492 -136.160591 
L 109.332227 -135.570243 
L 109.684334 -134.979894 
L 110.036624 -134.389546 
L 110.38097 -133.799197 
L 110.71285 -133.208849 
L 111.030518 -132.6185 
L 111.330169 -132.028152 
L 111.605851 -131.437803 
L 111.857503 -130.847455 
L 112.097163 -130.257106 
L 112.34009 -129.666758 
L 112.584799 -129.076409 
L 112.805764 -128.486061 
L 112.973111 -127.895712 
L 113.079464 -127.305364 
L 113.141592 -126.715016 
L 113.175 -126.124667 
L 113.172889 -125.534319 
L 113.113496 -124.94397 
L 112.984982 -124.353622 
L 112.799193 -123.763273 
L 112.581211 -123.172925 
L 112.348412 -122.582576 
L 112.101307 -121.992228 
L 111.8329 -121.401879 
L 111.543981 -120.811531 
L 111.248171 -120.221182 
L 110.961718 -119.630834 
L 110.68702 -119.040485 
L 110.40664 -118.450137 
L 110.097607 -117.859788 
L 109.75517 -117.26944 
L 109.402131 -116.679091 
L 109.073038 -116.088743 
L 108.788108 -115.498395 
L 108.540834 -114.908046 
L 108.308488 -114.317698 
L 108.073347 -113.727349 
L 107.834694 -113.137001 
L 107.603354 -112.546652 
L 107.388592 -111.956304 
L 107.192134 -111.365955 
L 107.012541 -110.775607 
L 106.851511 -110.185258 
L 106.714668 -109.59491 
L 106.607433 -109.004561 
L 106.530762 -108.414213 
L 106.48 -107.823864 
L 106.446994 -107.233516 
L 106.423431 -106.643167 
L 106.402945 -106.052819 
L 106.381307 -105.46247 
L 106.35606 -104.872122 
L 106.326824 -104.281773 
L 106.295621 -103.691425 
L 106.266028 -103.101077 
L 106.2414 -102.510728 
L 106.223529 -101.92038 
L 106.212446 -101.330031 
L 106.207009 -100.739683 
L 106.205554 -100.149334 
L 106.20627 -99.558986 
L 106.207434 -98.968637 
L 106.207765 -98.378289 
L 106.206833 -97.78794 
L 106.205129 -97.197592 
L 106.203613 -96.607243 
L 106.203094 -96.016895 
L 106.203836 -95.426546 
L 106.205458 -94.836198 
L 106.207078 -94.245849 
L 106.207745 -93.655501 
z
"/>
    </defs>
    <g clip-path="url(#pe83647a8fa)">
     <use xlink:href="#m10b8c8ebad" x="0" y="180" style="fill: #ff4500; fill-opacity: 0.4"/>
    </g>
   </g>
   <g id="PolyCollection_4">
    <defs>
     <path id="m000ed1db11" d="M 134.111108 -43.830451 
L 134.100179 -43.830451 
L 134.100179 -44.473173 
L 134.100179 -45.115895 
L 134.100179 -45.758618 
L 134.100179 -46.40134 
L 134.100179 -47.044063 
L 134.100179 -47.686785 
L 134.100179 -48.329507 
L 134.100179 -48.97223 
L 134.100179 -49.614952 
L 134.100179 -50.257674 
L 134.100179 -50.900397 
L 134.100179 -51.543119 
L 134.100179 -52.185841 
L 134.100179 -52.828564 
L 134.100179 -53.471286 
L 134.100179 -54.114009 
L 134.100179 -54.756731 
L 134.100179 -55.399453 
L 134.100179 -56.042176 
L 134.100179 -56.684898 
L 134.100179 -57.32762 
L 134.100179 -57.970343 
L 134.100179 -58.613065 
L 134.100179 -59.255787 
L 134.100179 -59.89851 
L 134.100179 -60.541232 
L 134.100179 -61.183954 
L 134.100179 -61.826677 
L 134.100179 -62.469399 
L 134.100179 -63.112122 
L 134.100179 -63.754844 
L 134.100179 -64.397566 
L 134.100179 -65.040289 
L 134.100179 -65.683011 
L 134.100179 -66.325733 
L 134.100179 -66.968456 
L 134.100179 -67.611178 
L 134.100179 -68.2539 
L 134.100179 -68.896623 
L 134.100179 -69.539345 
L 134.100179 -70.182067 
L 134.100179 -70.82479 
L 134.100179 -71.467512 
L 134.100179 -72.110235 
L 134.100179 -72.752957 
L 134.100179 -73.395679 
L 134.100179 -74.038402 
L 134.100179 -74.681124 
L 134.100179 -75.323846 
L 134.100179 -75.966569 
L 134.100179 -76.609291 
L 134.100179 -77.252013 
L 134.100179 -77.894736 
L 134.100179 -78.537458 
L 134.100179 -79.18018 
L 134.100179 -79.822903 
L 134.100179 -80.465625 
L 134.100179 -81.108348 
L 134.100179 -81.75107 
L 134.100179 -82.393792 
L 134.100179 -83.036515 
L 134.100179 -83.679237 
L 134.100179 -84.321959 
L 134.100179 -84.964682 
L 134.100179 -85.607404 
L 134.100179 -86.250126 
L 134.100179 -86.892849 
L 134.100179 -87.535571 
L 134.100179 -88.178293 
L 134.100179 -88.821016 
L 134.100179 -89.463738 
L 134.100179 -90.106461 
L 134.100179 -90.749183 
L 134.100179 -91.391905 
L 134.100179 -92.034628 
L 134.100179 -92.67735 
L 134.100179 -93.320072 
L 134.100179 -93.962795 
L 134.100179 -94.605517 
L 134.100179 -95.248239 
L 134.100179 -95.890962 
L 134.100179 -96.533684 
L 134.100179 -97.176406 
L 134.100179 -97.819129 
L 134.100179 -98.461851 
L 134.100179 -99.104574 
L 134.100179 -99.747296 
L 134.100179 -100.390018 
L 134.100179 -101.032741 
L 134.100179 -101.675463 
L 134.100179 -102.318185 
L 134.100179 -102.960908 
L 134.100179 -103.60363 
L 134.100179 -104.246352 
L 134.100179 -104.889075 
L 134.100179 -105.531797 
L 134.100179 -106.174519 
L 134.100179 -106.817242 
L 134.100179 -107.459964 
L 134.114185 -107.459964 
L 134.114185 -107.459964 
L 134.115988 -106.817242 
L 134.116708 -106.174519 
L 134.117429 -105.531797 
L 134.119351 -104.889075 
L 134.122831 -104.246352 
L 134.127188 -103.60363 
L 134.131405 -102.960908 
L 134.134949 -102.318185 
L 134.138019 -101.675463 
L 134.141314 -101.032741 
L 134.145943 -100.390018 
L 134.153591 -99.747296 
L 134.166421 -99.104574 
L 134.186228 -98.461851 
L 134.213382 -97.819129 
L 134.246706 -97.176406 
L 134.284862 -96.533684 
L 134.328177 -95.890962 
L 134.378907 -95.248239 
L 134.43926 -94.605517 
L 134.509148 -93.962795 
L 134.586637 -93.320072 
L 134.671603 -92.67735 
L 134.769067 -92.034628 
L 134.887977 -91.391905 
L 135.035804 -90.749183 
L 135.214155 -90.106461 
L 135.418985 -89.463738 
L 135.643217 -88.821016 
L 135.878847 -88.178293 
L 136.119881 -87.535571 
L 136.366902 -86.892849 
L 136.628147 -86.250126 
L 136.913348 -85.607404 
L 137.226498 -84.964682 
L 137.565435 -84.321959 
L 137.924892 -83.679237 
L 138.295106 -83.036515 
L 138.658822 -82.393792 
L 138.99534 -81.75107 
L 139.290001 -81.108348 
L 139.540258 -80.465625 
L 139.755875 -79.822903 
L 139.955054 -79.18018 
L 140.15552 -78.537458 
L 140.36363 -77.894736 
L 140.571213 -77.252013 
L 140.762254 -76.609291 
L 140.919844 -75.966569 
L 141.028239 -75.323846 
L 141.075 -74.681124 
L 141.054983 -74.038402 
L 140.970851 -73.395679 
L 140.829845 -72.752957 
L 140.644106 -72.110235 
L 140.435541 -71.467512 
L 140.234543 -70.82479 
L 140.064825 -70.182067 
L 139.923464 -69.539345 
L 139.775132 -68.896623 
L 139.570186 -68.2539 
L 139.27627 -67.611178 
L 138.900091 -66.968456 
L 138.482106 -66.325733 
L 138.06884 -65.683011 
L 137.686202 -65.040289 
L 137.334306 -64.397566 
L 137.002702 -63.754844 
L 136.687069 -63.112122 
L 136.392395 -62.469399 
L 136.125969 -61.826677 
L 135.892099 -61.183954 
L 135.691783 -60.541232 
L 135.522337 -59.89851 
L 135.376212 -59.255787 
L 135.243017 -58.613065 
L 135.114482 -57.970343 
L 134.9877 -57.32762 
L 134.864871 -56.684898 
L 134.751207 -56.042176 
L 134.651831 -55.399453 
L 134.568439 -54.756731 
L 134.498274 -54.114009 
L 134.436706 -53.471286 
L 134.380654 -52.828564 
L 134.329516 -52.185841 
L 134.283815 -51.543119 
L 134.244003 -50.900397 
L 134.210427 -50.257674 
L 134.183537 -49.614952 
L 134.16349 -48.97223 
L 134.149512 -48.329507 
L 134.139846 -47.686785 
L 134.13253 -47.044063 
L 134.126344 -46.40134 
L 134.121058 -45.758618 
L 134.116874 -45.115895 
L 134.113724 -44.473173 
L 134.111108 -43.830451 
z
"/>
    </defs>
    <g clip-path="url(#pe83647a8fa)">
     <use xlink:href="#m000ed1db11" x="0" y="180" style="fill: #2e8b57; fill-opacity: 0.4"/>
    </g>
   </g>
   <g id="PolyCollection_5">
    <path d="M 22.5 100.780398 
L 22.5 115.895776 
L 22.779 115.895776 
L 23.058 115.895776 
L 23.337 115.895776 
L 23.616 115.895776 
L 23.895 115.895776 
L 24.174 115.895776 
L 24.453 115.895776 
L 24.732 115.895776 
L 25.011 115.895776 
L 25.29 115.895776 
L 25.569 115.895776 
L 25.848 115.895776 
L 26.127 115.895776 
L 26.406 115.895776 
L 26.685 115.895776 
L 26.964 115.895776 
L 27.243 115.895776 
L 27.522 115.895776 
L 27.801 115.895776 
L 28.08 115.895776 
L 28.359 115.895776 
L 28.638 115.895776 
L 28.917 115.895776 
L 29.196 115.895776 
L 29.475 115.895776 
L 29.754 115.895776 
L 30.033 115.895776 
L 30.312 115.895776 
L 30.591 115.895776 
L 30.87 115.895776 
L 31.149 115.895776 
L 31.428 115.895776 
L 31.707 115.895776 
L 31.986 115.895776 
L 32.265 115.895776 
L 32.544 115.895776 
L 32.823 115.895776 
L 33.102 115.895776 
L 33.381 115.895776 
L 33.66 115.895776 
L 33.939 115.895776 
L 34.218 115.895776 
L 34.497 115.895776 
L 34.776 115.895776 
L 35.055 115.895776 
L 35.334 115.895776 
L 35.613 115.895776 
L 35.892 115.895776 
L 36.171 115.895776 
L 36.45 115.895776 
L 36.729 115.895776 
L 37.008 115.895776 
L 37.287 115.895776 
L 37.566 115.895776 
L 37.845 115.895776 
L 38.124 115.895776 
L 38.403 115.895776 
L 38.682 115.895776 
L 38.961 115.895776 
L 39.24 115.895776 
L 39.519 115.895776 
L 39.798 115.895776 
L 40.077 115.895776 
L 40.356 115.895776 
L 40.635 115.895776 
L 40.914 115.895776 
L 41.193 115.895776 
L 41.472 115.895776 
L 41.751 115.895776 
L 42.03 115.895776 
L 42.309 115.895776 
L 42.588 115.895776 
L 42.867 115.895776 
L 43.146 115.895776 
L 43.425 115.895776 
L 43.704 115.895776 
L 43.983 115.895776 
L 44.262 115.895776 
L 44.541 115.895776 
L 44.82 115.895776 
L 45.099 115.895776 
L 45.378 115.895776 
L 45.657 115.895776 
L 45.936 115.895776 
L 46.215 115.895776 
L 46.494 115.895776 
L 46.773 115.895776 
L 47.052 115.895776 
L 47.331 115.895776 
L 47.61 115.895776 
L 47.889 115.895776 
L 48.168 115.895776 
L 48.447 115.895776 
L 48.726 115.895776 
L 49.005 115.895776 
L 49.284 115.895776 
L 49.563 115.895776 
L 49.842 115.895776 
L 50.121 115.895776 
L 50.4 115.895776 
L 50.679 115.895776 
L 50.958 115.895776 
L 51.237 115.895776 
L 51.516 115.895776 
L 51.795 115.895776 
L 52.074 115.895776 
L 52.353 115.895776 
L 52.632 115.895776 
L 52.911 115.895776 
L 53.19 115.895776 
L 53.469 115.895776 
L 53.748 115.895776 
L 54.027 115.895776 
L 54.306 115.895776 
L 54.585 115.895776 
L 54.864 115.895776 
L 55.143 115.895776 
L 55.422 115.895776 
L 55.701 115.895776 
L 55.98 115.895776 
L 56.259 115.895776 
L 56.538 115.895776 
L 56.817 115.895776 
L 57.096 115.895776 
L 57.375 115.895776 
L 57.654 115.895776 
L 57.933 115.895776 
L 58.212 115.895776 
L 58.491 115.895776 
L 58.77 115.895776 
L 59.049 115.895776 
L 59.328 115.895776 
L 59.607 115.895776 
L 59.886 115.895776 
L 60.165 115.895776 
L 60.444 115.895776 
L 60.723 115.895776 
L 61.002 115.895776 
L 61.281 115.895776 
L 61.56 115.895776 
L 61.839 115.895776 
L 62.118 115.895776 
L 62.397 115.895776 
L 62.676 115.895776 
L 62.955 115.895776 
L 63.234 115.895776 
L 63.513 115.895776 
L 63.792 115.895776 
L 64.071 115.895776 
L 64.35 115.895776 
L 64.629 115.895776 
L 64.908 115.895776 
L 65.187 115.895776 
L 65.466 115.895776 
L 65.745 115.895776 
L 66.024 115.895776 
L 66.303 115.895776 
L 66.582 115.895776 
L 66.861 115.895776 
L 67.14 115.895776 
L 67.419 115.895776 
L 67.698 115.895776 
L 67.977 115.895776 
L 68.256 115.895776 
L 68.535 115.895776 
L 68.814 115.895776 
L 69.093 115.895776 
L 69.372 115.895776 
L 69.651 115.895776 
L 69.93 115.895776 
L 70.209 115.895776 
L 70.488 115.895776 
L 70.767 115.895776 
L 71.046 115.895776 
L 71.325 115.895776 
L 71.604 115.895776 
L 71.883 115.895776 
L 72.162 115.895776 
L 72.441 115.895776 
L 72.72 115.895776 
L 72.999 115.895776 
L 73.278 115.895776 
L 73.557 115.895776 
L 73.836 115.895776 
L 74.115 115.895776 
L 74.394 115.895776 
L 74.673 115.895776 
L 74.952 115.895776 
L 75.231 115.895776 
L 75.51 115.895776 
L 75.789 115.895776 
L 76.068 115.895776 
L 76.347 115.895776 
L 76.626 115.895776 
L 76.905 115.895776 
L 77.184 115.895776 
L 77.463 115.895776 
L 77.742 115.895776 
L 78.021 115.895776 
L 78.3 115.895776 
L 78.579 115.895776 
L 78.858 115.895776 
L 79.137 115.895776 
L 79.416 115.895776 
L 79.695 115.895776 
L 79.974 115.895776 
L 80.253 115.895776 
L 80.532 115.895776 
L 80.811 115.895776 
L 81.09 115.895776 
L 81.369 115.895776 
L 81.648 115.895776 
L 81.927 115.895776 
L 82.206 115.895776 
L 82.485 115.895776 
L 82.764 115.895776 
L 83.043 115.895776 
L 83.322 115.895776 
L 83.601 115.895776 
L 83.88 115.895776 
L 84.159 115.895776 
L 84.438 115.895776 
L 84.717 115.895776 
L 84.996 115.895776 
L 85.275 115.895776 
L 85.554 115.895776 
L 85.833 115.895776 
L 86.112 115.895776 
L 86.391 115.895776 
L 86.67 115.895776 
L 86.949 115.895776 
L 87.228 115.895776 
L 87.507 115.895776 
L 87.786 115.895776 
L 88.065 115.895776 
L 88.344 115.895776 
L 88.623 115.895776 
L 88.902 115.895776 
L 89.181 115.895776 
L 89.46 115.895776 
L 89.739 115.895776 
L 90.018 115.895776 
L 90.297 115.895776 
L 90.576 115.895776 
L 90.855 115.895776 
L 91.134 115.895776 
L 91.413 115.895776 
L 91.692 115.895776 
L 91.971 115.895776 
L 92.25 115.895776 
L 92.529 115.895776 
L 92.808 115.895776 
L 93.087 115.895776 
L 93.366 115.895776 
L 93.645 115.895776 
L 93.924 115.895776 
L 94.203 115.895776 
L 94.482 115.895776 
L 94.761 115.895776 
L 95.04 115.895776 
L 95.319 115.895776 
L 95.598 115.895776 
L 95.877 115.895776 
L 96.156 115.895776 
L 96.435 115.895776 
L 96.714 115.895776 
L 96.993 115.895776 
L 97.272 115.895776 
L 97.551 115.895776 
L 97.83 115.895776 
L 98.109 115.895776 
L 98.388 115.895776 
L 98.667 115.895776 
L 98.946 115.895776 
L 99.225 115.895776 
L 99.504 115.895776 
L 99.783 115.895776 
L 100.062 115.895776 
L 100.341 115.895776 
L 100.62 115.895776 
L 100.899 115.895776 
L 101.178 115.895776 
L 101.457 115.895776 
L 101.736 115.895776 
L 102.015 115.895776 
L 102.294 115.895776 
L 102.573 115.895776 
L 102.852 115.895776 
L 103.131 115.895776 
L 103.41 115.895776 
L 103.689 115.895776 
L 103.968 115.895776 
L 104.247 115.895776 
L 104.526 115.895776 
L 104.805 115.895776 
L 105.084 115.895776 
L 105.363 115.895776 
L 105.642 115.895776 
L 105.921 115.895776 
L 106.2 115.895776 
L 106.479 115.895776 
L 106.758 115.895776 
L 107.037 115.895776 
L 107.316 115.895776 
L 107.595 115.895776 
L 107.874 115.895776 
L 108.153 115.895776 
L 108.432 115.895776 
L 108.711 115.895776 
L 108.99 115.895776 
L 109.269 115.895776 
L 109.548 115.895776 
L 109.827 115.895776 
L 110.106 115.895776 
L 110.385 115.895776 
L 110.664 115.895776 
L 110.943 115.895776 
L 111.222 115.895776 
L 111.501 115.895776 
L 111.78 115.895776 
L 112.059 115.895776 
L 112.338 115.895776 
L 112.617 115.895776 
L 112.896 115.895776 
L 113.175 115.895776 
L 113.454 115.895776 
L 113.733 115.895776 
L 114.012 115.895776 
L 114.291 115.895776 
L 114.57 115.895776 
L 114.849 115.895776 
L 115.128 115.895776 
L 115.407 115.895776 
L 115.686 115.895776 
L 115.965 115.895776 
L 116.244 115.895776 
L 116.523 115.895776 
L 116.802 115.895776 
L 117.081 115.895776 
L 117.36 115.895776 
L 117.639 115.895776 
L 117.918 115.895776 
L 118.197 115.895776 
L 118.476 115.895776 
L 118.755 115.895776 
L 119.034 115.895776 
L 119.313 115.895776 
L 119.592 115.895776 
L 119.871 115.895776 
L 120.15 115.895776 
L 120.429 115.895776 
L 120.708 115.895776 
L 120.987 115.895776 
L 121.266 115.895776 
L 121.545 115.895776 
L 121.824 115.895776 
L 122.103 115.895776 
L 122.382 115.895776 
L 122.661 115.895776 
L 122.94 115.895776 
L 123.219 115.895776 
L 123.498 115.895776 
L 123.777 115.895776 
L 124.056 115.895776 
L 124.335 115.895776 
L 124.614 115.895776 
L 124.893 115.895776 
L 125.172 115.895776 
L 125.451 115.895776 
L 125.73 115.895776 
L 126.009 115.895776 
L 126.288 115.895776 
L 126.567 115.895776 
L 126.846 115.895776 
L 127.125 115.895776 
L 127.404 115.895776 
L 127.683 115.895776 
L 127.962 115.895776 
L 128.241 115.895776 
L 128.52 115.895776 
L 128.799 115.895776 
L 129.078 115.895776 
L 129.357 115.895776 
L 129.636 115.895776 
L 129.915 115.895776 
L 130.194 115.895776 
L 130.473 115.895776 
L 130.752 115.895776 
L 131.031 115.895776 
L 131.31 115.895776 
L 131.589 115.895776 
L 131.868 115.895776 
L 132.147 115.895776 
L 132.426 115.895776 
L 132.705 115.895776 
L 132.984 115.895776 
L 133.263 115.895776 
L 133.542 115.895776 
L 133.821 115.895776 
L 134.1 115.895776 
L 134.379 115.895776 
L 134.658 115.895776 
L 134.937 115.895776 
L 135.216 115.895776 
L 135.495 115.895776 
L 135.774 115.895776 
L 136.053 115.895776 
L 136.332 115.895776 
L 136.611 115.895776 
L 136.89 115.895776 
L 137.169 115.895776 
L 137.448 115.895776 
L 137.727 115.895776 
L 138.006 115.895776 
L 138.285 115.895776 
L 138.564 115.895776 
L 138.843 115.895776 
L 139.122 115.895776 
L 139.401 115.895776 
L 139.68 115.895776 
L 139.959 115.895776 
L 140.238 115.895776 
L 140.517 115.895776 
L 140.796 115.895776 
L 141.075 115.895776 
L 141.354 115.895776 
L 141.633 115.895776 
L 141.912 115.895776 
L 142.191 115.895776 
L 142.47 115.895776 
L 142.749 115.895776 
L 143.028 115.895776 
L 143.307 115.895776 
L 143.586 115.895776 
L 143.865 115.895776 
L 144.144 115.895776 
L 144.423 115.895776 
L 144.702 115.895776 
L 144.981 115.895776 
L 145.26 115.895776 
L 145.539 115.895776 
L 145.818 115.895776 
L 146.097 115.895776 
L 146.376 115.895776 
L 146.655 115.895776 
L 146.934 115.895776 
L 147.213 115.895776 
L 147.492 115.895776 
L 147.771 115.895776 
L 148.05 115.895776 
L 148.329 115.895776 
L 148.608 115.895776 
L 148.887 115.895776 
L 149.166 115.895776 
L 149.445 115.895776 
L 149.724 115.895776 
L 150.003 115.895776 
L 150.282 115.895776 
L 150.561 115.895776 
L 150.84 115.895776 
L 151.119 115.895776 
L 151.398 115.895776 
L 151.677 115.895776 
L 151.956 115.895776 
L 152.235 115.895776 
L 152.514 115.895776 
L 152.793 115.895776 
L 153.072 115.895776 
L 153.351 115.895776 
L 153.63 115.895776 
L 153.909 115.895776 
L 154.188 115.895776 
L 154.467 115.895776 
L 154.746 115.895776 
L 155.025 115.895776 
L 155.304 115.895776 
L 155.583 115.895776 
L 155.862 115.895776 
L 156.141 115.895776 
L 156.42 115.895776 
L 156.699 115.895776 
L 156.978 115.895776 
L 157.257 115.895776 
L 157.536 115.895776 
L 157.815 115.895776 
L 158.094 115.895776 
L 158.373 115.895776 
L 158.652 115.895776 
L 158.931 115.895776 
L 159.21 115.895776 
L 159.489 115.895776 
L 159.768 115.895776 
L 160.047 115.895776 
L 160.326 115.895776 
L 160.605 115.895776 
L 160.884 115.895776 
L 161.163 115.895776 
L 161.442 115.895776 
L 161.721 115.895776 
L 161.721 100.780398 
L 161.721 100.780398 
L 161.442 100.780398 
L 161.163 100.780398 
L 160.884 100.780398 
L 160.605 100.780398 
L 160.326 100.780398 
L 160.047 100.780398 
L 159.768 100.780398 
L 159.489 100.780398 
L 159.21 100.780398 
L 158.931 100.780398 
L 158.652 100.780398 
L 158.373 100.780398 
L 158.094 100.780398 
L 157.815 100.780398 
L 157.536 100.780398 
L 157.257 100.780398 
L 156.978 100.780398 
L 156.699 100.780398 
L 156.42 100.780398 
L 156.141 100.780398 
L 155.862 100.780398 
L 155.583 100.780398 
L 155.304 100.780398 
L 155.025 100.780398 
L 154.746 100.780398 
L 154.467 100.780398 
L 154.188 100.780398 
L 153.909 100.780398 
L 153.63 100.780398 
L 153.351 100.780398 
L 153.072 100.780398 
L 152.793 100.780398 
L 152.514 100.780398 
L 152.235 100.780398 
L 151.956 100.780398 
L 151.677 100.780398 
L 151.398 100.780398 
L 151.119 100.780398 
L 150.84 100.780398 
L 150.561 100.780398 
L 150.282 100.780398 
L 150.003 100.780398 
L 149.724 100.780398 
L 149.445 100.780398 
L 149.166 100.780398 
L 148.887 100.780398 
L 148.608 100.780398 
L 148.329 100.780398 
L 148.05 100.780398 
L 147.771 100.780398 
L 147.492 100.780398 
L 147.213 100.780398 
L 146.934 100.780398 
L 146.655 100.780398 
L 146.376 100.780398 
L 146.097 100.780398 
L 145.818 100.780398 
L 145.539 100.780398 
L 145.26 100.780398 
L 144.981 100.780398 
L 144.702 100.780398 
L 144.423 100.780398 
L 144.144 100.780398 
L 143.865 100.780398 
L 143.586 100.780398 
L 143.307 100.780398 
L 143.028 100.780398 
L 142.749 100.780398 
L 142.47 100.780398 
L 142.191 100.780398 
L 141.912 100.780398 
L 141.633 100.780398 
L 141.354 100.780398 
L 141.075 100.780398 
L 140.796 100.780398 
L 140.517 100.780398 
L 140.238 100.780398 
L 139.959 100.780398 
L 139.68 100.780398 
L 139.401 100.780398 
L 139.122 100.780398 
L 138.843 100.780398 
L 138.564 100.780398 
L 138.285 100.780398 
L 138.006 100.780398 
L 137.727 100.780398 
L 137.448 100.780398 
L 137.169 100.780398 
L 136.89 100.780398 
L 136.611 100.780398 
L 136.332 100.780398 
L 136.053 100.780398 
L 135.774 100.780398 
L 135.495 100.780398 
L 135.216 100.780398 
L 134.937 100.780398 
L 134.658 100.780398 
L 134.379 100.780398 
L 134.1 100.780398 
L 133.821 100.780398 
L 133.542 100.780398 
L 133.263 100.780398 
L 132.984 100.780398 
L 132.705 100.780398 
L 132.426 100.780398 
L 132.147 100.780398 
L 131.868 100.780398 
L 131.589 100.780398 
L 131.31 100.780398 
L 131.031 100.780398 
L 130.752 100.780398 
L 130.473 100.780398 
L 130.194 100.780398 
L 129.915 100.780398 
L 129.636 100.780398 
L 129.357 100.780398 
L 129.078 100.780398 
L 128.799 100.780398 
L 128.52 100.780398 
L 128.241 100.780398 
L 127.962 100.780398 
L 127.683 100.780398 
L 127.404 100.780398 
L 127.125 100.780398 
L 126.846 100.780398 
L 126.567 100.780398 
L 126.288 100.780398 
L 126.009 100.780398 
L 125.73 100.780398 
L 125.451 100.780398 
L 125.172 100.780398 
L 124.893 100.780398 
L 124.614 100.780398 
L 124.335 100.780398 
L 124.056 100.780398 
L 123.777 100.780398 
L 123.498 100.780398 
L 123.219 100.780398 
L 122.94 100.780398 
L 122.661 100.780398 
L 122.382 100.780398 
L 122.103 100.780398 
L 121.824 100.780398 
L 121.545 100.780398 
L 121.266 100.780398 
L 120.987 100.780398 
L 120.708 100.780398 
L 120.429 100.780398 
L 120.15 100.780398 
L 119.871 100.780398 
L 119.592 100.780398 
L 119.313 100.780398 
L 119.034 100.780398 
L 118.755 100.780398 
L 118.476 100.780398 
L 118.197 100.780398 
L 117.918 100.780398 
L 117.639 100.780398 
L 117.36 100.780398 
L 117.081 100.780398 
L 116.802 100.780398 
L 116.523 100.780398 
L 116.244 100.780398 
L 115.965 100.780398 
L 115.686 100.780398 
L 115.407 100.780398 
L 115.128 100.780398 
L 114.849 100.780398 
L 114.57 100.780398 
L 114.291 100.780398 
L 114.012 100.780398 
L 113.733 100.780398 
L 113.454 100.780398 
L 113.175 100.780398 
L 112.896 100.780398 
L 112.617 100.780398 
L 112.338 100.780398 
L 112.059 100.780398 
L 111.78 100.780398 
L 111.501 100.780398 
L 111.222 100.780398 
L 110.943 100.780398 
L 110.664 100.780398 
L 110.385 100.780398 
L 110.106 100.780398 
L 109.827 100.780398 
L 109.548 100.780398 
L 109.269 100.780398 
L 108.99 100.780398 
L 108.711 100.780398 
L 108.432 100.780398 
L 108.153 100.780398 
L 107.874 100.780398 
L 107.595 100.780398 
L 107.316 100.780398 
L 107.037 100.780398 
L 106.758 100.780398 
L 106.479 100.780398 
L 106.2 100.780398 
L 105.921 100.780398 
L 105.642 100.780398 
L 105.363 100.780398 
L 105.084 100.780398 
L 104.805 100.780398 
L 104.526 100.780398 
L 104.247 100.780398 
L 103.968 100.780398 
L 103.689 100.780398 
L 103.41 100.780398 
L 103.131 100.780398 
L 102.852 100.780398 
L 102.573 100.780398 
L 102.294 100.780398 
L 102.015 100.780398 
L 101.736 100.780398 
L 101.457 100.780398 
L 101.178 100.780398 
L 100.899 100.780398 
L 100.62 100.780398 
L 100.341 100.780398 
L 100.062 100.780398 
L 99.783 100.780398 
L 99.504 100.780398 
L 99.225 100.780398 
L 98.946 100.780398 
L 98.667 100.780398 
L 98.388 100.780398 
L 98.109 100.780398 
L 97.83 100.780398 
L 97.551 100.780398 
L 97.272 100.780398 
L 96.993 100.780398 
L 96.714 100.780398 
L 96.435 100.780398 
L 96.156 100.780398 
L 95.877 100.780398 
L 95.598 100.780398 
L 95.319 100.780398 
L 95.04 100.780398 
L 94.761 100.780398 
L 94.482 100.780398 
L 94.203 100.780398 
L 93.924 100.780398 
L 93.645 100.780398 
L 93.366 100.780398 
L 93.087 100.780398 
L 92.808 100.780398 
L 92.529 100.780398 
L 92.25 100.780398 
L 91.971 100.780398 
L 91.692 100.780398 
L 91.413 100.780398 
L 91.134 100.780398 
L 90.855 100.780398 
L 90.576 100.780398 
L 90.297 100.780398 
L 90.018 100.780398 
L 89.739 100.780398 
L 89.46 100.780398 
L 89.181 100.780398 
L 88.902 100.780398 
L 88.623 100.780398 
L 88.344 100.780398 
L 88.065 100.780398 
L 87.786 100.780398 
L 87.507 100.780398 
L 87.228 100.780398 
L 86.949 100.780398 
L 86.67 100.780398 
L 86.391 100.780398 
L 86.112 100.780398 
L 85.833 100.780398 
L 85.554 100.780398 
L 85.275 100.780398 
L 84.996 100.780398 
L 84.717 100.780398 
L 84.438 100.780398 
L 84.159 100.780398 
L 83.88 100.780398 
L 83.601 100.780398 
L 83.322 100.780398 
L 83.043 100.780398 
L 82.764 100.780398 
L 82.485 100.780398 
L 82.206 100.780398 
L 81.927 100.780398 
L 81.648 100.780398 
L 81.369 100.780398 
L 81.09 100.780398 
L 80.811 100.780398 
L 80.532 100.780398 
L 80.253 100.780398 
L 79.974 100.780398 
L 79.695 100.780398 
L 79.416 100.780398 
L 79.137 100.780398 
L 78.858 100.780398 
L 78.579 100.780398 
L 78.3 100.780398 
L 78.021 100.780398 
L 77.742 100.780398 
L 77.463 100.780398 
L 77.184 100.780398 
L 76.905 100.780398 
L 76.626 100.780398 
L 76.347 100.780398 
L 76.068 100.780398 
L 75.789 100.780398 
L 75.51 100.780398 
L 75.231 100.780398 
L 74.952 100.780398 
L 74.673 100.780398 
L 74.394 100.780398 
L 74.115 100.780398 
L 73.836 100.780398 
L 73.557 100.780398 
L 73.278 100.780398 
L 72.999 100.780398 
L 72.72 100.780398 
L 72.441 100.780398 
L 72.162 100.780398 
L 71.883 100.780398 
L 71.604 100.780398 
L 71.325 100.780398 
L 71.046 100.780398 
L 70.767 100.780398 
L 70.488 100.780398 
L 70.209 100.780398 
L 69.93 100.780398 
L 69.651 100.780398 
L 69.372 100.780398 
L 69.093 100.780398 
L 68.814 100.780398 
L 68.535 100.780398 
L 68.256 100.780398 
L 67.977 100.780398 
L 67.698 100.780398 
L 67.419 100.780398 
L 67.14 100.780398 
L 66.861 100.780398 
L 66.582 100.780398 
L 66.303 100.780398 
L 66.024 100.780398 
L 65.745 100.780398 
L 65.466 100.780398 
L 65.187 100.780398 
L 64.908 100.780398 
L 64.629 100.780398 
L 64.35 100.780398 
L 64.071 100.780398 
L 63.792 100.780398 
L 63.513 100.780398 
L 63.234 100.780398 
L 62.955 100.780398 
L 62.676 100.780398 
L 62.397 100.780398 
L 62.118 100.780398 
L 61.839 100.780398 
L 61.56 100.780398 
L 61.281 100.780398 
L 61.002 100.780398 
L 60.723 100.780398 
L 60.444 100.780398 
L 60.165 100.780398 
L 59.886 100.780398 
L 59.607 100.780398 
L 59.328 100.780398 
L 59.049 100.780398 
L 58.77 100.780398 
L 58.491 100.780398 
L 58.212 100.780398 
L 57.933 100.780398 
L 57.654 100.780398 
L 57.375 100.780398 
L 57.096 100.780398 
L 56.817 100.780398 
L 56.538 100.780398 
L 56.259 100.780398 
L 55.98 100.780398 
L 55.701 100.780398 
L 55.422 100.780398 
L 55.143 100.780398 
L 54.864 100.780398 
L 54.585 100.780398 
L 54.306 100.780398 
L 54.027 100.780398 
L 53.748 100.780398 
L 53.469 100.780398 
L 53.19 100.780398 
L 52.911 100.780398 
L 52.632 100.780398 
L 52.353 100.780398 
L 52.074 100.780398 
L 51.795 100.780398 
L 51.516 100.780398 
L 51.237 100.780398 
L 50.958 100.780398 
L 50.679 100.780398 
L 50.4 100.780398 
L 50.121 100.780398 
L 49.842 100.780398 
L 49.563 100.780398 
L 49.284 100.780398 
L 49.005 100.780398 
L 48.726 100.780398 
L 48.447 100.780398 
L 48.168 100.780398 
L 47.889 100.780398 
L 47.61 100.780398 
L 47.331 100.780398 
L 47.052 100.780398 
L 46.773 100.780398 
L 46.494 100.780398 
L 46.215 100.780398 
L 45.936 100.780398 
L 45.657 100.780398 
L 45.378 100.780398 
L 45.099 100.780398 
L 44.82 100.780398 
L 44.541 100.780398 
L 44.262 100.780398 
L 43.983 100.780398 
L 43.704 100.780398 
L 43.425 100.780398 
L 43.146 100.780398 
L 42.867 100.780398 
L 42.588 100.780398 
L 42.309 100.780398 
L 42.03 100.780398 
L 41.751 100.780398 
L 41.472 100.780398 
L 41.193 100.780398 
L 40.914 100.780398 
L 40.635 100.780398 
L 40.356 100.780398 
L 40.077 100.780398 
L 39.798 100.780398 
L 39.519 100.780398 
L 39.24 100.780398 
L 38.961 100.780398 
L 38.682 100.780398 
L 38.403 100.780398 
L 38.124 100.780398 
L 37.845 100.780398 
L 37.566 100.780398 
L 37.287 100.780398 
L 37.008 100.780398 
L 36.729 100.780398 
L 36.45 100.780398 
L 36.171 100.780398 
L 35.892 100.780398 
L 35.613 100.780398 
L 35.334 100.780398 
L 35.055 100.780398 
L 34.776 100.780398 
L 34.497 100.780398 
L 34.218 100.780398 
L 33.939 100.780398 
L 33.66 100.780398 
L 33.381 100.780398 
L 33.102 100.780398 
L 32.823 100.780398 
L 32.544 100.780398 
L 32.265 100.780398 
L 31.986 100.780398 
L 31.707 100.780398 
L 31.428 100.780398 
L 31.149 100.780398 
L 30.87 100.780398 
L 30.591 100.780398 
L 30.312 100.780398 
L 30.033 100.780398 
L 29.754 100.780398 
L 29.475 100.780398 
L 29.196 100.780398 
L 28.917 100.780398 
L 28.638 100.780398 
L 28.359 100.780398 
L 28.08 100.780398 
L 27.801 100.780398 
L 27.522 100.780398 
L 27.243 100.780398 
L 26.964 100.780398 
L 26.685 100.780398 
L 26.406 100.780398 
L 26.127 100.780398 
L 25.848 100.780398 
L 25.569 100.780398 
L 25.29 100.780398 
L 25.011 100.780398 
L 24.732 100.780398 
L 24.453 100.780398 
L 24.174 100.780398 
L 23.895 100.780398 
L 23.616 100.780398 
L 23.337 100.780398 
L 23.058 100.780398 
L 22.779 100.780398 
L 22.5 100.780398 
z
" clip-path="url(#pe83647a8fa)" style="fill: #d3436e; fill-opacity: 0.1"/>
   </g>
   <g id="PolyCollection_6">
    <path d="M 22.5 83.377894 
L 22.5 103.453174 
L 22.779 103.453174 
L 23.058 103.453174 
L 23.337 103.453174 
L 23.616 103.453174 
L 23.895 103.453174 
L 24.174 103.453174 
L 24.453 103.453174 
L 24.732 103.453174 
L 25.011 103.453174 
L 25.29 103.453174 
L 25.569 103.453174 
L 25.848 103.453174 
L 26.127 103.453174 
L 26.406 103.453174 
L 26.685 103.453174 
L 26.964 103.453174 
L 27.243 103.453174 
L 27.522 103.453174 
L 27.801 103.453174 
L 28.08 103.453174 
L 28.359 103.453174 
L 28.638 103.453174 
L 28.917 103.453174 
L 29.196 103.453174 
L 29.475 103.453174 
L 29.754 103.453174 
L 30.033 103.453174 
L 30.312 103.453174 
L 30.591 103.453174 
L 30.87 103.453174 
L 31.149 103.453174 
L 31.428 103.453174 
L 31.707 103.453174 
L 31.986 103.453174 
L 32.265 103.453174 
L 32.544 103.453174 
L 32.823 103.453174 
L 33.102 103.453174 
L 33.381 103.453174 
L 33.66 103.453174 
L 33.939 103.453174 
L 34.218 103.453174 
L 34.497 103.453174 
L 34.776 103.453174 
L 35.055 103.453174 
L 35.334 103.453174 
L 35.613 103.453174 
L 35.892 103.453174 
L 36.171 103.453174 
L 36.45 103.453174 
L 36.729 103.453174 
L 37.008 103.453174 
L 37.287 103.453174 
L 37.566 103.453174 
L 37.845 103.453174 
L 38.124 103.453174 
L 38.403 103.453174 
L 38.682 103.453174 
L 38.961 103.453174 
L 39.24 103.453174 
L 39.519 103.453174 
L 39.798 103.453174 
L 40.077 103.453174 
L 40.356 103.453174 
L 40.635 103.453174 
L 40.914 103.453174 
L 41.193 103.453174 
L 41.472 103.453174 
L 41.751 103.453174 
L 42.03 103.453174 
L 42.309 103.453174 
L 42.588 103.453174 
L 42.867 103.453174 
L 43.146 103.453174 
L 43.425 103.453174 
L 43.704 103.453174 
L 43.983 103.453174 
L 44.262 103.453174 
L 44.541 103.453174 
L 44.82 103.453174 
L 45.099 103.453174 
L 45.378 103.453174 
L 45.657 103.453174 
L 45.936 103.453174 
L 46.215 103.453174 
L 46.494 103.453174 
L 46.773 103.453174 
L 47.052 103.453174 
L 47.331 103.453174 
L 47.61 103.453174 
L 47.889 103.453174 
L 48.168 103.453174 
L 48.447 103.453174 
L 48.726 103.453174 
L 49.005 103.453174 
L 49.284 103.453174 
L 49.563 103.453174 
L 49.842 103.453174 
L 50.121 103.453174 
L 50.4 103.453174 
L 50.679 103.453174 
L 50.958 103.453174 
L 51.237 103.453174 
L 51.516 103.453174 
L 51.795 103.453174 
L 52.074 103.453174 
L 52.353 103.453174 
L 52.632 103.453174 
L 52.911 103.453174 
L 53.19 103.453174 
L 53.469 103.453174 
L 53.748 103.453174 
L 54.027 103.453174 
L 54.306 103.453174 
L 54.585 103.453174 
L 54.864 103.453174 
L 55.143 103.453174 
L 55.422 103.453174 
L 55.701 103.453174 
L 55.98 103.453174 
L 56.259 103.453174 
L 56.538 103.453174 
L 56.817 103.453174 
L 57.096 103.453174 
L 57.375 103.453174 
L 57.654 103.453174 
L 57.933 103.453174 
L 58.212 103.453174 
L 58.491 103.453174 
L 58.77 103.453174 
L 59.049 103.453174 
L 59.328 103.453174 
L 59.607 103.453174 
L 59.886 103.453174 
L 60.165 103.453174 
L 60.444 103.453174 
L 60.723 103.453174 
L 61.002 103.453174 
L 61.281 103.453174 
L 61.56 103.453174 
L 61.839 103.453174 
L 62.118 103.453174 
L 62.397 103.453174 
L 62.676 103.453174 
L 62.955 103.453174 
L 63.234 103.453174 
L 63.513 103.453174 
L 63.792 103.453174 
L 64.071 103.453174 
L 64.35 103.453174 
L 64.629 103.453174 
L 64.908 103.453174 
L 65.187 103.453174 
L 65.466 103.453174 
L 65.745 103.453174 
L 66.024 103.453174 
L 66.303 103.453174 
L 66.582 103.453174 
L 66.861 103.453174 
L 67.14 103.453174 
L 67.419 103.453174 
L 67.698 103.453174 
L 67.977 103.453174 
L 68.256 103.453174 
L 68.535 103.453174 
L 68.814 103.453174 
L 69.093 103.453174 
L 69.372 103.453174 
L 69.651 103.453174 
L 69.93 103.453174 
L 70.209 103.453174 
L 70.488 103.453174 
L 70.767 103.453174 
L 71.046 103.453174 
L 71.325 103.453174 
L 71.604 103.453174 
L 71.883 103.453174 
L 72.162 103.453174 
L 72.441 103.453174 
L 72.72 103.453174 
L 72.999 103.453174 
L 73.278 103.453174 
L 73.557 103.453174 
L 73.836 103.453174 
L 74.115 103.453174 
L 74.394 103.453174 
L 74.673 103.453174 
L 74.952 103.453174 
L 75.231 103.453174 
L 75.51 103.453174 
L 75.789 103.453174 
L 76.068 103.453174 
L 76.347 103.453174 
L 76.626 103.453174 
L 76.905 103.453174 
L 77.184 103.453174 
L 77.463 103.453174 
L 77.742 103.453174 
L 78.021 103.453174 
L 78.3 103.453174 
L 78.579 103.453174 
L 78.858 103.453174 
L 79.137 103.453174 
L 79.416 103.453174 
L 79.695 103.453174 
L 79.974 103.453174 
L 80.253 103.453174 
L 80.532 103.453174 
L 80.811 103.453174 
L 81.09 103.453174 
L 81.369 103.453174 
L 81.648 103.453174 
L 81.927 103.453174 
L 82.206 103.453174 
L 82.485 103.453174 
L 82.764 103.453174 
L 83.043 103.453174 
L 83.322 103.453174 
L 83.601 103.453174 
L 83.88 103.453174 
L 84.159 103.453174 
L 84.438 103.453174 
L 84.717 103.453174 
L 84.996 103.453174 
L 85.275 103.453174 
L 85.554 103.453174 
L 85.833 103.453174 
L 86.112 103.453174 
L 86.391 103.453174 
L 86.67 103.453174 
L 86.949 103.453174 
L 87.228 103.453174 
L 87.507 103.453174 
L 87.786 103.453174 
L 88.065 103.453174 
L 88.344 103.453174 
L 88.623 103.453174 
L 88.902 103.453174 
L 89.181 103.453174 
L 89.46 103.453174 
L 89.739 103.453174 
L 90.018 103.453174 
L 90.297 103.453174 
L 90.576 103.453174 
L 90.855 103.453174 
L 91.134 103.453174 
L 91.413 103.453174 
L 91.692 103.453174 
L 91.971 103.453174 
L 92.25 103.453174 
L 92.529 103.453174 
L 92.808 103.453174 
L 93.087 103.453174 
L 93.366 103.453174 
L 93.645 103.453174 
L 93.924 103.453174 
L 94.203 103.453174 
L 94.482 103.453174 
L 94.761 103.453174 
L 95.04 103.453174 
L 95.319 103.453174 
L 95.598 103.453174 
L 95.877 103.453174 
L 96.156 103.453174 
L 96.435 103.453174 
L 96.714 103.453174 
L 96.993 103.453174 
L 97.272 103.453174 
L 97.551 103.453174 
L 97.83 103.453174 
L 98.109 103.453174 
L 98.388 103.453174 
L 98.667 103.453174 
L 98.946 103.453174 
L 99.225 103.453174 
L 99.504 103.453174 
L 99.783 103.453174 
L 100.062 103.453174 
L 100.341 103.453174 
L 100.62 103.453174 
L 100.899 103.453174 
L 101.178 103.453174 
L 101.457 103.453174 
L 101.736 103.453174 
L 102.015 103.453174 
L 102.294 103.453174 
L 102.573 103.453174 
L 102.852 103.453174 
L 103.131 103.453174 
L 103.41 103.453174 
L 103.689 103.453174 
L 103.968 103.453174 
L 104.247 103.453174 
L 104.526 103.453174 
L 104.805 103.453174 
L 105.084 103.453174 
L 105.363 103.453174 
L 105.642 103.453174 
L 105.921 103.453174 
L 106.2 103.453174 
L 106.479 103.453174 
L 106.758 103.453174 
L 107.037 103.453174 
L 107.316 103.453174 
L 107.595 103.453174 
L 107.874 103.453174 
L 108.153 103.453174 
L 108.432 103.453174 
L 108.711 103.453174 
L 108.99 103.453174 
L 109.269 103.453174 
L 109.548 103.453174 
L 109.827 103.453174 
L 110.106 103.453174 
L 110.385 103.453174 
L 110.664 103.453174 
L 110.943 103.453174 
L 111.222 103.453174 
L 111.501 103.453174 
L 111.78 103.453174 
L 112.059 103.453174 
L 112.338 103.453174 
L 112.617 103.453174 
L 112.896 103.453174 
L 113.175 103.453174 
L 113.454 103.453174 
L 113.733 103.453174 
L 114.012 103.453174 
L 114.291 103.453174 
L 114.57 103.453174 
L 114.849 103.453174 
L 115.128 103.453174 
L 115.407 103.453174 
L 115.686 103.453174 
L 115.965 103.453174 
L 116.244 103.453174 
L 116.523 103.453174 
L 116.802 103.453174 
L 117.081 103.453174 
L 117.36 103.453174 
L 117.639 103.453174 
L 117.918 103.453174 
L 118.197 103.453174 
L 118.476 103.453174 
L 118.755 103.453174 
L 119.034 103.453174 
L 119.313 103.453174 
L 119.592 103.453174 
L 119.871 103.453174 
L 120.15 103.453174 
L 120.429 103.453174 
L 120.708 103.453174 
L 120.987 103.453174 
L 121.266 103.453174 
L 121.545 103.453174 
L 121.824 103.453174 
L 122.103 103.453174 
L 122.382 103.453174 
L 122.661 103.453174 
L 122.94 103.453174 
L 123.219 103.453174 
L 123.498 103.453174 
L 123.777 103.453174 
L 124.056 103.453174 
L 124.335 103.453174 
L 124.614 103.453174 
L 124.893 103.453174 
L 125.172 103.453174 
L 125.451 103.453174 
L 125.73 103.453174 
L 126.009 103.453174 
L 126.288 103.453174 
L 126.567 103.453174 
L 126.846 103.453174 
L 127.125 103.453174 
L 127.404 103.453174 
L 127.683 103.453174 
L 127.962 103.453174 
L 128.241 103.453174 
L 128.52 103.453174 
L 128.799 103.453174 
L 129.078 103.453174 
L 129.357 103.453174 
L 129.636 103.453174 
L 129.915 103.453174 
L 130.194 103.453174 
L 130.473 103.453174 
L 130.752 103.453174 
L 131.031 103.453174 
L 131.31 103.453174 
L 131.589 103.453174 
L 131.868 103.453174 
L 132.147 103.453174 
L 132.426 103.453174 
L 132.705 103.453174 
L 132.984 103.453174 
L 133.263 103.453174 
L 133.542 103.453174 
L 133.821 103.453174 
L 134.1 103.453174 
L 134.379 103.453174 
L 134.658 103.453174 
L 134.937 103.453174 
L 135.216 103.453174 
L 135.495 103.453174 
L 135.774 103.453174 
L 136.053 103.453174 
L 136.332 103.453174 
L 136.611 103.453174 
L 136.89 103.453174 
L 137.169 103.453174 
L 137.448 103.453174 
L 137.727 103.453174 
L 138.006 103.453174 
L 138.285 103.453174 
L 138.564 103.453174 
L 138.843 103.453174 
L 139.122 103.453174 
L 139.401 103.453174 
L 139.68 103.453174 
L 139.959 103.453174 
L 140.238 103.453174 
L 140.517 103.453174 
L 140.796 103.453174 
L 141.075 103.453174 
L 141.354 103.453174 
L 141.633 103.453174 
L 141.912 103.453174 
L 142.191 103.453174 
L 142.47 103.453174 
L 142.749 103.453174 
L 143.028 103.453174 
L 143.307 103.453174 
L 143.586 103.453174 
L 143.865 103.453174 
L 144.144 103.453174 
L 144.423 103.453174 
L 144.702 103.453174 
L 144.981 103.453174 
L 145.26 103.453174 
L 145.539 103.453174 
L 145.818 103.453174 
L 146.097 103.453174 
L 146.376 103.453174 
L 146.655 103.453174 
L 146.934 103.453174 
L 147.213 103.453174 
L 147.492 103.453174 
L 147.771 103.453174 
L 148.05 103.453174 
L 148.329 103.453174 
L 148.608 103.453174 
L 148.887 103.453174 
L 149.166 103.453174 
L 149.445 103.453174 
L 149.724 103.453174 
L 150.003 103.453174 
L 150.282 103.453174 
L 150.561 103.453174 
L 150.84 103.453174 
L 151.119 103.453174 
L 151.398 103.453174 
L 151.677 103.453174 
L 151.956 103.453174 
L 152.235 103.453174 
L 152.514 103.453174 
L 152.793 103.453174 
L 153.072 103.453174 
L 153.351 103.453174 
L 153.63 103.453174 
L 153.909 103.453174 
L 154.188 103.453174 
L 154.467 103.453174 
L 154.746 103.453174 
L 155.025 103.453174 
L 155.304 103.453174 
L 155.583 103.453174 
L 155.862 103.453174 
L 156.141 103.453174 
L 156.42 103.453174 
L 156.699 103.453174 
L 156.978 103.453174 
L 157.257 103.453174 
L 157.536 103.453174 
L 157.815 103.453174 
L 158.094 103.453174 
L 158.373 103.453174 
L 158.652 103.453174 
L 158.931 103.453174 
L 159.21 103.453174 
L 159.489 103.453174 
L 159.768 103.453174 
L 160.047 103.453174 
L 160.326 103.453174 
L 160.605 103.453174 
L 160.884 103.453174 
L 161.163 103.453174 
L 161.442 103.453174 
L 161.721 103.453174 
L 161.721 83.377894 
L 161.721 83.377894 
L 161.442 83.377894 
L 161.163 83.377894 
L 160.884 83.377894 
L 160.605 83.377894 
L 160.326 83.377894 
L 160.047 83.377894 
L 159.768 83.377894 
L 159.489 83.377894 
L 159.21 83.377894 
L 158.931 83.377894 
L 158.652 83.377894 
L 158.373 83.377894 
L 158.094 83.377894 
L 157.815 83.377894 
L 157.536 83.377894 
L 157.257 83.377894 
L 156.978 83.377894 
L 156.699 83.377894 
L 156.42 83.377894 
L 156.141 83.377894 
L 155.862 83.377894 
L 155.583 83.377894 
L 155.304 83.377894 
L 155.025 83.377894 
L 154.746 83.377894 
L 154.467 83.377894 
L 154.188 83.377894 
L 153.909 83.377894 
L 153.63 83.377894 
L 153.351 83.377894 
L 153.072 83.377894 
L 152.793 83.377894 
L 152.514 83.377894 
L 152.235 83.377894 
L 151.956 83.377894 
L 151.677 83.377894 
L 151.398 83.377894 
L 151.119 83.377894 
L 150.84 83.377894 
L 150.561 83.377894 
L 150.282 83.377894 
L 150.003 83.377894 
L 149.724 83.377894 
L 149.445 83.377894 
L 149.166 83.377894 
L 148.887 83.377894 
L 148.608 83.377894 
L 148.329 83.377894 
L 148.05 83.377894 
L 147.771 83.377894 
L 147.492 83.377894 
L 147.213 83.377894 
L 146.934 83.377894 
L 146.655 83.377894 
L 146.376 83.377894 
L 146.097 83.377894 
L 145.818 83.377894 
L 145.539 83.377894 
L 145.26 83.377894 
L 144.981 83.377894 
L 144.702 83.377894 
L 144.423 83.377894 
L 144.144 83.377894 
L 143.865 83.377894 
L 143.586 83.377894 
L 143.307 83.377894 
L 143.028 83.377894 
L 142.749 83.377894 
L 142.47 83.377894 
L 142.191 83.377894 
L 141.912 83.377894 
L 141.633 83.377894 
L 141.354 83.377894 
L 141.075 83.377894 
L 140.796 83.377894 
L 140.517 83.377894 
L 140.238 83.377894 
L 139.959 83.377894 
L 139.68 83.377894 
L 139.401 83.377894 
L 139.122 83.377894 
L 138.843 83.377894 
L 138.564 83.377894 
L 138.285 83.377894 
L 138.006 83.377894 
L 137.727 83.377894 
L 137.448 83.377894 
L 137.169 83.377894 
L 136.89 83.377894 
L 136.611 83.377894 
L 136.332 83.377894 
L 136.053 83.377894 
L 135.774 83.377894 
L 135.495 83.377894 
L 135.216 83.377894 
L 134.937 83.377894 
L 134.658 83.377894 
L 134.379 83.377894 
L 134.1 83.377894 
L 133.821 83.377894 
L 133.542 83.377894 
L 133.263 83.377894 
L 132.984 83.377894 
L 132.705 83.377894 
L 132.426 83.377894 
L 132.147 83.377894 
L 131.868 83.377894 
L 131.589 83.377894 
L 131.31 83.377894 
L 131.031 83.377894 
L 130.752 83.377894 
L 130.473 83.377894 
L 130.194 83.377894 
L 129.915 83.377894 
L 129.636 83.377894 
L 129.357 83.377894 
L 129.078 83.377894 
L 128.799 83.377894 
L 128.52 83.377894 
L 128.241 83.377894 
L 127.962 83.377894 
L 127.683 83.377894 
L 127.404 83.377894 
L 127.125 83.377894 
L 126.846 83.377894 
L 126.567 83.377894 
L 126.288 83.377894 
L 126.009 83.377894 
L 125.73 83.377894 
L 125.451 83.377894 
L 125.172 83.377894 
L 124.893 83.377894 
L 124.614 83.377894 
L 124.335 83.377894 
L 124.056 83.377894 
L 123.777 83.377894 
L 123.498 83.377894 
L 123.219 83.377894 
L 122.94 83.377894 
L 122.661 83.377894 
L 122.382 83.377894 
L 122.103 83.377894 
L 121.824 83.377894 
L 121.545 83.377894 
L 121.266 83.377894 
L 120.987 83.377894 
L 120.708 83.377894 
L 120.429 83.377894 
L 120.15 83.377894 
L 119.871 83.377894 
L 119.592 83.377894 
L 119.313 83.377894 
L 119.034 83.377894 
L 118.755 83.377894 
L 118.476 83.377894 
L 118.197 83.377894 
L 117.918 83.377894 
L 117.639 83.377894 
L 117.36 83.377894 
L 117.081 83.377894 
L 116.802 83.377894 
L 116.523 83.377894 
L 116.244 83.377894 
L 115.965 83.377894 
L 115.686 83.377894 
L 115.407 83.377894 
L 115.128 83.377894 
L 114.849 83.377894 
L 114.57 83.377894 
L 114.291 83.377894 
L 114.012 83.377894 
L 113.733 83.377894 
L 113.454 83.377894 
L 113.175 83.377894 
L 112.896 83.377894 
L 112.617 83.377894 
L 112.338 83.377894 
L 112.059 83.377894 
L 111.78 83.377894 
L 111.501 83.377894 
L 111.222 83.377894 
L 110.943 83.377894 
L 110.664 83.377894 
L 110.385 83.377894 
L 110.106 83.377894 
L 109.827 83.377894 
L 109.548 83.377894 
L 109.269 83.377894 
L 108.99 83.377894 
L 108.711 83.377894 
L 108.432 83.377894 
L 108.153 83.377894 
L 107.874 83.377894 
L 107.595 83.377894 
L 107.316 83.377894 
L 107.037 83.377894 
L 106.758 83.377894 
L 106.479 83.377894 
L 106.2 83.377894 
L 105.921 83.377894 
L 105.642 83.377894 
L 105.363 83.377894 
L 105.084 83.377894 
L 104.805 83.377894 
L 104.526 83.377894 
L 104.247 83.377894 
L 103.968 83.377894 
L 103.689 83.377894 
L 103.41 83.377894 
L 103.131 83.377894 
L 102.852 83.377894 
L 102.573 83.377894 
L 102.294 83.377894 
L 102.015 83.377894 
L 101.736 83.377894 
L 101.457 83.377894 
L 101.178 83.377894 
L 100.899 83.377894 
L 100.62 83.377894 
L 100.341 83.377894 
L 100.062 83.377894 
L 99.783 83.377894 
L 99.504 83.377894 
L 99.225 83.377894 
L 98.946 83.377894 
L 98.667 83.377894 
L 98.388 83.377894 
L 98.109 83.377894 
L 97.83 83.377894 
L 97.551 83.377894 
L 97.272 83.377894 
L 96.993 83.377894 
L 96.714 83.377894 
L 96.435 83.377894 
L 96.156 83.377894 
L 95.877 83.377894 
L 95.598 83.377894 
L 95.319 83.377894 
L 95.04 83.377894 
L 94.761 83.377894 
L 94.482 83.377894 
L 94.203 83.377894 
L 93.924 83.377894 
L 93.645 83.377894 
L 93.366 83.377894 
L 93.087 83.377894 
L 92.808 83.377894 
L 92.529 83.377894 
L 92.25 83.377894 
L 91.971 83.377894 
L 91.692 83.377894 
L 91.413 83.377894 
L 91.134 83.377894 
L 90.855 83.377894 
L 90.576 83.377894 
L 90.297 83.377894 
L 90.018 83.377894 
L 89.739 83.377894 
L 89.46 83.377894 
L 89.181 83.377894 
L 88.902 83.377894 
L 88.623 83.377894 
L 88.344 83.377894 
L 88.065 83.377894 
L 87.786 83.377894 
L 87.507 83.377894 
L 87.228 83.377894 
L 86.949 83.377894 
L 86.67 83.377894 
L 86.391 83.377894 
L 86.112 83.377894 
L 85.833 83.377894 
L 85.554 83.377894 
L 85.275 83.377894 
L 84.996 83.377894 
L 84.717 83.377894 
L 84.438 83.377894 
L 84.159 83.377894 
L 83.88 83.377894 
L 83.601 83.377894 
L 83.322 83.377894 
L 83.043 83.377894 
L 82.764 83.377894 
L 82.485 83.377894 
L 82.206 83.377894 
L 81.927 83.377894 
L 81.648 83.377894 
L 81.369 83.377894 
L 81.09 83.377894 
L 80.811 83.377894 
L 80.532 83.377894 
L 80.253 83.377894 
L 79.974 83.377894 
L 79.695 83.377894 
L 79.416 83.377894 
L 79.137 83.377894 
L 78.858 83.377894 
L 78.579 83.377894 
L 78.3 83.377894 
L 78.021 83.377894 
L 77.742 83.377894 
L 77.463 83.377894 
L 77.184 83.377894 
L 76.905 83.377894 
L 76.626 83.377894 
L 76.347 83.377894 
L 76.068 83.377894 
L 75.789 83.377894 
L 75.51 83.377894 
L 75.231 83.377894 
L 74.952 83.377894 
L 74.673 83.377894 
L 74.394 83.377894 
L 74.115 83.377894 
L 73.836 83.377894 
L 73.557 83.377894 
L 73.278 83.377894 
L 72.999 83.377894 
L 72.72 83.377894 
L 72.441 83.377894 
L 72.162 83.377894 
L 71.883 83.377894 
L 71.604 83.377894 
L 71.325 83.377894 
L 71.046 83.377894 
L 70.767 83.377894 
L 70.488 83.377894 
L 70.209 83.377894 
L 69.93 83.377894 
L 69.651 83.377894 
L 69.372 83.377894 
L 69.093 83.377894 
L 68.814 83.377894 
L 68.535 83.377894 
L 68.256 83.377894 
L 67.977 83.377894 
L 67.698 83.377894 
L 67.419 83.377894 
L 67.14 83.377894 
L 66.861 83.377894 
L 66.582 83.377894 
L 66.303 83.377894 
L 66.024 83.377894 
L 65.745 83.377894 
L 65.466 83.377894 
L 65.187 83.377894 
L 64.908 83.377894 
L 64.629 83.377894 
L 64.35 83.377894 
L 64.071 83.377894 
L 63.792 83.377894 
L 63.513 83.377894 
L 63.234 83.377894 
L 62.955 83.377894 
L 62.676 83.377894 
L 62.397 83.377894 
L 62.118 83.377894 
L 61.839 83.377894 
L 61.56 83.377894 
L 61.281 83.377894 
L 61.002 83.377894 
L 60.723 83.377894 
L 60.444 83.377894 
L 60.165 83.377894 
L 59.886 83.377894 
L 59.607 83.377894 
L 59.328 83.377894 
L 59.049 83.377894 
L 58.77 83.377894 
L 58.491 83.377894 
L 58.212 83.377894 
L 57.933 83.377894 
L 57.654 83.377894 
L 57.375 83.377894 
L 57.096 83.377894 
L 56.817 83.377894 
L 56.538 83.377894 
L 56.259 83.377894 
L 55.98 83.377894 
L 55.701 83.377894 
L 55.422 83.377894 
L 55.143 83.377894 
L 54.864 83.377894 
L 54.585 83.377894 
L 54.306 83.377894 
L 54.027 83.377894 
L 53.748 83.377894 
L 53.469 83.377894 
L 53.19 83.377894 
L 52.911 83.377894 
L 52.632 83.377894 
L 52.353 83.377894 
L 52.074 83.377894 
L 51.795 83.377894 
L 51.516 83.377894 
L 51.237 83.377894 
L 50.958 83.377894 
L 50.679 83.377894 
L 50.4 83.377894 
L 50.121 83.377894 
L 49.842 83.377894 
L 49.563 83.377894 
L 49.284 83.377894 
L 49.005 83.377894 
L 48.726 83.377894 
L 48.447 83.377894 
L 48.168 83.377894 
L 47.889 83.377894 
L 47.61 83.377894 
L 47.331 83.377894 
L 47.052 83.377894 
L 46.773 83.377894 
L 46.494 83.377894 
L 46.215 83.377894 
L 45.936 83.377894 
L 45.657 83.377894 
L 45.378 83.377894 
L 45.099 83.377894 
L 44.82 83.377894 
L 44.541 83.377894 
L 44.262 83.377894 
L 43.983 83.377894 
L 43.704 83.377894 
L 43.425 83.377894 
L 43.146 83.377894 
L 42.867 83.377894 
L 42.588 83.377894 
L 42.309 83.377894 
L 42.03 83.377894 
L 41.751 83.377894 
L 41.472 83.377894 
L 41.193 83.377894 
L 40.914 83.377894 
L 40.635 83.377894 
L 40.356 83.377894 
L 40.077 83.377894 
L 39.798 83.377894 
L 39.519 83.377894 
L 39.24 83.377894 
L 38.961 83.377894 
L 38.682 83.377894 
L 38.403 83.377894 
L 38.124 83.377894 
L 37.845 83.377894 
L 37.566 83.377894 
L 37.287 83.377894 
L 37.008 83.377894 
L 36.729 83.377894 
L 36.45 83.377894 
L 36.171 83.377894 
L 35.892 83.377894 
L 35.613 83.377894 
L 35.334 83.377894 
L 35.055 83.377894 
L 34.776 83.377894 
L 34.497 83.377894 
L 34.218 83.377894 
L 33.939 83.377894 
L 33.66 83.377894 
L 33.381 83.377894 
L 33.102 83.377894 
L 32.823 83.377894 
L 32.544 83.377894 
L 32.265 83.377894 
L 31.986 83.377894 
L 31.707 83.377894 
L 31.428 83.377894 
L 31.149 83.377894 
L 30.87 83.377894 
L 30.591 83.377894 
L 30.312 83.377894 
L 30.033 83.377894 
L 29.754 83.377894 
L 29.475 83.377894 
L 29.196 83.377894 
L 28.917 83.377894 
L 28.638 83.377894 
L 28.359 83.377894 
L 28.08 83.377894 
L 27.801 83.377894 
L 27.522 83.377894 
L 27.243 83.377894 
L 26.964 83.377894 
L 26.685 83.377894 
L 26.406 83.377894 
L 26.127 83.377894 
L 25.848 83.377894 
L 25.569 83.377894 
L 25.29 83.377894 
L 25.011 83.377894 
L 24.732 83.377894 
L 24.453 83.377894 
L 24.174 83.377894 
L 23.895 83.377894 
L 23.616 83.377894 
L 23.337 83.377894 
L 23.058 83.377894 
L 22.779 83.377894 
L 22.5 83.377894 
z
" clip-path="url(#pe83647a8fa)" style="fill: #5f187f; fill-opacity: 0.1"/>
   </g>
   <g id="matplotlib.axis_1">
    <g id="xtick_1">
     <g id="line2d_1">
      <defs>
       <path id="m94ec7f783f" d="M 0 0 
L 0 3.5 
" style="stroke: #000000; stroke-width: 0.8"/>
      </defs>
      <g>
       <use xlink:href="#m94ec7f783f" x="50.4" y="160.2" style="stroke: #000000; stroke-width: 0.8"/>
      </g>
     </g>
     <g id="text_1">
      <text style="font: italic 12px 'inter', sans-serif" transform="translate(9.919905 212.12161) rotate(-45)">Trhn&gt;Chr</text>
     </g>
    </g>
    <g id="xtick_2">
     <g id="line2d_2">
      <g>
       <use xlink:href="#m94ec7f783f" x="78.3" y="160.2" style="stroke: #000000; stroke-width: 0.8"/>
      </g>
     </g>
     <g id="text_2">
      <text style="font: italic 12px 'inter', sans-serif" transform="translate(31.265025 218.67649) rotate(-45)">Trhn&gt;ACR1</text>
     </g>
    </g>
    <g id="xtick_3">
     <g id="line2d_3">
      <g>
       <use xlink:href="#m94ec7f783f" x="106.2" y="160.2" style="stroke: #000000; stroke-width: 0.8"/>
      </g>
     </g>
     <g id="text_3">
      <text style="font: italic 12px 'inter', sans-serif" transform="translate(51.684719 226.156796) rotate(-45)">R50H05&gt;Chr</text>
     </g>
    </g>
    <g id="xtick_4">
     <g id="line2d_4">
      <g>
       <use xlink:href="#m94ec7f783f" x="134.1" y="160.2" style="stroke: #000000; stroke-width: 0.8"/>
      </g>
     </g>
     <g id="text_4">
      <text style="font: italic 12px 'inter', sans-serif" transform="translate(73.029839 232.711676) rotate(-45)">R50H05&gt;ACR1</text>
     </g>
    </g>
   </g>
   <g id="matplotlib.axis_2">
    <g id="ytick_1">
     <g id="line2d_5">
      <defs>
       <path id="mcf7a32988f" d="M 0 0 
L -3.5 0 
" style="stroke: #000000; stroke-width: 0.8"/>
      </defs>
      <g>
       <use xlink:href="#mcf7a32988f" x="22.5" y="137.240491" style="stroke: #000000; stroke-width: 0.8"/>
      </g>
     </g>
     <g id="text_5">
      <text style="font: 10px 'inter', sans-serif; text-anchor: end" x="15.5" y="140.877991" transform="rotate(-0 15.5 140.877991)">10</text>
     </g>
    </g>
    <g id="ytick_2">
     <g id="line2d_6">
      <g>
       <use xlink:href="#mcf7a32988f" x="22.5" y="105.102903" style="stroke: #000000; stroke-width: 0.8"/>
      </g>
     </g>
     <g id="text_6">
      <text style="font: 10px 'inter', sans-serif; text-anchor: end" x="15.5" y="108.740403" transform="rotate(-0 15.5 108.740403)">0</text>
     </g>
    </g>
    <g id="ytick_3">
     <g id="line2d_7">
      <g>
       <use xlink:href="#mcf7a32988f" x="22.5" y="72.965315" style="stroke: #000000; stroke-width: 0.8"/>
      </g>
     </g>
     <g id="text_7">
      <text style="font: 10px 'inter', sans-serif; text-anchor: end" x="15.5" y="76.602815" transform="rotate(-0 15.5 76.602815)">10</text>
     </g>
    </g>
    <g id="ytick_4">
     <g id="line2d_8">
      <g>
       <use xlink:href="#mcf7a32988f" x="22.5" y="40.827727" style="stroke: #000000; stroke-width: 0.8"/>
      </g>
     </g>
     <g id="text_8">
      <text style="font: 10px 'inter', sans-serif; text-anchor: end" x="15.5" y="44.465227" transform="rotate(-0 15.5 44.465227)">20</text>
     </g>
    </g>
    <g id="text_9">
     <text style="font: 15px 'inter', sans-serif; text-anchor: middle" x="-8.553125" y="90.9" transform="rotate(-90 -8.553125 90.9)"> Count</text>
    </g>
   </g>
   <g id="line2d_9">
    <path d="M 22.5 105.102903 
L 162 105.102903 
" clip-path="url(#pe83647a8fa)" style="fill: none; stroke: #000000; stroke-linecap: square"/>
   </g>
   <g id="line2d_10">
    <defs>
     <path id="m249f86d7ce" d="M 0 2.5 
C 0.663008 2.5 1.29895 2.236584 1.767767 1.767767 
C 2.236584 1.29895 2.5 0.663008 2.5 0 
C 2.5 -0.663008 2.236584 -1.29895 1.767767 -1.767767 
C 1.29895 -2.236584 0.663008 -2.5 0 -2.5 
C -0.663008 -2.5 -1.29895 -2.236584 -1.767767 -1.767767 
C -2.236584 -1.29895 -2.5 -0.663008 -2.5 0 
C -2.5 0.663008 -2.236584 1.29895 -1.767767 1.767767 
C -1.29895 2.236584 -0.663008 2.5 0 2.5 
z
" style="stroke: #000000"/>
    </defs>
    <g clip-path="url(#pe83647a8fa)">
     <use xlink:href="#m249f86d7ce" x="50.4" y="89.484486" style="stroke: #000000"/>
    </g>
   </g>
   <g id="line2d_11">
    <path d="M 50.4 105.974268 
L 50.4 71.917756 
" clip-path="url(#pe83647a8fa)" style="fill: none; stroke: #000000; stroke-width: 2.5; stroke-linecap: square"/>
   </g>
   <g id="line2d_12">
    <g clip-path="url(#pe83647a8fa)">
     <use xlink:href="#m249f86d7ce" x="78.3" y="114.680126" style="stroke: #000000"/>
    </g>
   </g>
   <g id="line2d_13">
    <path d="M 78.3 139.485124 
L 78.3 91.204045 
" clip-path="url(#pe83647a8fa)" style="fill: none; stroke: #000000; stroke-width: 2.5; stroke-linecap: square"/>
   </g>
   <g id="line2d_14">
    <g clip-path="url(#pe83647a8fa)">
     <use xlink:href="#m249f86d7ce" x="106.2" y="53.831973" style="stroke: #000000"/>
    </g>
   </g>
   <g id="line2d_15">
    <path d="M 106.2 67.922775 
L 106.2 38.624007 
" clip-path="url(#pe83647a8fa)" style="fill: none; stroke: #000000; stroke-width: 2.5; stroke-linecap: square"/>
   </g>
   <g id="line2d_16">
    <g clip-path="url(#pe83647a8fa)">
     <use xlink:href="#m249f86d7ce" x="134.1" y="105.493365" style="stroke: #000000"/>
    </g>
   </g>
   <g id="line2d_17">
    <path d="M 134.1 121.765133 
L 134.1 89.900978 
" clip-path="url(#pe83647a8fa)" style="fill: none; stroke: #000000; stroke-width: 2.5; stroke-linecap: square"/>
   </g>
   <g id="patch_3">
    <path d="M 22.5 160.2 
L 22.5 21.6 
" style="fill: none; stroke: #000000; stroke-width: 0.8; stroke-linejoin: miter; stroke-linecap: square"/>
   </g>
   <g id="patch_4">
    <path d="M 162 160.2 
L 162 21.6 
" style="fill: none"/>
   </g>
   <g id="patch_5">
    <path d="M 22.5 160.2 
L 162 160.2 
" style="fill: none"/>
   </g>
   <g id="patch_6">
    <path d="M 22.5 21.6 
L 162 21.6 
" style="fill: none"/>
   </g>
   <g id="text_10">
    <text style="fill: #d3436e; font: 10px 'inter', sans-serif; text-anchor: start" x="162" y="100.780398" transform="rotate(-0 162 100.780398)">24 h</text>
   </g>
   <g id="text_11">
    <text style="fill: #5f187f; font: 10px 'inter', sans-serif; text-anchor: start" x="162" y="83.377894" transform="rotate(-0 162 83.377894)">48 h</text>
   </g>
   <g id="text_12">
    <text style="font: 500 15px 'inter', sans-serif; text-anchor: middle" x="92.25" y="15.6" transform="rotate(-0 92.25 15.6)">Count</text>
   </g>
  </g>
 </g>
 <defs>
  <clipPath id="pe83647a8fa">
   <rect x="22.5" y="21.6" width="139.5" height="138.6"/>
  </clipPath>
 </defs>
</svg>
