<?xml version="1.0" encoding="utf-8" standalone="no"?>
<!DOCTYPE svg PUBLIC "-//W3C//DTD SVG 1.1//EN"
  "http://www.w3.org/Graphics/SVG/1.1/DTD/svg11.dtd">
<svg xmlns:xlink="http://www.w3.org/1999/xlink" width="180pt" height="180pt" viewBox="0 0 180 180" xmlns="http://www.w3.org/2000/svg" version="1.1">
 <metadata>
  <rdf:RDF xmlns:dc="http://purl.org/dc/elements/1.1/" xmlns:cc="http://creativecommons.org/ns#" xmlns:rdf="http://www.w3.org/1999/02/22-rdf-syntax-ns#">
   <cc:Work>
    <dc:type rdf:resource="http://purl.org/dc/dcmitype/StillImage"/>
    <dc:date>2025-02-16T01:32:26.723932</dc:date>
    <dc:format>image/svg+xml</dc:format>
    <dc:creator>
     <cc:Agent>
      <dc:title>Matplotlib v3.6.3, https://matplotlib.org/</dc:title>
     </cc:Agent>
    </dc:creator>
   </cc:Work>
  </rdf:RDF>
 </metadata>
 <defs>
  <style type="text/css">*{stroke-linejoin: round; stroke-linecap: butt}</style>
 </defs>
 <g id="figure_1">
  <g id="patch_1">
   <path d="M 0 180 
L 180 180 
L 180 0 
L 0 0 
z
" style="fill: #ffffff"/>
  </g>
  <g id="axes_1">
   <g id="patch_2">
    <path d="M 22.5 160.2 
L 162 160.2 
L 162 21.6 
L 22.5 21.6 
z
" style="fill: #ffffff"/>
   </g>
   <g id="PolyCollection_1">
    <defs>
     <path id="me982bb2503" d="M 50.436263 -31.746076 
L 50.400453 -31.746076 
L 50.400453 -32.319314 
L 50.400453 -32.892553 
L 50.400453 -33.465791 
L 50.400453 -34.039029 
L 50.400453 -34.612267 
L 50.400453 -35.185506 
L 50.400453 -35.758744 
L 50.400453 -36.331982 
L 50.400453 -36.90522 
L 50.400453 -37.478459 
L 50.400453 -38.051697 
L 50.400453 -38.624935 
L 50.400453 -39.198173 
L 50.400453 -39.771412 
L 50.400453 -40.34465 
L 50.400453 -40.917888 
L 50.400453 -41.491126 
L 50.400453 -42.064365 
L 50.400453 -42.637603 
L 50.400453 -43.210841 
L 50.400453 -43.784079 
L 50.400453 -44.357318 
L 50.400453 -44.930556 
L 50.400453 -45.503794 
L 50.400453 -46.077032 
L 50.400453 -46.650271 
L 50.400453 -47.223509 
L 50.400453 -47.796747 
L 50.400453 -48.369985 
L 50.400453 -48.943224 
L 50.400453 -49.516462 
L 50.400453 -50.0897 
L 50.400453 -50.662938 
L 50.400453 -51.236177 
L 50.400453 -51.809415 
L 50.400453 -52.382653 
L 50.400453 -52.955891 
L 50.400453 -53.52913 
L 50.400453 -54.102368 
L 50.400453 -54.675606 
L 50.400453 -55.248844 
L 50.400453 -55.822083 
L 50.400453 -56.395321 
L 50.400453 -56.968559 
L 50.400453 -57.541797 
L 50.400453 -58.115036 
L 50.400453 -58.688274 
L 50.400453 -59.261512 
L 50.400453 -59.83475 
L 50.400453 -60.407989 
L 50.400453 -60.981227 
L 50.400453 -61.554465 
L 50.400453 -62.127703 
L 50.400453 -62.700942 
L 50.400453 -63.27418 
L 50.400453 -63.847418 
L 50.400453 -64.420656 
L 50.400453 -64.993895 
L 50.400453 -65.567133 
L 50.400453 -66.140371 
L 50.400453 -66.713609 
L 50.400453 -67.286848 
L 50.400453 -67.860086 
L 50.400453 -68.433324 
L 50.400453 -69.006562 
L 50.400453 -69.579801 
L 50.400453 -70.153039 
L 50.400453 -70.726277 
L 50.400453 -71.299515 
L 50.400453 -71.872754 
L 50.400453 -72.445992 
L 50.400453 -73.01923 
L 50.400453 -73.592468 
L 50.400453 -74.165707 
L 50.400453 -74.738945 
L 50.400453 -75.312183 
L 50.400453 -75.885421 
L 50.400453 -76.45866 
L 50.400453 -77.031898 
L 50.400453 -77.605136 
L 50.400453 -78.178374 
L 50.400453 -78.751613 
L 50.400453 -79.324851 
L 50.400453 -79.898089 
L 50.400453 -80.471327 
L 50.400453 -81.044566 
L 50.400453 -81.617804 
L 50.400453 -82.191042 
L 50.400453 -82.76428 
L 50.400453 -83.337519 
L 50.400453 -83.910757 
L 50.400453 -84.483995 
L 50.400453 -85.057233 
L 50.400453 -85.630472 
L 50.400453 -86.20371 
L 50.400453 -86.776948 
L 50.400453 -87.350186 
L 50.400453 -87.923425 
L 50.400453 -88.496663 
L 50.419533 -88.496663 
L 50.419533 -88.496663 
L 50.427718 -87.923425 
L 50.437938 -87.350186 
L 50.449637 -86.776948 
L 50.46164 -86.20371 
L 50.472681 -85.630472 
L 50.482252 -85.057233 
L 50.491252 -84.483995 
L 50.502046 -83.910757 
L 50.51778 -83.337519 
L 50.541109 -82.76428 
L 50.572794 -82.191042 
L 50.610899 -81.617804 
L 50.651222 -81.044566 
L 50.689153 -80.471327 
L 50.722305 -79.898089 
L 50.752719 -79.324851 
L 50.787275 -78.751613 
L 50.835594 -78.178374 
L 50.906075 -77.605136 
L 51.002124 -77.031898 
L 51.120936 -76.45866 
L 51.25578 -75.885421 
L 51.400218 -75.312183 
L 51.551251 -74.738945 
L 51.709379 -74.165707 
L 51.876253 -73.592468 
L 52.052392 -73.01923 
L 52.236588 -72.445992 
L 52.426633 -71.872754 
L 52.620345 -71.299515 
L 52.816875 -70.726277 
L 53.018447 -70.153039 
L 53.23122 -69.579801 
L 53.46314 -69.006562 
L 53.718871 -68.433324 
L 53.995135 -67.860086 
L 54.280301 -67.286848 
L 54.55919 -66.713609 
L 54.820595 -66.140371 
L 55.063177 -65.567133 
L 55.295619 -64.993895 
L 55.529861 -64.420656 
L 55.771274 -63.847418 
L 56.013017 -63.27418 
L 56.239429 -62.700942 
L 56.436256 -62.127703 
L 56.60002 -61.554465 
L 56.739652 -60.981227 
L 56.869553 -60.407989 
L 56.999303 -59.83475 
L 57.126978 -59.261512 
L 57.24016 -58.688274 
L 57.323641 -58.115036 
L 57.368361 -57.541797 
L 57.375 -56.968559 
L 57.349643 -56.395321 
L 57.295708 -55.822083 
L 57.209638 -55.248844 
L 57.083963 -54.675606 
L 56.914277 -54.102368 
L 56.704035 -53.52913 
L 56.464085 -52.955891 
L 56.208063 -52.382653 
L 55.946596 -51.809415 
L 55.683658 -51.236177 
L 55.417398 -50.662938 
L 55.144556 -50.0897 
L 54.864372 -49.516462 
L 54.578913 -48.943224 
L 54.291144 -48.369985 
L 54.004087 -47.796747 
L 53.721725 -47.223509 
L 53.44917 -46.650271 
L 53.190556 -46.077032 
L 52.946463 -45.503794 
L 52.71392 -44.930556 
L 52.489554 -44.357318 
L 52.273239 -43.784079 
L 52.069003 -43.210841 
L 51.882422 -42.637603 
L 51.716787 -42.064365 
L 51.571063 -41.491126 
L 51.440646 -40.917888 
L 51.319658 -40.34465 
L 51.203095 -39.771412 
L 51.088268 -39.198173 
L 50.975622 -38.624935 
L 50.868676 -38.051697 
L 50.772647 -37.478459 
L 50.692126 -36.90522 
L 50.629087 -36.331982 
L 50.582301 -35.758744 
L 50.548216 -35.185506 
L 50.522526 -34.612267 
L 50.501555 -34.039029 
L 50.482978 -33.465791 
L 50.465844 -32.892553 
L 50.450138 -32.319314 
L 50.436263 -31.746076 
z
"/>
    </defs>
    <g clip-path="url(#p38166faa95)">
     <use xlink:href="#me982bb2503" x="0" y="180" style="fill: #ff4500; fill-opacity: 0.4"/>
    </g>
   </g>
   <g id="PolyCollection_2">
    <defs>
     <path id="m975d1151f6" d="M 78.327986 -64.314145 
L 78.300356 -64.314145 
L 78.300356 -65.003423 
L 78.300356 -65.692701 
L 78.300356 -66.381979 
L 78.300356 -67.071257 
L 78.300356 -67.760535 
L 78.300356 -68.449813 
L 78.300356 -69.139092 
L 78.300356 -69.82837 
L 78.300356 -70.517648 
L 78.300356 -71.206926 
L 78.300356 -71.896204 
L 78.300356 -72.585482 
L 78.300356 -73.27476 
L 78.300356 -73.964038 
L 78.300356 -74.653316 
L 78.300356 -75.342595 
L 78.300356 -76.031873 
L 78.300356 -76.721151 
L 78.300356 -77.410429 
L 78.300356 -78.099707 
L 78.300356 -78.788985 
L 78.300356 -79.478263 
L 78.300356 -80.167541 
L 78.300356 -80.856819 
L 78.300356 -81.546098 
L 78.300356 -82.235376 
L 78.300356 -82.924654 
L 78.300356 -83.613932 
L 78.300356 -84.30321 
L 78.300356 -84.992488 
L 78.300356 -85.681766 
L 78.300356 -86.371044 
L 78.300356 -87.060322 
L 78.300356 -87.749601 
L 78.300356 -88.438879 
L 78.300356 -89.128157 
L 78.300356 -89.817435 
L 78.300356 -90.506713 
L 78.300356 -91.195991 
L 78.300356 -91.885269 
L 78.300356 -92.574547 
L 78.300356 -93.263825 
L 78.300356 -93.953104 
L 78.300356 -94.642382 
L 78.300356 -95.33166 
L 78.300356 -96.020938 
L 78.300356 -96.710216 
L 78.300356 -97.399494 
L 78.300356 -98.088772 
L 78.300356 -98.77805 
L 78.300356 -99.467328 
L 78.300356 -100.156607 
L 78.300356 -100.845885 
L 78.300356 -101.535163 
L 78.300356 -102.224441 
L 78.300356 -102.913719 
L 78.300356 -103.602997 
L 78.300356 -104.292275 
L 78.300356 -104.981553 
L 78.300356 -105.670831 
L 78.300356 -106.36011 
L 78.300356 -107.049388 
L 78.300356 -107.738666 
L 78.300356 -108.427944 
L 78.300356 -109.117222 
L 78.300356 -109.8065 
L 78.300356 -110.495778 
L 78.300356 -111.185056 
L 78.300356 -111.874334 
L 78.300356 -112.563613 
L 78.300356 -113.252891 
L 78.300356 -113.942169 
L 78.300356 -114.631447 
L 78.300356 -115.320725 
L 78.300356 -116.010003 
L 78.300356 -116.699281 
L 78.300356 -117.388559 
L 78.300356 -118.077837 
L 78.300356 -118.767116 
L 78.300356 -119.456394 
L 78.300356 -120.145672 
L 78.300356 -120.83495 
L 78.300356 -121.524228 
L 78.300356 -122.213506 
L 78.300356 -122.902784 
L 78.300356 -123.592062 
L 78.300356 -124.28134 
L 78.300356 -124.970619 
L 78.300356 -125.659897 
L 78.300356 -126.349175 
L 78.300356 -127.038453 
L 78.300356 -127.727731 
L 78.300356 -128.417009 
L 78.300356 -129.106287 
L 78.300356 -129.795565 
L 78.300356 -130.484843 
L 78.300356 -131.174122 
L 78.300356 -131.8634 
L 78.300356 -132.552678 
L 78.316244 -132.552678 
L 78.316244 -132.552678 
L 78.317065 -131.8634 
L 78.317002 -131.174122 
L 78.317294 -130.484843 
L 78.318796 -129.795565 
L 78.321499 -129.106287 
L 78.324959 -128.417009 
L 78.329137 -127.727731 
L 78.334699 -127.038453 
L 78.342426 -126.349175 
L 78.352285 -125.659897 
L 78.363092 -124.970619 
L 78.373203 -124.28134 
L 78.381798 -123.592062 
L 78.389777 -122.902784 
L 78.399562 -122.213506 
L 78.414 -121.524228 
L 78.435227 -120.83495 
L 78.464135 -120.145672 
L 78.50044 -119.456394 
L 78.543043 -118.767116 
L 78.590588 -118.077837 
L 78.642167 -117.388559 
L 78.69783 -116.699281 
L 78.758264 -116.010003 
L 78.823709 -115.320725 
L 78.893579 -114.631447 
L 78.968431 -113.942169 
L 79.053235 -113.252891 
L 79.15795 -112.563613 
L 79.292778 -111.874334 
L 79.461067 -111.185056 
L 79.65637 -110.495778 
L 79.866886 -109.8065 
L 80.083654 -109.117222 
L 80.305589 -108.427944 
L 80.537983 -107.738666 
L 80.787095 -107.049388 
L 81.055946 -106.36011 
L 81.344035 -105.670831 
L 81.64957 -104.981553 
L 81.97074 -104.292275 
L 82.303731 -103.602997 
L 82.639008 -102.913719 
L 82.960677 -102.224441 
L 83.252416 -101.535163 
L 83.50696 -100.845885 
L 83.731155 -100.156607 
L 83.94154 -99.467328 
L 84.153541 -98.77805 
L 84.372211 -98.088772 
L 84.590354 -97.399494 
L 84.79418 -96.710216 
L 84.971418 -96.020938 
L 85.114944 -95.33166 
L 85.219266 -94.642382 
L 85.275 -93.953104 
L 85.26949 -93.263825 
L 85.195168 -92.574547 
L 85.058239 -91.885269 
L 84.879422 -91.195991 
L 84.685984 -90.506713 
L 84.500368 -89.817435 
L 84.33057 -89.128157 
L 84.166025 -88.438879 
L 83.982582 -87.749601 
L 83.756022 -87.060322 
L 83.47567 -86.371044 
L 83.14795 -85.681766 
L 82.789033 -84.992488 
L 82.415804 -84.30321 
L 82.04371 -83.613932 
L 81.690329 -82.924654 
L 81.376219 -82.235376 
L 81.117595 -81.546098 
L 80.915405 -80.856819 
L 80.751317 -80.167541 
L 80.596137 -79.478263 
L 80.425078 -78.788985 
L 80.228715 -78.099707 
L 80.01327 -77.410429 
L 79.793154 -76.721151 
L 79.583106 -76.031873 
L 79.394099 -75.342595 
L 79.232014 -74.653316 
L 79.097144 -73.964038 
L 78.984835 -73.27476 
L 78.888031 -72.585482 
L 78.800432 -71.896204 
L 78.718297 -71.206926 
L 78.640655 -70.517648 
L 78.568739 -69.82837 
L 78.50495 -69.139092 
L 78.451513 -68.449813 
L 78.40951 -67.760535 
L 78.378699 -67.071257 
L 78.3577 -66.381979 
L 78.344163 -65.692701 
L 78.335152 -65.003423 
L 78.327986 -64.314145 
z
"/>
    </defs>
    <g clip-path="url(#p38166faa95)">
     <use xlink:href="#m975d1151f6" x="0" y="180" style="fill: #2e8b57; fill-opacity: 0.4"/>
    </g>
   </g>
   <g id="PolyCollection_3">
    <defs>
     <path id="me4d7caf52c" d="M 106.2076 -92.327963 
L 106.200186 -92.327963 
L 106.200186 -92.931721 
L 106.200186 -93.535478 
L 106.200186 -94.139236 
L 106.200186 -94.742994 
L 106.200186 -95.346752 
L 106.200186 -95.95051 
L 106.200186 -96.554268 
L 106.200186 -97.158026 
L 106.200186 -97.761784 
L 106.200186 -98.365542 
L 106.200186 -98.9693 
L 106.200186 -99.573058 
L 106.200186 -100.176816 
L 106.200186 -100.780574 
L 106.200186 -101.384332 
L 106.200186 -101.98809 
L 106.200186 -102.591848 
L 106.200186 -103.195606 
L 106.200186 -103.799364 
L 106.200186 -104.403122 
L 106.200186 -105.00688 
L 106.200186 -105.610638 
L 106.200186 -106.214396 
L 106.200186 -106.818153 
L 106.200186 -107.421911 
L 106.200186 -108.025669 
L 106.200186 -108.629427 
L 106.200186 -109.233185 
L 106.200186 -109.836943 
L 106.200186 -110.440701 
L 106.200186 -111.044459 
L 106.200186 -111.648217 
L 106.200186 -112.251975 
L 106.200186 -112.855733 
L 106.200186 -113.459491 
L 106.200186 -114.063249 
L 106.200186 -114.667007 
L 106.200186 -115.270765 
L 106.200186 -115.874523 
L 106.200186 -116.478281 
L 106.200186 -117.082039 
L 106.200186 -117.685797 
L 106.200186 -118.289555 
L 106.200186 -118.893313 
L 106.200186 -119.49707 
L 106.200186 -120.100828 
L 106.200186 -120.704586 
L 106.200186 -121.308344 
L 106.200186 -121.912102 
L 106.200186 -122.51586 
L 106.200186 -123.119618 
L 106.200186 -123.723376 
L 106.200186 -124.327134 
L 106.200186 -124.930892 
L 106.200186 -125.53465 
L 106.200186 -126.138408 
L 106.200186 -126.742166 
L 106.200186 -127.345924 
L 106.200186 -127.949682 
L 106.200186 -128.55344 
L 106.200186 -129.157198 
L 106.200186 -129.760956 
L 106.200186 -130.364714 
L 106.200186 -130.968472 
L 106.200186 -131.57223 
L 106.200186 -132.175988 
L 106.200186 -132.779745 
L 106.200186 -133.383503 
L 106.200186 -133.987261 
L 106.200186 -134.591019 
L 106.200186 -135.194777 
L 106.200186 -135.798535 
L 106.200186 -136.402293 
L 106.200186 -137.006051 
L 106.200186 -137.609809 
L 106.200186 -138.213567 
L 106.200186 -138.817325 
L 106.200186 -139.421083 
L 106.200186 -140.024841 
L 106.200186 -140.628599 
L 106.200186 -141.232357 
L 106.200186 -141.836115 
L 106.200186 -142.439873 
L 106.200186 -143.043631 
L 106.200186 -143.647389 
L 106.200186 -144.251147 
L 106.200186 -144.854905 
L 106.200186 -145.458663 
L 106.200186 -146.06242 
L 106.200186 -146.666178 
L 106.200186 -147.269936 
L 106.200186 -147.873694 
L 106.200186 -148.477452 
L 106.200186 -149.08121 
L 106.200186 -149.684968 
L 106.200186 -150.288726 
L 106.200186 -150.892484 
L 106.200186 -151.496242 
L 106.200186 -152.1 
L 106.22255 -152.1 
L 106.22255 -152.1 
L 106.229526 -151.496242 
L 106.237537 -150.892484 
L 106.248398 -150.288726 
L 106.265084 -149.684968 
L 106.290925 -149.08121 
L 106.327848 -148.477452 
L 106.374618 -147.873694 
L 106.427022 -147.269936 
L 106.480428 -146.666178 
L 106.532563 -146.06242 
L 106.584359 -145.458663 
L 106.639375 -144.854905 
L 106.703414 -144.251147 
L 106.783617 -143.647389 
L 106.885203 -143.043631 
L 107.007179 -142.439873 
L 107.141707 -141.836115 
L 107.279716 -141.232357 
L 107.419122 -140.628599 
L 107.56865 -140.024841 
L 107.743585 -139.421083 
L 107.956514 -138.817325 
L 108.20973 -138.213567 
L 108.494152 -137.609809 
L 108.795227 -137.006051 
L 109.101963 -136.402293 
L 109.412525 -135.798535 
L 109.731562 -135.194777 
L 110.061854 -134.591019 
L 110.398662 -133.987261 
L 110.731534 -133.383503 
L 111.049601 -132.779745 
L 111.344404 -132.175988 
L 111.610013 -131.57223 
L 111.844402 -130.968472 
L 112.053669 -130.364714 
L 112.254327 -129.760956 
L 112.465611 -129.157198 
L 112.691752 -128.55344 
L 112.909825 -127.949682 
L 113.079844 -127.345924 
L 113.170534 -126.742166 
L 113.175 -126.138408 
L 113.104202 -125.53465 
L 112.973423 -124.930892 
L 112.798482 -124.327134 
L 112.597401 -123.723376 
L 112.385648 -123.119618 
L 112.167662 -122.51586 
L 111.936999 -121.912102 
L 111.687073 -121.308344 
L 111.420726 -120.704586 
L 111.148326 -120.100828 
L 110.87698 -119.49707 
L 110.602791 -118.893313 
L 110.314948 -118.289555 
L 110.007613 -117.685797 
L 109.686718 -117.082039 
L 109.365081 -116.478281 
L 109.053052 -115.874523 
L 108.755096 -115.270765 
L 108.473252 -114.667007 
L 108.210855 -114.063249 
L 107.971997 -113.459491 
L 107.758225 -112.855733 
L 107.567036 -112.251975 
L 107.394513 -111.648217 
L 107.238935 -111.044459 
L 107.100429 -110.440701 
L 106.977446 -109.836943 
L 106.865893 -109.233185 
L 106.762585 -108.629427 
L 106.667969 -108.025669 
L 106.584477 -107.421911 
L 106.513378 -106.818153 
L 106.454129 -106.214396 
L 106.405675 -105.610638 
L 106.366954 -105.00688 
L 106.336232 -104.403122 
L 106.310963 -103.799364 
L 106.288803 -103.195606 
L 106.268747 -102.591848 
L 106.251204 -101.98809 
L 106.237015 -101.384332 
L 106.226383 -100.780574 
L 106.21862 -100.176816 
L 106.212743 -99.573058 
L 106.208134 -98.9693 
L 106.20466 -98.365542 
L 106.20233 -97.761784 
L 106.201014 -97.158026 
L 106.200439 -96.554268 
L 106.200377 -95.95051 
L 106.200773 -95.346752 
L 106.201725 -94.742994 
L 106.203295 -94.139236 
L 106.205241 -93.535478 
L 106.206926 -92.931721 
L 106.2076 -92.327963 
z
"/>
    </defs>
    <g clip-path="url(#p38166faa95)">
     <use xlink:href="#me4d7caf52c" x="0" y="180" style="fill: #ff4500; fill-opacity: 0.4"/>
    </g>
   </g>
   <g id="PolyCollection_4">
    <defs>
     <path id="m4964a67dd0" d="M 134.110238 -26.1 
L 134.100147 -26.1 
L 134.100147 -27.014504 
L 134.100147 -27.929008 
L 134.100147 -28.843512 
L 134.100147 -29.758016 
L 134.100147 -30.67252 
L 134.100147 -31.587024 
L 134.100147 -32.501528 
L 134.100147 -33.416032 
L 134.100147 -34.330536 
L 134.100147 -35.24504 
L 134.100147 -36.159544 
L 134.100147 -37.074048 
L 134.100147 -37.988552 
L 134.100147 -38.903056 
L 134.100147 -39.81756 
L 134.100147 -40.732064 
L 134.100147 -41.646569 
L 134.100147 -42.561073 
L 134.100147 -43.475577 
L 134.100147 -44.390081 
L 134.100147 -45.304585 
L 134.100147 -46.219089 
L 134.100147 -47.133593 
L 134.100147 -48.048097 
L 134.100147 -48.962601 
L 134.100147 -49.877105 
L 134.100147 -50.791609 
L 134.100147 -51.706113 
L 134.100147 -52.620617 
L 134.100147 -53.535121 
L 134.100147 -54.449625 
L 134.100147 -55.364129 
L 134.100147 -56.278633 
L 134.100147 -57.193137 
L 134.100147 -58.107641 
L 134.100147 -59.022145 
L 134.100147 -59.936649 
L 134.100147 -60.851153 
L 134.100147 -61.765657 
L 134.100147 -62.680161 
L 134.100147 -63.594665 
L 134.100147 -64.509169 
L 134.100147 -65.423673 
L 134.100147 -66.338177 
L 134.100147 -67.252681 
L 134.100147 -68.167185 
L 134.100147 -69.081689 
L 134.100147 -69.996193 
L 134.100147 -70.910697 
L 134.100147 -71.825202 
L 134.100147 -72.739706 
L 134.100147 -73.65421 
L 134.100147 -74.568714 
L 134.100147 -75.483218 
L 134.100147 -76.397722 
L 134.100147 -77.312226 
L 134.100147 -78.22673 
L 134.100147 -79.141234 
L 134.100147 -80.055738 
L 134.100147 -80.970242 
L 134.100147 -81.884746 
L 134.100147 -82.79925 
L 134.100147 -83.713754 
L 134.100147 -84.628258 
L 134.100147 -85.542762 
L 134.100147 -86.457266 
L 134.100147 -87.37177 
L 134.100147 -88.286274 
L 134.100147 -89.200778 
L 134.100147 -90.115282 
L 134.100147 -91.029786 
L 134.100147 -91.94429 
L 134.100147 -92.858794 
L 134.100147 -93.773298 
L 134.100147 -94.687802 
L 134.100147 -95.602306 
L 134.100147 -96.51681 
L 134.100147 -97.431314 
L 134.100147 -98.345818 
L 134.100147 -99.260322 
L 134.100147 -100.174826 
L 134.100147 -101.08933 
L 134.100147 -102.003834 
L 134.100147 -102.918339 
L 134.100147 -103.832843 
L 134.100147 -104.747347 
L 134.100147 -105.661851 
L 134.100147 -106.576355 
L 134.100147 -107.490859 
L 134.100147 -108.405363 
L 134.100147 -109.319867 
L 134.100147 -110.234371 
L 134.100147 -111.148875 
L 134.100147 -112.063379 
L 134.100147 -112.977883 
L 134.100147 -113.892387 
L 134.100147 -114.806891 
L 134.100147 -115.721395 
L 134.100147 -116.635899 
L 134.109421 -116.635899 
L 134.109421 -116.635899 
L 134.110287 -115.721395 
L 134.110596 -114.806891 
L 134.110666 -113.892387 
L 134.110613 -112.977883 
L 134.110669 -112.063379 
L 134.111464 -111.148875 
L 134.113632 -110.234371 
L 134.117206 -109.319867 
L 134.12182 -108.405363 
L 134.12757 -107.490859 
L 134.13526 -106.576355 
L 134.145362 -105.661851 
L 134.156969 -104.747347 
L 134.168352 -103.832843 
L 134.17883 -102.918339 
L 134.189793 -102.003834 
L 134.203583 -101.08933 
L 134.22142 -100.174826 
L 134.242869 -99.260322 
L 134.267601 -98.345818 
L 134.297094 -97.431314 
L 134.333463 -96.51681 
L 134.376724 -95.602306 
L 134.425291 -94.687802 
L 134.480911 -93.773298 
L 134.552271 -92.858794 
L 134.651167 -91.94429 
L 134.783462 -91.029786 
L 134.944066 -90.115282 
L 135.121586 -89.200778 
L 135.307652 -88.286274 
L 135.501495 -87.37177 
L 135.707427 -86.457266 
L 135.930998 -85.542762 
L 136.178239 -84.628258 
L 136.455916 -83.713754 
L 136.768694 -82.79925 
L 137.113519 -81.884746 
L 137.476524 -80.970242 
L 137.837491 -80.055738 
L 138.180798 -79.141234 
L 138.50525 -78.22673 
L 138.823904 -77.312226 
L 139.152114 -76.397722 
L 139.493681 -75.483218 
L 139.838054 -74.568714 
L 140.168474 -73.65421 
L 140.468376 -72.739706 
L 140.720426 -71.825202 
L 140.907116 -70.910697 
L 141.019786 -69.996193 
L 141.067856 -69.081689 
L 141.075 -68.167185 
L 141.062242 -67.252681 
L 141.033659 -66.338177 
L 140.979166 -65.423673 
L 140.889996 -64.509169 
L 140.768219 -63.594665 
L 140.620605 -62.680161 
L 140.44696 -61.765657 
L 140.237736 -60.851153 
L 139.982793 -59.936649 
L 139.681271 -59.022145 
L 139.343335 -58.107641 
L 138.984682 -57.193137 
L 138.621023 -56.278633 
L 138.264442 -55.364129 
L 137.918994 -54.449625 
L 137.5796 -53.535121 
L 137.240361 -52.620617 
L 136.90503 -51.706113 
L 136.586458 -50.791609 
L 136.29623 -49.877105 
L 136.037058 -48.962601 
L 135.803533 -48.048097 
L 135.587644 -47.133593 
L 135.385159 -46.219089 
L 135.199634 -45.304585 
L 135.039886 -44.390081 
L 134.911542 -43.475577 
L 134.810496 -42.561073 
L 134.724926 -41.646569 
L 134.643348 -40.732064 
L 134.560655 -39.81756 
L 134.478011 -38.903056 
L 134.399378 -37.988552 
L 134.329047 -37.074048 
L 134.270908 -36.159544 
L 134.22761 -35.24504 
L 134.199148 -34.330536 
L 134.182237 -33.416032 
L 134.171505 -32.501528 
L 134.161871 -31.587024 
L 134.150639 -30.67252 
L 134.138139 -29.758016 
L 134.12663 -28.843512 
L 134.118192 -27.929008 
L 134.11316 -27.014504 
L 134.110238 -26.1 
z
"/>
    </defs>
    <g clip-path="url(#p38166faa95)">
     <use xlink:href="#m4964a67dd0" x="0" y="180" style="fill: #2e8b57; fill-opacity: 0.4"/>
    </g>
   </g>
   <g id="PolyCollection_5">
    <path d="M 22.5 88.855798 
L 22.5 102.455755 
L 22.779 102.455755 
L 23.058 102.455755 
L 23.337 102.455755 
L 23.616 102.455755 
L 23.895 102.455755 
L 24.174 102.455755 
L 24.453 102.455755 
L 24.732 102.455755 
L 25.011 102.455755 
L 25.29 102.455755 
L 25.569 102.455755 
L 25.848 102.455755 
L 26.127 102.455755 
L 26.406 102.455755 
L 26.685 102.455755 
L 26.964 102.455755 
L 27.243 102.455755 
L 27.522 102.455755 
L 27.801 102.455755 
L 28.08 102.455755 
L 28.359 102.455755 
L 28.638 102.455755 
L 28.917 102.455755 
L 29.196 102.455755 
L 29.475 102.455755 
L 29.754 102.455755 
L 30.033 102.455755 
L 30.312 102.455755 
L 30.591 102.455755 
L 30.87 102.455755 
L 31.149 102.455755 
L 31.428 102.455755 
L 31.707 102.455755 
L 31.986 102.455755 
L 32.265 102.455755 
L 32.544 102.455755 
L 32.823 102.455755 
L 33.102 102.455755 
L 33.381 102.455755 
L 33.66 102.455755 
L 33.939 102.455755 
L 34.218 102.455755 
L 34.497 102.455755 
L 34.776 102.455755 
L 35.055 102.455755 
L 35.334 102.455755 
L 35.613 102.455755 
L 35.892 102.455755 
L 36.171 102.455755 
L 36.45 102.455755 
L 36.729 102.455755 
L 37.008 102.455755 
L 37.287 102.455755 
L 37.566 102.455755 
L 37.845 102.455755 
L 38.124 102.455755 
L 38.403 102.455755 
L 38.682 102.455755 
L 38.961 102.455755 
L 39.24 102.455755 
L 39.519 102.455755 
L 39.798 102.455755 
L 40.077 102.455755 
L 40.356 102.455755 
L 40.635 102.455755 
L 40.914 102.455755 
L 41.193 102.455755 
L 41.472 102.455755 
L 41.751 102.455755 
L 42.03 102.455755 
L 42.309 102.455755 
L 42.588 102.455755 
L 42.867 102.455755 
L 43.146 102.455755 
L 43.425 102.455755 
L 43.704 102.455755 
L 43.983 102.455755 
L 44.262 102.455755 
L 44.541 102.455755 
L 44.82 102.455755 
L 45.099 102.455755 
L 45.378 102.455755 
L 45.657 102.455755 
L 45.936 102.455755 
L 46.215 102.455755 
L 46.494 102.455755 
L 46.773 102.455755 
L 47.052 102.455755 
L 47.331 102.455755 
L 47.61 102.455755 
L 47.889 102.455755 
L 48.168 102.455755 
L 48.447 102.455755 
L 48.726 102.455755 
L 49.005 102.455755 
L 49.284 102.455755 
L 49.563 102.455755 
L 49.842 102.455755 
L 50.121 102.455755 
L 50.4 102.455755 
L 50.679 102.455755 
L 50.958 102.455755 
L 51.237 102.455755 
L 51.516 102.455755 
L 51.795 102.455755 
L 52.074 102.455755 
L 52.353 102.455755 
L 52.632 102.455755 
L 52.911 102.455755 
L 53.19 102.455755 
L 53.469 102.455755 
L 53.748 102.455755 
L 54.027 102.455755 
L 54.306 102.455755 
L 54.585 102.455755 
L 54.864 102.455755 
L 55.143 102.455755 
L 55.422 102.455755 
L 55.701 102.455755 
L 55.98 102.455755 
L 56.259 102.455755 
L 56.538 102.455755 
L 56.817 102.455755 
L 57.096 102.455755 
L 57.375 102.455755 
L 57.654 102.455755 
L 57.933 102.455755 
L 58.212 102.455755 
L 58.491 102.455755 
L 58.77 102.455755 
L 59.049 102.455755 
L 59.328 102.455755 
L 59.607 102.455755 
L 59.886 102.455755 
L 60.165 102.455755 
L 60.444 102.455755 
L 60.723 102.455755 
L 61.002 102.455755 
L 61.281 102.455755 
L 61.56 102.455755 
L 61.839 102.455755 
L 62.118 102.455755 
L 62.397 102.455755 
L 62.676 102.455755 
L 62.955 102.455755 
L 63.234 102.455755 
L 63.513 102.455755 
L 63.792 102.455755 
L 64.071 102.455755 
L 64.35 102.455755 
L 64.629 102.455755 
L 64.908 102.455755 
L 65.187 102.455755 
L 65.466 102.455755 
L 65.745 102.455755 
L 66.024 102.455755 
L 66.303 102.455755 
L 66.582 102.455755 
L 66.861 102.455755 
L 67.14 102.455755 
L 67.419 102.455755 
L 67.698 102.455755 
L 67.977 102.455755 
L 68.256 102.455755 
L 68.535 102.455755 
L 68.814 102.455755 
L 69.093 102.455755 
L 69.372 102.455755 
L 69.651 102.455755 
L 69.93 102.455755 
L 70.209 102.455755 
L 70.488 102.455755 
L 70.767 102.455755 
L 71.046 102.455755 
L 71.325 102.455755 
L 71.604 102.455755 
L 71.883 102.455755 
L 72.162 102.455755 
L 72.441 102.455755 
L 72.72 102.455755 
L 72.999 102.455755 
L 73.278 102.455755 
L 73.557 102.455755 
L 73.836 102.455755 
L 74.115 102.455755 
L 74.394 102.455755 
L 74.673 102.455755 
L 74.952 102.455755 
L 75.231 102.455755 
L 75.51 102.455755 
L 75.789 102.455755 
L 76.068 102.455755 
L 76.347 102.455755 
L 76.626 102.455755 
L 76.905 102.455755 
L 77.184 102.455755 
L 77.463 102.455755 
L 77.742 102.455755 
L 78.021 102.455755 
L 78.3 102.455755 
L 78.579 102.455755 
L 78.858 102.455755 
L 79.137 102.455755 
L 79.416 102.455755 
L 79.695 102.455755 
L 79.974 102.455755 
L 80.253 102.455755 
L 80.532 102.455755 
L 80.811 102.455755 
L 81.09 102.455755 
L 81.369 102.455755 
L 81.648 102.455755 
L 81.927 102.455755 
L 82.206 102.455755 
L 82.485 102.455755 
L 82.764 102.455755 
L 83.043 102.455755 
L 83.322 102.455755 
L 83.601 102.455755 
L 83.88 102.455755 
L 84.159 102.455755 
L 84.438 102.455755 
L 84.717 102.455755 
L 84.996 102.455755 
L 85.275 102.455755 
L 85.554 102.455755 
L 85.833 102.455755 
L 86.112 102.455755 
L 86.391 102.455755 
L 86.67 102.455755 
L 86.949 102.455755 
L 87.228 102.455755 
L 87.507 102.455755 
L 87.786 102.455755 
L 88.065 102.455755 
L 88.344 102.455755 
L 88.623 102.455755 
L 88.902 102.455755 
L 89.181 102.455755 
L 89.46 102.455755 
L 89.739 102.455755 
L 90.018 102.455755 
L 90.297 102.455755 
L 90.576 102.455755 
L 90.855 102.455755 
L 91.134 102.455755 
L 91.413 102.455755 
L 91.692 102.455755 
L 91.971 102.455755 
L 92.25 102.455755 
L 92.529 102.455755 
L 92.808 102.455755 
L 93.087 102.455755 
L 93.366 102.455755 
L 93.645 102.455755 
L 93.924 102.455755 
L 94.203 102.455755 
L 94.482 102.455755 
L 94.761 102.455755 
L 95.04 102.455755 
L 95.319 102.455755 
L 95.598 102.455755 
L 95.877 102.455755 
L 96.156 102.455755 
L 96.435 102.455755 
L 96.714 102.455755 
L 96.993 102.455755 
L 97.272 102.455755 
L 97.551 102.455755 
L 97.83 102.455755 
L 98.109 102.455755 
L 98.388 102.455755 
L 98.667 102.455755 
L 98.946 102.455755 
L 99.225 102.455755 
L 99.504 102.455755 
L 99.783 102.455755 
L 100.062 102.455755 
L 100.341 102.455755 
L 100.62 102.455755 
L 100.899 102.455755 
L 101.178 102.455755 
L 101.457 102.455755 
L 101.736 102.455755 
L 102.015 102.455755 
L 102.294 102.455755 
L 102.573 102.455755 
L 102.852 102.455755 
L 103.131 102.455755 
L 103.41 102.455755 
L 103.689 102.455755 
L 103.968 102.455755 
L 104.247 102.455755 
L 104.526 102.455755 
L 104.805 102.455755 
L 105.084 102.455755 
L 105.363 102.455755 
L 105.642 102.455755 
L 105.921 102.455755 
L 106.2 102.455755 
L 106.479 102.455755 
L 106.758 102.455755 
L 107.037 102.455755 
L 107.316 102.455755 
L 107.595 102.455755 
L 107.874 102.455755 
L 108.153 102.455755 
L 108.432 102.455755 
L 108.711 102.455755 
L 108.99 102.455755 
L 109.269 102.455755 
L 109.548 102.455755 
L 109.827 102.455755 
L 110.106 102.455755 
L 110.385 102.455755 
L 110.664 102.455755 
L 110.943 102.455755 
L 111.222 102.455755 
L 111.501 102.455755 
L 111.78 102.455755 
L 112.059 102.455755 
L 112.338 102.455755 
L 112.617 102.455755 
L 112.896 102.455755 
L 113.175 102.455755 
L 113.454 102.455755 
L 113.733 102.455755 
L 114.012 102.455755 
L 114.291 102.455755 
L 114.57 102.455755 
L 114.849 102.455755 
L 115.128 102.455755 
L 115.407 102.455755 
L 115.686 102.455755 
L 115.965 102.455755 
L 116.244 102.455755 
L 116.523 102.455755 
L 116.802 102.455755 
L 117.081 102.455755 
L 117.36 102.455755 
L 117.639 102.455755 
L 117.918 102.455755 
L 118.197 102.455755 
L 118.476 102.455755 
L 118.755 102.455755 
L 119.034 102.455755 
L 119.313 102.455755 
L 119.592 102.455755 
L 119.871 102.455755 
L 120.15 102.455755 
L 120.429 102.455755 
L 120.708 102.455755 
L 120.987 102.455755 
L 121.266 102.455755 
L 121.545 102.455755 
L 121.824 102.455755 
L 122.103 102.455755 
L 122.382 102.455755 
L 122.661 102.455755 
L 122.94 102.455755 
L 123.219 102.455755 
L 123.498 102.455755 
L 123.777 102.455755 
L 124.056 102.455755 
L 124.335 102.455755 
L 124.614 102.455755 
L 124.893 102.455755 
L 125.172 102.455755 
L 125.451 102.455755 
L 125.73 102.455755 
L 126.009 102.455755 
L 126.288 102.455755 
L 126.567 102.455755 
L 126.846 102.455755 
L 127.125 102.455755 
L 127.404 102.455755 
L 127.683 102.455755 
L 127.962 102.455755 
L 128.241 102.455755 
L 128.52 102.455755 
L 128.799 102.455755 
L 129.078 102.455755 
L 129.357 102.455755 
L 129.636 102.455755 
L 129.915 102.455755 
L 130.194 102.455755 
L 130.473 102.455755 
L 130.752 102.455755 
L 131.031 102.455755 
L 131.31 102.455755 
L 131.589 102.455755 
L 131.868 102.455755 
L 132.147 102.455755 
L 132.426 102.455755 
L 132.705 102.455755 
L 132.984 102.455755 
L 133.263 102.455755 
L 133.542 102.455755 
L 133.821 102.455755 
L 134.1 102.455755 
L 134.379 102.455755 
L 134.658 102.455755 
L 134.937 102.455755 
L 135.216 102.455755 
L 135.495 102.455755 
L 135.774 102.455755 
L 136.053 102.455755 
L 136.332 102.455755 
L 136.611 102.455755 
L 136.89 102.455755 
L 137.169 102.455755 
L 137.448 102.455755 
L 137.727 102.455755 
L 138.006 102.455755 
L 138.285 102.455755 
L 138.564 102.455755 
L 138.843 102.455755 
L 139.122 102.455755 
L 139.401 102.455755 
L 139.68 102.455755 
L 139.959 102.455755 
L 140.238 102.455755 
L 140.517 102.455755 
L 140.796 102.455755 
L 141.075 102.455755 
L 141.354 102.455755 
L 141.633 102.455755 
L 141.912 102.455755 
L 142.191 102.455755 
L 142.47 102.455755 
L 142.749 102.455755 
L 143.028 102.455755 
L 143.307 102.455755 
L 143.586 102.455755 
L 143.865 102.455755 
L 144.144 102.455755 
L 144.423 102.455755 
L 144.702 102.455755 
L 144.981 102.455755 
L 145.26 102.455755 
L 145.539 102.455755 
L 145.818 102.455755 
L 146.097 102.455755 
L 146.376 102.455755 
L 146.655 102.455755 
L 146.934 102.455755 
L 147.213 102.455755 
L 147.492 102.455755 
L 147.771 102.455755 
L 148.05 102.455755 
L 148.329 102.455755 
L 148.608 102.455755 
L 148.887 102.455755 
L 149.166 102.455755 
L 149.445 102.455755 
L 149.724 102.455755 
L 150.003 102.455755 
L 150.282 102.455755 
L 150.561 102.455755 
L 150.84 102.455755 
L 151.119 102.455755 
L 151.398 102.455755 
L 151.677 102.455755 
L 151.956 102.455755 
L 152.235 102.455755 
L 152.514 102.455755 
L 152.793 102.455755 
L 153.072 102.455755 
L 153.351 102.455755 
L 153.63 102.455755 
L 153.909 102.455755 
L 154.188 102.455755 
L 154.467 102.455755 
L 154.746 102.455755 
L 155.025 102.455755 
L 155.304 102.455755 
L 155.583 102.455755 
L 155.862 102.455755 
L 156.141 102.455755 
L 156.42 102.455755 
L 156.699 102.455755 
L 156.978 102.455755 
L 157.257 102.455755 
L 157.536 102.455755 
L 157.815 102.455755 
L 158.094 102.455755 
L 158.373 102.455755 
L 158.652 102.455755 
L 158.931 102.455755 
L 159.21 102.455755 
L 159.489 102.455755 
L 159.768 102.455755 
L 160.047 102.455755 
L 160.326 102.455755 
L 160.605 102.455755 
L 160.884 102.455755 
L 161.163 102.455755 
L 161.442 102.455755 
L 161.721 102.455755 
L 161.721 88.855798 
L 161.721 88.855798 
L 161.442 88.855798 
L 161.163 88.855798 
L 160.884 88.855798 
L 160.605 88.855798 
L 160.326 88.855798 
L 160.047 88.855798 
L 159.768 88.855798 
L 159.489 88.855798 
L 159.21 88.855798 
L 158.931 88.855798 
L 158.652 88.855798 
L 158.373 88.855798 
L 158.094 88.855798 
L 157.815 88.855798 
L 157.536 88.855798 
L 157.257 88.855798 
L 156.978 88.855798 
L 156.699 88.855798 
L 156.42 88.855798 
L 156.141 88.855798 
L 155.862 88.855798 
L 155.583 88.855798 
L 155.304 88.855798 
L 155.025 88.855798 
L 154.746 88.855798 
L 154.467 88.855798 
L 154.188 88.855798 
L 153.909 88.855798 
L 153.63 88.855798 
L 153.351 88.855798 
L 153.072 88.855798 
L 152.793 88.855798 
L 152.514 88.855798 
L 152.235 88.855798 
L 151.956 88.855798 
L 151.677 88.855798 
L 151.398 88.855798 
L 151.119 88.855798 
L 150.84 88.855798 
L 150.561 88.855798 
L 150.282 88.855798 
L 150.003 88.855798 
L 149.724 88.855798 
L 149.445 88.855798 
L 149.166 88.855798 
L 148.887 88.855798 
L 148.608 88.855798 
L 148.329 88.855798 
L 148.05 88.855798 
L 147.771 88.855798 
L 147.492 88.855798 
L 147.213 88.855798 
L 146.934 88.855798 
L 146.655 88.855798 
L 146.376 88.855798 
L 146.097 88.855798 
L 145.818 88.855798 
L 145.539 88.855798 
L 145.26 88.855798 
L 144.981 88.855798 
L 144.702 88.855798 
L 144.423 88.855798 
L 144.144 88.855798 
L 143.865 88.855798 
L 143.586 88.855798 
L 143.307 88.855798 
L 143.028 88.855798 
L 142.749 88.855798 
L 142.47 88.855798 
L 142.191 88.855798 
L 141.912 88.855798 
L 141.633 88.855798 
L 141.354 88.855798 
L 141.075 88.855798 
L 140.796 88.855798 
L 140.517 88.855798 
L 140.238 88.855798 
L 139.959 88.855798 
L 139.68 88.855798 
L 139.401 88.855798 
L 139.122 88.855798 
L 138.843 88.855798 
L 138.564 88.855798 
L 138.285 88.855798 
L 138.006 88.855798 
L 137.727 88.855798 
L 137.448 88.855798 
L 137.169 88.855798 
L 136.89 88.855798 
L 136.611 88.855798 
L 136.332 88.855798 
L 136.053 88.855798 
L 135.774 88.855798 
L 135.495 88.855798 
L 135.216 88.855798 
L 134.937 88.855798 
L 134.658 88.855798 
L 134.379 88.855798 
L 134.1 88.855798 
L 133.821 88.855798 
L 133.542 88.855798 
L 133.263 88.855798 
L 132.984 88.855798 
L 132.705 88.855798 
L 132.426 88.855798 
L 132.147 88.855798 
L 131.868 88.855798 
L 131.589 88.855798 
L 131.31 88.855798 
L 131.031 88.855798 
L 130.752 88.855798 
L 130.473 88.855798 
L 130.194 88.855798 
L 129.915 88.855798 
L 129.636 88.855798 
L 129.357 88.855798 
L 129.078 88.855798 
L 128.799 88.855798 
L 128.52 88.855798 
L 128.241 88.855798 
L 127.962 88.855798 
L 127.683 88.855798 
L 127.404 88.855798 
L 127.125 88.855798 
L 126.846 88.855798 
L 126.567 88.855798 
L 126.288 88.855798 
L 126.009 88.855798 
L 125.73 88.855798 
L 125.451 88.855798 
L 125.172 88.855798 
L 124.893 88.855798 
L 124.614 88.855798 
L 124.335 88.855798 
L 124.056 88.855798 
L 123.777 88.855798 
L 123.498 88.855798 
L 123.219 88.855798 
L 122.94 88.855798 
L 122.661 88.855798 
L 122.382 88.855798 
L 122.103 88.855798 
L 121.824 88.855798 
L 121.545 88.855798 
L 121.266 88.855798 
L 120.987 88.855798 
L 120.708 88.855798 
L 120.429 88.855798 
L 120.15 88.855798 
L 119.871 88.855798 
L 119.592 88.855798 
L 119.313 88.855798 
L 119.034 88.855798 
L 118.755 88.855798 
L 118.476 88.855798 
L 118.197 88.855798 
L 117.918 88.855798 
L 117.639 88.855798 
L 117.36 88.855798 
L 117.081 88.855798 
L 116.802 88.855798 
L 116.523 88.855798 
L 116.244 88.855798 
L 115.965 88.855798 
L 115.686 88.855798 
L 115.407 88.855798 
L 115.128 88.855798 
L 114.849 88.855798 
L 114.57 88.855798 
L 114.291 88.855798 
L 114.012 88.855798 
L 113.733 88.855798 
L 113.454 88.855798 
L 113.175 88.855798 
L 112.896 88.855798 
L 112.617 88.855798 
L 112.338 88.855798 
L 112.059 88.855798 
L 111.78 88.855798 
L 111.501 88.855798 
L 111.222 88.855798 
L 110.943 88.855798 
L 110.664 88.855798 
L 110.385 88.855798 
L 110.106 88.855798 
L 109.827 88.855798 
L 109.548 88.855798 
L 109.269 88.855798 
L 108.99 88.855798 
L 108.711 88.855798 
L 108.432 88.855798 
L 108.153 88.855798 
L 107.874 88.855798 
L 107.595 88.855798 
L 107.316 88.855798 
L 107.037 88.855798 
L 106.758 88.855798 
L 106.479 88.855798 
L 106.2 88.855798 
L 105.921 88.855798 
L 105.642 88.855798 
L 105.363 88.855798 
L 105.084 88.855798 
L 104.805 88.855798 
L 104.526 88.855798 
L 104.247 88.855798 
L 103.968 88.855798 
L 103.689 88.855798 
L 103.41 88.855798 
L 103.131 88.855798 
L 102.852 88.855798 
L 102.573 88.855798 
L 102.294 88.855798 
L 102.015 88.855798 
L 101.736 88.855798 
L 101.457 88.855798 
L 101.178 88.855798 
L 100.899 88.855798 
L 100.62 88.855798 
L 100.341 88.855798 
L 100.062 88.855798 
L 99.783 88.855798 
L 99.504 88.855798 
L 99.225 88.855798 
L 98.946 88.855798 
L 98.667 88.855798 
L 98.388 88.855798 
L 98.109 88.855798 
L 97.83 88.855798 
L 97.551 88.855798 
L 97.272 88.855798 
L 96.993 88.855798 
L 96.714 88.855798 
L 96.435 88.855798 
L 96.156 88.855798 
L 95.877 88.855798 
L 95.598 88.855798 
L 95.319 88.855798 
L 95.04 88.855798 
L 94.761 88.855798 
L 94.482 88.855798 
L 94.203 88.855798 
L 93.924 88.855798 
L 93.645 88.855798 
L 93.366 88.855798 
L 93.087 88.855798 
L 92.808 88.855798 
L 92.529 88.855798 
L 92.25 88.855798 
L 91.971 88.855798 
L 91.692 88.855798 
L 91.413 88.855798 
L 91.134 88.855798 
L 90.855 88.855798 
L 90.576 88.855798 
L 90.297 88.855798 
L 90.018 88.855798 
L 89.739 88.855798 
L 89.46 88.855798 
L 89.181 88.855798 
L 88.902 88.855798 
L 88.623 88.855798 
L 88.344 88.855798 
L 88.065 88.855798 
L 87.786 88.855798 
L 87.507 88.855798 
L 87.228 88.855798 
L 86.949 88.855798 
L 86.67 88.855798 
L 86.391 88.855798 
L 86.112 88.855798 
L 85.833 88.855798 
L 85.554 88.855798 
L 85.275 88.855798 
L 84.996 88.855798 
L 84.717 88.855798 
L 84.438 88.855798 
L 84.159 88.855798 
L 83.88 88.855798 
L 83.601 88.855798 
L 83.322 88.855798 
L 83.043 88.855798 
L 82.764 88.855798 
L 82.485 88.855798 
L 82.206 88.855798 
L 81.927 88.855798 
L 81.648 88.855798 
L 81.369 88.855798 
L 81.09 88.855798 
L 80.811 88.855798 
L 80.532 88.855798 
L 80.253 88.855798 
L 79.974 88.855798 
L 79.695 88.855798 
L 79.416 88.855798 
L 79.137 88.855798 
L 78.858 88.855798 
L 78.579 88.855798 
L 78.3 88.855798 
L 78.021 88.855798 
L 77.742 88.855798 
L 77.463 88.855798 
L 77.184 88.855798 
L 76.905 88.855798 
L 76.626 88.855798 
L 76.347 88.855798 
L 76.068 88.855798 
L 75.789 88.855798 
L 75.51 88.855798 
L 75.231 88.855798 
L 74.952 88.855798 
L 74.673 88.855798 
L 74.394 88.855798 
L 74.115 88.855798 
L 73.836 88.855798 
L 73.557 88.855798 
L 73.278 88.855798 
L 72.999 88.855798 
L 72.72 88.855798 
L 72.441 88.855798 
L 72.162 88.855798 
L 71.883 88.855798 
L 71.604 88.855798 
L 71.325 88.855798 
L 71.046 88.855798 
L 70.767 88.855798 
L 70.488 88.855798 
L 70.209 88.855798 
L 69.93 88.855798 
L 69.651 88.855798 
L 69.372 88.855798 
L 69.093 88.855798 
L 68.814 88.855798 
L 68.535 88.855798 
L 68.256 88.855798 
L 67.977 88.855798 
L 67.698 88.855798 
L 67.419 88.855798 
L 67.14 88.855798 
L 66.861 88.855798 
L 66.582 88.855798 
L 66.303 88.855798 
L 66.024 88.855798 
L 65.745 88.855798 
L 65.466 88.855798 
L 65.187 88.855798 
L 64.908 88.855798 
L 64.629 88.855798 
L 64.35 88.855798 
L 64.071 88.855798 
L 63.792 88.855798 
L 63.513 88.855798 
L 63.234 88.855798 
L 62.955 88.855798 
L 62.676 88.855798 
L 62.397 88.855798 
L 62.118 88.855798 
L 61.839 88.855798 
L 61.56 88.855798 
L 61.281 88.855798 
L 61.002 88.855798 
L 60.723 88.855798 
L 60.444 88.855798 
L 60.165 88.855798 
L 59.886 88.855798 
L 59.607 88.855798 
L 59.328 88.855798 
L 59.049 88.855798 
L 58.77 88.855798 
L 58.491 88.855798 
L 58.212 88.855798 
L 57.933 88.855798 
L 57.654 88.855798 
L 57.375 88.855798 
L 57.096 88.855798 
L 56.817 88.855798 
L 56.538 88.855798 
L 56.259 88.855798 
L 55.98 88.855798 
L 55.701 88.855798 
L 55.422 88.855798 
L 55.143 88.855798 
L 54.864 88.855798 
L 54.585 88.855798 
L 54.306 88.855798 
L 54.027 88.855798 
L 53.748 88.855798 
L 53.469 88.855798 
L 53.19 88.855798 
L 52.911 88.855798 
L 52.632 88.855798 
L 52.353 88.855798 
L 52.074 88.855798 
L 51.795 88.855798 
L 51.516 88.855798 
L 51.237 88.855798 
L 50.958 88.855798 
L 50.679 88.855798 
L 50.4 88.855798 
L 50.121 88.855798 
L 49.842 88.855798 
L 49.563 88.855798 
L 49.284 88.855798 
L 49.005 88.855798 
L 48.726 88.855798 
L 48.447 88.855798 
L 48.168 88.855798 
L 47.889 88.855798 
L 47.61 88.855798 
L 47.331 88.855798 
L 47.052 88.855798 
L 46.773 88.855798 
L 46.494 88.855798 
L 46.215 88.855798 
L 45.936 88.855798 
L 45.657 88.855798 
L 45.378 88.855798 
L 45.099 88.855798 
L 44.82 88.855798 
L 44.541 88.855798 
L 44.262 88.855798 
L 43.983 88.855798 
L 43.704 88.855798 
L 43.425 88.855798 
L 43.146 88.855798 
L 42.867 88.855798 
L 42.588 88.855798 
L 42.309 88.855798 
L 42.03 88.855798 
L 41.751 88.855798 
L 41.472 88.855798 
L 41.193 88.855798 
L 40.914 88.855798 
L 40.635 88.855798 
L 40.356 88.855798 
L 40.077 88.855798 
L 39.798 88.855798 
L 39.519 88.855798 
L 39.24 88.855798 
L 38.961 88.855798 
L 38.682 88.855798 
L 38.403 88.855798 
L 38.124 88.855798 
L 37.845 88.855798 
L 37.566 88.855798 
L 37.287 88.855798 
L 37.008 88.855798 
L 36.729 88.855798 
L 36.45 88.855798 
L 36.171 88.855798 
L 35.892 88.855798 
L 35.613 88.855798 
L 35.334 88.855798 
L 35.055 88.855798 
L 34.776 88.855798 
L 34.497 88.855798 
L 34.218 88.855798 
L 33.939 88.855798 
L 33.66 88.855798 
L 33.381 88.855798 
L 33.102 88.855798 
L 32.823 88.855798 
L 32.544 88.855798 
L 32.265 88.855798 
L 31.986 88.855798 
L 31.707 88.855798 
L 31.428 88.855798 
L 31.149 88.855798 
L 30.87 88.855798 
L 30.591 88.855798 
L 30.312 88.855798 
L 30.033 88.855798 
L 29.754 88.855798 
L 29.475 88.855798 
L 29.196 88.855798 
L 28.917 88.855798 
L 28.638 88.855798 
L 28.359 88.855798 
L 28.08 88.855798 
L 27.801 88.855798 
L 27.522 88.855798 
L 27.243 88.855798 
L 26.964 88.855798 
L 26.685 88.855798 
L 26.406 88.855798 
L 26.127 88.855798 
L 25.848 88.855798 
L 25.569 88.855798 
L 25.29 88.855798 
L 25.011 88.855798 
L 24.732 88.855798 
L 24.453 88.855798 
L 24.174 88.855798 
L 23.895 88.855798 
L 23.616 88.855798 
L 23.337 88.855798 
L 23.058 88.855798 
L 22.779 88.855798 
L 22.5 88.855798 
z
" clip-path="url(#p38166faa95)" style="fill: #d3436e; fill-opacity: 0.1"/>
   </g>
   <g id="PolyCollection_6">
    <path d="M 22.5 53.185232 
L 22.5 74.092002 
L 22.779 74.092002 
L 23.058 74.092002 
L 23.337 74.092002 
L 23.616 74.092002 
L 23.895 74.092002 
L 24.174 74.092002 
L 24.453 74.092002 
L 24.732 74.092002 
L 25.011 74.092002 
L 25.29 74.092002 
L 25.569 74.092002 
L 25.848 74.092002 
L 26.127 74.092002 
L 26.406 74.092002 
L 26.685 74.092002 
L 26.964 74.092002 
L 27.243 74.092002 
L 27.522 74.092002 
L 27.801 74.092002 
L 28.08 74.092002 
L 28.359 74.092002 
L 28.638 74.092002 
L 28.917 74.092002 
L 29.196 74.092002 
L 29.475 74.092002 
L 29.754 74.092002 
L 30.033 74.092002 
L 30.312 74.092002 
L 30.591 74.092002 
L 30.87 74.092002 
L 31.149 74.092002 
L 31.428 74.092002 
L 31.707 74.092002 
L 31.986 74.092002 
L 32.265 74.092002 
L 32.544 74.092002 
L 32.823 74.092002 
L 33.102 74.092002 
L 33.381 74.092002 
L 33.66 74.092002 
L 33.939 74.092002 
L 34.218 74.092002 
L 34.497 74.092002 
L 34.776 74.092002 
L 35.055 74.092002 
L 35.334 74.092002 
L 35.613 74.092002 
L 35.892 74.092002 
L 36.171 74.092002 
L 36.45 74.092002 
L 36.729 74.092002 
L 37.008 74.092002 
L 37.287 74.092002 
L 37.566 74.092002 
L 37.845 74.092002 
L 38.124 74.092002 
L 38.403 74.092002 
L 38.682 74.092002 
L 38.961 74.092002 
L 39.24 74.092002 
L 39.519 74.092002 
L 39.798 74.092002 
L 40.077 74.092002 
L 40.356 74.092002 
L 40.635 74.092002 
L 40.914 74.092002 
L 41.193 74.092002 
L 41.472 74.092002 
L 41.751 74.092002 
L 42.03 74.092002 
L 42.309 74.092002 
L 42.588 74.092002 
L 42.867 74.092002 
L 43.146 74.092002 
L 43.425 74.092002 
L 43.704 74.092002 
L 43.983 74.092002 
L 44.262 74.092002 
L 44.541 74.092002 
L 44.82 74.092002 
L 45.099 74.092002 
L 45.378 74.092002 
L 45.657 74.092002 
L 45.936 74.092002 
L 46.215 74.092002 
L 46.494 74.092002 
L 46.773 74.092002 
L 47.052 74.092002 
L 47.331 74.092002 
L 47.61 74.092002 
L 47.889 74.092002 
L 48.168 74.092002 
L 48.447 74.092002 
L 48.726 74.092002 
L 49.005 74.092002 
L 49.284 74.092002 
L 49.563 74.092002 
L 49.842 74.092002 
L 50.121 74.092002 
L 50.4 74.092002 
L 50.679 74.092002 
L 50.958 74.092002 
L 51.237 74.092002 
L 51.516 74.092002 
L 51.795 74.092002 
L 52.074 74.092002 
L 52.353 74.092002 
L 52.632 74.092002 
L 52.911 74.092002 
L 53.19 74.092002 
L 53.469 74.092002 
L 53.748 74.092002 
L 54.027 74.092002 
L 54.306 74.092002 
L 54.585 74.092002 
L 54.864 74.092002 
L 55.143 74.092002 
L 55.422 74.092002 
L 55.701 74.092002 
L 55.98 74.092002 
L 56.259 74.092002 
L 56.538 74.092002 
L 56.817 74.092002 
L 57.096 74.092002 
L 57.375 74.092002 
L 57.654 74.092002 
L 57.933 74.092002 
L 58.212 74.092002 
L 58.491 74.092002 
L 58.77 74.092002 
L 59.049 74.092002 
L 59.328 74.092002 
L 59.607 74.092002 
L 59.886 74.092002 
L 60.165 74.092002 
L 60.444 74.092002 
L 60.723 74.092002 
L 61.002 74.092002 
L 61.281 74.092002 
L 61.56 74.092002 
L 61.839 74.092002 
L 62.118 74.092002 
L 62.397 74.092002 
L 62.676 74.092002 
L 62.955 74.092002 
L 63.234 74.092002 
L 63.513 74.092002 
L 63.792 74.092002 
L 64.071 74.092002 
L 64.35 74.092002 
L 64.629 74.092002 
L 64.908 74.092002 
L 65.187 74.092002 
L 65.466 74.092002 
L 65.745 74.092002 
L 66.024 74.092002 
L 66.303 74.092002 
L 66.582 74.092002 
L 66.861 74.092002 
L 67.14 74.092002 
L 67.419 74.092002 
L 67.698 74.092002 
L 67.977 74.092002 
L 68.256 74.092002 
L 68.535 74.092002 
L 68.814 74.092002 
L 69.093 74.092002 
L 69.372 74.092002 
L 69.651 74.092002 
L 69.93 74.092002 
L 70.209 74.092002 
L 70.488 74.092002 
L 70.767 74.092002 
L 71.046 74.092002 
L 71.325 74.092002 
L 71.604 74.092002 
L 71.883 74.092002 
L 72.162 74.092002 
L 72.441 74.092002 
L 72.72 74.092002 
L 72.999 74.092002 
L 73.278 74.092002 
L 73.557 74.092002 
L 73.836 74.092002 
L 74.115 74.092002 
L 74.394 74.092002 
L 74.673 74.092002 
L 74.952 74.092002 
L 75.231 74.092002 
L 75.51 74.092002 
L 75.789 74.092002 
L 76.068 74.092002 
L 76.347 74.092002 
L 76.626 74.092002 
L 76.905 74.092002 
L 77.184 74.092002 
L 77.463 74.092002 
L 77.742 74.092002 
L 78.021 74.092002 
L 78.3 74.092002 
L 78.579 74.092002 
L 78.858 74.092002 
L 79.137 74.092002 
L 79.416 74.092002 
L 79.695 74.092002 
L 79.974 74.092002 
L 80.253 74.092002 
L 80.532 74.092002 
L 80.811 74.092002 
L 81.09 74.092002 
L 81.369 74.092002 
L 81.648 74.092002 
L 81.927 74.092002 
L 82.206 74.092002 
L 82.485 74.092002 
L 82.764 74.092002 
L 83.043 74.092002 
L 83.322 74.092002 
L 83.601 74.092002 
L 83.88 74.092002 
L 84.159 74.092002 
L 84.438 74.092002 
L 84.717 74.092002 
L 84.996 74.092002 
L 85.275 74.092002 
L 85.554 74.092002 
L 85.833 74.092002 
L 86.112 74.092002 
L 86.391 74.092002 
L 86.67 74.092002 
L 86.949 74.092002 
L 87.228 74.092002 
L 87.507 74.092002 
L 87.786 74.092002 
L 88.065 74.092002 
L 88.344 74.092002 
L 88.623 74.092002 
L 88.902 74.092002 
L 89.181 74.092002 
L 89.46 74.092002 
L 89.739 74.092002 
L 90.018 74.092002 
L 90.297 74.092002 
L 90.576 74.092002 
L 90.855 74.092002 
L 91.134 74.092002 
L 91.413 74.092002 
L 91.692 74.092002 
L 91.971 74.092002 
L 92.25 74.092002 
L 92.529 74.092002 
L 92.808 74.092002 
L 93.087 74.092002 
L 93.366 74.092002 
L 93.645 74.092002 
L 93.924 74.092002 
L 94.203 74.092002 
L 94.482 74.092002 
L 94.761 74.092002 
L 95.04 74.092002 
L 95.319 74.092002 
L 95.598 74.092002 
L 95.877 74.092002 
L 96.156 74.092002 
L 96.435 74.092002 
L 96.714 74.092002 
L 96.993 74.092002 
L 97.272 74.092002 
L 97.551 74.092002 
L 97.83 74.092002 
L 98.109 74.092002 
L 98.388 74.092002 
L 98.667 74.092002 
L 98.946 74.092002 
L 99.225 74.092002 
L 99.504 74.092002 
L 99.783 74.092002 
L 100.062 74.092002 
L 100.341 74.092002 
L 100.62 74.092002 
L 100.899 74.092002 
L 101.178 74.092002 
L 101.457 74.092002 
L 101.736 74.092002 
L 102.015 74.092002 
L 102.294 74.092002 
L 102.573 74.092002 
L 102.852 74.092002 
L 103.131 74.092002 
L 103.41 74.092002 
L 103.689 74.092002 
L 103.968 74.092002 
L 104.247 74.092002 
L 104.526 74.092002 
L 104.805 74.092002 
L 105.084 74.092002 
L 105.363 74.092002 
L 105.642 74.092002 
L 105.921 74.092002 
L 106.2 74.092002 
L 106.479 74.092002 
L 106.758 74.092002 
L 107.037 74.092002 
L 107.316 74.092002 
L 107.595 74.092002 
L 107.874 74.092002 
L 108.153 74.092002 
L 108.432 74.092002 
L 108.711 74.092002 
L 108.99 74.092002 
L 109.269 74.092002 
L 109.548 74.092002 
L 109.827 74.092002 
L 110.106 74.092002 
L 110.385 74.092002 
L 110.664 74.092002 
L 110.943 74.092002 
L 111.222 74.092002 
L 111.501 74.092002 
L 111.78 74.092002 
L 112.059 74.092002 
L 112.338 74.092002 
L 112.617 74.092002 
L 112.896 74.092002 
L 113.175 74.092002 
L 113.454 74.092002 
L 113.733 74.092002 
L 114.012 74.092002 
L 114.291 74.092002 
L 114.57 74.092002 
L 114.849 74.092002 
L 115.128 74.092002 
L 115.407 74.092002 
L 115.686 74.092002 
L 115.965 74.092002 
L 116.244 74.092002 
L 116.523 74.092002 
L 116.802 74.092002 
L 117.081 74.092002 
L 117.36 74.092002 
L 117.639 74.092002 
L 117.918 74.092002 
L 118.197 74.092002 
L 118.476 74.092002 
L 118.755 74.092002 
L 119.034 74.092002 
L 119.313 74.092002 
L 119.592 74.092002 
L 119.871 74.092002 
L 120.15 74.092002 
L 120.429 74.092002 
L 120.708 74.092002 
L 120.987 74.092002 
L 121.266 74.092002 
L 121.545 74.092002 
L 121.824 74.092002 
L 122.103 74.092002 
L 122.382 74.092002 
L 122.661 74.092002 
L 122.94 74.092002 
L 123.219 74.092002 
L 123.498 74.092002 
L 123.777 74.092002 
L 124.056 74.092002 
L 124.335 74.092002 
L 124.614 74.092002 
L 124.893 74.092002 
L 125.172 74.092002 
L 125.451 74.092002 
L 125.73 74.092002 
L 126.009 74.092002 
L 126.288 74.092002 
L 126.567 74.092002 
L 126.846 74.092002 
L 127.125 74.092002 
L 127.404 74.092002 
L 127.683 74.092002 
L 127.962 74.092002 
L 128.241 74.092002 
L 128.52 74.092002 
L 128.799 74.092002 
L 129.078 74.092002 
L 129.357 74.092002 
L 129.636 74.092002 
L 129.915 74.092002 
L 130.194 74.092002 
L 130.473 74.092002 
L 130.752 74.092002 
L 131.031 74.092002 
L 131.31 74.092002 
L 131.589 74.092002 
L 131.868 74.092002 
L 132.147 74.092002 
L 132.426 74.092002 
L 132.705 74.092002 
L 132.984 74.092002 
L 133.263 74.092002 
L 133.542 74.092002 
L 133.821 74.092002 
L 134.1 74.092002 
L 134.379 74.092002 
L 134.658 74.092002 
L 134.937 74.092002 
L 135.216 74.092002 
L 135.495 74.092002 
L 135.774 74.092002 
L 136.053 74.092002 
L 136.332 74.092002 
L 136.611 74.092002 
L 136.89 74.092002 
L 137.169 74.092002 
L 137.448 74.092002 
L 137.727 74.092002 
L 138.006 74.092002 
L 138.285 74.092002 
L 138.564 74.092002 
L 138.843 74.092002 
L 139.122 74.092002 
L 139.401 74.092002 
L 139.68 74.092002 
L 139.959 74.092002 
L 140.238 74.092002 
L 140.517 74.092002 
L 140.796 74.092002 
L 141.075 74.092002 
L 141.354 74.092002 
L 141.633 74.092002 
L 141.912 74.092002 
L 142.191 74.092002 
L 142.47 74.092002 
L 142.749 74.092002 
L 143.028 74.092002 
L 143.307 74.092002 
L 143.586 74.092002 
L 143.865 74.092002 
L 144.144 74.092002 
L 144.423 74.092002 
L 144.702 74.092002 
L 144.981 74.092002 
L 145.26 74.092002 
L 145.539 74.092002 
L 145.818 74.092002 
L 146.097 74.092002 
L 146.376 74.092002 
L 146.655 74.092002 
L 146.934 74.092002 
L 147.213 74.092002 
L 147.492 74.092002 
L 147.771 74.092002 
L 148.05 74.092002 
L 148.329 74.092002 
L 148.608 74.092002 
L 148.887 74.092002 
L 149.166 74.092002 
L 149.445 74.092002 
L 149.724 74.092002 
L 150.003 74.092002 
L 150.282 74.092002 
L 150.561 74.092002 
L 150.84 74.092002 
L 151.119 74.092002 
L 151.398 74.092002 
L 151.677 74.092002 
L 151.956 74.092002 
L 152.235 74.092002 
L 152.514 74.092002 
L 152.793 74.092002 
L 153.072 74.092002 
L 153.351 74.092002 
L 153.63 74.092002 
L 153.909 74.092002 
L 154.188 74.092002 
L 154.467 74.092002 
L 154.746 74.092002 
L 155.025 74.092002 
L 155.304 74.092002 
L 155.583 74.092002 
L 155.862 74.092002 
L 156.141 74.092002 
L 156.42 74.092002 
L 156.699 74.092002 
L 156.978 74.092002 
L 157.257 74.092002 
L 157.536 74.092002 
L 157.815 74.092002 
L 158.094 74.092002 
L 158.373 74.092002 
L 158.652 74.092002 
L 158.931 74.092002 
L 159.21 74.092002 
L 159.489 74.092002 
L 159.768 74.092002 
L 160.047 74.092002 
L 160.326 74.092002 
L 160.605 74.092002 
L 160.884 74.092002 
L 161.163 74.092002 
L 161.442 74.092002 
L 161.721 74.092002 
L 161.721 53.185232 
L 161.721 53.185232 
L 161.442 53.185232 
L 161.163 53.185232 
L 160.884 53.185232 
L 160.605 53.185232 
L 160.326 53.185232 
L 160.047 53.185232 
L 159.768 53.185232 
L 159.489 53.185232 
L 159.21 53.185232 
L 158.931 53.185232 
L 158.652 53.185232 
L 158.373 53.185232 
L 158.094 53.185232 
L 157.815 53.185232 
L 157.536 53.185232 
L 157.257 53.185232 
L 156.978 53.185232 
L 156.699 53.185232 
L 156.42 53.185232 
L 156.141 53.185232 
L 155.862 53.185232 
L 155.583 53.185232 
L 155.304 53.185232 
L 155.025 53.185232 
L 154.746 53.185232 
L 154.467 53.185232 
L 154.188 53.185232 
L 153.909 53.185232 
L 153.63 53.185232 
L 153.351 53.185232 
L 153.072 53.185232 
L 152.793 53.185232 
L 152.514 53.185232 
L 152.235 53.185232 
L 151.956 53.185232 
L 151.677 53.185232 
L 151.398 53.185232 
L 151.119 53.185232 
L 150.84 53.185232 
L 150.561 53.185232 
L 150.282 53.185232 
L 150.003 53.185232 
L 149.724 53.185232 
L 149.445 53.185232 
L 149.166 53.185232 
L 148.887 53.185232 
L 148.608 53.185232 
L 148.329 53.185232 
L 148.05 53.185232 
L 147.771 53.185232 
L 147.492 53.185232 
L 147.213 53.185232 
L 146.934 53.185232 
L 146.655 53.185232 
L 146.376 53.185232 
L 146.097 53.185232 
L 145.818 53.185232 
L 145.539 53.185232 
L 145.26 53.185232 
L 144.981 53.185232 
L 144.702 53.185232 
L 144.423 53.185232 
L 144.144 53.185232 
L 143.865 53.185232 
L 143.586 53.185232 
L 143.307 53.185232 
L 143.028 53.185232 
L 142.749 53.185232 
L 142.47 53.185232 
L 142.191 53.185232 
L 141.912 53.185232 
L 141.633 53.185232 
L 141.354 53.185232 
L 141.075 53.185232 
L 140.796 53.185232 
L 140.517 53.185232 
L 140.238 53.185232 
L 139.959 53.185232 
L 139.68 53.185232 
L 139.401 53.185232 
L 139.122 53.185232 
L 138.843 53.185232 
L 138.564 53.185232 
L 138.285 53.185232 
L 138.006 53.185232 
L 137.727 53.185232 
L 137.448 53.185232 
L 137.169 53.185232 
L 136.89 53.185232 
L 136.611 53.185232 
L 136.332 53.185232 
L 136.053 53.185232 
L 135.774 53.185232 
L 135.495 53.185232 
L 135.216 53.185232 
L 134.937 53.185232 
L 134.658 53.185232 
L 134.379 53.185232 
L 134.1 53.185232 
L 133.821 53.185232 
L 133.542 53.185232 
L 133.263 53.185232 
L 132.984 53.185232 
L 132.705 53.185232 
L 132.426 53.185232 
L 132.147 53.185232 
L 131.868 53.185232 
L 131.589 53.185232 
L 131.31 53.185232 
L 131.031 53.185232 
L 130.752 53.185232 
L 130.473 53.185232 
L 130.194 53.185232 
L 129.915 53.185232 
L 129.636 53.185232 
L 129.357 53.185232 
L 129.078 53.185232 
L 128.799 53.185232 
L 128.52 53.185232 
L 128.241 53.185232 
L 127.962 53.185232 
L 127.683 53.185232 
L 127.404 53.185232 
L 127.125 53.185232 
L 126.846 53.185232 
L 126.567 53.185232 
L 126.288 53.185232 
L 126.009 53.185232 
L 125.73 53.185232 
L 125.451 53.185232 
L 125.172 53.185232 
L 124.893 53.185232 
L 124.614 53.185232 
L 124.335 53.185232 
L 124.056 53.185232 
L 123.777 53.185232 
L 123.498 53.185232 
L 123.219 53.185232 
L 122.94 53.185232 
L 122.661 53.185232 
L 122.382 53.185232 
L 122.103 53.185232 
L 121.824 53.185232 
L 121.545 53.185232 
L 121.266 53.185232 
L 120.987 53.185232 
L 120.708 53.185232 
L 120.429 53.185232 
L 120.15 53.185232 
L 119.871 53.185232 
L 119.592 53.185232 
L 119.313 53.185232 
L 119.034 53.185232 
L 118.755 53.185232 
L 118.476 53.185232 
L 118.197 53.185232 
L 117.918 53.185232 
L 117.639 53.185232 
L 117.36 53.185232 
L 117.081 53.185232 
L 116.802 53.185232 
L 116.523 53.185232 
L 116.244 53.185232 
L 115.965 53.185232 
L 115.686 53.185232 
L 115.407 53.185232 
L 115.128 53.185232 
L 114.849 53.185232 
L 114.57 53.185232 
L 114.291 53.185232 
L 114.012 53.185232 
L 113.733 53.185232 
L 113.454 53.185232 
L 113.175 53.185232 
L 112.896 53.185232 
L 112.617 53.185232 
L 112.338 53.185232 
L 112.059 53.185232 
L 111.78 53.185232 
L 111.501 53.185232 
L 111.222 53.185232 
L 110.943 53.185232 
L 110.664 53.185232 
L 110.385 53.185232 
L 110.106 53.185232 
L 109.827 53.185232 
L 109.548 53.185232 
L 109.269 53.185232 
L 108.99 53.185232 
L 108.711 53.185232 
L 108.432 53.185232 
L 108.153 53.185232 
L 107.874 53.185232 
L 107.595 53.185232 
L 107.316 53.185232 
L 107.037 53.185232 
L 106.758 53.185232 
L 106.479 53.185232 
L 106.2 53.185232 
L 105.921 53.185232 
L 105.642 53.185232 
L 105.363 53.185232 
L 105.084 53.185232 
L 104.805 53.185232 
L 104.526 53.185232 
L 104.247 53.185232 
L 103.968 53.185232 
L 103.689 53.185232 
L 103.41 53.185232 
L 103.131 53.185232 
L 102.852 53.185232 
L 102.573 53.185232 
L 102.294 53.185232 
L 102.015 53.185232 
L 101.736 53.185232 
L 101.457 53.185232 
L 101.178 53.185232 
L 100.899 53.185232 
L 100.62 53.185232 
L 100.341 53.185232 
L 100.062 53.185232 
L 99.783 53.185232 
L 99.504 53.185232 
L 99.225 53.185232 
L 98.946 53.185232 
L 98.667 53.185232 
L 98.388 53.185232 
L 98.109 53.185232 
L 97.83 53.185232 
L 97.551 53.185232 
L 97.272 53.185232 
L 96.993 53.185232 
L 96.714 53.185232 
L 96.435 53.185232 
L 96.156 53.185232 
L 95.877 53.185232 
L 95.598 53.185232 
L 95.319 53.185232 
L 95.04 53.185232 
L 94.761 53.185232 
L 94.482 53.185232 
L 94.203 53.185232 
L 93.924 53.185232 
L 93.645 53.185232 
L 93.366 53.185232 
L 93.087 53.185232 
L 92.808 53.185232 
L 92.529 53.185232 
L 92.25 53.185232 
L 91.971 53.185232 
L 91.692 53.185232 
L 91.413 53.185232 
L 91.134 53.185232 
L 90.855 53.185232 
L 90.576 53.185232 
L 90.297 53.185232 
L 90.018 53.185232 
L 89.739 53.185232 
L 89.46 53.185232 
L 89.181 53.185232 
L 88.902 53.185232 
L 88.623 53.185232 
L 88.344 53.185232 
L 88.065 53.185232 
L 87.786 53.185232 
L 87.507 53.185232 
L 87.228 53.185232 
L 86.949 53.185232 
L 86.67 53.185232 
L 86.391 53.185232 
L 86.112 53.185232 
L 85.833 53.185232 
L 85.554 53.185232 
L 85.275 53.185232 
L 84.996 53.185232 
L 84.717 53.185232 
L 84.438 53.185232 
L 84.159 53.185232 
L 83.88 53.185232 
L 83.601 53.185232 
L 83.322 53.185232 
L 83.043 53.185232 
L 82.764 53.185232 
L 82.485 53.185232 
L 82.206 53.185232 
L 81.927 53.185232 
L 81.648 53.185232 
L 81.369 53.185232 
L 81.09 53.185232 
L 80.811 53.185232 
L 80.532 53.185232 
L 80.253 53.185232 
L 79.974 53.185232 
L 79.695 53.185232 
L 79.416 53.185232 
L 79.137 53.185232 
L 78.858 53.185232 
L 78.579 53.185232 
L 78.3 53.185232 
L 78.021 53.185232 
L 77.742 53.185232 
L 77.463 53.185232 
L 77.184 53.185232 
L 76.905 53.185232 
L 76.626 53.185232 
L 76.347 53.185232 
L 76.068 53.185232 
L 75.789 53.185232 
L 75.51 53.185232 
L 75.231 53.185232 
L 74.952 53.185232 
L 74.673 53.185232 
L 74.394 53.185232 
L 74.115 53.185232 
L 73.836 53.185232 
L 73.557 53.185232 
L 73.278 53.185232 
L 72.999 53.185232 
L 72.72 53.185232 
L 72.441 53.185232 
L 72.162 53.185232 
L 71.883 53.185232 
L 71.604 53.185232 
L 71.325 53.185232 
L 71.046 53.185232 
L 70.767 53.185232 
L 70.488 53.185232 
L 70.209 53.185232 
L 69.93 53.185232 
L 69.651 53.185232 
L 69.372 53.185232 
L 69.093 53.185232 
L 68.814 53.185232 
L 68.535 53.185232 
L 68.256 53.185232 
L 67.977 53.185232 
L 67.698 53.185232 
L 67.419 53.185232 
L 67.14 53.185232 
L 66.861 53.185232 
L 66.582 53.185232 
L 66.303 53.185232 
L 66.024 53.185232 
L 65.745 53.185232 
L 65.466 53.185232 
L 65.187 53.185232 
L 64.908 53.185232 
L 64.629 53.185232 
L 64.35 53.185232 
L 64.071 53.185232 
L 63.792 53.185232 
L 63.513 53.185232 
L 63.234 53.185232 
L 62.955 53.185232 
L 62.676 53.185232 
L 62.397 53.185232 
L 62.118 53.185232 
L 61.839 53.185232 
L 61.56 53.185232 
L 61.281 53.185232 
L 61.002 53.185232 
L 60.723 53.185232 
L 60.444 53.185232 
L 60.165 53.185232 
L 59.886 53.185232 
L 59.607 53.185232 
L 59.328 53.185232 
L 59.049 53.185232 
L 58.77 53.185232 
L 58.491 53.185232 
L 58.212 53.185232 
L 57.933 53.185232 
L 57.654 53.185232 
L 57.375 53.185232 
L 57.096 53.185232 
L 56.817 53.185232 
L 56.538 53.185232 
L 56.259 53.185232 
L 55.98 53.185232 
L 55.701 53.185232 
L 55.422 53.185232 
L 55.143 53.185232 
L 54.864 53.185232 
L 54.585 53.185232 
L 54.306 53.185232 
L 54.027 53.185232 
L 53.748 53.185232 
L 53.469 53.185232 
L 53.19 53.185232 
L 52.911 53.185232 
L 52.632 53.185232 
L 52.353 53.185232 
L 52.074 53.185232 
L 51.795 53.185232 
L 51.516 53.185232 
L 51.237 53.185232 
L 50.958 53.185232 
L 50.679 53.185232 
L 50.4 53.185232 
L 50.121 53.185232 
L 49.842 53.185232 
L 49.563 53.185232 
L 49.284 53.185232 
L 49.005 53.185232 
L 48.726 53.185232 
L 48.447 53.185232 
L 48.168 53.185232 
L 47.889 53.185232 
L 47.61 53.185232 
L 47.331 53.185232 
L 47.052 53.185232 
L 46.773 53.185232 
L 46.494 53.185232 
L 46.215 53.185232 
L 45.936 53.185232 
L 45.657 53.185232 
L 45.378 53.185232 
L 45.099 53.185232 
L 44.82 53.185232 
L 44.541 53.185232 
L 44.262 53.185232 
L 43.983 53.185232 
L 43.704 53.185232 
L 43.425 53.185232 
L 43.146 53.185232 
L 42.867 53.185232 
L 42.588 53.185232 
L 42.309 53.185232 
L 42.03 53.185232 
L 41.751 53.185232 
L 41.472 53.185232 
L 41.193 53.185232 
L 40.914 53.185232 
L 40.635 53.185232 
L 40.356 53.185232 
L 40.077 53.185232 
L 39.798 53.185232 
L 39.519 53.185232 
L 39.24 53.185232 
L 38.961 53.185232 
L 38.682 53.185232 
L 38.403 53.185232 
L 38.124 53.185232 
L 37.845 53.185232 
L 37.566 53.185232 
L 37.287 53.185232 
L 37.008 53.185232 
L 36.729 53.185232 
L 36.45 53.185232 
L 36.171 53.185232 
L 35.892 53.185232 
L 35.613 53.185232 
L 35.334 53.185232 
L 35.055 53.185232 
L 34.776 53.185232 
L 34.497 53.185232 
L 34.218 53.185232 
L 33.939 53.185232 
L 33.66 53.185232 
L 33.381 53.185232 
L 33.102 53.185232 
L 32.823 53.185232 
L 32.544 53.185232 
L 32.265 53.185232 
L 31.986 53.185232 
L 31.707 53.185232 
L 31.428 53.185232 
L 31.149 53.185232 
L 30.87 53.185232 
L 30.591 53.185232 
L 30.312 53.185232 
L 30.033 53.185232 
L 29.754 53.185232 
L 29.475 53.185232 
L 29.196 53.185232 
L 28.917 53.185232 
L 28.638 53.185232 
L 28.359 53.185232 
L 28.08 53.185232 
L 27.801 53.185232 
L 27.522 53.185232 
L 27.243 53.185232 
L 26.964 53.185232 
L 26.685 53.185232 
L 26.406 53.185232 
L 26.127 53.185232 
L 25.848 53.185232 
L 25.569 53.185232 
L 25.29 53.185232 
L 25.011 53.185232 
L 24.732 53.185232 
L 24.453 53.185232 
L 24.174 53.185232 
L 23.895 53.185232 
L 23.616 53.185232 
L 23.337 53.185232 
L 23.058 53.185232 
L 22.779 53.185232 
L 22.5 53.185232 
z
" clip-path="url(#p38166faa95)" style="fill: #5f187f; fill-opacity: 0.1"/>
   </g>
   <g id="matplotlib.axis_1">
    <g id="xtick_1">
     <g id="line2d_1">
      <defs>
       <path id="m9ade448da3" d="M 0 0 
L 0 3.5 
" style="stroke: #000000; stroke-width: 0.8"/>
      </defs>
      <g>
       <use xlink:href="#m9ade448da3" x="50.4" y="160.2" style="stroke: #000000; stroke-width: 0.8"/>
      </g>
     </g>
     <g id="text_1">
      <text style="font: italic 12px 'inter', sans-serif" transform="translate(9.919905 212.12161) rotate(-45)">Trhn&gt;Chr</text>
     </g>
    </g>
    <g id="xtick_2">
     <g id="line2d_2">
      <g>
       <use xlink:href="#m9ade448da3" x="78.3" y="160.2" style="stroke: #000000; stroke-width: 0.8"/>
      </g>
     </g>
     <g id="text_2">
      <text style="font: italic 12px 'inter', sans-serif" transform="translate(31.265025 218.67649) rotate(-45)">Trhn&gt;ACR1</text>
     </g>
    </g>
    <g id="xtick_3">
     <g id="line2d_3">
      <g>
       <use xlink:href="#m9ade448da3" x="106.2" y="160.2" style="stroke: #000000; stroke-width: 0.8"/>
      </g>
     </g>
     <g id="text_3">
      <text style="font: italic 12px 'inter', sans-serif" transform="translate(51.684719 226.156796) rotate(-45)">R50H05&gt;Chr</text>
     </g>
    </g>
    <g id="xtick_4">
     <g id="line2d_4">
      <g>
       <use xlink:href="#m9ade448da3" x="134.1" y="160.2" style="stroke: #000000; stroke-width: 0.8"/>
      </g>
     </g>
     <g id="text_4">
      <text style="font: italic 12px 'inter', sans-serif" transform="translate(73.029839 232.711676) rotate(-45)">R50H05&gt;ACR1</text>
     </g>
    </g>
   </g>
   <g id="matplotlib.axis_2">
    <g id="ytick_1">
     <g id="line2d_5">
      <defs>
       <path id="m211674e18e" d="M 0 0 
L -3.5 0 
" style="stroke: #000000; stroke-width: 0.8"/>
      </defs>
      <g>
       <use xlink:href="#m211674e18e" x="22.5" y="150.093999" style="stroke: #000000; stroke-width: 0.8"/>
      </g>
     </g>
     <g id="text_5">
      <text style="font: 10px 'inter', sans-serif; text-anchor: end" x="15.5" y="153.731499" transform="rotate(-0 15.5 153.731499)">1</text>
     </g>
    </g>
    <g id="ytick_2">
     <g id="line2d_6">
      <g>
       <use xlink:href="#m211674e18e" x="22.5" y="109.595425" style="stroke: #000000; stroke-width: 0.8"/>
      </g>
     </g>
     <g id="text_6">
      <text style="font: 10px 'inter', sans-serif; text-anchor: end" x="15.5" y="113.232925" transform="rotate(-0 15.5 113.232925)">0</text>
     </g>
    </g>
    <g id="ytick_3">
     <g id="line2d_7">
      <g>
       <use xlink:href="#m211674e18e" x="22.5" y="69.096851" style="stroke: #000000; stroke-width: 0.8"/>
      </g>
     </g>
     <g id="text_7">
      <text style="font: 10px 'inter', sans-serif; text-anchor: end" x="15.5" y="72.734351" transform="rotate(-0 15.5 72.734351)">1</text>
     </g>
    </g>
    <g id="ytick_4">
     <g id="line2d_8">
      <g>
       <use xlink:href="#m211674e18e" x="22.5" y="28.598277" style="stroke: #000000; stroke-width: 0.8"/>
      </g>
     </g>
     <g id="text_8">
      <text style="font: 10px 'inter', sans-serif; text-anchor: end" x="15.5" y="32.235777" transform="rotate(-0 15.5 32.235777)">2</text>
     </g>
    </g>
    <g id="text_9">
     <text style="font: 15px 'inter', sans-serif; text-anchor: middle" x="-2.24375" y="90.9" transform="rotate(-90 -2.24375 90.9)"> Duration (min)</text>
    </g>
   </g>
   <g id="line2d_9">
    <path d="M 22.5 109.595425 
L 162 109.595425 
" clip-path="url(#p38166faa95)" style="fill: none; stroke: #000000; stroke-linecap: square"/>
   </g>
   <g id="line2d_10">
    <defs>
     <path id="m5d3d3f8770" d="M 0 2.5 
C 0.663008 2.5 1.29895 2.236584 1.767767 1.767767 
C 2.236584 1.29895 2.5 0.663008 2.5 0 
C 2.5 -0.663008 2.236584 -1.29895 1.767767 -1.767767 
C 1.29895 -2.236584 0.663008 -2.5 0 -2.5 
C -0.663008 -2.5 -1.29895 -2.236584 -1.767767 -1.767767 
C -2.236584 -1.29895 -2.5 -0.663008 -2.5 0 
C -2.5 0.663008 -2.236584 1.29895 -1.767767 1.767767 
C -1.29895 2.236584 -0.663008 2.5 0 2.5 
z
" style="stroke: #000000"/>
    </defs>
    <g clip-path="url(#p38166faa95)">
     <use xlink:href="#m5d3d3f8770" x="50.4" y="121.994463" style="stroke: #000000"/>
    </g>
   </g>
   <g id="line2d_11">
    <path d="M 50.4 138.096269 
L 50.4 104.657066 
" clip-path="url(#p38166faa95)" style="fill: none; stroke: #000000; stroke-width: 2.5; stroke-linecap: square"/>
   </g>
   <g id="line2d_12">
    <g clip-path="url(#p38166faa95)">
     <use xlink:href="#m5d3d3f8770" x="78.3" y="86.394894" style="stroke: #000000"/>
    </g>
   </g>
   <g id="line2d_13">
    <path d="M 78.3 104.267857 
L 78.3 67.843432 
" clip-path="url(#p38166faa95)" style="fill: none; stroke: #000000; stroke-width: 2.5; stroke-linecap: square"/>
   </g>
   <g id="line2d_14">
    <g clip-path="url(#p38166faa95)">
     <use xlink:href="#m5d3d3f8770" x="106.2" y="53.731373" style="stroke: #000000"/>
    </g>
   </g>
   <g id="line2d_15">
    <path d="M 106.2 68.759323 
L 106.2 38.567209 
" clip-path="url(#p38166faa95)" style="fill: none; stroke: #000000; stroke-width: 2.5; stroke-linecap: square"/>
   </g>
   <g id="line2d_16">
    <g clip-path="url(#p38166faa95)">
     <use xlink:href="#m5d3d3f8770" x="134.1" y="113.006224" style="stroke: #000000"/>
    </g>
   </g>
   <g id="line2d_17">
    <path d="M 134.1 135.069472 
L 134.1 91.238892 
" clip-path="url(#p38166faa95)" style="fill: none; stroke: #000000; stroke-width: 2.5; stroke-linecap: square"/>
   </g>
   <g id="patch_3">
    <path d="M 22.5 160.2 
L 22.5 21.6 
" style="fill: none; stroke: #000000; stroke-width: 0.8; stroke-linejoin: miter; stroke-linecap: square"/>
   </g>
   <g id="patch_4">
    <path d="M 162 160.2 
L 162 21.6 
" style="fill: none"/>
   </g>
   <g id="patch_5">
    <path d="M 22.5 160.2 
L 162 160.2 
" style="fill: none"/>
   </g>
   <g id="patch_6">
    <path d="M 22.5 21.6 
L 162 21.6 
" style="fill: none"/>
   </g>
   <g id="text_10">
    <text style="fill: #d3436e; font: 10px 'inter', sans-serif; text-anchor: start" x="162" y="88.855798" transform="rotate(-0 162 88.855798)">24 h</text>
   </g>
   <g id="text_11">
    <text style="fill: #5f187f; font: 10px 'inter', sans-serif; text-anchor: start" x="162" y="53.185232" transform="rotate(-0 162 53.185232)">48 h</text>
   </g>
   <g id="text_12">
    <text style="font: 500 15px 'inter', sans-serif; text-anchor: middle" x="92.25" y="15.6" transform="rotate(-0 92.25 15.6)">Duration</text>
   </g>
  </g>
 </g>
 <defs>
  <clipPath id="p38166faa95">
   <rect x="22.5" y="21.6" width="139.5" height="138.6"/>
  </clipPath>
 </defs>
</svg>
