<?xml version="1.0" encoding="utf-8" standalone="no"?>
<!DOCTYPE svg PUBLIC "-//W3C//DTD SVG 1.1//EN"
  "http://www.w3.org/Graphics/SVG/1.1/DTD/svg11.dtd">
<svg xmlns:xlink="http://www.w3.org/1999/xlink" width="180pt" height="180pt" viewBox="0 0 180 180" xmlns="http://www.w3.org/2000/svg" version="1.1">
 <metadata>
  <rdf:RDF xmlns:dc="http://purl.org/dc/elements/1.1/" xmlns:cc="http://creativecommons.org/ns#" xmlns:rdf="http://www.w3.org/1999/02/22-rdf-syntax-ns#">
   <cc:Work>
    <dc:type rdf:resource="http://purl.org/dc/dcmitype/StillImage"/>
    <dc:date>2025-02-16T01:32:49.284871</dc:date>
    <dc:format>image/svg+xml</dc:format>
    <dc:creator>
     <cc:Agent>
      <dc:title>Matplotlib v3.6.3, https://matplotlib.org/</dc:title>
     </cc:Agent>
    </dc:creator>
   </cc:Work>
  </rdf:RDF>
 </metadata>
 <defs>
  <style type="text/css">*{stroke-linejoin: round; stroke-linecap: butt}</style>
 </defs>
 <g id="figure_1">
  <g id="patch_1">
   <path d="M 0 180 
L 180 180 
L 180 0 
L 0 0 
z
" style="fill: #ffffff"/>
  </g>
  <g id="axes_1">
   <g id="patch_2">
    <path d="M 22.5 160.2 
L 162 160.2 
L 162 21.6 
L 22.5 21.6 
z
" style="fill: #ffffff"/>
   </g>
   <g id="PolyCollection_1">
    <defs>
     <path id="m22e345072f" d="M 50.407974 -35.29742 
L 50.400159 -35.29742 
L 50.400159 -36.186642 
L 50.400159 -37.075864 
L 50.400159 -37.965085 
L 50.400159 -38.854307 
L 50.400159 -39.743529 
L 50.400159 -40.63275 
L 50.400159 -41.521972 
L 50.400159 -42.411194 
L 50.400159 -43.300415 
L 50.400159 -44.189637 
L 50.400159 -45.078859 
L 50.400159 -45.96808 
L 50.400159 -46.857302 
L 50.400159 -47.746524 
L 50.400159 -48.635745 
L 50.400159 -49.524967 
L 50.400159 -50.414189 
L 50.400159 -51.303411 
L 50.400159 -52.192632 
L 50.400159 -53.081854 
L 50.400159 -53.971076 
L 50.400159 -54.860297 
L 50.400159 -55.749519 
L 50.400159 -56.638741 
L 50.400159 -57.527962 
L 50.400159 -58.417184 
L 50.400159 -59.306406 
L 50.400159 -60.195627 
L 50.400159 -61.084849 
L 50.400159 -61.974071 
L 50.400159 -62.863292 
L 50.400159 -63.752514 
L 50.400159 -64.641736 
L 50.400159 -65.530957 
L 50.400159 -66.420179 
L 50.400159 -67.309401 
L 50.400159 -68.198622 
L 50.400159 -69.087844 
L 50.400159 -69.977066 
L 50.400159 -70.866287 
L 50.400159 -71.755509 
L 50.400159 -72.644731 
L 50.400159 -73.533952 
L 50.400159 -74.423174 
L 50.400159 -75.312396 
L 50.400159 -76.201617 
L 50.400159 -77.090839 
L 50.400159 -77.980061 
L 50.400159 -78.869283 
L 50.400159 -79.758504 
L 50.400159 -80.647726 
L 50.400159 -81.536948 
L 50.400159 -82.426169 
L 50.400159 -83.315391 
L 50.400159 -84.204613 
L 50.400159 -85.093834 
L 50.400159 -85.983056 
L 50.400159 -86.872278 
L 50.400159 -87.761499 
L 50.400159 -88.650721 
L 50.400159 -89.539943 
L 50.400159 -90.429164 
L 50.400159 -91.318386 
L 50.400159 -92.207608 
L 50.400159 -93.096829 
L 50.400159 -93.986051 
L 50.400159 -94.875273 
L 50.400159 -95.764494 
L 50.400159 -96.653716 
L 50.400159 -97.542938 
L 50.400159 -98.432159 
L 50.400159 -99.321381 
L 50.400159 -100.210603 
L 50.400159 -101.099824 
L 50.400159 -101.989046 
L 50.400159 -102.878268 
L 50.400159 -103.767489 
L 50.400159 -104.656711 
L 50.400159 -105.545933 
L 50.400159 -106.435155 
L 50.400159 -107.324376 
L 50.400159 -108.213598 
L 50.400159 -109.10282 
L 50.400159 -109.992041 
L 50.400159 -110.881263 
L 50.400159 -111.770485 
L 50.400159 -112.659706 
L 50.400159 -113.548928 
L 50.400159 -114.43815 
L 50.400159 -115.327371 
L 50.400159 -116.216593 
L 50.400159 -117.105815 
L 50.400159 -117.995036 
L 50.400159 -118.884258 
L 50.400159 -119.77348 
L 50.400159 -120.662701 
L 50.400159 -121.551923 
L 50.400159 -122.441145 
L 50.400159 -123.330366 
L 50.416335 -123.330366 
L 50.416335 -123.330366 
L 50.417788 -122.441145 
L 50.418343 -121.551923 
L 50.419436 -120.662701 
L 50.42262 -119.77348 
L 50.428973 -118.884258 
L 50.43906 -117.995036 
L 50.453087 -117.105815 
L 50.470825 -116.216593 
L 50.491649 -115.327371 
L 50.515358 -114.43815 
L 50.543564 -113.548928 
L 50.580266 -112.659706 
L 50.630527 -111.770485 
L 50.697789 -110.881263 
L 50.781749 -109.992041 
L 50.87858 -109.10282 
L 50.983731 -108.213598 
L 51.095674 -107.324376 
L 51.218087 -106.435155 
L 51.358524 -105.545933 
L 51.523576 -104.656711 
L 51.713212 -103.767489 
L 51.918764 -102.878268 
L 52.127487 -101.989046 
L 52.331564 -101.099824 
L 52.53462 -100.210603 
L 52.74929 -99.321381 
L 52.986438 -98.432159 
L 53.245143 -97.542938 
L 53.513255 -96.653716 
L 53.778665 -95.764494 
L 54.040226 -94.875273 
L 54.307338 -93.986051 
L 54.589461 -93.096829 
L 54.887235 -92.207608 
L 55.193389 -91.318386 
L 55.49979 -90.429164 
L 55.802184 -89.539943 
L 56.099649 -88.650721 
L 56.39126 -87.761499 
L 56.672009 -86.872278 
L 56.928945 -85.983056 
L 57.141192 -85.093834 
L 57.288073 -84.204613 
L 57.362075 -83.315391 
L 57.375 -82.426169 
L 57.349601 -81.536948 
L 57.303734 -80.647726 
L 57.241633 -79.758504 
L 57.158331 -78.869283 
L 57.050038 -77.980061 
L 56.919513 -77.090839 
L 56.771715 -76.201617 
L 56.604395 -75.312396 
L 56.404263 -74.423174 
L 56.155625 -73.533952 
L 55.855624 -72.644731 
L 55.521182 -71.755509 
L 55.179574 -70.866287 
L 54.851398 -69.977066 
L 54.542432 -69.087844 
L 54.249937 -68.198622 
L 53.972502 -67.309401 
L 53.710716 -66.420179 
L 53.460075 -65.530957 
L 53.208277 -64.641736 
L 52.9429 -63.752514 
L 52.662146 -62.863292 
L 52.378032 -61.974071 
L 52.110066 -61.084849 
L 51.875477 -60.195627 
L 51.682262 -59.306406 
L 51.527328 -58.417184 
L 51.399385 -57.527962 
L 51.285143 -56.638741 
L 51.175919 -55.749519 
L 51.070915 -54.860297 
L 50.97523 -53.971076 
L 50.894343 -53.081854 
L 50.829137 -52.192632 
L 50.774711 -51.303411 
L 50.723482 -50.414189 
L 50.670207 -49.524967 
L 50.615205 -48.635745 
L 50.56348 -47.746524 
L 50.520821 -46.857302 
L 50.490233 -45.96808 
L 50.470946 -45.078859 
L 50.459618 -44.189637 
L 50.452116 -43.300415 
L 50.444974 -42.411194 
L 50.436438 -41.521972 
L 50.426836 -40.63275 
L 50.417907 -39.743529 
L 50.411438 -38.854307 
L 50.408134 -37.965085 
L 50.407384 -37.075864 
L 50.40779 -36.186642 
L 50.407974 -35.29742 
z
"/>
    </defs>
    <g clip-path="url(#p95b247a0c8)">
     <use xlink:href="#m22e345072f" x="0" y="180" style="fill: #ff4500; fill-opacity: 0.4"/>
    </g>
   </g>
   <g id="PolyCollection_2">
    <defs>
     <path id="m06642d3a8e" d="M 78.33102 -26.1 
L 78.300403 -26.1 
L 78.300403 -27.372727 
L 78.300403 -28.645455 
L 78.300403 -29.918182 
L 78.300403 -31.190909 
L 78.300403 -32.463636 
L 78.300403 -33.736364 
L 78.300403 -35.009091 
L 78.300403 -36.281818 
L 78.300403 -37.554545 
L 78.300403 -38.827273 
L 78.300403 -40.1 
L 78.300403 -41.372727 
L 78.300403 -42.645455 
L 78.300403 -43.918182 
L 78.300403 -45.190909 
L 78.300403 -46.463636 
L 78.300403 -47.736364 
L 78.300403 -49.009091 
L 78.300403 -50.281818 
L 78.300403 -51.554545 
L 78.300403 -52.827273 
L 78.300403 -54.1 
L 78.300403 -55.372727 
L 78.300403 -56.645455 
L 78.300403 -57.918182 
L 78.300403 -59.190909 
L 78.300403 -60.463636 
L 78.300403 -61.736364 
L 78.300403 -63.009091 
L 78.300403 -64.281818 
L 78.300403 -65.554545 
L 78.300403 -66.827273 
L 78.300403 -68.1 
L 78.300403 -69.372727 
L 78.300403 -70.645455 
L 78.300403 -71.918182 
L 78.300403 -73.190909 
L 78.300403 -74.463636 
L 78.300403 -75.736364 
L 78.300403 -77.009091 
L 78.300403 -78.281818 
L 78.300403 -79.554545 
L 78.300403 -80.827273 
L 78.300403 -82.1 
L 78.300403 -83.372727 
L 78.300403 -84.645455 
L 78.300403 -85.918182 
L 78.300403 -87.190909 
L 78.300403 -88.463636 
L 78.300403 -89.736364 
L 78.300403 -91.009091 
L 78.300403 -92.281818 
L 78.300403 -93.554545 
L 78.300403 -94.827273 
L 78.300403 -96.1 
L 78.300403 -97.372727 
L 78.300403 -98.645455 
L 78.300403 -99.918182 
L 78.300403 -101.190909 
L 78.300403 -102.463636 
L 78.300403 -103.736364 
L 78.300403 -105.009091 
L 78.300403 -106.281818 
L 78.300403 -107.554545 
L 78.300403 -108.827273 
L 78.300403 -110.1 
L 78.300403 -111.372727 
L 78.300403 -112.645455 
L 78.300403 -113.918182 
L 78.300403 -115.190909 
L 78.300403 -116.463636 
L 78.300403 -117.736364 
L 78.300403 -119.009091 
L 78.300403 -120.281818 
L 78.300403 -121.554545 
L 78.300403 -122.827273 
L 78.300403 -124.1 
L 78.300403 -125.372727 
L 78.300403 -126.645455 
L 78.300403 -127.918182 
L 78.300403 -129.190909 
L 78.300403 -130.463636 
L 78.300403 -131.736364 
L 78.300403 -133.009091 
L 78.300403 -134.281818 
L 78.300403 -135.554545 
L 78.300403 -136.827273 
L 78.300403 -138.1 
L 78.300403 -139.372727 
L 78.300403 -140.645455 
L 78.300403 -141.918182 
L 78.300403 -143.190909 
L 78.300403 -144.463636 
L 78.300403 -145.736364 
L 78.300403 -147.009091 
L 78.300403 -148.281818 
L 78.300403 -149.554545 
L 78.300403 -150.827273 
L 78.300403 -152.1 
L 78.319824 -152.1 
L 78.319824 -152.1 
L 78.326817 -150.827273 
L 78.335651 -149.554545 
L 78.347347 -148.281818 
L 78.362712 -147.009091 
L 78.381565 -145.736364 
L 78.402453 -144.463636 
L 78.423295 -143.190909 
L 78.442644 -141.918182 
L 78.460701 -140.645455 
L 78.479461 -139.372727 
L 78.502043 -138.1 
L 78.531676 -136.827273 
L 78.570885 -135.554545 
L 78.621118 -134.281818 
L 78.682524 -133.009091 
L 78.753468 -131.736364 
L 78.830003 -130.463636 
L 78.906398 -129.190909 
L 78.97751 -127.918182 
L 79.042238 -126.645455 
L 79.105927 -125.372727 
L 79.179712 -124.1 
L 79.276591 -122.827273 
L 79.406103 -121.554545 
L 79.5704 -120.281818 
L 79.763641 -119.009091 
L 79.974814 -117.736364 
L 80.192612 -116.463636 
L 80.410316 -115.190909 
L 80.629002 -113.918182 
L 80.857913 -112.645455 
L 81.111202 -111.372727 
L 81.400983 -110.1 
L 81.729046 -108.827273 
L 82.08209 -107.554545 
L 82.43463 -106.281818 
L 82.758956 -105.009091 
L 83.036816 -103.736364 
L 83.266485 -102.463636 
L 83.461566 -101.190909 
L 83.642258 -99.918182 
L 83.824325 -98.645455 
L 84.012807 -97.372727 
L 84.203831 -96.1 
L 84.391265 -94.827273 
L 84.571993 -93.554545 
L 84.746492 -92.281818 
L 84.915219 -91.009091 
L 85.072629 -89.736364 
L 85.201782 -88.463636 
L 85.275 -87.190909 
L 85.264928 -85.918182 
L 85.162091 -84.645455 
L 84.98615 -83.372727 
L 84.779602 -82.1 
L 84.586094 -80.827273 
L 84.428631 -79.554545 
L 84.302701 -78.281818 
L 84.186281 -77.009091 
L 84.056106 -75.736364 
L 83.898326 -74.463636 
L 83.709683 -73.190909 
L 83.493122 -71.918182 
L 83.253268 -70.645455 
L 82.994376 -69.372727 
L 82.7203 -68.1 
L 82.434905 -66.827273 
L 82.14194 -65.554545 
L 81.844534 -64.281818 
L 81.545016 -63.009091 
L 81.245249 -61.736364 
L 80.947243 -60.463636 
L 80.654009 -59.190909 
L 80.370614 -57.918182 
L 80.104495 -56.645455 
L 79.863644 -55.372727 
L 79.652912 -54.1 
L 79.471167 -52.827273 
L 79.312257 -51.554545 
L 79.169463 -50.281818 
L 79.039618 -49.009091 
L 78.923401 -47.736364 
L 78.822322 -46.463636 
L 78.736001 -45.190909 
L 78.662213 -43.918182 
L 78.598738 -42.645455 
L 78.544475 -41.372727 
L 78.49891 -40.1 
L 78.46122 -38.827273 
L 78.430302 -37.554545 
L 78.405458 -36.281818 
L 78.386557 -35.009091 
L 78.373314 -33.736364 
L 78.364543 -32.463636 
L 78.358277 -31.190909 
L 78.352599 -29.918182 
L 78.346316 -28.645455 
L 78.339054 -27.372727 
L 78.33102 -26.1 
z
"/>
    </defs>
    <g clip-path="url(#p95b247a0c8)">
     <use xlink:href="#m06642d3a8e" x="0" y="180" style="fill: #2e8b57; fill-opacity: 0.4"/>
    </g>
   </g>
   <g id="PolyCollection_3">
    <defs>
     <path id="m45548737d9" d="M 106.225609 -60.940671 
L 106.200319 -60.940671 
L 106.200319 -61.516197 
L 106.200319 -62.091722 
L 106.200319 -62.667247 
L 106.200319 -63.242773 
L 106.200319 -63.818298 
L 106.200319 -64.393823 
L 106.200319 -64.969349 
L 106.200319 -65.544874 
L 106.200319 -66.120399 
L 106.200319 -66.695925 
L 106.200319 -67.27145 
L 106.200319 -67.846975 
L 106.200319 -68.422501 
L 106.200319 -68.998026 
L 106.200319 -69.573551 
L 106.200319 -70.149077 
L 106.200319 -70.724602 
L 106.200319 -71.300127 
L 106.200319 -71.875653 
L 106.200319 -72.451178 
L 106.200319 -73.026703 
L 106.200319 -73.602229 
L 106.200319 -74.177754 
L 106.200319 -74.753279 
L 106.200319 -75.328805 
L 106.200319 -75.90433 
L 106.200319 -76.479855 
L 106.200319 -77.055381 
L 106.200319 -77.630906 
L 106.200319 -78.206431 
L 106.200319 -78.781957 
L 106.200319 -79.357482 
L 106.200319 -79.933007 
L 106.200319 -80.508533 
L 106.200319 -81.084058 
L 106.200319 -81.659583 
L 106.200319 -82.235109 
L 106.200319 -82.810634 
L 106.200319 -83.386159 
L 106.200319 -83.961685 
L 106.200319 -84.53721 
L 106.200319 -85.112735 
L 106.200319 -85.688261 
L 106.200319 -86.263786 
L 106.200319 -86.839311 
L 106.200319 -87.414837 
L 106.200319 -87.990362 
L 106.200319 -88.565887 
L 106.200319 -89.141413 
L 106.200319 -89.716938 
L 106.200319 -90.292463 
L 106.200319 -90.867989 
L 106.200319 -91.443514 
L 106.200319 -92.019039 
L 106.200319 -92.594565 
L 106.200319 -93.17009 
L 106.200319 -93.745615 
L 106.200319 -94.321141 
L 106.200319 -94.896666 
L 106.200319 -95.472191 
L 106.200319 -96.047717 
L 106.200319 -96.623242 
L 106.200319 -97.198767 
L 106.200319 -97.774293 
L 106.200319 -98.349818 
L 106.200319 -98.925343 
L 106.200319 -99.500869 
L 106.200319 -100.076394 
L 106.200319 -100.651919 
L 106.200319 -101.227445 
L 106.200319 -101.80297 
L 106.200319 -102.378495 
L 106.200319 -102.954021 
L 106.200319 -103.529546 
L 106.200319 -104.105071 
L 106.200319 -104.680597 
L 106.200319 -105.256122 
L 106.200319 -105.831647 
L 106.200319 -106.407173 
L 106.200319 -106.982698 
L 106.200319 -107.558223 
L 106.200319 -108.133749 
L 106.200319 -108.709274 
L 106.200319 -109.284799 
L 106.200319 -109.860325 
L 106.200319 -110.43585 
L 106.200319 -111.011375 
L 106.200319 -111.586901 
L 106.200319 -112.162426 
L 106.200319 -112.737951 
L 106.200319 -113.313477 
L 106.200319 -113.889002 
L 106.200319 -114.464527 
L 106.200319 -115.040053 
L 106.200319 -115.615578 
L 106.200319 -116.191103 
L 106.200319 -116.766629 
L 106.200319 -117.342154 
L 106.200319 -117.917679 
L 106.213496 -117.917679 
L 106.213496 -117.917679 
L 106.217706 -117.342154 
L 106.222673 -116.766629 
L 106.228327 -116.191103 
L 106.234191 -115.615578 
L 106.2397 -115.040053 
L 106.244925 -114.464527 
L 106.251182 -113.889002 
L 106.260954 -113.313477 
L 106.276875 -112.737951 
L 106.300229 -112.162426 
L 106.329877 -111.586901 
L 106.362448 -111.011375 
L 106.394008 -110.43585 
L 106.422571 -109.860325 
L 106.449827 -109.284799 
L 106.480367 -108.709274 
L 106.518382 -108.133749 
L 106.564432 -107.558223 
L 106.61539 -106.982698 
L 106.667981 -106.407173 
L 106.723321 -105.831647 
L 106.789057 -105.256122 
L 106.877285 -104.680597 
L 106.999052 -104.105071 
L 107.158831 -103.529546 
L 107.352454 -102.954021 
L 107.569116 -102.378495 
L 107.795296 -101.80297 
L 108.018757 -101.227445 
L 108.232473 -100.651919 
L 108.437831 -100.076394 
L 108.644598 -99.500869 
L 108.865935 -98.925343 
L 109.110785 -98.349818 
L 109.379039 -97.774293 
L 109.66281 -97.198767 
L 109.951667 -96.623242 
L 110.236881 -96.047717 
L 110.512743 -95.472191 
L 110.77754 -94.896666 
L 111.036368 -94.321141 
L 111.302479 -93.745615 
L 111.591137 -93.17009 
L 111.90618 -92.594565 
L 112.229644 -92.019039 
L 112.525985 -91.443514 
L 112.760521 -90.867989 
L 112.918787 -90.292463 
L 113.012734 -89.716938 
L 113.07029 -89.141413 
L 113.11615 -88.565887 
L 113.156228 -87.990362 
L 113.175 -87.414837 
L 113.147036 -86.839311 
L 113.055257 -86.263786 
L 112.903393 -85.688261 
L 112.713055 -85.112735 
L 112.507384 -84.53721 
L 112.294792 -83.961685 
L 112.066272 -83.386159 
L 111.807168 -82.810634 
L 111.511851 -82.235109 
L 111.189209 -81.659583 
L 110.856582 -81.084058 
L 110.529407 -80.508533 
L 110.215563 -79.933007 
L 109.917292 -79.357482 
L 109.63617 -78.781957 
L 109.375064 -78.206431 
L 109.135642 -77.630906 
L 108.914947 -77.055381 
L 108.704981 -76.479855 
L 108.495897 -75.90433 
L 108.280233 -75.328805 
L 108.055428 -74.753279 
L 107.824049 -74.177754 
L 107.592879 -73.602229 
L 107.371643 -73.026703 
L 107.170921 -72.451178 
L 106.999069 -71.875653 
L 106.85937 -71.300127 
L 106.749213 -70.724602 
L 106.6619 -70.149077 
L 106.589869 -69.573551 
L 106.527488 -68.998026 
L 106.472211 -68.422501 
L 106.423984 -67.846975 
L 106.383582 -67.27145 
L 106.350947 -66.695925 
L 106.324598 -66.120399 
L 106.30236 -65.544874 
L 106.282623 -64.969349 
L 106.265053 -64.393823 
L 106.25039 -63.818298 
L 106.239639 -63.242773 
L 106.233147 -62.667247 
L 106.230004 -62.091722 
L 106.228198 -61.516197 
L 106.225609 -60.940671 
z
"/>
    </defs>
    <g clip-path="url(#p95b247a0c8)">
     <use xlink:href="#m45548737d9" x="0" y="180" style="fill: #ff4500; fill-opacity: 0.4"/>
    </g>
   </g>
   <g id="PolyCollection_4">
    <defs>
     <path id="m51c40f83e6" d="M 134.110186 -64.386181 
L 134.100138 -64.386181 
L 134.100138 -64.829938 
L 134.100138 -65.273696 
L 134.100138 -65.717453 
L 134.100138 -66.161211 
L 134.100138 -66.604969 
L 134.100138 -67.048726 
L 134.100138 -67.492484 
L 134.100138 -67.936241 
L 134.100138 -68.379999 
L 134.100138 -68.823757 
L 134.100138 -69.267514 
L 134.100138 -69.711272 
L 134.100138 -70.155029 
L 134.100138 -70.598787 
L 134.100138 -71.042544 
L 134.100138 -71.486302 
L 134.100138 -71.93006 
L 134.100138 -72.373817 
L 134.100138 -72.817575 
L 134.100138 -73.261332 
L 134.100138 -73.70509 
L 134.100138 -74.148848 
L 134.100138 -74.592605 
L 134.100138 -75.036363 
L 134.100138 -75.48012 
L 134.100138 -75.923878 
L 134.100138 -76.367636 
L 134.100138 -76.811393 
L 134.100138 -77.255151 
L 134.100138 -77.698908 
L 134.100138 -78.142666 
L 134.100138 -78.586424 
L 134.100138 -79.030181 
L 134.100138 -79.473939 
L 134.100138 -79.917696 
L 134.100138 -80.361454 
L 134.100138 -80.805211 
L 134.100138 -81.248969 
L 134.100138 -81.692727 
L 134.100138 -82.136484 
L 134.100138 -82.580242 
L 134.100138 -83.023999 
L 134.100138 -83.467757 
L 134.100138 -83.911515 
L 134.100138 -84.355272 
L 134.100138 -84.79903 
L 134.100138 -85.242787 
L 134.100138 -85.686545 
L 134.100138 -86.130303 
L 134.100138 -86.57406 
L 134.100138 -87.017818 
L 134.100138 -87.461575 
L 134.100138 -87.905333 
L 134.100138 -88.34909 
L 134.100138 -88.792848 
L 134.100138 -89.236606 
L 134.100138 -89.680363 
L 134.100138 -90.124121 
L 134.100138 -90.567878 
L 134.100138 -91.011636 
L 134.100138 -91.455394 
L 134.100138 -91.899151 
L 134.100138 -92.342909 
L 134.100138 -92.786666 
L 134.100138 -93.230424 
L 134.100138 -93.674182 
L 134.100138 -94.117939 
L 134.100138 -94.561697 
L 134.100138 -95.005454 
L 134.100138 -95.449212 
L 134.100138 -95.89297 
L 134.100138 -96.336727 
L 134.100138 -96.780485 
L 134.100138 -97.224242 
L 134.100138 -97.668 
L 134.100138 -98.111757 
L 134.100138 -98.555515 
L 134.100138 -98.999273 
L 134.100138 -99.44303 
L 134.100138 -99.886788 
L 134.100138 -100.330545 
L 134.100138 -100.774303 
L 134.100138 -101.218061 
L 134.100138 -101.661818 
L 134.100138 -102.105576 
L 134.100138 -102.549333 
L 134.100138 -102.993091 
L 134.100138 -103.436849 
L 134.100138 -103.880606 
L 134.100138 -104.324364 
L 134.100138 -104.768121 
L 134.100138 -105.211879 
L 134.100138 -105.655636 
L 134.100138 -106.099394 
L 134.100138 -106.543152 
L 134.100138 -106.986909 
L 134.100138 -107.430667 
L 134.100138 -107.874424 
L 134.100138 -108.318182 
L 134.107692 -108.318182 
L 134.107692 -108.318182 
L 134.10693 -107.874424 
L 134.105068 -107.430667 
L 134.103018 -106.986909 
L 134.101511 -106.543152 
L 134.100843 -106.099394 
L 134.101189 -105.655636 
L 134.103107 -105.211879 
L 134.1078 -104.768121 
L 134.11683 -104.324364 
L 134.131267 -103.880606 
L 134.150859 -103.436849 
L 134.174067 -102.993091 
L 134.199246 -102.549333 
L 134.226084 -102.105576 
L 134.256011 -101.661818 
L 134.291439 -101.218061 
L 134.335142 -100.774303 
L 134.390329 -100.330545 
L 134.459697 -99.886788 
L 134.542961 -99.44303 
L 134.6365 -98.999273 
L 134.737843 -98.555515 
L 134.850312 -98.111757 
L 134.981109 -97.668 
L 135.134751 -97.224242 
L 135.310478 -96.780485 
L 135.506143 -96.336727 
L 135.721305 -95.89297 
L 135.954873 -95.449212 
L 136.203792 -95.005454 
L 136.46876 -94.561697 
L 136.758935 -94.117939 
L 137.084216 -93.674182 
L 137.440758 -93.230424 
L 137.808081 -92.786666 
L 138.163761 -92.342909 
L 138.501079 -91.899151 
L 138.833219 -91.455394 
L 139.18134 -91.011636 
L 139.554616 -90.567878 
L 139.935425 -90.124121 
L 140.282928 -89.680363 
L 140.555672 -89.236606 
L 140.735774 -88.792848 
L 140.836066 -88.34909 
L 140.889001 -87.905333 
L 140.929061 -87.461575 
L 140.977841 -87.017818 
L 141.034618 -86.57406 
L 141.075 -86.130303 
L 141.06157 -85.686545 
L 140.96377 -85.242787 
L 140.773172 -84.79903 
L 140.502128 -84.355272 
L 140.171291 -83.911515 
L 139.801208 -83.467757 
L 139.412922 -83.023999 
L 139.029927 -82.580242 
L 138.67382 -82.136484 
L 138.353649 -81.692727 
L 138.057458 -81.248969 
L 137.758276 -80.805211 
L 137.435817 -80.361454 
L 137.094988 -79.917696 
L 136.761133 -79.473939 
L 136.457604 -79.030181 
L 136.189617 -78.586424 
L 135.947093 -78.142666 
L 135.718878 -77.698908 
L 135.504082 -77.255151 
L 135.311756 -76.811393 
L 135.150391 -76.367636 
L 135.017846 -75.923878 
L 134.901857 -75.48012 
L 134.790111 -75.036363 
L 134.679197 -74.592605 
L 134.57452 -74.148848 
L 134.483721 -73.70509 
L 134.411073 -73.261332 
L 134.356329 -72.817575 
L 134.316265 -72.373817 
L 134.28661 -71.93006 
L 134.263648 -71.486302 
L 134.245059 -71.042544 
L 134.229377 -70.598787 
L 134.214802 -70.155029 
L 134.199181 -69.711272 
L 134.181421 -69.267514 
L 134.162526 -68.823757 
L 134.145014 -68.379999 
L 134.131414 -67.936241 
L 134.123053 -67.492484 
L 134.119476 -67.048726 
L 134.118649 -66.604969 
L 134.118149 -66.161211 
L 134.116689 -65.717453 
L 134.114504 -65.273696 
L 134.112295 -64.829938 
L 134.110186 -64.386181 
z
"/>
    </defs>
    <g clip-path="url(#p95b247a0c8)">
     <use xlink:href="#m51c40f83e6" x="0" y="180" style="fill: #2e8b57; fill-opacity: 0.4"/>
    </g>
   </g>
   <g id="PolyCollection_5">
    <path d="M 22.5 68.030125 
L 22.5 80.666095 
L 22.779 80.666095 
L 23.058 80.666095 
L 23.337 80.666095 
L 23.616 80.666095 
L 23.895 80.666095 
L 24.174 80.666095 
L 24.453 80.666095 
L 24.732 80.666095 
L 25.011 80.666095 
L 25.29 80.666095 
L 25.569 80.666095 
L 25.848 80.666095 
L 26.127 80.666095 
L 26.406 80.666095 
L 26.685 80.666095 
L 26.964 80.666095 
L 27.243 80.666095 
L 27.522 80.666095 
L 27.801 80.666095 
L 28.08 80.666095 
L 28.359 80.666095 
L 28.638 80.666095 
L 28.917 80.666095 
L 29.196 80.666095 
L 29.475 80.666095 
L 29.754 80.666095 
L 30.033 80.666095 
L 30.312 80.666095 
L 30.591 80.666095 
L 30.87 80.666095 
L 31.149 80.666095 
L 31.428 80.666095 
L 31.707 80.666095 
L 31.986 80.666095 
L 32.265 80.666095 
L 32.544 80.666095 
L 32.823 80.666095 
L 33.102 80.666095 
L 33.381 80.666095 
L 33.66 80.666095 
L 33.939 80.666095 
L 34.218 80.666095 
L 34.497 80.666095 
L 34.776 80.666095 
L 35.055 80.666095 
L 35.334 80.666095 
L 35.613 80.666095 
L 35.892 80.666095 
L 36.171 80.666095 
L 36.45 80.666095 
L 36.729 80.666095 
L 37.008 80.666095 
L 37.287 80.666095 
L 37.566 80.666095 
L 37.845 80.666095 
L 38.124 80.666095 
L 38.403 80.666095 
L 38.682 80.666095 
L 38.961 80.666095 
L 39.24 80.666095 
L 39.519 80.666095 
L 39.798 80.666095 
L 40.077 80.666095 
L 40.356 80.666095 
L 40.635 80.666095 
L 40.914 80.666095 
L 41.193 80.666095 
L 41.472 80.666095 
L 41.751 80.666095 
L 42.03 80.666095 
L 42.309 80.666095 
L 42.588 80.666095 
L 42.867 80.666095 
L 43.146 80.666095 
L 43.425 80.666095 
L 43.704 80.666095 
L 43.983 80.666095 
L 44.262 80.666095 
L 44.541 80.666095 
L 44.82 80.666095 
L 45.099 80.666095 
L 45.378 80.666095 
L 45.657 80.666095 
L 45.936 80.666095 
L 46.215 80.666095 
L 46.494 80.666095 
L 46.773 80.666095 
L 47.052 80.666095 
L 47.331 80.666095 
L 47.61 80.666095 
L 47.889 80.666095 
L 48.168 80.666095 
L 48.447 80.666095 
L 48.726 80.666095 
L 49.005 80.666095 
L 49.284 80.666095 
L 49.563 80.666095 
L 49.842 80.666095 
L 50.121 80.666095 
L 50.4 80.666095 
L 50.679 80.666095 
L 50.958 80.666095 
L 51.237 80.666095 
L 51.516 80.666095 
L 51.795 80.666095 
L 52.074 80.666095 
L 52.353 80.666095 
L 52.632 80.666095 
L 52.911 80.666095 
L 53.19 80.666095 
L 53.469 80.666095 
L 53.748 80.666095 
L 54.027 80.666095 
L 54.306 80.666095 
L 54.585 80.666095 
L 54.864 80.666095 
L 55.143 80.666095 
L 55.422 80.666095 
L 55.701 80.666095 
L 55.98 80.666095 
L 56.259 80.666095 
L 56.538 80.666095 
L 56.817 80.666095 
L 57.096 80.666095 
L 57.375 80.666095 
L 57.654 80.666095 
L 57.933 80.666095 
L 58.212 80.666095 
L 58.491 80.666095 
L 58.77 80.666095 
L 59.049 80.666095 
L 59.328 80.666095 
L 59.607 80.666095 
L 59.886 80.666095 
L 60.165 80.666095 
L 60.444 80.666095 
L 60.723 80.666095 
L 61.002 80.666095 
L 61.281 80.666095 
L 61.56 80.666095 
L 61.839 80.666095 
L 62.118 80.666095 
L 62.397 80.666095 
L 62.676 80.666095 
L 62.955 80.666095 
L 63.234 80.666095 
L 63.513 80.666095 
L 63.792 80.666095 
L 64.071 80.666095 
L 64.35 80.666095 
L 64.629 80.666095 
L 64.908 80.666095 
L 65.187 80.666095 
L 65.466 80.666095 
L 65.745 80.666095 
L 66.024 80.666095 
L 66.303 80.666095 
L 66.582 80.666095 
L 66.861 80.666095 
L 67.14 80.666095 
L 67.419 80.666095 
L 67.698 80.666095 
L 67.977 80.666095 
L 68.256 80.666095 
L 68.535 80.666095 
L 68.814 80.666095 
L 69.093 80.666095 
L 69.372 80.666095 
L 69.651 80.666095 
L 69.93 80.666095 
L 70.209 80.666095 
L 70.488 80.666095 
L 70.767 80.666095 
L 71.046 80.666095 
L 71.325 80.666095 
L 71.604 80.666095 
L 71.883 80.666095 
L 72.162 80.666095 
L 72.441 80.666095 
L 72.72 80.666095 
L 72.999 80.666095 
L 73.278 80.666095 
L 73.557 80.666095 
L 73.836 80.666095 
L 74.115 80.666095 
L 74.394 80.666095 
L 74.673 80.666095 
L 74.952 80.666095 
L 75.231 80.666095 
L 75.51 80.666095 
L 75.789 80.666095 
L 76.068 80.666095 
L 76.347 80.666095 
L 76.626 80.666095 
L 76.905 80.666095 
L 77.184 80.666095 
L 77.463 80.666095 
L 77.742 80.666095 
L 78.021 80.666095 
L 78.3 80.666095 
L 78.579 80.666095 
L 78.858 80.666095 
L 79.137 80.666095 
L 79.416 80.666095 
L 79.695 80.666095 
L 79.974 80.666095 
L 80.253 80.666095 
L 80.532 80.666095 
L 80.811 80.666095 
L 81.09 80.666095 
L 81.369 80.666095 
L 81.648 80.666095 
L 81.927 80.666095 
L 82.206 80.666095 
L 82.485 80.666095 
L 82.764 80.666095 
L 83.043 80.666095 
L 83.322 80.666095 
L 83.601 80.666095 
L 83.88 80.666095 
L 84.159 80.666095 
L 84.438 80.666095 
L 84.717 80.666095 
L 84.996 80.666095 
L 85.275 80.666095 
L 85.554 80.666095 
L 85.833 80.666095 
L 86.112 80.666095 
L 86.391 80.666095 
L 86.67 80.666095 
L 86.949 80.666095 
L 87.228 80.666095 
L 87.507 80.666095 
L 87.786 80.666095 
L 88.065 80.666095 
L 88.344 80.666095 
L 88.623 80.666095 
L 88.902 80.666095 
L 89.181 80.666095 
L 89.46 80.666095 
L 89.739 80.666095 
L 90.018 80.666095 
L 90.297 80.666095 
L 90.576 80.666095 
L 90.855 80.666095 
L 91.134 80.666095 
L 91.413 80.666095 
L 91.692 80.666095 
L 91.971 80.666095 
L 92.25 80.666095 
L 92.529 80.666095 
L 92.808 80.666095 
L 93.087 80.666095 
L 93.366 80.666095 
L 93.645 80.666095 
L 93.924 80.666095 
L 94.203 80.666095 
L 94.482 80.666095 
L 94.761 80.666095 
L 95.04 80.666095 
L 95.319 80.666095 
L 95.598 80.666095 
L 95.877 80.666095 
L 96.156 80.666095 
L 96.435 80.666095 
L 96.714 80.666095 
L 96.993 80.666095 
L 97.272 80.666095 
L 97.551 80.666095 
L 97.83 80.666095 
L 98.109 80.666095 
L 98.388 80.666095 
L 98.667 80.666095 
L 98.946 80.666095 
L 99.225 80.666095 
L 99.504 80.666095 
L 99.783 80.666095 
L 100.062 80.666095 
L 100.341 80.666095 
L 100.62 80.666095 
L 100.899 80.666095 
L 101.178 80.666095 
L 101.457 80.666095 
L 101.736 80.666095 
L 102.015 80.666095 
L 102.294 80.666095 
L 102.573 80.666095 
L 102.852 80.666095 
L 103.131 80.666095 
L 103.41 80.666095 
L 103.689 80.666095 
L 103.968 80.666095 
L 104.247 80.666095 
L 104.526 80.666095 
L 104.805 80.666095 
L 105.084 80.666095 
L 105.363 80.666095 
L 105.642 80.666095 
L 105.921 80.666095 
L 106.2 80.666095 
L 106.479 80.666095 
L 106.758 80.666095 
L 107.037 80.666095 
L 107.316 80.666095 
L 107.595 80.666095 
L 107.874 80.666095 
L 108.153 80.666095 
L 108.432 80.666095 
L 108.711 80.666095 
L 108.99 80.666095 
L 109.269 80.666095 
L 109.548 80.666095 
L 109.827 80.666095 
L 110.106 80.666095 
L 110.385 80.666095 
L 110.664 80.666095 
L 110.943 80.666095 
L 111.222 80.666095 
L 111.501 80.666095 
L 111.78 80.666095 
L 112.059 80.666095 
L 112.338 80.666095 
L 112.617 80.666095 
L 112.896 80.666095 
L 113.175 80.666095 
L 113.454 80.666095 
L 113.733 80.666095 
L 114.012 80.666095 
L 114.291 80.666095 
L 114.57 80.666095 
L 114.849 80.666095 
L 115.128 80.666095 
L 115.407 80.666095 
L 115.686 80.666095 
L 115.965 80.666095 
L 116.244 80.666095 
L 116.523 80.666095 
L 116.802 80.666095 
L 117.081 80.666095 
L 117.36 80.666095 
L 117.639 80.666095 
L 117.918 80.666095 
L 118.197 80.666095 
L 118.476 80.666095 
L 118.755 80.666095 
L 119.034 80.666095 
L 119.313 80.666095 
L 119.592 80.666095 
L 119.871 80.666095 
L 120.15 80.666095 
L 120.429 80.666095 
L 120.708 80.666095 
L 120.987 80.666095 
L 121.266 80.666095 
L 121.545 80.666095 
L 121.824 80.666095 
L 122.103 80.666095 
L 122.382 80.666095 
L 122.661 80.666095 
L 122.94 80.666095 
L 123.219 80.666095 
L 123.498 80.666095 
L 123.777 80.666095 
L 124.056 80.666095 
L 124.335 80.666095 
L 124.614 80.666095 
L 124.893 80.666095 
L 125.172 80.666095 
L 125.451 80.666095 
L 125.73 80.666095 
L 126.009 80.666095 
L 126.288 80.666095 
L 126.567 80.666095 
L 126.846 80.666095 
L 127.125 80.666095 
L 127.404 80.666095 
L 127.683 80.666095 
L 127.962 80.666095 
L 128.241 80.666095 
L 128.52 80.666095 
L 128.799 80.666095 
L 129.078 80.666095 
L 129.357 80.666095 
L 129.636 80.666095 
L 129.915 80.666095 
L 130.194 80.666095 
L 130.473 80.666095 
L 130.752 80.666095 
L 131.031 80.666095 
L 131.31 80.666095 
L 131.589 80.666095 
L 131.868 80.666095 
L 132.147 80.666095 
L 132.426 80.666095 
L 132.705 80.666095 
L 132.984 80.666095 
L 133.263 80.666095 
L 133.542 80.666095 
L 133.821 80.666095 
L 134.1 80.666095 
L 134.379 80.666095 
L 134.658 80.666095 
L 134.937 80.666095 
L 135.216 80.666095 
L 135.495 80.666095 
L 135.774 80.666095 
L 136.053 80.666095 
L 136.332 80.666095 
L 136.611 80.666095 
L 136.89 80.666095 
L 137.169 80.666095 
L 137.448 80.666095 
L 137.727 80.666095 
L 138.006 80.666095 
L 138.285 80.666095 
L 138.564 80.666095 
L 138.843 80.666095 
L 139.122 80.666095 
L 139.401 80.666095 
L 139.68 80.666095 
L 139.959 80.666095 
L 140.238 80.666095 
L 140.517 80.666095 
L 140.796 80.666095 
L 141.075 80.666095 
L 141.354 80.666095 
L 141.633 80.666095 
L 141.912 80.666095 
L 142.191 80.666095 
L 142.47 80.666095 
L 142.749 80.666095 
L 143.028 80.666095 
L 143.307 80.666095 
L 143.586 80.666095 
L 143.865 80.666095 
L 144.144 80.666095 
L 144.423 80.666095 
L 144.702 80.666095 
L 144.981 80.666095 
L 145.26 80.666095 
L 145.539 80.666095 
L 145.818 80.666095 
L 146.097 80.666095 
L 146.376 80.666095 
L 146.655 80.666095 
L 146.934 80.666095 
L 147.213 80.666095 
L 147.492 80.666095 
L 147.771 80.666095 
L 148.05 80.666095 
L 148.329 80.666095 
L 148.608 80.666095 
L 148.887 80.666095 
L 149.166 80.666095 
L 149.445 80.666095 
L 149.724 80.666095 
L 150.003 80.666095 
L 150.282 80.666095 
L 150.561 80.666095 
L 150.84 80.666095 
L 151.119 80.666095 
L 151.398 80.666095 
L 151.677 80.666095 
L 151.956 80.666095 
L 152.235 80.666095 
L 152.514 80.666095 
L 152.793 80.666095 
L 153.072 80.666095 
L 153.351 80.666095 
L 153.63 80.666095 
L 153.909 80.666095 
L 154.188 80.666095 
L 154.467 80.666095 
L 154.746 80.666095 
L 155.025 80.666095 
L 155.304 80.666095 
L 155.583 80.666095 
L 155.862 80.666095 
L 156.141 80.666095 
L 156.42 80.666095 
L 156.699 80.666095 
L 156.978 80.666095 
L 157.257 80.666095 
L 157.536 80.666095 
L 157.815 80.666095 
L 158.094 80.666095 
L 158.373 80.666095 
L 158.652 80.666095 
L 158.931 80.666095 
L 159.21 80.666095 
L 159.489 80.666095 
L 159.768 80.666095 
L 160.047 80.666095 
L 160.326 80.666095 
L 160.605 80.666095 
L 160.884 80.666095 
L 161.163 80.666095 
L 161.442 80.666095 
L 161.721 80.666095 
L 161.721 68.030125 
L 161.721 68.030125 
L 161.442 68.030125 
L 161.163 68.030125 
L 160.884 68.030125 
L 160.605 68.030125 
L 160.326 68.030125 
L 160.047 68.030125 
L 159.768 68.030125 
L 159.489 68.030125 
L 159.21 68.030125 
L 158.931 68.030125 
L 158.652 68.030125 
L 158.373 68.030125 
L 158.094 68.030125 
L 157.815 68.030125 
L 157.536 68.030125 
L 157.257 68.030125 
L 156.978 68.030125 
L 156.699 68.030125 
L 156.42 68.030125 
L 156.141 68.030125 
L 155.862 68.030125 
L 155.583 68.030125 
L 155.304 68.030125 
L 155.025 68.030125 
L 154.746 68.030125 
L 154.467 68.030125 
L 154.188 68.030125 
L 153.909 68.030125 
L 153.63 68.030125 
L 153.351 68.030125 
L 153.072 68.030125 
L 152.793 68.030125 
L 152.514 68.030125 
L 152.235 68.030125 
L 151.956 68.030125 
L 151.677 68.030125 
L 151.398 68.030125 
L 151.119 68.030125 
L 150.84 68.030125 
L 150.561 68.030125 
L 150.282 68.030125 
L 150.003 68.030125 
L 149.724 68.030125 
L 149.445 68.030125 
L 149.166 68.030125 
L 148.887 68.030125 
L 148.608 68.030125 
L 148.329 68.030125 
L 148.05 68.030125 
L 147.771 68.030125 
L 147.492 68.030125 
L 147.213 68.030125 
L 146.934 68.030125 
L 146.655 68.030125 
L 146.376 68.030125 
L 146.097 68.030125 
L 145.818 68.030125 
L 145.539 68.030125 
L 145.26 68.030125 
L 144.981 68.030125 
L 144.702 68.030125 
L 144.423 68.030125 
L 144.144 68.030125 
L 143.865 68.030125 
L 143.586 68.030125 
L 143.307 68.030125 
L 143.028 68.030125 
L 142.749 68.030125 
L 142.47 68.030125 
L 142.191 68.030125 
L 141.912 68.030125 
L 141.633 68.030125 
L 141.354 68.030125 
L 141.075 68.030125 
L 140.796 68.030125 
L 140.517 68.030125 
L 140.238 68.030125 
L 139.959 68.030125 
L 139.68 68.030125 
L 139.401 68.030125 
L 139.122 68.030125 
L 138.843 68.030125 
L 138.564 68.030125 
L 138.285 68.030125 
L 138.006 68.030125 
L 137.727 68.030125 
L 137.448 68.030125 
L 137.169 68.030125 
L 136.89 68.030125 
L 136.611 68.030125 
L 136.332 68.030125 
L 136.053 68.030125 
L 135.774 68.030125 
L 135.495 68.030125 
L 135.216 68.030125 
L 134.937 68.030125 
L 134.658 68.030125 
L 134.379 68.030125 
L 134.1 68.030125 
L 133.821 68.030125 
L 133.542 68.030125 
L 133.263 68.030125 
L 132.984 68.030125 
L 132.705 68.030125 
L 132.426 68.030125 
L 132.147 68.030125 
L 131.868 68.030125 
L 131.589 68.030125 
L 131.31 68.030125 
L 131.031 68.030125 
L 130.752 68.030125 
L 130.473 68.030125 
L 130.194 68.030125 
L 129.915 68.030125 
L 129.636 68.030125 
L 129.357 68.030125 
L 129.078 68.030125 
L 128.799 68.030125 
L 128.52 68.030125 
L 128.241 68.030125 
L 127.962 68.030125 
L 127.683 68.030125 
L 127.404 68.030125 
L 127.125 68.030125 
L 126.846 68.030125 
L 126.567 68.030125 
L 126.288 68.030125 
L 126.009 68.030125 
L 125.73 68.030125 
L 125.451 68.030125 
L 125.172 68.030125 
L 124.893 68.030125 
L 124.614 68.030125 
L 124.335 68.030125 
L 124.056 68.030125 
L 123.777 68.030125 
L 123.498 68.030125 
L 123.219 68.030125 
L 122.94 68.030125 
L 122.661 68.030125 
L 122.382 68.030125 
L 122.103 68.030125 
L 121.824 68.030125 
L 121.545 68.030125 
L 121.266 68.030125 
L 120.987 68.030125 
L 120.708 68.030125 
L 120.429 68.030125 
L 120.15 68.030125 
L 119.871 68.030125 
L 119.592 68.030125 
L 119.313 68.030125 
L 119.034 68.030125 
L 118.755 68.030125 
L 118.476 68.030125 
L 118.197 68.030125 
L 117.918 68.030125 
L 117.639 68.030125 
L 117.36 68.030125 
L 117.081 68.030125 
L 116.802 68.030125 
L 116.523 68.030125 
L 116.244 68.030125 
L 115.965 68.030125 
L 115.686 68.030125 
L 115.407 68.030125 
L 115.128 68.030125 
L 114.849 68.030125 
L 114.57 68.030125 
L 114.291 68.030125 
L 114.012 68.030125 
L 113.733 68.030125 
L 113.454 68.030125 
L 113.175 68.030125 
L 112.896 68.030125 
L 112.617 68.030125 
L 112.338 68.030125 
L 112.059 68.030125 
L 111.78 68.030125 
L 111.501 68.030125 
L 111.222 68.030125 
L 110.943 68.030125 
L 110.664 68.030125 
L 110.385 68.030125 
L 110.106 68.030125 
L 109.827 68.030125 
L 109.548 68.030125 
L 109.269 68.030125 
L 108.99 68.030125 
L 108.711 68.030125 
L 108.432 68.030125 
L 108.153 68.030125 
L 107.874 68.030125 
L 107.595 68.030125 
L 107.316 68.030125 
L 107.037 68.030125 
L 106.758 68.030125 
L 106.479 68.030125 
L 106.2 68.030125 
L 105.921 68.030125 
L 105.642 68.030125 
L 105.363 68.030125 
L 105.084 68.030125 
L 104.805 68.030125 
L 104.526 68.030125 
L 104.247 68.030125 
L 103.968 68.030125 
L 103.689 68.030125 
L 103.41 68.030125 
L 103.131 68.030125 
L 102.852 68.030125 
L 102.573 68.030125 
L 102.294 68.030125 
L 102.015 68.030125 
L 101.736 68.030125 
L 101.457 68.030125 
L 101.178 68.030125 
L 100.899 68.030125 
L 100.62 68.030125 
L 100.341 68.030125 
L 100.062 68.030125 
L 99.783 68.030125 
L 99.504 68.030125 
L 99.225 68.030125 
L 98.946 68.030125 
L 98.667 68.030125 
L 98.388 68.030125 
L 98.109 68.030125 
L 97.83 68.030125 
L 97.551 68.030125 
L 97.272 68.030125 
L 96.993 68.030125 
L 96.714 68.030125 
L 96.435 68.030125 
L 96.156 68.030125 
L 95.877 68.030125 
L 95.598 68.030125 
L 95.319 68.030125 
L 95.04 68.030125 
L 94.761 68.030125 
L 94.482 68.030125 
L 94.203 68.030125 
L 93.924 68.030125 
L 93.645 68.030125 
L 93.366 68.030125 
L 93.087 68.030125 
L 92.808 68.030125 
L 92.529 68.030125 
L 92.25 68.030125 
L 91.971 68.030125 
L 91.692 68.030125 
L 91.413 68.030125 
L 91.134 68.030125 
L 90.855 68.030125 
L 90.576 68.030125 
L 90.297 68.030125 
L 90.018 68.030125 
L 89.739 68.030125 
L 89.46 68.030125 
L 89.181 68.030125 
L 88.902 68.030125 
L 88.623 68.030125 
L 88.344 68.030125 
L 88.065 68.030125 
L 87.786 68.030125 
L 87.507 68.030125 
L 87.228 68.030125 
L 86.949 68.030125 
L 86.67 68.030125 
L 86.391 68.030125 
L 86.112 68.030125 
L 85.833 68.030125 
L 85.554 68.030125 
L 85.275 68.030125 
L 84.996 68.030125 
L 84.717 68.030125 
L 84.438 68.030125 
L 84.159 68.030125 
L 83.88 68.030125 
L 83.601 68.030125 
L 83.322 68.030125 
L 83.043 68.030125 
L 82.764 68.030125 
L 82.485 68.030125 
L 82.206 68.030125 
L 81.927 68.030125 
L 81.648 68.030125 
L 81.369 68.030125 
L 81.09 68.030125 
L 80.811 68.030125 
L 80.532 68.030125 
L 80.253 68.030125 
L 79.974 68.030125 
L 79.695 68.030125 
L 79.416 68.030125 
L 79.137 68.030125 
L 78.858 68.030125 
L 78.579 68.030125 
L 78.3 68.030125 
L 78.021 68.030125 
L 77.742 68.030125 
L 77.463 68.030125 
L 77.184 68.030125 
L 76.905 68.030125 
L 76.626 68.030125 
L 76.347 68.030125 
L 76.068 68.030125 
L 75.789 68.030125 
L 75.51 68.030125 
L 75.231 68.030125 
L 74.952 68.030125 
L 74.673 68.030125 
L 74.394 68.030125 
L 74.115 68.030125 
L 73.836 68.030125 
L 73.557 68.030125 
L 73.278 68.030125 
L 72.999 68.030125 
L 72.72 68.030125 
L 72.441 68.030125 
L 72.162 68.030125 
L 71.883 68.030125 
L 71.604 68.030125 
L 71.325 68.030125 
L 71.046 68.030125 
L 70.767 68.030125 
L 70.488 68.030125 
L 70.209 68.030125 
L 69.93 68.030125 
L 69.651 68.030125 
L 69.372 68.030125 
L 69.093 68.030125 
L 68.814 68.030125 
L 68.535 68.030125 
L 68.256 68.030125 
L 67.977 68.030125 
L 67.698 68.030125 
L 67.419 68.030125 
L 67.14 68.030125 
L 66.861 68.030125 
L 66.582 68.030125 
L 66.303 68.030125 
L 66.024 68.030125 
L 65.745 68.030125 
L 65.466 68.030125 
L 65.187 68.030125 
L 64.908 68.030125 
L 64.629 68.030125 
L 64.35 68.030125 
L 64.071 68.030125 
L 63.792 68.030125 
L 63.513 68.030125 
L 63.234 68.030125 
L 62.955 68.030125 
L 62.676 68.030125 
L 62.397 68.030125 
L 62.118 68.030125 
L 61.839 68.030125 
L 61.56 68.030125 
L 61.281 68.030125 
L 61.002 68.030125 
L 60.723 68.030125 
L 60.444 68.030125 
L 60.165 68.030125 
L 59.886 68.030125 
L 59.607 68.030125 
L 59.328 68.030125 
L 59.049 68.030125 
L 58.77 68.030125 
L 58.491 68.030125 
L 58.212 68.030125 
L 57.933 68.030125 
L 57.654 68.030125 
L 57.375 68.030125 
L 57.096 68.030125 
L 56.817 68.030125 
L 56.538 68.030125 
L 56.259 68.030125 
L 55.98 68.030125 
L 55.701 68.030125 
L 55.422 68.030125 
L 55.143 68.030125 
L 54.864 68.030125 
L 54.585 68.030125 
L 54.306 68.030125 
L 54.027 68.030125 
L 53.748 68.030125 
L 53.469 68.030125 
L 53.19 68.030125 
L 52.911 68.030125 
L 52.632 68.030125 
L 52.353 68.030125 
L 52.074 68.030125 
L 51.795 68.030125 
L 51.516 68.030125 
L 51.237 68.030125 
L 50.958 68.030125 
L 50.679 68.030125 
L 50.4 68.030125 
L 50.121 68.030125 
L 49.842 68.030125 
L 49.563 68.030125 
L 49.284 68.030125 
L 49.005 68.030125 
L 48.726 68.030125 
L 48.447 68.030125 
L 48.168 68.030125 
L 47.889 68.030125 
L 47.61 68.030125 
L 47.331 68.030125 
L 47.052 68.030125 
L 46.773 68.030125 
L 46.494 68.030125 
L 46.215 68.030125 
L 45.936 68.030125 
L 45.657 68.030125 
L 45.378 68.030125 
L 45.099 68.030125 
L 44.82 68.030125 
L 44.541 68.030125 
L 44.262 68.030125 
L 43.983 68.030125 
L 43.704 68.030125 
L 43.425 68.030125 
L 43.146 68.030125 
L 42.867 68.030125 
L 42.588 68.030125 
L 42.309 68.030125 
L 42.03 68.030125 
L 41.751 68.030125 
L 41.472 68.030125 
L 41.193 68.030125 
L 40.914 68.030125 
L 40.635 68.030125 
L 40.356 68.030125 
L 40.077 68.030125 
L 39.798 68.030125 
L 39.519 68.030125 
L 39.24 68.030125 
L 38.961 68.030125 
L 38.682 68.030125 
L 38.403 68.030125 
L 38.124 68.030125 
L 37.845 68.030125 
L 37.566 68.030125 
L 37.287 68.030125 
L 37.008 68.030125 
L 36.729 68.030125 
L 36.45 68.030125 
L 36.171 68.030125 
L 35.892 68.030125 
L 35.613 68.030125 
L 35.334 68.030125 
L 35.055 68.030125 
L 34.776 68.030125 
L 34.497 68.030125 
L 34.218 68.030125 
L 33.939 68.030125 
L 33.66 68.030125 
L 33.381 68.030125 
L 33.102 68.030125 
L 32.823 68.030125 
L 32.544 68.030125 
L 32.265 68.030125 
L 31.986 68.030125 
L 31.707 68.030125 
L 31.428 68.030125 
L 31.149 68.030125 
L 30.87 68.030125 
L 30.591 68.030125 
L 30.312 68.030125 
L 30.033 68.030125 
L 29.754 68.030125 
L 29.475 68.030125 
L 29.196 68.030125 
L 28.917 68.030125 
L 28.638 68.030125 
L 28.359 68.030125 
L 28.08 68.030125 
L 27.801 68.030125 
L 27.522 68.030125 
L 27.243 68.030125 
L 26.964 68.030125 
L 26.685 68.030125 
L 26.406 68.030125 
L 26.127 68.030125 
L 25.848 68.030125 
L 25.569 68.030125 
L 25.29 68.030125 
L 25.011 68.030125 
L 24.732 68.030125 
L 24.453 68.030125 
L 24.174 68.030125 
L 23.895 68.030125 
L 23.616 68.030125 
L 23.337 68.030125 
L 23.058 68.030125 
L 22.779 68.030125 
L 22.5 68.030125 
z
" clip-path="url(#p95b247a0c8)" style="fill: #d3436e; fill-opacity: 0.1"/>
   </g>
   <g id="PolyCollection_6">
    <path d="M 22.5 84.852042 
L 22.5 94.244813 
L 22.779 94.244813 
L 23.058 94.244813 
L 23.337 94.244813 
L 23.616 94.244813 
L 23.895 94.244813 
L 24.174 94.244813 
L 24.453 94.244813 
L 24.732 94.244813 
L 25.011 94.244813 
L 25.29 94.244813 
L 25.569 94.244813 
L 25.848 94.244813 
L 26.127 94.244813 
L 26.406 94.244813 
L 26.685 94.244813 
L 26.964 94.244813 
L 27.243 94.244813 
L 27.522 94.244813 
L 27.801 94.244813 
L 28.08 94.244813 
L 28.359 94.244813 
L 28.638 94.244813 
L 28.917 94.244813 
L 29.196 94.244813 
L 29.475 94.244813 
L 29.754 94.244813 
L 30.033 94.244813 
L 30.312 94.244813 
L 30.591 94.244813 
L 30.87 94.244813 
L 31.149 94.244813 
L 31.428 94.244813 
L 31.707 94.244813 
L 31.986 94.244813 
L 32.265 94.244813 
L 32.544 94.244813 
L 32.823 94.244813 
L 33.102 94.244813 
L 33.381 94.244813 
L 33.66 94.244813 
L 33.939 94.244813 
L 34.218 94.244813 
L 34.497 94.244813 
L 34.776 94.244813 
L 35.055 94.244813 
L 35.334 94.244813 
L 35.613 94.244813 
L 35.892 94.244813 
L 36.171 94.244813 
L 36.45 94.244813 
L 36.729 94.244813 
L 37.008 94.244813 
L 37.287 94.244813 
L 37.566 94.244813 
L 37.845 94.244813 
L 38.124 94.244813 
L 38.403 94.244813 
L 38.682 94.244813 
L 38.961 94.244813 
L 39.24 94.244813 
L 39.519 94.244813 
L 39.798 94.244813 
L 40.077 94.244813 
L 40.356 94.244813 
L 40.635 94.244813 
L 40.914 94.244813 
L 41.193 94.244813 
L 41.472 94.244813 
L 41.751 94.244813 
L 42.03 94.244813 
L 42.309 94.244813 
L 42.588 94.244813 
L 42.867 94.244813 
L 43.146 94.244813 
L 43.425 94.244813 
L 43.704 94.244813 
L 43.983 94.244813 
L 44.262 94.244813 
L 44.541 94.244813 
L 44.82 94.244813 
L 45.099 94.244813 
L 45.378 94.244813 
L 45.657 94.244813 
L 45.936 94.244813 
L 46.215 94.244813 
L 46.494 94.244813 
L 46.773 94.244813 
L 47.052 94.244813 
L 47.331 94.244813 
L 47.61 94.244813 
L 47.889 94.244813 
L 48.168 94.244813 
L 48.447 94.244813 
L 48.726 94.244813 
L 49.005 94.244813 
L 49.284 94.244813 
L 49.563 94.244813 
L 49.842 94.244813 
L 50.121 94.244813 
L 50.4 94.244813 
L 50.679 94.244813 
L 50.958 94.244813 
L 51.237 94.244813 
L 51.516 94.244813 
L 51.795 94.244813 
L 52.074 94.244813 
L 52.353 94.244813 
L 52.632 94.244813 
L 52.911 94.244813 
L 53.19 94.244813 
L 53.469 94.244813 
L 53.748 94.244813 
L 54.027 94.244813 
L 54.306 94.244813 
L 54.585 94.244813 
L 54.864 94.244813 
L 55.143 94.244813 
L 55.422 94.244813 
L 55.701 94.244813 
L 55.98 94.244813 
L 56.259 94.244813 
L 56.538 94.244813 
L 56.817 94.244813 
L 57.096 94.244813 
L 57.375 94.244813 
L 57.654 94.244813 
L 57.933 94.244813 
L 58.212 94.244813 
L 58.491 94.244813 
L 58.77 94.244813 
L 59.049 94.244813 
L 59.328 94.244813 
L 59.607 94.244813 
L 59.886 94.244813 
L 60.165 94.244813 
L 60.444 94.244813 
L 60.723 94.244813 
L 61.002 94.244813 
L 61.281 94.244813 
L 61.56 94.244813 
L 61.839 94.244813 
L 62.118 94.244813 
L 62.397 94.244813 
L 62.676 94.244813 
L 62.955 94.244813 
L 63.234 94.244813 
L 63.513 94.244813 
L 63.792 94.244813 
L 64.071 94.244813 
L 64.35 94.244813 
L 64.629 94.244813 
L 64.908 94.244813 
L 65.187 94.244813 
L 65.466 94.244813 
L 65.745 94.244813 
L 66.024 94.244813 
L 66.303 94.244813 
L 66.582 94.244813 
L 66.861 94.244813 
L 67.14 94.244813 
L 67.419 94.244813 
L 67.698 94.244813 
L 67.977 94.244813 
L 68.256 94.244813 
L 68.535 94.244813 
L 68.814 94.244813 
L 69.093 94.244813 
L 69.372 94.244813 
L 69.651 94.244813 
L 69.93 94.244813 
L 70.209 94.244813 
L 70.488 94.244813 
L 70.767 94.244813 
L 71.046 94.244813 
L 71.325 94.244813 
L 71.604 94.244813 
L 71.883 94.244813 
L 72.162 94.244813 
L 72.441 94.244813 
L 72.72 94.244813 
L 72.999 94.244813 
L 73.278 94.244813 
L 73.557 94.244813 
L 73.836 94.244813 
L 74.115 94.244813 
L 74.394 94.244813 
L 74.673 94.244813 
L 74.952 94.244813 
L 75.231 94.244813 
L 75.51 94.244813 
L 75.789 94.244813 
L 76.068 94.244813 
L 76.347 94.244813 
L 76.626 94.244813 
L 76.905 94.244813 
L 77.184 94.244813 
L 77.463 94.244813 
L 77.742 94.244813 
L 78.021 94.244813 
L 78.3 94.244813 
L 78.579 94.244813 
L 78.858 94.244813 
L 79.137 94.244813 
L 79.416 94.244813 
L 79.695 94.244813 
L 79.974 94.244813 
L 80.253 94.244813 
L 80.532 94.244813 
L 80.811 94.244813 
L 81.09 94.244813 
L 81.369 94.244813 
L 81.648 94.244813 
L 81.927 94.244813 
L 82.206 94.244813 
L 82.485 94.244813 
L 82.764 94.244813 
L 83.043 94.244813 
L 83.322 94.244813 
L 83.601 94.244813 
L 83.88 94.244813 
L 84.159 94.244813 
L 84.438 94.244813 
L 84.717 94.244813 
L 84.996 94.244813 
L 85.275 94.244813 
L 85.554 94.244813 
L 85.833 94.244813 
L 86.112 94.244813 
L 86.391 94.244813 
L 86.67 94.244813 
L 86.949 94.244813 
L 87.228 94.244813 
L 87.507 94.244813 
L 87.786 94.244813 
L 88.065 94.244813 
L 88.344 94.244813 
L 88.623 94.244813 
L 88.902 94.244813 
L 89.181 94.244813 
L 89.46 94.244813 
L 89.739 94.244813 
L 90.018 94.244813 
L 90.297 94.244813 
L 90.576 94.244813 
L 90.855 94.244813 
L 91.134 94.244813 
L 91.413 94.244813 
L 91.692 94.244813 
L 91.971 94.244813 
L 92.25 94.244813 
L 92.529 94.244813 
L 92.808 94.244813 
L 93.087 94.244813 
L 93.366 94.244813 
L 93.645 94.244813 
L 93.924 94.244813 
L 94.203 94.244813 
L 94.482 94.244813 
L 94.761 94.244813 
L 95.04 94.244813 
L 95.319 94.244813 
L 95.598 94.244813 
L 95.877 94.244813 
L 96.156 94.244813 
L 96.435 94.244813 
L 96.714 94.244813 
L 96.993 94.244813 
L 97.272 94.244813 
L 97.551 94.244813 
L 97.83 94.244813 
L 98.109 94.244813 
L 98.388 94.244813 
L 98.667 94.244813 
L 98.946 94.244813 
L 99.225 94.244813 
L 99.504 94.244813 
L 99.783 94.244813 
L 100.062 94.244813 
L 100.341 94.244813 
L 100.62 94.244813 
L 100.899 94.244813 
L 101.178 94.244813 
L 101.457 94.244813 
L 101.736 94.244813 
L 102.015 94.244813 
L 102.294 94.244813 
L 102.573 94.244813 
L 102.852 94.244813 
L 103.131 94.244813 
L 103.41 94.244813 
L 103.689 94.244813 
L 103.968 94.244813 
L 104.247 94.244813 
L 104.526 94.244813 
L 104.805 94.244813 
L 105.084 94.244813 
L 105.363 94.244813 
L 105.642 94.244813 
L 105.921 94.244813 
L 106.2 94.244813 
L 106.479 94.244813 
L 106.758 94.244813 
L 107.037 94.244813 
L 107.316 94.244813 
L 107.595 94.244813 
L 107.874 94.244813 
L 108.153 94.244813 
L 108.432 94.244813 
L 108.711 94.244813 
L 108.99 94.244813 
L 109.269 94.244813 
L 109.548 94.244813 
L 109.827 94.244813 
L 110.106 94.244813 
L 110.385 94.244813 
L 110.664 94.244813 
L 110.943 94.244813 
L 111.222 94.244813 
L 111.501 94.244813 
L 111.78 94.244813 
L 112.059 94.244813 
L 112.338 94.244813 
L 112.617 94.244813 
L 112.896 94.244813 
L 113.175 94.244813 
L 113.454 94.244813 
L 113.733 94.244813 
L 114.012 94.244813 
L 114.291 94.244813 
L 114.57 94.244813 
L 114.849 94.244813 
L 115.128 94.244813 
L 115.407 94.244813 
L 115.686 94.244813 
L 115.965 94.244813 
L 116.244 94.244813 
L 116.523 94.244813 
L 116.802 94.244813 
L 117.081 94.244813 
L 117.36 94.244813 
L 117.639 94.244813 
L 117.918 94.244813 
L 118.197 94.244813 
L 118.476 94.244813 
L 118.755 94.244813 
L 119.034 94.244813 
L 119.313 94.244813 
L 119.592 94.244813 
L 119.871 94.244813 
L 120.15 94.244813 
L 120.429 94.244813 
L 120.708 94.244813 
L 120.987 94.244813 
L 121.266 94.244813 
L 121.545 94.244813 
L 121.824 94.244813 
L 122.103 94.244813 
L 122.382 94.244813 
L 122.661 94.244813 
L 122.94 94.244813 
L 123.219 94.244813 
L 123.498 94.244813 
L 123.777 94.244813 
L 124.056 94.244813 
L 124.335 94.244813 
L 124.614 94.244813 
L 124.893 94.244813 
L 125.172 94.244813 
L 125.451 94.244813 
L 125.73 94.244813 
L 126.009 94.244813 
L 126.288 94.244813 
L 126.567 94.244813 
L 126.846 94.244813 
L 127.125 94.244813 
L 127.404 94.244813 
L 127.683 94.244813 
L 127.962 94.244813 
L 128.241 94.244813 
L 128.52 94.244813 
L 128.799 94.244813 
L 129.078 94.244813 
L 129.357 94.244813 
L 129.636 94.244813 
L 129.915 94.244813 
L 130.194 94.244813 
L 130.473 94.244813 
L 130.752 94.244813 
L 131.031 94.244813 
L 131.31 94.244813 
L 131.589 94.244813 
L 131.868 94.244813 
L 132.147 94.244813 
L 132.426 94.244813 
L 132.705 94.244813 
L 132.984 94.244813 
L 133.263 94.244813 
L 133.542 94.244813 
L 133.821 94.244813 
L 134.1 94.244813 
L 134.379 94.244813 
L 134.658 94.244813 
L 134.937 94.244813 
L 135.216 94.244813 
L 135.495 94.244813 
L 135.774 94.244813 
L 136.053 94.244813 
L 136.332 94.244813 
L 136.611 94.244813 
L 136.89 94.244813 
L 137.169 94.244813 
L 137.448 94.244813 
L 137.727 94.244813 
L 138.006 94.244813 
L 138.285 94.244813 
L 138.564 94.244813 
L 138.843 94.244813 
L 139.122 94.244813 
L 139.401 94.244813 
L 139.68 94.244813 
L 139.959 94.244813 
L 140.238 94.244813 
L 140.517 94.244813 
L 140.796 94.244813 
L 141.075 94.244813 
L 141.354 94.244813 
L 141.633 94.244813 
L 141.912 94.244813 
L 142.191 94.244813 
L 142.47 94.244813 
L 142.749 94.244813 
L 143.028 94.244813 
L 143.307 94.244813 
L 143.586 94.244813 
L 143.865 94.244813 
L 144.144 94.244813 
L 144.423 94.244813 
L 144.702 94.244813 
L 144.981 94.244813 
L 145.26 94.244813 
L 145.539 94.244813 
L 145.818 94.244813 
L 146.097 94.244813 
L 146.376 94.244813 
L 146.655 94.244813 
L 146.934 94.244813 
L 147.213 94.244813 
L 147.492 94.244813 
L 147.771 94.244813 
L 148.05 94.244813 
L 148.329 94.244813 
L 148.608 94.244813 
L 148.887 94.244813 
L 149.166 94.244813 
L 149.445 94.244813 
L 149.724 94.244813 
L 150.003 94.244813 
L 150.282 94.244813 
L 150.561 94.244813 
L 150.84 94.244813 
L 151.119 94.244813 
L 151.398 94.244813 
L 151.677 94.244813 
L 151.956 94.244813 
L 152.235 94.244813 
L 152.514 94.244813 
L 152.793 94.244813 
L 153.072 94.244813 
L 153.351 94.244813 
L 153.63 94.244813 
L 153.909 94.244813 
L 154.188 94.244813 
L 154.467 94.244813 
L 154.746 94.244813 
L 155.025 94.244813 
L 155.304 94.244813 
L 155.583 94.244813 
L 155.862 94.244813 
L 156.141 94.244813 
L 156.42 94.244813 
L 156.699 94.244813 
L 156.978 94.244813 
L 157.257 94.244813 
L 157.536 94.244813 
L 157.815 94.244813 
L 158.094 94.244813 
L 158.373 94.244813 
L 158.652 94.244813 
L 158.931 94.244813 
L 159.21 94.244813 
L 159.489 94.244813 
L 159.768 94.244813 
L 160.047 94.244813 
L 160.326 94.244813 
L 160.605 94.244813 
L 160.884 94.244813 
L 161.163 94.244813 
L 161.442 94.244813 
L 161.721 94.244813 
L 161.721 84.852042 
L 161.721 84.852042 
L 161.442 84.852042 
L 161.163 84.852042 
L 160.884 84.852042 
L 160.605 84.852042 
L 160.326 84.852042 
L 160.047 84.852042 
L 159.768 84.852042 
L 159.489 84.852042 
L 159.21 84.852042 
L 158.931 84.852042 
L 158.652 84.852042 
L 158.373 84.852042 
L 158.094 84.852042 
L 157.815 84.852042 
L 157.536 84.852042 
L 157.257 84.852042 
L 156.978 84.852042 
L 156.699 84.852042 
L 156.42 84.852042 
L 156.141 84.852042 
L 155.862 84.852042 
L 155.583 84.852042 
L 155.304 84.852042 
L 155.025 84.852042 
L 154.746 84.852042 
L 154.467 84.852042 
L 154.188 84.852042 
L 153.909 84.852042 
L 153.63 84.852042 
L 153.351 84.852042 
L 153.072 84.852042 
L 152.793 84.852042 
L 152.514 84.852042 
L 152.235 84.852042 
L 151.956 84.852042 
L 151.677 84.852042 
L 151.398 84.852042 
L 151.119 84.852042 
L 150.84 84.852042 
L 150.561 84.852042 
L 150.282 84.852042 
L 150.003 84.852042 
L 149.724 84.852042 
L 149.445 84.852042 
L 149.166 84.852042 
L 148.887 84.852042 
L 148.608 84.852042 
L 148.329 84.852042 
L 148.05 84.852042 
L 147.771 84.852042 
L 147.492 84.852042 
L 147.213 84.852042 
L 146.934 84.852042 
L 146.655 84.852042 
L 146.376 84.852042 
L 146.097 84.852042 
L 145.818 84.852042 
L 145.539 84.852042 
L 145.26 84.852042 
L 144.981 84.852042 
L 144.702 84.852042 
L 144.423 84.852042 
L 144.144 84.852042 
L 143.865 84.852042 
L 143.586 84.852042 
L 143.307 84.852042 
L 143.028 84.852042 
L 142.749 84.852042 
L 142.47 84.852042 
L 142.191 84.852042 
L 141.912 84.852042 
L 141.633 84.852042 
L 141.354 84.852042 
L 141.075 84.852042 
L 140.796 84.852042 
L 140.517 84.852042 
L 140.238 84.852042 
L 139.959 84.852042 
L 139.68 84.852042 
L 139.401 84.852042 
L 139.122 84.852042 
L 138.843 84.852042 
L 138.564 84.852042 
L 138.285 84.852042 
L 138.006 84.852042 
L 137.727 84.852042 
L 137.448 84.852042 
L 137.169 84.852042 
L 136.89 84.852042 
L 136.611 84.852042 
L 136.332 84.852042 
L 136.053 84.852042 
L 135.774 84.852042 
L 135.495 84.852042 
L 135.216 84.852042 
L 134.937 84.852042 
L 134.658 84.852042 
L 134.379 84.852042 
L 134.1 84.852042 
L 133.821 84.852042 
L 133.542 84.852042 
L 133.263 84.852042 
L 132.984 84.852042 
L 132.705 84.852042 
L 132.426 84.852042 
L 132.147 84.852042 
L 131.868 84.852042 
L 131.589 84.852042 
L 131.31 84.852042 
L 131.031 84.852042 
L 130.752 84.852042 
L 130.473 84.852042 
L 130.194 84.852042 
L 129.915 84.852042 
L 129.636 84.852042 
L 129.357 84.852042 
L 129.078 84.852042 
L 128.799 84.852042 
L 128.52 84.852042 
L 128.241 84.852042 
L 127.962 84.852042 
L 127.683 84.852042 
L 127.404 84.852042 
L 127.125 84.852042 
L 126.846 84.852042 
L 126.567 84.852042 
L 126.288 84.852042 
L 126.009 84.852042 
L 125.73 84.852042 
L 125.451 84.852042 
L 125.172 84.852042 
L 124.893 84.852042 
L 124.614 84.852042 
L 124.335 84.852042 
L 124.056 84.852042 
L 123.777 84.852042 
L 123.498 84.852042 
L 123.219 84.852042 
L 122.94 84.852042 
L 122.661 84.852042 
L 122.382 84.852042 
L 122.103 84.852042 
L 121.824 84.852042 
L 121.545 84.852042 
L 121.266 84.852042 
L 120.987 84.852042 
L 120.708 84.852042 
L 120.429 84.852042 
L 120.15 84.852042 
L 119.871 84.852042 
L 119.592 84.852042 
L 119.313 84.852042 
L 119.034 84.852042 
L 118.755 84.852042 
L 118.476 84.852042 
L 118.197 84.852042 
L 117.918 84.852042 
L 117.639 84.852042 
L 117.36 84.852042 
L 117.081 84.852042 
L 116.802 84.852042 
L 116.523 84.852042 
L 116.244 84.852042 
L 115.965 84.852042 
L 115.686 84.852042 
L 115.407 84.852042 
L 115.128 84.852042 
L 114.849 84.852042 
L 114.57 84.852042 
L 114.291 84.852042 
L 114.012 84.852042 
L 113.733 84.852042 
L 113.454 84.852042 
L 113.175 84.852042 
L 112.896 84.852042 
L 112.617 84.852042 
L 112.338 84.852042 
L 112.059 84.852042 
L 111.78 84.852042 
L 111.501 84.852042 
L 111.222 84.852042 
L 110.943 84.852042 
L 110.664 84.852042 
L 110.385 84.852042 
L 110.106 84.852042 
L 109.827 84.852042 
L 109.548 84.852042 
L 109.269 84.852042 
L 108.99 84.852042 
L 108.711 84.852042 
L 108.432 84.852042 
L 108.153 84.852042 
L 107.874 84.852042 
L 107.595 84.852042 
L 107.316 84.852042 
L 107.037 84.852042 
L 106.758 84.852042 
L 106.479 84.852042 
L 106.2 84.852042 
L 105.921 84.852042 
L 105.642 84.852042 
L 105.363 84.852042 
L 105.084 84.852042 
L 104.805 84.852042 
L 104.526 84.852042 
L 104.247 84.852042 
L 103.968 84.852042 
L 103.689 84.852042 
L 103.41 84.852042 
L 103.131 84.852042 
L 102.852 84.852042 
L 102.573 84.852042 
L 102.294 84.852042 
L 102.015 84.852042 
L 101.736 84.852042 
L 101.457 84.852042 
L 101.178 84.852042 
L 100.899 84.852042 
L 100.62 84.852042 
L 100.341 84.852042 
L 100.062 84.852042 
L 99.783 84.852042 
L 99.504 84.852042 
L 99.225 84.852042 
L 98.946 84.852042 
L 98.667 84.852042 
L 98.388 84.852042 
L 98.109 84.852042 
L 97.83 84.852042 
L 97.551 84.852042 
L 97.272 84.852042 
L 96.993 84.852042 
L 96.714 84.852042 
L 96.435 84.852042 
L 96.156 84.852042 
L 95.877 84.852042 
L 95.598 84.852042 
L 95.319 84.852042 
L 95.04 84.852042 
L 94.761 84.852042 
L 94.482 84.852042 
L 94.203 84.852042 
L 93.924 84.852042 
L 93.645 84.852042 
L 93.366 84.852042 
L 93.087 84.852042 
L 92.808 84.852042 
L 92.529 84.852042 
L 92.25 84.852042 
L 91.971 84.852042 
L 91.692 84.852042 
L 91.413 84.852042 
L 91.134 84.852042 
L 90.855 84.852042 
L 90.576 84.852042 
L 90.297 84.852042 
L 90.018 84.852042 
L 89.739 84.852042 
L 89.46 84.852042 
L 89.181 84.852042 
L 88.902 84.852042 
L 88.623 84.852042 
L 88.344 84.852042 
L 88.065 84.852042 
L 87.786 84.852042 
L 87.507 84.852042 
L 87.228 84.852042 
L 86.949 84.852042 
L 86.67 84.852042 
L 86.391 84.852042 
L 86.112 84.852042 
L 85.833 84.852042 
L 85.554 84.852042 
L 85.275 84.852042 
L 84.996 84.852042 
L 84.717 84.852042 
L 84.438 84.852042 
L 84.159 84.852042 
L 83.88 84.852042 
L 83.601 84.852042 
L 83.322 84.852042 
L 83.043 84.852042 
L 82.764 84.852042 
L 82.485 84.852042 
L 82.206 84.852042 
L 81.927 84.852042 
L 81.648 84.852042 
L 81.369 84.852042 
L 81.09 84.852042 
L 80.811 84.852042 
L 80.532 84.852042 
L 80.253 84.852042 
L 79.974 84.852042 
L 79.695 84.852042 
L 79.416 84.852042 
L 79.137 84.852042 
L 78.858 84.852042 
L 78.579 84.852042 
L 78.3 84.852042 
L 78.021 84.852042 
L 77.742 84.852042 
L 77.463 84.852042 
L 77.184 84.852042 
L 76.905 84.852042 
L 76.626 84.852042 
L 76.347 84.852042 
L 76.068 84.852042 
L 75.789 84.852042 
L 75.51 84.852042 
L 75.231 84.852042 
L 74.952 84.852042 
L 74.673 84.852042 
L 74.394 84.852042 
L 74.115 84.852042 
L 73.836 84.852042 
L 73.557 84.852042 
L 73.278 84.852042 
L 72.999 84.852042 
L 72.72 84.852042 
L 72.441 84.852042 
L 72.162 84.852042 
L 71.883 84.852042 
L 71.604 84.852042 
L 71.325 84.852042 
L 71.046 84.852042 
L 70.767 84.852042 
L 70.488 84.852042 
L 70.209 84.852042 
L 69.93 84.852042 
L 69.651 84.852042 
L 69.372 84.852042 
L 69.093 84.852042 
L 68.814 84.852042 
L 68.535 84.852042 
L 68.256 84.852042 
L 67.977 84.852042 
L 67.698 84.852042 
L 67.419 84.852042 
L 67.14 84.852042 
L 66.861 84.852042 
L 66.582 84.852042 
L 66.303 84.852042 
L 66.024 84.852042 
L 65.745 84.852042 
L 65.466 84.852042 
L 65.187 84.852042 
L 64.908 84.852042 
L 64.629 84.852042 
L 64.35 84.852042 
L 64.071 84.852042 
L 63.792 84.852042 
L 63.513 84.852042 
L 63.234 84.852042 
L 62.955 84.852042 
L 62.676 84.852042 
L 62.397 84.852042 
L 62.118 84.852042 
L 61.839 84.852042 
L 61.56 84.852042 
L 61.281 84.852042 
L 61.002 84.852042 
L 60.723 84.852042 
L 60.444 84.852042 
L 60.165 84.852042 
L 59.886 84.852042 
L 59.607 84.852042 
L 59.328 84.852042 
L 59.049 84.852042 
L 58.77 84.852042 
L 58.491 84.852042 
L 58.212 84.852042 
L 57.933 84.852042 
L 57.654 84.852042 
L 57.375 84.852042 
L 57.096 84.852042 
L 56.817 84.852042 
L 56.538 84.852042 
L 56.259 84.852042 
L 55.98 84.852042 
L 55.701 84.852042 
L 55.422 84.852042 
L 55.143 84.852042 
L 54.864 84.852042 
L 54.585 84.852042 
L 54.306 84.852042 
L 54.027 84.852042 
L 53.748 84.852042 
L 53.469 84.852042 
L 53.19 84.852042 
L 52.911 84.852042 
L 52.632 84.852042 
L 52.353 84.852042 
L 52.074 84.852042 
L 51.795 84.852042 
L 51.516 84.852042 
L 51.237 84.852042 
L 50.958 84.852042 
L 50.679 84.852042 
L 50.4 84.852042 
L 50.121 84.852042 
L 49.842 84.852042 
L 49.563 84.852042 
L 49.284 84.852042 
L 49.005 84.852042 
L 48.726 84.852042 
L 48.447 84.852042 
L 48.168 84.852042 
L 47.889 84.852042 
L 47.61 84.852042 
L 47.331 84.852042 
L 47.052 84.852042 
L 46.773 84.852042 
L 46.494 84.852042 
L 46.215 84.852042 
L 45.936 84.852042 
L 45.657 84.852042 
L 45.378 84.852042 
L 45.099 84.852042 
L 44.82 84.852042 
L 44.541 84.852042 
L 44.262 84.852042 
L 43.983 84.852042 
L 43.704 84.852042 
L 43.425 84.852042 
L 43.146 84.852042 
L 42.867 84.852042 
L 42.588 84.852042 
L 42.309 84.852042 
L 42.03 84.852042 
L 41.751 84.852042 
L 41.472 84.852042 
L 41.193 84.852042 
L 40.914 84.852042 
L 40.635 84.852042 
L 40.356 84.852042 
L 40.077 84.852042 
L 39.798 84.852042 
L 39.519 84.852042 
L 39.24 84.852042 
L 38.961 84.852042 
L 38.682 84.852042 
L 38.403 84.852042 
L 38.124 84.852042 
L 37.845 84.852042 
L 37.566 84.852042 
L 37.287 84.852042 
L 37.008 84.852042 
L 36.729 84.852042 
L 36.45 84.852042 
L 36.171 84.852042 
L 35.892 84.852042 
L 35.613 84.852042 
L 35.334 84.852042 
L 35.055 84.852042 
L 34.776 84.852042 
L 34.497 84.852042 
L 34.218 84.852042 
L 33.939 84.852042 
L 33.66 84.852042 
L 33.381 84.852042 
L 33.102 84.852042 
L 32.823 84.852042 
L 32.544 84.852042 
L 32.265 84.852042 
L 31.986 84.852042 
L 31.707 84.852042 
L 31.428 84.852042 
L 31.149 84.852042 
L 30.87 84.852042 
L 30.591 84.852042 
L 30.312 84.852042 
L 30.033 84.852042 
L 29.754 84.852042 
L 29.475 84.852042 
L 29.196 84.852042 
L 28.917 84.852042 
L 28.638 84.852042 
L 28.359 84.852042 
L 28.08 84.852042 
L 27.801 84.852042 
L 27.522 84.852042 
L 27.243 84.852042 
L 26.964 84.852042 
L 26.685 84.852042 
L 26.406 84.852042 
L 26.127 84.852042 
L 25.848 84.852042 
L 25.569 84.852042 
L 25.29 84.852042 
L 25.011 84.852042 
L 24.732 84.852042 
L 24.453 84.852042 
L 24.174 84.852042 
L 23.895 84.852042 
L 23.616 84.852042 
L 23.337 84.852042 
L 23.058 84.852042 
L 22.779 84.852042 
L 22.5 84.852042 
z
" clip-path="url(#p95b247a0c8)" style="fill: #5f187f; fill-opacity: 0.1"/>
   </g>
   <g id="matplotlib.axis_1">
    <g id="xtick_1">
     <g id="line2d_1">
      <defs>
       <path id="mdfc9f542e4" d="M 0 0 
L 0 3.5 
" style="stroke: #000000; stroke-width: 0.8"/>
      </defs>
      <g>
       <use xlink:href="#mdfc9f542e4" x="50.4" y="160.2" style="stroke: #000000; stroke-width: 0.8"/>
      </g>
     </g>
     <g id="text_1">
      <text style="font: italic 12px 'inter', sans-serif" transform="translate(9.919905 212.12161) rotate(-45)">Trhn&gt;Chr</text>
     </g>
    </g>
    <g id="xtick_2">
     <g id="line2d_2">
      <g>
       <use xlink:href="#mdfc9f542e4" x="78.3" y="160.2" style="stroke: #000000; stroke-width: 0.8"/>
      </g>
     </g>
     <g id="text_2">
      <text style="font: italic 12px 'inter', sans-serif" transform="translate(31.265025 218.67649) rotate(-45)">Trhn&gt;ACR1</text>
     </g>
    </g>
    <g id="xtick_3">
     <g id="line2d_3">
      <g>
       <use xlink:href="#mdfc9f542e4" x="106.2" y="160.2" style="stroke: #000000; stroke-width: 0.8"/>
      </g>
     </g>
     <g id="text_3">
      <text style="font: italic 12px 'inter', sans-serif" transform="translate(51.684719 226.156796) rotate(-45)">R50H05&gt;Chr</text>
     </g>
    </g>
    <g id="xtick_4">
     <g id="line2d_4">
      <g>
       <use xlink:href="#mdfc9f542e4" x="134.1" y="160.2" style="stroke: #000000; stroke-width: 0.8"/>
      </g>
     </g>
     <g id="text_4">
      <text style="font: italic 12px 'inter', sans-serif" transform="translate(73.029839 232.711676) rotate(-45)">R50H05&gt;ACR1</text>
     </g>
    </g>
   </g>
   <g id="matplotlib.axis_2">
    <g id="ytick_1">
     <g id="line2d_5">
      <defs>
       <path id="m9bf56eb1df" d="M 0 0 
L -3.5 0 
" style="stroke: #000000; stroke-width: 0.8"/>
      </defs>
      <g>
       <use xlink:href="#m9bf56eb1df" x="22.5" y="129.996377" style="stroke: #000000; stroke-width: 0.8"/>
      </g>
     </g>
     <g id="text_5">
      <text style="font: 10px 'inter', sans-serif; text-anchor: end" x="15.5" y="133.633877" transform="rotate(-0 15.5 133.633877)">50</text>
     </g>
    </g>
    <g id="ytick_2">
     <g id="line2d_6">
      <g>
       <use xlink:href="#m9bf56eb1df" x="22.5" y="90.932169" style="stroke: #000000; stroke-width: 0.8"/>
      </g>
     </g>
     <g id="text_6">
      <text style="font: 10px 'inter', sans-serif; text-anchor: end" x="15.5" y="94.569669" transform="rotate(-0 15.5 94.569669)">0</text>
     </g>
    </g>
    <g id="ytick_3">
     <g id="line2d_7">
      <g>
       <use xlink:href="#m9bf56eb1df" x="22.5" y="51.86796" style="stroke: #000000; stroke-width: 0.8"/>
      </g>
     </g>
     <g id="text_7">
      <text style="font: 10px 'inter', sans-serif; text-anchor: end" x="15.5" y="55.50546" transform="rotate(-0 15.5 55.50546)">50</text>
     </g>
    </g>
    <g id="text_8">
     <text style="font: 15px 'inter', sans-serif; text-anchor: middle" x="-10.565625" y="90.9" transform="rotate(-90 -10.565625 90.9)"> Num. of Falls</text>
    </g>
   </g>
   <g id="line2d_8">
    <path d="M 22.5 90.932169 
L 162 90.932169 
" clip-path="url(#p95b247a0c8)" style="fill: none; stroke: #000000; stroke-linecap: square"/>
   </g>
   <g id="line2d_9">
    <defs>
     <path id="m2adf2aa03b" d="M 0 2.5 
C 0.663008 2.5 1.29895 2.236584 1.767767 1.767767 
C 2.236584 1.29895 2.5 0.663008 2.5 0 
C 2.5 -0.663008 2.236584 -1.29895 1.767767 -1.767767 
C 1.29895 -2.236584 0.663008 -2.5 0 -2.5 
C -0.663008 -2.5 -1.29895 -2.236584 -1.767767 -1.767767 
C -2.236584 -1.29895 -2.5 -0.663008 -2.5 0 
C -2.5 0.663008 -2.236584 1.29895 -1.767767 1.767767 
C -1.29895 2.236584 -0.663008 2.5 0 2.5 
z
" style="stroke: #000000"/>
    </defs>
    <g clip-path="url(#p95b247a0c8)">
     <use xlink:href="#m2adf2aa03b" x="50.4" y="98.749386" style="stroke: #000000"/>
    </g>
   </g>
   <g id="line2d_10">
    <path d="M 50.4 122.442153 
L 50.4 75.938942 
" clip-path="url(#p95b247a0c8)" style="fill: none; stroke: #000000; stroke-width: 2.5; stroke-linecap: square"/>
   </g>
   <g id="line2d_11">
    <g clip-path="url(#p95b247a0c8)">
     <use xlink:href="#m2adf2aa03b" x="78.3" y="92.827274" style="stroke: #000000"/>
    </g>
   </g>
   <g id="line2d_12">
    <path d="M 78.3 126.441785 
L 78.3 54.133573 
" clip-path="url(#p95b247a0c8)" style="fill: none; stroke: #000000; stroke-width: 2.5; stroke-linecap: square"/>
   </g>
   <g id="line2d_13">
    <g clip-path="url(#p95b247a0c8)">
     <use xlink:href="#m2adf2aa03b" x="106.2" y="91.939467" style="stroke: #000000"/>
    </g>
   </g>
   <g id="line2d_14">
    <path d="M 106.2 106.552271 
L 106.2 76.391912 
" clip-path="url(#p95b247a0c8)" style="fill: none; stroke: #000000; stroke-width: 2.5; stroke-linecap: square"/>
   </g>
   <g id="line2d_15">
    <g clip-path="url(#p95b247a0c8)">
     <use xlink:href="#m2adf2aa03b" x="134.1" y="93.365564" style="stroke: #000000"/>
    </g>
   </g>
   <g id="line2d_16">
    <path d="M 134.1 104.367146 
L 134.1 83.187322 
" clip-path="url(#p95b247a0c8)" style="fill: none; stroke: #000000; stroke-width: 2.5; stroke-linecap: square"/>
   </g>
   <g id="patch_3">
    <path d="M 22.5 160.2 
L 22.5 21.6 
" style="fill: none; stroke: #000000; stroke-width: 0.8; stroke-linejoin: miter; stroke-linecap: square"/>
   </g>
   <g id="patch_4">
    <path d="M 162 160.2 
L 162 21.6 
" style="fill: none"/>
   </g>
   <g id="patch_5">
    <path d="M 22.5 160.2 
L 162 160.2 
" style="fill: none"/>
   </g>
   <g id="patch_6">
    <path d="M 22.5 21.6 
L 162 21.6 
" style="fill: none"/>
   </g>
   <g id="text_9">
    <text style="fill: #d3436e; font: 10px 'inter', sans-serif; text-anchor: start" x="162" y="68.030125" transform="rotate(-0 162 68.030125)">24 h</text>
   </g>
   <g id="text_10">
    <text style="fill: #5f187f; font: 10px 'inter', sans-serif; text-anchor: start" x="162" y="84.852042" transform="rotate(-0 162 84.852042)">48 h</text>
   </g>
   <g id="text_11">
    <text style="font: 500 15px 'inter', sans-serif; text-anchor: middle" x="92.25" y="15.6" transform="rotate(-0 92.25 15.6)">Num. of Falls</text>
   </g>
  </g>
 </g>
 <defs>
  <clipPath id="p95b247a0c8">
   <rect x="22.5" y="21.6" width="139.5" height="138.6"/>
  </clipPath>
 </defs>
</svg>
