<?xml version="1.0" encoding="utf-8" standalone="no"?>
<!DOCTYPE svg PUBLIC "-//W3C//DTD SVG 1.1//EN"
  "http://www.w3.org/Graphics/SVG/1.1/DTD/svg11.dtd">
<svg xmlns:xlink="http://www.w3.org/1999/xlink" width="180pt" height="180pt" viewBox="0 0 180 180" xmlns="http://www.w3.org/2000/svg" version="1.1">
 <metadata>
  <rdf:RDF xmlns:dc="http://purl.org/dc/elements/1.1/" xmlns:cc="http://creativecommons.org/ns#" xmlns:rdf="http://www.w3.org/1999/02/22-rdf-syntax-ns#">
   <cc:Work>
    <dc:type rdf:resource="http://purl.org/dc/dcmitype/StillImage"/>
    <dc:date>2025-02-16T01:32:42.933881</dc:date>
    <dc:format>image/svg+xml</dc:format>
    <dc:creator>
     <cc:Agent>
      <dc:title>Matplotlib v3.6.3, https://matplotlib.org/</dc:title>
     </cc:Agent>
    </dc:creator>
   </cc:Work>
  </rdf:RDF>
 </metadata>
 <defs>
  <style type="text/css">*{stroke-linejoin: round; stroke-linecap: butt}</style>
 </defs>
 <g id="figure_1">
  <g id="patch_1">
   <path d="M 0 180 
L 180 180 
L 180 0 
L 0 0 
z
" style="fill: #ffffff"/>
  </g>
  <g id="axes_1">
   <g id="patch_2">
    <path d="M 22.5 160.2 
L 162 160.2 
L 162 21.6 
L 22.5 21.6 
z
" style="fill: #ffffff"/>
   </g>
   <g id="PolyCollection_1">
    <defs>
     <path id="mee67e40b51" d="M 50.420839 -26.1 
L 50.400314 -26.1 
L 50.400314 -26.623255 
L 50.400314 -27.146511 
L 50.400314 -27.669766 
L 50.400314 -28.193022 
L 50.400314 -28.716277 
L 50.400314 -29.239532 
L 50.400314 -29.762788 
L 50.400314 -30.286043 
L 50.400314 -30.809299 
L 50.400314 -31.332554 
L 50.400314 -31.85581 
L 50.400314 -32.379065 
L 50.400314 -32.90232 
L 50.400314 -33.425576 
L 50.400314 -33.948831 
L 50.400314 -34.472087 
L 50.400314 -34.995342 
L 50.400314 -35.518597 
L 50.400314 -36.041853 
L 50.400314 -36.565108 
L 50.400314 -37.088364 
L 50.400314 -37.611619 
L 50.400314 -38.134875 
L 50.400314 -38.65813 
L 50.400314 -39.181385 
L 50.400314 -39.704641 
L 50.400314 -40.227896 
L 50.400314 -40.751152 
L 50.400314 -41.274407 
L 50.400314 -41.797662 
L 50.400314 -42.320918 
L 50.400314 -42.844173 
L 50.400314 -43.367429 
L 50.400314 -43.890684 
L 50.400314 -44.413939 
L 50.400314 -44.937195 
L 50.400314 -45.46045 
L 50.400314 -45.983706 
L 50.400314 -46.506961 
L 50.400314 -47.030217 
L 50.400314 -47.553472 
L 50.400314 -48.076727 
L 50.400314 -48.599983 
L 50.400314 -49.123238 
L 50.400314 -49.646494 
L 50.400314 -50.169749 
L 50.400314 -50.693004 
L 50.400314 -51.21626 
L 50.400314 -51.739515 
L 50.400314 -52.262771 
L 50.400314 -52.786026 
L 50.400314 -53.309282 
L 50.400314 -53.832537 
L 50.400314 -54.355792 
L 50.400314 -54.879048 
L 50.400314 -55.402303 
L 50.400314 -55.925559 
L 50.400314 -56.448814 
L 50.400314 -56.972069 
L 50.400314 -57.495325 
L 50.400314 -58.01858 
L 50.400314 -58.541836 
L 50.400314 -59.065091 
L 50.400314 -59.588346 
L 50.400314 -60.111602 
L 50.400314 -60.634857 
L 50.400314 -61.158113 
L 50.400314 -61.681368 
L 50.400314 -62.204624 
L 50.400314 -62.727879 
L 50.400314 -63.251134 
L 50.400314 -63.77439 
L 50.400314 -64.297645 
L 50.400314 -64.820901 
L 50.400314 -65.344156 
L 50.400314 -65.867411 
L 50.400314 -66.390667 
L 50.400314 -66.913922 
L 50.400314 -67.437178 
L 50.400314 -67.960433 
L 50.400314 -68.483689 
L 50.400314 -69.006944 
L 50.400314 -69.530199 
L 50.400314 -70.053455 
L 50.400314 -70.57671 
L 50.400314 -71.099966 
L 50.400314 -71.623221 
L 50.400314 -72.146476 
L 50.400314 -72.669732 
L 50.400314 -73.192987 
L 50.400314 -73.716243 
L 50.400314 -74.239498 
L 50.400314 -74.762753 
L 50.400314 -75.286009 
L 50.400314 -75.809264 
L 50.400314 -76.33252 
L 50.400314 -76.855775 
L 50.400314 -77.379031 
L 50.400314 -77.902286 
L 50.422033 -77.902286 
L 50.422033 -77.902286 
L 50.425987 -77.379031 
L 50.428786 -76.855775 
L 50.430794 -76.33252 
L 50.432757 -75.809264 
L 50.435625 -75.286009 
L 50.440475 -74.762753 
L 50.448501 -74.239498 
L 50.461034 -73.716243 
L 50.479561 -73.192987 
L 50.505591 -72.669732 
L 50.540085 -72.146476 
L 50.58244 -71.623221 
L 50.629706 -71.099966 
L 50.677149 -70.57671 
L 50.720663 -70.053455 
L 50.760052 -69.530199 
L 50.801035 -69.006944 
L 50.853988 -68.483689 
L 50.929264 -67.960433 
L 51.031413 -67.437178 
L 51.156155 -66.913922 
L 51.292598 -66.390667 
L 51.429283 -65.867411 
L 51.559866 -65.344156 
L 51.685329 -64.820901 
L 51.812968 -64.297645 
L 51.953755 -63.77439 
L 52.118807 -63.251134 
L 52.315497 -62.727879 
L 52.544847 -62.204624 
L 52.802173 -61.681368 
L 53.080772 -61.158113 
L 53.37575 -60.634857 
L 53.684515 -60.111602 
L 54.003163 -59.588346 
L 54.322304 -59.065091 
L 54.62784 -58.541836 
L 54.908585 -58.01858 
L 55.165496 -57.495325 
L 55.413872 -56.972069 
L 55.674922 -56.448814 
L 55.962339 -55.925559 
L 56.273543 -55.402303 
L 56.590223 -54.879048 
L 56.88498 -54.355792 
L 57.128546 -53.832537 
L 57.296169 -53.309282 
L 57.375 -52.786026 
L 57.37131 -52.262771 
L 57.311424 -51.739515 
L 57.231908 -51.21626 
L 57.162994 -50.693004 
L 57.115104 -50.169749 
L 57.075699 -49.646494 
L 57.016944 -49.123238 
L 56.910186 -48.599983 
L 56.741019 -48.076727 
L 56.517143 -47.553472 
L 56.262928 -47.030217 
L 56.003235 -46.506961 
L 55.748744 -45.983706 
L 55.494378 -45.46045 
L 55.229859 -44.937195 
L 54.950623 -44.413939 
L 54.660129 -43.890684 
L 54.365342 -43.367429 
L 54.072488 -42.844173 
L 53.78628 -42.320918 
L 53.510556 -41.797662 
L 53.248027 -41.274407 
L 52.999518 -40.751152 
L 52.763936 -40.227896 
L 52.538979 -39.704641 
L 52.322014 -39.181385 
L 52.11113 -38.65813 
L 51.9063 -38.134875 
L 51.709899 -37.611619 
L 51.526026 -37.088364 
L 51.359239 -36.565108 
L 51.213578 -36.041853 
L 51.091896 -35.518597 
L 50.995032 -34.995342 
L 50.920892 -34.472087 
L 50.864245 -33.948831 
L 50.817869 -33.425576 
L 50.774763 -32.90232 
L 50.730283 -32.379065 
L 50.683083 -31.85581 
L 50.634643 -31.332554 
L 50.587954 -30.809299 
L 50.546079 -30.286043 
L 50.511038 -29.762788 
L 50.483375 -29.239532 
L 50.462504 -28.716277 
L 50.447397 -28.193022 
L 50.436977 -27.669766 
L 50.430039 -27.146511 
L 50.425132 -26.623255 
L 50.420839 -26.1 
z
"/>
    </defs>
    <g clip-path="url(#p14e0b20eee)">
     <use xlink:href="#mee67e40b51" x="0" y="180" style="fill: #ff4500; fill-opacity: 0.4"/>
    </g>
   </g>
   <g id="PolyCollection_2">
    <defs>
     <path id="m52abc234aa" d="M 78.309215 -80.738232 
L 78.30013 -80.738232 
L 78.30013 -81.288913 
L 78.30013 -81.839594 
L 78.30013 -82.390275 
L 78.30013 -82.940957 
L 78.30013 -83.491638 
L 78.30013 -84.042319 
L 78.30013 -84.593 
L 78.30013 -85.143681 
L 78.30013 -85.694362 
L 78.30013 -86.245043 
L 78.30013 -86.795724 
L 78.30013 -87.346405 
L 78.30013 -87.897086 
L 78.30013 -88.447767 
L 78.30013 -88.998448 
L 78.30013 -89.549129 
L 78.30013 -90.09981 
L 78.30013 -90.650491 
L 78.30013 -91.201172 
L 78.30013 -91.751853 
L 78.30013 -92.302535 
L 78.30013 -92.853216 
L 78.30013 -93.403897 
L 78.30013 -93.954578 
L 78.30013 -94.505259 
L 78.30013 -95.05594 
L 78.30013 -95.606621 
L 78.30013 -96.157302 
L 78.30013 -96.707983 
L 78.30013 -97.258664 
L 78.30013 -97.809345 
L 78.30013 -98.360026 
L 78.30013 -98.910707 
L 78.30013 -99.461388 
L 78.30013 -100.012069 
L 78.30013 -100.56275 
L 78.30013 -101.113432 
L 78.30013 -101.664113 
L 78.30013 -102.214794 
L 78.30013 -102.765475 
L 78.30013 -103.316156 
L 78.30013 -103.866837 
L 78.30013 -104.417518 
L 78.30013 -104.968199 
L 78.30013 -105.51888 
L 78.30013 -106.069561 
L 78.30013 -106.620242 
L 78.30013 -107.170923 
L 78.30013 -107.721604 
L 78.30013 -108.272285 
L 78.30013 -108.822966 
L 78.30013 -109.373647 
L 78.30013 -109.924328 
L 78.30013 -110.47501 
L 78.30013 -111.025691 
L 78.30013 -111.576372 
L 78.30013 -112.127053 
L 78.30013 -112.677734 
L 78.30013 -113.228415 
L 78.30013 -113.779096 
L 78.30013 -114.329777 
L 78.30013 -114.880458 
L 78.30013 -115.431139 
L 78.30013 -115.98182 
L 78.30013 -116.532501 
L 78.30013 -117.083182 
L 78.30013 -117.633863 
L 78.30013 -118.184544 
L 78.30013 -118.735225 
L 78.30013 -119.285907 
L 78.30013 -119.836588 
L 78.30013 -120.387269 
L 78.30013 -120.93795 
L 78.30013 -121.488631 
L 78.30013 -122.039312 
L 78.30013 -122.589993 
L 78.30013 -123.140674 
L 78.30013 -123.691355 
L 78.30013 -124.242036 
L 78.30013 -124.792717 
L 78.30013 -125.343398 
L 78.30013 -125.894079 
L 78.30013 -126.44476 
L 78.30013 -126.995441 
L 78.30013 -127.546122 
L 78.30013 -128.096803 
L 78.30013 -128.647485 
L 78.30013 -129.198166 
L 78.30013 -129.748847 
L 78.30013 -130.299528 
L 78.30013 -130.850209 
L 78.30013 -131.40089 
L 78.30013 -131.951571 
L 78.30013 -132.502252 
L 78.30013 -133.052933 
L 78.30013 -133.603614 
L 78.30013 -134.154295 
L 78.30013 -134.704976 
L 78.30013 -135.255657 
L 78.307896 -135.255657 
L 78.307896 -135.255657 
L 78.307242 -134.704976 
L 78.305664 -134.154295 
L 78.304156 -133.603614 
L 78.303878 -133.052933 
L 78.305868 -132.502252 
L 78.31083 -131.951571 
L 78.318742 -131.40089 
L 78.328566 -130.850209 
L 78.338766 -130.299528 
L 78.348665 -129.748847 
L 78.35943 -129.198166 
L 78.373548 -128.647485 
L 78.393372 -128.096803 
L 78.420106 -127.546122 
L 78.453497 -126.995441 
L 78.491654 -126.44476 
L 78.531545 -125.894079 
L 78.57131 -125.343398 
L 78.613019 -124.792717 
L 78.662225 -124.242036 
L 78.72355 -123.691355 
L 78.797042 -123.140674 
L 78.879916 -122.589993 
L 78.971419 -122.039312 
L 79.074673 -121.488631 
L 79.193821 -120.93795 
L 79.330607 -120.387269 
L 79.484237 -119.836588 
L 79.654547 -119.285907 
L 79.846065 -118.735225 
L 80.069245 -118.184544 
L 80.335632 -117.633863 
L 80.648902 -117.083182 
L 80.999616 -116.532501 
L 81.369413 -115.98182 
L 81.74121 -115.431139 
L 82.106611 -114.880458 
L 82.464634 -114.329777 
L 82.812829 -113.779096 
L 83.139197 -113.228415 
L 83.42572 -112.677734 
L 83.664055 -112.127053 
L 83.867545 -111.576372 
L 84.063477 -111.025691 
L 84.270964 -110.47501 
L 84.486576 -109.924328 
L 84.689956 -109.373647 
L 84.860295 -108.822966 
L 84.988661 -108.272285 
L 85.080548 -107.721604 
L 85.150135 -107.170923 
L 85.209141 -106.620242 
L 85.256296 -106.069561 
L 85.275 -105.51888 
L 85.240126 -104.968199 
L 85.128213 -104.417518 
L 84.927894 -103.866837 
L 84.649934 -103.316156 
L 84.329616 -102.765475 
L 84.012093 -102.214794 
L 83.726747 -101.664113 
L 83.472185 -101.113432 
L 83.225113 -100.56275 
L 82.962481 -100.012069 
L 82.676613 -99.461388 
L 82.375212 -98.910707 
L 82.072795 -98.360026 
L 81.782174 -97.809345 
L 81.509352 -97.258664 
L 81.252128 -96.707983 
L 81.001875 -96.157302 
L 80.747199 -95.606621 
L 80.478488 -95.05594 
L 80.193167 -94.505259 
L 79.900038 -93.954578 
L 79.618481 -93.403897 
L 79.370003 -92.853216 
L 79.166924 -92.302535 
L 79.007677 -91.751853 
L 78.882281 -91.201172 
L 78.781366 -90.650491 
L 78.70025 -90.09981 
L 78.636774 -89.549129 
L 78.58776 -88.998448 
L 78.548264 -88.447767 
L 78.513523 -87.897086 
L 78.480911 -87.346405 
L 78.45012 -86.795724 
L 78.422061 -86.245043 
L 78.397682 -85.694362 
L 78.377275 -85.143681 
L 78.360321 -84.593 
L 78.345949 -84.042319 
L 78.333669 -83.491638 
L 78.323717 -82.940957 
L 78.316643 -82.390275 
L 78.312511 -81.839594 
L 78.310487 -81.288913 
L 78.309215 -80.738232 
z
"/>
    </defs>
    <g clip-path="url(#p14e0b20eee)">
     <use xlink:href="#m52abc234aa" x="0" y="180" style="fill: #2e8b57; fill-opacity: 0.4"/>
    </g>
   </g>
   <g id="PolyCollection_3">
    <defs>
     <path id="md6f445aa10" d="M 106.22384 -41.418775 
L 106.200275 -41.418775 
L 106.200275 -41.928898 
L 106.200275 -42.439021 
L 106.200275 -42.949144 
L 106.200275 -43.459266 
L 106.200275 -43.969389 
L 106.200275 -44.479512 
L 106.200275 -44.989635 
L 106.200275 -45.499758 
L 106.200275 -46.00988 
L 106.200275 -46.520003 
L 106.200275 -47.030126 
L 106.200275 -47.540249 
L 106.200275 -48.050372 
L 106.200275 -48.560495 
L 106.200275 -49.070617 
L 106.200275 -49.58074 
L 106.200275 -50.090863 
L 106.200275 -50.600986 
L 106.200275 -51.111109 
L 106.200275 -51.621231 
L 106.200275 -52.131354 
L 106.200275 -52.641477 
L 106.200275 -53.1516 
L 106.200275 -53.661723 
L 106.200275 -54.171845 
L 106.200275 -54.681968 
L 106.200275 -55.192091 
L 106.200275 -55.702214 
L 106.200275 -56.212337 
L 106.200275 -56.722459 
L 106.200275 -57.232582 
L 106.200275 -57.742705 
L 106.200275 -58.252828 
L 106.200275 -58.762951 
L 106.200275 -59.273073 
L 106.200275 -59.783196 
L 106.200275 -60.293319 
L 106.200275 -60.803442 
L 106.200275 -61.313565 
L 106.200275 -61.823688 
L 106.200275 -62.33381 
L 106.200275 -62.843933 
L 106.200275 -63.354056 
L 106.200275 -63.864179 
L 106.200275 -64.374302 
L 106.200275 -64.884424 
L 106.200275 -65.394547 
L 106.200275 -65.90467 
L 106.200275 -66.414793 
L 106.200275 -66.924916 
L 106.200275 -67.435038 
L 106.200275 -67.945161 
L 106.200275 -68.455284 
L 106.200275 -68.965407 
L 106.200275 -69.47553 
L 106.200275 -69.985652 
L 106.200275 -70.495775 
L 106.200275 -71.005898 
L 106.200275 -71.516021 
L 106.200275 -72.026144 
L 106.200275 -72.536266 
L 106.200275 -73.046389 
L 106.200275 -73.556512 
L 106.200275 -74.066635 
L 106.200275 -74.576758 
L 106.200275 -75.086881 
L 106.200275 -75.597003 
L 106.200275 -76.107126 
L 106.200275 -76.617249 
L 106.200275 -77.127372 
L 106.200275 -77.637495 
L 106.200275 -78.147617 
L 106.200275 -78.65774 
L 106.200275 -79.167863 
L 106.200275 -79.677986 
L 106.200275 -80.188109 
L 106.200275 -80.698231 
L 106.200275 -81.208354 
L 106.200275 -81.718477 
L 106.200275 -82.2286 
L 106.200275 -82.738723 
L 106.200275 -83.248845 
L 106.200275 -83.758968 
L 106.200275 -84.269091 
L 106.200275 -84.779214 
L 106.200275 -85.289337 
L 106.200275 -85.799459 
L 106.200275 -86.309582 
L 106.200275 -86.819705 
L 106.200275 -87.329828 
L 106.200275 -87.839951 
L 106.200275 -88.350074 
L 106.200275 -88.860196 
L 106.200275 -89.370319 
L 106.200275 -89.880442 
L 106.200275 -90.390565 
L 106.200275 -90.900688 
L 106.200275 -91.41081 
L 106.200275 -91.920933 
L 106.20812 -91.920933 
L 106.20812 -91.920933 
L 106.208569 -91.41081 
L 106.209408 -90.900688 
L 106.212066 -90.390565 
L 106.217715 -89.880442 
L 106.226501 -89.370319 
L 106.237414 -88.860196 
L 106.249107 -88.350074 
L 106.261256 -87.839951 
L 106.275344 -87.329828 
L 106.29395 -86.819705 
L 106.318919 -86.309582 
L 106.349849 -85.799459 
L 106.384122 -85.289337 
L 106.418342 -84.779214 
L 106.450004 -84.269091 
L 106.478454 -83.758968 
L 106.50507 -83.248845 
L 106.533138 -82.738723 
L 106.567597 -82.2286 
L 106.614535 -81.718477 
L 106.680292 -81.208354 
L 106.770051 -80.698231 
L 106.885957 -80.188109 
L 107.02557 -79.677986 
L 107.182443 -79.167863 
L 107.350026 -78.65774 
L 107.527012 -78.147617 
L 107.71932 -77.637495 
L 107.935573 -77.127372 
L 108.178917 -76.617249 
L 108.442144 -76.107126 
L 108.71025 -75.597003 
L 108.968139 -75.086881 
L 109.207705 -74.576758 
L 109.430202 -74.066635 
L 109.643497 -73.556512 
L 109.856757 -73.046389 
L 110.076629 -72.536266 
L 110.307991 -72.026144 
L 110.557762 -71.516021 
L 110.835551 -71.005898 
L 111.146611 -70.495775 
L 111.481843 -69.985652 
L 111.816079 -69.47553 
L 112.119261 -68.965407 
L 112.371645 -68.455284 
L 112.570551 -67.945161 
L 112.725945 -67.435038 
L 112.851718 -66.924916 
L 112.959005 -66.414793 
L 113.052554 -65.90467 
L 113.128754 -65.394547 
L 113.175 -64.884424 
L 113.171744 -64.374302 
L 113.099491 -63.864179 
L 112.950373 -63.354056 
L 112.737224 -62.843933 
L 112.48996 -62.33381 
L 112.238176 -61.823688 
L 111.993532 -61.313565 
L 111.747721 -60.803442 
L 111.486566 -60.293319 
L 111.205435 -59.783196 
L 110.912469 -59.273073 
L 110.619784 -58.762951 
L 110.332597 -58.252828 
L 110.045298 -57.742705 
L 109.746638 -57.232582 
L 109.429598 -56.722459 
L 109.09851 -56.212337 
L 108.768163 -55.702214 
L 108.455926 -55.192091 
L 108.173409 -54.681968 
L 107.923867 -54.171845 
L 107.705537 -53.661723 
L 107.515811 -53.1516 
L 107.352458 -52.641477 
L 107.21308 -52.131354 
L 107.095158 -51.621231 
L 106.996142 -51.111109 
L 106.912102 -50.600986 
L 106.836479 -50.090863 
L 106.761956 -49.58074 
L 106.685122 -49.070617 
L 106.609436 -48.560495 
L 106.542806 -48.050372 
L 106.491413 -47.540249 
L 106.455139 -47.030126 
L 106.428208 -46.520003 
L 106.403569 -46.00988 
L 106.376917 -45.499758 
L 106.347827 -44.989635 
L 106.31855 -44.479512 
L 106.292098 -43.969389 
L 106.270604 -43.459266 
L 106.254411 -42.949144 
L 106.242268 -42.439021 
L 106.232444 -41.928898 
L 106.22384 -41.418775 
z
"/>
    </defs>
    <g clip-path="url(#p14e0b20eee)">
     <use xlink:href="#md6f445aa10" x="0" y="180" style="fill: #ff4500; fill-opacity: 0.4"/>
    </g>
   </g>
   <g id="PolyCollection_4">
    <defs>
     <path id="m96b3bd3fc8" d="M 134.142915 -61.607828 
L 134.10046 -61.607828 
L 134.10046 -62.52189 
L 134.10046 -63.435952 
L 134.10046 -64.350015 
L 134.10046 -65.264077 
L 134.10046 -66.178139 
L 134.10046 -67.092202 
L 134.10046 -68.006264 
L 134.10046 -68.920326 
L 134.10046 -69.834389 
L 134.10046 -70.748451 
L 134.10046 -71.662514 
L 134.10046 -72.576576 
L 134.10046 -73.490638 
L 134.10046 -74.404701 
L 134.10046 -75.318763 
L 134.10046 -76.232825 
L 134.10046 -77.146888 
L 134.10046 -78.06095 
L 134.10046 -78.975012 
L 134.10046 -79.889075 
L 134.10046 -80.803137 
L 134.10046 -81.717199 
L 134.10046 -82.631262 
L 134.10046 -83.545324 
L 134.10046 -84.459386 
L 134.10046 -85.373449 
L 134.10046 -86.287511 
L 134.10046 -87.201573 
L 134.10046 -88.115636 
L 134.10046 -89.029698 
L 134.10046 -89.94376 
L 134.10046 -90.857823 
L 134.10046 -91.771885 
L 134.10046 -92.685947 
L 134.10046 -93.60001 
L 134.10046 -94.514072 
L 134.10046 -95.428135 
L 134.10046 -96.342197 
L 134.10046 -97.256259 
L 134.10046 -98.170322 
L 134.10046 -99.084384 
L 134.10046 -99.998446 
L 134.10046 -100.912509 
L 134.10046 -101.826571 
L 134.10046 -102.740633 
L 134.10046 -103.654696 
L 134.10046 -104.568758 
L 134.10046 -105.48282 
L 134.10046 -106.396883 
L 134.10046 -107.310945 
L 134.10046 -108.225007 
L 134.10046 -109.13907 
L 134.10046 -110.053132 
L 134.10046 -110.967194 
L 134.10046 -111.881257 
L 134.10046 -112.795319 
L 134.10046 -113.709381 
L 134.10046 -114.623444 
L 134.10046 -115.537506 
L 134.10046 -116.451568 
L 134.10046 -117.365631 
L 134.10046 -118.279693 
L 134.10046 -119.193756 
L 134.10046 -120.107818 
L 134.10046 -121.02188 
L 134.10046 -121.935943 
L 134.10046 -122.850005 
L 134.10046 -123.764067 
L 134.10046 -124.67813 
L 134.10046 -125.592192 
L 134.10046 -126.506254 
L 134.10046 -127.420317 
L 134.10046 -128.334379 
L 134.10046 -129.248441 
L 134.10046 -130.162504 
L 134.10046 -131.076566 
L 134.10046 -131.990628 
L 134.10046 -132.904691 
L 134.10046 -133.818753 
L 134.10046 -134.732815 
L 134.10046 -135.646878 
L 134.10046 -136.56094 
L 134.10046 -137.475002 
L 134.10046 -138.389065 
L 134.10046 -139.303127 
L 134.10046 -140.217189 
L 134.10046 -141.131252 
L 134.10046 -142.045314 
L 134.10046 -142.959377 
L 134.10046 -143.873439 
L 134.10046 -144.787501 
L 134.10046 -145.701564 
L 134.10046 -146.615626 
L 134.10046 -147.529688 
L 134.10046 -148.443751 
L 134.10046 -149.357813 
L 134.10046 -150.271875 
L 134.10046 -151.185938 
L 134.10046 -152.1 
L 134.107591 -152.1 
L 134.107591 -152.1 
L 134.106865 -151.185938 
L 134.105077 -150.271875 
L 134.103071 -149.357813 
L 134.101521 -148.443751 
L 134.100623 -147.529688 
L 134.10046 -146.615626 
L 134.10046 -145.701564 
L 134.100658 -144.787501 
L 134.1019 -143.873439 
L 134.104684 -142.959377 
L 134.109758 -142.045314 
L 134.117298 -141.131252 
L 134.126344 -140.217189 
L 134.134959 -139.303127 
L 134.141369 -138.389065 
L 134.145433 -137.475002 
L 134.149114 -136.56094 
L 134.155078 -135.646878 
L 134.164182 -134.732815 
L 134.174244 -133.818753 
L 134.181916 -132.904691 
L 134.186337 -131.990628 
L 134.191034 -131.076566 
L 134.202125 -130.162504 
L 134.224468 -129.248441 
L 134.259171 -128.334379 
L 134.304545 -127.420317 
L 134.359218 -126.506254 
L 134.42376 -125.592192 
L 134.499232 -124.67813 
L 134.585684 -123.764067 
L 134.683882 -122.850005 
L 134.798115 -121.935943 
L 134.934573 -121.02188 
L 135.094689 -120.107818 
L 135.270266 -119.193756 
L 135.446464 -118.279693 
L 135.61004 -117.365631 
L 135.756172 -116.451568 
L 135.892158 -115.537506 
L 136.038979 -114.623444 
L 136.227334 -113.709381 
L 136.484668 -112.795319 
L 136.819265 -111.881257 
L 137.213783 -110.967194 
L 137.633727 -110.053132 
L 138.044273 -109.13907 
L 138.423634 -108.225007 
L 138.765003 -107.310945 
L 139.068199 -106.396883 
L 139.331498 -105.48282 
L 139.553861 -104.568758 
L 139.744214 -103.654696 
L 139.922697 -102.740633 
L 140.107093 -101.826571 
L 140.298184 -100.912509 
L 140.482191 -99.998446 
L 140.64749 -99.084384 
L 140.793971 -98.170322 
L 140.923509 -97.256259 
L 141.025227 -96.342197 
L 141.075 -95.428135 
L 141.049505 -94.514072 
L 140.938754 -93.60001 
L 140.74793 -92.685947 
L 140.494266 -91.771885 
L 140.202764 -90.857823 
L 139.89561 -89.94376 
L 139.578527 -89.029698 
L 139.240263 -88.115636 
L 138.870087 -87.201573 
L 138.473995 -86.287511 
L 138.070454 -85.373449 
L 137.673295 -84.459386 
L 137.285113 -83.545324 
L 136.908003 -82.631262 
L 136.555137 -81.717199 
L 136.247918 -80.803137 
L 136.0021 -79.889075 
L 135.81586 -78.975012 
L 135.667895 -78.06095 
L 135.526878 -77.146888 
L 135.368354 -76.232825 
L 135.188664 -75.318763 
L 135.005123 -74.404701 
L 134.842249 -73.490638 
L 134.714941 -72.576576 
L 134.620556 -71.662514 
L 134.543997 -70.748451 
L 134.470235 -69.834389 
L 134.393932 -68.920326 
L 134.320067 -68.006264 
L 134.257698 -67.092202 
L 134.213023 -66.178139 
L 134.186051 -65.264077 
L 134.171579 -64.350015 
L 134.162641 -63.435952 
L 134.153833 -62.52189 
L 134.142915 -61.607828 
z
"/>
    </defs>
    <g clip-path="url(#p14e0b20eee)">
     <use xlink:href="#m96b3bd3fc8" x="0" y="180" style="fill: #2e8b57; fill-opacity: 0.4"/>
    </g>
   </g>
   <g id="PolyCollection_5">
    <path d="M 22.5 77.86858 
L 22.5 94.19108 
L 22.779 94.19108 
L 23.058 94.19108 
L 23.337 94.19108 
L 23.616 94.19108 
L 23.895 94.19108 
L 24.174 94.19108 
L 24.453 94.19108 
L 24.732 94.19108 
L 25.011 94.19108 
L 25.29 94.19108 
L 25.569 94.19108 
L 25.848 94.19108 
L 26.127 94.19108 
L 26.406 94.19108 
L 26.685 94.19108 
L 26.964 94.19108 
L 27.243 94.19108 
L 27.522 94.19108 
L 27.801 94.19108 
L 28.08 94.19108 
L 28.359 94.19108 
L 28.638 94.19108 
L 28.917 94.19108 
L 29.196 94.19108 
L 29.475 94.19108 
L 29.754 94.19108 
L 30.033 94.19108 
L 30.312 94.19108 
L 30.591 94.19108 
L 30.87 94.19108 
L 31.149 94.19108 
L 31.428 94.19108 
L 31.707 94.19108 
L 31.986 94.19108 
L 32.265 94.19108 
L 32.544 94.19108 
L 32.823 94.19108 
L 33.102 94.19108 
L 33.381 94.19108 
L 33.66 94.19108 
L 33.939 94.19108 
L 34.218 94.19108 
L 34.497 94.19108 
L 34.776 94.19108 
L 35.055 94.19108 
L 35.334 94.19108 
L 35.613 94.19108 
L 35.892 94.19108 
L 36.171 94.19108 
L 36.45 94.19108 
L 36.729 94.19108 
L 37.008 94.19108 
L 37.287 94.19108 
L 37.566 94.19108 
L 37.845 94.19108 
L 38.124 94.19108 
L 38.403 94.19108 
L 38.682 94.19108 
L 38.961 94.19108 
L 39.24 94.19108 
L 39.519 94.19108 
L 39.798 94.19108 
L 40.077 94.19108 
L 40.356 94.19108 
L 40.635 94.19108 
L 40.914 94.19108 
L 41.193 94.19108 
L 41.472 94.19108 
L 41.751 94.19108 
L 42.03 94.19108 
L 42.309 94.19108 
L 42.588 94.19108 
L 42.867 94.19108 
L 43.146 94.19108 
L 43.425 94.19108 
L 43.704 94.19108 
L 43.983 94.19108 
L 44.262 94.19108 
L 44.541 94.19108 
L 44.82 94.19108 
L 45.099 94.19108 
L 45.378 94.19108 
L 45.657 94.19108 
L 45.936 94.19108 
L 46.215 94.19108 
L 46.494 94.19108 
L 46.773 94.19108 
L 47.052 94.19108 
L 47.331 94.19108 
L 47.61 94.19108 
L 47.889 94.19108 
L 48.168 94.19108 
L 48.447 94.19108 
L 48.726 94.19108 
L 49.005 94.19108 
L 49.284 94.19108 
L 49.563 94.19108 
L 49.842 94.19108 
L 50.121 94.19108 
L 50.4 94.19108 
L 50.679 94.19108 
L 50.958 94.19108 
L 51.237 94.19108 
L 51.516 94.19108 
L 51.795 94.19108 
L 52.074 94.19108 
L 52.353 94.19108 
L 52.632 94.19108 
L 52.911 94.19108 
L 53.19 94.19108 
L 53.469 94.19108 
L 53.748 94.19108 
L 54.027 94.19108 
L 54.306 94.19108 
L 54.585 94.19108 
L 54.864 94.19108 
L 55.143 94.19108 
L 55.422 94.19108 
L 55.701 94.19108 
L 55.98 94.19108 
L 56.259 94.19108 
L 56.538 94.19108 
L 56.817 94.19108 
L 57.096 94.19108 
L 57.375 94.19108 
L 57.654 94.19108 
L 57.933 94.19108 
L 58.212 94.19108 
L 58.491 94.19108 
L 58.77 94.19108 
L 59.049 94.19108 
L 59.328 94.19108 
L 59.607 94.19108 
L 59.886 94.19108 
L 60.165 94.19108 
L 60.444 94.19108 
L 60.723 94.19108 
L 61.002 94.19108 
L 61.281 94.19108 
L 61.56 94.19108 
L 61.839 94.19108 
L 62.118 94.19108 
L 62.397 94.19108 
L 62.676 94.19108 
L 62.955 94.19108 
L 63.234 94.19108 
L 63.513 94.19108 
L 63.792 94.19108 
L 64.071 94.19108 
L 64.35 94.19108 
L 64.629 94.19108 
L 64.908 94.19108 
L 65.187 94.19108 
L 65.466 94.19108 
L 65.745 94.19108 
L 66.024 94.19108 
L 66.303 94.19108 
L 66.582 94.19108 
L 66.861 94.19108 
L 67.14 94.19108 
L 67.419 94.19108 
L 67.698 94.19108 
L 67.977 94.19108 
L 68.256 94.19108 
L 68.535 94.19108 
L 68.814 94.19108 
L 69.093 94.19108 
L 69.372 94.19108 
L 69.651 94.19108 
L 69.93 94.19108 
L 70.209 94.19108 
L 70.488 94.19108 
L 70.767 94.19108 
L 71.046 94.19108 
L 71.325 94.19108 
L 71.604 94.19108 
L 71.883 94.19108 
L 72.162 94.19108 
L 72.441 94.19108 
L 72.72 94.19108 
L 72.999 94.19108 
L 73.278 94.19108 
L 73.557 94.19108 
L 73.836 94.19108 
L 74.115 94.19108 
L 74.394 94.19108 
L 74.673 94.19108 
L 74.952 94.19108 
L 75.231 94.19108 
L 75.51 94.19108 
L 75.789 94.19108 
L 76.068 94.19108 
L 76.347 94.19108 
L 76.626 94.19108 
L 76.905 94.19108 
L 77.184 94.19108 
L 77.463 94.19108 
L 77.742 94.19108 
L 78.021 94.19108 
L 78.3 94.19108 
L 78.579 94.19108 
L 78.858 94.19108 
L 79.137 94.19108 
L 79.416 94.19108 
L 79.695 94.19108 
L 79.974 94.19108 
L 80.253 94.19108 
L 80.532 94.19108 
L 80.811 94.19108 
L 81.09 94.19108 
L 81.369 94.19108 
L 81.648 94.19108 
L 81.927 94.19108 
L 82.206 94.19108 
L 82.485 94.19108 
L 82.764 94.19108 
L 83.043 94.19108 
L 83.322 94.19108 
L 83.601 94.19108 
L 83.88 94.19108 
L 84.159 94.19108 
L 84.438 94.19108 
L 84.717 94.19108 
L 84.996 94.19108 
L 85.275 94.19108 
L 85.554 94.19108 
L 85.833 94.19108 
L 86.112 94.19108 
L 86.391 94.19108 
L 86.67 94.19108 
L 86.949 94.19108 
L 87.228 94.19108 
L 87.507 94.19108 
L 87.786 94.19108 
L 88.065 94.19108 
L 88.344 94.19108 
L 88.623 94.19108 
L 88.902 94.19108 
L 89.181 94.19108 
L 89.46 94.19108 
L 89.739 94.19108 
L 90.018 94.19108 
L 90.297 94.19108 
L 90.576 94.19108 
L 90.855 94.19108 
L 91.134 94.19108 
L 91.413 94.19108 
L 91.692 94.19108 
L 91.971 94.19108 
L 92.25 94.19108 
L 92.529 94.19108 
L 92.808 94.19108 
L 93.087 94.19108 
L 93.366 94.19108 
L 93.645 94.19108 
L 93.924 94.19108 
L 94.203 94.19108 
L 94.482 94.19108 
L 94.761 94.19108 
L 95.04 94.19108 
L 95.319 94.19108 
L 95.598 94.19108 
L 95.877 94.19108 
L 96.156 94.19108 
L 96.435 94.19108 
L 96.714 94.19108 
L 96.993 94.19108 
L 97.272 94.19108 
L 97.551 94.19108 
L 97.83 94.19108 
L 98.109 94.19108 
L 98.388 94.19108 
L 98.667 94.19108 
L 98.946 94.19108 
L 99.225 94.19108 
L 99.504 94.19108 
L 99.783 94.19108 
L 100.062 94.19108 
L 100.341 94.19108 
L 100.62 94.19108 
L 100.899 94.19108 
L 101.178 94.19108 
L 101.457 94.19108 
L 101.736 94.19108 
L 102.015 94.19108 
L 102.294 94.19108 
L 102.573 94.19108 
L 102.852 94.19108 
L 103.131 94.19108 
L 103.41 94.19108 
L 103.689 94.19108 
L 103.968 94.19108 
L 104.247 94.19108 
L 104.526 94.19108 
L 104.805 94.19108 
L 105.084 94.19108 
L 105.363 94.19108 
L 105.642 94.19108 
L 105.921 94.19108 
L 106.2 94.19108 
L 106.479 94.19108 
L 106.758 94.19108 
L 107.037 94.19108 
L 107.316 94.19108 
L 107.595 94.19108 
L 107.874 94.19108 
L 108.153 94.19108 
L 108.432 94.19108 
L 108.711 94.19108 
L 108.99 94.19108 
L 109.269 94.19108 
L 109.548 94.19108 
L 109.827 94.19108 
L 110.106 94.19108 
L 110.385 94.19108 
L 110.664 94.19108 
L 110.943 94.19108 
L 111.222 94.19108 
L 111.501 94.19108 
L 111.78 94.19108 
L 112.059 94.19108 
L 112.338 94.19108 
L 112.617 94.19108 
L 112.896 94.19108 
L 113.175 94.19108 
L 113.454 94.19108 
L 113.733 94.19108 
L 114.012 94.19108 
L 114.291 94.19108 
L 114.57 94.19108 
L 114.849 94.19108 
L 115.128 94.19108 
L 115.407 94.19108 
L 115.686 94.19108 
L 115.965 94.19108 
L 116.244 94.19108 
L 116.523 94.19108 
L 116.802 94.19108 
L 117.081 94.19108 
L 117.36 94.19108 
L 117.639 94.19108 
L 117.918 94.19108 
L 118.197 94.19108 
L 118.476 94.19108 
L 118.755 94.19108 
L 119.034 94.19108 
L 119.313 94.19108 
L 119.592 94.19108 
L 119.871 94.19108 
L 120.15 94.19108 
L 120.429 94.19108 
L 120.708 94.19108 
L 120.987 94.19108 
L 121.266 94.19108 
L 121.545 94.19108 
L 121.824 94.19108 
L 122.103 94.19108 
L 122.382 94.19108 
L 122.661 94.19108 
L 122.94 94.19108 
L 123.219 94.19108 
L 123.498 94.19108 
L 123.777 94.19108 
L 124.056 94.19108 
L 124.335 94.19108 
L 124.614 94.19108 
L 124.893 94.19108 
L 125.172 94.19108 
L 125.451 94.19108 
L 125.73 94.19108 
L 126.009 94.19108 
L 126.288 94.19108 
L 126.567 94.19108 
L 126.846 94.19108 
L 127.125 94.19108 
L 127.404 94.19108 
L 127.683 94.19108 
L 127.962 94.19108 
L 128.241 94.19108 
L 128.52 94.19108 
L 128.799 94.19108 
L 129.078 94.19108 
L 129.357 94.19108 
L 129.636 94.19108 
L 129.915 94.19108 
L 130.194 94.19108 
L 130.473 94.19108 
L 130.752 94.19108 
L 131.031 94.19108 
L 131.31 94.19108 
L 131.589 94.19108 
L 131.868 94.19108 
L 132.147 94.19108 
L 132.426 94.19108 
L 132.705 94.19108 
L 132.984 94.19108 
L 133.263 94.19108 
L 133.542 94.19108 
L 133.821 94.19108 
L 134.1 94.19108 
L 134.379 94.19108 
L 134.658 94.19108 
L 134.937 94.19108 
L 135.216 94.19108 
L 135.495 94.19108 
L 135.774 94.19108 
L 136.053 94.19108 
L 136.332 94.19108 
L 136.611 94.19108 
L 136.89 94.19108 
L 137.169 94.19108 
L 137.448 94.19108 
L 137.727 94.19108 
L 138.006 94.19108 
L 138.285 94.19108 
L 138.564 94.19108 
L 138.843 94.19108 
L 139.122 94.19108 
L 139.401 94.19108 
L 139.68 94.19108 
L 139.959 94.19108 
L 140.238 94.19108 
L 140.517 94.19108 
L 140.796 94.19108 
L 141.075 94.19108 
L 141.354 94.19108 
L 141.633 94.19108 
L 141.912 94.19108 
L 142.191 94.19108 
L 142.47 94.19108 
L 142.749 94.19108 
L 143.028 94.19108 
L 143.307 94.19108 
L 143.586 94.19108 
L 143.865 94.19108 
L 144.144 94.19108 
L 144.423 94.19108 
L 144.702 94.19108 
L 144.981 94.19108 
L 145.26 94.19108 
L 145.539 94.19108 
L 145.818 94.19108 
L 146.097 94.19108 
L 146.376 94.19108 
L 146.655 94.19108 
L 146.934 94.19108 
L 147.213 94.19108 
L 147.492 94.19108 
L 147.771 94.19108 
L 148.05 94.19108 
L 148.329 94.19108 
L 148.608 94.19108 
L 148.887 94.19108 
L 149.166 94.19108 
L 149.445 94.19108 
L 149.724 94.19108 
L 150.003 94.19108 
L 150.282 94.19108 
L 150.561 94.19108 
L 150.84 94.19108 
L 151.119 94.19108 
L 151.398 94.19108 
L 151.677 94.19108 
L 151.956 94.19108 
L 152.235 94.19108 
L 152.514 94.19108 
L 152.793 94.19108 
L 153.072 94.19108 
L 153.351 94.19108 
L 153.63 94.19108 
L 153.909 94.19108 
L 154.188 94.19108 
L 154.467 94.19108 
L 154.746 94.19108 
L 155.025 94.19108 
L 155.304 94.19108 
L 155.583 94.19108 
L 155.862 94.19108 
L 156.141 94.19108 
L 156.42 94.19108 
L 156.699 94.19108 
L 156.978 94.19108 
L 157.257 94.19108 
L 157.536 94.19108 
L 157.815 94.19108 
L 158.094 94.19108 
L 158.373 94.19108 
L 158.652 94.19108 
L 158.931 94.19108 
L 159.21 94.19108 
L 159.489 94.19108 
L 159.768 94.19108 
L 160.047 94.19108 
L 160.326 94.19108 
L 160.605 94.19108 
L 160.884 94.19108 
L 161.163 94.19108 
L 161.442 94.19108 
L 161.721 94.19108 
L 161.721 77.86858 
L 161.721 77.86858 
L 161.442 77.86858 
L 161.163 77.86858 
L 160.884 77.86858 
L 160.605 77.86858 
L 160.326 77.86858 
L 160.047 77.86858 
L 159.768 77.86858 
L 159.489 77.86858 
L 159.21 77.86858 
L 158.931 77.86858 
L 158.652 77.86858 
L 158.373 77.86858 
L 158.094 77.86858 
L 157.815 77.86858 
L 157.536 77.86858 
L 157.257 77.86858 
L 156.978 77.86858 
L 156.699 77.86858 
L 156.42 77.86858 
L 156.141 77.86858 
L 155.862 77.86858 
L 155.583 77.86858 
L 155.304 77.86858 
L 155.025 77.86858 
L 154.746 77.86858 
L 154.467 77.86858 
L 154.188 77.86858 
L 153.909 77.86858 
L 153.63 77.86858 
L 153.351 77.86858 
L 153.072 77.86858 
L 152.793 77.86858 
L 152.514 77.86858 
L 152.235 77.86858 
L 151.956 77.86858 
L 151.677 77.86858 
L 151.398 77.86858 
L 151.119 77.86858 
L 150.84 77.86858 
L 150.561 77.86858 
L 150.282 77.86858 
L 150.003 77.86858 
L 149.724 77.86858 
L 149.445 77.86858 
L 149.166 77.86858 
L 148.887 77.86858 
L 148.608 77.86858 
L 148.329 77.86858 
L 148.05 77.86858 
L 147.771 77.86858 
L 147.492 77.86858 
L 147.213 77.86858 
L 146.934 77.86858 
L 146.655 77.86858 
L 146.376 77.86858 
L 146.097 77.86858 
L 145.818 77.86858 
L 145.539 77.86858 
L 145.26 77.86858 
L 144.981 77.86858 
L 144.702 77.86858 
L 144.423 77.86858 
L 144.144 77.86858 
L 143.865 77.86858 
L 143.586 77.86858 
L 143.307 77.86858 
L 143.028 77.86858 
L 142.749 77.86858 
L 142.47 77.86858 
L 142.191 77.86858 
L 141.912 77.86858 
L 141.633 77.86858 
L 141.354 77.86858 
L 141.075 77.86858 
L 140.796 77.86858 
L 140.517 77.86858 
L 140.238 77.86858 
L 139.959 77.86858 
L 139.68 77.86858 
L 139.401 77.86858 
L 139.122 77.86858 
L 138.843 77.86858 
L 138.564 77.86858 
L 138.285 77.86858 
L 138.006 77.86858 
L 137.727 77.86858 
L 137.448 77.86858 
L 137.169 77.86858 
L 136.89 77.86858 
L 136.611 77.86858 
L 136.332 77.86858 
L 136.053 77.86858 
L 135.774 77.86858 
L 135.495 77.86858 
L 135.216 77.86858 
L 134.937 77.86858 
L 134.658 77.86858 
L 134.379 77.86858 
L 134.1 77.86858 
L 133.821 77.86858 
L 133.542 77.86858 
L 133.263 77.86858 
L 132.984 77.86858 
L 132.705 77.86858 
L 132.426 77.86858 
L 132.147 77.86858 
L 131.868 77.86858 
L 131.589 77.86858 
L 131.31 77.86858 
L 131.031 77.86858 
L 130.752 77.86858 
L 130.473 77.86858 
L 130.194 77.86858 
L 129.915 77.86858 
L 129.636 77.86858 
L 129.357 77.86858 
L 129.078 77.86858 
L 128.799 77.86858 
L 128.52 77.86858 
L 128.241 77.86858 
L 127.962 77.86858 
L 127.683 77.86858 
L 127.404 77.86858 
L 127.125 77.86858 
L 126.846 77.86858 
L 126.567 77.86858 
L 126.288 77.86858 
L 126.009 77.86858 
L 125.73 77.86858 
L 125.451 77.86858 
L 125.172 77.86858 
L 124.893 77.86858 
L 124.614 77.86858 
L 124.335 77.86858 
L 124.056 77.86858 
L 123.777 77.86858 
L 123.498 77.86858 
L 123.219 77.86858 
L 122.94 77.86858 
L 122.661 77.86858 
L 122.382 77.86858 
L 122.103 77.86858 
L 121.824 77.86858 
L 121.545 77.86858 
L 121.266 77.86858 
L 120.987 77.86858 
L 120.708 77.86858 
L 120.429 77.86858 
L 120.15 77.86858 
L 119.871 77.86858 
L 119.592 77.86858 
L 119.313 77.86858 
L 119.034 77.86858 
L 118.755 77.86858 
L 118.476 77.86858 
L 118.197 77.86858 
L 117.918 77.86858 
L 117.639 77.86858 
L 117.36 77.86858 
L 117.081 77.86858 
L 116.802 77.86858 
L 116.523 77.86858 
L 116.244 77.86858 
L 115.965 77.86858 
L 115.686 77.86858 
L 115.407 77.86858 
L 115.128 77.86858 
L 114.849 77.86858 
L 114.57 77.86858 
L 114.291 77.86858 
L 114.012 77.86858 
L 113.733 77.86858 
L 113.454 77.86858 
L 113.175 77.86858 
L 112.896 77.86858 
L 112.617 77.86858 
L 112.338 77.86858 
L 112.059 77.86858 
L 111.78 77.86858 
L 111.501 77.86858 
L 111.222 77.86858 
L 110.943 77.86858 
L 110.664 77.86858 
L 110.385 77.86858 
L 110.106 77.86858 
L 109.827 77.86858 
L 109.548 77.86858 
L 109.269 77.86858 
L 108.99 77.86858 
L 108.711 77.86858 
L 108.432 77.86858 
L 108.153 77.86858 
L 107.874 77.86858 
L 107.595 77.86858 
L 107.316 77.86858 
L 107.037 77.86858 
L 106.758 77.86858 
L 106.479 77.86858 
L 106.2 77.86858 
L 105.921 77.86858 
L 105.642 77.86858 
L 105.363 77.86858 
L 105.084 77.86858 
L 104.805 77.86858 
L 104.526 77.86858 
L 104.247 77.86858 
L 103.968 77.86858 
L 103.689 77.86858 
L 103.41 77.86858 
L 103.131 77.86858 
L 102.852 77.86858 
L 102.573 77.86858 
L 102.294 77.86858 
L 102.015 77.86858 
L 101.736 77.86858 
L 101.457 77.86858 
L 101.178 77.86858 
L 100.899 77.86858 
L 100.62 77.86858 
L 100.341 77.86858 
L 100.062 77.86858 
L 99.783 77.86858 
L 99.504 77.86858 
L 99.225 77.86858 
L 98.946 77.86858 
L 98.667 77.86858 
L 98.388 77.86858 
L 98.109 77.86858 
L 97.83 77.86858 
L 97.551 77.86858 
L 97.272 77.86858 
L 96.993 77.86858 
L 96.714 77.86858 
L 96.435 77.86858 
L 96.156 77.86858 
L 95.877 77.86858 
L 95.598 77.86858 
L 95.319 77.86858 
L 95.04 77.86858 
L 94.761 77.86858 
L 94.482 77.86858 
L 94.203 77.86858 
L 93.924 77.86858 
L 93.645 77.86858 
L 93.366 77.86858 
L 93.087 77.86858 
L 92.808 77.86858 
L 92.529 77.86858 
L 92.25 77.86858 
L 91.971 77.86858 
L 91.692 77.86858 
L 91.413 77.86858 
L 91.134 77.86858 
L 90.855 77.86858 
L 90.576 77.86858 
L 90.297 77.86858 
L 90.018 77.86858 
L 89.739 77.86858 
L 89.46 77.86858 
L 89.181 77.86858 
L 88.902 77.86858 
L 88.623 77.86858 
L 88.344 77.86858 
L 88.065 77.86858 
L 87.786 77.86858 
L 87.507 77.86858 
L 87.228 77.86858 
L 86.949 77.86858 
L 86.67 77.86858 
L 86.391 77.86858 
L 86.112 77.86858 
L 85.833 77.86858 
L 85.554 77.86858 
L 85.275 77.86858 
L 84.996 77.86858 
L 84.717 77.86858 
L 84.438 77.86858 
L 84.159 77.86858 
L 83.88 77.86858 
L 83.601 77.86858 
L 83.322 77.86858 
L 83.043 77.86858 
L 82.764 77.86858 
L 82.485 77.86858 
L 82.206 77.86858 
L 81.927 77.86858 
L 81.648 77.86858 
L 81.369 77.86858 
L 81.09 77.86858 
L 80.811 77.86858 
L 80.532 77.86858 
L 80.253 77.86858 
L 79.974 77.86858 
L 79.695 77.86858 
L 79.416 77.86858 
L 79.137 77.86858 
L 78.858 77.86858 
L 78.579 77.86858 
L 78.3 77.86858 
L 78.021 77.86858 
L 77.742 77.86858 
L 77.463 77.86858 
L 77.184 77.86858 
L 76.905 77.86858 
L 76.626 77.86858 
L 76.347 77.86858 
L 76.068 77.86858 
L 75.789 77.86858 
L 75.51 77.86858 
L 75.231 77.86858 
L 74.952 77.86858 
L 74.673 77.86858 
L 74.394 77.86858 
L 74.115 77.86858 
L 73.836 77.86858 
L 73.557 77.86858 
L 73.278 77.86858 
L 72.999 77.86858 
L 72.72 77.86858 
L 72.441 77.86858 
L 72.162 77.86858 
L 71.883 77.86858 
L 71.604 77.86858 
L 71.325 77.86858 
L 71.046 77.86858 
L 70.767 77.86858 
L 70.488 77.86858 
L 70.209 77.86858 
L 69.93 77.86858 
L 69.651 77.86858 
L 69.372 77.86858 
L 69.093 77.86858 
L 68.814 77.86858 
L 68.535 77.86858 
L 68.256 77.86858 
L 67.977 77.86858 
L 67.698 77.86858 
L 67.419 77.86858 
L 67.14 77.86858 
L 66.861 77.86858 
L 66.582 77.86858 
L 66.303 77.86858 
L 66.024 77.86858 
L 65.745 77.86858 
L 65.466 77.86858 
L 65.187 77.86858 
L 64.908 77.86858 
L 64.629 77.86858 
L 64.35 77.86858 
L 64.071 77.86858 
L 63.792 77.86858 
L 63.513 77.86858 
L 63.234 77.86858 
L 62.955 77.86858 
L 62.676 77.86858 
L 62.397 77.86858 
L 62.118 77.86858 
L 61.839 77.86858 
L 61.56 77.86858 
L 61.281 77.86858 
L 61.002 77.86858 
L 60.723 77.86858 
L 60.444 77.86858 
L 60.165 77.86858 
L 59.886 77.86858 
L 59.607 77.86858 
L 59.328 77.86858 
L 59.049 77.86858 
L 58.77 77.86858 
L 58.491 77.86858 
L 58.212 77.86858 
L 57.933 77.86858 
L 57.654 77.86858 
L 57.375 77.86858 
L 57.096 77.86858 
L 56.817 77.86858 
L 56.538 77.86858 
L 56.259 77.86858 
L 55.98 77.86858 
L 55.701 77.86858 
L 55.422 77.86858 
L 55.143 77.86858 
L 54.864 77.86858 
L 54.585 77.86858 
L 54.306 77.86858 
L 54.027 77.86858 
L 53.748 77.86858 
L 53.469 77.86858 
L 53.19 77.86858 
L 52.911 77.86858 
L 52.632 77.86858 
L 52.353 77.86858 
L 52.074 77.86858 
L 51.795 77.86858 
L 51.516 77.86858 
L 51.237 77.86858 
L 50.958 77.86858 
L 50.679 77.86858 
L 50.4 77.86858 
L 50.121 77.86858 
L 49.842 77.86858 
L 49.563 77.86858 
L 49.284 77.86858 
L 49.005 77.86858 
L 48.726 77.86858 
L 48.447 77.86858 
L 48.168 77.86858 
L 47.889 77.86858 
L 47.61 77.86858 
L 47.331 77.86858 
L 47.052 77.86858 
L 46.773 77.86858 
L 46.494 77.86858 
L 46.215 77.86858 
L 45.936 77.86858 
L 45.657 77.86858 
L 45.378 77.86858 
L 45.099 77.86858 
L 44.82 77.86858 
L 44.541 77.86858 
L 44.262 77.86858 
L 43.983 77.86858 
L 43.704 77.86858 
L 43.425 77.86858 
L 43.146 77.86858 
L 42.867 77.86858 
L 42.588 77.86858 
L 42.309 77.86858 
L 42.03 77.86858 
L 41.751 77.86858 
L 41.472 77.86858 
L 41.193 77.86858 
L 40.914 77.86858 
L 40.635 77.86858 
L 40.356 77.86858 
L 40.077 77.86858 
L 39.798 77.86858 
L 39.519 77.86858 
L 39.24 77.86858 
L 38.961 77.86858 
L 38.682 77.86858 
L 38.403 77.86858 
L 38.124 77.86858 
L 37.845 77.86858 
L 37.566 77.86858 
L 37.287 77.86858 
L 37.008 77.86858 
L 36.729 77.86858 
L 36.45 77.86858 
L 36.171 77.86858 
L 35.892 77.86858 
L 35.613 77.86858 
L 35.334 77.86858 
L 35.055 77.86858 
L 34.776 77.86858 
L 34.497 77.86858 
L 34.218 77.86858 
L 33.939 77.86858 
L 33.66 77.86858 
L 33.381 77.86858 
L 33.102 77.86858 
L 32.823 77.86858 
L 32.544 77.86858 
L 32.265 77.86858 
L 31.986 77.86858 
L 31.707 77.86858 
L 31.428 77.86858 
L 31.149 77.86858 
L 30.87 77.86858 
L 30.591 77.86858 
L 30.312 77.86858 
L 30.033 77.86858 
L 29.754 77.86858 
L 29.475 77.86858 
L 29.196 77.86858 
L 28.917 77.86858 
L 28.638 77.86858 
L 28.359 77.86858 
L 28.08 77.86858 
L 27.801 77.86858 
L 27.522 77.86858 
L 27.243 77.86858 
L 26.964 77.86858 
L 26.685 77.86858 
L 26.406 77.86858 
L 26.127 77.86858 
L 25.848 77.86858 
L 25.569 77.86858 
L 25.29 77.86858 
L 25.011 77.86858 
L 24.732 77.86858 
L 24.453 77.86858 
L 24.174 77.86858 
L 23.895 77.86858 
L 23.616 77.86858 
L 23.337 77.86858 
L 23.058 77.86858 
L 22.779 77.86858 
L 22.5 77.86858 
z
" clip-path="url(#p14e0b20eee)" style="fill: #d3436e; fill-opacity: 0.1"/>
   </g>
   <g id="PolyCollection_6">
    <path d="M 22.5 71.727678 
L 22.5 90.087886 
L 22.779 90.087886 
L 23.058 90.087886 
L 23.337 90.087886 
L 23.616 90.087886 
L 23.895 90.087886 
L 24.174 90.087886 
L 24.453 90.087886 
L 24.732 90.087886 
L 25.011 90.087886 
L 25.29 90.087886 
L 25.569 90.087886 
L 25.848 90.087886 
L 26.127 90.087886 
L 26.406 90.087886 
L 26.685 90.087886 
L 26.964 90.087886 
L 27.243 90.087886 
L 27.522 90.087886 
L 27.801 90.087886 
L 28.08 90.087886 
L 28.359 90.087886 
L 28.638 90.087886 
L 28.917 90.087886 
L 29.196 90.087886 
L 29.475 90.087886 
L 29.754 90.087886 
L 30.033 90.087886 
L 30.312 90.087886 
L 30.591 90.087886 
L 30.87 90.087886 
L 31.149 90.087886 
L 31.428 90.087886 
L 31.707 90.087886 
L 31.986 90.087886 
L 32.265 90.087886 
L 32.544 90.087886 
L 32.823 90.087886 
L 33.102 90.087886 
L 33.381 90.087886 
L 33.66 90.087886 
L 33.939 90.087886 
L 34.218 90.087886 
L 34.497 90.087886 
L 34.776 90.087886 
L 35.055 90.087886 
L 35.334 90.087886 
L 35.613 90.087886 
L 35.892 90.087886 
L 36.171 90.087886 
L 36.45 90.087886 
L 36.729 90.087886 
L 37.008 90.087886 
L 37.287 90.087886 
L 37.566 90.087886 
L 37.845 90.087886 
L 38.124 90.087886 
L 38.403 90.087886 
L 38.682 90.087886 
L 38.961 90.087886 
L 39.24 90.087886 
L 39.519 90.087886 
L 39.798 90.087886 
L 40.077 90.087886 
L 40.356 90.087886 
L 40.635 90.087886 
L 40.914 90.087886 
L 41.193 90.087886 
L 41.472 90.087886 
L 41.751 90.087886 
L 42.03 90.087886 
L 42.309 90.087886 
L 42.588 90.087886 
L 42.867 90.087886 
L 43.146 90.087886 
L 43.425 90.087886 
L 43.704 90.087886 
L 43.983 90.087886 
L 44.262 90.087886 
L 44.541 90.087886 
L 44.82 90.087886 
L 45.099 90.087886 
L 45.378 90.087886 
L 45.657 90.087886 
L 45.936 90.087886 
L 46.215 90.087886 
L 46.494 90.087886 
L 46.773 90.087886 
L 47.052 90.087886 
L 47.331 90.087886 
L 47.61 90.087886 
L 47.889 90.087886 
L 48.168 90.087886 
L 48.447 90.087886 
L 48.726 90.087886 
L 49.005 90.087886 
L 49.284 90.087886 
L 49.563 90.087886 
L 49.842 90.087886 
L 50.121 90.087886 
L 50.4 90.087886 
L 50.679 90.087886 
L 50.958 90.087886 
L 51.237 90.087886 
L 51.516 90.087886 
L 51.795 90.087886 
L 52.074 90.087886 
L 52.353 90.087886 
L 52.632 90.087886 
L 52.911 90.087886 
L 53.19 90.087886 
L 53.469 90.087886 
L 53.748 90.087886 
L 54.027 90.087886 
L 54.306 90.087886 
L 54.585 90.087886 
L 54.864 90.087886 
L 55.143 90.087886 
L 55.422 90.087886 
L 55.701 90.087886 
L 55.98 90.087886 
L 56.259 90.087886 
L 56.538 90.087886 
L 56.817 90.087886 
L 57.096 90.087886 
L 57.375 90.087886 
L 57.654 90.087886 
L 57.933 90.087886 
L 58.212 90.087886 
L 58.491 90.087886 
L 58.77 90.087886 
L 59.049 90.087886 
L 59.328 90.087886 
L 59.607 90.087886 
L 59.886 90.087886 
L 60.165 90.087886 
L 60.444 90.087886 
L 60.723 90.087886 
L 61.002 90.087886 
L 61.281 90.087886 
L 61.56 90.087886 
L 61.839 90.087886 
L 62.118 90.087886 
L 62.397 90.087886 
L 62.676 90.087886 
L 62.955 90.087886 
L 63.234 90.087886 
L 63.513 90.087886 
L 63.792 90.087886 
L 64.071 90.087886 
L 64.35 90.087886 
L 64.629 90.087886 
L 64.908 90.087886 
L 65.187 90.087886 
L 65.466 90.087886 
L 65.745 90.087886 
L 66.024 90.087886 
L 66.303 90.087886 
L 66.582 90.087886 
L 66.861 90.087886 
L 67.14 90.087886 
L 67.419 90.087886 
L 67.698 90.087886 
L 67.977 90.087886 
L 68.256 90.087886 
L 68.535 90.087886 
L 68.814 90.087886 
L 69.093 90.087886 
L 69.372 90.087886 
L 69.651 90.087886 
L 69.93 90.087886 
L 70.209 90.087886 
L 70.488 90.087886 
L 70.767 90.087886 
L 71.046 90.087886 
L 71.325 90.087886 
L 71.604 90.087886 
L 71.883 90.087886 
L 72.162 90.087886 
L 72.441 90.087886 
L 72.72 90.087886 
L 72.999 90.087886 
L 73.278 90.087886 
L 73.557 90.087886 
L 73.836 90.087886 
L 74.115 90.087886 
L 74.394 90.087886 
L 74.673 90.087886 
L 74.952 90.087886 
L 75.231 90.087886 
L 75.51 90.087886 
L 75.789 90.087886 
L 76.068 90.087886 
L 76.347 90.087886 
L 76.626 90.087886 
L 76.905 90.087886 
L 77.184 90.087886 
L 77.463 90.087886 
L 77.742 90.087886 
L 78.021 90.087886 
L 78.3 90.087886 
L 78.579 90.087886 
L 78.858 90.087886 
L 79.137 90.087886 
L 79.416 90.087886 
L 79.695 90.087886 
L 79.974 90.087886 
L 80.253 90.087886 
L 80.532 90.087886 
L 80.811 90.087886 
L 81.09 90.087886 
L 81.369 90.087886 
L 81.648 90.087886 
L 81.927 90.087886 
L 82.206 90.087886 
L 82.485 90.087886 
L 82.764 90.087886 
L 83.043 90.087886 
L 83.322 90.087886 
L 83.601 90.087886 
L 83.88 90.087886 
L 84.159 90.087886 
L 84.438 90.087886 
L 84.717 90.087886 
L 84.996 90.087886 
L 85.275 90.087886 
L 85.554 90.087886 
L 85.833 90.087886 
L 86.112 90.087886 
L 86.391 90.087886 
L 86.67 90.087886 
L 86.949 90.087886 
L 87.228 90.087886 
L 87.507 90.087886 
L 87.786 90.087886 
L 88.065 90.087886 
L 88.344 90.087886 
L 88.623 90.087886 
L 88.902 90.087886 
L 89.181 90.087886 
L 89.46 90.087886 
L 89.739 90.087886 
L 90.018 90.087886 
L 90.297 90.087886 
L 90.576 90.087886 
L 90.855 90.087886 
L 91.134 90.087886 
L 91.413 90.087886 
L 91.692 90.087886 
L 91.971 90.087886 
L 92.25 90.087886 
L 92.529 90.087886 
L 92.808 90.087886 
L 93.087 90.087886 
L 93.366 90.087886 
L 93.645 90.087886 
L 93.924 90.087886 
L 94.203 90.087886 
L 94.482 90.087886 
L 94.761 90.087886 
L 95.04 90.087886 
L 95.319 90.087886 
L 95.598 90.087886 
L 95.877 90.087886 
L 96.156 90.087886 
L 96.435 90.087886 
L 96.714 90.087886 
L 96.993 90.087886 
L 97.272 90.087886 
L 97.551 90.087886 
L 97.83 90.087886 
L 98.109 90.087886 
L 98.388 90.087886 
L 98.667 90.087886 
L 98.946 90.087886 
L 99.225 90.087886 
L 99.504 90.087886 
L 99.783 90.087886 
L 100.062 90.087886 
L 100.341 90.087886 
L 100.62 90.087886 
L 100.899 90.087886 
L 101.178 90.087886 
L 101.457 90.087886 
L 101.736 90.087886 
L 102.015 90.087886 
L 102.294 90.087886 
L 102.573 90.087886 
L 102.852 90.087886 
L 103.131 90.087886 
L 103.41 90.087886 
L 103.689 90.087886 
L 103.968 90.087886 
L 104.247 90.087886 
L 104.526 90.087886 
L 104.805 90.087886 
L 105.084 90.087886 
L 105.363 90.087886 
L 105.642 90.087886 
L 105.921 90.087886 
L 106.2 90.087886 
L 106.479 90.087886 
L 106.758 90.087886 
L 107.037 90.087886 
L 107.316 90.087886 
L 107.595 90.087886 
L 107.874 90.087886 
L 108.153 90.087886 
L 108.432 90.087886 
L 108.711 90.087886 
L 108.99 90.087886 
L 109.269 90.087886 
L 109.548 90.087886 
L 109.827 90.087886 
L 110.106 90.087886 
L 110.385 90.087886 
L 110.664 90.087886 
L 110.943 90.087886 
L 111.222 90.087886 
L 111.501 90.087886 
L 111.78 90.087886 
L 112.059 90.087886 
L 112.338 90.087886 
L 112.617 90.087886 
L 112.896 90.087886 
L 113.175 90.087886 
L 113.454 90.087886 
L 113.733 90.087886 
L 114.012 90.087886 
L 114.291 90.087886 
L 114.57 90.087886 
L 114.849 90.087886 
L 115.128 90.087886 
L 115.407 90.087886 
L 115.686 90.087886 
L 115.965 90.087886 
L 116.244 90.087886 
L 116.523 90.087886 
L 116.802 90.087886 
L 117.081 90.087886 
L 117.36 90.087886 
L 117.639 90.087886 
L 117.918 90.087886 
L 118.197 90.087886 
L 118.476 90.087886 
L 118.755 90.087886 
L 119.034 90.087886 
L 119.313 90.087886 
L 119.592 90.087886 
L 119.871 90.087886 
L 120.15 90.087886 
L 120.429 90.087886 
L 120.708 90.087886 
L 120.987 90.087886 
L 121.266 90.087886 
L 121.545 90.087886 
L 121.824 90.087886 
L 122.103 90.087886 
L 122.382 90.087886 
L 122.661 90.087886 
L 122.94 90.087886 
L 123.219 90.087886 
L 123.498 90.087886 
L 123.777 90.087886 
L 124.056 90.087886 
L 124.335 90.087886 
L 124.614 90.087886 
L 124.893 90.087886 
L 125.172 90.087886 
L 125.451 90.087886 
L 125.73 90.087886 
L 126.009 90.087886 
L 126.288 90.087886 
L 126.567 90.087886 
L 126.846 90.087886 
L 127.125 90.087886 
L 127.404 90.087886 
L 127.683 90.087886 
L 127.962 90.087886 
L 128.241 90.087886 
L 128.52 90.087886 
L 128.799 90.087886 
L 129.078 90.087886 
L 129.357 90.087886 
L 129.636 90.087886 
L 129.915 90.087886 
L 130.194 90.087886 
L 130.473 90.087886 
L 130.752 90.087886 
L 131.031 90.087886 
L 131.31 90.087886 
L 131.589 90.087886 
L 131.868 90.087886 
L 132.147 90.087886 
L 132.426 90.087886 
L 132.705 90.087886 
L 132.984 90.087886 
L 133.263 90.087886 
L 133.542 90.087886 
L 133.821 90.087886 
L 134.1 90.087886 
L 134.379 90.087886 
L 134.658 90.087886 
L 134.937 90.087886 
L 135.216 90.087886 
L 135.495 90.087886 
L 135.774 90.087886 
L 136.053 90.087886 
L 136.332 90.087886 
L 136.611 90.087886 
L 136.89 90.087886 
L 137.169 90.087886 
L 137.448 90.087886 
L 137.727 90.087886 
L 138.006 90.087886 
L 138.285 90.087886 
L 138.564 90.087886 
L 138.843 90.087886 
L 139.122 90.087886 
L 139.401 90.087886 
L 139.68 90.087886 
L 139.959 90.087886 
L 140.238 90.087886 
L 140.517 90.087886 
L 140.796 90.087886 
L 141.075 90.087886 
L 141.354 90.087886 
L 141.633 90.087886 
L 141.912 90.087886 
L 142.191 90.087886 
L 142.47 90.087886 
L 142.749 90.087886 
L 143.028 90.087886 
L 143.307 90.087886 
L 143.586 90.087886 
L 143.865 90.087886 
L 144.144 90.087886 
L 144.423 90.087886 
L 144.702 90.087886 
L 144.981 90.087886 
L 145.26 90.087886 
L 145.539 90.087886 
L 145.818 90.087886 
L 146.097 90.087886 
L 146.376 90.087886 
L 146.655 90.087886 
L 146.934 90.087886 
L 147.213 90.087886 
L 147.492 90.087886 
L 147.771 90.087886 
L 148.05 90.087886 
L 148.329 90.087886 
L 148.608 90.087886 
L 148.887 90.087886 
L 149.166 90.087886 
L 149.445 90.087886 
L 149.724 90.087886 
L 150.003 90.087886 
L 150.282 90.087886 
L 150.561 90.087886 
L 150.84 90.087886 
L 151.119 90.087886 
L 151.398 90.087886 
L 151.677 90.087886 
L 151.956 90.087886 
L 152.235 90.087886 
L 152.514 90.087886 
L 152.793 90.087886 
L 153.072 90.087886 
L 153.351 90.087886 
L 153.63 90.087886 
L 153.909 90.087886 
L 154.188 90.087886 
L 154.467 90.087886 
L 154.746 90.087886 
L 155.025 90.087886 
L 155.304 90.087886 
L 155.583 90.087886 
L 155.862 90.087886 
L 156.141 90.087886 
L 156.42 90.087886 
L 156.699 90.087886 
L 156.978 90.087886 
L 157.257 90.087886 
L 157.536 90.087886 
L 157.815 90.087886 
L 158.094 90.087886 
L 158.373 90.087886 
L 158.652 90.087886 
L 158.931 90.087886 
L 159.21 90.087886 
L 159.489 90.087886 
L 159.768 90.087886 
L 160.047 90.087886 
L 160.326 90.087886 
L 160.605 90.087886 
L 160.884 90.087886 
L 161.163 90.087886 
L 161.442 90.087886 
L 161.721 90.087886 
L 161.721 71.727678 
L 161.721 71.727678 
L 161.442 71.727678 
L 161.163 71.727678 
L 160.884 71.727678 
L 160.605 71.727678 
L 160.326 71.727678 
L 160.047 71.727678 
L 159.768 71.727678 
L 159.489 71.727678 
L 159.21 71.727678 
L 158.931 71.727678 
L 158.652 71.727678 
L 158.373 71.727678 
L 158.094 71.727678 
L 157.815 71.727678 
L 157.536 71.727678 
L 157.257 71.727678 
L 156.978 71.727678 
L 156.699 71.727678 
L 156.42 71.727678 
L 156.141 71.727678 
L 155.862 71.727678 
L 155.583 71.727678 
L 155.304 71.727678 
L 155.025 71.727678 
L 154.746 71.727678 
L 154.467 71.727678 
L 154.188 71.727678 
L 153.909 71.727678 
L 153.63 71.727678 
L 153.351 71.727678 
L 153.072 71.727678 
L 152.793 71.727678 
L 152.514 71.727678 
L 152.235 71.727678 
L 151.956 71.727678 
L 151.677 71.727678 
L 151.398 71.727678 
L 151.119 71.727678 
L 150.84 71.727678 
L 150.561 71.727678 
L 150.282 71.727678 
L 150.003 71.727678 
L 149.724 71.727678 
L 149.445 71.727678 
L 149.166 71.727678 
L 148.887 71.727678 
L 148.608 71.727678 
L 148.329 71.727678 
L 148.05 71.727678 
L 147.771 71.727678 
L 147.492 71.727678 
L 147.213 71.727678 
L 146.934 71.727678 
L 146.655 71.727678 
L 146.376 71.727678 
L 146.097 71.727678 
L 145.818 71.727678 
L 145.539 71.727678 
L 145.26 71.727678 
L 144.981 71.727678 
L 144.702 71.727678 
L 144.423 71.727678 
L 144.144 71.727678 
L 143.865 71.727678 
L 143.586 71.727678 
L 143.307 71.727678 
L 143.028 71.727678 
L 142.749 71.727678 
L 142.47 71.727678 
L 142.191 71.727678 
L 141.912 71.727678 
L 141.633 71.727678 
L 141.354 71.727678 
L 141.075 71.727678 
L 140.796 71.727678 
L 140.517 71.727678 
L 140.238 71.727678 
L 139.959 71.727678 
L 139.68 71.727678 
L 139.401 71.727678 
L 139.122 71.727678 
L 138.843 71.727678 
L 138.564 71.727678 
L 138.285 71.727678 
L 138.006 71.727678 
L 137.727 71.727678 
L 137.448 71.727678 
L 137.169 71.727678 
L 136.89 71.727678 
L 136.611 71.727678 
L 136.332 71.727678 
L 136.053 71.727678 
L 135.774 71.727678 
L 135.495 71.727678 
L 135.216 71.727678 
L 134.937 71.727678 
L 134.658 71.727678 
L 134.379 71.727678 
L 134.1 71.727678 
L 133.821 71.727678 
L 133.542 71.727678 
L 133.263 71.727678 
L 132.984 71.727678 
L 132.705 71.727678 
L 132.426 71.727678 
L 132.147 71.727678 
L 131.868 71.727678 
L 131.589 71.727678 
L 131.31 71.727678 
L 131.031 71.727678 
L 130.752 71.727678 
L 130.473 71.727678 
L 130.194 71.727678 
L 129.915 71.727678 
L 129.636 71.727678 
L 129.357 71.727678 
L 129.078 71.727678 
L 128.799 71.727678 
L 128.52 71.727678 
L 128.241 71.727678 
L 127.962 71.727678 
L 127.683 71.727678 
L 127.404 71.727678 
L 127.125 71.727678 
L 126.846 71.727678 
L 126.567 71.727678 
L 126.288 71.727678 
L 126.009 71.727678 
L 125.73 71.727678 
L 125.451 71.727678 
L 125.172 71.727678 
L 124.893 71.727678 
L 124.614 71.727678 
L 124.335 71.727678 
L 124.056 71.727678 
L 123.777 71.727678 
L 123.498 71.727678 
L 123.219 71.727678 
L 122.94 71.727678 
L 122.661 71.727678 
L 122.382 71.727678 
L 122.103 71.727678 
L 121.824 71.727678 
L 121.545 71.727678 
L 121.266 71.727678 
L 120.987 71.727678 
L 120.708 71.727678 
L 120.429 71.727678 
L 120.15 71.727678 
L 119.871 71.727678 
L 119.592 71.727678 
L 119.313 71.727678 
L 119.034 71.727678 
L 118.755 71.727678 
L 118.476 71.727678 
L 118.197 71.727678 
L 117.918 71.727678 
L 117.639 71.727678 
L 117.36 71.727678 
L 117.081 71.727678 
L 116.802 71.727678 
L 116.523 71.727678 
L 116.244 71.727678 
L 115.965 71.727678 
L 115.686 71.727678 
L 115.407 71.727678 
L 115.128 71.727678 
L 114.849 71.727678 
L 114.57 71.727678 
L 114.291 71.727678 
L 114.012 71.727678 
L 113.733 71.727678 
L 113.454 71.727678 
L 113.175 71.727678 
L 112.896 71.727678 
L 112.617 71.727678 
L 112.338 71.727678 
L 112.059 71.727678 
L 111.78 71.727678 
L 111.501 71.727678 
L 111.222 71.727678 
L 110.943 71.727678 
L 110.664 71.727678 
L 110.385 71.727678 
L 110.106 71.727678 
L 109.827 71.727678 
L 109.548 71.727678 
L 109.269 71.727678 
L 108.99 71.727678 
L 108.711 71.727678 
L 108.432 71.727678 
L 108.153 71.727678 
L 107.874 71.727678 
L 107.595 71.727678 
L 107.316 71.727678 
L 107.037 71.727678 
L 106.758 71.727678 
L 106.479 71.727678 
L 106.2 71.727678 
L 105.921 71.727678 
L 105.642 71.727678 
L 105.363 71.727678 
L 105.084 71.727678 
L 104.805 71.727678 
L 104.526 71.727678 
L 104.247 71.727678 
L 103.968 71.727678 
L 103.689 71.727678 
L 103.41 71.727678 
L 103.131 71.727678 
L 102.852 71.727678 
L 102.573 71.727678 
L 102.294 71.727678 
L 102.015 71.727678 
L 101.736 71.727678 
L 101.457 71.727678 
L 101.178 71.727678 
L 100.899 71.727678 
L 100.62 71.727678 
L 100.341 71.727678 
L 100.062 71.727678 
L 99.783 71.727678 
L 99.504 71.727678 
L 99.225 71.727678 
L 98.946 71.727678 
L 98.667 71.727678 
L 98.388 71.727678 
L 98.109 71.727678 
L 97.83 71.727678 
L 97.551 71.727678 
L 97.272 71.727678 
L 96.993 71.727678 
L 96.714 71.727678 
L 96.435 71.727678 
L 96.156 71.727678 
L 95.877 71.727678 
L 95.598 71.727678 
L 95.319 71.727678 
L 95.04 71.727678 
L 94.761 71.727678 
L 94.482 71.727678 
L 94.203 71.727678 
L 93.924 71.727678 
L 93.645 71.727678 
L 93.366 71.727678 
L 93.087 71.727678 
L 92.808 71.727678 
L 92.529 71.727678 
L 92.25 71.727678 
L 91.971 71.727678 
L 91.692 71.727678 
L 91.413 71.727678 
L 91.134 71.727678 
L 90.855 71.727678 
L 90.576 71.727678 
L 90.297 71.727678 
L 90.018 71.727678 
L 89.739 71.727678 
L 89.46 71.727678 
L 89.181 71.727678 
L 88.902 71.727678 
L 88.623 71.727678 
L 88.344 71.727678 
L 88.065 71.727678 
L 87.786 71.727678 
L 87.507 71.727678 
L 87.228 71.727678 
L 86.949 71.727678 
L 86.67 71.727678 
L 86.391 71.727678 
L 86.112 71.727678 
L 85.833 71.727678 
L 85.554 71.727678 
L 85.275 71.727678 
L 84.996 71.727678 
L 84.717 71.727678 
L 84.438 71.727678 
L 84.159 71.727678 
L 83.88 71.727678 
L 83.601 71.727678 
L 83.322 71.727678 
L 83.043 71.727678 
L 82.764 71.727678 
L 82.485 71.727678 
L 82.206 71.727678 
L 81.927 71.727678 
L 81.648 71.727678 
L 81.369 71.727678 
L 81.09 71.727678 
L 80.811 71.727678 
L 80.532 71.727678 
L 80.253 71.727678 
L 79.974 71.727678 
L 79.695 71.727678 
L 79.416 71.727678 
L 79.137 71.727678 
L 78.858 71.727678 
L 78.579 71.727678 
L 78.3 71.727678 
L 78.021 71.727678 
L 77.742 71.727678 
L 77.463 71.727678 
L 77.184 71.727678 
L 76.905 71.727678 
L 76.626 71.727678 
L 76.347 71.727678 
L 76.068 71.727678 
L 75.789 71.727678 
L 75.51 71.727678 
L 75.231 71.727678 
L 74.952 71.727678 
L 74.673 71.727678 
L 74.394 71.727678 
L 74.115 71.727678 
L 73.836 71.727678 
L 73.557 71.727678 
L 73.278 71.727678 
L 72.999 71.727678 
L 72.72 71.727678 
L 72.441 71.727678 
L 72.162 71.727678 
L 71.883 71.727678 
L 71.604 71.727678 
L 71.325 71.727678 
L 71.046 71.727678 
L 70.767 71.727678 
L 70.488 71.727678 
L 70.209 71.727678 
L 69.93 71.727678 
L 69.651 71.727678 
L 69.372 71.727678 
L 69.093 71.727678 
L 68.814 71.727678 
L 68.535 71.727678 
L 68.256 71.727678 
L 67.977 71.727678 
L 67.698 71.727678 
L 67.419 71.727678 
L 67.14 71.727678 
L 66.861 71.727678 
L 66.582 71.727678 
L 66.303 71.727678 
L 66.024 71.727678 
L 65.745 71.727678 
L 65.466 71.727678 
L 65.187 71.727678 
L 64.908 71.727678 
L 64.629 71.727678 
L 64.35 71.727678 
L 64.071 71.727678 
L 63.792 71.727678 
L 63.513 71.727678 
L 63.234 71.727678 
L 62.955 71.727678 
L 62.676 71.727678 
L 62.397 71.727678 
L 62.118 71.727678 
L 61.839 71.727678 
L 61.56 71.727678 
L 61.281 71.727678 
L 61.002 71.727678 
L 60.723 71.727678 
L 60.444 71.727678 
L 60.165 71.727678 
L 59.886 71.727678 
L 59.607 71.727678 
L 59.328 71.727678 
L 59.049 71.727678 
L 58.77 71.727678 
L 58.491 71.727678 
L 58.212 71.727678 
L 57.933 71.727678 
L 57.654 71.727678 
L 57.375 71.727678 
L 57.096 71.727678 
L 56.817 71.727678 
L 56.538 71.727678 
L 56.259 71.727678 
L 55.98 71.727678 
L 55.701 71.727678 
L 55.422 71.727678 
L 55.143 71.727678 
L 54.864 71.727678 
L 54.585 71.727678 
L 54.306 71.727678 
L 54.027 71.727678 
L 53.748 71.727678 
L 53.469 71.727678 
L 53.19 71.727678 
L 52.911 71.727678 
L 52.632 71.727678 
L 52.353 71.727678 
L 52.074 71.727678 
L 51.795 71.727678 
L 51.516 71.727678 
L 51.237 71.727678 
L 50.958 71.727678 
L 50.679 71.727678 
L 50.4 71.727678 
L 50.121 71.727678 
L 49.842 71.727678 
L 49.563 71.727678 
L 49.284 71.727678 
L 49.005 71.727678 
L 48.726 71.727678 
L 48.447 71.727678 
L 48.168 71.727678 
L 47.889 71.727678 
L 47.61 71.727678 
L 47.331 71.727678 
L 47.052 71.727678 
L 46.773 71.727678 
L 46.494 71.727678 
L 46.215 71.727678 
L 45.936 71.727678 
L 45.657 71.727678 
L 45.378 71.727678 
L 45.099 71.727678 
L 44.82 71.727678 
L 44.541 71.727678 
L 44.262 71.727678 
L 43.983 71.727678 
L 43.704 71.727678 
L 43.425 71.727678 
L 43.146 71.727678 
L 42.867 71.727678 
L 42.588 71.727678 
L 42.309 71.727678 
L 42.03 71.727678 
L 41.751 71.727678 
L 41.472 71.727678 
L 41.193 71.727678 
L 40.914 71.727678 
L 40.635 71.727678 
L 40.356 71.727678 
L 40.077 71.727678 
L 39.798 71.727678 
L 39.519 71.727678 
L 39.24 71.727678 
L 38.961 71.727678 
L 38.682 71.727678 
L 38.403 71.727678 
L 38.124 71.727678 
L 37.845 71.727678 
L 37.566 71.727678 
L 37.287 71.727678 
L 37.008 71.727678 
L 36.729 71.727678 
L 36.45 71.727678 
L 36.171 71.727678 
L 35.892 71.727678 
L 35.613 71.727678 
L 35.334 71.727678 
L 35.055 71.727678 
L 34.776 71.727678 
L 34.497 71.727678 
L 34.218 71.727678 
L 33.939 71.727678 
L 33.66 71.727678 
L 33.381 71.727678 
L 33.102 71.727678 
L 32.823 71.727678 
L 32.544 71.727678 
L 32.265 71.727678 
L 31.986 71.727678 
L 31.707 71.727678 
L 31.428 71.727678 
L 31.149 71.727678 
L 30.87 71.727678 
L 30.591 71.727678 
L 30.312 71.727678 
L 30.033 71.727678 
L 29.754 71.727678 
L 29.475 71.727678 
L 29.196 71.727678 
L 28.917 71.727678 
L 28.638 71.727678 
L 28.359 71.727678 
L 28.08 71.727678 
L 27.801 71.727678 
L 27.522 71.727678 
L 27.243 71.727678 
L 26.964 71.727678 
L 26.685 71.727678 
L 26.406 71.727678 
L 26.127 71.727678 
L 25.848 71.727678 
L 25.569 71.727678 
L 25.29 71.727678 
L 25.011 71.727678 
L 24.732 71.727678 
L 24.453 71.727678 
L 24.174 71.727678 
L 23.895 71.727678 
L 23.616 71.727678 
L 23.337 71.727678 
L 23.058 71.727678 
L 22.779 71.727678 
L 22.5 71.727678 
z
" clip-path="url(#p14e0b20eee)" style="fill: #5f187f; fill-opacity: 0.1"/>
   </g>
   <g id="matplotlib.axis_1">
    <g id="xtick_1">
     <g id="line2d_1">
      <defs>
       <path id="mbcd34c4356" d="M 0 0 
L 0 3.5 
" style="stroke: #000000; stroke-width: 0.8"/>
      </defs>
      <g>
       <use xlink:href="#mbcd34c4356" x="50.4" y="160.2" style="stroke: #000000; stroke-width: 0.8"/>
      </g>
     </g>
     <g id="text_1">
      <text style="font: italic 12px 'inter', sans-serif" transform="translate(9.919905 212.12161) rotate(-45)">Trhn&gt;Chr</text>
     </g>
    </g>
    <g id="xtick_2">
     <g id="line2d_2">
      <g>
       <use xlink:href="#mbcd34c4356" x="78.3" y="160.2" style="stroke: #000000; stroke-width: 0.8"/>
      </g>
     </g>
     <g id="text_2">
      <text style="font: italic 12px 'inter', sans-serif" transform="translate(31.265025 218.67649) rotate(-45)">Trhn&gt;ACR1</text>
     </g>
    </g>
    <g id="xtick_3">
     <g id="line2d_3">
      <g>
       <use xlink:href="#mbcd34c4356" x="106.2" y="160.2" style="stroke: #000000; stroke-width: 0.8"/>
      </g>
     </g>
     <g id="text_3">
      <text style="font: italic 12px 'inter', sans-serif" transform="translate(51.684719 226.156796) rotate(-45)">R50H05&gt;Chr</text>
     </g>
    </g>
    <g id="xtick_4">
     <g id="line2d_4">
      <g>
       <use xlink:href="#mbcd34c4356" x="134.1" y="160.2" style="stroke: #000000; stroke-width: 0.8"/>
      </g>
     </g>
     <g id="text_4">
      <text style="font: italic 12px 'inter', sans-serif" transform="translate(73.029839 232.711676) rotate(-45)">R50H05&gt;ACR1</text>
     </g>
    </g>
   </g>
   <g id="matplotlib.axis_2">
    <g id="ytick_1">
     <g id="line2d_5">
      <defs>
       <path id="m485185011e" d="M 0 0 
L -3.5 0 
" style="stroke: #000000; stroke-width: 0.8"/>
      </defs>
      <g>
       <use xlink:href="#m485185011e" x="22.5" y="139.63007" style="stroke: #000000; stroke-width: 0.8"/>
      </g>
     </g>
     <g id="text_5">
      <text style="font: 10px 'inter', sans-serif; text-anchor: end" x="15.5" y="143.26757" transform="rotate(-0 15.5 143.26757)">4</text>
     </g>
    </g>
    <g id="ytick_2">
     <g id="line2d_6">
      <g>
       <use xlink:href="#m485185011e" x="22.5" y="115.766028" style="stroke: #000000; stroke-width: 0.8"/>
      </g>
     </g>
     <g id="text_6">
      <text style="font: 10px 'inter', sans-serif; text-anchor: end" x="15.5" y="119.403528" transform="rotate(-0 15.5 119.403528)">2</text>
     </g>
    </g>
    <g id="ytick_3">
     <g id="line2d_7">
      <g>
       <use xlink:href="#m485185011e" x="22.5" y="91.901986" style="stroke: #000000; stroke-width: 0.8"/>
      </g>
     </g>
     <g id="text_7">
      <text style="font: 10px 'inter', sans-serif; text-anchor: end" x="15.5" y="95.539486" transform="rotate(-0 15.5 95.539486)">0</text>
     </g>
    </g>
    <g id="ytick_4">
     <g id="line2d_8">
      <g>
       <use xlink:href="#m485185011e" x="22.5" y="68.037945" style="stroke: #000000; stroke-width: 0.8"/>
      </g>
     </g>
     <g id="text_8">
      <text style="font: 10px 'inter', sans-serif; text-anchor: end" x="15.5" y="71.675445" transform="rotate(-0 15.5 71.675445)">2</text>
     </g>
    </g>
    <g id="ytick_5">
     <g id="line2d_9">
      <g>
       <use xlink:href="#m485185011e" x="22.5" y="44.173903" style="stroke: #000000; stroke-width: 0.8"/>
      </g>
     </g>
     <g id="text_9">
      <text style="font: 10px 'inter', sans-serif; text-anchor: end" x="15.5" y="47.811403" transform="rotate(-0 15.5 47.811403)">4</text>
     </g>
    </g>
    <g id="text_10">
     <text style="font: 15px 'inter', sans-serif; text-anchor: middle" x="-4.635938" y="90.9" transform="rotate(-90 -4.635938 90.9)"> Elevation (mm)</text>
    </g>
   </g>
   <g id="line2d_10">
    <path d="M 22.5 91.901986 
L 162 91.901986 
" clip-path="url(#p14e0b20eee)" style="fill: none; stroke: #000000; stroke-linecap: square"/>
   </g>
   <g id="line2d_11">
    <defs>
     <path id="ma507835fb7" d="M 0 2.5 
C 0.663008 2.5 1.29895 2.236584 1.767767 1.767767 
C 2.236584 1.29895 2.5 0.663008 2.5 0 
C 2.5 -0.663008 2.236584 -1.29895 1.767767 -1.767767 
C 1.29895 -2.236584 0.663008 -2.5 0 -2.5 
C -0.663008 -2.5 -1.29895 -2.236584 -1.767767 -1.767767 
C -2.236584 -1.29895 -2.5 -0.663008 -2.5 0 
C -2.5 0.663008 -2.236584 1.29895 -1.767767 1.767767 
C -1.29895 2.236584 -0.663008 2.5 0 2.5 
z
" style="stroke: #000000"/>
    </defs>
    <g clip-path="url(#p14e0b20eee)">
     <use xlink:href="#ma507835fb7" x="50.4" y="128.97181" style="stroke: #000000"/>
    </g>
   </g>
   <g id="line2d_12">
    <path d="M 50.4 143.413475 
L 50.4 114.685182 
" clip-path="url(#p14e0b20eee)" style="fill: none; stroke: #000000; stroke-width: 2.5; stroke-linecap: square"/>
   </g>
   <g id="line2d_13">
    <g clip-path="url(#p14e0b20eee)">
     <use xlink:href="#ma507835fb7" x="78.3" y="73.471092" style="stroke: #000000"/>
    </g>
   </g>
   <g id="line2d_14">
    <path d="M 78.3 86.559022 
L 78.3 59.434092 
" clip-path="url(#p14e0b20eee)" style="fill: none; stroke: #000000; stroke-width: 2.5; stroke-linecap: square"/>
   </g>
   <g id="line2d_15">
    <g clip-path="url(#p14e0b20eee)">
     <use xlink:href="#ma507835fb7" x="106.2" y="114.641032" style="stroke: #000000"/>
    </g>
   </g>
   <g id="line2d_16">
    <path d="M 106.2 128.256393 
L 106.2 100.889293 
" clip-path="url(#p14e0b20eee)" style="fill: none; stroke: #000000; stroke-width: 2.5; stroke-linecap: square"/>
   </g>
   <g id="line2d_17">
    <g clip-path="url(#p14e0b20eee)">
     <use xlink:href="#ma507835fb7" x="134.1" y="82.396816" style="stroke: #000000"/>
    </g>
   </g>
   <g id="line2d_18">
    <path d="M 134.1 103.142921 
L 134.1 58.950985 
" clip-path="url(#p14e0b20eee)" style="fill: none; stroke: #000000; stroke-width: 2.5; stroke-linecap: square"/>
   </g>
   <g id="patch_3">
    <path d="M 22.5 160.2 
L 22.5 21.6 
" style="fill: none; stroke: #000000; stroke-width: 0.8; stroke-linejoin: miter; stroke-linecap: square"/>
   </g>
   <g id="patch_4">
    <path d="M 162 160.2 
L 162 21.6 
" style="fill: none"/>
   </g>
   <g id="patch_5">
    <path d="M 22.5 160.2 
L 162 160.2 
" style="fill: none"/>
   </g>
   <g id="patch_6">
    <path d="M 22.5 21.6 
L 162 21.6 
" style="fill: none"/>
   </g>
   <g id="text_11">
    <text style="fill: #d3436e; font: 10px 'inter', sans-serif; text-anchor: start" x="162" y="77.86858" transform="rotate(-0 162 77.86858)">24 h</text>
   </g>
   <g id="text_12">
    <text style="fill: #5f187f; font: 10px 'inter', sans-serif; text-anchor: start" x="162" y="71.727678" transform="rotate(-0 162 71.727678)">48 h</text>
   </g>
   <g id="text_13">
    <text style="font: 500 15px 'inter', sans-serif; text-anchor: middle" x="92.25" y="15.6" transform="rotate(-0 92.25 15.6)">Elevation</text>
   </g>
  </g>
 </g>
 <defs>
  <clipPath id="p14e0b20eee">
   <rect x="22.5" y="21.6" width="139.5" height="138.6"/>
  </clipPath>
 </defs>
</svg>
