<?xml version="1.0" encoding="utf-8" standalone="no"?>
<!DOCTYPE svg PUBLIC "-//W3C//DTD SVG 1.1//EN"
  "http://www.w3.org/Graphics/SVG/1.1/DTD/svg11.dtd">
<svg xmlns:xlink="http://www.w3.org/1999/xlink" width="180pt" height="180pt" viewBox="0 0 180 180" xmlns="http://www.w3.org/2000/svg" version="1.1">
 <metadata>
  <rdf:RDF xmlns:dc="http://purl.org/dc/elements/1.1/" xmlns:cc="http://creativecommons.org/ns#" xmlns:rdf="http://www.w3.org/1999/02/22-rdf-syntax-ns#">
   <cc:Work>
    <dc:type rdf:resource="http://purl.org/dc/dcmitype/StillImage"/>
    <dc:date>2025-02-16T01:32:30.812808</dc:date>
    <dc:format>image/svg+xml</dc:format>
    <dc:creator>
     <cc:Agent>
      <dc:title>Matplotlib v3.6.3, https://matplotlib.org/</dc:title>
     </cc:Agent>
    </dc:creator>
   </cc:Work>
  </rdf:RDF>
 </metadata>
 <defs>
  <style type="text/css">*{stroke-linejoin: round; stroke-linecap: butt}</style>
 </defs>
 <g id="figure_1">
  <g id="patch_1">
   <path d="M 0 180 
L 180 180 
L 180 0 
L 0 0 
z
" style="fill: #ffffff"/>
  </g>
  <g id="axes_1">
   <g id="patch_2">
    <path d="M 22.5 160.2 
L 162 160.2 
L 162 21.6 
L 22.5 21.6 
z
" style="fill: #ffffff"/>
   </g>
   <g id="PolyCollection_1">
    <defs>
     <path id="mf55167b629" d="M 50.422164 -100.420805 
L 50.400572 -100.420805 
L 50.400572 -100.942817 
L 50.400572 -101.464829 
L 50.400572 -101.986841 
L 50.400572 -102.508853 
L 50.400572 -103.030865 
L 50.400572 -103.552877 
L 50.400572 -104.07489 
L 50.400572 -104.596902 
L 50.400572 -105.118914 
L 50.400572 -105.640926 
L 50.400572 -106.162938 
L 50.400572 -106.68495 
L 50.400572 -107.206962 
L 50.400572 -107.728974 
L 50.400572 -108.250986 
L 50.400572 -108.772998 
L 50.400572 -109.29501 
L 50.400572 -109.817022 
L 50.400572 -110.339034 
L 50.400572 -110.861046 
L 50.400572 -111.383059 
L 50.400572 -111.905071 
L 50.400572 -112.427083 
L 50.400572 -112.949095 
L 50.400572 -113.471107 
L 50.400572 -113.993119 
L 50.400572 -114.515131 
L 50.400572 -115.037143 
L 50.400572 -115.559155 
L 50.400572 -116.081167 
L 50.400572 -116.603179 
L 50.400572 -117.125191 
L 50.400572 -117.647203 
L 50.400572 -118.169215 
L 50.400572 -118.691227 
L 50.400572 -119.21324 
L 50.400572 -119.735252 
L 50.400572 -120.257264 
L 50.400572 -120.779276 
L 50.400572 -121.301288 
L 50.400572 -121.8233 
L 50.400572 -122.345312 
L 50.400572 -122.867324 
L 50.400572 -123.389336 
L 50.400572 -123.911348 
L 50.400572 -124.43336 
L 50.400572 -124.955372 
L 50.400572 -125.477384 
L 50.400572 -125.999396 
L 50.400572 -126.521409 
L 50.400572 -127.043421 
L 50.400572 -127.565433 
L 50.400572 -128.087445 
L 50.400572 -128.609457 
L 50.400572 -129.131469 
L 50.400572 -129.653481 
L 50.400572 -130.175493 
L 50.400572 -130.697505 
L 50.400572 -131.219517 
L 50.400572 -131.741529 
L 50.400572 -132.263541 
L 50.400572 -132.785553 
L 50.400572 -133.307565 
L 50.400572 -133.829578 
L 50.400572 -134.35159 
L 50.400572 -134.873602 
L 50.400572 -135.395614 
L 50.400572 -135.917626 
L 50.400572 -136.439638 
L 50.400572 -136.96165 
L 50.400572 -137.483662 
L 50.400572 -138.005674 
L 50.400572 -138.527686 
L 50.400572 -139.049698 
L 50.400572 -139.57171 
L 50.400572 -140.093722 
L 50.400572 -140.615734 
L 50.400572 -141.137747 
L 50.400572 -141.659759 
L 50.400572 -142.181771 
L 50.400572 -142.703783 
L 50.400572 -143.225795 
L 50.400572 -143.747807 
L 50.400572 -144.269819 
L 50.400572 -144.791831 
L 50.400572 -145.313843 
L 50.400572 -145.835855 
L 50.400572 -146.357867 
L 50.400572 -146.879879 
L 50.400572 -147.401891 
L 50.400572 -147.923903 
L 50.400572 -148.445916 
L 50.400572 -148.967928 
L 50.400572 -149.48994 
L 50.400572 -150.011952 
L 50.400572 -150.533964 
L 50.400572 -151.055976 
L 50.400572 -151.577988 
L 50.400572 -152.1 
L 50.471736 -152.1 
L 50.471736 -152.1 
L 50.490854 -151.577988 
L 50.509122 -151.055976 
L 50.527194 -150.533964 
L 50.546471 -150.011952 
L 50.567945 -149.48994 
L 50.591695 -148.967928 
L 50.617595 -148.445916 
L 50.646717 -147.923903 
L 50.682137 -147.401891 
L 50.728327 -146.879879 
L 50.789456 -146.357867 
L 50.86783 -145.835855 
L 50.963425 -145.313843 
L 51.074455 -144.791831 
L 51.198362 -144.269819 
L 51.33286 -143.747807 
L 51.476868 -143.225795 
L 51.630799 -142.703783 
L 51.795584 -142.181771 
L 51.971089 -141.659759 
L 52.155917 -141.137747 
L 52.349789 -140.615734 
L 52.556668 -140.093722 
L 52.784795 -139.57171 
L 53.041926 -139.049698 
L 53.32861 -138.527686 
L 53.634732 -138.005674 
L 53.942221 -137.483662 
L 54.232544 -136.96165 
L 54.494838 -136.439638 
L 54.730469 -135.917626 
L 54.951642 -135.395614 
L 55.17452 -134.873602 
L 55.410334 -134.35159 
L 55.659485 -133.829578 
L 55.912231 -133.307565 
L 56.155153 -132.785553 
L 56.378352 -132.263541 
L 56.578348 -131.741529 
L 56.756429 -131.219517 
L 56.915767 -130.697505 
L 57.059075 -130.175493 
L 57.185707 -129.653481 
L 57.288766 -129.131469 
L 57.355892 -128.609457 
L 57.375 -128.087445 
L 57.340025 -127.565433 
L 57.251103 -127.043421 
L 57.110599 -126.521409 
L 56.921598 -125.999396 
L 56.691569 -125.477384 
L 56.43613 -124.955372 
L 56.176194 -124.43336 
L 55.92829 -123.911348 
L 55.695655 -123.389336 
L 55.468409 -122.867324 
L 55.233504 -122.345312 
L 54.985943 -121.8233 
L 54.731578 -121.301288 
L 54.48029 -120.779276 
L 54.237375 -120.257264 
L 54.00102 -119.735252 
L 53.766249 -119.21324 
L 53.529909 -118.691227 
L 53.292304 -118.169215 
L 53.055548 -117.647203 
L 52.821358 -117.125191 
L 52.590456 -116.603179 
L 52.363684 -116.081167 
L 52.143458 -115.559155 
L 51.934119 -115.037143 
L 51.740707 -114.515131 
L 51.566811 -113.993119 
L 51.412893 -113.471107 
L 51.276601 -112.949095 
L 51.155269 -112.427083 
L 51.048593 -111.905071 
L 50.95875 -111.383059 
L 50.887395 -110.861046 
L 50.83213 -110.339034 
L 50.785827 -109.817022 
L 50.73968 -109.29501 
L 50.68777 -108.772998 
L 50.629879 -108.250986 
L 50.570947 -107.728974 
L 50.518015 -107.206962 
L 50.476806 -106.68495 
L 50.449644 -106.162938 
L 50.435245 -105.640926 
L 50.429928 -105.118914 
L 50.429384 -104.596902 
L 50.430222 -104.07489 
L 50.430703 -103.552877 
L 50.430531 -103.030865 
L 50.430031 -102.508853 
L 50.429348 -101.986841 
L 50.428145 -101.464829 
L 50.425853 -100.942817 
L 50.422164 -100.420805 
z
"/>
    </defs>
    <g clip-path="url(#p7d07a55afd)">
     <use xlink:href="#mf55167b629" x="0" y="180" style="fill: #ff4500; fill-opacity: 0.4"/>
    </g>
   </g>
   <g id="PolyCollection_2">
    <defs>
     <path id="m11445be996" d="M 78.324619 -37.498275 
L 78.300288 -37.498275 
L 78.300288 -38.132102 
L 78.300288 -38.765928 
L 78.300288 -39.399754 
L 78.300288 -40.033581 
L 78.300288 -40.667407 
L 78.300288 -41.301233 
L 78.300288 -41.935059 
L 78.300288 -42.568886 
L 78.300288 -43.202712 
L 78.300288 -43.836538 
L 78.300288 -44.470365 
L 78.300288 -45.104191 
L 78.300288 -45.738017 
L 78.300288 -46.371844 
L 78.300288 -47.00567 
L 78.300288 -47.639496 
L 78.300288 -48.273323 
L 78.300288 -48.907149 
L 78.300288 -49.540975 
L 78.300288 -50.174801 
L 78.300288 -50.808628 
L 78.300288 -51.442454 
L 78.300288 -52.07628 
L 78.300288 -52.710107 
L 78.300288 -53.343933 
L 78.300288 -53.977759 
L 78.300288 -54.611586 
L 78.300288 -55.245412 
L 78.300288 -55.879238 
L 78.300288 -56.513064 
L 78.300288 -57.146891 
L 78.300288 -57.780717 
L 78.300288 -58.414543 
L 78.300288 -59.04837 
L 78.300288 -59.682196 
L 78.300288 -60.316022 
L 78.300288 -60.949849 
L 78.300288 -61.583675 
L 78.300288 -62.217501 
L 78.300288 -62.851328 
L 78.300288 -63.485154 
L 78.300288 -64.11898 
L 78.300288 -64.752806 
L 78.300288 -65.386633 
L 78.300288 -66.020459 
L 78.300288 -66.654285 
L 78.300288 -67.288112 
L 78.300288 -67.921938 
L 78.300288 -68.555764 
L 78.300288 -69.189591 
L 78.300288 -69.823417 
L 78.300288 -70.457243 
L 78.300288 -71.09107 
L 78.300288 -71.724896 
L 78.300288 -72.358722 
L 78.300288 -72.992548 
L 78.300288 -73.626375 
L 78.300288 -74.260201 
L 78.300288 -74.894027 
L 78.300288 -75.527854 
L 78.300288 -76.16168 
L 78.300288 -76.795506 
L 78.300288 -77.429333 
L 78.300288 -78.063159 
L 78.300288 -78.696985 
L 78.300288 -79.330812 
L 78.300288 -79.964638 
L 78.300288 -80.598464 
L 78.300288 -81.23229 
L 78.300288 -81.866117 
L 78.300288 -82.499943 
L 78.300288 -83.133769 
L 78.300288 -83.767596 
L 78.300288 -84.401422 
L 78.300288 -85.035248 
L 78.300288 -85.669075 
L 78.300288 -86.302901 
L 78.300288 -86.936727 
L 78.300288 -87.570554 
L 78.300288 -88.20438 
L 78.300288 -88.838206 
L 78.300288 -89.472032 
L 78.300288 -90.105859 
L 78.300288 -90.739685 
L 78.300288 -91.373511 
L 78.300288 -92.007338 
L 78.300288 -92.641164 
L 78.300288 -93.27499 
L 78.300288 -93.908817 
L 78.300288 -94.542643 
L 78.300288 -95.176469 
L 78.300288 -95.810296 
L 78.300288 -96.444122 
L 78.300288 -97.077948 
L 78.300288 -97.711774 
L 78.300288 -98.345601 
L 78.300288 -98.979427 
L 78.300288 -99.613253 
L 78.300288 -100.24708 
L 78.30931 -100.24708 
L 78.30931 -100.24708 
L 78.310718 -99.613253 
L 78.312522 -98.979427 
L 78.315543 -98.345601 
L 78.320501 -97.711774 
L 78.3278 -97.077948 
L 78.337574 -96.444122 
L 78.349895 -95.810296 
L 78.364981 -95.176469 
L 78.38324 -94.542643 
L 78.405164 -93.908817 
L 78.431202 -93.27499 
L 78.461792 -92.641164 
L 78.497486 -92.007338 
L 78.538961 -91.373511 
L 78.586886 -90.739685 
L 78.641889 -90.105859 
L 78.704764 -89.472032 
L 78.776492 -88.838206 
L 78.85758 -88.20438 
L 78.947126 -87.570554 
L 79.042905 -86.936727 
L 79.143149 -86.302901 
L 79.248817 -85.669075 
L 79.364379 -85.035248 
L 79.496249 -84.401422 
L 79.649827 -83.767596 
L 79.827052 -83.133769 
L 80.026208 -82.499943 
L 80.244343 -81.866117 
L 80.480221 -81.23229 
L 80.73452 -80.598464 
L 81.006353 -79.964638 
L 81.289772 -79.330812 
L 81.574859 -78.696985 
L 81.85302 -78.063159 
L 82.120591 -77.429333 
L 82.376273 -76.795506 
L 82.615477 -76.16168 
L 82.82928 -75.527854 
L 83.011158 -74.894027 
L 83.166032 -74.260201 
L 83.313279 -73.626375 
L 83.480604 -72.992548 
L 83.692594 -72.358722 
L 83.959823 -71.724896 
L 84.272439 -71.09107 
L 84.600206 -70.457243 
L 84.899851 -69.823417 
L 85.128106 -69.189591 
L 85.255521 -68.555764 
L 85.275 -67.921938 
L 85.201764 -67.288112 
L 85.065653 -66.654285 
L 84.899698 -66.020459 
L 84.729905 -65.386633 
L 84.570298 -64.752806 
L 84.423945 -64.11898 
L 84.286491 -63.485154 
L 84.147841 -62.851328 
L 83.99201 -62.217501 
L 83.799715 -61.583675 
L 83.556357 -60.949849 
L 83.260901 -60.316022 
L 82.92798 -59.682196 
L 82.581048 -59.04837 
L 82.242298 -58.414543 
L 81.926641 -57.780717 
L 81.641746 -57.146891 
L 81.390521 -56.513064 
L 81.17191 -55.879238 
L 80.979624 -55.245412 
L 80.80168 -54.611586 
L 80.623179 -53.977759 
L 80.431766 -53.343933 
L 80.223016 -52.710107 
L 80.00284 -52.07628 
L 79.785269 -51.442454 
L 79.586208 -50.808628 
L 79.416369 -50.174801 
L 79.277533 -49.540975 
L 79.163918 -48.907149 
L 79.066655 -48.273323 
L 78.977789 -47.639496 
L 78.892045 -47.00567 
L 78.807046 -46.371844 
L 78.723112 -45.738017 
L 78.642803 -45.104191 
L 78.56987 -44.470365 
L 78.507814 -43.836538 
L 78.458693 -43.202712 
L 78.422601 -42.568886 
L 78.397805 -41.935059 
L 78.381361 -41.301233 
L 78.369975 -40.667407 
L 78.36082 -40.033581 
L 78.352048 -39.399754 
L 78.342915 -38.765928 
L 78.333562 -38.132102 
L 78.324619 -37.498275 
z
"/>
    </defs>
    <g clip-path="url(#p7d07a55afd)">
     <use xlink:href="#m11445be996" x="0" y="180" style="fill: #2e8b57; fill-opacity: 0.4"/>
    </g>
   </g>
   <g id="PolyCollection_3">
    <defs>
     <path id="m7ca6224ee3" d="M 106.223411 -26.1 
L 106.200395 -26.1 
L 106.200395 -26.56155 
L 106.200395 -27.0231 
L 106.200395 -27.48465 
L 106.200395 -27.9462 
L 106.200395 -28.40775 
L 106.200395 -28.8693 
L 106.200395 -29.33085 
L 106.200395 -29.7924 
L 106.200395 -30.25395 
L 106.200395 -30.7155 
L 106.200395 -31.17705 
L 106.200395 -31.6386 
L 106.200395 -32.100151 
L 106.200395 -32.561701 
L 106.200395 -33.023251 
L 106.200395 -33.484801 
L 106.200395 -33.946351 
L 106.200395 -34.407901 
L 106.200395 -34.869451 
L 106.200395 -35.331001 
L 106.200395 -35.792551 
L 106.200395 -36.254101 
L 106.200395 -36.715651 
L 106.200395 -37.177201 
L 106.200395 -37.638751 
L 106.200395 -38.100301 
L 106.200395 -38.561851 
L 106.200395 -39.023401 
L 106.200395 -39.484951 
L 106.200395 -39.946501 
L 106.200395 -40.408051 
L 106.200395 -40.869601 
L 106.200395 -41.331151 
L 106.200395 -41.792701 
L 106.200395 -42.254251 
L 106.200395 -42.715801 
L 106.200395 -43.177352 
L 106.200395 -43.638902 
L 106.200395 -44.100452 
L 106.200395 -44.562002 
L 106.200395 -45.023552 
L 106.200395 -45.485102 
L 106.200395 -45.946652 
L 106.200395 -46.408202 
L 106.200395 -46.869752 
L 106.200395 -47.331302 
L 106.200395 -47.792852 
L 106.200395 -48.254402 
L 106.200395 -48.715952 
L 106.200395 -49.177502 
L 106.200395 -49.639052 
L 106.200395 -50.100602 
L 106.200395 -50.562152 
L 106.200395 -51.023702 
L 106.200395 -51.485252 
L 106.200395 -51.946802 
L 106.200395 -52.408352 
L 106.200395 -52.869902 
L 106.200395 -53.331452 
L 106.200395 -53.793002 
L 106.200395 -54.254552 
L 106.200395 -54.716103 
L 106.200395 -55.177653 
L 106.200395 -55.639203 
L 106.200395 -56.100753 
L 106.200395 -56.562303 
L 106.200395 -57.023853 
L 106.200395 -57.485403 
L 106.200395 -57.946953 
L 106.200395 -58.408503 
L 106.200395 -58.870053 
L 106.200395 -59.331603 
L 106.200395 -59.793153 
L 106.200395 -60.254703 
L 106.200395 -60.716253 
L 106.200395 -61.177803 
L 106.200395 -61.639353 
L 106.200395 -62.100903 
L 106.200395 -62.562453 
L 106.200395 -63.024003 
L 106.200395 -63.485553 
L 106.200395 -63.947103 
L 106.200395 -64.408653 
L 106.200395 -64.870203 
L 106.200395 -65.331753 
L 106.200395 -65.793303 
L 106.200395 -66.254854 
L 106.200395 -66.716404 
L 106.200395 -67.177954 
L 106.200395 -67.639504 
L 106.200395 -68.101054 
L 106.200395 -68.562604 
L 106.200395 -69.024154 
L 106.200395 -69.485704 
L 106.200395 -69.947254 
L 106.200395 -70.408804 
L 106.200395 -70.870354 
L 106.200395 -71.331904 
L 106.200395 -71.793454 
L 106.233437 -71.793454 
L 106.233437 -71.793454 
L 106.242551 -71.331904 
L 106.251661 -70.870354 
L 106.261105 -70.408804 
L 106.271531 -69.947254 
L 106.2838 -69.485704 
L 106.299158 -69.024154 
L 106.319451 -68.562604 
L 106.346905 -68.101054 
L 106.383227 -67.639504 
L 106.428554 -67.177954 
L 106.481286 -66.716404 
L 106.539267 -66.254854 
L 106.601468 -65.793303 
L 106.668744 -65.331753 
L 106.743067 -64.870203 
L 106.825953 -64.408653 
L 106.917267 -63.947103 
L 107.015294 -63.485553 
L 107.118302 -63.024003 
L 107.226934 -62.562453 
L 107.345853 -62.100903 
L 107.483008 -61.639353 
L 107.646487 -61.177803 
L 107.840907 -60.716253 
L 108.065593 -60.254703 
L 108.31514 -59.793153 
L 108.58175 -59.331603 
L 108.858794 -58.870053 
L 109.144636 -58.408503 
L 109.444171 -57.946953 
L 109.765596 -57.485403 
L 110.113448 -57.023853 
L 110.482783 -56.562303 
L 110.859036 -56.100753 
L 111.223332 -55.639203 
L 111.558934 -55.177653 
L 111.855201 -54.716103 
L 112.10904 -54.254552 
L 112.324951 -53.793002 
L 112.512923 -53.331452 
L 112.683178 -52.869902 
L 112.839908 -52.408352 
L 112.978247 -51.946802 
L 113.086716 -51.485252 
L 113.153758 -51.023702 
L 113.175 -50.562152 
L 113.157105 -50.100602 
L 113.115082 -49.639052 
L 113.064159 -49.177502 
L 113.012398 -48.715952 
L 112.959931 -48.254402 
L 112.903701 -47.792852 
L 112.840508 -47.331302 
L 112.763751 -46.869752 
L 112.658114 -46.408202 
L 112.500905 -45.946652 
L 112.272959 -45.485102 
L 111.972289 -45.023552 
L 111.620076 -44.562002 
L 111.253477 -44.100452 
L 110.908333 -43.638902 
L 110.601629 -43.177352 
L 110.324505 -42.715801 
L 110.050509 -42.254251 
L 109.753618 -41.792701 
L 109.423975 -41.331151 
L 109.071929 -40.869601 
L 108.720386 -40.408051 
L 108.393062 -39.946501 
L 108.106235 -39.484951 
L 107.866356 -39.023401 
L 107.671424 -38.561851 
L 107.513466 -38.100301 
L 107.381236 -37.638751 
L 107.263273 -37.177201 
L 107.150978 -36.715651 
L 107.040608 -36.254101 
L 106.933171 -35.792551 
L 106.832191 -35.331001 
L 106.740508 -34.869451 
L 106.658169 -34.407901 
L 106.582928 -33.946351 
L 106.512762 -33.484801 
L 106.447949 -33.023251 
L 106.390814 -32.561701 
L 106.343613 -32.100151 
L 106.306723 -31.6386 
L 106.27864 -31.17705 
L 106.257351 -30.7155 
L 106.241534 -30.25395 
L 106.230682 -29.7924 
L 106.224509 -29.33085 
L 106.22242 -28.8693 
L 106.223345 -28.40775 
L 106.225813 -27.9462 
L 106.228171 -27.48465 
L 106.228963 -27.0231 
L 106.22736 -26.56155 
L 106.223411 -26.1 
z
"/>
    </defs>
    <g clip-path="url(#p7d07a55afd)">
     <use xlink:href="#m7ca6224ee3" x="0" y="180" style="fill: #ff4500; fill-opacity: 0.4"/>
    </g>
   </g>
   <g id="PolyCollection_4">
    <defs>
     <path id="m188f7dafa4" d="M 134.107562 -41.659353 
L 134.100224 -41.659353 
L 134.100224 -42.547612 
L 134.100224 -43.435872 
L 134.100224 -44.324131 
L 134.100224 -45.21239 
L 134.100224 -46.10065 
L 134.100224 -46.988909 
L 134.100224 -47.877169 
L 134.100224 -48.765428 
L 134.100224 -49.653687 
L 134.100224 -50.541947 
L 134.100224 -51.430206 
L 134.100224 -52.318465 
L 134.100224 -53.206725 
L 134.100224 -54.094984 
L 134.100224 -54.983244 
L 134.100224 -55.871503 
L 134.100224 -56.759762 
L 134.100224 -57.648022 
L 134.100224 -58.536281 
L 134.100224 -59.424541 
L 134.100224 -60.3128 
L 134.100224 -61.201059 
L 134.100224 -62.089319 
L 134.100224 -62.977578 
L 134.100224 -63.865838 
L 134.100224 -64.754097 
L 134.100224 -65.642356 
L 134.100224 -66.530616 
L 134.100224 -67.418875 
L 134.100224 -68.307135 
L 134.100224 -69.195394 
L 134.100224 -70.083653 
L 134.100224 -70.971913 
L 134.100224 -71.860172 
L 134.100224 -72.748431 
L 134.100224 -73.636691 
L 134.100224 -74.52495 
L 134.100224 -75.41321 
L 134.100224 -76.301469 
L 134.100224 -77.189728 
L 134.100224 -78.077988 
L 134.100224 -78.966247 
L 134.100224 -79.854507 
L 134.100224 -80.742766 
L 134.100224 -81.631025 
L 134.100224 -82.519285 
L 134.100224 -83.407544 
L 134.100224 -84.295804 
L 134.100224 -85.184063 
L 134.100224 -86.072322 
L 134.100224 -86.960582 
L 134.100224 -87.848841 
L 134.100224 -88.737101 
L 134.100224 -89.62536 
L 134.100224 -90.513619 
L 134.100224 -91.401879 
L 134.100224 -92.290138 
L 134.100224 -93.178398 
L 134.100224 -94.066657 
L 134.100224 -94.954916 
L 134.100224 -95.843176 
L 134.100224 -96.731435 
L 134.100224 -97.619694 
L 134.100224 -98.507954 
L 134.100224 -99.396213 
L 134.100224 -100.284473 
L 134.100224 -101.172732 
L 134.100224 -102.060991 
L 134.100224 -102.949251 
L 134.100224 -103.83751 
L 134.100224 -104.72577 
L 134.100224 -105.614029 
L 134.100224 -106.502288 
L 134.100224 -107.390548 
L 134.100224 -108.278807 
L 134.100224 -109.167067 
L 134.100224 -110.055326 
L 134.100224 -110.943585 
L 134.100224 -111.831845 
L 134.100224 -112.720104 
L 134.100224 -113.608364 
L 134.100224 -114.496623 
L 134.100224 -115.384882 
L 134.100224 -116.273142 
L 134.100224 -117.161401 
L 134.100224 -118.049661 
L 134.100224 -118.93792 
L 134.100224 -119.826179 
L 134.100224 -120.714439 
L 134.100224 -121.602698 
L 134.100224 -122.490957 
L 134.100224 -123.379217 
L 134.100224 -124.267476 
L 134.100224 -125.155736 
L 134.100224 -126.043995 
L 134.100224 -126.932254 
L 134.100224 -127.820514 
L 134.100224 -128.708773 
L 134.100224 -129.597033 
L 134.130375 -129.597033 
L 134.130375 -129.597033 
L 134.141741 -128.708773 
L 134.15622 -127.820514 
L 134.175132 -126.932254 
L 134.198364 -126.043995 
L 134.223735 -125.155736 
L 134.248309 -124.267476 
L 134.271134 -123.379217 
L 134.295376 -122.490957 
L 134.327703 -121.602698 
L 134.374869 -120.714439 
L 134.439941 -119.826179 
L 134.520819 -118.93792 
L 134.611665 -118.049661 
L 134.70608 -117.161401 
L 134.800747 -116.273142 
L 134.898599 -115.384882 
L 135.009766 -114.496623 
L 135.148206 -113.608364 
L 135.324631 -112.720104 
L 135.540426 -111.831845 
L 135.787955 -110.943585 
L 136.057955 -110.055326 
L 136.347621 -109.167067 
L 136.660494 -108.278807 
L 136.997363 -107.390548 
L 137.349504 -106.502288 
L 137.7044 -105.614029 
L 138.057356 -104.72577 
L 138.412005 -103.83751 
L 138.765347 -102.949251 
L 139.094479 -102.060991 
L 139.364609 -101.172732 
L 139.555687 -100.284473 
L 139.682716 -99.396213 
L 139.788665 -98.507954 
L 139.915848 -97.619694 
L 140.082373 -96.731435 
L 140.281978 -95.843176 
L 140.498498 -94.954916 
L 140.713443 -94.066657 
L 140.901824 -93.178398 
L 141.031485 -92.290138 
L 141.075 -91.401879 
L 141.023109 -90.513619 
L 140.886273 -89.62536 
L 140.685641 -88.737101 
L 140.442807 -87.848841 
L 140.173934 -86.960582 
L 139.888408 -86.072322 
L 139.589628 -85.184063 
L 139.276544 -84.295804 
L 138.948072 -83.407544 
L 138.610624 -82.519285 
L 138.281126 -81.631025 
L 137.978541 -80.742766 
L 137.710285 -79.854507 
L 137.467527 -78.966247 
L 137.233369 -78.077988 
L 136.994137 -77.189728 
L 136.743765 -76.301469 
L 136.481931 -75.41321 
L 136.212615 -74.52495 
L 135.944965 -73.636691 
L 135.691906 -72.748431 
L 135.464316 -71.860172 
L 135.265863 -70.971913 
L 135.094014 -70.083653 
L 134.945573 -69.195394 
L 134.820307 -68.307135 
L 134.719421 -67.418875 
L 134.641668 -66.530616 
L 134.581633 -65.642356 
L 134.531221 -64.754097 
L 134.482331 -63.865838 
L 134.429263 -62.977578 
L 134.370639 -62.089319 
L 134.309972 -61.201059 
L 134.253746 -60.3128 
L 134.207775 -59.424541 
L 134.174464 -58.536281 
L 134.152775 -57.648022 
L 134.140071 -56.759762 
L 134.133727 -55.871503 
L 134.13147 -54.983244 
L 134.131073 -54.094984 
L 134.130438 -53.206725 
L 134.128234 -52.318465 
L 134.124329 -51.430206 
L 134.119451 -50.541947 
L 134.11445 -49.653687 
L 134.109906 -48.765428 
L 134.106189 -47.877169 
L 134.103589 -46.988909 
L 134.102289 -46.10065 
L 134.102307 -45.21239 
L 134.103455 -44.324131 
L 134.10525 -43.435872 
L 134.106895 -42.547612 
L 134.107562 -41.659353 
z
"/>
    </defs>
    <g clip-path="url(#p7d07a55afd)">
     <use xlink:href="#m188f7dafa4" x="0" y="180" style="fill: #2e8b57; fill-opacity: 0.4"/>
    </g>
   </g>
   <g id="PolyCollection_5">
    <path d="M 22.5 91.421139 
L 22.5 108.165881 
L 22.779 108.165881 
L 23.058 108.165881 
L 23.337 108.165881 
L 23.616 108.165881 
L 23.895 108.165881 
L 24.174 108.165881 
L 24.453 108.165881 
L 24.732 108.165881 
L 25.011 108.165881 
L 25.29 108.165881 
L 25.569 108.165881 
L 25.848 108.165881 
L 26.127 108.165881 
L 26.406 108.165881 
L 26.685 108.165881 
L 26.964 108.165881 
L 27.243 108.165881 
L 27.522 108.165881 
L 27.801 108.165881 
L 28.08 108.165881 
L 28.359 108.165881 
L 28.638 108.165881 
L 28.917 108.165881 
L 29.196 108.165881 
L 29.475 108.165881 
L 29.754 108.165881 
L 30.033 108.165881 
L 30.312 108.165881 
L 30.591 108.165881 
L 30.87 108.165881 
L 31.149 108.165881 
L 31.428 108.165881 
L 31.707 108.165881 
L 31.986 108.165881 
L 32.265 108.165881 
L 32.544 108.165881 
L 32.823 108.165881 
L 33.102 108.165881 
L 33.381 108.165881 
L 33.66 108.165881 
L 33.939 108.165881 
L 34.218 108.165881 
L 34.497 108.165881 
L 34.776 108.165881 
L 35.055 108.165881 
L 35.334 108.165881 
L 35.613 108.165881 
L 35.892 108.165881 
L 36.171 108.165881 
L 36.45 108.165881 
L 36.729 108.165881 
L 37.008 108.165881 
L 37.287 108.165881 
L 37.566 108.165881 
L 37.845 108.165881 
L 38.124 108.165881 
L 38.403 108.165881 
L 38.682 108.165881 
L 38.961 108.165881 
L 39.24 108.165881 
L 39.519 108.165881 
L 39.798 108.165881 
L 40.077 108.165881 
L 40.356 108.165881 
L 40.635 108.165881 
L 40.914 108.165881 
L 41.193 108.165881 
L 41.472 108.165881 
L 41.751 108.165881 
L 42.03 108.165881 
L 42.309 108.165881 
L 42.588 108.165881 
L 42.867 108.165881 
L 43.146 108.165881 
L 43.425 108.165881 
L 43.704 108.165881 
L 43.983 108.165881 
L 44.262 108.165881 
L 44.541 108.165881 
L 44.82 108.165881 
L 45.099 108.165881 
L 45.378 108.165881 
L 45.657 108.165881 
L 45.936 108.165881 
L 46.215 108.165881 
L 46.494 108.165881 
L 46.773 108.165881 
L 47.052 108.165881 
L 47.331 108.165881 
L 47.61 108.165881 
L 47.889 108.165881 
L 48.168 108.165881 
L 48.447 108.165881 
L 48.726 108.165881 
L 49.005 108.165881 
L 49.284 108.165881 
L 49.563 108.165881 
L 49.842 108.165881 
L 50.121 108.165881 
L 50.4 108.165881 
L 50.679 108.165881 
L 50.958 108.165881 
L 51.237 108.165881 
L 51.516 108.165881 
L 51.795 108.165881 
L 52.074 108.165881 
L 52.353 108.165881 
L 52.632 108.165881 
L 52.911 108.165881 
L 53.19 108.165881 
L 53.469 108.165881 
L 53.748 108.165881 
L 54.027 108.165881 
L 54.306 108.165881 
L 54.585 108.165881 
L 54.864 108.165881 
L 55.143 108.165881 
L 55.422 108.165881 
L 55.701 108.165881 
L 55.98 108.165881 
L 56.259 108.165881 
L 56.538 108.165881 
L 56.817 108.165881 
L 57.096 108.165881 
L 57.375 108.165881 
L 57.654 108.165881 
L 57.933 108.165881 
L 58.212 108.165881 
L 58.491 108.165881 
L 58.77 108.165881 
L 59.049 108.165881 
L 59.328 108.165881 
L 59.607 108.165881 
L 59.886 108.165881 
L 60.165 108.165881 
L 60.444 108.165881 
L 60.723 108.165881 
L 61.002 108.165881 
L 61.281 108.165881 
L 61.56 108.165881 
L 61.839 108.165881 
L 62.118 108.165881 
L 62.397 108.165881 
L 62.676 108.165881 
L 62.955 108.165881 
L 63.234 108.165881 
L 63.513 108.165881 
L 63.792 108.165881 
L 64.071 108.165881 
L 64.35 108.165881 
L 64.629 108.165881 
L 64.908 108.165881 
L 65.187 108.165881 
L 65.466 108.165881 
L 65.745 108.165881 
L 66.024 108.165881 
L 66.303 108.165881 
L 66.582 108.165881 
L 66.861 108.165881 
L 67.14 108.165881 
L 67.419 108.165881 
L 67.698 108.165881 
L 67.977 108.165881 
L 68.256 108.165881 
L 68.535 108.165881 
L 68.814 108.165881 
L 69.093 108.165881 
L 69.372 108.165881 
L 69.651 108.165881 
L 69.93 108.165881 
L 70.209 108.165881 
L 70.488 108.165881 
L 70.767 108.165881 
L 71.046 108.165881 
L 71.325 108.165881 
L 71.604 108.165881 
L 71.883 108.165881 
L 72.162 108.165881 
L 72.441 108.165881 
L 72.72 108.165881 
L 72.999 108.165881 
L 73.278 108.165881 
L 73.557 108.165881 
L 73.836 108.165881 
L 74.115 108.165881 
L 74.394 108.165881 
L 74.673 108.165881 
L 74.952 108.165881 
L 75.231 108.165881 
L 75.51 108.165881 
L 75.789 108.165881 
L 76.068 108.165881 
L 76.347 108.165881 
L 76.626 108.165881 
L 76.905 108.165881 
L 77.184 108.165881 
L 77.463 108.165881 
L 77.742 108.165881 
L 78.021 108.165881 
L 78.3 108.165881 
L 78.579 108.165881 
L 78.858 108.165881 
L 79.137 108.165881 
L 79.416 108.165881 
L 79.695 108.165881 
L 79.974 108.165881 
L 80.253 108.165881 
L 80.532 108.165881 
L 80.811 108.165881 
L 81.09 108.165881 
L 81.369 108.165881 
L 81.648 108.165881 
L 81.927 108.165881 
L 82.206 108.165881 
L 82.485 108.165881 
L 82.764 108.165881 
L 83.043 108.165881 
L 83.322 108.165881 
L 83.601 108.165881 
L 83.88 108.165881 
L 84.159 108.165881 
L 84.438 108.165881 
L 84.717 108.165881 
L 84.996 108.165881 
L 85.275 108.165881 
L 85.554 108.165881 
L 85.833 108.165881 
L 86.112 108.165881 
L 86.391 108.165881 
L 86.67 108.165881 
L 86.949 108.165881 
L 87.228 108.165881 
L 87.507 108.165881 
L 87.786 108.165881 
L 88.065 108.165881 
L 88.344 108.165881 
L 88.623 108.165881 
L 88.902 108.165881 
L 89.181 108.165881 
L 89.46 108.165881 
L 89.739 108.165881 
L 90.018 108.165881 
L 90.297 108.165881 
L 90.576 108.165881 
L 90.855 108.165881 
L 91.134 108.165881 
L 91.413 108.165881 
L 91.692 108.165881 
L 91.971 108.165881 
L 92.25 108.165881 
L 92.529 108.165881 
L 92.808 108.165881 
L 93.087 108.165881 
L 93.366 108.165881 
L 93.645 108.165881 
L 93.924 108.165881 
L 94.203 108.165881 
L 94.482 108.165881 
L 94.761 108.165881 
L 95.04 108.165881 
L 95.319 108.165881 
L 95.598 108.165881 
L 95.877 108.165881 
L 96.156 108.165881 
L 96.435 108.165881 
L 96.714 108.165881 
L 96.993 108.165881 
L 97.272 108.165881 
L 97.551 108.165881 
L 97.83 108.165881 
L 98.109 108.165881 
L 98.388 108.165881 
L 98.667 108.165881 
L 98.946 108.165881 
L 99.225 108.165881 
L 99.504 108.165881 
L 99.783 108.165881 
L 100.062 108.165881 
L 100.341 108.165881 
L 100.62 108.165881 
L 100.899 108.165881 
L 101.178 108.165881 
L 101.457 108.165881 
L 101.736 108.165881 
L 102.015 108.165881 
L 102.294 108.165881 
L 102.573 108.165881 
L 102.852 108.165881 
L 103.131 108.165881 
L 103.41 108.165881 
L 103.689 108.165881 
L 103.968 108.165881 
L 104.247 108.165881 
L 104.526 108.165881 
L 104.805 108.165881 
L 105.084 108.165881 
L 105.363 108.165881 
L 105.642 108.165881 
L 105.921 108.165881 
L 106.2 108.165881 
L 106.479 108.165881 
L 106.758 108.165881 
L 107.037 108.165881 
L 107.316 108.165881 
L 107.595 108.165881 
L 107.874 108.165881 
L 108.153 108.165881 
L 108.432 108.165881 
L 108.711 108.165881 
L 108.99 108.165881 
L 109.269 108.165881 
L 109.548 108.165881 
L 109.827 108.165881 
L 110.106 108.165881 
L 110.385 108.165881 
L 110.664 108.165881 
L 110.943 108.165881 
L 111.222 108.165881 
L 111.501 108.165881 
L 111.78 108.165881 
L 112.059 108.165881 
L 112.338 108.165881 
L 112.617 108.165881 
L 112.896 108.165881 
L 113.175 108.165881 
L 113.454 108.165881 
L 113.733 108.165881 
L 114.012 108.165881 
L 114.291 108.165881 
L 114.57 108.165881 
L 114.849 108.165881 
L 115.128 108.165881 
L 115.407 108.165881 
L 115.686 108.165881 
L 115.965 108.165881 
L 116.244 108.165881 
L 116.523 108.165881 
L 116.802 108.165881 
L 117.081 108.165881 
L 117.36 108.165881 
L 117.639 108.165881 
L 117.918 108.165881 
L 118.197 108.165881 
L 118.476 108.165881 
L 118.755 108.165881 
L 119.034 108.165881 
L 119.313 108.165881 
L 119.592 108.165881 
L 119.871 108.165881 
L 120.15 108.165881 
L 120.429 108.165881 
L 120.708 108.165881 
L 120.987 108.165881 
L 121.266 108.165881 
L 121.545 108.165881 
L 121.824 108.165881 
L 122.103 108.165881 
L 122.382 108.165881 
L 122.661 108.165881 
L 122.94 108.165881 
L 123.219 108.165881 
L 123.498 108.165881 
L 123.777 108.165881 
L 124.056 108.165881 
L 124.335 108.165881 
L 124.614 108.165881 
L 124.893 108.165881 
L 125.172 108.165881 
L 125.451 108.165881 
L 125.73 108.165881 
L 126.009 108.165881 
L 126.288 108.165881 
L 126.567 108.165881 
L 126.846 108.165881 
L 127.125 108.165881 
L 127.404 108.165881 
L 127.683 108.165881 
L 127.962 108.165881 
L 128.241 108.165881 
L 128.52 108.165881 
L 128.799 108.165881 
L 129.078 108.165881 
L 129.357 108.165881 
L 129.636 108.165881 
L 129.915 108.165881 
L 130.194 108.165881 
L 130.473 108.165881 
L 130.752 108.165881 
L 131.031 108.165881 
L 131.31 108.165881 
L 131.589 108.165881 
L 131.868 108.165881 
L 132.147 108.165881 
L 132.426 108.165881 
L 132.705 108.165881 
L 132.984 108.165881 
L 133.263 108.165881 
L 133.542 108.165881 
L 133.821 108.165881 
L 134.1 108.165881 
L 134.379 108.165881 
L 134.658 108.165881 
L 134.937 108.165881 
L 135.216 108.165881 
L 135.495 108.165881 
L 135.774 108.165881 
L 136.053 108.165881 
L 136.332 108.165881 
L 136.611 108.165881 
L 136.89 108.165881 
L 137.169 108.165881 
L 137.448 108.165881 
L 137.727 108.165881 
L 138.006 108.165881 
L 138.285 108.165881 
L 138.564 108.165881 
L 138.843 108.165881 
L 139.122 108.165881 
L 139.401 108.165881 
L 139.68 108.165881 
L 139.959 108.165881 
L 140.238 108.165881 
L 140.517 108.165881 
L 140.796 108.165881 
L 141.075 108.165881 
L 141.354 108.165881 
L 141.633 108.165881 
L 141.912 108.165881 
L 142.191 108.165881 
L 142.47 108.165881 
L 142.749 108.165881 
L 143.028 108.165881 
L 143.307 108.165881 
L 143.586 108.165881 
L 143.865 108.165881 
L 144.144 108.165881 
L 144.423 108.165881 
L 144.702 108.165881 
L 144.981 108.165881 
L 145.26 108.165881 
L 145.539 108.165881 
L 145.818 108.165881 
L 146.097 108.165881 
L 146.376 108.165881 
L 146.655 108.165881 
L 146.934 108.165881 
L 147.213 108.165881 
L 147.492 108.165881 
L 147.771 108.165881 
L 148.05 108.165881 
L 148.329 108.165881 
L 148.608 108.165881 
L 148.887 108.165881 
L 149.166 108.165881 
L 149.445 108.165881 
L 149.724 108.165881 
L 150.003 108.165881 
L 150.282 108.165881 
L 150.561 108.165881 
L 150.84 108.165881 
L 151.119 108.165881 
L 151.398 108.165881 
L 151.677 108.165881 
L 151.956 108.165881 
L 152.235 108.165881 
L 152.514 108.165881 
L 152.793 108.165881 
L 153.072 108.165881 
L 153.351 108.165881 
L 153.63 108.165881 
L 153.909 108.165881 
L 154.188 108.165881 
L 154.467 108.165881 
L 154.746 108.165881 
L 155.025 108.165881 
L 155.304 108.165881 
L 155.583 108.165881 
L 155.862 108.165881 
L 156.141 108.165881 
L 156.42 108.165881 
L 156.699 108.165881 
L 156.978 108.165881 
L 157.257 108.165881 
L 157.536 108.165881 
L 157.815 108.165881 
L 158.094 108.165881 
L 158.373 108.165881 
L 158.652 108.165881 
L 158.931 108.165881 
L 159.21 108.165881 
L 159.489 108.165881 
L 159.768 108.165881 
L 160.047 108.165881 
L 160.326 108.165881 
L 160.605 108.165881 
L 160.884 108.165881 
L 161.163 108.165881 
L 161.442 108.165881 
L 161.721 108.165881 
L 161.721 91.421139 
L 161.721 91.421139 
L 161.442 91.421139 
L 161.163 91.421139 
L 160.884 91.421139 
L 160.605 91.421139 
L 160.326 91.421139 
L 160.047 91.421139 
L 159.768 91.421139 
L 159.489 91.421139 
L 159.21 91.421139 
L 158.931 91.421139 
L 158.652 91.421139 
L 158.373 91.421139 
L 158.094 91.421139 
L 157.815 91.421139 
L 157.536 91.421139 
L 157.257 91.421139 
L 156.978 91.421139 
L 156.699 91.421139 
L 156.42 91.421139 
L 156.141 91.421139 
L 155.862 91.421139 
L 155.583 91.421139 
L 155.304 91.421139 
L 155.025 91.421139 
L 154.746 91.421139 
L 154.467 91.421139 
L 154.188 91.421139 
L 153.909 91.421139 
L 153.63 91.421139 
L 153.351 91.421139 
L 153.072 91.421139 
L 152.793 91.421139 
L 152.514 91.421139 
L 152.235 91.421139 
L 151.956 91.421139 
L 151.677 91.421139 
L 151.398 91.421139 
L 151.119 91.421139 
L 150.84 91.421139 
L 150.561 91.421139 
L 150.282 91.421139 
L 150.003 91.421139 
L 149.724 91.421139 
L 149.445 91.421139 
L 149.166 91.421139 
L 148.887 91.421139 
L 148.608 91.421139 
L 148.329 91.421139 
L 148.05 91.421139 
L 147.771 91.421139 
L 147.492 91.421139 
L 147.213 91.421139 
L 146.934 91.421139 
L 146.655 91.421139 
L 146.376 91.421139 
L 146.097 91.421139 
L 145.818 91.421139 
L 145.539 91.421139 
L 145.26 91.421139 
L 144.981 91.421139 
L 144.702 91.421139 
L 144.423 91.421139 
L 144.144 91.421139 
L 143.865 91.421139 
L 143.586 91.421139 
L 143.307 91.421139 
L 143.028 91.421139 
L 142.749 91.421139 
L 142.47 91.421139 
L 142.191 91.421139 
L 141.912 91.421139 
L 141.633 91.421139 
L 141.354 91.421139 
L 141.075 91.421139 
L 140.796 91.421139 
L 140.517 91.421139 
L 140.238 91.421139 
L 139.959 91.421139 
L 139.68 91.421139 
L 139.401 91.421139 
L 139.122 91.421139 
L 138.843 91.421139 
L 138.564 91.421139 
L 138.285 91.421139 
L 138.006 91.421139 
L 137.727 91.421139 
L 137.448 91.421139 
L 137.169 91.421139 
L 136.89 91.421139 
L 136.611 91.421139 
L 136.332 91.421139 
L 136.053 91.421139 
L 135.774 91.421139 
L 135.495 91.421139 
L 135.216 91.421139 
L 134.937 91.421139 
L 134.658 91.421139 
L 134.379 91.421139 
L 134.1 91.421139 
L 133.821 91.421139 
L 133.542 91.421139 
L 133.263 91.421139 
L 132.984 91.421139 
L 132.705 91.421139 
L 132.426 91.421139 
L 132.147 91.421139 
L 131.868 91.421139 
L 131.589 91.421139 
L 131.31 91.421139 
L 131.031 91.421139 
L 130.752 91.421139 
L 130.473 91.421139 
L 130.194 91.421139 
L 129.915 91.421139 
L 129.636 91.421139 
L 129.357 91.421139 
L 129.078 91.421139 
L 128.799 91.421139 
L 128.52 91.421139 
L 128.241 91.421139 
L 127.962 91.421139 
L 127.683 91.421139 
L 127.404 91.421139 
L 127.125 91.421139 
L 126.846 91.421139 
L 126.567 91.421139 
L 126.288 91.421139 
L 126.009 91.421139 
L 125.73 91.421139 
L 125.451 91.421139 
L 125.172 91.421139 
L 124.893 91.421139 
L 124.614 91.421139 
L 124.335 91.421139 
L 124.056 91.421139 
L 123.777 91.421139 
L 123.498 91.421139 
L 123.219 91.421139 
L 122.94 91.421139 
L 122.661 91.421139 
L 122.382 91.421139 
L 122.103 91.421139 
L 121.824 91.421139 
L 121.545 91.421139 
L 121.266 91.421139 
L 120.987 91.421139 
L 120.708 91.421139 
L 120.429 91.421139 
L 120.15 91.421139 
L 119.871 91.421139 
L 119.592 91.421139 
L 119.313 91.421139 
L 119.034 91.421139 
L 118.755 91.421139 
L 118.476 91.421139 
L 118.197 91.421139 
L 117.918 91.421139 
L 117.639 91.421139 
L 117.36 91.421139 
L 117.081 91.421139 
L 116.802 91.421139 
L 116.523 91.421139 
L 116.244 91.421139 
L 115.965 91.421139 
L 115.686 91.421139 
L 115.407 91.421139 
L 115.128 91.421139 
L 114.849 91.421139 
L 114.57 91.421139 
L 114.291 91.421139 
L 114.012 91.421139 
L 113.733 91.421139 
L 113.454 91.421139 
L 113.175 91.421139 
L 112.896 91.421139 
L 112.617 91.421139 
L 112.338 91.421139 
L 112.059 91.421139 
L 111.78 91.421139 
L 111.501 91.421139 
L 111.222 91.421139 
L 110.943 91.421139 
L 110.664 91.421139 
L 110.385 91.421139 
L 110.106 91.421139 
L 109.827 91.421139 
L 109.548 91.421139 
L 109.269 91.421139 
L 108.99 91.421139 
L 108.711 91.421139 
L 108.432 91.421139 
L 108.153 91.421139 
L 107.874 91.421139 
L 107.595 91.421139 
L 107.316 91.421139 
L 107.037 91.421139 
L 106.758 91.421139 
L 106.479 91.421139 
L 106.2 91.421139 
L 105.921 91.421139 
L 105.642 91.421139 
L 105.363 91.421139 
L 105.084 91.421139 
L 104.805 91.421139 
L 104.526 91.421139 
L 104.247 91.421139 
L 103.968 91.421139 
L 103.689 91.421139 
L 103.41 91.421139 
L 103.131 91.421139 
L 102.852 91.421139 
L 102.573 91.421139 
L 102.294 91.421139 
L 102.015 91.421139 
L 101.736 91.421139 
L 101.457 91.421139 
L 101.178 91.421139 
L 100.899 91.421139 
L 100.62 91.421139 
L 100.341 91.421139 
L 100.062 91.421139 
L 99.783 91.421139 
L 99.504 91.421139 
L 99.225 91.421139 
L 98.946 91.421139 
L 98.667 91.421139 
L 98.388 91.421139 
L 98.109 91.421139 
L 97.83 91.421139 
L 97.551 91.421139 
L 97.272 91.421139 
L 96.993 91.421139 
L 96.714 91.421139 
L 96.435 91.421139 
L 96.156 91.421139 
L 95.877 91.421139 
L 95.598 91.421139 
L 95.319 91.421139 
L 95.04 91.421139 
L 94.761 91.421139 
L 94.482 91.421139 
L 94.203 91.421139 
L 93.924 91.421139 
L 93.645 91.421139 
L 93.366 91.421139 
L 93.087 91.421139 
L 92.808 91.421139 
L 92.529 91.421139 
L 92.25 91.421139 
L 91.971 91.421139 
L 91.692 91.421139 
L 91.413 91.421139 
L 91.134 91.421139 
L 90.855 91.421139 
L 90.576 91.421139 
L 90.297 91.421139 
L 90.018 91.421139 
L 89.739 91.421139 
L 89.46 91.421139 
L 89.181 91.421139 
L 88.902 91.421139 
L 88.623 91.421139 
L 88.344 91.421139 
L 88.065 91.421139 
L 87.786 91.421139 
L 87.507 91.421139 
L 87.228 91.421139 
L 86.949 91.421139 
L 86.67 91.421139 
L 86.391 91.421139 
L 86.112 91.421139 
L 85.833 91.421139 
L 85.554 91.421139 
L 85.275 91.421139 
L 84.996 91.421139 
L 84.717 91.421139 
L 84.438 91.421139 
L 84.159 91.421139 
L 83.88 91.421139 
L 83.601 91.421139 
L 83.322 91.421139 
L 83.043 91.421139 
L 82.764 91.421139 
L 82.485 91.421139 
L 82.206 91.421139 
L 81.927 91.421139 
L 81.648 91.421139 
L 81.369 91.421139 
L 81.09 91.421139 
L 80.811 91.421139 
L 80.532 91.421139 
L 80.253 91.421139 
L 79.974 91.421139 
L 79.695 91.421139 
L 79.416 91.421139 
L 79.137 91.421139 
L 78.858 91.421139 
L 78.579 91.421139 
L 78.3 91.421139 
L 78.021 91.421139 
L 77.742 91.421139 
L 77.463 91.421139 
L 77.184 91.421139 
L 76.905 91.421139 
L 76.626 91.421139 
L 76.347 91.421139 
L 76.068 91.421139 
L 75.789 91.421139 
L 75.51 91.421139 
L 75.231 91.421139 
L 74.952 91.421139 
L 74.673 91.421139 
L 74.394 91.421139 
L 74.115 91.421139 
L 73.836 91.421139 
L 73.557 91.421139 
L 73.278 91.421139 
L 72.999 91.421139 
L 72.72 91.421139 
L 72.441 91.421139 
L 72.162 91.421139 
L 71.883 91.421139 
L 71.604 91.421139 
L 71.325 91.421139 
L 71.046 91.421139 
L 70.767 91.421139 
L 70.488 91.421139 
L 70.209 91.421139 
L 69.93 91.421139 
L 69.651 91.421139 
L 69.372 91.421139 
L 69.093 91.421139 
L 68.814 91.421139 
L 68.535 91.421139 
L 68.256 91.421139 
L 67.977 91.421139 
L 67.698 91.421139 
L 67.419 91.421139 
L 67.14 91.421139 
L 66.861 91.421139 
L 66.582 91.421139 
L 66.303 91.421139 
L 66.024 91.421139 
L 65.745 91.421139 
L 65.466 91.421139 
L 65.187 91.421139 
L 64.908 91.421139 
L 64.629 91.421139 
L 64.35 91.421139 
L 64.071 91.421139 
L 63.792 91.421139 
L 63.513 91.421139 
L 63.234 91.421139 
L 62.955 91.421139 
L 62.676 91.421139 
L 62.397 91.421139 
L 62.118 91.421139 
L 61.839 91.421139 
L 61.56 91.421139 
L 61.281 91.421139 
L 61.002 91.421139 
L 60.723 91.421139 
L 60.444 91.421139 
L 60.165 91.421139 
L 59.886 91.421139 
L 59.607 91.421139 
L 59.328 91.421139 
L 59.049 91.421139 
L 58.77 91.421139 
L 58.491 91.421139 
L 58.212 91.421139 
L 57.933 91.421139 
L 57.654 91.421139 
L 57.375 91.421139 
L 57.096 91.421139 
L 56.817 91.421139 
L 56.538 91.421139 
L 56.259 91.421139 
L 55.98 91.421139 
L 55.701 91.421139 
L 55.422 91.421139 
L 55.143 91.421139 
L 54.864 91.421139 
L 54.585 91.421139 
L 54.306 91.421139 
L 54.027 91.421139 
L 53.748 91.421139 
L 53.469 91.421139 
L 53.19 91.421139 
L 52.911 91.421139 
L 52.632 91.421139 
L 52.353 91.421139 
L 52.074 91.421139 
L 51.795 91.421139 
L 51.516 91.421139 
L 51.237 91.421139 
L 50.958 91.421139 
L 50.679 91.421139 
L 50.4 91.421139 
L 50.121 91.421139 
L 49.842 91.421139 
L 49.563 91.421139 
L 49.284 91.421139 
L 49.005 91.421139 
L 48.726 91.421139 
L 48.447 91.421139 
L 48.168 91.421139 
L 47.889 91.421139 
L 47.61 91.421139 
L 47.331 91.421139 
L 47.052 91.421139 
L 46.773 91.421139 
L 46.494 91.421139 
L 46.215 91.421139 
L 45.936 91.421139 
L 45.657 91.421139 
L 45.378 91.421139 
L 45.099 91.421139 
L 44.82 91.421139 
L 44.541 91.421139 
L 44.262 91.421139 
L 43.983 91.421139 
L 43.704 91.421139 
L 43.425 91.421139 
L 43.146 91.421139 
L 42.867 91.421139 
L 42.588 91.421139 
L 42.309 91.421139 
L 42.03 91.421139 
L 41.751 91.421139 
L 41.472 91.421139 
L 41.193 91.421139 
L 40.914 91.421139 
L 40.635 91.421139 
L 40.356 91.421139 
L 40.077 91.421139 
L 39.798 91.421139 
L 39.519 91.421139 
L 39.24 91.421139 
L 38.961 91.421139 
L 38.682 91.421139 
L 38.403 91.421139 
L 38.124 91.421139 
L 37.845 91.421139 
L 37.566 91.421139 
L 37.287 91.421139 
L 37.008 91.421139 
L 36.729 91.421139 
L 36.45 91.421139 
L 36.171 91.421139 
L 35.892 91.421139 
L 35.613 91.421139 
L 35.334 91.421139 
L 35.055 91.421139 
L 34.776 91.421139 
L 34.497 91.421139 
L 34.218 91.421139 
L 33.939 91.421139 
L 33.66 91.421139 
L 33.381 91.421139 
L 33.102 91.421139 
L 32.823 91.421139 
L 32.544 91.421139 
L 32.265 91.421139 
L 31.986 91.421139 
L 31.707 91.421139 
L 31.428 91.421139 
L 31.149 91.421139 
L 30.87 91.421139 
L 30.591 91.421139 
L 30.312 91.421139 
L 30.033 91.421139 
L 29.754 91.421139 
L 29.475 91.421139 
L 29.196 91.421139 
L 28.917 91.421139 
L 28.638 91.421139 
L 28.359 91.421139 
L 28.08 91.421139 
L 27.801 91.421139 
L 27.522 91.421139 
L 27.243 91.421139 
L 26.964 91.421139 
L 26.685 91.421139 
L 26.406 91.421139 
L 26.127 91.421139 
L 25.848 91.421139 
L 25.569 91.421139 
L 25.29 91.421139 
L 25.011 91.421139 
L 24.732 91.421139 
L 24.453 91.421139 
L 24.174 91.421139 
L 23.895 91.421139 
L 23.616 91.421139 
L 23.337 91.421139 
L 23.058 91.421139 
L 22.779 91.421139 
L 22.5 91.421139 
z
" clip-path="url(#p7d07a55afd)" style="fill: #d3436e; fill-opacity: 0.1"/>
   </g>
   <g id="PolyCollection_6">
    <path d="M 22.5 108.274595 
L 22.5 125.316525 
L 22.779 125.316525 
L 23.058 125.316525 
L 23.337 125.316525 
L 23.616 125.316525 
L 23.895 125.316525 
L 24.174 125.316525 
L 24.453 125.316525 
L 24.732 125.316525 
L 25.011 125.316525 
L 25.29 125.316525 
L 25.569 125.316525 
L 25.848 125.316525 
L 26.127 125.316525 
L 26.406 125.316525 
L 26.685 125.316525 
L 26.964 125.316525 
L 27.243 125.316525 
L 27.522 125.316525 
L 27.801 125.316525 
L 28.08 125.316525 
L 28.359 125.316525 
L 28.638 125.316525 
L 28.917 125.316525 
L 29.196 125.316525 
L 29.475 125.316525 
L 29.754 125.316525 
L 30.033 125.316525 
L 30.312 125.316525 
L 30.591 125.316525 
L 30.87 125.316525 
L 31.149 125.316525 
L 31.428 125.316525 
L 31.707 125.316525 
L 31.986 125.316525 
L 32.265 125.316525 
L 32.544 125.316525 
L 32.823 125.316525 
L 33.102 125.316525 
L 33.381 125.316525 
L 33.66 125.316525 
L 33.939 125.316525 
L 34.218 125.316525 
L 34.497 125.316525 
L 34.776 125.316525 
L 35.055 125.316525 
L 35.334 125.316525 
L 35.613 125.316525 
L 35.892 125.316525 
L 36.171 125.316525 
L 36.45 125.316525 
L 36.729 125.316525 
L 37.008 125.316525 
L 37.287 125.316525 
L 37.566 125.316525 
L 37.845 125.316525 
L 38.124 125.316525 
L 38.403 125.316525 
L 38.682 125.316525 
L 38.961 125.316525 
L 39.24 125.316525 
L 39.519 125.316525 
L 39.798 125.316525 
L 40.077 125.316525 
L 40.356 125.316525 
L 40.635 125.316525 
L 40.914 125.316525 
L 41.193 125.316525 
L 41.472 125.316525 
L 41.751 125.316525 
L 42.03 125.316525 
L 42.309 125.316525 
L 42.588 125.316525 
L 42.867 125.316525 
L 43.146 125.316525 
L 43.425 125.316525 
L 43.704 125.316525 
L 43.983 125.316525 
L 44.262 125.316525 
L 44.541 125.316525 
L 44.82 125.316525 
L 45.099 125.316525 
L 45.378 125.316525 
L 45.657 125.316525 
L 45.936 125.316525 
L 46.215 125.316525 
L 46.494 125.316525 
L 46.773 125.316525 
L 47.052 125.316525 
L 47.331 125.316525 
L 47.61 125.316525 
L 47.889 125.316525 
L 48.168 125.316525 
L 48.447 125.316525 
L 48.726 125.316525 
L 49.005 125.316525 
L 49.284 125.316525 
L 49.563 125.316525 
L 49.842 125.316525 
L 50.121 125.316525 
L 50.4 125.316525 
L 50.679 125.316525 
L 50.958 125.316525 
L 51.237 125.316525 
L 51.516 125.316525 
L 51.795 125.316525 
L 52.074 125.316525 
L 52.353 125.316525 
L 52.632 125.316525 
L 52.911 125.316525 
L 53.19 125.316525 
L 53.469 125.316525 
L 53.748 125.316525 
L 54.027 125.316525 
L 54.306 125.316525 
L 54.585 125.316525 
L 54.864 125.316525 
L 55.143 125.316525 
L 55.422 125.316525 
L 55.701 125.316525 
L 55.98 125.316525 
L 56.259 125.316525 
L 56.538 125.316525 
L 56.817 125.316525 
L 57.096 125.316525 
L 57.375 125.316525 
L 57.654 125.316525 
L 57.933 125.316525 
L 58.212 125.316525 
L 58.491 125.316525 
L 58.77 125.316525 
L 59.049 125.316525 
L 59.328 125.316525 
L 59.607 125.316525 
L 59.886 125.316525 
L 60.165 125.316525 
L 60.444 125.316525 
L 60.723 125.316525 
L 61.002 125.316525 
L 61.281 125.316525 
L 61.56 125.316525 
L 61.839 125.316525 
L 62.118 125.316525 
L 62.397 125.316525 
L 62.676 125.316525 
L 62.955 125.316525 
L 63.234 125.316525 
L 63.513 125.316525 
L 63.792 125.316525 
L 64.071 125.316525 
L 64.35 125.316525 
L 64.629 125.316525 
L 64.908 125.316525 
L 65.187 125.316525 
L 65.466 125.316525 
L 65.745 125.316525 
L 66.024 125.316525 
L 66.303 125.316525 
L 66.582 125.316525 
L 66.861 125.316525 
L 67.14 125.316525 
L 67.419 125.316525 
L 67.698 125.316525 
L 67.977 125.316525 
L 68.256 125.316525 
L 68.535 125.316525 
L 68.814 125.316525 
L 69.093 125.316525 
L 69.372 125.316525 
L 69.651 125.316525 
L 69.93 125.316525 
L 70.209 125.316525 
L 70.488 125.316525 
L 70.767 125.316525 
L 71.046 125.316525 
L 71.325 125.316525 
L 71.604 125.316525 
L 71.883 125.316525 
L 72.162 125.316525 
L 72.441 125.316525 
L 72.72 125.316525 
L 72.999 125.316525 
L 73.278 125.316525 
L 73.557 125.316525 
L 73.836 125.316525 
L 74.115 125.316525 
L 74.394 125.316525 
L 74.673 125.316525 
L 74.952 125.316525 
L 75.231 125.316525 
L 75.51 125.316525 
L 75.789 125.316525 
L 76.068 125.316525 
L 76.347 125.316525 
L 76.626 125.316525 
L 76.905 125.316525 
L 77.184 125.316525 
L 77.463 125.316525 
L 77.742 125.316525 
L 78.021 125.316525 
L 78.3 125.316525 
L 78.579 125.316525 
L 78.858 125.316525 
L 79.137 125.316525 
L 79.416 125.316525 
L 79.695 125.316525 
L 79.974 125.316525 
L 80.253 125.316525 
L 80.532 125.316525 
L 80.811 125.316525 
L 81.09 125.316525 
L 81.369 125.316525 
L 81.648 125.316525 
L 81.927 125.316525 
L 82.206 125.316525 
L 82.485 125.316525 
L 82.764 125.316525 
L 83.043 125.316525 
L 83.322 125.316525 
L 83.601 125.316525 
L 83.88 125.316525 
L 84.159 125.316525 
L 84.438 125.316525 
L 84.717 125.316525 
L 84.996 125.316525 
L 85.275 125.316525 
L 85.554 125.316525 
L 85.833 125.316525 
L 86.112 125.316525 
L 86.391 125.316525 
L 86.67 125.316525 
L 86.949 125.316525 
L 87.228 125.316525 
L 87.507 125.316525 
L 87.786 125.316525 
L 88.065 125.316525 
L 88.344 125.316525 
L 88.623 125.316525 
L 88.902 125.316525 
L 89.181 125.316525 
L 89.46 125.316525 
L 89.739 125.316525 
L 90.018 125.316525 
L 90.297 125.316525 
L 90.576 125.316525 
L 90.855 125.316525 
L 91.134 125.316525 
L 91.413 125.316525 
L 91.692 125.316525 
L 91.971 125.316525 
L 92.25 125.316525 
L 92.529 125.316525 
L 92.808 125.316525 
L 93.087 125.316525 
L 93.366 125.316525 
L 93.645 125.316525 
L 93.924 125.316525 
L 94.203 125.316525 
L 94.482 125.316525 
L 94.761 125.316525 
L 95.04 125.316525 
L 95.319 125.316525 
L 95.598 125.316525 
L 95.877 125.316525 
L 96.156 125.316525 
L 96.435 125.316525 
L 96.714 125.316525 
L 96.993 125.316525 
L 97.272 125.316525 
L 97.551 125.316525 
L 97.83 125.316525 
L 98.109 125.316525 
L 98.388 125.316525 
L 98.667 125.316525 
L 98.946 125.316525 
L 99.225 125.316525 
L 99.504 125.316525 
L 99.783 125.316525 
L 100.062 125.316525 
L 100.341 125.316525 
L 100.62 125.316525 
L 100.899 125.316525 
L 101.178 125.316525 
L 101.457 125.316525 
L 101.736 125.316525 
L 102.015 125.316525 
L 102.294 125.316525 
L 102.573 125.316525 
L 102.852 125.316525 
L 103.131 125.316525 
L 103.41 125.316525 
L 103.689 125.316525 
L 103.968 125.316525 
L 104.247 125.316525 
L 104.526 125.316525 
L 104.805 125.316525 
L 105.084 125.316525 
L 105.363 125.316525 
L 105.642 125.316525 
L 105.921 125.316525 
L 106.2 125.316525 
L 106.479 125.316525 
L 106.758 125.316525 
L 107.037 125.316525 
L 107.316 125.316525 
L 107.595 125.316525 
L 107.874 125.316525 
L 108.153 125.316525 
L 108.432 125.316525 
L 108.711 125.316525 
L 108.99 125.316525 
L 109.269 125.316525 
L 109.548 125.316525 
L 109.827 125.316525 
L 110.106 125.316525 
L 110.385 125.316525 
L 110.664 125.316525 
L 110.943 125.316525 
L 111.222 125.316525 
L 111.501 125.316525 
L 111.78 125.316525 
L 112.059 125.316525 
L 112.338 125.316525 
L 112.617 125.316525 
L 112.896 125.316525 
L 113.175 125.316525 
L 113.454 125.316525 
L 113.733 125.316525 
L 114.012 125.316525 
L 114.291 125.316525 
L 114.57 125.316525 
L 114.849 125.316525 
L 115.128 125.316525 
L 115.407 125.316525 
L 115.686 125.316525 
L 115.965 125.316525 
L 116.244 125.316525 
L 116.523 125.316525 
L 116.802 125.316525 
L 117.081 125.316525 
L 117.36 125.316525 
L 117.639 125.316525 
L 117.918 125.316525 
L 118.197 125.316525 
L 118.476 125.316525 
L 118.755 125.316525 
L 119.034 125.316525 
L 119.313 125.316525 
L 119.592 125.316525 
L 119.871 125.316525 
L 120.15 125.316525 
L 120.429 125.316525 
L 120.708 125.316525 
L 120.987 125.316525 
L 121.266 125.316525 
L 121.545 125.316525 
L 121.824 125.316525 
L 122.103 125.316525 
L 122.382 125.316525 
L 122.661 125.316525 
L 122.94 125.316525 
L 123.219 125.316525 
L 123.498 125.316525 
L 123.777 125.316525 
L 124.056 125.316525 
L 124.335 125.316525 
L 124.614 125.316525 
L 124.893 125.316525 
L 125.172 125.316525 
L 125.451 125.316525 
L 125.73 125.316525 
L 126.009 125.316525 
L 126.288 125.316525 
L 126.567 125.316525 
L 126.846 125.316525 
L 127.125 125.316525 
L 127.404 125.316525 
L 127.683 125.316525 
L 127.962 125.316525 
L 128.241 125.316525 
L 128.52 125.316525 
L 128.799 125.316525 
L 129.078 125.316525 
L 129.357 125.316525 
L 129.636 125.316525 
L 129.915 125.316525 
L 130.194 125.316525 
L 130.473 125.316525 
L 130.752 125.316525 
L 131.031 125.316525 
L 131.31 125.316525 
L 131.589 125.316525 
L 131.868 125.316525 
L 132.147 125.316525 
L 132.426 125.316525 
L 132.705 125.316525 
L 132.984 125.316525 
L 133.263 125.316525 
L 133.542 125.316525 
L 133.821 125.316525 
L 134.1 125.316525 
L 134.379 125.316525 
L 134.658 125.316525 
L 134.937 125.316525 
L 135.216 125.316525 
L 135.495 125.316525 
L 135.774 125.316525 
L 136.053 125.316525 
L 136.332 125.316525 
L 136.611 125.316525 
L 136.89 125.316525 
L 137.169 125.316525 
L 137.448 125.316525 
L 137.727 125.316525 
L 138.006 125.316525 
L 138.285 125.316525 
L 138.564 125.316525 
L 138.843 125.316525 
L 139.122 125.316525 
L 139.401 125.316525 
L 139.68 125.316525 
L 139.959 125.316525 
L 140.238 125.316525 
L 140.517 125.316525 
L 140.796 125.316525 
L 141.075 125.316525 
L 141.354 125.316525 
L 141.633 125.316525 
L 141.912 125.316525 
L 142.191 125.316525 
L 142.47 125.316525 
L 142.749 125.316525 
L 143.028 125.316525 
L 143.307 125.316525 
L 143.586 125.316525 
L 143.865 125.316525 
L 144.144 125.316525 
L 144.423 125.316525 
L 144.702 125.316525 
L 144.981 125.316525 
L 145.26 125.316525 
L 145.539 125.316525 
L 145.818 125.316525 
L 146.097 125.316525 
L 146.376 125.316525 
L 146.655 125.316525 
L 146.934 125.316525 
L 147.213 125.316525 
L 147.492 125.316525 
L 147.771 125.316525 
L 148.05 125.316525 
L 148.329 125.316525 
L 148.608 125.316525 
L 148.887 125.316525 
L 149.166 125.316525 
L 149.445 125.316525 
L 149.724 125.316525 
L 150.003 125.316525 
L 150.282 125.316525 
L 150.561 125.316525 
L 150.84 125.316525 
L 151.119 125.316525 
L 151.398 125.316525 
L 151.677 125.316525 
L 151.956 125.316525 
L 152.235 125.316525 
L 152.514 125.316525 
L 152.793 125.316525 
L 153.072 125.316525 
L 153.351 125.316525 
L 153.63 125.316525 
L 153.909 125.316525 
L 154.188 125.316525 
L 154.467 125.316525 
L 154.746 125.316525 
L 155.025 125.316525 
L 155.304 125.316525 
L 155.583 125.316525 
L 155.862 125.316525 
L 156.141 125.316525 
L 156.42 125.316525 
L 156.699 125.316525 
L 156.978 125.316525 
L 157.257 125.316525 
L 157.536 125.316525 
L 157.815 125.316525 
L 158.094 125.316525 
L 158.373 125.316525 
L 158.652 125.316525 
L 158.931 125.316525 
L 159.21 125.316525 
L 159.489 125.316525 
L 159.768 125.316525 
L 160.047 125.316525 
L 160.326 125.316525 
L 160.605 125.316525 
L 160.884 125.316525 
L 161.163 125.316525 
L 161.442 125.316525 
L 161.721 125.316525 
L 161.721 108.274595 
L 161.721 108.274595 
L 161.442 108.274595 
L 161.163 108.274595 
L 160.884 108.274595 
L 160.605 108.274595 
L 160.326 108.274595 
L 160.047 108.274595 
L 159.768 108.274595 
L 159.489 108.274595 
L 159.21 108.274595 
L 158.931 108.274595 
L 158.652 108.274595 
L 158.373 108.274595 
L 158.094 108.274595 
L 157.815 108.274595 
L 157.536 108.274595 
L 157.257 108.274595 
L 156.978 108.274595 
L 156.699 108.274595 
L 156.42 108.274595 
L 156.141 108.274595 
L 155.862 108.274595 
L 155.583 108.274595 
L 155.304 108.274595 
L 155.025 108.274595 
L 154.746 108.274595 
L 154.467 108.274595 
L 154.188 108.274595 
L 153.909 108.274595 
L 153.63 108.274595 
L 153.351 108.274595 
L 153.072 108.274595 
L 152.793 108.274595 
L 152.514 108.274595 
L 152.235 108.274595 
L 151.956 108.274595 
L 151.677 108.274595 
L 151.398 108.274595 
L 151.119 108.274595 
L 150.84 108.274595 
L 150.561 108.274595 
L 150.282 108.274595 
L 150.003 108.274595 
L 149.724 108.274595 
L 149.445 108.274595 
L 149.166 108.274595 
L 148.887 108.274595 
L 148.608 108.274595 
L 148.329 108.274595 
L 148.05 108.274595 
L 147.771 108.274595 
L 147.492 108.274595 
L 147.213 108.274595 
L 146.934 108.274595 
L 146.655 108.274595 
L 146.376 108.274595 
L 146.097 108.274595 
L 145.818 108.274595 
L 145.539 108.274595 
L 145.26 108.274595 
L 144.981 108.274595 
L 144.702 108.274595 
L 144.423 108.274595 
L 144.144 108.274595 
L 143.865 108.274595 
L 143.586 108.274595 
L 143.307 108.274595 
L 143.028 108.274595 
L 142.749 108.274595 
L 142.47 108.274595 
L 142.191 108.274595 
L 141.912 108.274595 
L 141.633 108.274595 
L 141.354 108.274595 
L 141.075 108.274595 
L 140.796 108.274595 
L 140.517 108.274595 
L 140.238 108.274595 
L 139.959 108.274595 
L 139.68 108.274595 
L 139.401 108.274595 
L 139.122 108.274595 
L 138.843 108.274595 
L 138.564 108.274595 
L 138.285 108.274595 
L 138.006 108.274595 
L 137.727 108.274595 
L 137.448 108.274595 
L 137.169 108.274595 
L 136.89 108.274595 
L 136.611 108.274595 
L 136.332 108.274595 
L 136.053 108.274595 
L 135.774 108.274595 
L 135.495 108.274595 
L 135.216 108.274595 
L 134.937 108.274595 
L 134.658 108.274595 
L 134.379 108.274595 
L 134.1 108.274595 
L 133.821 108.274595 
L 133.542 108.274595 
L 133.263 108.274595 
L 132.984 108.274595 
L 132.705 108.274595 
L 132.426 108.274595 
L 132.147 108.274595 
L 131.868 108.274595 
L 131.589 108.274595 
L 131.31 108.274595 
L 131.031 108.274595 
L 130.752 108.274595 
L 130.473 108.274595 
L 130.194 108.274595 
L 129.915 108.274595 
L 129.636 108.274595 
L 129.357 108.274595 
L 129.078 108.274595 
L 128.799 108.274595 
L 128.52 108.274595 
L 128.241 108.274595 
L 127.962 108.274595 
L 127.683 108.274595 
L 127.404 108.274595 
L 127.125 108.274595 
L 126.846 108.274595 
L 126.567 108.274595 
L 126.288 108.274595 
L 126.009 108.274595 
L 125.73 108.274595 
L 125.451 108.274595 
L 125.172 108.274595 
L 124.893 108.274595 
L 124.614 108.274595 
L 124.335 108.274595 
L 124.056 108.274595 
L 123.777 108.274595 
L 123.498 108.274595 
L 123.219 108.274595 
L 122.94 108.274595 
L 122.661 108.274595 
L 122.382 108.274595 
L 122.103 108.274595 
L 121.824 108.274595 
L 121.545 108.274595 
L 121.266 108.274595 
L 120.987 108.274595 
L 120.708 108.274595 
L 120.429 108.274595 
L 120.15 108.274595 
L 119.871 108.274595 
L 119.592 108.274595 
L 119.313 108.274595 
L 119.034 108.274595 
L 118.755 108.274595 
L 118.476 108.274595 
L 118.197 108.274595 
L 117.918 108.274595 
L 117.639 108.274595 
L 117.36 108.274595 
L 117.081 108.274595 
L 116.802 108.274595 
L 116.523 108.274595 
L 116.244 108.274595 
L 115.965 108.274595 
L 115.686 108.274595 
L 115.407 108.274595 
L 115.128 108.274595 
L 114.849 108.274595 
L 114.57 108.274595 
L 114.291 108.274595 
L 114.012 108.274595 
L 113.733 108.274595 
L 113.454 108.274595 
L 113.175 108.274595 
L 112.896 108.274595 
L 112.617 108.274595 
L 112.338 108.274595 
L 112.059 108.274595 
L 111.78 108.274595 
L 111.501 108.274595 
L 111.222 108.274595 
L 110.943 108.274595 
L 110.664 108.274595 
L 110.385 108.274595 
L 110.106 108.274595 
L 109.827 108.274595 
L 109.548 108.274595 
L 109.269 108.274595 
L 108.99 108.274595 
L 108.711 108.274595 
L 108.432 108.274595 
L 108.153 108.274595 
L 107.874 108.274595 
L 107.595 108.274595 
L 107.316 108.274595 
L 107.037 108.274595 
L 106.758 108.274595 
L 106.479 108.274595 
L 106.2 108.274595 
L 105.921 108.274595 
L 105.642 108.274595 
L 105.363 108.274595 
L 105.084 108.274595 
L 104.805 108.274595 
L 104.526 108.274595 
L 104.247 108.274595 
L 103.968 108.274595 
L 103.689 108.274595 
L 103.41 108.274595 
L 103.131 108.274595 
L 102.852 108.274595 
L 102.573 108.274595 
L 102.294 108.274595 
L 102.015 108.274595 
L 101.736 108.274595 
L 101.457 108.274595 
L 101.178 108.274595 
L 100.899 108.274595 
L 100.62 108.274595 
L 100.341 108.274595 
L 100.062 108.274595 
L 99.783 108.274595 
L 99.504 108.274595 
L 99.225 108.274595 
L 98.946 108.274595 
L 98.667 108.274595 
L 98.388 108.274595 
L 98.109 108.274595 
L 97.83 108.274595 
L 97.551 108.274595 
L 97.272 108.274595 
L 96.993 108.274595 
L 96.714 108.274595 
L 96.435 108.274595 
L 96.156 108.274595 
L 95.877 108.274595 
L 95.598 108.274595 
L 95.319 108.274595 
L 95.04 108.274595 
L 94.761 108.274595 
L 94.482 108.274595 
L 94.203 108.274595 
L 93.924 108.274595 
L 93.645 108.274595 
L 93.366 108.274595 
L 93.087 108.274595 
L 92.808 108.274595 
L 92.529 108.274595 
L 92.25 108.274595 
L 91.971 108.274595 
L 91.692 108.274595 
L 91.413 108.274595 
L 91.134 108.274595 
L 90.855 108.274595 
L 90.576 108.274595 
L 90.297 108.274595 
L 90.018 108.274595 
L 89.739 108.274595 
L 89.46 108.274595 
L 89.181 108.274595 
L 88.902 108.274595 
L 88.623 108.274595 
L 88.344 108.274595 
L 88.065 108.274595 
L 87.786 108.274595 
L 87.507 108.274595 
L 87.228 108.274595 
L 86.949 108.274595 
L 86.67 108.274595 
L 86.391 108.274595 
L 86.112 108.274595 
L 85.833 108.274595 
L 85.554 108.274595 
L 85.275 108.274595 
L 84.996 108.274595 
L 84.717 108.274595 
L 84.438 108.274595 
L 84.159 108.274595 
L 83.88 108.274595 
L 83.601 108.274595 
L 83.322 108.274595 
L 83.043 108.274595 
L 82.764 108.274595 
L 82.485 108.274595 
L 82.206 108.274595 
L 81.927 108.274595 
L 81.648 108.274595 
L 81.369 108.274595 
L 81.09 108.274595 
L 80.811 108.274595 
L 80.532 108.274595 
L 80.253 108.274595 
L 79.974 108.274595 
L 79.695 108.274595 
L 79.416 108.274595 
L 79.137 108.274595 
L 78.858 108.274595 
L 78.579 108.274595 
L 78.3 108.274595 
L 78.021 108.274595 
L 77.742 108.274595 
L 77.463 108.274595 
L 77.184 108.274595 
L 76.905 108.274595 
L 76.626 108.274595 
L 76.347 108.274595 
L 76.068 108.274595 
L 75.789 108.274595 
L 75.51 108.274595 
L 75.231 108.274595 
L 74.952 108.274595 
L 74.673 108.274595 
L 74.394 108.274595 
L 74.115 108.274595 
L 73.836 108.274595 
L 73.557 108.274595 
L 73.278 108.274595 
L 72.999 108.274595 
L 72.72 108.274595 
L 72.441 108.274595 
L 72.162 108.274595 
L 71.883 108.274595 
L 71.604 108.274595 
L 71.325 108.274595 
L 71.046 108.274595 
L 70.767 108.274595 
L 70.488 108.274595 
L 70.209 108.274595 
L 69.93 108.274595 
L 69.651 108.274595 
L 69.372 108.274595 
L 69.093 108.274595 
L 68.814 108.274595 
L 68.535 108.274595 
L 68.256 108.274595 
L 67.977 108.274595 
L 67.698 108.274595 
L 67.419 108.274595 
L 67.14 108.274595 
L 66.861 108.274595 
L 66.582 108.274595 
L 66.303 108.274595 
L 66.024 108.274595 
L 65.745 108.274595 
L 65.466 108.274595 
L 65.187 108.274595 
L 64.908 108.274595 
L 64.629 108.274595 
L 64.35 108.274595 
L 64.071 108.274595 
L 63.792 108.274595 
L 63.513 108.274595 
L 63.234 108.274595 
L 62.955 108.274595 
L 62.676 108.274595 
L 62.397 108.274595 
L 62.118 108.274595 
L 61.839 108.274595 
L 61.56 108.274595 
L 61.281 108.274595 
L 61.002 108.274595 
L 60.723 108.274595 
L 60.444 108.274595 
L 60.165 108.274595 
L 59.886 108.274595 
L 59.607 108.274595 
L 59.328 108.274595 
L 59.049 108.274595 
L 58.77 108.274595 
L 58.491 108.274595 
L 58.212 108.274595 
L 57.933 108.274595 
L 57.654 108.274595 
L 57.375 108.274595 
L 57.096 108.274595 
L 56.817 108.274595 
L 56.538 108.274595 
L 56.259 108.274595 
L 55.98 108.274595 
L 55.701 108.274595 
L 55.422 108.274595 
L 55.143 108.274595 
L 54.864 108.274595 
L 54.585 108.274595 
L 54.306 108.274595 
L 54.027 108.274595 
L 53.748 108.274595 
L 53.469 108.274595 
L 53.19 108.274595 
L 52.911 108.274595 
L 52.632 108.274595 
L 52.353 108.274595 
L 52.074 108.274595 
L 51.795 108.274595 
L 51.516 108.274595 
L 51.237 108.274595 
L 50.958 108.274595 
L 50.679 108.274595 
L 50.4 108.274595 
L 50.121 108.274595 
L 49.842 108.274595 
L 49.563 108.274595 
L 49.284 108.274595 
L 49.005 108.274595 
L 48.726 108.274595 
L 48.447 108.274595 
L 48.168 108.274595 
L 47.889 108.274595 
L 47.61 108.274595 
L 47.331 108.274595 
L 47.052 108.274595 
L 46.773 108.274595 
L 46.494 108.274595 
L 46.215 108.274595 
L 45.936 108.274595 
L 45.657 108.274595 
L 45.378 108.274595 
L 45.099 108.274595 
L 44.82 108.274595 
L 44.541 108.274595 
L 44.262 108.274595 
L 43.983 108.274595 
L 43.704 108.274595 
L 43.425 108.274595 
L 43.146 108.274595 
L 42.867 108.274595 
L 42.588 108.274595 
L 42.309 108.274595 
L 42.03 108.274595 
L 41.751 108.274595 
L 41.472 108.274595 
L 41.193 108.274595 
L 40.914 108.274595 
L 40.635 108.274595 
L 40.356 108.274595 
L 40.077 108.274595 
L 39.798 108.274595 
L 39.519 108.274595 
L 39.24 108.274595 
L 38.961 108.274595 
L 38.682 108.274595 
L 38.403 108.274595 
L 38.124 108.274595 
L 37.845 108.274595 
L 37.566 108.274595 
L 37.287 108.274595 
L 37.008 108.274595 
L 36.729 108.274595 
L 36.45 108.274595 
L 36.171 108.274595 
L 35.892 108.274595 
L 35.613 108.274595 
L 35.334 108.274595 
L 35.055 108.274595 
L 34.776 108.274595 
L 34.497 108.274595 
L 34.218 108.274595 
L 33.939 108.274595 
L 33.66 108.274595 
L 33.381 108.274595 
L 33.102 108.274595 
L 32.823 108.274595 
L 32.544 108.274595 
L 32.265 108.274595 
L 31.986 108.274595 
L 31.707 108.274595 
L 31.428 108.274595 
L 31.149 108.274595 
L 30.87 108.274595 
L 30.591 108.274595 
L 30.312 108.274595 
L 30.033 108.274595 
L 29.754 108.274595 
L 29.475 108.274595 
L 29.196 108.274595 
L 28.917 108.274595 
L 28.638 108.274595 
L 28.359 108.274595 
L 28.08 108.274595 
L 27.801 108.274595 
L 27.522 108.274595 
L 27.243 108.274595 
L 26.964 108.274595 
L 26.685 108.274595 
L 26.406 108.274595 
L 26.127 108.274595 
L 25.848 108.274595 
L 25.569 108.274595 
L 25.29 108.274595 
L 25.011 108.274595 
L 24.732 108.274595 
L 24.453 108.274595 
L 24.174 108.274595 
L 23.895 108.274595 
L 23.616 108.274595 
L 23.337 108.274595 
L 23.058 108.274595 
L 22.779 108.274595 
L 22.5 108.274595 
z
" clip-path="url(#p7d07a55afd)" style="fill: #5f187f; fill-opacity: 0.1"/>
   </g>
   <g id="matplotlib.axis_1">
    <g id="xtick_1">
     <g id="line2d_1">
      <defs>
       <path id="ma5dcd9a3ca" d="M 0 0 
L 0 3.5 
" style="stroke: #000000; stroke-width: 0.8"/>
      </defs>
      <g>
       <use xlink:href="#ma5dcd9a3ca" x="50.4" y="160.2" style="stroke: #000000; stroke-width: 0.8"/>
      </g>
     </g>
     <g id="text_1">
      <text style="font: italic 12px 'inter', sans-serif" transform="translate(9.919905 212.12161) rotate(-45)">Trhn&gt;Chr</text>
     </g>
    </g>
    <g id="xtick_2">
     <g id="line2d_2">
      <g>
       <use xlink:href="#ma5dcd9a3ca" x="78.3" y="160.2" style="stroke: #000000; stroke-width: 0.8"/>
      </g>
     </g>
     <g id="text_2">
      <text style="font: italic 12px 'inter', sans-serif" transform="translate(31.265025 218.67649) rotate(-45)">Trhn&gt;ACR1</text>
     </g>
    </g>
    <g id="xtick_3">
     <g id="line2d_3">
      <g>
       <use xlink:href="#ma5dcd9a3ca" x="106.2" y="160.2" style="stroke: #000000; stroke-width: 0.8"/>
      </g>
     </g>
     <g id="text_3">
      <text style="font: italic 12px 'inter', sans-serif" transform="translate(51.684719 226.156796) rotate(-45)">R50H05&gt;Chr</text>
     </g>
    </g>
    <g id="xtick_4">
     <g id="line2d_4">
      <g>
       <use xlink:href="#ma5dcd9a3ca" x="134.1" y="160.2" style="stroke: #000000; stroke-width: 0.8"/>
      </g>
     </g>
     <g id="text_4">
      <text style="font: italic 12px 'inter', sans-serif" transform="translate(73.029839 232.711676) rotate(-45)">R50H05&gt;ACR1</text>
     </g>
    </g>
   </g>
   <g id="matplotlib.axis_2">
    <g id="ytick_1">
     <g id="line2d_5">
      <defs>
       <path id="ma422983553" d="M 0 0 
L -3.5 0 
" style="stroke: #000000; stroke-width: 0.8"/>
      </defs>
      <g>
       <use xlink:href="#ma422983553" x="22.5" y="159.68719" style="stroke: #000000; stroke-width: 0.8"/>
      </g>
     </g>
     <g id="text_5">
      <text style="font: 10px 'inter', sans-serif; text-anchor: end" x="15.5" y="163.32469" transform="rotate(-0 15.5 163.32469)">100</text>
     </g>
    </g>
    <g id="ytick_2">
     <g id="line2d_6">
      <g>
       <use xlink:href="#ma422983553" x="22.5" y="123.681311" style="stroke: #000000; stroke-width: 0.8"/>
      </g>
     </g>
     <g id="text_6">
      <text style="font: 10px 'inter', sans-serif; text-anchor: end" x="15.5" y="127.318811" transform="rotate(-0 15.5 127.318811)">50</text>
     </g>
    </g>
    <g id="ytick_3">
     <g id="line2d_7">
      <g>
       <use xlink:href="#ma422983553" x="22.5" y="87.675433" style="stroke: #000000; stroke-width: 0.8"/>
      </g>
     </g>
     <g id="text_7">
      <text style="font: 10px 'inter', sans-serif; text-anchor: end" x="15.5" y="91.312933" transform="rotate(-0 15.5 91.312933)">0</text>
     </g>
    </g>
    <g id="ytick_4">
     <g id="line2d_8">
      <g>
       <use xlink:href="#ma422983553" x="22.5" y="51.669554" style="stroke: #000000; stroke-width: 0.8"/>
      </g>
     </g>
     <g id="text_8">
      <text style="font: 10px 'inter', sans-serif; text-anchor: end" x="15.5" y="55.307054" transform="rotate(-0 15.5 55.307054)">50</text>
     </g>
    </g>
    <g id="text_9">
     <text style="font: 15px 'inter', sans-serif; text-anchor: middle" x="-14.921094" y="90.9" transform="rotate(-90 -14.921094 90.9)"> Latency (min)</text>
    </g>
   </g>
   <g id="line2d_9">
    <path d="M 22.5 87.675433 
L 162 87.675433 
" clip-path="url(#p7d07a55afd)" style="fill: none; stroke: #000000; stroke-linecap: square"/>
   </g>
   <g id="line2d_10">
    <defs>
     <path id="m5ece8864a8" d="M 0 2.5 
C 0.663008 2.5 1.29895 2.236584 1.767767 1.767767 
C 2.236584 1.29895 2.5 0.663008 2.5 0 
C 2.5 -0.663008 2.236584 -1.29895 1.767767 -1.767767 
C 1.29895 -2.236584 0.663008 -2.5 0 -2.5 
C -0.663008 -2.5 -1.29895 -2.236584 -1.767767 -1.767767 
C -2.236584 -1.29895 -2.5 -0.663008 -2.5 0 
C -2.5 0.663008 -2.236584 1.29895 -1.767767 1.767767 
C -1.29895 2.236584 -0.663008 2.5 0 2.5 
z
" style="stroke: #000000"/>
    </defs>
    <g clip-path="url(#p7d07a55afd)">
     <use xlink:href="#m5ece8864a8" x="50.4" y="51.516277" style="stroke: #000000"/>
    </g>
   </g>
   <g id="line2d_11">
    <path d="M 50.4 66.098755 
L 50.4 36.839883 
" clip-path="url(#p7d07a55afd)" style="fill: none; stroke: #000000; stroke-width: 2.5; stroke-linecap: square"/>
   </g>
   <g id="line2d_12">
    <g clip-path="url(#p7d07a55afd)">
     <use xlink:href="#m5ece8864a8" x="78.3" y="112.435592" style="stroke: #000000"/>
    </g>
   </g>
   <g id="line2d_13">
    <path d="M 78.3 130.224058 
L 78.3 94.694272 
" clip-path="url(#p7d07a55afd)" style="fill: none; stroke: #000000; stroke-width: 2.5; stroke-linecap: square"/>
   </g>
   <g id="line2d_14">
    <g clip-path="url(#p7d07a55afd)">
     <use xlink:href="#m5ece8864a8" x="106.2" y="130.180861" style="stroke: #000000"/>
    </g>
   </g>
   <g id="line2d_15">
    <path d="M 106.2 142.738593 
L 106.2 117.442483 
" clip-path="url(#p7d07a55afd)" style="fill: none; stroke: #000000; stroke-width: 2.5; stroke-linecap: square"/>
   </g>
   <g id="line2d_16">
    <g clip-path="url(#p7d07a55afd)">
     <use xlink:href="#m5ece8864a8" x="134.1" y="87.867866" style="stroke: #000000"/>
    </g>
   </g>
   <g id="line2d_17">
    <path d="M 134.1 110.494936 
L 134.1 66.198926 
" clip-path="url(#p7d07a55afd)" style="fill: none; stroke: #000000; stroke-width: 2.5; stroke-linecap: square"/>
   </g>
   <g id="patch_3">
    <path d="M 22.5 160.2 
L 22.5 21.6 
" style="fill: none; stroke: #000000; stroke-width: 0.8; stroke-linejoin: miter; stroke-linecap: square"/>
   </g>
   <g id="patch_4">
    <path d="M 162 160.2 
L 162 21.6 
" style="fill: none"/>
   </g>
   <g id="patch_5">
    <path d="M 22.5 160.2 
L 162 160.2 
" style="fill: none"/>
   </g>
   <g id="patch_6">
    <path d="M 22.5 21.6 
L 162 21.6 
" style="fill: none"/>
   </g>
   <g id="text_10">
    <text style="fill: #d3436e; font: 10px 'inter', sans-serif; text-anchor: start" x="162" y="91.421139" transform="rotate(-0 162 91.421139)">24 h</text>
   </g>
   <g id="text_11">
    <text style="fill: #5f187f; font: 10px 'inter', sans-serif; text-anchor: start" x="162" y="108.274595" transform="rotate(-0 162 108.274595)">48 h</text>
   </g>
   <g id="text_12">
    <text style="font: 500 15px 'inter', sans-serif; text-anchor: middle" x="92.25" y="15.6" transform="rotate(-0 92.25 15.6)">Latency</text>
   </g>
  </g>
 </g>
 <defs>
  <clipPath id="p7d07a55afd">
   <rect x="22.5" y="21.6" width="139.5" height="138.6"/>
  </clipPath>
 </defs>
</svg>
