<?xml version="1.0" encoding="utf-8" standalone="no"?>
<!DOCTYPE svg PUBLIC "-//W3C//DTD SVG 1.1//EN"
  "http://www.w3.org/Graphics/SVG/1.1/DTD/svg11.dtd">
<svg xmlns:xlink="http://www.w3.org/1999/xlink" width="180pt" height="180pt" viewBox="0 0 180 180" xmlns="http://www.w3.org/2000/svg" version="1.1">
 <metadata>
  <rdf:RDF xmlns:dc="http://purl.org/dc/elements/1.1/" xmlns:cc="http://creativecommons.org/ns#" xmlns:rdf="http://www.w3.org/1999/02/22-rdf-syntax-ns#">
   <cc:Work>
    <dc:type rdf:resource="http://purl.org/dc/dcmitype/StillImage"/>
    <dc:date>2025-02-16T01:32:22.602973</dc:date>
    <dc:format>image/svg+xml</dc:format>
    <dc:creator>
     <cc:Agent>
      <dc:title>Matplotlib v3.6.3, https://matplotlib.org/</dc:title>
     </cc:Agent>
    </dc:creator>
   </cc:Work>
  </rdf:RDF>
 </metadata>
 <defs>
  <style type="text/css">*{stroke-linejoin: round; stroke-linecap: butt}</style>
 </defs>
 <g id="figure_1">
  <g id="patch_1">
   <path d="M 0 180 
L 180 180 
L 180 0 
L 0 0 
z
" style="fill: #ffffff"/>
  </g>
  <g id="axes_1">
   <g id="patch_2">
    <path d="M 22.5 160.2 
L 162 160.2 
L 162 21.6 
L 22.5 21.6 
z
" style="fill: #ffffff"/>
   </g>
   <g id="PolyCollection_1">
    <defs>
     <path id="m67d6fc37d1" d="M 50.407571 -26.1 
L 50.400134 -26.1 
L 50.400134 -26.730028 
L 50.400134 -27.360057 
L 50.400134 -27.990085 
L 50.400134 -28.620113 
L 50.400134 -29.250142 
L 50.400134 -29.88017 
L 50.400134 -30.510198 
L 50.400134 -31.140227 
L 50.400134 -31.770255 
L 50.400134 -32.400283 
L 50.400134 -33.030312 
L 50.400134 -33.66034 
L 50.400134 -34.290368 
L 50.400134 -34.920397 
L 50.400134 -35.550425 
L 50.400134 -36.180453 
L 50.400134 -36.810482 
L 50.400134 -37.44051 
L 50.400134 -38.070538 
L 50.400134 -38.700566 
L 50.400134 -39.330595 
L 50.400134 -39.960623 
L 50.400134 -40.590651 
L 50.400134 -41.22068 
L 50.400134 -41.850708 
L 50.400134 -42.480736 
L 50.400134 -43.110765 
L 50.400134 -43.740793 
L 50.400134 -44.370821 
L 50.400134 -45.00085 
L 50.400134 -45.630878 
L 50.400134 -46.260906 
L 50.400134 -46.890935 
L 50.400134 -47.520963 
L 50.400134 -48.150991 
L 50.400134 -48.78102 
L 50.400134 -49.411048 
L 50.400134 -50.041076 
L 50.400134 -50.671105 
L 50.400134 -51.301133 
L 50.400134 -51.931161 
L 50.400134 -52.56119 
L 50.400134 -53.191218 
L 50.400134 -53.821246 
L 50.400134 -54.451275 
L 50.400134 -55.081303 
L 50.400134 -55.711331 
L 50.400134 -56.34136 
L 50.400134 -56.971388 
L 50.400134 -57.601416 
L 50.400134 -58.231445 
L 50.400134 -58.861473 
L 50.400134 -59.491501 
L 50.400134 -60.12153 
L 50.400134 -60.751558 
L 50.400134 -61.381586 
L 50.400134 -62.011614 
L 50.400134 -62.641643 
L 50.400134 -63.271671 
L 50.400134 -63.901699 
L 50.400134 -64.531728 
L 50.400134 -65.161756 
L 50.400134 -65.791784 
L 50.400134 -66.421813 
L 50.400134 -67.051841 
L 50.400134 -67.681869 
L 50.400134 -68.311898 
L 50.400134 -68.941926 
L 50.400134 -69.571954 
L 50.400134 -70.201983 
L 50.400134 -70.832011 
L 50.400134 -71.462039 
L 50.400134 -72.092068 
L 50.400134 -72.722096 
L 50.400134 -73.352124 
L 50.400134 -73.982153 
L 50.400134 -74.612181 
L 50.400134 -75.242209 
L 50.400134 -75.872238 
L 50.400134 -76.502266 
L 50.400134 -77.132294 
L 50.400134 -77.762323 
L 50.400134 -78.392351 
L 50.400134 -79.022379 
L 50.400134 -79.652408 
L 50.400134 -80.282436 
L 50.400134 -80.912464 
L 50.400134 -81.542493 
L 50.400134 -82.172521 
L 50.400134 -82.802549 
L 50.400134 -83.432577 
L 50.400134 -84.062606 
L 50.400134 -84.692634 
L 50.400134 -85.322662 
L 50.400134 -85.952691 
L 50.400134 -86.582719 
L 50.400134 -87.212747 
L 50.400134 -87.842776 
L 50.400134 -88.472804 
L 50.412121 -88.472804 
L 50.412121 -88.472804 
L 50.41775 -87.842776 
L 50.427587 -87.212747 
L 50.443385 -86.582719 
L 50.465068 -85.952691 
L 50.490489 -85.322662 
L 50.517072 -84.692634 
L 50.544038 -84.062606 
L 50.573007 -83.432577 
L 50.606446 -82.802549 
L 50.645986 -82.172521 
L 50.692724 -81.542493 
L 50.748901 -80.912464 
L 50.818294 -80.282436 
L 50.904152 -79.652408 
L 51.006738 -79.022379 
L 51.123343 -78.392351 
L 51.251079 -77.762323 
L 51.390162 -77.132294 
L 51.545373 -76.502266 
L 51.724545 -75.872238 
L 51.934277 -75.242209 
L 52.17542 -74.612181 
L 52.442113 -73.982153 
L 52.724642 -73.352124 
L 53.012375 -72.722096 
L 53.295012 -72.092068 
L 53.564841 -71.462039 
L 53.821094 -70.832011 
L 54.072242 -70.201983 
L 54.331805 -69.571954 
L 54.608942 -68.941926 
L 54.900265 -68.311898 
L 55.190257 -67.681869 
L 55.462779 -67.051841 
L 55.715865 -66.421813 
L 55.965055 -65.791784 
L 56.228752 -65.161756 
L 56.508238 -64.531728 
L 56.78238 -63.901699 
L 57.021332 -63.271671 
L 57.203644 -62.641643 
L 57.32143 -62.011614 
L 57.375 -61.381586 
L 57.368134 -60.751558 
L 57.308244 -60.12153 
L 57.205633 -59.491501 
L 57.067449 -58.861473 
L 56.89191 -58.231445 
L 56.672452 -57.601416 
L 56.411339 -56.971388 
L 56.12818 -56.34136 
L 55.850512 -55.711331 
L 55.593423 -55.081303 
L 55.348767 -54.451275 
L 55.094036 -53.821246 
L 54.810375 -53.191218 
L 54.493523 -52.56119 
L 54.152696 -51.931161 
L 53.803898 -51.301133 
L 53.464691 -50.671105 
L 53.151386 -50.041076 
L 52.876146 -49.411048 
L 52.644035 -48.78102 
L 52.452935 -48.150991 
L 52.296418 -47.520963 
L 52.165185 -46.890935 
L 52.045204 -46.260906 
L 51.917929 -45.630878 
L 51.767987 -45.00085 
L 51.594088 -44.370821 
L 51.412114 -43.740793 
L 51.245466 -43.110765 
L 51.110073 -42.480736 
L 51.00613 -41.850708 
L 50.921678 -41.22068 
L 50.84311 -40.590651 
L 50.763815 -39.960623 
L 50.68592 -39.330595 
L 50.616155 -38.700566 
L 50.56038 -38.070538 
L 50.520516 -37.44051 
L 50.494512 -36.810482 
L 50.477884 -36.180453 
L 50.465616 -35.550425 
L 50.454035 -34.920397 
L 50.442016 -34.290368 
L 50.43064 -33.66034 
L 50.421499 -33.030312 
L 50.415143 -32.400283 
L 50.410886 -31.770255 
L 50.40772 -31.140227 
L 50.405144 -30.510198 
L 50.40324 -29.88017 
L 50.402297 -29.250142 
L 50.402472 -28.620113 
L 50.403653 -27.990085 
L 50.405392 -27.360057 
L 50.406948 -26.730028 
L 50.407571 -26.1 
z
"/>
    </defs>
    <g clip-path="url(#p78a2583aa1)">
     <use xlink:href="#m67d6fc37d1" x="0" y="180" style="fill: #ff4500; fill-opacity: 0.4"/>
    </g>
   </g>
   <g id="PolyCollection_2">
    <defs>
     <path id="m493c40f728" d="M 78.318154 -110.218015 
L 78.300217 -110.218015 
L 78.300217 -110.62127 
L 78.300217 -111.024525 
L 78.300217 -111.427779 
L 78.300217 -111.831034 
L 78.300217 -112.234289 
L 78.300217 -112.637544 
L 78.300217 -113.040799 
L 78.300217 -113.444053 
L 78.300217 -113.847308 
L 78.300217 -114.250563 
L 78.300217 -114.653818 
L 78.300217 -115.057072 
L 78.300217 -115.460327 
L 78.300217 -115.863582 
L 78.300217 -116.266837 
L 78.300217 -116.670091 
L 78.300217 -117.073346 
L 78.300217 -117.476601 
L 78.300217 -117.879856 
L 78.300217 -118.283111 
L 78.300217 -118.686365 
L 78.300217 -119.08962 
L 78.300217 -119.492875 
L 78.300217 -119.89613 
L 78.300217 -120.299384 
L 78.300217 -120.702639 
L 78.300217 -121.105894 
L 78.300217 -121.509149 
L 78.300217 -121.912403 
L 78.300217 -122.315658 
L 78.300217 -122.718913 
L 78.300217 -123.122168 
L 78.300217 -123.525423 
L 78.300217 -123.928677 
L 78.300217 -124.331932 
L 78.300217 -124.735187 
L 78.300217 -125.138442 
L 78.300217 -125.541696 
L 78.300217 -125.944951 
L 78.300217 -126.348206 
L 78.300217 -126.751461 
L 78.300217 -127.154715 
L 78.300217 -127.55797 
L 78.300217 -127.961225 
L 78.300217 -128.36448 
L 78.300217 -128.767735 
L 78.300217 -129.170989 
L 78.300217 -129.574244 
L 78.300217 -129.977499 
L 78.300217 -130.380754 
L 78.300217 -130.784008 
L 78.300217 -131.187263 
L 78.300217 -131.590518 
L 78.300217 -131.993773 
L 78.300217 -132.397027 
L 78.300217 -132.800282 
L 78.300217 -133.203537 
L 78.300217 -133.606792 
L 78.300217 -134.010047 
L 78.300217 -134.413301 
L 78.300217 -134.816556 
L 78.300217 -135.219811 
L 78.300217 -135.623066 
L 78.300217 -136.02632 
L 78.300217 -136.429575 
L 78.300217 -136.83283 
L 78.300217 -137.236085 
L 78.300217 -137.63934 
L 78.300217 -138.042594 
L 78.300217 -138.445849 
L 78.300217 -138.849104 
L 78.300217 -139.252359 
L 78.300217 -139.655613 
L 78.300217 -140.058868 
L 78.300217 -140.462123 
L 78.300217 -140.865378 
L 78.300217 -141.268632 
L 78.300217 -141.671887 
L 78.300217 -142.075142 
L 78.300217 -142.478397 
L 78.300217 -142.881652 
L 78.300217 -143.284906 
L 78.300217 -143.688161 
L 78.300217 -144.091416 
L 78.300217 -144.494671 
L 78.300217 -144.897925 
L 78.300217 -145.30118 
L 78.300217 -145.704435 
L 78.300217 -146.10769 
L 78.300217 -146.510944 
L 78.300217 -146.914199 
L 78.300217 -147.317454 
L 78.300217 -147.720709 
L 78.300217 -148.123964 
L 78.300217 -148.527218 
L 78.300217 -148.930473 
L 78.300217 -149.333728 
L 78.300217 -149.736983 
L 78.300217 -150.140237 
L 78.307821 -150.140237 
L 78.307821 -150.140237 
L 78.307126 -149.736983 
L 78.305413 -149.333728 
L 78.303545 -148.930473 
L 78.302339 -148.527218 
L 78.302244 -148.123964 
L 78.303321 -147.720709 
L 78.305286 -147.317454 
L 78.307617 -146.914199 
L 78.309946 -146.510944 
L 78.312619 -146.10769 
L 78.316839 -145.704435 
L 78.323907 -145.30118 
L 78.334077 -144.897925 
L 78.3461 -144.494671 
L 78.358069 -144.091416 
L 78.368998 -143.688161 
L 78.379856 -143.284906 
L 78.393163 -142.881652 
L 78.411631 -142.478397 
L 78.437151 -142.075142 
L 78.470614 -141.671887 
L 78.511928 -141.268632 
L 78.560124 -140.865378 
L 78.614461 -140.462123 
L 78.676417 -140.058868 
L 78.750372 -139.655613 
L 78.841282 -139.252359 
L 78.950811 -138.849104 
L 79.074875 -138.445849 
L 79.20366 -138.042594 
L 79.323981 -137.63934 
L 79.425254 -137.236085 
L 79.508594 -136.83283 
L 79.592187 -136.429575 
L 79.70523 -136.02632 
L 79.872531 -135.623066 
L 80.101067 -135.219811 
L 80.377887 -134.816556 
L 80.67966 -134.413301 
L 80.986705 -134.010047 
L 81.292386 -133.606792 
L 81.602649 -133.203537 
L 81.927128 -132.800282 
L 82.268261 -132.397027 
L 82.615655 -131.993773 
L 82.949579 -131.590518 
L 83.251542 -131.187263 
L 83.515424 -130.784008 
L 83.751768 -130.380754 
L 83.98082 -129.977499 
L 84.217915 -129.574244 
L 84.4631 -129.170989 
L 84.70354 -128.767735 
L 84.922752 -128.36448 
L 85.104322 -127.961225 
L 85.228864 -127.55797 
L 85.275 -127.154715 
L 85.231125 -126.751461 
L 85.11015 -126.348206 
L 84.951571 -125.944951 
L 84.803117 -125.541696 
L 84.692458 -125.138442 
L 84.611822 -124.735187 
L 84.528996 -124.331932 
L 84.412818 -123.928677 
L 84.2487 -123.525423 
L 84.035254 -123.122168 
L 83.774394 -122.718913 
L 83.468064 -122.315658 
L 83.121734 -121.912403 
L 82.74776 -121.509149 
L 82.363359 -121.105894 
L 81.982679 -120.702639 
L 81.609212 -120.299384 
L 81.237603 -119.89613 
L 80.865189 -119.492875 
L 80.501408 -119.08962 
L 80.164488 -118.686365 
L 79.869149 -118.283111 
L 79.61855 -117.879856 
L 79.407288 -117.476601 
L 79.229445 -117.073346 
L 79.081943 -116.670091 
L 78.961432 -116.266837 
L 78.860878 -115.863582 
L 78.771014 -115.460327 
L 78.685375 -115.057072 
L 78.603773 -114.653818 
L 78.530905 -114.250563 
L 78.47163 -113.847308 
L 78.42727 -113.444053 
L 78.395598 -113.040799 
L 78.373252 -112.637544 
L 78.357566 -112.234289 
L 78.346578 -111.831034 
L 78.338416 -111.427779 
L 78.331407 -111.024525 
L 78.324657 -110.62127 
L 78.318154 -110.218015 
z
"/>
    </defs>
    <g clip-path="url(#p78a2583aa1)">
     <use xlink:href="#m493c40f728" x="0" y="180" style="fill: #2e8b57; fill-opacity: 0.4"/>
    </g>
   </g>
   <g id="PolyCollection_3">
    <defs>
     <path id="mbbeb64cfbf" d="M 106.231714 -97.829413 
L 106.200384 -97.829413 
L 106.200384 -97.988124 
L 106.200384 -98.146834 
L 106.200384 -98.305545 
L 106.200384 -98.464255 
L 106.200384 -98.622965 
L 106.200384 -98.781676 
L 106.200384 -98.940386 
L 106.200384 -99.099097 
L 106.200384 -99.257807 
L 106.200384 -99.416517 
L 106.200384 -99.575228 
L 106.200384 -99.733938 
L 106.200384 -99.892649 
L 106.200384 -100.051359 
L 106.200384 -100.210069 
L 106.200384 -100.36878 
L 106.200384 -100.52749 
L 106.200384 -100.686201 
L 106.200384 -100.844911 
L 106.200384 -101.003622 
L 106.200384 -101.162332 
L 106.200384 -101.321042 
L 106.200384 -101.479753 
L 106.200384 -101.638463 
L 106.200384 -101.797174 
L 106.200384 -101.955884 
L 106.200384 -102.114594 
L 106.200384 -102.273305 
L 106.200384 -102.432015 
L 106.200384 -102.590726 
L 106.200384 -102.749436 
L 106.200384 -102.908146 
L 106.200384 -103.066857 
L 106.200384 -103.225567 
L 106.200384 -103.384278 
L 106.200384 -103.542988 
L 106.200384 -103.701698 
L 106.200384 -103.860409 
L 106.200384 -104.019119 
L 106.200384 -104.17783 
L 106.200384 -104.33654 
L 106.200384 -104.495251 
L 106.200384 -104.653961 
L 106.200384 -104.812671 
L 106.200384 -104.971382 
L 106.200384 -105.130092 
L 106.200384 -105.288803 
L 106.200384 -105.447513 
L 106.200384 -105.606223 
L 106.200384 -105.764934 
L 106.200384 -105.923644 
L 106.200384 -106.082355 
L 106.200384 -106.241065 
L 106.200384 -106.399775 
L 106.200384 -106.558486 
L 106.200384 -106.717196 
L 106.200384 -106.875907 
L 106.200384 -107.034617 
L 106.200384 -107.193328 
L 106.200384 -107.352038 
L 106.200384 -107.510748 
L 106.200384 -107.669459 
L 106.200384 -107.828169 
L 106.200384 -107.98688 
L 106.200384 -108.14559 
L 106.200384 -108.3043 
L 106.200384 -108.463011 
L 106.200384 -108.621721 
L 106.200384 -108.780432 
L 106.200384 -108.939142 
L 106.200384 -109.097852 
L 106.200384 -109.256563 
L 106.200384 -109.415273 
L 106.200384 -109.573984 
L 106.200384 -109.732694 
L 106.200384 -109.891404 
L 106.200384 -110.050115 
L 106.200384 -110.208825 
L 106.200384 -110.367536 
L 106.200384 -110.526246 
L 106.200384 -110.684957 
L 106.200384 -110.843667 
L 106.200384 -111.002377 
L 106.200384 -111.161088 
L 106.200384 -111.319798 
L 106.200384 -111.478509 
L 106.200384 -111.637219 
L 106.200384 -111.795929 
L 106.200384 -111.95464 
L 106.200384 -112.11335 
L 106.200384 -112.272061 
L 106.200384 -112.430771 
L 106.200384 -112.589481 
L 106.200384 -112.748192 
L 106.200384 -112.906902 
L 106.200384 -113.065613 
L 106.200384 -113.224323 
L 106.200384 -113.383034 
L 106.200384 -113.541744 
L 106.21443 -113.541744 
L 106.21443 -113.541744 
L 106.219535 -113.383034 
L 106.226084 -113.224323 
L 106.234288 -113.065613 
L 106.243848 -112.906902 
L 106.254145 -112.748192 
L 106.264976 -112.589481 
L 106.277319 -112.430771 
L 106.293477 -112.272061 
L 106.316388 -112.11335 
L 106.348681 -111.95464 
L 106.392162 -111.795929 
L 106.447904 -111.637219 
L 106.516518 -111.478509 
L 106.598337 -111.319798 
L 106.69354 -111.161088 
L 106.80221 -111.002377 
L 106.924112 -110.843667 
L 107.058343 -110.684957 
L 107.203561 -110.526246 
L 107.359184 -110.367536 
L 107.526653 -110.208825 
L 107.709247 -110.050115 
L 107.910231 -109.891404 
L 108.130858 -109.732694 
L 108.369573 -109.573984 
L 108.622192 -109.415273 
L 108.88233 -109.256563 
L 109.142443 -109.097852 
L 109.395882 -108.939142 
L 109.638935 -108.780432 
L 109.871364 -108.621721 
L 110.095833 -108.463011 
L 110.317792 -108.3043 
L 110.545561 -108.14559 
L 110.788265 -107.98688 
L 111.051194 -107.828169 
L 111.332507 -107.669459 
L 111.625421 -107.510748 
L 111.923786 -107.352038 
L 112.223649 -107.193328 
L 112.517229 -107.034617 
L 112.785581 -106.875907 
L 112.999781 -106.717196 
L 113.13296 -106.558486 
L 113.175 -106.399775 
L 113.138488 -106.241065 
L 113.050612 -106.082355 
L 112.936133 -105.923644 
L 112.804029 -105.764934 
L 112.648024 -105.606223 
L 112.459216 -105.447513 
L 112.238275 -105.288803 
L 111.996677 -105.130092 
L 111.748339 -104.971382 
L 111.501094 -104.812671 
L 111.254529 -104.653961 
L 111.003133 -104.495251 
L 110.740758 -104.33654 
L 110.464403 -104.17783 
L 110.176749 -104.019119 
L 109.886083 -103.860409 
L 109.602688 -103.701698 
L 109.333703 -103.542988 
L 109.080479 -103.384278 
L 108.840419 -103.225567 
L 108.611073 -103.066857 
L 108.392486 -102.908146 
L 108.186254 -102.749436 
L 107.993432 -102.590726 
L 107.814033 -102.432015 
L 107.648275 -102.273305 
L 107.497461 -102.114594 
L 107.363101 -101.955884 
L 107.245159 -101.797174 
L 107.141349 -101.638463 
L 107.048396 -101.479753 
L 106.964118 -101.321042 
L 106.888367 -101.162332 
L 106.821894 -101.003622 
L 106.764193 -100.844911 
L 106.71231 -100.686201 
L 106.661833 -100.52749 
L 106.609493 -100.36878 
L 106.555269 -100.210069 
L 106.502146 -100.051359 
L 106.453671 -99.892649 
L 106.411459 -99.733938 
L 106.374605 -99.575228 
L 106.341099 -99.416517 
L 106.309771 -99.257807 
L 106.281263 -99.099097 
L 106.25757 -98.940386 
L 106.240757 -98.781676 
L 106.231706 -98.622965 
L 106.229482 -98.464255 
L 106.231468 -98.305545 
L 106.234229 -98.146834 
L 106.234781 -97.988124 
L 106.231714 -97.829413 
z
"/>
    </defs>
    <g clip-path="url(#p78a2583aa1)">
     <use xlink:href="#mbbeb64cfbf" x="0" y="180" style="fill: #ff4500; fill-opacity: 0.4"/>
    </g>
   </g>
   <g id="PolyCollection_4">
    <defs>
     <path id="mb6becb25ad" d="M 134.115291 -45.053167 
L 134.100232 -45.053167 
L 134.100232 -46.134449 
L 134.100232 -47.21573 
L 134.100232 -48.297011 
L 134.100232 -49.378292 
L 134.100232 -50.459573 
L 134.100232 -51.540854 
L 134.100232 -52.622135 
L 134.100232 -53.703416 
L 134.100232 -54.784698 
L 134.100232 -55.865979 
L 134.100232 -56.94726 
L 134.100232 -58.028541 
L 134.100232 -59.109822 
L 134.100232 -60.191103 
L 134.100232 -61.272384 
L 134.100232 -62.353666 
L 134.100232 -63.434947 
L 134.100232 -64.516228 
L 134.100232 -65.597509 
L 134.100232 -66.67879 
L 134.100232 -67.760071 
L 134.100232 -68.841352 
L 134.100232 -69.922634 
L 134.100232 -71.003915 
L 134.100232 -72.085196 
L 134.100232 -73.166477 
L 134.100232 -74.247758 
L 134.100232 -75.329039 
L 134.100232 -76.41032 
L 134.100232 -77.491602 
L 134.100232 -78.572883 
L 134.100232 -79.654164 
L 134.100232 -80.735445 
L 134.100232 -81.816726 
L 134.100232 -82.898007 
L 134.100232 -83.979288 
L 134.100232 -85.060569 
L 134.100232 -86.141851 
L 134.100232 -87.223132 
L 134.100232 -88.304413 
L 134.100232 -89.385694 
L 134.100232 -90.466975 
L 134.100232 -91.548256 
L 134.100232 -92.629537 
L 134.100232 -93.710819 
L 134.100232 -94.7921 
L 134.100232 -95.873381 
L 134.100232 -96.954662 
L 134.100232 -98.035943 
L 134.100232 -99.117224 
L 134.100232 -100.198505 
L 134.100232 -101.279787 
L 134.100232 -102.361068 
L 134.100232 -103.442349 
L 134.100232 -104.52363 
L 134.100232 -105.604911 
L 134.100232 -106.686192 
L 134.100232 -107.767473 
L 134.100232 -108.848754 
L 134.100232 -109.930036 
L 134.100232 -111.011317 
L 134.100232 -112.092598 
L 134.100232 -113.173879 
L 134.100232 -114.25516 
L 134.100232 -115.336441 
L 134.100232 -116.417722 
L 134.100232 -117.499004 
L 134.100232 -118.580285 
L 134.100232 -119.661566 
L 134.100232 -120.742847 
L 134.100232 -121.824128 
L 134.100232 -122.905409 
L 134.100232 -123.98669 
L 134.100232 -125.067972 
L 134.100232 -126.149253 
L 134.100232 -127.230534 
L 134.100232 -128.311815 
L 134.100232 -129.393096 
L 134.100232 -130.474377 
L 134.100232 -131.555658 
L 134.100232 -132.63694 
L 134.100232 -133.718221 
L 134.100232 -134.799502 
L 134.100232 -135.880783 
L 134.100232 -136.962064 
L 134.100232 -138.043345 
L 134.100232 -139.124626 
L 134.100232 -140.205907 
L 134.100232 -141.287189 
L 134.100232 -142.36847 
L 134.100232 -143.449751 
L 134.100232 -144.531032 
L 134.100232 -145.612313 
L 134.100232 -146.693594 
L 134.100232 -147.774875 
L 134.100232 -148.856157 
L 134.100232 -149.937438 
L 134.100232 -151.018719 
L 134.100232 -152.1 
L 134.116576 -152.1 
L 134.116576 -152.1 
L 134.120599 -151.018719 
L 134.124538 -149.937438 
L 134.130202 -148.856157 
L 134.140841 -147.774875 
L 134.160061 -146.693594 
L 134.189966 -145.612313 
L 134.229532 -144.531032 
L 134.274331 -143.449751 
L 134.318086 -142.36847 
L 134.355692 -141.287189 
L 134.386548 -140.205907 
L 134.416384 -139.124626 
L 134.455867 -138.043345 
L 134.516 -136.962064 
L 134.603224 -135.880783 
L 134.71789 -134.799502 
L 134.856682 -133.718221 
L 135.015833 -132.63694 
L 135.192332 -131.555658 
L 135.383319 -130.474377 
L 135.585411 -129.393096 
L 135.795695 -128.311815 
L 136.015496 -127.230534 
L 136.254733 -126.149253 
L 136.530286 -125.067972 
L 136.854768 -123.98669 
L 137.223421 -122.905409 
L 137.612555 -121.824128 
L 137.992401 -120.742847 
L 138.341864 -119.661566 
L 138.651969 -118.580285 
L 138.919809 -117.499004 
L 139.145631 -116.417722 
L 139.338305 -115.336441 
L 139.520013 -114.25516 
L 139.719742 -113.173879 
L 139.957375 -112.092598 
L 140.229542 -111.011317 
L 140.507546 -109.930036 
L 140.750676 -108.848754 
L 140.927855 -107.767473 
L 141.031858 -106.686192 
L 141.075 -105.604911 
L 141.072551 -104.52363 
L 141.030804 -103.442349 
L 140.948075 -102.361068 
L 140.822326 -101.279787 
L 140.65608 -100.198505 
L 140.456188 -99.117224 
L 140.230905 -98.035943 
L 139.986741 -96.954662 
L 139.726785 -95.873381 
L 139.451174 -94.7921 
L 139.158893 -93.710819 
L 138.850068 -92.629537 
L 138.528236 -91.548256 
L 138.200675 -90.466975 
L 137.875348 -89.385694 
L 137.557236 -88.304413 
L 137.248277 -87.223132 
L 136.950113 -86.141851 
L 136.665596 -85.060569 
L 136.398287 -83.979288 
L 136.152049 -82.898007 
L 135.930242 -81.816726 
L 135.732769 -80.735445 
L 135.553486 -79.654164 
L 135.382828 -78.572883 
L 135.214833 -77.491602 
L 135.051375 -76.41032 
L 134.899113 -75.329039 
L 134.763189 -74.247758 
L 134.644589 -73.166477 
L 134.542416 -72.085196 
L 134.456803 -71.003915 
L 134.389109 -69.922634 
L 134.339901 -68.841352 
L 134.306902 -67.760071 
L 134.284563 -66.67879 
L 134.265825 -65.597509 
L 134.245263 -64.516228 
L 134.221589 -63.434947 
L 134.197578 -62.353666 
L 134.177317 -61.272384 
L 134.162946 -60.191103 
L 134.15349 -59.109822 
L 134.146253 -58.028541 
L 134.138968 -56.94726 
L 134.130877 -55.865979 
L 134.122498 -54.784698 
L 134.11487 -53.703416 
L 134.10893 -52.622135 
L 134.105243 -51.540854 
L 134.103995 -50.459573 
L 134.10508 -49.378292 
L 134.108022 -48.297011 
L 134.111747 -47.21573 
L 134.114648 -46.134449 
L 134.115291 -45.053167 
z
"/>
    </defs>
    <g clip-path="url(#p78a2583aa1)">
     <use xlink:href="#mb6becb25ad" x="0" y="180" style="fill: #2e8b57; fill-opacity: 0.4"/>
    </g>
   </g>
   <g id="PolyCollection_5">
    <path d="M 22.5 66.072813 
L 22.5 72.2648 
L 22.779 72.2648 
L 23.058 72.2648 
L 23.337 72.2648 
L 23.616 72.2648 
L 23.895 72.2648 
L 24.174 72.2648 
L 24.453 72.2648 
L 24.732 72.2648 
L 25.011 72.2648 
L 25.29 72.2648 
L 25.569 72.2648 
L 25.848 72.2648 
L 26.127 72.2648 
L 26.406 72.2648 
L 26.685 72.2648 
L 26.964 72.2648 
L 27.243 72.2648 
L 27.522 72.2648 
L 27.801 72.2648 
L 28.08 72.2648 
L 28.359 72.2648 
L 28.638 72.2648 
L 28.917 72.2648 
L 29.196 72.2648 
L 29.475 72.2648 
L 29.754 72.2648 
L 30.033 72.2648 
L 30.312 72.2648 
L 30.591 72.2648 
L 30.87 72.2648 
L 31.149 72.2648 
L 31.428 72.2648 
L 31.707 72.2648 
L 31.986 72.2648 
L 32.265 72.2648 
L 32.544 72.2648 
L 32.823 72.2648 
L 33.102 72.2648 
L 33.381 72.2648 
L 33.66 72.2648 
L 33.939 72.2648 
L 34.218 72.2648 
L 34.497 72.2648 
L 34.776 72.2648 
L 35.055 72.2648 
L 35.334 72.2648 
L 35.613 72.2648 
L 35.892 72.2648 
L 36.171 72.2648 
L 36.45 72.2648 
L 36.729 72.2648 
L 37.008 72.2648 
L 37.287 72.2648 
L 37.566 72.2648 
L 37.845 72.2648 
L 38.124 72.2648 
L 38.403 72.2648 
L 38.682 72.2648 
L 38.961 72.2648 
L 39.24 72.2648 
L 39.519 72.2648 
L 39.798 72.2648 
L 40.077 72.2648 
L 40.356 72.2648 
L 40.635 72.2648 
L 40.914 72.2648 
L 41.193 72.2648 
L 41.472 72.2648 
L 41.751 72.2648 
L 42.03 72.2648 
L 42.309 72.2648 
L 42.588 72.2648 
L 42.867 72.2648 
L 43.146 72.2648 
L 43.425 72.2648 
L 43.704 72.2648 
L 43.983 72.2648 
L 44.262 72.2648 
L 44.541 72.2648 
L 44.82 72.2648 
L 45.099 72.2648 
L 45.378 72.2648 
L 45.657 72.2648 
L 45.936 72.2648 
L 46.215 72.2648 
L 46.494 72.2648 
L 46.773 72.2648 
L 47.052 72.2648 
L 47.331 72.2648 
L 47.61 72.2648 
L 47.889 72.2648 
L 48.168 72.2648 
L 48.447 72.2648 
L 48.726 72.2648 
L 49.005 72.2648 
L 49.284 72.2648 
L 49.563 72.2648 
L 49.842 72.2648 
L 50.121 72.2648 
L 50.4 72.2648 
L 50.679 72.2648 
L 50.958 72.2648 
L 51.237 72.2648 
L 51.516 72.2648 
L 51.795 72.2648 
L 52.074 72.2648 
L 52.353 72.2648 
L 52.632 72.2648 
L 52.911 72.2648 
L 53.19 72.2648 
L 53.469 72.2648 
L 53.748 72.2648 
L 54.027 72.2648 
L 54.306 72.2648 
L 54.585 72.2648 
L 54.864 72.2648 
L 55.143 72.2648 
L 55.422 72.2648 
L 55.701 72.2648 
L 55.98 72.2648 
L 56.259 72.2648 
L 56.538 72.2648 
L 56.817 72.2648 
L 57.096 72.2648 
L 57.375 72.2648 
L 57.654 72.2648 
L 57.933 72.2648 
L 58.212 72.2648 
L 58.491 72.2648 
L 58.77 72.2648 
L 59.049 72.2648 
L 59.328 72.2648 
L 59.607 72.2648 
L 59.886 72.2648 
L 60.165 72.2648 
L 60.444 72.2648 
L 60.723 72.2648 
L 61.002 72.2648 
L 61.281 72.2648 
L 61.56 72.2648 
L 61.839 72.2648 
L 62.118 72.2648 
L 62.397 72.2648 
L 62.676 72.2648 
L 62.955 72.2648 
L 63.234 72.2648 
L 63.513 72.2648 
L 63.792 72.2648 
L 64.071 72.2648 
L 64.35 72.2648 
L 64.629 72.2648 
L 64.908 72.2648 
L 65.187 72.2648 
L 65.466 72.2648 
L 65.745 72.2648 
L 66.024 72.2648 
L 66.303 72.2648 
L 66.582 72.2648 
L 66.861 72.2648 
L 67.14 72.2648 
L 67.419 72.2648 
L 67.698 72.2648 
L 67.977 72.2648 
L 68.256 72.2648 
L 68.535 72.2648 
L 68.814 72.2648 
L 69.093 72.2648 
L 69.372 72.2648 
L 69.651 72.2648 
L 69.93 72.2648 
L 70.209 72.2648 
L 70.488 72.2648 
L 70.767 72.2648 
L 71.046 72.2648 
L 71.325 72.2648 
L 71.604 72.2648 
L 71.883 72.2648 
L 72.162 72.2648 
L 72.441 72.2648 
L 72.72 72.2648 
L 72.999 72.2648 
L 73.278 72.2648 
L 73.557 72.2648 
L 73.836 72.2648 
L 74.115 72.2648 
L 74.394 72.2648 
L 74.673 72.2648 
L 74.952 72.2648 
L 75.231 72.2648 
L 75.51 72.2648 
L 75.789 72.2648 
L 76.068 72.2648 
L 76.347 72.2648 
L 76.626 72.2648 
L 76.905 72.2648 
L 77.184 72.2648 
L 77.463 72.2648 
L 77.742 72.2648 
L 78.021 72.2648 
L 78.3 72.2648 
L 78.579 72.2648 
L 78.858 72.2648 
L 79.137 72.2648 
L 79.416 72.2648 
L 79.695 72.2648 
L 79.974 72.2648 
L 80.253 72.2648 
L 80.532 72.2648 
L 80.811 72.2648 
L 81.09 72.2648 
L 81.369 72.2648 
L 81.648 72.2648 
L 81.927 72.2648 
L 82.206 72.2648 
L 82.485 72.2648 
L 82.764 72.2648 
L 83.043 72.2648 
L 83.322 72.2648 
L 83.601 72.2648 
L 83.88 72.2648 
L 84.159 72.2648 
L 84.438 72.2648 
L 84.717 72.2648 
L 84.996 72.2648 
L 85.275 72.2648 
L 85.554 72.2648 
L 85.833 72.2648 
L 86.112 72.2648 
L 86.391 72.2648 
L 86.67 72.2648 
L 86.949 72.2648 
L 87.228 72.2648 
L 87.507 72.2648 
L 87.786 72.2648 
L 88.065 72.2648 
L 88.344 72.2648 
L 88.623 72.2648 
L 88.902 72.2648 
L 89.181 72.2648 
L 89.46 72.2648 
L 89.739 72.2648 
L 90.018 72.2648 
L 90.297 72.2648 
L 90.576 72.2648 
L 90.855 72.2648 
L 91.134 72.2648 
L 91.413 72.2648 
L 91.692 72.2648 
L 91.971 72.2648 
L 92.25 72.2648 
L 92.529 72.2648 
L 92.808 72.2648 
L 93.087 72.2648 
L 93.366 72.2648 
L 93.645 72.2648 
L 93.924 72.2648 
L 94.203 72.2648 
L 94.482 72.2648 
L 94.761 72.2648 
L 95.04 72.2648 
L 95.319 72.2648 
L 95.598 72.2648 
L 95.877 72.2648 
L 96.156 72.2648 
L 96.435 72.2648 
L 96.714 72.2648 
L 96.993 72.2648 
L 97.272 72.2648 
L 97.551 72.2648 
L 97.83 72.2648 
L 98.109 72.2648 
L 98.388 72.2648 
L 98.667 72.2648 
L 98.946 72.2648 
L 99.225 72.2648 
L 99.504 72.2648 
L 99.783 72.2648 
L 100.062 72.2648 
L 100.341 72.2648 
L 100.62 72.2648 
L 100.899 72.2648 
L 101.178 72.2648 
L 101.457 72.2648 
L 101.736 72.2648 
L 102.015 72.2648 
L 102.294 72.2648 
L 102.573 72.2648 
L 102.852 72.2648 
L 103.131 72.2648 
L 103.41 72.2648 
L 103.689 72.2648 
L 103.968 72.2648 
L 104.247 72.2648 
L 104.526 72.2648 
L 104.805 72.2648 
L 105.084 72.2648 
L 105.363 72.2648 
L 105.642 72.2648 
L 105.921 72.2648 
L 106.2 72.2648 
L 106.479 72.2648 
L 106.758 72.2648 
L 107.037 72.2648 
L 107.316 72.2648 
L 107.595 72.2648 
L 107.874 72.2648 
L 108.153 72.2648 
L 108.432 72.2648 
L 108.711 72.2648 
L 108.99 72.2648 
L 109.269 72.2648 
L 109.548 72.2648 
L 109.827 72.2648 
L 110.106 72.2648 
L 110.385 72.2648 
L 110.664 72.2648 
L 110.943 72.2648 
L 111.222 72.2648 
L 111.501 72.2648 
L 111.78 72.2648 
L 112.059 72.2648 
L 112.338 72.2648 
L 112.617 72.2648 
L 112.896 72.2648 
L 113.175 72.2648 
L 113.454 72.2648 
L 113.733 72.2648 
L 114.012 72.2648 
L 114.291 72.2648 
L 114.57 72.2648 
L 114.849 72.2648 
L 115.128 72.2648 
L 115.407 72.2648 
L 115.686 72.2648 
L 115.965 72.2648 
L 116.244 72.2648 
L 116.523 72.2648 
L 116.802 72.2648 
L 117.081 72.2648 
L 117.36 72.2648 
L 117.639 72.2648 
L 117.918 72.2648 
L 118.197 72.2648 
L 118.476 72.2648 
L 118.755 72.2648 
L 119.034 72.2648 
L 119.313 72.2648 
L 119.592 72.2648 
L 119.871 72.2648 
L 120.15 72.2648 
L 120.429 72.2648 
L 120.708 72.2648 
L 120.987 72.2648 
L 121.266 72.2648 
L 121.545 72.2648 
L 121.824 72.2648 
L 122.103 72.2648 
L 122.382 72.2648 
L 122.661 72.2648 
L 122.94 72.2648 
L 123.219 72.2648 
L 123.498 72.2648 
L 123.777 72.2648 
L 124.056 72.2648 
L 124.335 72.2648 
L 124.614 72.2648 
L 124.893 72.2648 
L 125.172 72.2648 
L 125.451 72.2648 
L 125.73 72.2648 
L 126.009 72.2648 
L 126.288 72.2648 
L 126.567 72.2648 
L 126.846 72.2648 
L 127.125 72.2648 
L 127.404 72.2648 
L 127.683 72.2648 
L 127.962 72.2648 
L 128.241 72.2648 
L 128.52 72.2648 
L 128.799 72.2648 
L 129.078 72.2648 
L 129.357 72.2648 
L 129.636 72.2648 
L 129.915 72.2648 
L 130.194 72.2648 
L 130.473 72.2648 
L 130.752 72.2648 
L 131.031 72.2648 
L 131.31 72.2648 
L 131.589 72.2648 
L 131.868 72.2648 
L 132.147 72.2648 
L 132.426 72.2648 
L 132.705 72.2648 
L 132.984 72.2648 
L 133.263 72.2648 
L 133.542 72.2648 
L 133.821 72.2648 
L 134.1 72.2648 
L 134.379 72.2648 
L 134.658 72.2648 
L 134.937 72.2648 
L 135.216 72.2648 
L 135.495 72.2648 
L 135.774 72.2648 
L 136.053 72.2648 
L 136.332 72.2648 
L 136.611 72.2648 
L 136.89 72.2648 
L 137.169 72.2648 
L 137.448 72.2648 
L 137.727 72.2648 
L 138.006 72.2648 
L 138.285 72.2648 
L 138.564 72.2648 
L 138.843 72.2648 
L 139.122 72.2648 
L 139.401 72.2648 
L 139.68 72.2648 
L 139.959 72.2648 
L 140.238 72.2648 
L 140.517 72.2648 
L 140.796 72.2648 
L 141.075 72.2648 
L 141.354 72.2648 
L 141.633 72.2648 
L 141.912 72.2648 
L 142.191 72.2648 
L 142.47 72.2648 
L 142.749 72.2648 
L 143.028 72.2648 
L 143.307 72.2648 
L 143.586 72.2648 
L 143.865 72.2648 
L 144.144 72.2648 
L 144.423 72.2648 
L 144.702 72.2648 
L 144.981 72.2648 
L 145.26 72.2648 
L 145.539 72.2648 
L 145.818 72.2648 
L 146.097 72.2648 
L 146.376 72.2648 
L 146.655 72.2648 
L 146.934 72.2648 
L 147.213 72.2648 
L 147.492 72.2648 
L 147.771 72.2648 
L 148.05 72.2648 
L 148.329 72.2648 
L 148.608 72.2648 
L 148.887 72.2648 
L 149.166 72.2648 
L 149.445 72.2648 
L 149.724 72.2648 
L 150.003 72.2648 
L 150.282 72.2648 
L 150.561 72.2648 
L 150.84 72.2648 
L 151.119 72.2648 
L 151.398 72.2648 
L 151.677 72.2648 
L 151.956 72.2648 
L 152.235 72.2648 
L 152.514 72.2648 
L 152.793 72.2648 
L 153.072 72.2648 
L 153.351 72.2648 
L 153.63 72.2648 
L 153.909 72.2648 
L 154.188 72.2648 
L 154.467 72.2648 
L 154.746 72.2648 
L 155.025 72.2648 
L 155.304 72.2648 
L 155.583 72.2648 
L 155.862 72.2648 
L 156.141 72.2648 
L 156.42 72.2648 
L 156.699 72.2648 
L 156.978 72.2648 
L 157.257 72.2648 
L 157.536 72.2648 
L 157.815 72.2648 
L 158.094 72.2648 
L 158.373 72.2648 
L 158.652 72.2648 
L 158.931 72.2648 
L 159.21 72.2648 
L 159.489 72.2648 
L 159.768 72.2648 
L 160.047 72.2648 
L 160.326 72.2648 
L 160.605 72.2648 
L 160.884 72.2648 
L 161.163 72.2648 
L 161.442 72.2648 
L 161.721 72.2648 
L 161.721 66.072813 
L 161.721 66.072813 
L 161.442 66.072813 
L 161.163 66.072813 
L 160.884 66.072813 
L 160.605 66.072813 
L 160.326 66.072813 
L 160.047 66.072813 
L 159.768 66.072813 
L 159.489 66.072813 
L 159.21 66.072813 
L 158.931 66.072813 
L 158.652 66.072813 
L 158.373 66.072813 
L 158.094 66.072813 
L 157.815 66.072813 
L 157.536 66.072813 
L 157.257 66.072813 
L 156.978 66.072813 
L 156.699 66.072813 
L 156.42 66.072813 
L 156.141 66.072813 
L 155.862 66.072813 
L 155.583 66.072813 
L 155.304 66.072813 
L 155.025 66.072813 
L 154.746 66.072813 
L 154.467 66.072813 
L 154.188 66.072813 
L 153.909 66.072813 
L 153.63 66.072813 
L 153.351 66.072813 
L 153.072 66.072813 
L 152.793 66.072813 
L 152.514 66.072813 
L 152.235 66.072813 
L 151.956 66.072813 
L 151.677 66.072813 
L 151.398 66.072813 
L 151.119 66.072813 
L 150.84 66.072813 
L 150.561 66.072813 
L 150.282 66.072813 
L 150.003 66.072813 
L 149.724 66.072813 
L 149.445 66.072813 
L 149.166 66.072813 
L 148.887 66.072813 
L 148.608 66.072813 
L 148.329 66.072813 
L 148.05 66.072813 
L 147.771 66.072813 
L 147.492 66.072813 
L 147.213 66.072813 
L 146.934 66.072813 
L 146.655 66.072813 
L 146.376 66.072813 
L 146.097 66.072813 
L 145.818 66.072813 
L 145.539 66.072813 
L 145.26 66.072813 
L 144.981 66.072813 
L 144.702 66.072813 
L 144.423 66.072813 
L 144.144 66.072813 
L 143.865 66.072813 
L 143.586 66.072813 
L 143.307 66.072813 
L 143.028 66.072813 
L 142.749 66.072813 
L 142.47 66.072813 
L 142.191 66.072813 
L 141.912 66.072813 
L 141.633 66.072813 
L 141.354 66.072813 
L 141.075 66.072813 
L 140.796 66.072813 
L 140.517 66.072813 
L 140.238 66.072813 
L 139.959 66.072813 
L 139.68 66.072813 
L 139.401 66.072813 
L 139.122 66.072813 
L 138.843 66.072813 
L 138.564 66.072813 
L 138.285 66.072813 
L 138.006 66.072813 
L 137.727 66.072813 
L 137.448 66.072813 
L 137.169 66.072813 
L 136.89 66.072813 
L 136.611 66.072813 
L 136.332 66.072813 
L 136.053 66.072813 
L 135.774 66.072813 
L 135.495 66.072813 
L 135.216 66.072813 
L 134.937 66.072813 
L 134.658 66.072813 
L 134.379 66.072813 
L 134.1 66.072813 
L 133.821 66.072813 
L 133.542 66.072813 
L 133.263 66.072813 
L 132.984 66.072813 
L 132.705 66.072813 
L 132.426 66.072813 
L 132.147 66.072813 
L 131.868 66.072813 
L 131.589 66.072813 
L 131.31 66.072813 
L 131.031 66.072813 
L 130.752 66.072813 
L 130.473 66.072813 
L 130.194 66.072813 
L 129.915 66.072813 
L 129.636 66.072813 
L 129.357 66.072813 
L 129.078 66.072813 
L 128.799 66.072813 
L 128.52 66.072813 
L 128.241 66.072813 
L 127.962 66.072813 
L 127.683 66.072813 
L 127.404 66.072813 
L 127.125 66.072813 
L 126.846 66.072813 
L 126.567 66.072813 
L 126.288 66.072813 
L 126.009 66.072813 
L 125.73 66.072813 
L 125.451 66.072813 
L 125.172 66.072813 
L 124.893 66.072813 
L 124.614 66.072813 
L 124.335 66.072813 
L 124.056 66.072813 
L 123.777 66.072813 
L 123.498 66.072813 
L 123.219 66.072813 
L 122.94 66.072813 
L 122.661 66.072813 
L 122.382 66.072813 
L 122.103 66.072813 
L 121.824 66.072813 
L 121.545 66.072813 
L 121.266 66.072813 
L 120.987 66.072813 
L 120.708 66.072813 
L 120.429 66.072813 
L 120.15 66.072813 
L 119.871 66.072813 
L 119.592 66.072813 
L 119.313 66.072813 
L 119.034 66.072813 
L 118.755 66.072813 
L 118.476 66.072813 
L 118.197 66.072813 
L 117.918 66.072813 
L 117.639 66.072813 
L 117.36 66.072813 
L 117.081 66.072813 
L 116.802 66.072813 
L 116.523 66.072813 
L 116.244 66.072813 
L 115.965 66.072813 
L 115.686 66.072813 
L 115.407 66.072813 
L 115.128 66.072813 
L 114.849 66.072813 
L 114.57 66.072813 
L 114.291 66.072813 
L 114.012 66.072813 
L 113.733 66.072813 
L 113.454 66.072813 
L 113.175 66.072813 
L 112.896 66.072813 
L 112.617 66.072813 
L 112.338 66.072813 
L 112.059 66.072813 
L 111.78 66.072813 
L 111.501 66.072813 
L 111.222 66.072813 
L 110.943 66.072813 
L 110.664 66.072813 
L 110.385 66.072813 
L 110.106 66.072813 
L 109.827 66.072813 
L 109.548 66.072813 
L 109.269 66.072813 
L 108.99 66.072813 
L 108.711 66.072813 
L 108.432 66.072813 
L 108.153 66.072813 
L 107.874 66.072813 
L 107.595 66.072813 
L 107.316 66.072813 
L 107.037 66.072813 
L 106.758 66.072813 
L 106.479 66.072813 
L 106.2 66.072813 
L 105.921 66.072813 
L 105.642 66.072813 
L 105.363 66.072813 
L 105.084 66.072813 
L 104.805 66.072813 
L 104.526 66.072813 
L 104.247 66.072813 
L 103.968 66.072813 
L 103.689 66.072813 
L 103.41 66.072813 
L 103.131 66.072813 
L 102.852 66.072813 
L 102.573 66.072813 
L 102.294 66.072813 
L 102.015 66.072813 
L 101.736 66.072813 
L 101.457 66.072813 
L 101.178 66.072813 
L 100.899 66.072813 
L 100.62 66.072813 
L 100.341 66.072813 
L 100.062 66.072813 
L 99.783 66.072813 
L 99.504 66.072813 
L 99.225 66.072813 
L 98.946 66.072813 
L 98.667 66.072813 
L 98.388 66.072813 
L 98.109 66.072813 
L 97.83 66.072813 
L 97.551 66.072813 
L 97.272 66.072813 
L 96.993 66.072813 
L 96.714 66.072813 
L 96.435 66.072813 
L 96.156 66.072813 
L 95.877 66.072813 
L 95.598 66.072813 
L 95.319 66.072813 
L 95.04 66.072813 
L 94.761 66.072813 
L 94.482 66.072813 
L 94.203 66.072813 
L 93.924 66.072813 
L 93.645 66.072813 
L 93.366 66.072813 
L 93.087 66.072813 
L 92.808 66.072813 
L 92.529 66.072813 
L 92.25 66.072813 
L 91.971 66.072813 
L 91.692 66.072813 
L 91.413 66.072813 
L 91.134 66.072813 
L 90.855 66.072813 
L 90.576 66.072813 
L 90.297 66.072813 
L 90.018 66.072813 
L 89.739 66.072813 
L 89.46 66.072813 
L 89.181 66.072813 
L 88.902 66.072813 
L 88.623 66.072813 
L 88.344 66.072813 
L 88.065 66.072813 
L 87.786 66.072813 
L 87.507 66.072813 
L 87.228 66.072813 
L 86.949 66.072813 
L 86.67 66.072813 
L 86.391 66.072813 
L 86.112 66.072813 
L 85.833 66.072813 
L 85.554 66.072813 
L 85.275 66.072813 
L 84.996 66.072813 
L 84.717 66.072813 
L 84.438 66.072813 
L 84.159 66.072813 
L 83.88 66.072813 
L 83.601 66.072813 
L 83.322 66.072813 
L 83.043 66.072813 
L 82.764 66.072813 
L 82.485 66.072813 
L 82.206 66.072813 
L 81.927 66.072813 
L 81.648 66.072813 
L 81.369 66.072813 
L 81.09 66.072813 
L 80.811 66.072813 
L 80.532 66.072813 
L 80.253 66.072813 
L 79.974 66.072813 
L 79.695 66.072813 
L 79.416 66.072813 
L 79.137 66.072813 
L 78.858 66.072813 
L 78.579 66.072813 
L 78.3 66.072813 
L 78.021 66.072813 
L 77.742 66.072813 
L 77.463 66.072813 
L 77.184 66.072813 
L 76.905 66.072813 
L 76.626 66.072813 
L 76.347 66.072813 
L 76.068 66.072813 
L 75.789 66.072813 
L 75.51 66.072813 
L 75.231 66.072813 
L 74.952 66.072813 
L 74.673 66.072813 
L 74.394 66.072813 
L 74.115 66.072813 
L 73.836 66.072813 
L 73.557 66.072813 
L 73.278 66.072813 
L 72.999 66.072813 
L 72.72 66.072813 
L 72.441 66.072813 
L 72.162 66.072813 
L 71.883 66.072813 
L 71.604 66.072813 
L 71.325 66.072813 
L 71.046 66.072813 
L 70.767 66.072813 
L 70.488 66.072813 
L 70.209 66.072813 
L 69.93 66.072813 
L 69.651 66.072813 
L 69.372 66.072813 
L 69.093 66.072813 
L 68.814 66.072813 
L 68.535 66.072813 
L 68.256 66.072813 
L 67.977 66.072813 
L 67.698 66.072813 
L 67.419 66.072813 
L 67.14 66.072813 
L 66.861 66.072813 
L 66.582 66.072813 
L 66.303 66.072813 
L 66.024 66.072813 
L 65.745 66.072813 
L 65.466 66.072813 
L 65.187 66.072813 
L 64.908 66.072813 
L 64.629 66.072813 
L 64.35 66.072813 
L 64.071 66.072813 
L 63.792 66.072813 
L 63.513 66.072813 
L 63.234 66.072813 
L 62.955 66.072813 
L 62.676 66.072813 
L 62.397 66.072813 
L 62.118 66.072813 
L 61.839 66.072813 
L 61.56 66.072813 
L 61.281 66.072813 
L 61.002 66.072813 
L 60.723 66.072813 
L 60.444 66.072813 
L 60.165 66.072813 
L 59.886 66.072813 
L 59.607 66.072813 
L 59.328 66.072813 
L 59.049 66.072813 
L 58.77 66.072813 
L 58.491 66.072813 
L 58.212 66.072813 
L 57.933 66.072813 
L 57.654 66.072813 
L 57.375 66.072813 
L 57.096 66.072813 
L 56.817 66.072813 
L 56.538 66.072813 
L 56.259 66.072813 
L 55.98 66.072813 
L 55.701 66.072813 
L 55.422 66.072813 
L 55.143 66.072813 
L 54.864 66.072813 
L 54.585 66.072813 
L 54.306 66.072813 
L 54.027 66.072813 
L 53.748 66.072813 
L 53.469 66.072813 
L 53.19 66.072813 
L 52.911 66.072813 
L 52.632 66.072813 
L 52.353 66.072813 
L 52.074 66.072813 
L 51.795 66.072813 
L 51.516 66.072813 
L 51.237 66.072813 
L 50.958 66.072813 
L 50.679 66.072813 
L 50.4 66.072813 
L 50.121 66.072813 
L 49.842 66.072813 
L 49.563 66.072813 
L 49.284 66.072813 
L 49.005 66.072813 
L 48.726 66.072813 
L 48.447 66.072813 
L 48.168 66.072813 
L 47.889 66.072813 
L 47.61 66.072813 
L 47.331 66.072813 
L 47.052 66.072813 
L 46.773 66.072813 
L 46.494 66.072813 
L 46.215 66.072813 
L 45.936 66.072813 
L 45.657 66.072813 
L 45.378 66.072813 
L 45.099 66.072813 
L 44.82 66.072813 
L 44.541 66.072813 
L 44.262 66.072813 
L 43.983 66.072813 
L 43.704 66.072813 
L 43.425 66.072813 
L 43.146 66.072813 
L 42.867 66.072813 
L 42.588 66.072813 
L 42.309 66.072813 
L 42.03 66.072813 
L 41.751 66.072813 
L 41.472 66.072813 
L 41.193 66.072813 
L 40.914 66.072813 
L 40.635 66.072813 
L 40.356 66.072813 
L 40.077 66.072813 
L 39.798 66.072813 
L 39.519 66.072813 
L 39.24 66.072813 
L 38.961 66.072813 
L 38.682 66.072813 
L 38.403 66.072813 
L 38.124 66.072813 
L 37.845 66.072813 
L 37.566 66.072813 
L 37.287 66.072813 
L 37.008 66.072813 
L 36.729 66.072813 
L 36.45 66.072813 
L 36.171 66.072813 
L 35.892 66.072813 
L 35.613 66.072813 
L 35.334 66.072813 
L 35.055 66.072813 
L 34.776 66.072813 
L 34.497 66.072813 
L 34.218 66.072813 
L 33.939 66.072813 
L 33.66 66.072813 
L 33.381 66.072813 
L 33.102 66.072813 
L 32.823 66.072813 
L 32.544 66.072813 
L 32.265 66.072813 
L 31.986 66.072813 
L 31.707 66.072813 
L 31.428 66.072813 
L 31.149 66.072813 
L 30.87 66.072813 
L 30.591 66.072813 
L 30.312 66.072813 
L 30.033 66.072813 
L 29.754 66.072813 
L 29.475 66.072813 
L 29.196 66.072813 
L 28.917 66.072813 
L 28.638 66.072813 
L 28.359 66.072813 
L 28.08 66.072813 
L 27.801 66.072813 
L 27.522 66.072813 
L 27.243 66.072813 
L 26.964 66.072813 
L 26.685 66.072813 
L 26.406 66.072813 
L 26.127 66.072813 
L 25.848 66.072813 
L 25.569 66.072813 
L 25.29 66.072813 
L 25.011 66.072813 
L 24.732 66.072813 
L 24.453 66.072813 
L 24.174 66.072813 
L 23.895 66.072813 
L 23.616 66.072813 
L 23.337 66.072813 
L 23.058 66.072813 
L 22.779 66.072813 
L 22.5 66.072813 
z
" clip-path="url(#p78a2583aa1)" style="fill: #d3436e; fill-opacity: 0.1"/>
   </g>
   <g id="PolyCollection_6">
    <path d="M 22.5 54.04544 
L 22.5 63.701723 
L 22.779 63.701723 
L 23.058 63.701723 
L 23.337 63.701723 
L 23.616 63.701723 
L 23.895 63.701723 
L 24.174 63.701723 
L 24.453 63.701723 
L 24.732 63.701723 
L 25.011 63.701723 
L 25.29 63.701723 
L 25.569 63.701723 
L 25.848 63.701723 
L 26.127 63.701723 
L 26.406 63.701723 
L 26.685 63.701723 
L 26.964 63.701723 
L 27.243 63.701723 
L 27.522 63.701723 
L 27.801 63.701723 
L 28.08 63.701723 
L 28.359 63.701723 
L 28.638 63.701723 
L 28.917 63.701723 
L 29.196 63.701723 
L 29.475 63.701723 
L 29.754 63.701723 
L 30.033 63.701723 
L 30.312 63.701723 
L 30.591 63.701723 
L 30.87 63.701723 
L 31.149 63.701723 
L 31.428 63.701723 
L 31.707 63.701723 
L 31.986 63.701723 
L 32.265 63.701723 
L 32.544 63.701723 
L 32.823 63.701723 
L 33.102 63.701723 
L 33.381 63.701723 
L 33.66 63.701723 
L 33.939 63.701723 
L 34.218 63.701723 
L 34.497 63.701723 
L 34.776 63.701723 
L 35.055 63.701723 
L 35.334 63.701723 
L 35.613 63.701723 
L 35.892 63.701723 
L 36.171 63.701723 
L 36.45 63.701723 
L 36.729 63.701723 
L 37.008 63.701723 
L 37.287 63.701723 
L 37.566 63.701723 
L 37.845 63.701723 
L 38.124 63.701723 
L 38.403 63.701723 
L 38.682 63.701723 
L 38.961 63.701723 
L 39.24 63.701723 
L 39.519 63.701723 
L 39.798 63.701723 
L 40.077 63.701723 
L 40.356 63.701723 
L 40.635 63.701723 
L 40.914 63.701723 
L 41.193 63.701723 
L 41.472 63.701723 
L 41.751 63.701723 
L 42.03 63.701723 
L 42.309 63.701723 
L 42.588 63.701723 
L 42.867 63.701723 
L 43.146 63.701723 
L 43.425 63.701723 
L 43.704 63.701723 
L 43.983 63.701723 
L 44.262 63.701723 
L 44.541 63.701723 
L 44.82 63.701723 
L 45.099 63.701723 
L 45.378 63.701723 
L 45.657 63.701723 
L 45.936 63.701723 
L 46.215 63.701723 
L 46.494 63.701723 
L 46.773 63.701723 
L 47.052 63.701723 
L 47.331 63.701723 
L 47.61 63.701723 
L 47.889 63.701723 
L 48.168 63.701723 
L 48.447 63.701723 
L 48.726 63.701723 
L 49.005 63.701723 
L 49.284 63.701723 
L 49.563 63.701723 
L 49.842 63.701723 
L 50.121 63.701723 
L 50.4 63.701723 
L 50.679 63.701723 
L 50.958 63.701723 
L 51.237 63.701723 
L 51.516 63.701723 
L 51.795 63.701723 
L 52.074 63.701723 
L 52.353 63.701723 
L 52.632 63.701723 
L 52.911 63.701723 
L 53.19 63.701723 
L 53.469 63.701723 
L 53.748 63.701723 
L 54.027 63.701723 
L 54.306 63.701723 
L 54.585 63.701723 
L 54.864 63.701723 
L 55.143 63.701723 
L 55.422 63.701723 
L 55.701 63.701723 
L 55.98 63.701723 
L 56.259 63.701723 
L 56.538 63.701723 
L 56.817 63.701723 
L 57.096 63.701723 
L 57.375 63.701723 
L 57.654 63.701723 
L 57.933 63.701723 
L 58.212 63.701723 
L 58.491 63.701723 
L 58.77 63.701723 
L 59.049 63.701723 
L 59.328 63.701723 
L 59.607 63.701723 
L 59.886 63.701723 
L 60.165 63.701723 
L 60.444 63.701723 
L 60.723 63.701723 
L 61.002 63.701723 
L 61.281 63.701723 
L 61.56 63.701723 
L 61.839 63.701723 
L 62.118 63.701723 
L 62.397 63.701723 
L 62.676 63.701723 
L 62.955 63.701723 
L 63.234 63.701723 
L 63.513 63.701723 
L 63.792 63.701723 
L 64.071 63.701723 
L 64.35 63.701723 
L 64.629 63.701723 
L 64.908 63.701723 
L 65.187 63.701723 
L 65.466 63.701723 
L 65.745 63.701723 
L 66.024 63.701723 
L 66.303 63.701723 
L 66.582 63.701723 
L 66.861 63.701723 
L 67.14 63.701723 
L 67.419 63.701723 
L 67.698 63.701723 
L 67.977 63.701723 
L 68.256 63.701723 
L 68.535 63.701723 
L 68.814 63.701723 
L 69.093 63.701723 
L 69.372 63.701723 
L 69.651 63.701723 
L 69.93 63.701723 
L 70.209 63.701723 
L 70.488 63.701723 
L 70.767 63.701723 
L 71.046 63.701723 
L 71.325 63.701723 
L 71.604 63.701723 
L 71.883 63.701723 
L 72.162 63.701723 
L 72.441 63.701723 
L 72.72 63.701723 
L 72.999 63.701723 
L 73.278 63.701723 
L 73.557 63.701723 
L 73.836 63.701723 
L 74.115 63.701723 
L 74.394 63.701723 
L 74.673 63.701723 
L 74.952 63.701723 
L 75.231 63.701723 
L 75.51 63.701723 
L 75.789 63.701723 
L 76.068 63.701723 
L 76.347 63.701723 
L 76.626 63.701723 
L 76.905 63.701723 
L 77.184 63.701723 
L 77.463 63.701723 
L 77.742 63.701723 
L 78.021 63.701723 
L 78.3 63.701723 
L 78.579 63.701723 
L 78.858 63.701723 
L 79.137 63.701723 
L 79.416 63.701723 
L 79.695 63.701723 
L 79.974 63.701723 
L 80.253 63.701723 
L 80.532 63.701723 
L 80.811 63.701723 
L 81.09 63.701723 
L 81.369 63.701723 
L 81.648 63.701723 
L 81.927 63.701723 
L 82.206 63.701723 
L 82.485 63.701723 
L 82.764 63.701723 
L 83.043 63.701723 
L 83.322 63.701723 
L 83.601 63.701723 
L 83.88 63.701723 
L 84.159 63.701723 
L 84.438 63.701723 
L 84.717 63.701723 
L 84.996 63.701723 
L 85.275 63.701723 
L 85.554 63.701723 
L 85.833 63.701723 
L 86.112 63.701723 
L 86.391 63.701723 
L 86.67 63.701723 
L 86.949 63.701723 
L 87.228 63.701723 
L 87.507 63.701723 
L 87.786 63.701723 
L 88.065 63.701723 
L 88.344 63.701723 
L 88.623 63.701723 
L 88.902 63.701723 
L 89.181 63.701723 
L 89.46 63.701723 
L 89.739 63.701723 
L 90.018 63.701723 
L 90.297 63.701723 
L 90.576 63.701723 
L 90.855 63.701723 
L 91.134 63.701723 
L 91.413 63.701723 
L 91.692 63.701723 
L 91.971 63.701723 
L 92.25 63.701723 
L 92.529 63.701723 
L 92.808 63.701723 
L 93.087 63.701723 
L 93.366 63.701723 
L 93.645 63.701723 
L 93.924 63.701723 
L 94.203 63.701723 
L 94.482 63.701723 
L 94.761 63.701723 
L 95.04 63.701723 
L 95.319 63.701723 
L 95.598 63.701723 
L 95.877 63.701723 
L 96.156 63.701723 
L 96.435 63.701723 
L 96.714 63.701723 
L 96.993 63.701723 
L 97.272 63.701723 
L 97.551 63.701723 
L 97.83 63.701723 
L 98.109 63.701723 
L 98.388 63.701723 
L 98.667 63.701723 
L 98.946 63.701723 
L 99.225 63.701723 
L 99.504 63.701723 
L 99.783 63.701723 
L 100.062 63.701723 
L 100.341 63.701723 
L 100.62 63.701723 
L 100.899 63.701723 
L 101.178 63.701723 
L 101.457 63.701723 
L 101.736 63.701723 
L 102.015 63.701723 
L 102.294 63.701723 
L 102.573 63.701723 
L 102.852 63.701723 
L 103.131 63.701723 
L 103.41 63.701723 
L 103.689 63.701723 
L 103.968 63.701723 
L 104.247 63.701723 
L 104.526 63.701723 
L 104.805 63.701723 
L 105.084 63.701723 
L 105.363 63.701723 
L 105.642 63.701723 
L 105.921 63.701723 
L 106.2 63.701723 
L 106.479 63.701723 
L 106.758 63.701723 
L 107.037 63.701723 
L 107.316 63.701723 
L 107.595 63.701723 
L 107.874 63.701723 
L 108.153 63.701723 
L 108.432 63.701723 
L 108.711 63.701723 
L 108.99 63.701723 
L 109.269 63.701723 
L 109.548 63.701723 
L 109.827 63.701723 
L 110.106 63.701723 
L 110.385 63.701723 
L 110.664 63.701723 
L 110.943 63.701723 
L 111.222 63.701723 
L 111.501 63.701723 
L 111.78 63.701723 
L 112.059 63.701723 
L 112.338 63.701723 
L 112.617 63.701723 
L 112.896 63.701723 
L 113.175 63.701723 
L 113.454 63.701723 
L 113.733 63.701723 
L 114.012 63.701723 
L 114.291 63.701723 
L 114.57 63.701723 
L 114.849 63.701723 
L 115.128 63.701723 
L 115.407 63.701723 
L 115.686 63.701723 
L 115.965 63.701723 
L 116.244 63.701723 
L 116.523 63.701723 
L 116.802 63.701723 
L 117.081 63.701723 
L 117.36 63.701723 
L 117.639 63.701723 
L 117.918 63.701723 
L 118.197 63.701723 
L 118.476 63.701723 
L 118.755 63.701723 
L 119.034 63.701723 
L 119.313 63.701723 
L 119.592 63.701723 
L 119.871 63.701723 
L 120.15 63.701723 
L 120.429 63.701723 
L 120.708 63.701723 
L 120.987 63.701723 
L 121.266 63.701723 
L 121.545 63.701723 
L 121.824 63.701723 
L 122.103 63.701723 
L 122.382 63.701723 
L 122.661 63.701723 
L 122.94 63.701723 
L 123.219 63.701723 
L 123.498 63.701723 
L 123.777 63.701723 
L 124.056 63.701723 
L 124.335 63.701723 
L 124.614 63.701723 
L 124.893 63.701723 
L 125.172 63.701723 
L 125.451 63.701723 
L 125.73 63.701723 
L 126.009 63.701723 
L 126.288 63.701723 
L 126.567 63.701723 
L 126.846 63.701723 
L 127.125 63.701723 
L 127.404 63.701723 
L 127.683 63.701723 
L 127.962 63.701723 
L 128.241 63.701723 
L 128.52 63.701723 
L 128.799 63.701723 
L 129.078 63.701723 
L 129.357 63.701723 
L 129.636 63.701723 
L 129.915 63.701723 
L 130.194 63.701723 
L 130.473 63.701723 
L 130.752 63.701723 
L 131.031 63.701723 
L 131.31 63.701723 
L 131.589 63.701723 
L 131.868 63.701723 
L 132.147 63.701723 
L 132.426 63.701723 
L 132.705 63.701723 
L 132.984 63.701723 
L 133.263 63.701723 
L 133.542 63.701723 
L 133.821 63.701723 
L 134.1 63.701723 
L 134.379 63.701723 
L 134.658 63.701723 
L 134.937 63.701723 
L 135.216 63.701723 
L 135.495 63.701723 
L 135.774 63.701723 
L 136.053 63.701723 
L 136.332 63.701723 
L 136.611 63.701723 
L 136.89 63.701723 
L 137.169 63.701723 
L 137.448 63.701723 
L 137.727 63.701723 
L 138.006 63.701723 
L 138.285 63.701723 
L 138.564 63.701723 
L 138.843 63.701723 
L 139.122 63.701723 
L 139.401 63.701723 
L 139.68 63.701723 
L 139.959 63.701723 
L 140.238 63.701723 
L 140.517 63.701723 
L 140.796 63.701723 
L 141.075 63.701723 
L 141.354 63.701723 
L 141.633 63.701723 
L 141.912 63.701723 
L 142.191 63.701723 
L 142.47 63.701723 
L 142.749 63.701723 
L 143.028 63.701723 
L 143.307 63.701723 
L 143.586 63.701723 
L 143.865 63.701723 
L 144.144 63.701723 
L 144.423 63.701723 
L 144.702 63.701723 
L 144.981 63.701723 
L 145.26 63.701723 
L 145.539 63.701723 
L 145.818 63.701723 
L 146.097 63.701723 
L 146.376 63.701723 
L 146.655 63.701723 
L 146.934 63.701723 
L 147.213 63.701723 
L 147.492 63.701723 
L 147.771 63.701723 
L 148.05 63.701723 
L 148.329 63.701723 
L 148.608 63.701723 
L 148.887 63.701723 
L 149.166 63.701723 
L 149.445 63.701723 
L 149.724 63.701723 
L 150.003 63.701723 
L 150.282 63.701723 
L 150.561 63.701723 
L 150.84 63.701723 
L 151.119 63.701723 
L 151.398 63.701723 
L 151.677 63.701723 
L 151.956 63.701723 
L 152.235 63.701723 
L 152.514 63.701723 
L 152.793 63.701723 
L 153.072 63.701723 
L 153.351 63.701723 
L 153.63 63.701723 
L 153.909 63.701723 
L 154.188 63.701723 
L 154.467 63.701723 
L 154.746 63.701723 
L 155.025 63.701723 
L 155.304 63.701723 
L 155.583 63.701723 
L 155.862 63.701723 
L 156.141 63.701723 
L 156.42 63.701723 
L 156.699 63.701723 
L 156.978 63.701723 
L 157.257 63.701723 
L 157.536 63.701723 
L 157.815 63.701723 
L 158.094 63.701723 
L 158.373 63.701723 
L 158.652 63.701723 
L 158.931 63.701723 
L 159.21 63.701723 
L 159.489 63.701723 
L 159.768 63.701723 
L 160.047 63.701723 
L 160.326 63.701723 
L 160.605 63.701723 
L 160.884 63.701723 
L 161.163 63.701723 
L 161.442 63.701723 
L 161.721 63.701723 
L 161.721 54.04544 
L 161.721 54.04544 
L 161.442 54.04544 
L 161.163 54.04544 
L 160.884 54.04544 
L 160.605 54.04544 
L 160.326 54.04544 
L 160.047 54.04544 
L 159.768 54.04544 
L 159.489 54.04544 
L 159.21 54.04544 
L 158.931 54.04544 
L 158.652 54.04544 
L 158.373 54.04544 
L 158.094 54.04544 
L 157.815 54.04544 
L 157.536 54.04544 
L 157.257 54.04544 
L 156.978 54.04544 
L 156.699 54.04544 
L 156.42 54.04544 
L 156.141 54.04544 
L 155.862 54.04544 
L 155.583 54.04544 
L 155.304 54.04544 
L 155.025 54.04544 
L 154.746 54.04544 
L 154.467 54.04544 
L 154.188 54.04544 
L 153.909 54.04544 
L 153.63 54.04544 
L 153.351 54.04544 
L 153.072 54.04544 
L 152.793 54.04544 
L 152.514 54.04544 
L 152.235 54.04544 
L 151.956 54.04544 
L 151.677 54.04544 
L 151.398 54.04544 
L 151.119 54.04544 
L 150.84 54.04544 
L 150.561 54.04544 
L 150.282 54.04544 
L 150.003 54.04544 
L 149.724 54.04544 
L 149.445 54.04544 
L 149.166 54.04544 
L 148.887 54.04544 
L 148.608 54.04544 
L 148.329 54.04544 
L 148.05 54.04544 
L 147.771 54.04544 
L 147.492 54.04544 
L 147.213 54.04544 
L 146.934 54.04544 
L 146.655 54.04544 
L 146.376 54.04544 
L 146.097 54.04544 
L 145.818 54.04544 
L 145.539 54.04544 
L 145.26 54.04544 
L 144.981 54.04544 
L 144.702 54.04544 
L 144.423 54.04544 
L 144.144 54.04544 
L 143.865 54.04544 
L 143.586 54.04544 
L 143.307 54.04544 
L 143.028 54.04544 
L 142.749 54.04544 
L 142.47 54.04544 
L 142.191 54.04544 
L 141.912 54.04544 
L 141.633 54.04544 
L 141.354 54.04544 
L 141.075 54.04544 
L 140.796 54.04544 
L 140.517 54.04544 
L 140.238 54.04544 
L 139.959 54.04544 
L 139.68 54.04544 
L 139.401 54.04544 
L 139.122 54.04544 
L 138.843 54.04544 
L 138.564 54.04544 
L 138.285 54.04544 
L 138.006 54.04544 
L 137.727 54.04544 
L 137.448 54.04544 
L 137.169 54.04544 
L 136.89 54.04544 
L 136.611 54.04544 
L 136.332 54.04544 
L 136.053 54.04544 
L 135.774 54.04544 
L 135.495 54.04544 
L 135.216 54.04544 
L 134.937 54.04544 
L 134.658 54.04544 
L 134.379 54.04544 
L 134.1 54.04544 
L 133.821 54.04544 
L 133.542 54.04544 
L 133.263 54.04544 
L 132.984 54.04544 
L 132.705 54.04544 
L 132.426 54.04544 
L 132.147 54.04544 
L 131.868 54.04544 
L 131.589 54.04544 
L 131.31 54.04544 
L 131.031 54.04544 
L 130.752 54.04544 
L 130.473 54.04544 
L 130.194 54.04544 
L 129.915 54.04544 
L 129.636 54.04544 
L 129.357 54.04544 
L 129.078 54.04544 
L 128.799 54.04544 
L 128.52 54.04544 
L 128.241 54.04544 
L 127.962 54.04544 
L 127.683 54.04544 
L 127.404 54.04544 
L 127.125 54.04544 
L 126.846 54.04544 
L 126.567 54.04544 
L 126.288 54.04544 
L 126.009 54.04544 
L 125.73 54.04544 
L 125.451 54.04544 
L 125.172 54.04544 
L 124.893 54.04544 
L 124.614 54.04544 
L 124.335 54.04544 
L 124.056 54.04544 
L 123.777 54.04544 
L 123.498 54.04544 
L 123.219 54.04544 
L 122.94 54.04544 
L 122.661 54.04544 
L 122.382 54.04544 
L 122.103 54.04544 
L 121.824 54.04544 
L 121.545 54.04544 
L 121.266 54.04544 
L 120.987 54.04544 
L 120.708 54.04544 
L 120.429 54.04544 
L 120.15 54.04544 
L 119.871 54.04544 
L 119.592 54.04544 
L 119.313 54.04544 
L 119.034 54.04544 
L 118.755 54.04544 
L 118.476 54.04544 
L 118.197 54.04544 
L 117.918 54.04544 
L 117.639 54.04544 
L 117.36 54.04544 
L 117.081 54.04544 
L 116.802 54.04544 
L 116.523 54.04544 
L 116.244 54.04544 
L 115.965 54.04544 
L 115.686 54.04544 
L 115.407 54.04544 
L 115.128 54.04544 
L 114.849 54.04544 
L 114.57 54.04544 
L 114.291 54.04544 
L 114.012 54.04544 
L 113.733 54.04544 
L 113.454 54.04544 
L 113.175 54.04544 
L 112.896 54.04544 
L 112.617 54.04544 
L 112.338 54.04544 
L 112.059 54.04544 
L 111.78 54.04544 
L 111.501 54.04544 
L 111.222 54.04544 
L 110.943 54.04544 
L 110.664 54.04544 
L 110.385 54.04544 
L 110.106 54.04544 
L 109.827 54.04544 
L 109.548 54.04544 
L 109.269 54.04544 
L 108.99 54.04544 
L 108.711 54.04544 
L 108.432 54.04544 
L 108.153 54.04544 
L 107.874 54.04544 
L 107.595 54.04544 
L 107.316 54.04544 
L 107.037 54.04544 
L 106.758 54.04544 
L 106.479 54.04544 
L 106.2 54.04544 
L 105.921 54.04544 
L 105.642 54.04544 
L 105.363 54.04544 
L 105.084 54.04544 
L 104.805 54.04544 
L 104.526 54.04544 
L 104.247 54.04544 
L 103.968 54.04544 
L 103.689 54.04544 
L 103.41 54.04544 
L 103.131 54.04544 
L 102.852 54.04544 
L 102.573 54.04544 
L 102.294 54.04544 
L 102.015 54.04544 
L 101.736 54.04544 
L 101.457 54.04544 
L 101.178 54.04544 
L 100.899 54.04544 
L 100.62 54.04544 
L 100.341 54.04544 
L 100.062 54.04544 
L 99.783 54.04544 
L 99.504 54.04544 
L 99.225 54.04544 
L 98.946 54.04544 
L 98.667 54.04544 
L 98.388 54.04544 
L 98.109 54.04544 
L 97.83 54.04544 
L 97.551 54.04544 
L 97.272 54.04544 
L 96.993 54.04544 
L 96.714 54.04544 
L 96.435 54.04544 
L 96.156 54.04544 
L 95.877 54.04544 
L 95.598 54.04544 
L 95.319 54.04544 
L 95.04 54.04544 
L 94.761 54.04544 
L 94.482 54.04544 
L 94.203 54.04544 
L 93.924 54.04544 
L 93.645 54.04544 
L 93.366 54.04544 
L 93.087 54.04544 
L 92.808 54.04544 
L 92.529 54.04544 
L 92.25 54.04544 
L 91.971 54.04544 
L 91.692 54.04544 
L 91.413 54.04544 
L 91.134 54.04544 
L 90.855 54.04544 
L 90.576 54.04544 
L 90.297 54.04544 
L 90.018 54.04544 
L 89.739 54.04544 
L 89.46 54.04544 
L 89.181 54.04544 
L 88.902 54.04544 
L 88.623 54.04544 
L 88.344 54.04544 
L 88.065 54.04544 
L 87.786 54.04544 
L 87.507 54.04544 
L 87.228 54.04544 
L 86.949 54.04544 
L 86.67 54.04544 
L 86.391 54.04544 
L 86.112 54.04544 
L 85.833 54.04544 
L 85.554 54.04544 
L 85.275 54.04544 
L 84.996 54.04544 
L 84.717 54.04544 
L 84.438 54.04544 
L 84.159 54.04544 
L 83.88 54.04544 
L 83.601 54.04544 
L 83.322 54.04544 
L 83.043 54.04544 
L 82.764 54.04544 
L 82.485 54.04544 
L 82.206 54.04544 
L 81.927 54.04544 
L 81.648 54.04544 
L 81.369 54.04544 
L 81.09 54.04544 
L 80.811 54.04544 
L 80.532 54.04544 
L 80.253 54.04544 
L 79.974 54.04544 
L 79.695 54.04544 
L 79.416 54.04544 
L 79.137 54.04544 
L 78.858 54.04544 
L 78.579 54.04544 
L 78.3 54.04544 
L 78.021 54.04544 
L 77.742 54.04544 
L 77.463 54.04544 
L 77.184 54.04544 
L 76.905 54.04544 
L 76.626 54.04544 
L 76.347 54.04544 
L 76.068 54.04544 
L 75.789 54.04544 
L 75.51 54.04544 
L 75.231 54.04544 
L 74.952 54.04544 
L 74.673 54.04544 
L 74.394 54.04544 
L 74.115 54.04544 
L 73.836 54.04544 
L 73.557 54.04544 
L 73.278 54.04544 
L 72.999 54.04544 
L 72.72 54.04544 
L 72.441 54.04544 
L 72.162 54.04544 
L 71.883 54.04544 
L 71.604 54.04544 
L 71.325 54.04544 
L 71.046 54.04544 
L 70.767 54.04544 
L 70.488 54.04544 
L 70.209 54.04544 
L 69.93 54.04544 
L 69.651 54.04544 
L 69.372 54.04544 
L 69.093 54.04544 
L 68.814 54.04544 
L 68.535 54.04544 
L 68.256 54.04544 
L 67.977 54.04544 
L 67.698 54.04544 
L 67.419 54.04544 
L 67.14 54.04544 
L 66.861 54.04544 
L 66.582 54.04544 
L 66.303 54.04544 
L 66.024 54.04544 
L 65.745 54.04544 
L 65.466 54.04544 
L 65.187 54.04544 
L 64.908 54.04544 
L 64.629 54.04544 
L 64.35 54.04544 
L 64.071 54.04544 
L 63.792 54.04544 
L 63.513 54.04544 
L 63.234 54.04544 
L 62.955 54.04544 
L 62.676 54.04544 
L 62.397 54.04544 
L 62.118 54.04544 
L 61.839 54.04544 
L 61.56 54.04544 
L 61.281 54.04544 
L 61.002 54.04544 
L 60.723 54.04544 
L 60.444 54.04544 
L 60.165 54.04544 
L 59.886 54.04544 
L 59.607 54.04544 
L 59.328 54.04544 
L 59.049 54.04544 
L 58.77 54.04544 
L 58.491 54.04544 
L 58.212 54.04544 
L 57.933 54.04544 
L 57.654 54.04544 
L 57.375 54.04544 
L 57.096 54.04544 
L 56.817 54.04544 
L 56.538 54.04544 
L 56.259 54.04544 
L 55.98 54.04544 
L 55.701 54.04544 
L 55.422 54.04544 
L 55.143 54.04544 
L 54.864 54.04544 
L 54.585 54.04544 
L 54.306 54.04544 
L 54.027 54.04544 
L 53.748 54.04544 
L 53.469 54.04544 
L 53.19 54.04544 
L 52.911 54.04544 
L 52.632 54.04544 
L 52.353 54.04544 
L 52.074 54.04544 
L 51.795 54.04544 
L 51.516 54.04544 
L 51.237 54.04544 
L 50.958 54.04544 
L 50.679 54.04544 
L 50.4 54.04544 
L 50.121 54.04544 
L 49.842 54.04544 
L 49.563 54.04544 
L 49.284 54.04544 
L 49.005 54.04544 
L 48.726 54.04544 
L 48.447 54.04544 
L 48.168 54.04544 
L 47.889 54.04544 
L 47.61 54.04544 
L 47.331 54.04544 
L 47.052 54.04544 
L 46.773 54.04544 
L 46.494 54.04544 
L 46.215 54.04544 
L 45.936 54.04544 
L 45.657 54.04544 
L 45.378 54.04544 
L 45.099 54.04544 
L 44.82 54.04544 
L 44.541 54.04544 
L 44.262 54.04544 
L 43.983 54.04544 
L 43.704 54.04544 
L 43.425 54.04544 
L 43.146 54.04544 
L 42.867 54.04544 
L 42.588 54.04544 
L 42.309 54.04544 
L 42.03 54.04544 
L 41.751 54.04544 
L 41.472 54.04544 
L 41.193 54.04544 
L 40.914 54.04544 
L 40.635 54.04544 
L 40.356 54.04544 
L 40.077 54.04544 
L 39.798 54.04544 
L 39.519 54.04544 
L 39.24 54.04544 
L 38.961 54.04544 
L 38.682 54.04544 
L 38.403 54.04544 
L 38.124 54.04544 
L 37.845 54.04544 
L 37.566 54.04544 
L 37.287 54.04544 
L 37.008 54.04544 
L 36.729 54.04544 
L 36.45 54.04544 
L 36.171 54.04544 
L 35.892 54.04544 
L 35.613 54.04544 
L 35.334 54.04544 
L 35.055 54.04544 
L 34.776 54.04544 
L 34.497 54.04544 
L 34.218 54.04544 
L 33.939 54.04544 
L 33.66 54.04544 
L 33.381 54.04544 
L 33.102 54.04544 
L 32.823 54.04544 
L 32.544 54.04544 
L 32.265 54.04544 
L 31.986 54.04544 
L 31.707 54.04544 
L 31.428 54.04544 
L 31.149 54.04544 
L 30.87 54.04544 
L 30.591 54.04544 
L 30.312 54.04544 
L 30.033 54.04544 
L 29.754 54.04544 
L 29.475 54.04544 
L 29.196 54.04544 
L 28.917 54.04544 
L 28.638 54.04544 
L 28.359 54.04544 
L 28.08 54.04544 
L 27.801 54.04544 
L 27.522 54.04544 
L 27.243 54.04544 
L 26.964 54.04544 
L 26.685 54.04544 
L 26.406 54.04544 
L 26.127 54.04544 
L 25.848 54.04544 
L 25.569 54.04544 
L 25.29 54.04544 
L 25.011 54.04544 
L 24.732 54.04544 
L 24.453 54.04544 
L 24.174 54.04544 
L 23.895 54.04544 
L 23.616 54.04544 
L 23.337 54.04544 
L 23.058 54.04544 
L 22.779 54.04544 
L 22.5 54.04544 
z
" clip-path="url(#p78a2583aa1)" style="fill: #5f187f; fill-opacity: 0.1"/>
   </g>
   <g id="matplotlib.axis_1">
    <g id="xtick_1">
     <g id="line2d_1">
      <defs>
       <path id="m1a59c11c0b" d="M 0 0 
L 0 3.5 
" style="stroke: #000000; stroke-width: 0.8"/>
      </defs>
      <g>
       <use xlink:href="#m1a59c11c0b" x="50.4" y="160.2" style="stroke: #000000; stroke-width: 0.8"/>
      </g>
     </g>
     <g id="text_1">
      <text style="font: italic 12px 'inter', sans-serif" transform="translate(9.919905 212.12161) rotate(-45)">Trhn&gt;Chr</text>
     </g>
    </g>
    <g id="xtick_2">
     <g id="line2d_2">
      <g>
       <use xlink:href="#m1a59c11c0b" x="78.3" y="160.2" style="stroke: #000000; stroke-width: 0.8"/>
      </g>
     </g>
     <g id="text_2">
      <text style="font: italic 12px 'inter', sans-serif" transform="translate(31.265025 218.67649) rotate(-45)">Trhn&gt;ACR1</text>
     </g>
    </g>
    <g id="xtick_3">
     <g id="line2d_3">
      <g>
       <use xlink:href="#m1a59c11c0b" x="106.2" y="160.2" style="stroke: #000000; stroke-width: 0.8"/>
      </g>
     </g>
     <g id="text_3">
      <text style="font: italic 12px 'inter', sans-serif" transform="translate(51.684719 226.156796) rotate(-45)">R50H05&gt;Chr</text>
     </g>
    </g>
    <g id="xtick_4">
     <g id="line2d_4">
      <g>
       <use xlink:href="#m1a59c11c0b" x="134.1" y="160.2" style="stroke: #000000; stroke-width: 0.8"/>
      </g>
     </g>
     <g id="text_4">
      <text style="font: italic 12px 'inter', sans-serif" transform="translate(73.029839 232.711676) rotate(-45)">R50H05&gt;ACR1</text>
     </g>
    </g>
   </g>
   <g id="matplotlib.axis_2">
    <g id="ytick_1">
     <g id="line2d_5">
      <defs>
       <path id="m0f9084af2c" d="M 0 0 
L -3.5 0 
" style="stroke: #000000; stroke-width: 0.8"/>
      </defs>
      <g>
       <use xlink:href="#m0f9084af2c" x="22.5" y="159.653639" style="stroke: #000000; stroke-width: 0.8"/>
      </g>
     </g>
     <g id="text_5">
      <text style="font: 10px 'inter', sans-serif; text-anchor: end" x="15.5" y="163.291139" transform="rotate(-0 15.5 163.291139)">150</text>
     </g>
    </g>
    <g id="ytick_2">
     <g id="line2d_6">
      <g>
       <use xlink:href="#m0f9084af2c" x="22.5" y="132.618607" style="stroke: #000000; stroke-width: 0.8"/>
      </g>
     </g>
     <g id="text_6">
      <text style="font: 10px 'inter', sans-serif; text-anchor: end" x="15.5" y="136.256107" transform="rotate(-0 15.5 136.256107)">100</text>
     </g>
    </g>
    <g id="ytick_3">
     <g id="line2d_7">
      <g>
       <use xlink:href="#m0f9084af2c" x="22.5" y="105.583576" style="stroke: #000000; stroke-width: 0.8"/>
      </g>
     </g>
     <g id="text_7">
      <text style="font: 10px 'inter', sans-serif; text-anchor: end" x="15.5" y="109.221076" transform="rotate(-0 15.5 109.221076)">50</text>
     </g>
    </g>
    <g id="ytick_4">
     <g id="line2d_8">
      <g>
       <use xlink:href="#m0f9084af2c" x="22.5" y="78.548544" style="stroke: #000000; stroke-width: 0.8"/>
      </g>
     </g>
     <g id="text_8">
      <text style="font: 10px 'inter', sans-serif; text-anchor: end" x="15.5" y="82.186044" transform="rotate(-0 15.5 82.186044)">0</text>
     </g>
    </g>
    <g id="ytick_5">
     <g id="line2d_9">
      <g>
       <use xlink:href="#m0f9084af2c" x="22.5" y="51.513512" style="stroke: #000000; stroke-width: 0.8"/>
      </g>
     </g>
     <g id="text_9">
      <text style="font: 10px 'inter', sans-serif; text-anchor: end" x="15.5" y="55.151012" transform="rotate(-0 15.5 55.151012)">50</text>
     </g>
    </g>
    <g id="ytick_6">
     <g id="line2d_10">
      <g>
       <use xlink:href="#m0f9084af2c" x="22.5" y="24.47848" style="stroke: #000000; stroke-width: 0.8"/>
      </g>
     </g>
     <g id="text_10">
      <text style="font: 10px 'inter', sans-serif; text-anchor: end" x="15.5" y="28.11598" transform="rotate(-0 15.5 28.11598)">100</text>
     </g>
    </g>
    <g id="text_11">
     <text style="font: 15px 'inter', sans-serif; text-anchor: middle" x="-14.8625" y="90.9" transform="rotate(-90 -14.8625 90.9)"> Meal Size (nL)</text>
    </g>
   </g>
   <g id="line2d_11">
    <path d="M 22.5 78.548544 
L 162 78.548544 
" clip-path="url(#p78a2583aa1)" style="fill: none; stroke: #000000; stroke-linecap: square"/>
   </g>
   <g id="line2d_12">
    <defs>
     <path id="m2bd0acc481" d="M 0 2.5 
C 0.663008 2.5 1.29895 2.236584 1.767767 1.767767 
C 2.236584 1.29895 2.5 0.663008 2.5 0 
C 2.5 -0.663008 2.236584 -1.29895 1.767767 -1.767767 
C 1.29895 -2.236584 0.663008 -2.5 0 -2.5 
C -0.663008 -2.5 -1.29895 -2.236584 -1.767767 -1.767767 
C -2.236584 -1.29895 -2.5 -0.663008 -2.5 0 
C -2.5 0.663008 -2.236584 1.29895 -1.767767 1.767767 
C -1.29895 2.236584 -0.663008 2.5 0 2.5 
z
" style="stroke: #000000"/>
    </defs>
    <g clip-path="url(#p78a2583aa1)">
     <use xlink:href="#m2bd0acc481" x="50.4" y="119.315383" style="stroke: #000000"/>
    </g>
   </g>
   <g id="line2d_13">
    <path d="M 50.4 135.965507 
L 50.4 103.747397 
" clip-path="url(#p78a2583aa1)" style="fill: none; stroke: #000000; stroke-width: 2.5; stroke-linecap: square"/>
   </g>
   <g id="line2d_14">
    <g clip-path="url(#p78a2583aa1)">
     <use xlink:href="#m2bd0acc481" x="78.3" y="53.054355" style="stroke: #000000"/>
    </g>
   </g>
   <g id="line2d_15">
    <path d="M 78.3 62.291726 
L 78.3 42.445 
" clip-path="url(#p78a2583aa1)" style="fill: none; stroke: #000000; stroke-width: 2.5; stroke-linecap: square"/>
   </g>
   <g id="line2d_16">
    <g clip-path="url(#p78a2583aa1)">
     <use xlink:href="#m2bd0acc481" x="106.2" y="73.886187" style="stroke: #000000"/>
    </g>
   </g>
   <g id="line2d_17">
    <path d="M 106.2 78.781545 
L 106.2 69.806228 
" clip-path="url(#p78a2583aa1)" style="fill: none; stroke: #000000; stroke-width: 2.5; stroke-linecap: square"/>
   </g>
   <g id="line2d_18">
    <g clip-path="url(#p78a2583aa1)">
     <use xlink:href="#m2bd0acc481" x="134.1" y="75.477706" style="stroke: #000000"/>
    </g>
   </g>
   <g id="line2d_19">
    <path d="M 134.1 103.138501 
L 134.1 49.373223 
" clip-path="url(#p78a2583aa1)" style="fill: none; stroke: #000000; stroke-width: 2.5; stroke-linecap: square"/>
   </g>
   <g id="patch_3">
    <path d="M 22.5 160.2 
L 22.5 21.6 
" style="fill: none; stroke: #000000; stroke-width: 0.8; stroke-linejoin: miter; stroke-linecap: square"/>
   </g>
   <g id="patch_4">
    <path d="M 162 160.2 
L 162 21.6 
" style="fill: none"/>
   </g>
   <g id="patch_5">
    <path d="M 22.5 160.2 
L 162 160.2 
" style="fill: none"/>
   </g>
   <g id="patch_6">
    <path d="M 22.5 21.6 
L 162 21.6 
" style="fill: none"/>
   </g>
   <g id="text_12">
    <text style="fill: #d3436e; font: 10px 'inter', sans-serif; text-anchor: start" x="162" y="66.072813" transform="rotate(-0 162 66.072813)">24 h</text>
   </g>
   <g id="text_13">
    <text style="fill: #5f187f; font: 10px 'inter', sans-serif; text-anchor: start" x="162" y="54.04544" transform="rotate(-0 162 54.04544)">48 h</text>
   </g>
   <g id="text_14">
    <text style="font: 500 15px 'inter', sans-serif; text-anchor: middle" x="92.25" y="15.6" transform="rotate(-0 92.25 15.6)">Meal Size</text>
   </g>
  </g>
 </g>
 <defs>
  <clipPath id="p78a2583aa1">
   <rect x="22.5" y="21.6" width="139.5" height="138.6"/>
  </clipPath>
 </defs>
</svg>
