<?xml version="1.0" encoding="utf-8" standalone="no"?>
<!DOCTYPE svg PUBLIC "-//W3C//DTD SVG 1.1//EN"
  "http://www.w3.org/Graphics/SVG/1.1/DTD/svg11.dtd">
<svg xmlns:xlink="http://www.w3.org/1999/xlink" width="180pt" height="180pt" viewBox="0 0 180 180" xmlns="http://www.w3.org/2000/svg" version="1.1">
 <metadata>
  <rdf:RDF xmlns:dc="http://purl.org/dc/elements/1.1/" xmlns:cc="http://creativecommons.org/ns#" xmlns:rdf="http://www.w3.org/1999/02/22-rdf-syntax-ns#">
   <cc:Work>
    <dc:type rdf:resource="http://purl.org/dc/dcmitype/StillImage"/>
    <dc:date>2025-02-16T01:32:38.891264</dc:date>
    <dc:format>image/svg+xml</dc:format>
    <dc:creator>
     <cc:Agent>
      <dc:title>Matplotlib v3.6.3, https://matplotlib.org/</dc:title>
     </cc:Agent>
    </dc:creator>
   </cc:Work>
  </rdf:RDF>
 </metadata>
 <defs>
  <style type="text/css">*{stroke-linejoin: round; stroke-linecap: butt}</style>
 </defs>
 <g id="figure_1">
  <g id="patch_1">
   <path d="M 0 180 
L 180 180 
L 180 0 
L 0 0 
z
" style="fill: #ffffff"/>
  </g>
  <g id="axes_1">
   <g id="patch_2">
    <path d="M 22.5 160.2 
L 162 160.2 
L 162 21.6 
L 22.5 21.6 
z
" style="fill: #ffffff"/>
   </g>
   <g id="PolyCollection_1">
    <defs>
     <path id="meeb31e7151" d="M 50.412921 -84.689419 
L 50.400205 -84.689419 
L 50.400205 -85.370334 
L 50.400205 -86.051249 
L 50.400205 -86.732164 
L 50.400205 -87.413079 
L 50.400205 -88.093994 
L 50.400205 -88.774909 
L 50.400205 -89.455824 
L 50.400205 -90.136739 
L 50.400205 -90.817654 
L 50.400205 -91.498569 
L 50.400205 -92.179484 
L 50.400205 -92.860399 
L 50.400205 -93.541314 
L 50.400205 -94.222228 
L 50.400205 -94.903143 
L 50.400205 -95.584058 
L 50.400205 -96.264973 
L 50.400205 -96.945888 
L 50.400205 -97.626803 
L 50.400205 -98.307718 
L 50.400205 -98.988633 
L 50.400205 -99.669548 
L 50.400205 -100.350463 
L 50.400205 -101.031378 
L 50.400205 -101.712293 
L 50.400205 -102.393208 
L 50.400205 -103.074123 
L 50.400205 -103.755038 
L 50.400205 -104.435953 
L 50.400205 -105.116868 
L 50.400205 -105.797783 
L 50.400205 -106.478698 
L 50.400205 -107.159613 
L 50.400205 -107.840528 
L 50.400205 -108.521443 
L 50.400205 -109.202358 
L 50.400205 -109.883273 
L 50.400205 -110.564187 
L 50.400205 -111.245102 
L 50.400205 -111.926017 
L 50.400205 -112.606932 
L 50.400205 -113.287847 
L 50.400205 -113.968762 
L 50.400205 -114.649677 
L 50.400205 -115.330592 
L 50.400205 -116.011507 
L 50.400205 -116.692422 
L 50.400205 -117.373337 
L 50.400205 -118.054252 
L 50.400205 -118.735167 
L 50.400205 -119.416082 
L 50.400205 -120.096997 
L 50.400205 -120.777912 
L 50.400205 -121.458827 
L 50.400205 -122.139742 
L 50.400205 -122.820657 
L 50.400205 -123.501572 
L 50.400205 -124.182487 
L 50.400205 -124.863402 
L 50.400205 -125.544317 
L 50.400205 -126.225232 
L 50.400205 -126.906147 
L 50.400205 -127.587061 
L 50.400205 -128.267976 
L 50.400205 -128.948891 
L 50.400205 -129.629806 
L 50.400205 -130.310721 
L 50.400205 -130.991636 
L 50.400205 -131.672551 
L 50.400205 -132.353466 
L 50.400205 -133.034381 
L 50.400205 -133.715296 
L 50.400205 -134.396211 
L 50.400205 -135.077126 
L 50.400205 -135.758041 
L 50.400205 -136.438956 
L 50.400205 -137.119871 
L 50.400205 -137.800786 
L 50.400205 -138.481701 
L 50.400205 -139.162616 
L 50.400205 -139.843531 
L 50.400205 -140.524446 
L 50.400205 -141.205361 
L 50.400205 -141.886276 
L 50.400205 -142.567191 
L 50.400205 -143.248106 
L 50.400205 -143.92902 
L 50.400205 -144.609935 
L 50.400205 -145.29085 
L 50.400205 -145.971765 
L 50.400205 -146.65268 
L 50.400205 -147.333595 
L 50.400205 -148.01451 
L 50.400205 -148.695425 
L 50.400205 -149.37634 
L 50.400205 -150.057255 
L 50.400205 -150.73817 
L 50.400205 -151.419085 
L 50.400205 -152.1 
L 50.415867 -152.1 
L 50.415867 -152.1 
L 50.418001 -151.419085 
L 50.418885 -150.73817 
L 50.41923 -150.057255 
L 50.420248 -149.37634 
L 50.423256 -148.695425 
L 50.42932 -148.01451 
L 50.438872 -147.333595 
L 50.451347 -146.65268 
L 50.465109 -145.971765 
L 50.47796 -145.29085 
L 50.488257 -144.609935 
L 50.496126 -143.92902 
L 50.503776 -143.248106 
L 50.514222 -142.567191 
L 50.52918 -141.886276 
L 50.548017 -141.205361 
L 50.568935 -140.524446 
L 50.59149 -139.843531 
L 50.618138 -139.162616 
L 50.653357 -138.481701 
L 50.701091 -137.800786 
L 50.762599 -137.119871 
L 50.836088 -136.438956 
L 50.917781 -135.758041 
L 51.003423 -135.077126 
L 51.090004 -134.396211 
L 51.177924 -133.715296 
L 51.272754 -133.034381 
L 51.384695 -132.353466 
L 51.524872 -131.672551 
L 51.70016 -130.991636 
L 51.909338 -130.310721 
L 52.142187 -129.629806 
L 52.382136 -128.948891 
L 52.612918 -128.267976 
L 52.827674 -127.587061 
L 53.034594 -126.906147 
L 53.252419 -126.225232 
L 53.496604 -125.544317 
L 53.766973 -124.863402 
L 54.048147 -124.182487 
L 54.322196 -123.501572 
L 54.581069 -122.820657 
L 54.828308 -122.139742 
L 55.072026 -121.458827 
L 55.318316 -120.777912 
L 55.569789 -120.096997 
L 55.827002 -119.416082 
L 56.08959 -118.735167 
L 56.356 -118.054252 
L 56.621447 -117.373337 
L 56.874779 -116.692422 
L 57.097297 -116.011507 
L 57.26643 -115.330592 
L 57.362676 -114.649677 
L 57.375 -113.968762 
L 57.302669 -113.287847 
L 57.156426 -112.606932 
L 56.960328 -111.926017 
L 56.74897 -111.245102 
L 56.555087 -110.564187 
L 56.393387 -109.883273 
L 56.2541 -109.202358 
L 56.111807 -108.521443 
L 55.940676 -107.840528 
L 55.724019 -107.159613 
L 55.455487 -106.478698 
L 55.137248 -105.797783 
L 54.779167 -105.116868 
L 54.398285 -104.435953 
L 54.01665 -103.755038 
L 53.656828 -103.074123 
L 53.335453 -102.393208 
L 53.056794 -101.712293 
L 52.810707 -101.031378 
L 52.578618 -100.350463 
L 52.345145 -99.669548 
L 52.107351 -98.988633 
L 51.874902 -98.307718 
L 51.661962 -97.626803 
L 51.477805 -96.945888 
L 51.322874 -96.264973 
L 51.191615 -95.584058 
L 51.078161 -94.903143 
L 50.97973 -94.222228 
L 50.895862 -93.541314 
L 50.825669 -92.860399 
L 50.766311 -92.179484 
L 50.713738 -91.498569 
L 50.664477 -90.817654 
L 50.616928 -90.136739 
L 50.571538 -89.455824 
L 50.530006 -88.774909 
L 50.494154 -88.093994 
L 50.465167 -87.413079 
L 50.443386 -86.732164 
L 50.428343 -86.051249 
L 50.418782 -85.370334 
L 50.412921 -84.689419 
z
"/>
    </defs>
    <g clip-path="url(#pcd538e00c0)">
     <use xlink:href="#meeb31e7151" x="0" y="180" style="fill: #ff4500; fill-opacity: 0.4"/>
    </g>
   </g>
   <g id="PolyCollection_2">
    <defs>
     <path id="m87e8771bcd" d="M 78.313708 -44.804557 
L 78.300183 -44.804557 
L 78.300183 -45.393462 
L 78.300183 -45.982368 
L 78.300183 -46.571274 
L 78.300183 -47.160179 
L 78.300183 -47.749085 
L 78.300183 -48.33799 
L 78.300183 -48.926896 
L 78.300183 -49.515801 
L 78.300183 -50.104707 
L 78.300183 -50.693612 
L 78.300183 -51.282518 
L 78.300183 -51.871423 
L 78.300183 -52.460329 
L 78.300183 -53.049235 
L 78.300183 -53.63814 
L 78.300183 -54.227046 
L 78.300183 -54.815951 
L 78.300183 -55.404857 
L 78.300183 -55.993762 
L 78.300183 -56.582668 
L 78.300183 -57.171573 
L 78.300183 -57.760479 
L 78.300183 -58.349384 
L 78.300183 -58.93829 
L 78.300183 -59.527196 
L 78.300183 -60.116101 
L 78.300183 -60.705007 
L 78.300183 -61.293912 
L 78.300183 -61.882818 
L 78.300183 -62.471723 
L 78.300183 -63.060629 
L 78.300183 -63.649534 
L 78.300183 -64.23844 
L 78.300183 -64.827345 
L 78.300183 -65.416251 
L 78.300183 -66.005156 
L 78.300183 -66.594062 
L 78.300183 -67.182968 
L 78.300183 -67.771873 
L 78.300183 -68.360779 
L 78.300183 -68.949684 
L 78.300183 -69.53859 
L 78.300183 -70.127495 
L 78.300183 -70.716401 
L 78.300183 -71.305306 
L 78.300183 -71.894212 
L 78.300183 -72.483117 
L 78.300183 -73.072023 
L 78.300183 -73.660929 
L 78.300183 -74.249834 
L 78.300183 -74.83874 
L 78.300183 -75.427645 
L 78.300183 -76.016551 
L 78.300183 -76.605456 
L 78.300183 -77.194362 
L 78.300183 -77.783267 
L 78.300183 -78.372173 
L 78.300183 -78.961078 
L 78.300183 -79.549984 
L 78.300183 -80.13889 
L 78.300183 -80.727795 
L 78.300183 -81.316701 
L 78.300183 -81.905606 
L 78.300183 -82.494512 
L 78.300183 -83.083417 
L 78.300183 -83.672323 
L 78.300183 -84.261228 
L 78.300183 -84.850134 
L 78.300183 -85.439039 
L 78.300183 -86.027945 
L 78.300183 -86.616851 
L 78.300183 -87.205756 
L 78.300183 -87.794662 
L 78.300183 -88.383567 
L 78.300183 -88.972473 
L 78.300183 -89.561378 
L 78.300183 -90.150284 
L 78.300183 -90.739189 
L 78.300183 -91.328095 
L 78.300183 -91.917 
L 78.300183 -92.505906 
L 78.300183 -93.094812 
L 78.300183 -93.683717 
L 78.300183 -94.272623 
L 78.300183 -94.861528 
L 78.300183 -95.450434 
L 78.300183 -96.039339 
L 78.300183 -96.628245 
L 78.300183 -97.21715 
L 78.300183 -97.806056 
L 78.300183 -98.394961 
L 78.300183 -98.983867 
L 78.300183 -99.572772 
L 78.300183 -100.161678 
L 78.300183 -100.750584 
L 78.300183 -101.339489 
L 78.300183 -101.928395 
L 78.300183 -102.5173 
L 78.300183 -103.106206 
L 78.309746 -103.106206 
L 78.309746 -103.106206 
L 78.310967 -102.5173 
L 78.31194 -101.928395 
L 78.313319 -101.339489 
L 78.315995 -100.750584 
L 78.321029 -100.161678 
L 78.329275 -99.572772 
L 78.340606 -98.983867 
L 78.353453 -98.394961 
L 78.365455 -97.806056 
L 78.375009 -97.21715 
L 78.3825 -96.628245 
L 78.390259 -96.039339 
L 78.401513 -95.450434 
L 78.419239 -94.861528 
L 78.445415 -94.272623 
L 78.480745 -93.683717 
L 78.525092 -93.094812 
L 78.578885 -92.505906 
L 78.64463 -91.917 
L 78.726863 -91.328095 
L 78.829848 -90.739189 
L 78.954297 -90.150284 
L 79.095789 -89.561378 
L 79.246928 -88.972473 
L 79.402227 -88.383567 
L 79.56123 -87.794662 
L 79.726636 -87.205756 
L 79.900349 -86.616851 
L 80.083419 -86.027945 
L 80.280027 -85.439039 
L 80.499104 -84.850134 
L 80.750209 -84.261228 
L 81.037848 -83.672323 
L 81.358935 -83.083417 
L 81.703487 -82.494512 
L 82.058234 -81.905606 
L 82.413359 -81.316701 
L 82.767407 -80.727795 
L 83.122688 -80.13889 
L 83.474022 -79.549984 
L 83.805107 -78.961078 
L 84.099006 -78.372173 
L 84.350258 -77.783267 
L 84.563869 -77.194362 
L 84.744506 -76.605456 
L 84.890798 -76.016551 
L 85.000643 -75.427645 
L 85.079697 -74.83874 
L 85.142579 -74.249834 
L 85.202714 -73.660929 
L 85.256319 -73.072023 
L 85.275 -72.483117 
L 85.219257 -71.894212 
L 85.066685 -71.305306 
L 84.831187 -70.716401 
L 84.555323 -70.127495 
L 84.282349 -69.53859 
L 84.031033 -68.949684 
L 83.790561 -68.360779 
L 83.534761 -67.771873 
L 83.242421 -67.182968 
L 82.91068 -66.594062 
L 82.556007 -66.005156 
L 82.204732 -65.416251 
L 81.879717 -64.827345 
L 81.590983 -64.23844 
L 81.335265 -63.649534 
L 81.10314 -63.060629 
L 80.886968 -62.471723 
L 80.683392 -61.882818 
L 80.489994 -61.293912 
L 80.301188 -60.705007 
L 80.108374 -60.116101 
L 79.904856 -59.527196 
L 79.691674 -58.93829 
L 79.479782 -58.349384 
L 79.286395 -57.760479 
L 79.126848 -57.171573 
L 79.006542 -56.582668 
L 78.918552 -55.993762 
L 78.848786 -55.404857 
L 78.784506 -54.815951 
L 78.719638 -54.227046 
L 78.654383 -53.63814 
L 78.591907 -53.049235 
L 78.535653 -52.460329 
L 78.488062 -51.871423 
L 78.449981 -51.282518 
L 78.420652 -50.693612 
L 78.398423 -50.104707 
L 78.381617 -49.515801 
L 78.368838 -48.926896 
L 78.358766 -48.33799 
L 78.350033 -47.749085 
L 78.341581 -47.160179 
L 78.333169 -46.571274 
L 78.325358 -45.982368 
L 78.318822 -45.393462 
L 78.313708 -44.804557 
z
"/>
    </defs>
    <g clip-path="url(#pcd538e00c0)">
     <use xlink:href="#m87e8771bcd" x="0" y="180" style="fill: #2e8b57; fill-opacity: 0.4"/>
    </g>
   </g>
   <g id="PolyCollection_3">
    <defs>
     <path id="me168f6bed5" d="M 106.208476 -26.1 
L 106.200138 -26.1 
L 106.200138 -27.076889 
L 106.200138 -28.053779 
L 106.200138 -29.030668 
L 106.200138 -30.007557 
L 106.200138 -30.984446 
L 106.200138 -31.961336 
L 106.200138 -32.938225 
L 106.200138 -33.915114 
L 106.200138 -34.892003 
L 106.200138 -35.868893 
L 106.200138 -36.845782 
L 106.200138 -37.822671 
L 106.200138 -38.79956 
L 106.200138 -39.77645 
L 106.200138 -40.753339 
L 106.200138 -41.730228 
L 106.200138 -42.707118 
L 106.200138 -43.684007 
L 106.200138 -44.660896 
L 106.200138 -45.637785 
L 106.200138 -46.614675 
L 106.200138 -47.591564 
L 106.200138 -48.568453 
L 106.200138 -49.545342 
L 106.200138 -50.522232 
L 106.200138 -51.499121 
L 106.200138 -52.47601 
L 106.200138 -53.452899 
L 106.200138 -54.429789 
L 106.200138 -55.406678 
L 106.200138 -56.383567 
L 106.200138 -57.360456 
L 106.200138 -58.337346 
L 106.200138 -59.314235 
L 106.200138 -60.291124 
L 106.200138 -61.268014 
L 106.200138 -62.244903 
L 106.200138 -63.221792 
L 106.200138 -64.198681 
L 106.200138 -65.175571 
L 106.200138 -66.15246 
L 106.200138 -67.129349 
L 106.200138 -68.106238 
L 106.200138 -69.083128 
L 106.200138 -70.060017 
L 106.200138 -71.036906 
L 106.200138 -72.013795 
L 106.200138 -72.990685 
L 106.200138 -73.967574 
L 106.200138 -74.944463 
L 106.200138 -75.921353 
L 106.200138 -76.898242 
L 106.200138 -77.875131 
L 106.200138 -78.85202 
L 106.200138 -79.82891 
L 106.200138 -80.805799 
L 106.200138 -81.782688 
L 106.200138 -82.759577 
L 106.200138 -83.736467 
L 106.200138 -84.713356 
L 106.200138 -85.690245 
L 106.200138 -86.667134 
L 106.200138 -87.644024 
L 106.200138 -88.620913 
L 106.200138 -89.597802 
L 106.200138 -90.574692 
L 106.200138 -91.551581 
L 106.200138 -92.52847 
L 106.200138 -93.505359 
L 106.200138 -94.482249 
L 106.200138 -95.459138 
L 106.200138 -96.436027 
L 106.200138 -97.412916 
L 106.200138 -98.389806 
L 106.200138 -99.366695 
L 106.200138 -100.343584 
L 106.200138 -101.320473 
L 106.200138 -102.297363 
L 106.200138 -103.274252 
L 106.200138 -104.251141 
L 106.200138 -105.22803 
L 106.200138 -106.20492 
L 106.200138 -107.181809 
L 106.200138 -108.158698 
L 106.200138 -109.135588 
L 106.200138 -110.112477 
L 106.200138 -111.089366 
L 106.200138 -112.066255 
L 106.200138 -113.043145 
L 106.200138 -114.020034 
L 106.200138 -114.996923 
L 106.200138 -115.973812 
L 106.200138 -116.950702 
L 106.200138 -117.927591 
L 106.200138 -118.90448 
L 106.200138 -119.881369 
L 106.200138 -120.858259 
L 106.200138 -121.835148 
L 106.200138 -122.812037 
L 106.211065 -122.812037 
L 106.211065 -122.812037 
L 106.214322 -121.835148 
L 106.219306 -120.858259 
L 106.226867 -119.881369 
L 106.236855 -118.90448 
L 106.247986 -117.927591 
L 106.258641 -116.950702 
L 106.268163 -115.973812 
L 106.277841 -114.996923 
L 106.29094 -114.020034 
L 106.311686 -113.043145 
L 106.343747 -112.066255 
L 106.389153 -111.089366 
L 106.448291 -110.112477 
L 106.521007 -109.135588 
L 106.608327 -108.158698 
L 106.713658 -107.181809 
L 106.842005 -106.20492 
L 106.996647 -105.22803 
L 107.175507 -104.251141 
L 107.371409 -103.274252 
L 107.578055 -102.297363 
L 107.797369 -101.320473 
L 108.040107 -100.343584 
L 108.316757 -99.366695 
L 108.626199 -98.389806 
L 108.953735 -97.412916 
L 109.28147 -96.436027 
L 109.601534 -95.459138 
L 109.920025 -94.482249 
L 110.248984 -93.505359 
L 110.594036 -92.52847 
L 110.947076 -91.551581 
L 111.288399 -90.574692 
L 111.597127 -89.597802 
L 111.863976 -88.620913 
L 112.096879 -87.644024 
L 112.313316 -86.667134 
L 112.524729 -85.690245 
L 112.726621 -84.713356 
L 112.902323 -83.736467 
L 113.035476 -82.759577 
L 113.12033 -81.782688 
L 113.163137 -80.805799 
L 113.175 -79.82891 
L 113.16182 -78.85202 
L 113.119457 -77.875131 
L 113.03867 -76.898242 
L 112.915227 -75.921353 
L 112.755396 -74.944463 
L 112.572901 -73.967574 
L 112.381929 -72.990685 
L 112.190936 -72.013795 
L 111.998158 -71.036906 
L 111.790955 -70.060017 
L 111.552677 -69.083128 
L 111.274047 -68.106238 
L 110.959047 -67.129349 
L 110.620566 -66.15246 
L 110.273063 -65.175571 
L 109.930537 -64.198681 
L 109.607583 -63.221792 
L 109.316273 -62.244903 
L 109.059692 -61.268014 
L 108.830696 -60.291124 
L 108.61913 -59.314235 
L 108.420068 -58.337346 
L 108.234821 -57.360456 
L 108.065875 -56.383567 
L 107.912703 -55.406678 
L 107.771514 -54.429789 
L 107.636505 -53.452899 
L 107.50099 -52.47601 
L 107.359938 -51.499121 
L 107.213801 -50.522232 
L 107.069627 -49.545342 
L 106.936793 -48.568453 
L 106.820923 -47.591564 
L 106.721815 -46.614675 
L 106.636277 -45.637785 
L 106.561665 -44.660896 
L 106.49706 -43.684007 
L 106.442815 -42.707118 
L 106.39994 -41.730228 
L 106.369036 -40.753339 
L 106.348655 -39.77645 
L 106.334706 -38.79956 
L 106.322204 -37.822671 
L 106.308026 -36.845782 
L 106.292092 -35.868893 
L 106.276085 -34.892003 
L 106.26138 -33.915114 
L 106.248184 -32.938225 
L 106.236217 -31.961336 
L 106.225698 -30.984446 
L 106.217452 -30.007557 
L 106.212176 -29.030668 
L 106.2097 -28.053779 
L 106.208928 -27.076889 
L 106.208476 -26.1 
z
"/>
    </defs>
    <g clip-path="url(#pcd538e00c0)">
     <use xlink:href="#me168f6bed5" x="0" y="180" style="fill: #ff4500; fill-opacity: 0.4"/>
    </g>
   </g>
   <g id="PolyCollection_4">
    <defs>
     <path id="md4d15a5dbe" d="M 134.11199 -38.143294 
L 134.100192 -38.143294 
L 134.100192 -38.839936 
L 134.100192 -39.536579 
L 134.100192 -40.233221 
L 134.100192 -40.929864 
L 134.100192 -41.626506 
L 134.100192 -42.323148 
L 134.100192 -43.019791 
L 134.100192 -43.716433 
L 134.100192 -44.413076 
L 134.100192 -45.109718 
L 134.100192 -45.806361 
L 134.100192 -46.503003 
L 134.100192 -47.199646 
L 134.100192 -47.896288 
L 134.100192 -48.592931 
L 134.100192 -49.289573 
L 134.100192 -49.986215 
L 134.100192 -50.682858 
L 134.100192 -51.3795 
L 134.100192 -52.076143 
L 134.100192 -52.772785 
L 134.100192 -53.469428 
L 134.100192 -54.16607 
L 134.100192 -54.862713 
L 134.100192 -55.559355 
L 134.100192 -56.255998 
L 134.100192 -56.95264 
L 134.100192 -57.649282 
L 134.100192 -58.345925 
L 134.100192 -59.042567 
L 134.100192 -59.73921 
L 134.100192 -60.435852 
L 134.100192 -61.132495 
L 134.100192 -61.829137 
L 134.100192 -62.52578 
L 134.100192 -63.222422 
L 134.100192 -63.919065 
L 134.100192 -64.615707 
L 134.100192 -65.312349 
L 134.100192 -66.008992 
L 134.100192 -66.705634 
L 134.100192 -67.402277 
L 134.100192 -68.098919 
L 134.100192 -68.795562 
L 134.100192 -69.492204 
L 134.100192 -70.188847 
L 134.100192 -70.885489 
L 134.100192 -71.582132 
L 134.100192 -72.278774 
L 134.100192 -72.975416 
L 134.100192 -73.672059 
L 134.100192 -74.368701 
L 134.100192 -75.065344 
L 134.100192 -75.761986 
L 134.100192 -76.458629 
L 134.100192 -77.155271 
L 134.100192 -77.851914 
L 134.100192 -78.548556 
L 134.100192 -79.245199 
L 134.100192 -79.941841 
L 134.100192 -80.638483 
L 134.100192 -81.335126 
L 134.100192 -82.031768 
L 134.100192 -82.728411 
L 134.100192 -83.425053 
L 134.100192 -84.121696 
L 134.100192 -84.818338 
L 134.100192 -85.514981 
L 134.100192 -86.211623 
L 134.100192 -86.908266 
L 134.100192 -87.604908 
L 134.100192 -88.30155 
L 134.100192 -88.998193 
L 134.100192 -89.694835 
L 134.100192 -90.391478 
L 134.100192 -91.08812 
L 134.100192 -91.784763 
L 134.100192 -92.481405 
L 134.100192 -93.178048 
L 134.100192 -93.87469 
L 134.100192 -94.571333 
L 134.100192 -95.267975 
L 134.100192 -95.964617 
L 134.100192 -96.66126 
L 134.100192 -97.357902 
L 134.100192 -98.054545 
L 134.100192 -98.751187 
L 134.100192 -99.44783 
L 134.100192 -100.144472 
L 134.100192 -100.841115 
L 134.100192 -101.537757 
L 134.100192 -102.2344 
L 134.100192 -102.931042 
L 134.100192 -103.627684 
L 134.100192 -104.324327 
L 134.100192 -105.020969 
L 134.100192 -105.717612 
L 134.100192 -106.414254 
L 134.100192 -107.110897 
L 134.115012 -107.110897 
L 134.115012 -107.110897 
L 134.120031 -106.414254 
L 134.126692 -105.717612 
L 134.135845 -105.020969 
L 134.147309 -104.324327 
L 134.159461 -103.627684 
L 134.170235 -102.931042 
L 134.178799 -102.2344 
L 134.186295 -101.537757 
L 134.195064 -100.841115 
L 134.207544 -100.144472 
L 134.225868 -99.44783 
L 134.251664 -98.751187 
L 134.285377 -98.054545 
L 134.326244 -97.357902 
L 134.374525 -96.66126 
L 134.434539 -95.964617 
L 134.514349 -95.267975 
L 134.620513 -94.571333 
L 134.752167 -93.87469 
L 134.900522 -93.178048 
L 135.055034 -92.481405 
L 135.211214 -91.784763 
L 135.373432 -91.08812 
L 135.550444 -90.391478 
L 135.748178 -89.694835 
L 135.967283 -88.998193 
L 136.207782 -88.30155 
L 136.474534 -87.604908 
L 136.775649 -86.908266 
L 137.114677 -86.211623 
L 137.485412 -85.514981 
L 137.874491 -84.818338 
L 138.266971 -84.121696 
L 138.648306 -83.425053 
L 139.004033 -82.728411 
L 139.323081 -82.031768 
L 139.604047 -81.335126 
L 139.855925 -80.638483 
L 140.088964 -79.941841 
L 140.304505 -79.245199 
L 140.496084 -78.548556 
L 140.660249 -77.851914 
L 140.802212 -77.155271 
L 140.927298 -76.458629 
L 141.026847 -75.761986 
L 141.075 -75.065344 
L 141.043187 -74.368701 
L 140.92284 -73.672059 
L 140.73844 -72.975416 
L 140.538613 -72.278774 
L 140.368451 -71.582132 
L 140.240796 -70.885489 
L 140.127126 -70.188847 
L 139.976212 -69.492204 
L 139.748317 -68.795562 
L 139.439956 -68.098919 
L 139.081689 -67.402277 
L 138.714838 -66.705634 
L 138.369445 -66.008992 
L 138.058134 -65.312349 
L 137.780888 -64.615707 
L 137.529627 -63.919065 
L 137.291098 -63.222422 
L 137.051723 -62.52578 
L 136.802846 -61.829137 
L 136.542928 -61.132495 
L 136.277549 -60.435852 
L 136.0186 -59.73921 
L 135.780747 -59.042567 
L 135.574655 -58.345925 
L 135.401339 -57.649282 
L 135.252581 -56.95264 
L 135.117319 -56.255998 
L 134.988911 -55.559355 
L 134.867834 -54.862713 
L 134.758692 -54.16607 
L 134.665 -53.469428 
L 134.585995 -52.772785 
L 134.517125 -52.076143 
L 134.453147 -51.3795 
L 134.391559 -50.682858 
L 134.334079 -49.986215 
L 134.28512 -49.289573 
L 134.248334 -48.592931 
L 134.223925 -47.896288 
L 134.208739 -47.199646 
L 134.198532 -46.503003 
L 134.190037 -45.806361 
L 134.181363 -45.109718 
L 134.171485 -44.413076 
L 134.16011 -43.716433 
L 134.14794 -43.019791 
L 134.136515 -42.323148 
L 134.127383 -41.626506 
L 134.121251 -40.929864 
L 134.117732 -40.233221 
L 134.115732 -39.536579 
L 134.114075 -38.839936 
L 134.11199 -38.143294 
z
"/>
    </defs>
    <g clip-path="url(#pcd538e00c0)">
     <use xlink:href="#md4d15a5dbe" x="0" y="180" style="fill: #2e8b57; fill-opacity: 0.4"/>
    </g>
   </g>
   <g id="PolyCollection_5">
    <path d="M 22.5 101.231916 
L 22.5 119.528864 
L 22.779 119.528864 
L 23.058 119.528864 
L 23.337 119.528864 
L 23.616 119.528864 
L 23.895 119.528864 
L 24.174 119.528864 
L 24.453 119.528864 
L 24.732 119.528864 
L 25.011 119.528864 
L 25.29 119.528864 
L 25.569 119.528864 
L 25.848 119.528864 
L 26.127 119.528864 
L 26.406 119.528864 
L 26.685 119.528864 
L 26.964 119.528864 
L 27.243 119.528864 
L 27.522 119.528864 
L 27.801 119.528864 
L 28.08 119.528864 
L 28.359 119.528864 
L 28.638 119.528864 
L 28.917 119.528864 
L 29.196 119.528864 
L 29.475 119.528864 
L 29.754 119.528864 
L 30.033 119.528864 
L 30.312 119.528864 
L 30.591 119.528864 
L 30.87 119.528864 
L 31.149 119.528864 
L 31.428 119.528864 
L 31.707 119.528864 
L 31.986 119.528864 
L 32.265 119.528864 
L 32.544 119.528864 
L 32.823 119.528864 
L 33.102 119.528864 
L 33.381 119.528864 
L 33.66 119.528864 
L 33.939 119.528864 
L 34.218 119.528864 
L 34.497 119.528864 
L 34.776 119.528864 
L 35.055 119.528864 
L 35.334 119.528864 
L 35.613 119.528864 
L 35.892 119.528864 
L 36.171 119.528864 
L 36.45 119.528864 
L 36.729 119.528864 
L 37.008 119.528864 
L 37.287 119.528864 
L 37.566 119.528864 
L 37.845 119.528864 
L 38.124 119.528864 
L 38.403 119.528864 
L 38.682 119.528864 
L 38.961 119.528864 
L 39.24 119.528864 
L 39.519 119.528864 
L 39.798 119.528864 
L 40.077 119.528864 
L 40.356 119.528864 
L 40.635 119.528864 
L 40.914 119.528864 
L 41.193 119.528864 
L 41.472 119.528864 
L 41.751 119.528864 
L 42.03 119.528864 
L 42.309 119.528864 
L 42.588 119.528864 
L 42.867 119.528864 
L 43.146 119.528864 
L 43.425 119.528864 
L 43.704 119.528864 
L 43.983 119.528864 
L 44.262 119.528864 
L 44.541 119.528864 
L 44.82 119.528864 
L 45.099 119.528864 
L 45.378 119.528864 
L 45.657 119.528864 
L 45.936 119.528864 
L 46.215 119.528864 
L 46.494 119.528864 
L 46.773 119.528864 
L 47.052 119.528864 
L 47.331 119.528864 
L 47.61 119.528864 
L 47.889 119.528864 
L 48.168 119.528864 
L 48.447 119.528864 
L 48.726 119.528864 
L 49.005 119.528864 
L 49.284 119.528864 
L 49.563 119.528864 
L 49.842 119.528864 
L 50.121 119.528864 
L 50.4 119.528864 
L 50.679 119.528864 
L 50.958 119.528864 
L 51.237 119.528864 
L 51.516 119.528864 
L 51.795 119.528864 
L 52.074 119.528864 
L 52.353 119.528864 
L 52.632 119.528864 
L 52.911 119.528864 
L 53.19 119.528864 
L 53.469 119.528864 
L 53.748 119.528864 
L 54.027 119.528864 
L 54.306 119.528864 
L 54.585 119.528864 
L 54.864 119.528864 
L 55.143 119.528864 
L 55.422 119.528864 
L 55.701 119.528864 
L 55.98 119.528864 
L 56.259 119.528864 
L 56.538 119.528864 
L 56.817 119.528864 
L 57.096 119.528864 
L 57.375 119.528864 
L 57.654 119.528864 
L 57.933 119.528864 
L 58.212 119.528864 
L 58.491 119.528864 
L 58.77 119.528864 
L 59.049 119.528864 
L 59.328 119.528864 
L 59.607 119.528864 
L 59.886 119.528864 
L 60.165 119.528864 
L 60.444 119.528864 
L 60.723 119.528864 
L 61.002 119.528864 
L 61.281 119.528864 
L 61.56 119.528864 
L 61.839 119.528864 
L 62.118 119.528864 
L 62.397 119.528864 
L 62.676 119.528864 
L 62.955 119.528864 
L 63.234 119.528864 
L 63.513 119.528864 
L 63.792 119.528864 
L 64.071 119.528864 
L 64.35 119.528864 
L 64.629 119.528864 
L 64.908 119.528864 
L 65.187 119.528864 
L 65.466 119.528864 
L 65.745 119.528864 
L 66.024 119.528864 
L 66.303 119.528864 
L 66.582 119.528864 
L 66.861 119.528864 
L 67.14 119.528864 
L 67.419 119.528864 
L 67.698 119.528864 
L 67.977 119.528864 
L 68.256 119.528864 
L 68.535 119.528864 
L 68.814 119.528864 
L 69.093 119.528864 
L 69.372 119.528864 
L 69.651 119.528864 
L 69.93 119.528864 
L 70.209 119.528864 
L 70.488 119.528864 
L 70.767 119.528864 
L 71.046 119.528864 
L 71.325 119.528864 
L 71.604 119.528864 
L 71.883 119.528864 
L 72.162 119.528864 
L 72.441 119.528864 
L 72.72 119.528864 
L 72.999 119.528864 
L 73.278 119.528864 
L 73.557 119.528864 
L 73.836 119.528864 
L 74.115 119.528864 
L 74.394 119.528864 
L 74.673 119.528864 
L 74.952 119.528864 
L 75.231 119.528864 
L 75.51 119.528864 
L 75.789 119.528864 
L 76.068 119.528864 
L 76.347 119.528864 
L 76.626 119.528864 
L 76.905 119.528864 
L 77.184 119.528864 
L 77.463 119.528864 
L 77.742 119.528864 
L 78.021 119.528864 
L 78.3 119.528864 
L 78.579 119.528864 
L 78.858 119.528864 
L 79.137 119.528864 
L 79.416 119.528864 
L 79.695 119.528864 
L 79.974 119.528864 
L 80.253 119.528864 
L 80.532 119.528864 
L 80.811 119.528864 
L 81.09 119.528864 
L 81.369 119.528864 
L 81.648 119.528864 
L 81.927 119.528864 
L 82.206 119.528864 
L 82.485 119.528864 
L 82.764 119.528864 
L 83.043 119.528864 
L 83.322 119.528864 
L 83.601 119.528864 
L 83.88 119.528864 
L 84.159 119.528864 
L 84.438 119.528864 
L 84.717 119.528864 
L 84.996 119.528864 
L 85.275 119.528864 
L 85.554 119.528864 
L 85.833 119.528864 
L 86.112 119.528864 
L 86.391 119.528864 
L 86.67 119.528864 
L 86.949 119.528864 
L 87.228 119.528864 
L 87.507 119.528864 
L 87.786 119.528864 
L 88.065 119.528864 
L 88.344 119.528864 
L 88.623 119.528864 
L 88.902 119.528864 
L 89.181 119.528864 
L 89.46 119.528864 
L 89.739 119.528864 
L 90.018 119.528864 
L 90.297 119.528864 
L 90.576 119.528864 
L 90.855 119.528864 
L 91.134 119.528864 
L 91.413 119.528864 
L 91.692 119.528864 
L 91.971 119.528864 
L 92.25 119.528864 
L 92.529 119.528864 
L 92.808 119.528864 
L 93.087 119.528864 
L 93.366 119.528864 
L 93.645 119.528864 
L 93.924 119.528864 
L 94.203 119.528864 
L 94.482 119.528864 
L 94.761 119.528864 
L 95.04 119.528864 
L 95.319 119.528864 
L 95.598 119.528864 
L 95.877 119.528864 
L 96.156 119.528864 
L 96.435 119.528864 
L 96.714 119.528864 
L 96.993 119.528864 
L 97.272 119.528864 
L 97.551 119.528864 
L 97.83 119.528864 
L 98.109 119.528864 
L 98.388 119.528864 
L 98.667 119.528864 
L 98.946 119.528864 
L 99.225 119.528864 
L 99.504 119.528864 
L 99.783 119.528864 
L 100.062 119.528864 
L 100.341 119.528864 
L 100.62 119.528864 
L 100.899 119.528864 
L 101.178 119.528864 
L 101.457 119.528864 
L 101.736 119.528864 
L 102.015 119.528864 
L 102.294 119.528864 
L 102.573 119.528864 
L 102.852 119.528864 
L 103.131 119.528864 
L 103.41 119.528864 
L 103.689 119.528864 
L 103.968 119.528864 
L 104.247 119.528864 
L 104.526 119.528864 
L 104.805 119.528864 
L 105.084 119.528864 
L 105.363 119.528864 
L 105.642 119.528864 
L 105.921 119.528864 
L 106.2 119.528864 
L 106.479 119.528864 
L 106.758 119.528864 
L 107.037 119.528864 
L 107.316 119.528864 
L 107.595 119.528864 
L 107.874 119.528864 
L 108.153 119.528864 
L 108.432 119.528864 
L 108.711 119.528864 
L 108.99 119.528864 
L 109.269 119.528864 
L 109.548 119.528864 
L 109.827 119.528864 
L 110.106 119.528864 
L 110.385 119.528864 
L 110.664 119.528864 
L 110.943 119.528864 
L 111.222 119.528864 
L 111.501 119.528864 
L 111.78 119.528864 
L 112.059 119.528864 
L 112.338 119.528864 
L 112.617 119.528864 
L 112.896 119.528864 
L 113.175 119.528864 
L 113.454 119.528864 
L 113.733 119.528864 
L 114.012 119.528864 
L 114.291 119.528864 
L 114.57 119.528864 
L 114.849 119.528864 
L 115.128 119.528864 
L 115.407 119.528864 
L 115.686 119.528864 
L 115.965 119.528864 
L 116.244 119.528864 
L 116.523 119.528864 
L 116.802 119.528864 
L 117.081 119.528864 
L 117.36 119.528864 
L 117.639 119.528864 
L 117.918 119.528864 
L 118.197 119.528864 
L 118.476 119.528864 
L 118.755 119.528864 
L 119.034 119.528864 
L 119.313 119.528864 
L 119.592 119.528864 
L 119.871 119.528864 
L 120.15 119.528864 
L 120.429 119.528864 
L 120.708 119.528864 
L 120.987 119.528864 
L 121.266 119.528864 
L 121.545 119.528864 
L 121.824 119.528864 
L 122.103 119.528864 
L 122.382 119.528864 
L 122.661 119.528864 
L 122.94 119.528864 
L 123.219 119.528864 
L 123.498 119.528864 
L 123.777 119.528864 
L 124.056 119.528864 
L 124.335 119.528864 
L 124.614 119.528864 
L 124.893 119.528864 
L 125.172 119.528864 
L 125.451 119.528864 
L 125.73 119.528864 
L 126.009 119.528864 
L 126.288 119.528864 
L 126.567 119.528864 
L 126.846 119.528864 
L 127.125 119.528864 
L 127.404 119.528864 
L 127.683 119.528864 
L 127.962 119.528864 
L 128.241 119.528864 
L 128.52 119.528864 
L 128.799 119.528864 
L 129.078 119.528864 
L 129.357 119.528864 
L 129.636 119.528864 
L 129.915 119.528864 
L 130.194 119.528864 
L 130.473 119.528864 
L 130.752 119.528864 
L 131.031 119.528864 
L 131.31 119.528864 
L 131.589 119.528864 
L 131.868 119.528864 
L 132.147 119.528864 
L 132.426 119.528864 
L 132.705 119.528864 
L 132.984 119.528864 
L 133.263 119.528864 
L 133.542 119.528864 
L 133.821 119.528864 
L 134.1 119.528864 
L 134.379 119.528864 
L 134.658 119.528864 
L 134.937 119.528864 
L 135.216 119.528864 
L 135.495 119.528864 
L 135.774 119.528864 
L 136.053 119.528864 
L 136.332 119.528864 
L 136.611 119.528864 
L 136.89 119.528864 
L 137.169 119.528864 
L 137.448 119.528864 
L 137.727 119.528864 
L 138.006 119.528864 
L 138.285 119.528864 
L 138.564 119.528864 
L 138.843 119.528864 
L 139.122 119.528864 
L 139.401 119.528864 
L 139.68 119.528864 
L 139.959 119.528864 
L 140.238 119.528864 
L 140.517 119.528864 
L 140.796 119.528864 
L 141.075 119.528864 
L 141.354 119.528864 
L 141.633 119.528864 
L 141.912 119.528864 
L 142.191 119.528864 
L 142.47 119.528864 
L 142.749 119.528864 
L 143.028 119.528864 
L 143.307 119.528864 
L 143.586 119.528864 
L 143.865 119.528864 
L 144.144 119.528864 
L 144.423 119.528864 
L 144.702 119.528864 
L 144.981 119.528864 
L 145.26 119.528864 
L 145.539 119.528864 
L 145.818 119.528864 
L 146.097 119.528864 
L 146.376 119.528864 
L 146.655 119.528864 
L 146.934 119.528864 
L 147.213 119.528864 
L 147.492 119.528864 
L 147.771 119.528864 
L 148.05 119.528864 
L 148.329 119.528864 
L 148.608 119.528864 
L 148.887 119.528864 
L 149.166 119.528864 
L 149.445 119.528864 
L 149.724 119.528864 
L 150.003 119.528864 
L 150.282 119.528864 
L 150.561 119.528864 
L 150.84 119.528864 
L 151.119 119.528864 
L 151.398 119.528864 
L 151.677 119.528864 
L 151.956 119.528864 
L 152.235 119.528864 
L 152.514 119.528864 
L 152.793 119.528864 
L 153.072 119.528864 
L 153.351 119.528864 
L 153.63 119.528864 
L 153.909 119.528864 
L 154.188 119.528864 
L 154.467 119.528864 
L 154.746 119.528864 
L 155.025 119.528864 
L 155.304 119.528864 
L 155.583 119.528864 
L 155.862 119.528864 
L 156.141 119.528864 
L 156.42 119.528864 
L 156.699 119.528864 
L 156.978 119.528864 
L 157.257 119.528864 
L 157.536 119.528864 
L 157.815 119.528864 
L 158.094 119.528864 
L 158.373 119.528864 
L 158.652 119.528864 
L 158.931 119.528864 
L 159.21 119.528864 
L 159.489 119.528864 
L 159.768 119.528864 
L 160.047 119.528864 
L 160.326 119.528864 
L 160.605 119.528864 
L 160.884 119.528864 
L 161.163 119.528864 
L 161.442 119.528864 
L 161.721 119.528864 
L 161.721 101.231916 
L 161.721 101.231916 
L 161.442 101.231916 
L 161.163 101.231916 
L 160.884 101.231916 
L 160.605 101.231916 
L 160.326 101.231916 
L 160.047 101.231916 
L 159.768 101.231916 
L 159.489 101.231916 
L 159.21 101.231916 
L 158.931 101.231916 
L 158.652 101.231916 
L 158.373 101.231916 
L 158.094 101.231916 
L 157.815 101.231916 
L 157.536 101.231916 
L 157.257 101.231916 
L 156.978 101.231916 
L 156.699 101.231916 
L 156.42 101.231916 
L 156.141 101.231916 
L 155.862 101.231916 
L 155.583 101.231916 
L 155.304 101.231916 
L 155.025 101.231916 
L 154.746 101.231916 
L 154.467 101.231916 
L 154.188 101.231916 
L 153.909 101.231916 
L 153.63 101.231916 
L 153.351 101.231916 
L 153.072 101.231916 
L 152.793 101.231916 
L 152.514 101.231916 
L 152.235 101.231916 
L 151.956 101.231916 
L 151.677 101.231916 
L 151.398 101.231916 
L 151.119 101.231916 
L 150.84 101.231916 
L 150.561 101.231916 
L 150.282 101.231916 
L 150.003 101.231916 
L 149.724 101.231916 
L 149.445 101.231916 
L 149.166 101.231916 
L 148.887 101.231916 
L 148.608 101.231916 
L 148.329 101.231916 
L 148.05 101.231916 
L 147.771 101.231916 
L 147.492 101.231916 
L 147.213 101.231916 
L 146.934 101.231916 
L 146.655 101.231916 
L 146.376 101.231916 
L 146.097 101.231916 
L 145.818 101.231916 
L 145.539 101.231916 
L 145.26 101.231916 
L 144.981 101.231916 
L 144.702 101.231916 
L 144.423 101.231916 
L 144.144 101.231916 
L 143.865 101.231916 
L 143.586 101.231916 
L 143.307 101.231916 
L 143.028 101.231916 
L 142.749 101.231916 
L 142.47 101.231916 
L 142.191 101.231916 
L 141.912 101.231916 
L 141.633 101.231916 
L 141.354 101.231916 
L 141.075 101.231916 
L 140.796 101.231916 
L 140.517 101.231916 
L 140.238 101.231916 
L 139.959 101.231916 
L 139.68 101.231916 
L 139.401 101.231916 
L 139.122 101.231916 
L 138.843 101.231916 
L 138.564 101.231916 
L 138.285 101.231916 
L 138.006 101.231916 
L 137.727 101.231916 
L 137.448 101.231916 
L 137.169 101.231916 
L 136.89 101.231916 
L 136.611 101.231916 
L 136.332 101.231916 
L 136.053 101.231916 
L 135.774 101.231916 
L 135.495 101.231916 
L 135.216 101.231916 
L 134.937 101.231916 
L 134.658 101.231916 
L 134.379 101.231916 
L 134.1 101.231916 
L 133.821 101.231916 
L 133.542 101.231916 
L 133.263 101.231916 
L 132.984 101.231916 
L 132.705 101.231916 
L 132.426 101.231916 
L 132.147 101.231916 
L 131.868 101.231916 
L 131.589 101.231916 
L 131.31 101.231916 
L 131.031 101.231916 
L 130.752 101.231916 
L 130.473 101.231916 
L 130.194 101.231916 
L 129.915 101.231916 
L 129.636 101.231916 
L 129.357 101.231916 
L 129.078 101.231916 
L 128.799 101.231916 
L 128.52 101.231916 
L 128.241 101.231916 
L 127.962 101.231916 
L 127.683 101.231916 
L 127.404 101.231916 
L 127.125 101.231916 
L 126.846 101.231916 
L 126.567 101.231916 
L 126.288 101.231916 
L 126.009 101.231916 
L 125.73 101.231916 
L 125.451 101.231916 
L 125.172 101.231916 
L 124.893 101.231916 
L 124.614 101.231916 
L 124.335 101.231916 
L 124.056 101.231916 
L 123.777 101.231916 
L 123.498 101.231916 
L 123.219 101.231916 
L 122.94 101.231916 
L 122.661 101.231916 
L 122.382 101.231916 
L 122.103 101.231916 
L 121.824 101.231916 
L 121.545 101.231916 
L 121.266 101.231916 
L 120.987 101.231916 
L 120.708 101.231916 
L 120.429 101.231916 
L 120.15 101.231916 
L 119.871 101.231916 
L 119.592 101.231916 
L 119.313 101.231916 
L 119.034 101.231916 
L 118.755 101.231916 
L 118.476 101.231916 
L 118.197 101.231916 
L 117.918 101.231916 
L 117.639 101.231916 
L 117.36 101.231916 
L 117.081 101.231916 
L 116.802 101.231916 
L 116.523 101.231916 
L 116.244 101.231916 
L 115.965 101.231916 
L 115.686 101.231916 
L 115.407 101.231916 
L 115.128 101.231916 
L 114.849 101.231916 
L 114.57 101.231916 
L 114.291 101.231916 
L 114.012 101.231916 
L 113.733 101.231916 
L 113.454 101.231916 
L 113.175 101.231916 
L 112.896 101.231916 
L 112.617 101.231916 
L 112.338 101.231916 
L 112.059 101.231916 
L 111.78 101.231916 
L 111.501 101.231916 
L 111.222 101.231916 
L 110.943 101.231916 
L 110.664 101.231916 
L 110.385 101.231916 
L 110.106 101.231916 
L 109.827 101.231916 
L 109.548 101.231916 
L 109.269 101.231916 
L 108.99 101.231916 
L 108.711 101.231916 
L 108.432 101.231916 
L 108.153 101.231916 
L 107.874 101.231916 
L 107.595 101.231916 
L 107.316 101.231916 
L 107.037 101.231916 
L 106.758 101.231916 
L 106.479 101.231916 
L 106.2 101.231916 
L 105.921 101.231916 
L 105.642 101.231916 
L 105.363 101.231916 
L 105.084 101.231916 
L 104.805 101.231916 
L 104.526 101.231916 
L 104.247 101.231916 
L 103.968 101.231916 
L 103.689 101.231916 
L 103.41 101.231916 
L 103.131 101.231916 
L 102.852 101.231916 
L 102.573 101.231916 
L 102.294 101.231916 
L 102.015 101.231916 
L 101.736 101.231916 
L 101.457 101.231916 
L 101.178 101.231916 
L 100.899 101.231916 
L 100.62 101.231916 
L 100.341 101.231916 
L 100.062 101.231916 
L 99.783 101.231916 
L 99.504 101.231916 
L 99.225 101.231916 
L 98.946 101.231916 
L 98.667 101.231916 
L 98.388 101.231916 
L 98.109 101.231916 
L 97.83 101.231916 
L 97.551 101.231916 
L 97.272 101.231916 
L 96.993 101.231916 
L 96.714 101.231916 
L 96.435 101.231916 
L 96.156 101.231916 
L 95.877 101.231916 
L 95.598 101.231916 
L 95.319 101.231916 
L 95.04 101.231916 
L 94.761 101.231916 
L 94.482 101.231916 
L 94.203 101.231916 
L 93.924 101.231916 
L 93.645 101.231916 
L 93.366 101.231916 
L 93.087 101.231916 
L 92.808 101.231916 
L 92.529 101.231916 
L 92.25 101.231916 
L 91.971 101.231916 
L 91.692 101.231916 
L 91.413 101.231916 
L 91.134 101.231916 
L 90.855 101.231916 
L 90.576 101.231916 
L 90.297 101.231916 
L 90.018 101.231916 
L 89.739 101.231916 
L 89.46 101.231916 
L 89.181 101.231916 
L 88.902 101.231916 
L 88.623 101.231916 
L 88.344 101.231916 
L 88.065 101.231916 
L 87.786 101.231916 
L 87.507 101.231916 
L 87.228 101.231916 
L 86.949 101.231916 
L 86.67 101.231916 
L 86.391 101.231916 
L 86.112 101.231916 
L 85.833 101.231916 
L 85.554 101.231916 
L 85.275 101.231916 
L 84.996 101.231916 
L 84.717 101.231916 
L 84.438 101.231916 
L 84.159 101.231916 
L 83.88 101.231916 
L 83.601 101.231916 
L 83.322 101.231916 
L 83.043 101.231916 
L 82.764 101.231916 
L 82.485 101.231916 
L 82.206 101.231916 
L 81.927 101.231916 
L 81.648 101.231916 
L 81.369 101.231916 
L 81.09 101.231916 
L 80.811 101.231916 
L 80.532 101.231916 
L 80.253 101.231916 
L 79.974 101.231916 
L 79.695 101.231916 
L 79.416 101.231916 
L 79.137 101.231916 
L 78.858 101.231916 
L 78.579 101.231916 
L 78.3 101.231916 
L 78.021 101.231916 
L 77.742 101.231916 
L 77.463 101.231916 
L 77.184 101.231916 
L 76.905 101.231916 
L 76.626 101.231916 
L 76.347 101.231916 
L 76.068 101.231916 
L 75.789 101.231916 
L 75.51 101.231916 
L 75.231 101.231916 
L 74.952 101.231916 
L 74.673 101.231916 
L 74.394 101.231916 
L 74.115 101.231916 
L 73.836 101.231916 
L 73.557 101.231916 
L 73.278 101.231916 
L 72.999 101.231916 
L 72.72 101.231916 
L 72.441 101.231916 
L 72.162 101.231916 
L 71.883 101.231916 
L 71.604 101.231916 
L 71.325 101.231916 
L 71.046 101.231916 
L 70.767 101.231916 
L 70.488 101.231916 
L 70.209 101.231916 
L 69.93 101.231916 
L 69.651 101.231916 
L 69.372 101.231916 
L 69.093 101.231916 
L 68.814 101.231916 
L 68.535 101.231916 
L 68.256 101.231916 
L 67.977 101.231916 
L 67.698 101.231916 
L 67.419 101.231916 
L 67.14 101.231916 
L 66.861 101.231916 
L 66.582 101.231916 
L 66.303 101.231916 
L 66.024 101.231916 
L 65.745 101.231916 
L 65.466 101.231916 
L 65.187 101.231916 
L 64.908 101.231916 
L 64.629 101.231916 
L 64.35 101.231916 
L 64.071 101.231916 
L 63.792 101.231916 
L 63.513 101.231916 
L 63.234 101.231916 
L 62.955 101.231916 
L 62.676 101.231916 
L 62.397 101.231916 
L 62.118 101.231916 
L 61.839 101.231916 
L 61.56 101.231916 
L 61.281 101.231916 
L 61.002 101.231916 
L 60.723 101.231916 
L 60.444 101.231916 
L 60.165 101.231916 
L 59.886 101.231916 
L 59.607 101.231916 
L 59.328 101.231916 
L 59.049 101.231916 
L 58.77 101.231916 
L 58.491 101.231916 
L 58.212 101.231916 
L 57.933 101.231916 
L 57.654 101.231916 
L 57.375 101.231916 
L 57.096 101.231916 
L 56.817 101.231916 
L 56.538 101.231916 
L 56.259 101.231916 
L 55.98 101.231916 
L 55.701 101.231916 
L 55.422 101.231916 
L 55.143 101.231916 
L 54.864 101.231916 
L 54.585 101.231916 
L 54.306 101.231916 
L 54.027 101.231916 
L 53.748 101.231916 
L 53.469 101.231916 
L 53.19 101.231916 
L 52.911 101.231916 
L 52.632 101.231916 
L 52.353 101.231916 
L 52.074 101.231916 
L 51.795 101.231916 
L 51.516 101.231916 
L 51.237 101.231916 
L 50.958 101.231916 
L 50.679 101.231916 
L 50.4 101.231916 
L 50.121 101.231916 
L 49.842 101.231916 
L 49.563 101.231916 
L 49.284 101.231916 
L 49.005 101.231916 
L 48.726 101.231916 
L 48.447 101.231916 
L 48.168 101.231916 
L 47.889 101.231916 
L 47.61 101.231916 
L 47.331 101.231916 
L 47.052 101.231916 
L 46.773 101.231916 
L 46.494 101.231916 
L 46.215 101.231916 
L 45.936 101.231916 
L 45.657 101.231916 
L 45.378 101.231916 
L 45.099 101.231916 
L 44.82 101.231916 
L 44.541 101.231916 
L 44.262 101.231916 
L 43.983 101.231916 
L 43.704 101.231916 
L 43.425 101.231916 
L 43.146 101.231916 
L 42.867 101.231916 
L 42.588 101.231916 
L 42.309 101.231916 
L 42.03 101.231916 
L 41.751 101.231916 
L 41.472 101.231916 
L 41.193 101.231916 
L 40.914 101.231916 
L 40.635 101.231916 
L 40.356 101.231916 
L 40.077 101.231916 
L 39.798 101.231916 
L 39.519 101.231916 
L 39.24 101.231916 
L 38.961 101.231916 
L 38.682 101.231916 
L 38.403 101.231916 
L 38.124 101.231916 
L 37.845 101.231916 
L 37.566 101.231916 
L 37.287 101.231916 
L 37.008 101.231916 
L 36.729 101.231916 
L 36.45 101.231916 
L 36.171 101.231916 
L 35.892 101.231916 
L 35.613 101.231916 
L 35.334 101.231916 
L 35.055 101.231916 
L 34.776 101.231916 
L 34.497 101.231916 
L 34.218 101.231916 
L 33.939 101.231916 
L 33.66 101.231916 
L 33.381 101.231916 
L 33.102 101.231916 
L 32.823 101.231916 
L 32.544 101.231916 
L 32.265 101.231916 
L 31.986 101.231916 
L 31.707 101.231916 
L 31.428 101.231916 
L 31.149 101.231916 
L 30.87 101.231916 
L 30.591 101.231916 
L 30.312 101.231916 
L 30.033 101.231916 
L 29.754 101.231916 
L 29.475 101.231916 
L 29.196 101.231916 
L 28.917 101.231916 
L 28.638 101.231916 
L 28.359 101.231916 
L 28.08 101.231916 
L 27.801 101.231916 
L 27.522 101.231916 
L 27.243 101.231916 
L 26.964 101.231916 
L 26.685 101.231916 
L 26.406 101.231916 
L 26.127 101.231916 
L 25.848 101.231916 
L 25.569 101.231916 
L 25.29 101.231916 
L 25.011 101.231916 
L 24.732 101.231916 
L 24.453 101.231916 
L 24.174 101.231916 
L 23.895 101.231916 
L 23.616 101.231916 
L 23.337 101.231916 
L 23.058 101.231916 
L 22.779 101.231916 
L 22.5 101.231916 
z
" clip-path="url(#pcd538e00c0)" style="fill: #d3436e; fill-opacity: 0.1"/>
   </g>
   <g id="PolyCollection_6">
    <path d="M 22.5 106.336458 
L 22.5 120.319255 
L 22.779 120.319255 
L 23.058 120.319255 
L 23.337 120.319255 
L 23.616 120.319255 
L 23.895 120.319255 
L 24.174 120.319255 
L 24.453 120.319255 
L 24.732 120.319255 
L 25.011 120.319255 
L 25.29 120.319255 
L 25.569 120.319255 
L 25.848 120.319255 
L 26.127 120.319255 
L 26.406 120.319255 
L 26.685 120.319255 
L 26.964 120.319255 
L 27.243 120.319255 
L 27.522 120.319255 
L 27.801 120.319255 
L 28.08 120.319255 
L 28.359 120.319255 
L 28.638 120.319255 
L 28.917 120.319255 
L 29.196 120.319255 
L 29.475 120.319255 
L 29.754 120.319255 
L 30.033 120.319255 
L 30.312 120.319255 
L 30.591 120.319255 
L 30.87 120.319255 
L 31.149 120.319255 
L 31.428 120.319255 
L 31.707 120.319255 
L 31.986 120.319255 
L 32.265 120.319255 
L 32.544 120.319255 
L 32.823 120.319255 
L 33.102 120.319255 
L 33.381 120.319255 
L 33.66 120.319255 
L 33.939 120.319255 
L 34.218 120.319255 
L 34.497 120.319255 
L 34.776 120.319255 
L 35.055 120.319255 
L 35.334 120.319255 
L 35.613 120.319255 
L 35.892 120.319255 
L 36.171 120.319255 
L 36.45 120.319255 
L 36.729 120.319255 
L 37.008 120.319255 
L 37.287 120.319255 
L 37.566 120.319255 
L 37.845 120.319255 
L 38.124 120.319255 
L 38.403 120.319255 
L 38.682 120.319255 
L 38.961 120.319255 
L 39.24 120.319255 
L 39.519 120.319255 
L 39.798 120.319255 
L 40.077 120.319255 
L 40.356 120.319255 
L 40.635 120.319255 
L 40.914 120.319255 
L 41.193 120.319255 
L 41.472 120.319255 
L 41.751 120.319255 
L 42.03 120.319255 
L 42.309 120.319255 
L 42.588 120.319255 
L 42.867 120.319255 
L 43.146 120.319255 
L 43.425 120.319255 
L 43.704 120.319255 
L 43.983 120.319255 
L 44.262 120.319255 
L 44.541 120.319255 
L 44.82 120.319255 
L 45.099 120.319255 
L 45.378 120.319255 
L 45.657 120.319255 
L 45.936 120.319255 
L 46.215 120.319255 
L 46.494 120.319255 
L 46.773 120.319255 
L 47.052 120.319255 
L 47.331 120.319255 
L 47.61 120.319255 
L 47.889 120.319255 
L 48.168 120.319255 
L 48.447 120.319255 
L 48.726 120.319255 
L 49.005 120.319255 
L 49.284 120.319255 
L 49.563 120.319255 
L 49.842 120.319255 
L 50.121 120.319255 
L 50.4 120.319255 
L 50.679 120.319255 
L 50.958 120.319255 
L 51.237 120.319255 
L 51.516 120.319255 
L 51.795 120.319255 
L 52.074 120.319255 
L 52.353 120.319255 
L 52.632 120.319255 
L 52.911 120.319255 
L 53.19 120.319255 
L 53.469 120.319255 
L 53.748 120.319255 
L 54.027 120.319255 
L 54.306 120.319255 
L 54.585 120.319255 
L 54.864 120.319255 
L 55.143 120.319255 
L 55.422 120.319255 
L 55.701 120.319255 
L 55.98 120.319255 
L 56.259 120.319255 
L 56.538 120.319255 
L 56.817 120.319255 
L 57.096 120.319255 
L 57.375 120.319255 
L 57.654 120.319255 
L 57.933 120.319255 
L 58.212 120.319255 
L 58.491 120.319255 
L 58.77 120.319255 
L 59.049 120.319255 
L 59.328 120.319255 
L 59.607 120.319255 
L 59.886 120.319255 
L 60.165 120.319255 
L 60.444 120.319255 
L 60.723 120.319255 
L 61.002 120.319255 
L 61.281 120.319255 
L 61.56 120.319255 
L 61.839 120.319255 
L 62.118 120.319255 
L 62.397 120.319255 
L 62.676 120.319255 
L 62.955 120.319255 
L 63.234 120.319255 
L 63.513 120.319255 
L 63.792 120.319255 
L 64.071 120.319255 
L 64.35 120.319255 
L 64.629 120.319255 
L 64.908 120.319255 
L 65.187 120.319255 
L 65.466 120.319255 
L 65.745 120.319255 
L 66.024 120.319255 
L 66.303 120.319255 
L 66.582 120.319255 
L 66.861 120.319255 
L 67.14 120.319255 
L 67.419 120.319255 
L 67.698 120.319255 
L 67.977 120.319255 
L 68.256 120.319255 
L 68.535 120.319255 
L 68.814 120.319255 
L 69.093 120.319255 
L 69.372 120.319255 
L 69.651 120.319255 
L 69.93 120.319255 
L 70.209 120.319255 
L 70.488 120.319255 
L 70.767 120.319255 
L 71.046 120.319255 
L 71.325 120.319255 
L 71.604 120.319255 
L 71.883 120.319255 
L 72.162 120.319255 
L 72.441 120.319255 
L 72.72 120.319255 
L 72.999 120.319255 
L 73.278 120.319255 
L 73.557 120.319255 
L 73.836 120.319255 
L 74.115 120.319255 
L 74.394 120.319255 
L 74.673 120.319255 
L 74.952 120.319255 
L 75.231 120.319255 
L 75.51 120.319255 
L 75.789 120.319255 
L 76.068 120.319255 
L 76.347 120.319255 
L 76.626 120.319255 
L 76.905 120.319255 
L 77.184 120.319255 
L 77.463 120.319255 
L 77.742 120.319255 
L 78.021 120.319255 
L 78.3 120.319255 
L 78.579 120.319255 
L 78.858 120.319255 
L 79.137 120.319255 
L 79.416 120.319255 
L 79.695 120.319255 
L 79.974 120.319255 
L 80.253 120.319255 
L 80.532 120.319255 
L 80.811 120.319255 
L 81.09 120.319255 
L 81.369 120.319255 
L 81.648 120.319255 
L 81.927 120.319255 
L 82.206 120.319255 
L 82.485 120.319255 
L 82.764 120.319255 
L 83.043 120.319255 
L 83.322 120.319255 
L 83.601 120.319255 
L 83.88 120.319255 
L 84.159 120.319255 
L 84.438 120.319255 
L 84.717 120.319255 
L 84.996 120.319255 
L 85.275 120.319255 
L 85.554 120.319255 
L 85.833 120.319255 
L 86.112 120.319255 
L 86.391 120.319255 
L 86.67 120.319255 
L 86.949 120.319255 
L 87.228 120.319255 
L 87.507 120.319255 
L 87.786 120.319255 
L 88.065 120.319255 
L 88.344 120.319255 
L 88.623 120.319255 
L 88.902 120.319255 
L 89.181 120.319255 
L 89.46 120.319255 
L 89.739 120.319255 
L 90.018 120.319255 
L 90.297 120.319255 
L 90.576 120.319255 
L 90.855 120.319255 
L 91.134 120.319255 
L 91.413 120.319255 
L 91.692 120.319255 
L 91.971 120.319255 
L 92.25 120.319255 
L 92.529 120.319255 
L 92.808 120.319255 
L 93.087 120.319255 
L 93.366 120.319255 
L 93.645 120.319255 
L 93.924 120.319255 
L 94.203 120.319255 
L 94.482 120.319255 
L 94.761 120.319255 
L 95.04 120.319255 
L 95.319 120.319255 
L 95.598 120.319255 
L 95.877 120.319255 
L 96.156 120.319255 
L 96.435 120.319255 
L 96.714 120.319255 
L 96.993 120.319255 
L 97.272 120.319255 
L 97.551 120.319255 
L 97.83 120.319255 
L 98.109 120.319255 
L 98.388 120.319255 
L 98.667 120.319255 
L 98.946 120.319255 
L 99.225 120.319255 
L 99.504 120.319255 
L 99.783 120.319255 
L 100.062 120.319255 
L 100.341 120.319255 
L 100.62 120.319255 
L 100.899 120.319255 
L 101.178 120.319255 
L 101.457 120.319255 
L 101.736 120.319255 
L 102.015 120.319255 
L 102.294 120.319255 
L 102.573 120.319255 
L 102.852 120.319255 
L 103.131 120.319255 
L 103.41 120.319255 
L 103.689 120.319255 
L 103.968 120.319255 
L 104.247 120.319255 
L 104.526 120.319255 
L 104.805 120.319255 
L 105.084 120.319255 
L 105.363 120.319255 
L 105.642 120.319255 
L 105.921 120.319255 
L 106.2 120.319255 
L 106.479 120.319255 
L 106.758 120.319255 
L 107.037 120.319255 
L 107.316 120.319255 
L 107.595 120.319255 
L 107.874 120.319255 
L 108.153 120.319255 
L 108.432 120.319255 
L 108.711 120.319255 
L 108.99 120.319255 
L 109.269 120.319255 
L 109.548 120.319255 
L 109.827 120.319255 
L 110.106 120.319255 
L 110.385 120.319255 
L 110.664 120.319255 
L 110.943 120.319255 
L 111.222 120.319255 
L 111.501 120.319255 
L 111.78 120.319255 
L 112.059 120.319255 
L 112.338 120.319255 
L 112.617 120.319255 
L 112.896 120.319255 
L 113.175 120.319255 
L 113.454 120.319255 
L 113.733 120.319255 
L 114.012 120.319255 
L 114.291 120.319255 
L 114.57 120.319255 
L 114.849 120.319255 
L 115.128 120.319255 
L 115.407 120.319255 
L 115.686 120.319255 
L 115.965 120.319255 
L 116.244 120.319255 
L 116.523 120.319255 
L 116.802 120.319255 
L 117.081 120.319255 
L 117.36 120.319255 
L 117.639 120.319255 
L 117.918 120.319255 
L 118.197 120.319255 
L 118.476 120.319255 
L 118.755 120.319255 
L 119.034 120.319255 
L 119.313 120.319255 
L 119.592 120.319255 
L 119.871 120.319255 
L 120.15 120.319255 
L 120.429 120.319255 
L 120.708 120.319255 
L 120.987 120.319255 
L 121.266 120.319255 
L 121.545 120.319255 
L 121.824 120.319255 
L 122.103 120.319255 
L 122.382 120.319255 
L 122.661 120.319255 
L 122.94 120.319255 
L 123.219 120.319255 
L 123.498 120.319255 
L 123.777 120.319255 
L 124.056 120.319255 
L 124.335 120.319255 
L 124.614 120.319255 
L 124.893 120.319255 
L 125.172 120.319255 
L 125.451 120.319255 
L 125.73 120.319255 
L 126.009 120.319255 
L 126.288 120.319255 
L 126.567 120.319255 
L 126.846 120.319255 
L 127.125 120.319255 
L 127.404 120.319255 
L 127.683 120.319255 
L 127.962 120.319255 
L 128.241 120.319255 
L 128.52 120.319255 
L 128.799 120.319255 
L 129.078 120.319255 
L 129.357 120.319255 
L 129.636 120.319255 
L 129.915 120.319255 
L 130.194 120.319255 
L 130.473 120.319255 
L 130.752 120.319255 
L 131.031 120.319255 
L 131.31 120.319255 
L 131.589 120.319255 
L 131.868 120.319255 
L 132.147 120.319255 
L 132.426 120.319255 
L 132.705 120.319255 
L 132.984 120.319255 
L 133.263 120.319255 
L 133.542 120.319255 
L 133.821 120.319255 
L 134.1 120.319255 
L 134.379 120.319255 
L 134.658 120.319255 
L 134.937 120.319255 
L 135.216 120.319255 
L 135.495 120.319255 
L 135.774 120.319255 
L 136.053 120.319255 
L 136.332 120.319255 
L 136.611 120.319255 
L 136.89 120.319255 
L 137.169 120.319255 
L 137.448 120.319255 
L 137.727 120.319255 
L 138.006 120.319255 
L 138.285 120.319255 
L 138.564 120.319255 
L 138.843 120.319255 
L 139.122 120.319255 
L 139.401 120.319255 
L 139.68 120.319255 
L 139.959 120.319255 
L 140.238 120.319255 
L 140.517 120.319255 
L 140.796 120.319255 
L 141.075 120.319255 
L 141.354 120.319255 
L 141.633 120.319255 
L 141.912 120.319255 
L 142.191 120.319255 
L 142.47 120.319255 
L 142.749 120.319255 
L 143.028 120.319255 
L 143.307 120.319255 
L 143.586 120.319255 
L 143.865 120.319255 
L 144.144 120.319255 
L 144.423 120.319255 
L 144.702 120.319255 
L 144.981 120.319255 
L 145.26 120.319255 
L 145.539 120.319255 
L 145.818 120.319255 
L 146.097 120.319255 
L 146.376 120.319255 
L 146.655 120.319255 
L 146.934 120.319255 
L 147.213 120.319255 
L 147.492 120.319255 
L 147.771 120.319255 
L 148.05 120.319255 
L 148.329 120.319255 
L 148.608 120.319255 
L 148.887 120.319255 
L 149.166 120.319255 
L 149.445 120.319255 
L 149.724 120.319255 
L 150.003 120.319255 
L 150.282 120.319255 
L 150.561 120.319255 
L 150.84 120.319255 
L 151.119 120.319255 
L 151.398 120.319255 
L 151.677 120.319255 
L 151.956 120.319255 
L 152.235 120.319255 
L 152.514 120.319255 
L 152.793 120.319255 
L 153.072 120.319255 
L 153.351 120.319255 
L 153.63 120.319255 
L 153.909 120.319255 
L 154.188 120.319255 
L 154.467 120.319255 
L 154.746 120.319255 
L 155.025 120.319255 
L 155.304 120.319255 
L 155.583 120.319255 
L 155.862 120.319255 
L 156.141 120.319255 
L 156.42 120.319255 
L 156.699 120.319255 
L 156.978 120.319255 
L 157.257 120.319255 
L 157.536 120.319255 
L 157.815 120.319255 
L 158.094 120.319255 
L 158.373 120.319255 
L 158.652 120.319255 
L 158.931 120.319255 
L 159.21 120.319255 
L 159.489 120.319255 
L 159.768 120.319255 
L 160.047 120.319255 
L 160.326 120.319255 
L 160.605 120.319255 
L 160.884 120.319255 
L 161.163 120.319255 
L 161.442 120.319255 
L 161.721 120.319255 
L 161.721 106.336458 
L 161.721 106.336458 
L 161.442 106.336458 
L 161.163 106.336458 
L 160.884 106.336458 
L 160.605 106.336458 
L 160.326 106.336458 
L 160.047 106.336458 
L 159.768 106.336458 
L 159.489 106.336458 
L 159.21 106.336458 
L 158.931 106.336458 
L 158.652 106.336458 
L 158.373 106.336458 
L 158.094 106.336458 
L 157.815 106.336458 
L 157.536 106.336458 
L 157.257 106.336458 
L 156.978 106.336458 
L 156.699 106.336458 
L 156.42 106.336458 
L 156.141 106.336458 
L 155.862 106.336458 
L 155.583 106.336458 
L 155.304 106.336458 
L 155.025 106.336458 
L 154.746 106.336458 
L 154.467 106.336458 
L 154.188 106.336458 
L 153.909 106.336458 
L 153.63 106.336458 
L 153.351 106.336458 
L 153.072 106.336458 
L 152.793 106.336458 
L 152.514 106.336458 
L 152.235 106.336458 
L 151.956 106.336458 
L 151.677 106.336458 
L 151.398 106.336458 
L 151.119 106.336458 
L 150.84 106.336458 
L 150.561 106.336458 
L 150.282 106.336458 
L 150.003 106.336458 
L 149.724 106.336458 
L 149.445 106.336458 
L 149.166 106.336458 
L 148.887 106.336458 
L 148.608 106.336458 
L 148.329 106.336458 
L 148.05 106.336458 
L 147.771 106.336458 
L 147.492 106.336458 
L 147.213 106.336458 
L 146.934 106.336458 
L 146.655 106.336458 
L 146.376 106.336458 
L 146.097 106.336458 
L 145.818 106.336458 
L 145.539 106.336458 
L 145.26 106.336458 
L 144.981 106.336458 
L 144.702 106.336458 
L 144.423 106.336458 
L 144.144 106.336458 
L 143.865 106.336458 
L 143.586 106.336458 
L 143.307 106.336458 
L 143.028 106.336458 
L 142.749 106.336458 
L 142.47 106.336458 
L 142.191 106.336458 
L 141.912 106.336458 
L 141.633 106.336458 
L 141.354 106.336458 
L 141.075 106.336458 
L 140.796 106.336458 
L 140.517 106.336458 
L 140.238 106.336458 
L 139.959 106.336458 
L 139.68 106.336458 
L 139.401 106.336458 
L 139.122 106.336458 
L 138.843 106.336458 
L 138.564 106.336458 
L 138.285 106.336458 
L 138.006 106.336458 
L 137.727 106.336458 
L 137.448 106.336458 
L 137.169 106.336458 
L 136.89 106.336458 
L 136.611 106.336458 
L 136.332 106.336458 
L 136.053 106.336458 
L 135.774 106.336458 
L 135.495 106.336458 
L 135.216 106.336458 
L 134.937 106.336458 
L 134.658 106.336458 
L 134.379 106.336458 
L 134.1 106.336458 
L 133.821 106.336458 
L 133.542 106.336458 
L 133.263 106.336458 
L 132.984 106.336458 
L 132.705 106.336458 
L 132.426 106.336458 
L 132.147 106.336458 
L 131.868 106.336458 
L 131.589 106.336458 
L 131.31 106.336458 
L 131.031 106.336458 
L 130.752 106.336458 
L 130.473 106.336458 
L 130.194 106.336458 
L 129.915 106.336458 
L 129.636 106.336458 
L 129.357 106.336458 
L 129.078 106.336458 
L 128.799 106.336458 
L 128.52 106.336458 
L 128.241 106.336458 
L 127.962 106.336458 
L 127.683 106.336458 
L 127.404 106.336458 
L 127.125 106.336458 
L 126.846 106.336458 
L 126.567 106.336458 
L 126.288 106.336458 
L 126.009 106.336458 
L 125.73 106.336458 
L 125.451 106.336458 
L 125.172 106.336458 
L 124.893 106.336458 
L 124.614 106.336458 
L 124.335 106.336458 
L 124.056 106.336458 
L 123.777 106.336458 
L 123.498 106.336458 
L 123.219 106.336458 
L 122.94 106.336458 
L 122.661 106.336458 
L 122.382 106.336458 
L 122.103 106.336458 
L 121.824 106.336458 
L 121.545 106.336458 
L 121.266 106.336458 
L 120.987 106.336458 
L 120.708 106.336458 
L 120.429 106.336458 
L 120.15 106.336458 
L 119.871 106.336458 
L 119.592 106.336458 
L 119.313 106.336458 
L 119.034 106.336458 
L 118.755 106.336458 
L 118.476 106.336458 
L 118.197 106.336458 
L 117.918 106.336458 
L 117.639 106.336458 
L 117.36 106.336458 
L 117.081 106.336458 
L 116.802 106.336458 
L 116.523 106.336458 
L 116.244 106.336458 
L 115.965 106.336458 
L 115.686 106.336458 
L 115.407 106.336458 
L 115.128 106.336458 
L 114.849 106.336458 
L 114.57 106.336458 
L 114.291 106.336458 
L 114.012 106.336458 
L 113.733 106.336458 
L 113.454 106.336458 
L 113.175 106.336458 
L 112.896 106.336458 
L 112.617 106.336458 
L 112.338 106.336458 
L 112.059 106.336458 
L 111.78 106.336458 
L 111.501 106.336458 
L 111.222 106.336458 
L 110.943 106.336458 
L 110.664 106.336458 
L 110.385 106.336458 
L 110.106 106.336458 
L 109.827 106.336458 
L 109.548 106.336458 
L 109.269 106.336458 
L 108.99 106.336458 
L 108.711 106.336458 
L 108.432 106.336458 
L 108.153 106.336458 
L 107.874 106.336458 
L 107.595 106.336458 
L 107.316 106.336458 
L 107.037 106.336458 
L 106.758 106.336458 
L 106.479 106.336458 
L 106.2 106.336458 
L 105.921 106.336458 
L 105.642 106.336458 
L 105.363 106.336458 
L 105.084 106.336458 
L 104.805 106.336458 
L 104.526 106.336458 
L 104.247 106.336458 
L 103.968 106.336458 
L 103.689 106.336458 
L 103.41 106.336458 
L 103.131 106.336458 
L 102.852 106.336458 
L 102.573 106.336458 
L 102.294 106.336458 
L 102.015 106.336458 
L 101.736 106.336458 
L 101.457 106.336458 
L 101.178 106.336458 
L 100.899 106.336458 
L 100.62 106.336458 
L 100.341 106.336458 
L 100.062 106.336458 
L 99.783 106.336458 
L 99.504 106.336458 
L 99.225 106.336458 
L 98.946 106.336458 
L 98.667 106.336458 
L 98.388 106.336458 
L 98.109 106.336458 
L 97.83 106.336458 
L 97.551 106.336458 
L 97.272 106.336458 
L 96.993 106.336458 
L 96.714 106.336458 
L 96.435 106.336458 
L 96.156 106.336458 
L 95.877 106.336458 
L 95.598 106.336458 
L 95.319 106.336458 
L 95.04 106.336458 
L 94.761 106.336458 
L 94.482 106.336458 
L 94.203 106.336458 
L 93.924 106.336458 
L 93.645 106.336458 
L 93.366 106.336458 
L 93.087 106.336458 
L 92.808 106.336458 
L 92.529 106.336458 
L 92.25 106.336458 
L 91.971 106.336458 
L 91.692 106.336458 
L 91.413 106.336458 
L 91.134 106.336458 
L 90.855 106.336458 
L 90.576 106.336458 
L 90.297 106.336458 
L 90.018 106.336458 
L 89.739 106.336458 
L 89.46 106.336458 
L 89.181 106.336458 
L 88.902 106.336458 
L 88.623 106.336458 
L 88.344 106.336458 
L 88.065 106.336458 
L 87.786 106.336458 
L 87.507 106.336458 
L 87.228 106.336458 
L 86.949 106.336458 
L 86.67 106.336458 
L 86.391 106.336458 
L 86.112 106.336458 
L 85.833 106.336458 
L 85.554 106.336458 
L 85.275 106.336458 
L 84.996 106.336458 
L 84.717 106.336458 
L 84.438 106.336458 
L 84.159 106.336458 
L 83.88 106.336458 
L 83.601 106.336458 
L 83.322 106.336458 
L 83.043 106.336458 
L 82.764 106.336458 
L 82.485 106.336458 
L 82.206 106.336458 
L 81.927 106.336458 
L 81.648 106.336458 
L 81.369 106.336458 
L 81.09 106.336458 
L 80.811 106.336458 
L 80.532 106.336458 
L 80.253 106.336458 
L 79.974 106.336458 
L 79.695 106.336458 
L 79.416 106.336458 
L 79.137 106.336458 
L 78.858 106.336458 
L 78.579 106.336458 
L 78.3 106.336458 
L 78.021 106.336458 
L 77.742 106.336458 
L 77.463 106.336458 
L 77.184 106.336458 
L 76.905 106.336458 
L 76.626 106.336458 
L 76.347 106.336458 
L 76.068 106.336458 
L 75.789 106.336458 
L 75.51 106.336458 
L 75.231 106.336458 
L 74.952 106.336458 
L 74.673 106.336458 
L 74.394 106.336458 
L 74.115 106.336458 
L 73.836 106.336458 
L 73.557 106.336458 
L 73.278 106.336458 
L 72.999 106.336458 
L 72.72 106.336458 
L 72.441 106.336458 
L 72.162 106.336458 
L 71.883 106.336458 
L 71.604 106.336458 
L 71.325 106.336458 
L 71.046 106.336458 
L 70.767 106.336458 
L 70.488 106.336458 
L 70.209 106.336458 
L 69.93 106.336458 
L 69.651 106.336458 
L 69.372 106.336458 
L 69.093 106.336458 
L 68.814 106.336458 
L 68.535 106.336458 
L 68.256 106.336458 
L 67.977 106.336458 
L 67.698 106.336458 
L 67.419 106.336458 
L 67.14 106.336458 
L 66.861 106.336458 
L 66.582 106.336458 
L 66.303 106.336458 
L 66.024 106.336458 
L 65.745 106.336458 
L 65.466 106.336458 
L 65.187 106.336458 
L 64.908 106.336458 
L 64.629 106.336458 
L 64.35 106.336458 
L 64.071 106.336458 
L 63.792 106.336458 
L 63.513 106.336458 
L 63.234 106.336458 
L 62.955 106.336458 
L 62.676 106.336458 
L 62.397 106.336458 
L 62.118 106.336458 
L 61.839 106.336458 
L 61.56 106.336458 
L 61.281 106.336458 
L 61.002 106.336458 
L 60.723 106.336458 
L 60.444 106.336458 
L 60.165 106.336458 
L 59.886 106.336458 
L 59.607 106.336458 
L 59.328 106.336458 
L 59.049 106.336458 
L 58.77 106.336458 
L 58.491 106.336458 
L 58.212 106.336458 
L 57.933 106.336458 
L 57.654 106.336458 
L 57.375 106.336458 
L 57.096 106.336458 
L 56.817 106.336458 
L 56.538 106.336458 
L 56.259 106.336458 
L 55.98 106.336458 
L 55.701 106.336458 
L 55.422 106.336458 
L 55.143 106.336458 
L 54.864 106.336458 
L 54.585 106.336458 
L 54.306 106.336458 
L 54.027 106.336458 
L 53.748 106.336458 
L 53.469 106.336458 
L 53.19 106.336458 
L 52.911 106.336458 
L 52.632 106.336458 
L 52.353 106.336458 
L 52.074 106.336458 
L 51.795 106.336458 
L 51.516 106.336458 
L 51.237 106.336458 
L 50.958 106.336458 
L 50.679 106.336458 
L 50.4 106.336458 
L 50.121 106.336458 
L 49.842 106.336458 
L 49.563 106.336458 
L 49.284 106.336458 
L 49.005 106.336458 
L 48.726 106.336458 
L 48.447 106.336458 
L 48.168 106.336458 
L 47.889 106.336458 
L 47.61 106.336458 
L 47.331 106.336458 
L 47.052 106.336458 
L 46.773 106.336458 
L 46.494 106.336458 
L 46.215 106.336458 
L 45.936 106.336458 
L 45.657 106.336458 
L 45.378 106.336458 
L 45.099 106.336458 
L 44.82 106.336458 
L 44.541 106.336458 
L 44.262 106.336458 
L 43.983 106.336458 
L 43.704 106.336458 
L 43.425 106.336458 
L 43.146 106.336458 
L 42.867 106.336458 
L 42.588 106.336458 
L 42.309 106.336458 
L 42.03 106.336458 
L 41.751 106.336458 
L 41.472 106.336458 
L 41.193 106.336458 
L 40.914 106.336458 
L 40.635 106.336458 
L 40.356 106.336458 
L 40.077 106.336458 
L 39.798 106.336458 
L 39.519 106.336458 
L 39.24 106.336458 
L 38.961 106.336458 
L 38.682 106.336458 
L 38.403 106.336458 
L 38.124 106.336458 
L 37.845 106.336458 
L 37.566 106.336458 
L 37.287 106.336458 
L 37.008 106.336458 
L 36.729 106.336458 
L 36.45 106.336458 
L 36.171 106.336458 
L 35.892 106.336458 
L 35.613 106.336458 
L 35.334 106.336458 
L 35.055 106.336458 
L 34.776 106.336458 
L 34.497 106.336458 
L 34.218 106.336458 
L 33.939 106.336458 
L 33.66 106.336458 
L 33.381 106.336458 
L 33.102 106.336458 
L 32.823 106.336458 
L 32.544 106.336458 
L 32.265 106.336458 
L 31.986 106.336458 
L 31.707 106.336458 
L 31.428 106.336458 
L 31.149 106.336458 
L 30.87 106.336458 
L 30.591 106.336458 
L 30.312 106.336458 
L 30.033 106.336458 
L 29.754 106.336458 
L 29.475 106.336458 
L 29.196 106.336458 
L 28.917 106.336458 
L 28.638 106.336458 
L 28.359 106.336458 
L 28.08 106.336458 
L 27.801 106.336458 
L 27.522 106.336458 
L 27.243 106.336458 
L 26.964 106.336458 
L 26.685 106.336458 
L 26.406 106.336458 
L 26.127 106.336458 
L 25.848 106.336458 
L 25.569 106.336458 
L 25.29 106.336458 
L 25.011 106.336458 
L 24.732 106.336458 
L 24.453 106.336458 
L 24.174 106.336458 
L 23.895 106.336458 
L 23.616 106.336458 
L 23.337 106.336458 
L 23.058 106.336458 
L 22.779 106.336458 
L 22.5 106.336458 
z
" clip-path="url(#pcd538e00c0)" style="fill: #5f187f; fill-opacity: 0.1"/>
   </g>
   <g id="matplotlib.axis_1">
    <g id="xtick_1">
     <g id="line2d_1">
      <defs>
       <path id="mbb7df72a42" d="M 0 0 
L 0 3.5 
" style="stroke: #000000; stroke-width: 0.8"/>
      </defs>
      <g>
       <use xlink:href="#mbb7df72a42" x="50.4" y="160.2" style="stroke: #000000; stroke-width: 0.8"/>
      </g>
     </g>
     <g id="text_1">
      <text style="font: italic 12px 'inter', sans-serif" transform="translate(9.919905 212.12161) rotate(-45)">Trhn&gt;Chr</text>
     </g>
    </g>
    <g id="xtick_2">
     <g id="line2d_2">
      <g>
       <use xlink:href="#mbb7df72a42" x="78.3" y="160.2" style="stroke: #000000; stroke-width: 0.8"/>
      </g>
     </g>
     <g id="text_2">
      <text style="font: italic 12px 'inter', sans-serif" transform="translate(31.265025 218.67649) rotate(-45)">Trhn&gt;ACR1</text>
     </g>
    </g>
    <g id="xtick_3">
     <g id="line2d_3">
      <g>
       <use xlink:href="#mbb7df72a42" x="106.2" y="160.2" style="stroke: #000000; stroke-width: 0.8"/>
      </g>
     </g>
     <g id="text_3">
      <text style="font: italic 12px 'inter', sans-serif" transform="translate(51.684719 226.156796) rotate(-45)">R50H05&gt;Chr</text>
     </g>
    </g>
    <g id="xtick_4">
     <g id="line2d_4">
      <g>
       <use xlink:href="#mbb7df72a42" x="134.1" y="160.2" style="stroke: #000000; stroke-width: 0.8"/>
      </g>
     </g>
     <g id="text_4">
      <text style="font: italic 12px 'inter', sans-serif" transform="translate(73.029839 232.711676) rotate(-45)">R50H05&gt;ACR1</text>
     </g>
    </g>
   </g>
   <g id="matplotlib.axis_2">
    <g id="ytick_1">
     <g id="line2d_5">
      <defs>
       <path id="m014f67e1ef" d="M 0 0 
L -3.5 0 
" style="stroke: #000000; stroke-width: 0.8"/>
      </defs>
      <g>
       <use xlink:href="#m014f67e1ef" x="22.5" y="132.845996" style="stroke: #000000; stroke-width: 0.8"/>
      </g>
     </g>
     <g id="text_5">
      <text style="font: 10px 'inter', sans-serif; text-anchor: end" x="15.5" y="136.483496" transform="rotate(-0 15.5 136.483496)">0.5</text>
     </g>
    </g>
    <g id="ytick_2">
     <g id="line2d_6">
      <g>
       <use xlink:href="#m014f67e1ef" x="22.5" y="96.126954" style="stroke: #000000; stroke-width: 0.8"/>
      </g>
     </g>
     <g id="text_6">
      <text style="font: 10px 'inter', sans-serif; text-anchor: end" x="15.5" y="99.764454" transform="rotate(-0 15.5 99.764454)">0.0</text>
     </g>
    </g>
    <g id="ytick_3">
     <g id="line2d_7">
      <g>
       <use xlink:href="#m014f67e1ef" x="22.5" y="59.407913" style="stroke: #000000; stroke-width: 0.8"/>
      </g>
     </g>
     <g id="text_7">
      <text style="font: 10px 'inter', sans-serif; text-anchor: end" x="15.5" y="63.045413" transform="rotate(-0 15.5 63.045413)">0.5</text>
     </g>
    </g>
    <g id="ytick_4">
     <g id="line2d_8">
      <g>
       <use xlink:href="#m014f67e1ef" x="22.5" y="22.688872" style="stroke: #000000; stroke-width: 0.8"/>
      </g>
     </g>
     <g id="text_8">
      <text style="font: 10px 'inter', sans-serif; text-anchor: end" x="15.5" y="26.326372" transform="rotate(-0 15.5 26.326372)">1.0</text>
     </g>
    </g>
    <g id="text_9">
     <text style="font: 15px 'inter', sans-serif; text-anchor: middle" x="-13.446875" y="90.9" transform="rotate(-90 -13.446875 90.9)"> Perifeed Speed Ratio</text>
    </g>
   </g>
   <g id="line2d_9">
    <path d="M 22.5 96.126954 
L 162 96.126954 
" clip-path="url(#pcd538e00c0)" style="fill: none; stroke: #000000; stroke-linecap: square"/>
   </g>
   <g id="line2d_10">
    <defs>
     <path id="m9e1734cfb2" d="M 0 2.5 
C 0.663008 2.5 1.29895 2.236584 1.767767 1.767767 
C 2.236584 1.29895 2.5 0.663008 2.5 0 
C 2.5 -0.663008 2.236584 -1.29895 1.767767 -1.767767 
C 1.29895 -2.236584 0.663008 -2.5 0 -2.5 
C -0.663008 -2.5 -1.29895 -2.236584 -1.767767 -1.767767 
C -2.236584 -1.29895 -2.5 -0.663008 -2.5 0 
C -2.5 0.663008 -2.236584 1.29895 -1.767767 1.767767 
C -1.29895 2.236584 -0.663008 2.5 0 2.5 
z
" style="stroke: #000000"/>
    </defs>
    <g clip-path="url(#pcd538e00c0)">
     <use xlink:href="#m9e1734cfb2" x="50.4" y="65.715335" style="stroke: #000000"/>
    </g>
   </g>
   <g id="line2d_11">
    <path d="M 50.4 82.660338 
L 50.4 46.606839 
" clip-path="url(#pcd538e00c0)" style="fill: none; stroke: #000000; stroke-width: 2.5; stroke-linecap: square"/>
   </g>
   <g id="line2d_12">
    <g clip-path="url(#pcd538e00c0)">
     <use xlink:href="#m9e1734cfb2" x="78.3" y="106.662346" style="stroke: #000000"/>
    </g>
   </g>
   <g id="line2d_13">
    <path d="M 78.3 121.904075 
L 78.3 91.728285 
" clip-path="url(#pcd538e00c0)" style="fill: none; stroke: #000000; stroke-width: 2.5; stroke-linecap: square"/>
   </g>
   <g id="line2d_14">
    <g clip-path="url(#pcd538e00c0)">
     <use xlink:href="#m9e1734cfb2" x="106.2" y="101.794102" style="stroke: #000000"/>
    </g>
   </g>
   <g id="line2d_15">
    <path d="M 106.2 129.699513 
L 106.2 78.358903 
" clip-path="url(#pcd538e00c0)" style="fill: none; stroke: #000000; stroke-width: 2.5; stroke-linecap: square"/>
   </g>
   <g id="line2d_16">
    <g clip-path="url(#pcd538e00c0)">
     <use xlink:href="#m9e1734cfb2" x="134.1" y="105.668614" style="stroke: #000000"/>
    </g>
   </g>
   <g id="line2d_17">
    <path d="M 134.1 124.534487 
L 134.1 88.829696 
" clip-path="url(#pcd538e00c0)" style="fill: none; stroke: #000000; stroke-width: 2.5; stroke-linecap: square"/>
   </g>
   <g id="patch_3">
    <path d="M 22.5 160.2 
L 22.5 21.6 
" style="fill: none; stroke: #000000; stroke-width: 0.8; stroke-linejoin: miter; stroke-linecap: square"/>
   </g>
   <g id="patch_4">
    <path d="M 162 160.2 
L 162 21.6 
" style="fill: none"/>
   </g>
   <g id="patch_5">
    <path d="M 22.5 160.2 
L 162 160.2 
" style="fill: none"/>
   </g>
   <g id="patch_6">
    <path d="M 22.5 21.6 
L 162 21.6 
" style="fill: none"/>
   </g>
   <g id="text_10">
    <text style="fill: #d3436e; font: 10px 'inter', sans-serif; text-anchor: start" x="162" y="101.231916" transform="rotate(-0 162 101.231916)">24 h</text>
   </g>
   <g id="text_11">
    <text style="fill: #5f187f; font: 10px 'inter', sans-serif; text-anchor: start" x="162" y="106.336458" transform="rotate(-0 162 106.336458)">48 h</text>
   </g>
   <g id="text_12">
    <text style="font: 500 15px 'inter', sans-serif; text-anchor: middle" x="92.25" y="15.6" transform="rotate(-0 92.25 15.6)">Perifeed Speed Ratio</text>
   </g>
  </g>
 </g>
 <defs>
  <clipPath id="pcd538e00c0">
   <rect x="22.5" y="21.6" width="139.5" height="138.6"/>
  </clipPath>
 </defs>
</svg>
