<?xml version="1.0" encoding="utf-8" standalone="no"?>
<!DOCTYPE svg PUBLIC "-//W3C//DTD SVG 1.1//EN"
  "http://www.w3.org/Graphics/SVG/1.1/DTD/svg11.dtd">
<svg xmlns:xlink="http://www.w3.org/1999/xlink" width="180pt" height="180pt" viewBox="0 0 180 180" xmlns="http://www.w3.org/2000/svg" version="1.1">
 <metadata>
  <rdf:RDF xmlns:dc="http://purl.org/dc/elements/1.1/" xmlns:cc="http://creativecommons.org/ns#" xmlns:rdf="http://www.w3.org/1999/02/22-rdf-syntax-ns#">
   <cc:Work>
    <dc:type rdf:resource="http://purl.org/dc/dcmitype/StillImage"/>
    <dc:date>2025-02-16T01:32:34.877672</dc:date>
    <dc:format>image/svg+xml</dc:format>
    <dc:creator>
     <cc:Agent>
      <dc:title>Matplotlib v3.6.3, https://matplotlib.org/</dc:title>
     </cc:Agent>
    </dc:creator>
   </cc:Work>
  </rdf:RDF>
 </metadata>
 <defs>
  <style type="text/css">*{stroke-linejoin: round; stroke-linecap: butt}</style>
 </defs>
 <g id="figure_1">
  <g id="patch_1">
   <path d="M 0 180 
L 180 180 
L 180 0 
L 0 0 
z
" style="fill: #ffffff"/>
  </g>
  <g id="axes_1">
   <g id="patch_2">
    <path d="M 22.5 160.2 
L 162 160.2 
L 162 21.6 
L 22.5 21.6 
z
" style="fill: #ffffff"/>
   </g>
   <g id="PolyCollection_1">
    <defs>
     <path id="m5765bcd47c" d="M 50.413249 -81.087659 
L 50.400271 -81.087659 
L 50.400271 -81.577488 
L 50.400271 -82.067318 
L 50.400271 -82.557148 
L 50.400271 -83.046977 
L 50.400271 -83.536807 
L 50.400271 -84.026637 
L 50.400271 -84.516466 
L 50.400271 -85.006296 
L 50.400271 -85.496126 
L 50.400271 -85.985955 
L 50.400271 -86.475785 
L 50.400271 -86.965615 
L 50.400271 -87.455444 
L 50.400271 -87.945274 
L 50.400271 -88.435104 
L 50.400271 -88.924933 
L 50.400271 -89.414763 
L 50.400271 -89.904593 
L 50.400271 -90.394422 
L 50.400271 -90.884252 
L 50.400271 -91.374082 
L 50.400271 -91.863911 
L 50.400271 -92.353741 
L 50.400271 -92.843571 
L 50.400271 -93.3334 
L 50.400271 -93.82323 
L 50.400271 -94.31306 
L 50.400271 -94.802889 
L 50.400271 -95.292719 
L 50.400271 -95.782549 
L 50.400271 -96.272378 
L 50.400271 -96.762208 
L 50.400271 -97.252038 
L 50.400271 -97.741867 
L 50.400271 -98.231697 
L 50.400271 -98.721527 
L 50.400271 -99.211356 
L 50.400271 -99.701186 
L 50.400271 -100.191016 
L 50.400271 -100.680845 
L 50.400271 -101.170675 
L 50.400271 -101.660505 
L 50.400271 -102.150334 
L 50.400271 -102.640164 
L 50.400271 -103.129994 
L 50.400271 -103.619823 
L 50.400271 -104.109653 
L 50.400271 -104.599483 
L 50.400271 -105.089312 
L 50.400271 -105.579142 
L 50.400271 -106.068972 
L 50.400271 -106.558801 
L 50.400271 -107.048631 
L 50.400271 -107.538461 
L 50.400271 -108.02829 
L 50.400271 -108.51812 
L 50.400271 -109.00795 
L 50.400271 -109.497779 
L 50.400271 -109.987609 
L 50.400271 -110.477439 
L 50.400271 -110.967268 
L 50.400271 -111.457098 
L 50.400271 -111.946927 
L 50.400271 -112.436757 
L 50.400271 -112.926587 
L 50.400271 -113.416416 
L 50.400271 -113.906246 
L 50.400271 -114.396076 
L 50.400271 -114.885905 
L 50.400271 -115.375735 
L 50.400271 -115.865565 
L 50.400271 -116.355394 
L 50.400271 -116.845224 
L 50.400271 -117.335054 
L 50.400271 -117.824883 
L 50.400271 -118.314713 
L 50.400271 -118.804543 
L 50.400271 -119.294372 
L 50.400271 -119.784202 
L 50.400271 -120.274032 
L 50.400271 -120.763861 
L 50.400271 -121.253691 
L 50.400271 -121.743521 
L 50.400271 -122.23335 
L 50.400271 -122.72318 
L 50.400271 -123.21301 
L 50.400271 -123.702839 
L 50.400271 -124.192669 
L 50.400271 -124.682499 
L 50.400271 -125.172328 
L 50.400271 -125.662158 
L 50.400271 -126.151988 
L 50.400271 -126.641817 
L 50.400271 -127.131647 
L 50.400271 -127.621477 
L 50.400271 -128.111306 
L 50.400271 -128.601136 
L 50.400271 -129.090966 
L 50.400271 -129.580795 
L 50.428426 -129.580795 
L 50.428426 -129.580795 
L 50.434016 -129.090966 
L 50.439414 -128.601136 
L 50.446951 -128.111306 
L 50.459659 -127.621477 
L 50.479699 -127.131647 
L 50.507295 -126.641817 
L 50.54114 -126.151988 
L 50.580112 -125.662158 
L 50.624873 -125.172328 
L 50.677704 -124.682499 
L 50.740191 -124.192669 
L 50.810507 -123.702839 
L 50.883219 -123.21301 
L 50.953002 -122.72318 
L 51.019915 -122.23335 
L 51.09155 -121.743521 
L 51.179629 -121.253691 
L 51.293755 -120.763861 
L 51.437452 -120.274032 
L 51.608514 -119.784202 
L 51.801129 -119.294372 
L 52.006963 -118.804543 
L 52.216064 -118.314713 
L 52.420183 -117.824883 
L 52.61792 -117.335054 
L 52.81732 -116.845224 
L 53.032407 -116.355394 
L 53.275291 -115.865565 
L 53.549328 -115.375735 
L 53.848041 -114.885905 
L 54.160048 -114.396076 
L 54.476074 -113.906246 
L 54.792953 -113.416416 
L 55.112067 -112.926587 
L 55.43364 -112.436757 
L 55.751004 -111.946927 
L 56.049076 -111.457098 
L 56.309167 -110.967268 
L 56.518359 -110.477439 
L 56.677644 -109.987609 
L 56.802532 -109.497779 
L 56.914869 -109.00795 
L 57.030892 -108.51812 
L 57.152369 -108.02829 
L 57.265079 -107.538461 
L 57.345755 -107.048631 
L 57.375 -106.558801 
L 57.348626 -106.068972 
L 57.278724 -105.579142 
L 57.183418 -105.089312 
L 57.074446 -104.599483 
L 56.952548 -104.109653 
L 56.811819 -103.619823 
L 56.64667 -103.129994 
L 56.455865 -102.640164 
L 56.242876 -102.150334 
L 56.013969 -101.660505 
L 55.775116 -101.170675 
L 55.528778 -100.680845 
L 55.272273 -100.191016 
L 54.999071 -99.701186 
L 54.703038 -99.211356 
L 54.384124 -98.721527 
L 54.05239 -98.231697 
L 53.726711 -97.741867 
L 53.427072 -97.252038 
L 53.164529 -96.762208 
L 52.935826 -96.272378 
L 52.726656 -95.782549 
L 52.520862 -95.292719 
L 52.308884 -94.802889 
L 52.090807 -94.31306 
L 51.874309 -93.82323 
L 51.670317 -93.3334 
L 51.48849 -92.843571 
L 51.333567 -92.353741 
L 51.203762 -91.863911 
L 51.092183 -91.374082 
L 50.99073 -90.884252 
L 50.894275 -90.394422 
L 50.802919 -89.904593 
L 50.72129 -89.414763 
L 50.655354 -88.924933 
L 50.608417 -88.435104 
L 50.578588 -87.945274 
L 50.559416 -87.455444 
L 50.543333 -86.965615 
L 50.525508 -86.475785 
L 50.505492 -85.985955 
L 50.485921 -85.496126 
L 50.469755 -85.006296 
L 50.458154 -84.516466 
L 50.450105 -84.026637 
L 50.443551 -83.536807 
L 50.436915 -83.046977 
L 50.429919 -82.557148 
L 50.423251 -82.067318 
L 50.417645 -81.577488 
L 50.413249 -81.087659 
z
"/>
    </defs>
    <g clip-path="url(#pd99c2e5629)">
     <use xlink:href="#m5765bcd47c" x="0" y="180" style="fill: #ff4500; fill-opacity: 0.4"/>
    </g>
   </g>
   <g id="PolyCollection_2">
    <defs>
     <path id="mf949b61412" d="M 78.31715 -26.1 
L 78.300209 -26.1 
L 78.300209 -27.137485 
L 78.300209 -28.17497 
L 78.300209 -29.212454 
L 78.300209 -30.249939 
L 78.300209 -31.287424 
L 78.300209 -32.324909 
L 78.300209 -33.362394 
L 78.300209 -34.399879 
L 78.300209 -35.437363 
L 78.300209 -36.474848 
L 78.300209 -37.512333 
L 78.300209 -38.549818 
L 78.300209 -39.587303 
L 78.300209 -40.624788 
L 78.300209 -41.662272 
L 78.300209 -42.699757 
L 78.300209 -43.737242 
L 78.300209 -44.774727 
L 78.300209 -45.812212 
L 78.300209 -46.849697 
L 78.300209 -47.887181 
L 78.300209 -48.924666 
L 78.300209 -49.962151 
L 78.300209 -50.999636 
L 78.300209 -52.037121 
L 78.300209 -53.074605 
L 78.300209 -54.11209 
L 78.300209 -55.149575 
L 78.300209 -56.18706 
L 78.300209 -57.224545 
L 78.300209 -58.26203 
L 78.300209 -59.299514 
L 78.300209 -60.336999 
L 78.300209 -61.374484 
L 78.300209 -62.411969 
L 78.300209 -63.449454 
L 78.300209 -64.486939 
L 78.300209 -65.524423 
L 78.300209 -66.561908 
L 78.300209 -67.599393 
L 78.300209 -68.636878 
L 78.300209 -69.674363 
L 78.300209 -70.711848 
L 78.300209 -71.749332 
L 78.300209 -72.786817 
L 78.300209 -73.824302 
L 78.300209 -74.861787 
L 78.300209 -75.899272 
L 78.300209 -76.936756 
L 78.300209 -77.974241 
L 78.300209 -79.011726 
L 78.300209 -80.049211 
L 78.300209 -81.086696 
L 78.300209 -82.124181 
L 78.300209 -83.161665 
L 78.300209 -84.19915 
L 78.300209 -85.236635 
L 78.300209 -86.27412 
L 78.300209 -87.311605 
L 78.300209 -88.34909 
L 78.300209 -89.386574 
L 78.300209 -90.424059 
L 78.300209 -91.461544 
L 78.300209 -92.499029 
L 78.300209 -93.536514 
L 78.300209 -94.573999 
L 78.300209 -95.611483 
L 78.300209 -96.648968 
L 78.300209 -97.686453 
L 78.300209 -98.723938 
L 78.300209 -99.761423 
L 78.300209 -100.798907 
L 78.300209 -101.836392 
L 78.300209 -102.873877 
L 78.300209 -103.911362 
L 78.300209 -104.948847 
L 78.300209 -105.986332 
L 78.300209 -107.023816 
L 78.300209 -108.061301 
L 78.300209 -109.098786 
L 78.300209 -110.136271 
L 78.300209 -111.173756 
L 78.300209 -112.211241 
L 78.300209 -113.248725 
L 78.300209 -114.28621 
L 78.300209 -115.323695 
L 78.300209 -116.36118 
L 78.300209 -117.398665 
L 78.300209 -118.43615 
L 78.300209 -119.473634 
L 78.300209 -120.511119 
L 78.300209 -121.548604 
L 78.300209 -122.586089 
L 78.300209 -123.623574 
L 78.300209 -124.661058 
L 78.300209 -125.698543 
L 78.300209 -126.736028 
L 78.300209 -127.773513 
L 78.300209 -128.810998 
L 78.308096 -128.810998 
L 78.308096 -128.810998 
L 78.307407 -127.773513 
L 78.30578 -126.736028 
L 78.304381 -125.698543 
L 78.304381 -124.661058 
L 78.306473 -123.623574 
L 78.310611 -122.586089 
L 78.315836 -121.548604 
L 78.320384 -120.511119 
L 78.322389 -119.473634 
L 78.321057 -118.43615 
L 78.317536 -117.398665 
L 78.314729 -116.36118 
L 78.316187 -115.323695 
L 78.3248 -114.28621 
L 78.341966 -113.248725 
L 78.367561 -112.211241 
L 78.400724 -111.173756 
L 78.440734 -110.136271 
L 78.487017 -109.098786 
L 78.538702 -108.061301 
L 78.595258 -107.023816 
L 78.658079 -105.986332 
L 78.730539 -104.948847 
L 78.815646 -103.911362 
L 78.914201 -102.873877 
L 79.026089 -101.836392 
L 79.153034 -100.798907 
L 79.299057 -99.761423 
L 79.467444 -98.723938 
L 79.657444 -97.686453 
L 79.865938 -96.648968 
L 80.093894 -95.611483 
L 80.348164 -94.573999 
L 80.631739 -93.536514 
L 80.933023 -92.499029 
L 81.231518 -91.461544 
L 81.51779 -90.424059 
L 81.805445 -89.386574 
L 82.120984 -88.34909 
L 82.481213 -87.311605 
L 82.877842 -86.27412 
L 83.280906 -85.236635 
L 83.658452 -84.19915 
L 83.996423 -83.161665 
L 84.300432 -82.124181 
L 84.579174 -81.086696 
L 84.829455 -80.049211 
L 85.037199 -79.011726 
L 85.186746 -77.974241 
L 85.266633 -76.936756 
L 85.275 -75.899272 
L 85.228697 -74.861787 
L 85.163761 -73.824302 
L 85.1166 -72.786817 
L 85.100597 -71.749332 
L 85.101086 -70.711848 
L 85.089032 -69.674363 
L 85.036264 -68.636878 
L 84.922172 -67.599393 
L 84.734094 -66.561908 
L 84.467403 -65.524423 
L 84.129215 -64.486939 
L 83.742149 -63.449454 
L 83.338993 -62.411969 
L 82.947763 -61.374484 
L 82.579498 -60.336999 
L 82.228144 -59.299514 
L 81.879391 -58.26203 
L 81.521407 -57.224545 
L 81.153489 -56.18706 
L 80.789262 -55.149575 
L 80.45171 -54.11209 
L 80.161776 -53.074605 
L 79.926862 -52.037121 
L 79.736723 -50.999636 
L 79.570395 -49.962151 
L 79.409907 -48.924666 
L 79.250774 -47.887181 
L 79.101695 -46.849697 
L 78.974338 -45.812212 
L 78.87183 -44.774727 
L 78.785837 -43.737242 
L 78.70467 -42.699757 
L 78.624006 -41.662272 
L 78.549476 -40.624788 
L 78.489711 -39.587303 
L 78.448135 -38.549818 
L 78.421041 -37.512333 
L 78.40165 -36.474848 
L 78.384858 -35.437363 
L 78.368847 -34.399879 
L 78.35398 -33.362394 
L 78.341292 -32.324909 
L 78.331703 -31.287424 
L 78.325616 -30.249939 
L 78.322576 -29.212454 
L 78.321229 -28.17497 
L 78.319837 -27.137485 
L 78.31715 -26.1 
z
"/>
    </defs>
    <g clip-path="url(#pd99c2e5629)">
     <use xlink:href="#mf949b61412" x="0" y="180" style="fill: #2e8b57; fill-opacity: 0.4"/>
    </g>
   </g>
   <g id="PolyCollection_3">
    <defs>
     <path id="ma63bf03a4f" d="M 106.229516 -116.510408 
L 106.200357 -116.510408 
L 106.200357 -116.869898 
L 106.200357 -117.229389 
L 106.200357 -117.58888 
L 106.200357 -117.948371 
L 106.200357 -118.307862 
L 106.200357 -118.667353 
L 106.200357 -119.026843 
L 106.200357 -119.386334 
L 106.200357 -119.745825 
L 106.200357 -120.105316 
L 106.200357 -120.464807 
L 106.200357 -120.824298 
L 106.200357 -121.183788 
L 106.200357 -121.543279 
L 106.200357 -121.90277 
L 106.200357 -122.262261 
L 106.200357 -122.621752 
L 106.200357 -122.981243 
L 106.200357 -123.340733 
L 106.200357 -123.700224 
L 106.200357 -124.059715 
L 106.200357 -124.419206 
L 106.200357 -124.778697 
L 106.200357 -125.138188 
L 106.200357 -125.497678 
L 106.200357 -125.857169 
L 106.200357 -126.21666 
L 106.200357 -126.576151 
L 106.200357 -126.935642 
L 106.200357 -127.295133 
L 106.200357 -127.654623 
L 106.200357 -128.014114 
L 106.200357 -128.373605 
L 106.200357 -128.733096 
L 106.200357 -129.092587 
L 106.200357 -129.452078 
L 106.200357 -129.811568 
L 106.200357 -130.171059 
L 106.200357 -130.53055 
L 106.200357 -130.890041 
L 106.200357 -131.249532 
L 106.200357 -131.609023 
L 106.200357 -131.968513 
L 106.200357 -132.328004 
L 106.200357 -132.687495 
L 106.200357 -133.046986 
L 106.200357 -133.406477 
L 106.200357 -133.765968 
L 106.200357 -134.125458 
L 106.200357 -134.484949 
L 106.200357 -134.84444 
L 106.200357 -135.203931 
L 106.200357 -135.563422 
L 106.200357 -135.922913 
L 106.200357 -136.282403 
L 106.200357 -136.641894 
L 106.200357 -137.001385 
L 106.200357 -137.360876 
L 106.200357 -137.720367 
L 106.200357 -138.079858 
L 106.200357 -138.439348 
L 106.200357 -138.798839 
L 106.200357 -139.15833 
L 106.200357 -139.517821 
L 106.200357 -139.877312 
L 106.200357 -140.236803 
L 106.200357 -140.596293 
L 106.200357 -140.955784 
L 106.200357 -141.315275 
L 106.200357 -141.674766 
L 106.200357 -142.034257 
L 106.200357 -142.393748 
L 106.200357 -142.753238 
L 106.200357 -143.112729 
L 106.200357 -143.47222 
L 106.200357 -143.831711 
L 106.200357 -144.191202 
L 106.200357 -144.550693 
L 106.200357 -144.910183 
L 106.200357 -145.269674 
L 106.200357 -145.629165 
L 106.200357 -145.988656 
L 106.200357 -146.348147 
L 106.200357 -146.707638 
L 106.200357 -147.067128 
L 106.200357 -147.426619 
L 106.200357 -147.78611 
L 106.200357 -148.145601 
L 106.200357 -148.505092 
L 106.200357 -148.864583 
L 106.200357 -149.224073 
L 106.200357 -149.583564 
L 106.200357 -149.943055 
L 106.200357 -150.302546 
L 106.200357 -150.662037 
L 106.200357 -151.021528 
L 106.200357 -151.381018 
L 106.200357 -151.740509 
L 106.200357 -152.1 
L 106.213513 -152.1 
L 106.213513 -152.1 
L 106.215322 -151.740509 
L 106.216307 -151.381018 
L 106.217158 -151.021528 
L 106.218857 -150.662037 
L 106.222097 -150.302546 
L 106.226912 -149.943055 
L 106.232913 -149.583564 
L 106.239971 -149.224073 
L 106.248783 -148.864583 
L 106.260832 -148.505092 
L 106.277779 -148.145601 
L 106.300756 -147.78611 
L 106.330035 -147.426619 
L 106.365189 -147.067128 
L 106.405448 -146.707638 
L 106.44991 -146.348147 
L 106.497722 -145.988656 
L 106.548592 -145.629165 
L 106.603453 -145.269674 
L 106.664529 -144.910183 
L 106.734618 -144.550693 
L 106.81645 -144.191202 
L 106.912756 -143.831711 
L 107.026359 -143.47222 
L 107.159368 -143.112729 
L 107.31205 -142.753238 
L 107.482771 -142.393748 
L 107.669041 -142.034257 
L 107.868078 -141.674766 
L 108.076251 -141.315275 
L 108.289309 -140.955784 
L 108.505521 -140.596293 
L 108.730125 -140.236803 
L 108.97551 -139.877312 
L 109.253018 -139.517821 
L 109.560221 -139.15833 
L 109.875086 -138.798839 
L 110.165884 -138.439348 
L 110.412099 -138.079858 
L 110.61974 -137.720367 
L 110.818015 -137.360876 
L 111.04044 -137.001385 
L 111.305415 -136.641894 
L 111.608851 -136.282403 
L 111.93014 -135.922913 
L 112.243881 -135.563422 
L 112.528621 -135.203931 
L 112.769208 -134.84444 
L 112.955562 -134.484949 
L 113.082484 -134.125458 
L 113.151904 -133.765968 
L 113.175 -133.406477 
L 113.170427 -133.046986 
L 113.157286 -132.687495 
L 113.145566 -132.328004 
L 113.129612 -131.968513 
L 113.088818 -131.609023 
L 112.995826 -131.249532 
L 112.829113 -130.890041 
L 112.584729 -130.53055 
L 112.280879 -130.171059 
L 111.951442 -129.811568 
L 111.631306 -129.452078 
L 111.342289 -129.092587 
L 111.087317 -128.733096 
L 110.854121 -128.373605 
L 110.624518 -128.014114 
L 110.384152 -127.654623 
L 110.128363 -127.295133 
L 109.861654 -126.935642 
L 109.591957 -126.576151 
L 109.324816 -126.21666 
L 109.062129 -125.857169 
L 108.804837 -125.497678 
L 108.555155 -125.138188 
L 108.315978 -124.778697 
L 108.089427 -124.419206 
L 107.876947 -124.059715 
L 107.680382 -123.700224 
L 107.5019 -123.340733 
L 107.342262 -122.981243 
L 107.199192 -122.621752 
L 107.06775 -122.262261 
L 106.942787 -121.90277 
L 106.821749 -121.543279 
L 106.705886 -121.183788 
L 106.5994 -120.824298 
L 106.507454 -120.464807 
L 106.434173 -120.105316 
L 106.381225 -119.745825 
L 106.347162 -119.386334 
L 106.327617 -119.026843 
L 106.316365 -118.667353 
L 106.307091 -118.307862 
L 106.295345 -117.948371 
L 106.279761 -117.58888 
L 106.261818 -117.229389 
L 106.244298 -116.869898 
L 106.229516 -116.510408 
z
"/>
    </defs>
    <g clip-path="url(#pd99c2e5629)">
     <use xlink:href="#ma63bf03a4f" x="0" y="180" style="fill: #ff4500; fill-opacity: 0.4"/>
    </g>
   </g>
   <g id="PolyCollection_4">
    <defs>
     <path id="ma4c09c3dba" d="M 134.130667 -70.380265 
L 134.100338 -70.380265 
L 134.100338 -70.797626 
L 134.100338 -71.214987 
L 134.100338 -71.632348 
L 134.100338 -72.049709 
L 134.100338 -72.46707 
L 134.100338 -72.884432 
L 134.100338 -73.301793 
L 134.100338 -73.719154 
L 134.100338 -74.136515 
L 134.100338 -74.553876 
L 134.100338 -74.971237 
L 134.100338 -75.388598 
L 134.100338 -75.805959 
L 134.100338 -76.22332 
L 134.100338 -76.640681 
L 134.100338 -77.058042 
L 134.100338 -77.475403 
L 134.100338 -77.892765 
L 134.100338 -78.310126 
L 134.100338 -78.727487 
L 134.100338 -79.144848 
L 134.100338 -79.562209 
L 134.100338 -79.97957 
L 134.100338 -80.396931 
L 134.100338 -80.814292 
L 134.100338 -81.231653 
L 134.100338 -81.649014 
L 134.100338 -82.066375 
L 134.100338 -82.483736 
L 134.100338 -82.901097 
L 134.100338 -83.318459 
L 134.100338 -83.73582 
L 134.100338 -84.153181 
L 134.100338 -84.570542 
L 134.100338 -84.987903 
L 134.100338 -85.405264 
L 134.100338 -85.822625 
L 134.100338 -86.239986 
L 134.100338 -86.657347 
L 134.100338 -87.074708 
L 134.100338 -87.492069 
L 134.100338 -87.90943 
L 134.100338 -88.326792 
L 134.100338 -88.744153 
L 134.100338 -89.161514 
L 134.100338 -89.578875 
L 134.100338 -89.996236 
L 134.100338 -90.413597 
L 134.100338 -90.830958 
L 134.100338 -91.248319 
L 134.100338 -91.66568 
L 134.100338 -92.083041 
L 134.100338 -92.500402 
L 134.100338 -92.917763 
L 134.100338 -93.335124 
L 134.100338 -93.752486 
L 134.100338 -94.169847 
L 134.100338 -94.587208 
L 134.100338 -95.004569 
L 134.100338 -95.42193 
L 134.100338 -95.839291 
L 134.100338 -96.256652 
L 134.100338 -96.674013 
L 134.100338 -97.091374 
L 134.100338 -97.508735 
L 134.100338 -97.926096 
L 134.100338 -98.343457 
L 134.100338 -98.760819 
L 134.100338 -99.17818 
L 134.100338 -99.595541 
L 134.100338 -100.012902 
L 134.100338 -100.430263 
L 134.100338 -100.847624 
L 134.100338 -101.264985 
L 134.100338 -101.682346 
L 134.100338 -102.099707 
L 134.100338 -102.517068 
L 134.100338 -102.934429 
L 134.100338 -103.35179 
L 134.100338 -103.769152 
L 134.100338 -104.186513 
L 134.100338 -104.603874 
L 134.100338 -105.021235 
L 134.100338 -105.438596 
L 134.100338 -105.855957 
L 134.100338 -106.273318 
L 134.100338 -106.690679 
L 134.100338 -107.10804 
L 134.100338 -107.525401 
L 134.100338 -107.942762 
L 134.100338 -108.360123 
L 134.100338 -108.777484 
L 134.100338 -109.194846 
L 134.100338 -109.612207 
L 134.100338 -110.029568 
L 134.100338 -110.446929 
L 134.100338 -110.86429 
L 134.100338 -111.281651 
L 134.100338 -111.699012 
L 134.107347 -111.699012 
L 134.107347 -111.699012 
L 134.106769 -111.281651 
L 134.105325 -110.86429 
L 134.103753 -110.446929 
L 134.102843 -110.029568 
L 134.103189 -109.612207 
L 134.105133 -109.194846 
L 134.108731 -108.777484 
L 134.113731 -108.360123 
L 134.119734 -107.942762 
L 134.12667 -107.525401 
L 134.13526 -107.10804 
L 134.146918 -106.690679 
L 134.163022 -106.273318 
L 134.184232 -105.855957 
L 134.210661 -105.438596 
L 134.242775 -105.021235 
L 134.281854 -104.603874 
L 134.329091 -104.186513 
L 134.383977 -103.769152 
L 134.443763 -103.35179 
L 134.50497 -102.934429 
L 134.565816 -102.517068 
L 134.627215 -102.099707 
L 134.691573 -101.682346 
L 134.761214 -101.264985 
L 134.838577 -100.847624 
L 134.927445 -100.430263 
L 135.032484 -100.012902 
L 135.156652 -99.595541 
L 135.299811 -99.17818 
L 135.461059 -98.760819 
L 135.641862 -98.343457 
L 135.844881 -97.926096 
L 136.068911 -97.508735 
L 136.306523 -97.091374 
L 136.548561 -96.674013 
L 136.791434 -96.256652 
L 137.040031 -95.839291 
L 137.303852 -95.42193 
L 137.58939 -95.004569 
L 137.893328 -94.587208 
L 138.201029 -94.169847 
L 138.493239 -93.752486 
L 138.757936 -93.335124 
L 138.997485 -92.917763 
L 139.223509 -92.500402 
L 139.443739 -92.083041 
L 139.653583 -91.66568 
L 139.840298 -91.248319 
L 139.995788 -90.830958 
L 140.127294 -90.413597 
L 140.25725 -89.996236 
L 140.410922 -89.578875 
L 140.598394 -89.161514 
L 140.802018 -88.744153 
L 140.97832 -88.326792 
L 141.075 -87.90943 
L 141.054051 -87.492069 
L 140.908139 -87.074708 
L 140.661902 -86.657347 
L 140.358274 -86.239986 
L 140.037395 -85.822625 
L 139.720134 -85.405264 
L 139.406669 -84.987903 
L 139.089894 -84.570542 
L 138.770043 -84.153181 
L 138.455813 -83.73582 
L 138.152886 -83.318459 
L 137.855739 -82.901097 
L 137.554104 -82.483736 
L 137.246992 -82.066375 
L 136.948028 -81.649014 
L 136.675795 -81.231653 
L 136.438784 -80.814292 
L 136.229063 -80.396931 
L 136.029377 -79.97957 
L 135.826167 -79.562209 
L 135.617473 -79.144848 
L 135.41131 -78.727487 
L 135.218834 -78.310126 
L 135.048921 -77.892765 
L 134.906315 -77.475403 
L 134.79107 -77.058042 
L 134.697839 -76.640681 
L 134.617006 -76.22332 
L 134.539262 -75.805959 
L 134.460956 -75.388598 
L 134.385549 -74.971237 
L 134.319929 -74.553876 
L 134.269039 -74.136515 
L 134.233115 -73.719154 
L 134.208778 -73.301793 
L 134.191861 -72.884432 
L 134.179283 -72.46707 
L 134.16914 -72.049709 
L 134.160038 -71.632348 
L 134.150837 -71.214987 
L 134.140955 -70.797626 
L 134.130667 -70.380265 
z
"/>
    </defs>
    <g clip-path="url(#pd99c2e5629)">
     <use xlink:href="#ma4c09c3dba" x="0" y="180" style="fill: #2e8b57; fill-opacity: 0.4"/>
    </g>
   </g>
   <g id="PolyCollection_5">
    <path d="M 22.5 96.456525 
L 22.5 104.373866 
L 22.779 104.373866 
L 23.058 104.373866 
L 23.337 104.373866 
L 23.616 104.373866 
L 23.895 104.373866 
L 24.174 104.373866 
L 24.453 104.373866 
L 24.732 104.373866 
L 25.011 104.373866 
L 25.29 104.373866 
L 25.569 104.373866 
L 25.848 104.373866 
L 26.127 104.373866 
L 26.406 104.373866 
L 26.685 104.373866 
L 26.964 104.373866 
L 27.243 104.373866 
L 27.522 104.373866 
L 27.801 104.373866 
L 28.08 104.373866 
L 28.359 104.373866 
L 28.638 104.373866 
L 28.917 104.373866 
L 29.196 104.373866 
L 29.475 104.373866 
L 29.754 104.373866 
L 30.033 104.373866 
L 30.312 104.373866 
L 30.591 104.373866 
L 30.87 104.373866 
L 31.149 104.373866 
L 31.428 104.373866 
L 31.707 104.373866 
L 31.986 104.373866 
L 32.265 104.373866 
L 32.544 104.373866 
L 32.823 104.373866 
L 33.102 104.373866 
L 33.381 104.373866 
L 33.66 104.373866 
L 33.939 104.373866 
L 34.218 104.373866 
L 34.497 104.373866 
L 34.776 104.373866 
L 35.055 104.373866 
L 35.334 104.373866 
L 35.613 104.373866 
L 35.892 104.373866 
L 36.171 104.373866 
L 36.45 104.373866 
L 36.729 104.373866 
L 37.008 104.373866 
L 37.287 104.373866 
L 37.566 104.373866 
L 37.845 104.373866 
L 38.124 104.373866 
L 38.403 104.373866 
L 38.682 104.373866 
L 38.961 104.373866 
L 39.24 104.373866 
L 39.519 104.373866 
L 39.798 104.373866 
L 40.077 104.373866 
L 40.356 104.373866 
L 40.635 104.373866 
L 40.914 104.373866 
L 41.193 104.373866 
L 41.472 104.373866 
L 41.751 104.373866 
L 42.03 104.373866 
L 42.309 104.373866 
L 42.588 104.373866 
L 42.867 104.373866 
L 43.146 104.373866 
L 43.425 104.373866 
L 43.704 104.373866 
L 43.983 104.373866 
L 44.262 104.373866 
L 44.541 104.373866 
L 44.82 104.373866 
L 45.099 104.373866 
L 45.378 104.373866 
L 45.657 104.373866 
L 45.936 104.373866 
L 46.215 104.373866 
L 46.494 104.373866 
L 46.773 104.373866 
L 47.052 104.373866 
L 47.331 104.373866 
L 47.61 104.373866 
L 47.889 104.373866 
L 48.168 104.373866 
L 48.447 104.373866 
L 48.726 104.373866 
L 49.005 104.373866 
L 49.284 104.373866 
L 49.563 104.373866 
L 49.842 104.373866 
L 50.121 104.373866 
L 50.4 104.373866 
L 50.679 104.373866 
L 50.958 104.373866 
L 51.237 104.373866 
L 51.516 104.373866 
L 51.795 104.373866 
L 52.074 104.373866 
L 52.353 104.373866 
L 52.632 104.373866 
L 52.911 104.373866 
L 53.19 104.373866 
L 53.469 104.373866 
L 53.748 104.373866 
L 54.027 104.373866 
L 54.306 104.373866 
L 54.585 104.373866 
L 54.864 104.373866 
L 55.143 104.373866 
L 55.422 104.373866 
L 55.701 104.373866 
L 55.98 104.373866 
L 56.259 104.373866 
L 56.538 104.373866 
L 56.817 104.373866 
L 57.096 104.373866 
L 57.375 104.373866 
L 57.654 104.373866 
L 57.933 104.373866 
L 58.212 104.373866 
L 58.491 104.373866 
L 58.77 104.373866 
L 59.049 104.373866 
L 59.328 104.373866 
L 59.607 104.373866 
L 59.886 104.373866 
L 60.165 104.373866 
L 60.444 104.373866 
L 60.723 104.373866 
L 61.002 104.373866 
L 61.281 104.373866 
L 61.56 104.373866 
L 61.839 104.373866 
L 62.118 104.373866 
L 62.397 104.373866 
L 62.676 104.373866 
L 62.955 104.373866 
L 63.234 104.373866 
L 63.513 104.373866 
L 63.792 104.373866 
L 64.071 104.373866 
L 64.35 104.373866 
L 64.629 104.373866 
L 64.908 104.373866 
L 65.187 104.373866 
L 65.466 104.373866 
L 65.745 104.373866 
L 66.024 104.373866 
L 66.303 104.373866 
L 66.582 104.373866 
L 66.861 104.373866 
L 67.14 104.373866 
L 67.419 104.373866 
L 67.698 104.373866 
L 67.977 104.373866 
L 68.256 104.373866 
L 68.535 104.373866 
L 68.814 104.373866 
L 69.093 104.373866 
L 69.372 104.373866 
L 69.651 104.373866 
L 69.93 104.373866 
L 70.209 104.373866 
L 70.488 104.373866 
L 70.767 104.373866 
L 71.046 104.373866 
L 71.325 104.373866 
L 71.604 104.373866 
L 71.883 104.373866 
L 72.162 104.373866 
L 72.441 104.373866 
L 72.72 104.373866 
L 72.999 104.373866 
L 73.278 104.373866 
L 73.557 104.373866 
L 73.836 104.373866 
L 74.115 104.373866 
L 74.394 104.373866 
L 74.673 104.373866 
L 74.952 104.373866 
L 75.231 104.373866 
L 75.51 104.373866 
L 75.789 104.373866 
L 76.068 104.373866 
L 76.347 104.373866 
L 76.626 104.373866 
L 76.905 104.373866 
L 77.184 104.373866 
L 77.463 104.373866 
L 77.742 104.373866 
L 78.021 104.373866 
L 78.3 104.373866 
L 78.579 104.373866 
L 78.858 104.373866 
L 79.137 104.373866 
L 79.416 104.373866 
L 79.695 104.373866 
L 79.974 104.373866 
L 80.253 104.373866 
L 80.532 104.373866 
L 80.811 104.373866 
L 81.09 104.373866 
L 81.369 104.373866 
L 81.648 104.373866 
L 81.927 104.373866 
L 82.206 104.373866 
L 82.485 104.373866 
L 82.764 104.373866 
L 83.043 104.373866 
L 83.322 104.373866 
L 83.601 104.373866 
L 83.88 104.373866 
L 84.159 104.373866 
L 84.438 104.373866 
L 84.717 104.373866 
L 84.996 104.373866 
L 85.275 104.373866 
L 85.554 104.373866 
L 85.833 104.373866 
L 86.112 104.373866 
L 86.391 104.373866 
L 86.67 104.373866 
L 86.949 104.373866 
L 87.228 104.373866 
L 87.507 104.373866 
L 87.786 104.373866 
L 88.065 104.373866 
L 88.344 104.373866 
L 88.623 104.373866 
L 88.902 104.373866 
L 89.181 104.373866 
L 89.46 104.373866 
L 89.739 104.373866 
L 90.018 104.373866 
L 90.297 104.373866 
L 90.576 104.373866 
L 90.855 104.373866 
L 91.134 104.373866 
L 91.413 104.373866 
L 91.692 104.373866 
L 91.971 104.373866 
L 92.25 104.373866 
L 92.529 104.373866 
L 92.808 104.373866 
L 93.087 104.373866 
L 93.366 104.373866 
L 93.645 104.373866 
L 93.924 104.373866 
L 94.203 104.373866 
L 94.482 104.373866 
L 94.761 104.373866 
L 95.04 104.373866 
L 95.319 104.373866 
L 95.598 104.373866 
L 95.877 104.373866 
L 96.156 104.373866 
L 96.435 104.373866 
L 96.714 104.373866 
L 96.993 104.373866 
L 97.272 104.373866 
L 97.551 104.373866 
L 97.83 104.373866 
L 98.109 104.373866 
L 98.388 104.373866 
L 98.667 104.373866 
L 98.946 104.373866 
L 99.225 104.373866 
L 99.504 104.373866 
L 99.783 104.373866 
L 100.062 104.373866 
L 100.341 104.373866 
L 100.62 104.373866 
L 100.899 104.373866 
L 101.178 104.373866 
L 101.457 104.373866 
L 101.736 104.373866 
L 102.015 104.373866 
L 102.294 104.373866 
L 102.573 104.373866 
L 102.852 104.373866 
L 103.131 104.373866 
L 103.41 104.373866 
L 103.689 104.373866 
L 103.968 104.373866 
L 104.247 104.373866 
L 104.526 104.373866 
L 104.805 104.373866 
L 105.084 104.373866 
L 105.363 104.373866 
L 105.642 104.373866 
L 105.921 104.373866 
L 106.2 104.373866 
L 106.479 104.373866 
L 106.758 104.373866 
L 107.037 104.373866 
L 107.316 104.373866 
L 107.595 104.373866 
L 107.874 104.373866 
L 108.153 104.373866 
L 108.432 104.373866 
L 108.711 104.373866 
L 108.99 104.373866 
L 109.269 104.373866 
L 109.548 104.373866 
L 109.827 104.373866 
L 110.106 104.373866 
L 110.385 104.373866 
L 110.664 104.373866 
L 110.943 104.373866 
L 111.222 104.373866 
L 111.501 104.373866 
L 111.78 104.373866 
L 112.059 104.373866 
L 112.338 104.373866 
L 112.617 104.373866 
L 112.896 104.373866 
L 113.175 104.373866 
L 113.454 104.373866 
L 113.733 104.373866 
L 114.012 104.373866 
L 114.291 104.373866 
L 114.57 104.373866 
L 114.849 104.373866 
L 115.128 104.373866 
L 115.407 104.373866 
L 115.686 104.373866 
L 115.965 104.373866 
L 116.244 104.373866 
L 116.523 104.373866 
L 116.802 104.373866 
L 117.081 104.373866 
L 117.36 104.373866 
L 117.639 104.373866 
L 117.918 104.373866 
L 118.197 104.373866 
L 118.476 104.373866 
L 118.755 104.373866 
L 119.034 104.373866 
L 119.313 104.373866 
L 119.592 104.373866 
L 119.871 104.373866 
L 120.15 104.373866 
L 120.429 104.373866 
L 120.708 104.373866 
L 120.987 104.373866 
L 121.266 104.373866 
L 121.545 104.373866 
L 121.824 104.373866 
L 122.103 104.373866 
L 122.382 104.373866 
L 122.661 104.373866 
L 122.94 104.373866 
L 123.219 104.373866 
L 123.498 104.373866 
L 123.777 104.373866 
L 124.056 104.373866 
L 124.335 104.373866 
L 124.614 104.373866 
L 124.893 104.373866 
L 125.172 104.373866 
L 125.451 104.373866 
L 125.73 104.373866 
L 126.009 104.373866 
L 126.288 104.373866 
L 126.567 104.373866 
L 126.846 104.373866 
L 127.125 104.373866 
L 127.404 104.373866 
L 127.683 104.373866 
L 127.962 104.373866 
L 128.241 104.373866 
L 128.52 104.373866 
L 128.799 104.373866 
L 129.078 104.373866 
L 129.357 104.373866 
L 129.636 104.373866 
L 129.915 104.373866 
L 130.194 104.373866 
L 130.473 104.373866 
L 130.752 104.373866 
L 131.031 104.373866 
L 131.31 104.373866 
L 131.589 104.373866 
L 131.868 104.373866 
L 132.147 104.373866 
L 132.426 104.373866 
L 132.705 104.373866 
L 132.984 104.373866 
L 133.263 104.373866 
L 133.542 104.373866 
L 133.821 104.373866 
L 134.1 104.373866 
L 134.379 104.373866 
L 134.658 104.373866 
L 134.937 104.373866 
L 135.216 104.373866 
L 135.495 104.373866 
L 135.774 104.373866 
L 136.053 104.373866 
L 136.332 104.373866 
L 136.611 104.373866 
L 136.89 104.373866 
L 137.169 104.373866 
L 137.448 104.373866 
L 137.727 104.373866 
L 138.006 104.373866 
L 138.285 104.373866 
L 138.564 104.373866 
L 138.843 104.373866 
L 139.122 104.373866 
L 139.401 104.373866 
L 139.68 104.373866 
L 139.959 104.373866 
L 140.238 104.373866 
L 140.517 104.373866 
L 140.796 104.373866 
L 141.075 104.373866 
L 141.354 104.373866 
L 141.633 104.373866 
L 141.912 104.373866 
L 142.191 104.373866 
L 142.47 104.373866 
L 142.749 104.373866 
L 143.028 104.373866 
L 143.307 104.373866 
L 143.586 104.373866 
L 143.865 104.373866 
L 144.144 104.373866 
L 144.423 104.373866 
L 144.702 104.373866 
L 144.981 104.373866 
L 145.26 104.373866 
L 145.539 104.373866 
L 145.818 104.373866 
L 146.097 104.373866 
L 146.376 104.373866 
L 146.655 104.373866 
L 146.934 104.373866 
L 147.213 104.373866 
L 147.492 104.373866 
L 147.771 104.373866 
L 148.05 104.373866 
L 148.329 104.373866 
L 148.608 104.373866 
L 148.887 104.373866 
L 149.166 104.373866 
L 149.445 104.373866 
L 149.724 104.373866 
L 150.003 104.373866 
L 150.282 104.373866 
L 150.561 104.373866 
L 150.84 104.373866 
L 151.119 104.373866 
L 151.398 104.373866 
L 151.677 104.373866 
L 151.956 104.373866 
L 152.235 104.373866 
L 152.514 104.373866 
L 152.793 104.373866 
L 153.072 104.373866 
L 153.351 104.373866 
L 153.63 104.373866 
L 153.909 104.373866 
L 154.188 104.373866 
L 154.467 104.373866 
L 154.746 104.373866 
L 155.025 104.373866 
L 155.304 104.373866 
L 155.583 104.373866 
L 155.862 104.373866 
L 156.141 104.373866 
L 156.42 104.373866 
L 156.699 104.373866 
L 156.978 104.373866 
L 157.257 104.373866 
L 157.536 104.373866 
L 157.815 104.373866 
L 158.094 104.373866 
L 158.373 104.373866 
L 158.652 104.373866 
L 158.931 104.373866 
L 159.21 104.373866 
L 159.489 104.373866 
L 159.768 104.373866 
L 160.047 104.373866 
L 160.326 104.373866 
L 160.605 104.373866 
L 160.884 104.373866 
L 161.163 104.373866 
L 161.442 104.373866 
L 161.721 104.373866 
L 161.721 96.456525 
L 161.721 96.456525 
L 161.442 96.456525 
L 161.163 96.456525 
L 160.884 96.456525 
L 160.605 96.456525 
L 160.326 96.456525 
L 160.047 96.456525 
L 159.768 96.456525 
L 159.489 96.456525 
L 159.21 96.456525 
L 158.931 96.456525 
L 158.652 96.456525 
L 158.373 96.456525 
L 158.094 96.456525 
L 157.815 96.456525 
L 157.536 96.456525 
L 157.257 96.456525 
L 156.978 96.456525 
L 156.699 96.456525 
L 156.42 96.456525 
L 156.141 96.456525 
L 155.862 96.456525 
L 155.583 96.456525 
L 155.304 96.456525 
L 155.025 96.456525 
L 154.746 96.456525 
L 154.467 96.456525 
L 154.188 96.456525 
L 153.909 96.456525 
L 153.63 96.456525 
L 153.351 96.456525 
L 153.072 96.456525 
L 152.793 96.456525 
L 152.514 96.456525 
L 152.235 96.456525 
L 151.956 96.456525 
L 151.677 96.456525 
L 151.398 96.456525 
L 151.119 96.456525 
L 150.84 96.456525 
L 150.561 96.456525 
L 150.282 96.456525 
L 150.003 96.456525 
L 149.724 96.456525 
L 149.445 96.456525 
L 149.166 96.456525 
L 148.887 96.456525 
L 148.608 96.456525 
L 148.329 96.456525 
L 148.05 96.456525 
L 147.771 96.456525 
L 147.492 96.456525 
L 147.213 96.456525 
L 146.934 96.456525 
L 146.655 96.456525 
L 146.376 96.456525 
L 146.097 96.456525 
L 145.818 96.456525 
L 145.539 96.456525 
L 145.26 96.456525 
L 144.981 96.456525 
L 144.702 96.456525 
L 144.423 96.456525 
L 144.144 96.456525 
L 143.865 96.456525 
L 143.586 96.456525 
L 143.307 96.456525 
L 143.028 96.456525 
L 142.749 96.456525 
L 142.47 96.456525 
L 142.191 96.456525 
L 141.912 96.456525 
L 141.633 96.456525 
L 141.354 96.456525 
L 141.075 96.456525 
L 140.796 96.456525 
L 140.517 96.456525 
L 140.238 96.456525 
L 139.959 96.456525 
L 139.68 96.456525 
L 139.401 96.456525 
L 139.122 96.456525 
L 138.843 96.456525 
L 138.564 96.456525 
L 138.285 96.456525 
L 138.006 96.456525 
L 137.727 96.456525 
L 137.448 96.456525 
L 137.169 96.456525 
L 136.89 96.456525 
L 136.611 96.456525 
L 136.332 96.456525 
L 136.053 96.456525 
L 135.774 96.456525 
L 135.495 96.456525 
L 135.216 96.456525 
L 134.937 96.456525 
L 134.658 96.456525 
L 134.379 96.456525 
L 134.1 96.456525 
L 133.821 96.456525 
L 133.542 96.456525 
L 133.263 96.456525 
L 132.984 96.456525 
L 132.705 96.456525 
L 132.426 96.456525 
L 132.147 96.456525 
L 131.868 96.456525 
L 131.589 96.456525 
L 131.31 96.456525 
L 131.031 96.456525 
L 130.752 96.456525 
L 130.473 96.456525 
L 130.194 96.456525 
L 129.915 96.456525 
L 129.636 96.456525 
L 129.357 96.456525 
L 129.078 96.456525 
L 128.799 96.456525 
L 128.52 96.456525 
L 128.241 96.456525 
L 127.962 96.456525 
L 127.683 96.456525 
L 127.404 96.456525 
L 127.125 96.456525 
L 126.846 96.456525 
L 126.567 96.456525 
L 126.288 96.456525 
L 126.009 96.456525 
L 125.73 96.456525 
L 125.451 96.456525 
L 125.172 96.456525 
L 124.893 96.456525 
L 124.614 96.456525 
L 124.335 96.456525 
L 124.056 96.456525 
L 123.777 96.456525 
L 123.498 96.456525 
L 123.219 96.456525 
L 122.94 96.456525 
L 122.661 96.456525 
L 122.382 96.456525 
L 122.103 96.456525 
L 121.824 96.456525 
L 121.545 96.456525 
L 121.266 96.456525 
L 120.987 96.456525 
L 120.708 96.456525 
L 120.429 96.456525 
L 120.15 96.456525 
L 119.871 96.456525 
L 119.592 96.456525 
L 119.313 96.456525 
L 119.034 96.456525 
L 118.755 96.456525 
L 118.476 96.456525 
L 118.197 96.456525 
L 117.918 96.456525 
L 117.639 96.456525 
L 117.36 96.456525 
L 117.081 96.456525 
L 116.802 96.456525 
L 116.523 96.456525 
L 116.244 96.456525 
L 115.965 96.456525 
L 115.686 96.456525 
L 115.407 96.456525 
L 115.128 96.456525 
L 114.849 96.456525 
L 114.57 96.456525 
L 114.291 96.456525 
L 114.012 96.456525 
L 113.733 96.456525 
L 113.454 96.456525 
L 113.175 96.456525 
L 112.896 96.456525 
L 112.617 96.456525 
L 112.338 96.456525 
L 112.059 96.456525 
L 111.78 96.456525 
L 111.501 96.456525 
L 111.222 96.456525 
L 110.943 96.456525 
L 110.664 96.456525 
L 110.385 96.456525 
L 110.106 96.456525 
L 109.827 96.456525 
L 109.548 96.456525 
L 109.269 96.456525 
L 108.99 96.456525 
L 108.711 96.456525 
L 108.432 96.456525 
L 108.153 96.456525 
L 107.874 96.456525 
L 107.595 96.456525 
L 107.316 96.456525 
L 107.037 96.456525 
L 106.758 96.456525 
L 106.479 96.456525 
L 106.2 96.456525 
L 105.921 96.456525 
L 105.642 96.456525 
L 105.363 96.456525 
L 105.084 96.456525 
L 104.805 96.456525 
L 104.526 96.456525 
L 104.247 96.456525 
L 103.968 96.456525 
L 103.689 96.456525 
L 103.41 96.456525 
L 103.131 96.456525 
L 102.852 96.456525 
L 102.573 96.456525 
L 102.294 96.456525 
L 102.015 96.456525 
L 101.736 96.456525 
L 101.457 96.456525 
L 101.178 96.456525 
L 100.899 96.456525 
L 100.62 96.456525 
L 100.341 96.456525 
L 100.062 96.456525 
L 99.783 96.456525 
L 99.504 96.456525 
L 99.225 96.456525 
L 98.946 96.456525 
L 98.667 96.456525 
L 98.388 96.456525 
L 98.109 96.456525 
L 97.83 96.456525 
L 97.551 96.456525 
L 97.272 96.456525 
L 96.993 96.456525 
L 96.714 96.456525 
L 96.435 96.456525 
L 96.156 96.456525 
L 95.877 96.456525 
L 95.598 96.456525 
L 95.319 96.456525 
L 95.04 96.456525 
L 94.761 96.456525 
L 94.482 96.456525 
L 94.203 96.456525 
L 93.924 96.456525 
L 93.645 96.456525 
L 93.366 96.456525 
L 93.087 96.456525 
L 92.808 96.456525 
L 92.529 96.456525 
L 92.25 96.456525 
L 91.971 96.456525 
L 91.692 96.456525 
L 91.413 96.456525 
L 91.134 96.456525 
L 90.855 96.456525 
L 90.576 96.456525 
L 90.297 96.456525 
L 90.018 96.456525 
L 89.739 96.456525 
L 89.46 96.456525 
L 89.181 96.456525 
L 88.902 96.456525 
L 88.623 96.456525 
L 88.344 96.456525 
L 88.065 96.456525 
L 87.786 96.456525 
L 87.507 96.456525 
L 87.228 96.456525 
L 86.949 96.456525 
L 86.67 96.456525 
L 86.391 96.456525 
L 86.112 96.456525 
L 85.833 96.456525 
L 85.554 96.456525 
L 85.275 96.456525 
L 84.996 96.456525 
L 84.717 96.456525 
L 84.438 96.456525 
L 84.159 96.456525 
L 83.88 96.456525 
L 83.601 96.456525 
L 83.322 96.456525 
L 83.043 96.456525 
L 82.764 96.456525 
L 82.485 96.456525 
L 82.206 96.456525 
L 81.927 96.456525 
L 81.648 96.456525 
L 81.369 96.456525 
L 81.09 96.456525 
L 80.811 96.456525 
L 80.532 96.456525 
L 80.253 96.456525 
L 79.974 96.456525 
L 79.695 96.456525 
L 79.416 96.456525 
L 79.137 96.456525 
L 78.858 96.456525 
L 78.579 96.456525 
L 78.3 96.456525 
L 78.021 96.456525 
L 77.742 96.456525 
L 77.463 96.456525 
L 77.184 96.456525 
L 76.905 96.456525 
L 76.626 96.456525 
L 76.347 96.456525 
L 76.068 96.456525 
L 75.789 96.456525 
L 75.51 96.456525 
L 75.231 96.456525 
L 74.952 96.456525 
L 74.673 96.456525 
L 74.394 96.456525 
L 74.115 96.456525 
L 73.836 96.456525 
L 73.557 96.456525 
L 73.278 96.456525 
L 72.999 96.456525 
L 72.72 96.456525 
L 72.441 96.456525 
L 72.162 96.456525 
L 71.883 96.456525 
L 71.604 96.456525 
L 71.325 96.456525 
L 71.046 96.456525 
L 70.767 96.456525 
L 70.488 96.456525 
L 70.209 96.456525 
L 69.93 96.456525 
L 69.651 96.456525 
L 69.372 96.456525 
L 69.093 96.456525 
L 68.814 96.456525 
L 68.535 96.456525 
L 68.256 96.456525 
L 67.977 96.456525 
L 67.698 96.456525 
L 67.419 96.456525 
L 67.14 96.456525 
L 66.861 96.456525 
L 66.582 96.456525 
L 66.303 96.456525 
L 66.024 96.456525 
L 65.745 96.456525 
L 65.466 96.456525 
L 65.187 96.456525 
L 64.908 96.456525 
L 64.629 96.456525 
L 64.35 96.456525 
L 64.071 96.456525 
L 63.792 96.456525 
L 63.513 96.456525 
L 63.234 96.456525 
L 62.955 96.456525 
L 62.676 96.456525 
L 62.397 96.456525 
L 62.118 96.456525 
L 61.839 96.456525 
L 61.56 96.456525 
L 61.281 96.456525 
L 61.002 96.456525 
L 60.723 96.456525 
L 60.444 96.456525 
L 60.165 96.456525 
L 59.886 96.456525 
L 59.607 96.456525 
L 59.328 96.456525 
L 59.049 96.456525 
L 58.77 96.456525 
L 58.491 96.456525 
L 58.212 96.456525 
L 57.933 96.456525 
L 57.654 96.456525 
L 57.375 96.456525 
L 57.096 96.456525 
L 56.817 96.456525 
L 56.538 96.456525 
L 56.259 96.456525 
L 55.98 96.456525 
L 55.701 96.456525 
L 55.422 96.456525 
L 55.143 96.456525 
L 54.864 96.456525 
L 54.585 96.456525 
L 54.306 96.456525 
L 54.027 96.456525 
L 53.748 96.456525 
L 53.469 96.456525 
L 53.19 96.456525 
L 52.911 96.456525 
L 52.632 96.456525 
L 52.353 96.456525 
L 52.074 96.456525 
L 51.795 96.456525 
L 51.516 96.456525 
L 51.237 96.456525 
L 50.958 96.456525 
L 50.679 96.456525 
L 50.4 96.456525 
L 50.121 96.456525 
L 49.842 96.456525 
L 49.563 96.456525 
L 49.284 96.456525 
L 49.005 96.456525 
L 48.726 96.456525 
L 48.447 96.456525 
L 48.168 96.456525 
L 47.889 96.456525 
L 47.61 96.456525 
L 47.331 96.456525 
L 47.052 96.456525 
L 46.773 96.456525 
L 46.494 96.456525 
L 46.215 96.456525 
L 45.936 96.456525 
L 45.657 96.456525 
L 45.378 96.456525 
L 45.099 96.456525 
L 44.82 96.456525 
L 44.541 96.456525 
L 44.262 96.456525 
L 43.983 96.456525 
L 43.704 96.456525 
L 43.425 96.456525 
L 43.146 96.456525 
L 42.867 96.456525 
L 42.588 96.456525 
L 42.309 96.456525 
L 42.03 96.456525 
L 41.751 96.456525 
L 41.472 96.456525 
L 41.193 96.456525 
L 40.914 96.456525 
L 40.635 96.456525 
L 40.356 96.456525 
L 40.077 96.456525 
L 39.798 96.456525 
L 39.519 96.456525 
L 39.24 96.456525 
L 38.961 96.456525 
L 38.682 96.456525 
L 38.403 96.456525 
L 38.124 96.456525 
L 37.845 96.456525 
L 37.566 96.456525 
L 37.287 96.456525 
L 37.008 96.456525 
L 36.729 96.456525 
L 36.45 96.456525 
L 36.171 96.456525 
L 35.892 96.456525 
L 35.613 96.456525 
L 35.334 96.456525 
L 35.055 96.456525 
L 34.776 96.456525 
L 34.497 96.456525 
L 34.218 96.456525 
L 33.939 96.456525 
L 33.66 96.456525 
L 33.381 96.456525 
L 33.102 96.456525 
L 32.823 96.456525 
L 32.544 96.456525 
L 32.265 96.456525 
L 31.986 96.456525 
L 31.707 96.456525 
L 31.428 96.456525 
L 31.149 96.456525 
L 30.87 96.456525 
L 30.591 96.456525 
L 30.312 96.456525 
L 30.033 96.456525 
L 29.754 96.456525 
L 29.475 96.456525 
L 29.196 96.456525 
L 28.917 96.456525 
L 28.638 96.456525 
L 28.359 96.456525 
L 28.08 96.456525 
L 27.801 96.456525 
L 27.522 96.456525 
L 27.243 96.456525 
L 26.964 96.456525 
L 26.685 96.456525 
L 26.406 96.456525 
L 26.127 96.456525 
L 25.848 96.456525 
L 25.569 96.456525 
L 25.29 96.456525 
L 25.011 96.456525 
L 24.732 96.456525 
L 24.453 96.456525 
L 24.174 96.456525 
L 23.895 96.456525 
L 23.616 96.456525 
L 23.337 96.456525 
L 23.058 96.456525 
L 22.779 96.456525 
L 22.5 96.456525 
z
" clip-path="url(#pd99c2e5629)" style="fill: #d3436e; fill-opacity: 0.1"/>
   </g>
   <g id="PolyCollection_6">
    <path d="M 22.5 98.078472 
L 22.5 106.130475 
L 22.779 106.130475 
L 23.058 106.130475 
L 23.337 106.130475 
L 23.616 106.130475 
L 23.895 106.130475 
L 24.174 106.130475 
L 24.453 106.130475 
L 24.732 106.130475 
L 25.011 106.130475 
L 25.29 106.130475 
L 25.569 106.130475 
L 25.848 106.130475 
L 26.127 106.130475 
L 26.406 106.130475 
L 26.685 106.130475 
L 26.964 106.130475 
L 27.243 106.130475 
L 27.522 106.130475 
L 27.801 106.130475 
L 28.08 106.130475 
L 28.359 106.130475 
L 28.638 106.130475 
L 28.917 106.130475 
L 29.196 106.130475 
L 29.475 106.130475 
L 29.754 106.130475 
L 30.033 106.130475 
L 30.312 106.130475 
L 30.591 106.130475 
L 30.87 106.130475 
L 31.149 106.130475 
L 31.428 106.130475 
L 31.707 106.130475 
L 31.986 106.130475 
L 32.265 106.130475 
L 32.544 106.130475 
L 32.823 106.130475 
L 33.102 106.130475 
L 33.381 106.130475 
L 33.66 106.130475 
L 33.939 106.130475 
L 34.218 106.130475 
L 34.497 106.130475 
L 34.776 106.130475 
L 35.055 106.130475 
L 35.334 106.130475 
L 35.613 106.130475 
L 35.892 106.130475 
L 36.171 106.130475 
L 36.45 106.130475 
L 36.729 106.130475 
L 37.008 106.130475 
L 37.287 106.130475 
L 37.566 106.130475 
L 37.845 106.130475 
L 38.124 106.130475 
L 38.403 106.130475 
L 38.682 106.130475 
L 38.961 106.130475 
L 39.24 106.130475 
L 39.519 106.130475 
L 39.798 106.130475 
L 40.077 106.130475 
L 40.356 106.130475 
L 40.635 106.130475 
L 40.914 106.130475 
L 41.193 106.130475 
L 41.472 106.130475 
L 41.751 106.130475 
L 42.03 106.130475 
L 42.309 106.130475 
L 42.588 106.130475 
L 42.867 106.130475 
L 43.146 106.130475 
L 43.425 106.130475 
L 43.704 106.130475 
L 43.983 106.130475 
L 44.262 106.130475 
L 44.541 106.130475 
L 44.82 106.130475 
L 45.099 106.130475 
L 45.378 106.130475 
L 45.657 106.130475 
L 45.936 106.130475 
L 46.215 106.130475 
L 46.494 106.130475 
L 46.773 106.130475 
L 47.052 106.130475 
L 47.331 106.130475 
L 47.61 106.130475 
L 47.889 106.130475 
L 48.168 106.130475 
L 48.447 106.130475 
L 48.726 106.130475 
L 49.005 106.130475 
L 49.284 106.130475 
L 49.563 106.130475 
L 49.842 106.130475 
L 50.121 106.130475 
L 50.4 106.130475 
L 50.679 106.130475 
L 50.958 106.130475 
L 51.237 106.130475 
L 51.516 106.130475 
L 51.795 106.130475 
L 52.074 106.130475 
L 52.353 106.130475 
L 52.632 106.130475 
L 52.911 106.130475 
L 53.19 106.130475 
L 53.469 106.130475 
L 53.748 106.130475 
L 54.027 106.130475 
L 54.306 106.130475 
L 54.585 106.130475 
L 54.864 106.130475 
L 55.143 106.130475 
L 55.422 106.130475 
L 55.701 106.130475 
L 55.98 106.130475 
L 56.259 106.130475 
L 56.538 106.130475 
L 56.817 106.130475 
L 57.096 106.130475 
L 57.375 106.130475 
L 57.654 106.130475 
L 57.933 106.130475 
L 58.212 106.130475 
L 58.491 106.130475 
L 58.77 106.130475 
L 59.049 106.130475 
L 59.328 106.130475 
L 59.607 106.130475 
L 59.886 106.130475 
L 60.165 106.130475 
L 60.444 106.130475 
L 60.723 106.130475 
L 61.002 106.130475 
L 61.281 106.130475 
L 61.56 106.130475 
L 61.839 106.130475 
L 62.118 106.130475 
L 62.397 106.130475 
L 62.676 106.130475 
L 62.955 106.130475 
L 63.234 106.130475 
L 63.513 106.130475 
L 63.792 106.130475 
L 64.071 106.130475 
L 64.35 106.130475 
L 64.629 106.130475 
L 64.908 106.130475 
L 65.187 106.130475 
L 65.466 106.130475 
L 65.745 106.130475 
L 66.024 106.130475 
L 66.303 106.130475 
L 66.582 106.130475 
L 66.861 106.130475 
L 67.14 106.130475 
L 67.419 106.130475 
L 67.698 106.130475 
L 67.977 106.130475 
L 68.256 106.130475 
L 68.535 106.130475 
L 68.814 106.130475 
L 69.093 106.130475 
L 69.372 106.130475 
L 69.651 106.130475 
L 69.93 106.130475 
L 70.209 106.130475 
L 70.488 106.130475 
L 70.767 106.130475 
L 71.046 106.130475 
L 71.325 106.130475 
L 71.604 106.130475 
L 71.883 106.130475 
L 72.162 106.130475 
L 72.441 106.130475 
L 72.72 106.130475 
L 72.999 106.130475 
L 73.278 106.130475 
L 73.557 106.130475 
L 73.836 106.130475 
L 74.115 106.130475 
L 74.394 106.130475 
L 74.673 106.130475 
L 74.952 106.130475 
L 75.231 106.130475 
L 75.51 106.130475 
L 75.789 106.130475 
L 76.068 106.130475 
L 76.347 106.130475 
L 76.626 106.130475 
L 76.905 106.130475 
L 77.184 106.130475 
L 77.463 106.130475 
L 77.742 106.130475 
L 78.021 106.130475 
L 78.3 106.130475 
L 78.579 106.130475 
L 78.858 106.130475 
L 79.137 106.130475 
L 79.416 106.130475 
L 79.695 106.130475 
L 79.974 106.130475 
L 80.253 106.130475 
L 80.532 106.130475 
L 80.811 106.130475 
L 81.09 106.130475 
L 81.369 106.130475 
L 81.648 106.130475 
L 81.927 106.130475 
L 82.206 106.130475 
L 82.485 106.130475 
L 82.764 106.130475 
L 83.043 106.130475 
L 83.322 106.130475 
L 83.601 106.130475 
L 83.88 106.130475 
L 84.159 106.130475 
L 84.438 106.130475 
L 84.717 106.130475 
L 84.996 106.130475 
L 85.275 106.130475 
L 85.554 106.130475 
L 85.833 106.130475 
L 86.112 106.130475 
L 86.391 106.130475 
L 86.67 106.130475 
L 86.949 106.130475 
L 87.228 106.130475 
L 87.507 106.130475 
L 87.786 106.130475 
L 88.065 106.130475 
L 88.344 106.130475 
L 88.623 106.130475 
L 88.902 106.130475 
L 89.181 106.130475 
L 89.46 106.130475 
L 89.739 106.130475 
L 90.018 106.130475 
L 90.297 106.130475 
L 90.576 106.130475 
L 90.855 106.130475 
L 91.134 106.130475 
L 91.413 106.130475 
L 91.692 106.130475 
L 91.971 106.130475 
L 92.25 106.130475 
L 92.529 106.130475 
L 92.808 106.130475 
L 93.087 106.130475 
L 93.366 106.130475 
L 93.645 106.130475 
L 93.924 106.130475 
L 94.203 106.130475 
L 94.482 106.130475 
L 94.761 106.130475 
L 95.04 106.130475 
L 95.319 106.130475 
L 95.598 106.130475 
L 95.877 106.130475 
L 96.156 106.130475 
L 96.435 106.130475 
L 96.714 106.130475 
L 96.993 106.130475 
L 97.272 106.130475 
L 97.551 106.130475 
L 97.83 106.130475 
L 98.109 106.130475 
L 98.388 106.130475 
L 98.667 106.130475 
L 98.946 106.130475 
L 99.225 106.130475 
L 99.504 106.130475 
L 99.783 106.130475 
L 100.062 106.130475 
L 100.341 106.130475 
L 100.62 106.130475 
L 100.899 106.130475 
L 101.178 106.130475 
L 101.457 106.130475 
L 101.736 106.130475 
L 102.015 106.130475 
L 102.294 106.130475 
L 102.573 106.130475 
L 102.852 106.130475 
L 103.131 106.130475 
L 103.41 106.130475 
L 103.689 106.130475 
L 103.968 106.130475 
L 104.247 106.130475 
L 104.526 106.130475 
L 104.805 106.130475 
L 105.084 106.130475 
L 105.363 106.130475 
L 105.642 106.130475 
L 105.921 106.130475 
L 106.2 106.130475 
L 106.479 106.130475 
L 106.758 106.130475 
L 107.037 106.130475 
L 107.316 106.130475 
L 107.595 106.130475 
L 107.874 106.130475 
L 108.153 106.130475 
L 108.432 106.130475 
L 108.711 106.130475 
L 108.99 106.130475 
L 109.269 106.130475 
L 109.548 106.130475 
L 109.827 106.130475 
L 110.106 106.130475 
L 110.385 106.130475 
L 110.664 106.130475 
L 110.943 106.130475 
L 111.222 106.130475 
L 111.501 106.130475 
L 111.78 106.130475 
L 112.059 106.130475 
L 112.338 106.130475 
L 112.617 106.130475 
L 112.896 106.130475 
L 113.175 106.130475 
L 113.454 106.130475 
L 113.733 106.130475 
L 114.012 106.130475 
L 114.291 106.130475 
L 114.57 106.130475 
L 114.849 106.130475 
L 115.128 106.130475 
L 115.407 106.130475 
L 115.686 106.130475 
L 115.965 106.130475 
L 116.244 106.130475 
L 116.523 106.130475 
L 116.802 106.130475 
L 117.081 106.130475 
L 117.36 106.130475 
L 117.639 106.130475 
L 117.918 106.130475 
L 118.197 106.130475 
L 118.476 106.130475 
L 118.755 106.130475 
L 119.034 106.130475 
L 119.313 106.130475 
L 119.592 106.130475 
L 119.871 106.130475 
L 120.15 106.130475 
L 120.429 106.130475 
L 120.708 106.130475 
L 120.987 106.130475 
L 121.266 106.130475 
L 121.545 106.130475 
L 121.824 106.130475 
L 122.103 106.130475 
L 122.382 106.130475 
L 122.661 106.130475 
L 122.94 106.130475 
L 123.219 106.130475 
L 123.498 106.130475 
L 123.777 106.130475 
L 124.056 106.130475 
L 124.335 106.130475 
L 124.614 106.130475 
L 124.893 106.130475 
L 125.172 106.130475 
L 125.451 106.130475 
L 125.73 106.130475 
L 126.009 106.130475 
L 126.288 106.130475 
L 126.567 106.130475 
L 126.846 106.130475 
L 127.125 106.130475 
L 127.404 106.130475 
L 127.683 106.130475 
L 127.962 106.130475 
L 128.241 106.130475 
L 128.52 106.130475 
L 128.799 106.130475 
L 129.078 106.130475 
L 129.357 106.130475 
L 129.636 106.130475 
L 129.915 106.130475 
L 130.194 106.130475 
L 130.473 106.130475 
L 130.752 106.130475 
L 131.031 106.130475 
L 131.31 106.130475 
L 131.589 106.130475 
L 131.868 106.130475 
L 132.147 106.130475 
L 132.426 106.130475 
L 132.705 106.130475 
L 132.984 106.130475 
L 133.263 106.130475 
L 133.542 106.130475 
L 133.821 106.130475 
L 134.1 106.130475 
L 134.379 106.130475 
L 134.658 106.130475 
L 134.937 106.130475 
L 135.216 106.130475 
L 135.495 106.130475 
L 135.774 106.130475 
L 136.053 106.130475 
L 136.332 106.130475 
L 136.611 106.130475 
L 136.89 106.130475 
L 137.169 106.130475 
L 137.448 106.130475 
L 137.727 106.130475 
L 138.006 106.130475 
L 138.285 106.130475 
L 138.564 106.130475 
L 138.843 106.130475 
L 139.122 106.130475 
L 139.401 106.130475 
L 139.68 106.130475 
L 139.959 106.130475 
L 140.238 106.130475 
L 140.517 106.130475 
L 140.796 106.130475 
L 141.075 106.130475 
L 141.354 106.130475 
L 141.633 106.130475 
L 141.912 106.130475 
L 142.191 106.130475 
L 142.47 106.130475 
L 142.749 106.130475 
L 143.028 106.130475 
L 143.307 106.130475 
L 143.586 106.130475 
L 143.865 106.130475 
L 144.144 106.130475 
L 144.423 106.130475 
L 144.702 106.130475 
L 144.981 106.130475 
L 145.26 106.130475 
L 145.539 106.130475 
L 145.818 106.130475 
L 146.097 106.130475 
L 146.376 106.130475 
L 146.655 106.130475 
L 146.934 106.130475 
L 147.213 106.130475 
L 147.492 106.130475 
L 147.771 106.130475 
L 148.05 106.130475 
L 148.329 106.130475 
L 148.608 106.130475 
L 148.887 106.130475 
L 149.166 106.130475 
L 149.445 106.130475 
L 149.724 106.130475 
L 150.003 106.130475 
L 150.282 106.130475 
L 150.561 106.130475 
L 150.84 106.130475 
L 151.119 106.130475 
L 151.398 106.130475 
L 151.677 106.130475 
L 151.956 106.130475 
L 152.235 106.130475 
L 152.514 106.130475 
L 152.793 106.130475 
L 153.072 106.130475 
L 153.351 106.130475 
L 153.63 106.130475 
L 153.909 106.130475 
L 154.188 106.130475 
L 154.467 106.130475 
L 154.746 106.130475 
L 155.025 106.130475 
L 155.304 106.130475 
L 155.583 106.130475 
L 155.862 106.130475 
L 156.141 106.130475 
L 156.42 106.130475 
L 156.699 106.130475 
L 156.978 106.130475 
L 157.257 106.130475 
L 157.536 106.130475 
L 157.815 106.130475 
L 158.094 106.130475 
L 158.373 106.130475 
L 158.652 106.130475 
L 158.931 106.130475 
L 159.21 106.130475 
L 159.489 106.130475 
L 159.768 106.130475 
L 160.047 106.130475 
L 160.326 106.130475 
L 160.605 106.130475 
L 160.884 106.130475 
L 161.163 106.130475 
L 161.442 106.130475 
L 161.721 106.130475 
L 161.721 98.078472 
L 161.721 98.078472 
L 161.442 98.078472 
L 161.163 98.078472 
L 160.884 98.078472 
L 160.605 98.078472 
L 160.326 98.078472 
L 160.047 98.078472 
L 159.768 98.078472 
L 159.489 98.078472 
L 159.21 98.078472 
L 158.931 98.078472 
L 158.652 98.078472 
L 158.373 98.078472 
L 158.094 98.078472 
L 157.815 98.078472 
L 157.536 98.078472 
L 157.257 98.078472 
L 156.978 98.078472 
L 156.699 98.078472 
L 156.42 98.078472 
L 156.141 98.078472 
L 155.862 98.078472 
L 155.583 98.078472 
L 155.304 98.078472 
L 155.025 98.078472 
L 154.746 98.078472 
L 154.467 98.078472 
L 154.188 98.078472 
L 153.909 98.078472 
L 153.63 98.078472 
L 153.351 98.078472 
L 153.072 98.078472 
L 152.793 98.078472 
L 152.514 98.078472 
L 152.235 98.078472 
L 151.956 98.078472 
L 151.677 98.078472 
L 151.398 98.078472 
L 151.119 98.078472 
L 150.84 98.078472 
L 150.561 98.078472 
L 150.282 98.078472 
L 150.003 98.078472 
L 149.724 98.078472 
L 149.445 98.078472 
L 149.166 98.078472 
L 148.887 98.078472 
L 148.608 98.078472 
L 148.329 98.078472 
L 148.05 98.078472 
L 147.771 98.078472 
L 147.492 98.078472 
L 147.213 98.078472 
L 146.934 98.078472 
L 146.655 98.078472 
L 146.376 98.078472 
L 146.097 98.078472 
L 145.818 98.078472 
L 145.539 98.078472 
L 145.26 98.078472 
L 144.981 98.078472 
L 144.702 98.078472 
L 144.423 98.078472 
L 144.144 98.078472 
L 143.865 98.078472 
L 143.586 98.078472 
L 143.307 98.078472 
L 143.028 98.078472 
L 142.749 98.078472 
L 142.47 98.078472 
L 142.191 98.078472 
L 141.912 98.078472 
L 141.633 98.078472 
L 141.354 98.078472 
L 141.075 98.078472 
L 140.796 98.078472 
L 140.517 98.078472 
L 140.238 98.078472 
L 139.959 98.078472 
L 139.68 98.078472 
L 139.401 98.078472 
L 139.122 98.078472 
L 138.843 98.078472 
L 138.564 98.078472 
L 138.285 98.078472 
L 138.006 98.078472 
L 137.727 98.078472 
L 137.448 98.078472 
L 137.169 98.078472 
L 136.89 98.078472 
L 136.611 98.078472 
L 136.332 98.078472 
L 136.053 98.078472 
L 135.774 98.078472 
L 135.495 98.078472 
L 135.216 98.078472 
L 134.937 98.078472 
L 134.658 98.078472 
L 134.379 98.078472 
L 134.1 98.078472 
L 133.821 98.078472 
L 133.542 98.078472 
L 133.263 98.078472 
L 132.984 98.078472 
L 132.705 98.078472 
L 132.426 98.078472 
L 132.147 98.078472 
L 131.868 98.078472 
L 131.589 98.078472 
L 131.31 98.078472 
L 131.031 98.078472 
L 130.752 98.078472 
L 130.473 98.078472 
L 130.194 98.078472 
L 129.915 98.078472 
L 129.636 98.078472 
L 129.357 98.078472 
L 129.078 98.078472 
L 128.799 98.078472 
L 128.52 98.078472 
L 128.241 98.078472 
L 127.962 98.078472 
L 127.683 98.078472 
L 127.404 98.078472 
L 127.125 98.078472 
L 126.846 98.078472 
L 126.567 98.078472 
L 126.288 98.078472 
L 126.009 98.078472 
L 125.73 98.078472 
L 125.451 98.078472 
L 125.172 98.078472 
L 124.893 98.078472 
L 124.614 98.078472 
L 124.335 98.078472 
L 124.056 98.078472 
L 123.777 98.078472 
L 123.498 98.078472 
L 123.219 98.078472 
L 122.94 98.078472 
L 122.661 98.078472 
L 122.382 98.078472 
L 122.103 98.078472 
L 121.824 98.078472 
L 121.545 98.078472 
L 121.266 98.078472 
L 120.987 98.078472 
L 120.708 98.078472 
L 120.429 98.078472 
L 120.15 98.078472 
L 119.871 98.078472 
L 119.592 98.078472 
L 119.313 98.078472 
L 119.034 98.078472 
L 118.755 98.078472 
L 118.476 98.078472 
L 118.197 98.078472 
L 117.918 98.078472 
L 117.639 98.078472 
L 117.36 98.078472 
L 117.081 98.078472 
L 116.802 98.078472 
L 116.523 98.078472 
L 116.244 98.078472 
L 115.965 98.078472 
L 115.686 98.078472 
L 115.407 98.078472 
L 115.128 98.078472 
L 114.849 98.078472 
L 114.57 98.078472 
L 114.291 98.078472 
L 114.012 98.078472 
L 113.733 98.078472 
L 113.454 98.078472 
L 113.175 98.078472 
L 112.896 98.078472 
L 112.617 98.078472 
L 112.338 98.078472 
L 112.059 98.078472 
L 111.78 98.078472 
L 111.501 98.078472 
L 111.222 98.078472 
L 110.943 98.078472 
L 110.664 98.078472 
L 110.385 98.078472 
L 110.106 98.078472 
L 109.827 98.078472 
L 109.548 98.078472 
L 109.269 98.078472 
L 108.99 98.078472 
L 108.711 98.078472 
L 108.432 98.078472 
L 108.153 98.078472 
L 107.874 98.078472 
L 107.595 98.078472 
L 107.316 98.078472 
L 107.037 98.078472 
L 106.758 98.078472 
L 106.479 98.078472 
L 106.2 98.078472 
L 105.921 98.078472 
L 105.642 98.078472 
L 105.363 98.078472 
L 105.084 98.078472 
L 104.805 98.078472 
L 104.526 98.078472 
L 104.247 98.078472 
L 103.968 98.078472 
L 103.689 98.078472 
L 103.41 98.078472 
L 103.131 98.078472 
L 102.852 98.078472 
L 102.573 98.078472 
L 102.294 98.078472 
L 102.015 98.078472 
L 101.736 98.078472 
L 101.457 98.078472 
L 101.178 98.078472 
L 100.899 98.078472 
L 100.62 98.078472 
L 100.341 98.078472 
L 100.062 98.078472 
L 99.783 98.078472 
L 99.504 98.078472 
L 99.225 98.078472 
L 98.946 98.078472 
L 98.667 98.078472 
L 98.388 98.078472 
L 98.109 98.078472 
L 97.83 98.078472 
L 97.551 98.078472 
L 97.272 98.078472 
L 96.993 98.078472 
L 96.714 98.078472 
L 96.435 98.078472 
L 96.156 98.078472 
L 95.877 98.078472 
L 95.598 98.078472 
L 95.319 98.078472 
L 95.04 98.078472 
L 94.761 98.078472 
L 94.482 98.078472 
L 94.203 98.078472 
L 93.924 98.078472 
L 93.645 98.078472 
L 93.366 98.078472 
L 93.087 98.078472 
L 92.808 98.078472 
L 92.529 98.078472 
L 92.25 98.078472 
L 91.971 98.078472 
L 91.692 98.078472 
L 91.413 98.078472 
L 91.134 98.078472 
L 90.855 98.078472 
L 90.576 98.078472 
L 90.297 98.078472 
L 90.018 98.078472 
L 89.739 98.078472 
L 89.46 98.078472 
L 89.181 98.078472 
L 88.902 98.078472 
L 88.623 98.078472 
L 88.344 98.078472 
L 88.065 98.078472 
L 87.786 98.078472 
L 87.507 98.078472 
L 87.228 98.078472 
L 86.949 98.078472 
L 86.67 98.078472 
L 86.391 98.078472 
L 86.112 98.078472 
L 85.833 98.078472 
L 85.554 98.078472 
L 85.275 98.078472 
L 84.996 98.078472 
L 84.717 98.078472 
L 84.438 98.078472 
L 84.159 98.078472 
L 83.88 98.078472 
L 83.601 98.078472 
L 83.322 98.078472 
L 83.043 98.078472 
L 82.764 98.078472 
L 82.485 98.078472 
L 82.206 98.078472 
L 81.927 98.078472 
L 81.648 98.078472 
L 81.369 98.078472 
L 81.09 98.078472 
L 80.811 98.078472 
L 80.532 98.078472 
L 80.253 98.078472 
L 79.974 98.078472 
L 79.695 98.078472 
L 79.416 98.078472 
L 79.137 98.078472 
L 78.858 98.078472 
L 78.579 98.078472 
L 78.3 98.078472 
L 78.021 98.078472 
L 77.742 98.078472 
L 77.463 98.078472 
L 77.184 98.078472 
L 76.905 98.078472 
L 76.626 98.078472 
L 76.347 98.078472 
L 76.068 98.078472 
L 75.789 98.078472 
L 75.51 98.078472 
L 75.231 98.078472 
L 74.952 98.078472 
L 74.673 98.078472 
L 74.394 98.078472 
L 74.115 98.078472 
L 73.836 98.078472 
L 73.557 98.078472 
L 73.278 98.078472 
L 72.999 98.078472 
L 72.72 98.078472 
L 72.441 98.078472 
L 72.162 98.078472 
L 71.883 98.078472 
L 71.604 98.078472 
L 71.325 98.078472 
L 71.046 98.078472 
L 70.767 98.078472 
L 70.488 98.078472 
L 70.209 98.078472 
L 69.93 98.078472 
L 69.651 98.078472 
L 69.372 98.078472 
L 69.093 98.078472 
L 68.814 98.078472 
L 68.535 98.078472 
L 68.256 98.078472 
L 67.977 98.078472 
L 67.698 98.078472 
L 67.419 98.078472 
L 67.14 98.078472 
L 66.861 98.078472 
L 66.582 98.078472 
L 66.303 98.078472 
L 66.024 98.078472 
L 65.745 98.078472 
L 65.466 98.078472 
L 65.187 98.078472 
L 64.908 98.078472 
L 64.629 98.078472 
L 64.35 98.078472 
L 64.071 98.078472 
L 63.792 98.078472 
L 63.513 98.078472 
L 63.234 98.078472 
L 62.955 98.078472 
L 62.676 98.078472 
L 62.397 98.078472 
L 62.118 98.078472 
L 61.839 98.078472 
L 61.56 98.078472 
L 61.281 98.078472 
L 61.002 98.078472 
L 60.723 98.078472 
L 60.444 98.078472 
L 60.165 98.078472 
L 59.886 98.078472 
L 59.607 98.078472 
L 59.328 98.078472 
L 59.049 98.078472 
L 58.77 98.078472 
L 58.491 98.078472 
L 58.212 98.078472 
L 57.933 98.078472 
L 57.654 98.078472 
L 57.375 98.078472 
L 57.096 98.078472 
L 56.817 98.078472 
L 56.538 98.078472 
L 56.259 98.078472 
L 55.98 98.078472 
L 55.701 98.078472 
L 55.422 98.078472 
L 55.143 98.078472 
L 54.864 98.078472 
L 54.585 98.078472 
L 54.306 98.078472 
L 54.027 98.078472 
L 53.748 98.078472 
L 53.469 98.078472 
L 53.19 98.078472 
L 52.911 98.078472 
L 52.632 98.078472 
L 52.353 98.078472 
L 52.074 98.078472 
L 51.795 98.078472 
L 51.516 98.078472 
L 51.237 98.078472 
L 50.958 98.078472 
L 50.679 98.078472 
L 50.4 98.078472 
L 50.121 98.078472 
L 49.842 98.078472 
L 49.563 98.078472 
L 49.284 98.078472 
L 49.005 98.078472 
L 48.726 98.078472 
L 48.447 98.078472 
L 48.168 98.078472 
L 47.889 98.078472 
L 47.61 98.078472 
L 47.331 98.078472 
L 47.052 98.078472 
L 46.773 98.078472 
L 46.494 98.078472 
L 46.215 98.078472 
L 45.936 98.078472 
L 45.657 98.078472 
L 45.378 98.078472 
L 45.099 98.078472 
L 44.82 98.078472 
L 44.541 98.078472 
L 44.262 98.078472 
L 43.983 98.078472 
L 43.704 98.078472 
L 43.425 98.078472 
L 43.146 98.078472 
L 42.867 98.078472 
L 42.588 98.078472 
L 42.309 98.078472 
L 42.03 98.078472 
L 41.751 98.078472 
L 41.472 98.078472 
L 41.193 98.078472 
L 40.914 98.078472 
L 40.635 98.078472 
L 40.356 98.078472 
L 40.077 98.078472 
L 39.798 98.078472 
L 39.519 98.078472 
L 39.24 98.078472 
L 38.961 98.078472 
L 38.682 98.078472 
L 38.403 98.078472 
L 38.124 98.078472 
L 37.845 98.078472 
L 37.566 98.078472 
L 37.287 98.078472 
L 37.008 98.078472 
L 36.729 98.078472 
L 36.45 98.078472 
L 36.171 98.078472 
L 35.892 98.078472 
L 35.613 98.078472 
L 35.334 98.078472 
L 35.055 98.078472 
L 34.776 98.078472 
L 34.497 98.078472 
L 34.218 98.078472 
L 33.939 98.078472 
L 33.66 98.078472 
L 33.381 98.078472 
L 33.102 98.078472 
L 32.823 98.078472 
L 32.544 98.078472 
L 32.265 98.078472 
L 31.986 98.078472 
L 31.707 98.078472 
L 31.428 98.078472 
L 31.149 98.078472 
L 30.87 98.078472 
L 30.591 98.078472 
L 30.312 98.078472 
L 30.033 98.078472 
L 29.754 98.078472 
L 29.475 98.078472 
L 29.196 98.078472 
L 28.917 98.078472 
L 28.638 98.078472 
L 28.359 98.078472 
L 28.08 98.078472 
L 27.801 98.078472 
L 27.522 98.078472 
L 27.243 98.078472 
L 26.964 98.078472 
L 26.685 98.078472 
L 26.406 98.078472 
L 26.127 98.078472 
L 25.848 98.078472 
L 25.569 98.078472 
L 25.29 98.078472 
L 25.011 98.078472 
L 24.732 98.078472 
L 24.453 98.078472 
L 24.174 98.078472 
L 23.895 98.078472 
L 23.616 98.078472 
L 23.337 98.078472 
L 23.058 98.078472 
L 22.779 98.078472 
L 22.5 98.078472 
z
" clip-path="url(#pd99c2e5629)" style="fill: #5f187f; fill-opacity: 0.1"/>
   </g>
   <g id="matplotlib.axis_1">
    <g id="xtick_1">
     <g id="line2d_1">
      <defs>
       <path id="mcab22d0fb0" d="M 0 0 
L 0 3.5 
" style="stroke: #000000; stroke-width: 0.8"/>
      </defs>
      <g>
       <use xlink:href="#mcab22d0fb0" x="50.4" y="160.2" style="stroke: #000000; stroke-width: 0.8"/>
      </g>
     </g>
     <g id="text_1">
      <text style="font: italic 12px 'inter', sans-serif" transform="translate(9.919905 212.12161) rotate(-45)">Trhn&gt;Chr</text>
     </g>
    </g>
    <g id="xtick_2">
     <g id="line2d_2">
      <g>
       <use xlink:href="#mcab22d0fb0" x="78.3" y="160.2" style="stroke: #000000; stroke-width: 0.8"/>
      </g>
     </g>
     <g id="text_2">
      <text style="font: italic 12px 'inter', sans-serif" transform="translate(31.265025 218.67649) rotate(-45)">Trhn&gt;ACR1</text>
     </g>
    </g>
    <g id="xtick_3">
     <g id="line2d_3">
      <g>
       <use xlink:href="#mcab22d0fb0" x="106.2" y="160.2" style="stroke: #000000; stroke-width: 0.8"/>
      </g>
     </g>
     <g id="text_3">
      <text style="font: italic 12px 'inter', sans-serif" transform="translate(51.684719 226.156796) rotate(-45)">R50H05&gt;Chr</text>
     </g>
    </g>
    <g id="xtick_4">
     <g id="line2d_4">
      <g>
       <use xlink:href="#mcab22d0fb0" x="134.1" y="160.2" style="stroke: #000000; stroke-width: 0.8"/>
      </g>
     </g>
     <g id="text_4">
      <text style="font: italic 12px 'inter', sans-serif" transform="translate(73.029839 232.711676) rotate(-45)">R50H05&gt;ACR1</text>
     </g>
    </g>
   </g>
   <g id="matplotlib.axis_2">
    <g id="ytick_1">
     <g id="line2d_5">
      <defs>
       <path id="m7a7603ff76" d="M 0 0 
L -3.5 0 
" style="stroke: #000000; stroke-width: 0.8"/>
      </defs>
      <g>
       <use xlink:href="#m7a7603ff76" x="22.5" y="129.987349" style="stroke: #000000; stroke-width: 0.8"/>
      </g>
     </g>
     <g id="text_5">
      <text style="font: 10px 'inter', sans-serif; text-anchor: end" x="15.5" y="133.624849" transform="rotate(-0 15.5 133.624849)">1</text>
     </g>
    </g>
    <g id="ytick_2">
     <g id="line2d_6">
      <g>
       <use xlink:href="#m7a7603ff76" x="22.5" y="91.93687" style="stroke: #000000; stroke-width: 0.8"/>
      </g>
     </g>
     <g id="text_6">
      <text style="font: 10px 'inter', sans-serif; text-anchor: end" x="15.5" y="95.57437" transform="rotate(-0 15.5 95.57437)">0</text>
     </g>
    </g>
    <g id="ytick_3">
     <g id="line2d_7">
      <g>
       <use xlink:href="#m7a7603ff76" x="22.5" y="53.88639" style="stroke: #000000; stroke-width: 0.8"/>
      </g>
     </g>
     <g id="text_7">
      <text style="font: 10px 'inter', sans-serif; text-anchor: end" x="15.5" y="57.52389" transform="rotate(-0 15.5 57.52389)">1</text>
     </g>
    </g>
    <g id="text_8">
     <text style="font: 15px 'inter', sans-serif; text-anchor: middle" x="-2.419531" y="90.9" transform="rotate(-90 -2.419531 90.9)"> Walking Speed (mm/s)</text>
    </g>
   </g>
   <g id="line2d_8">
    <path d="M 22.5 91.93687 
L 162 91.93687 
" clip-path="url(#pd99c2e5629)" style="fill: none; stroke: #000000; stroke-linecap: square"/>
   </g>
   <g id="line2d_9">
    <defs>
     <path id="me8693b0713" d="M 0 2.5 
C 0.663008 2.5 1.29895 2.236584 1.767767 1.767767 
C 2.236584 1.29895 2.5 0.663008 2.5 0 
C 2.5 -0.663008 2.236584 -1.29895 1.767767 -1.767767 
C 1.29895 -2.236584 0.663008 -2.5 0 -2.5 
C -0.663008 -2.5 -1.29895 -2.236584 -1.767767 -1.767767 
C -2.236584 -1.29895 -2.5 -0.663008 -2.5 0 
C -2.5 0.663008 -2.236584 1.29895 -1.767767 1.767767 
C -1.29895 2.236584 -0.663008 2.5 0 2.5 
z
" style="stroke: #000000"/>
    </defs>
    <g clip-path="url(#pd99c2e5629)">
     <use xlink:href="#me8693b0713" x="50.4" y="73.550078" style="stroke: #000000"/>
    </g>
   </g>
   <g id="line2d_10">
    <path d="M 50.4 86.99568 
L 50.4 60.108209 
" clip-path="url(#pd99c2e5629)" style="fill: none; stroke: #000000; stroke-width: 2.5; stroke-linecap: square"/>
   </g>
   <g id="line2d_11">
    <g clip-path="url(#pd99c2e5629)">
     <use xlink:href="#me8693b0713" x="78.3" y="106.284752" style="stroke: #000000"/>
    </g>
   </g>
   <g id="line2d_12">
    <path d="M 78.3 131.328936 
L 78.3 81.356809 
" clip-path="url(#pd99c2e5629)" style="fill: none; stroke: #000000; stroke-width: 2.5; stroke-linecap: square"/>
   </g>
   <g id="line2d_13">
    <g clip-path="url(#pd99c2e5629)">
     <use xlink:href="#me8693b0713" x="106.2" y="47.137581" style="stroke: #000000"/>
    </g>
   </g>
   <g id="line2d_14">
    <path d="M 106.2 56.895471 
L 106.2 37.268145 
" clip-path="url(#pd99c2e5629)" style="fill: none; stroke: #000000; stroke-width: 2.5; stroke-linecap: square"/>
   </g>
   <g id="line2d_15">
    <g clip-path="url(#pd99c2e5629)">
     <use xlink:href="#me8693b0713" x="134.1" y="91.012069" style="stroke: #000000"/>
    </g>
   </g>
   <g id="line2d_16">
    <path d="M 134.1 101.103712 
L 134.1 78.970259 
" clip-path="url(#pd99c2e5629)" style="fill: none; stroke: #000000; stroke-width: 2.5; stroke-linecap: square"/>
   </g>
   <g id="patch_3">
    <path d="M 22.5 160.2 
L 22.5 21.6 
" style="fill: none; stroke: #000000; stroke-width: 0.8; stroke-linejoin: miter; stroke-linecap: square"/>
   </g>
   <g id="patch_4">
    <path d="M 162 160.2 
L 162 21.6 
" style="fill: none"/>
   </g>
   <g id="patch_5">
    <path d="M 22.5 160.2 
L 162 160.2 
" style="fill: none"/>
   </g>
   <g id="patch_6">
    <path d="M 22.5 21.6 
L 162 21.6 
" style="fill: none"/>
   </g>
   <g id="text_9">
    <text style="fill: #d3436e; font: 10px 'inter', sans-serif; text-anchor: start" x="162" y="96.456525" transform="rotate(-0 162 96.456525)">24 h</text>
   </g>
   <g id="text_10">
    <text style="fill: #5f187f; font: 10px 'inter', sans-serif; text-anchor: start" x="162" y="106.130475" transform="rotate(-0 162 106.130475)">48 h</text>
   </g>
   <g id="text_11">
    <text style="font: 500 15px 'inter', sans-serif; text-anchor: middle" x="92.25" y="15.6" transform="rotate(-0 92.25 15.6)">Walking Speed</text>
   </g>
  </g>
 </g>
 <defs>
  <clipPath id="pd99c2e5629">
   <rect x="22.5" y="21.6" width="139.5" height="138.6"/>
  </clipPath>
 </defs>
</svg>
