<?xml version="1.0" encoding="utf-8" standalone="no"?>
<!DOCTYPE svg PUBLIC "-//W3C//DTD SVG 1.1//EN"
  "http://www.w3.org/Graphics/SVG/1.1/DTD/svg11.dtd">
<svg xmlns:xlink="http://www.w3.org/1999/xlink" width="180pt" height="180pt" viewBox="0 0 180 180" xmlns="http://www.w3.org/2000/svg" version="1.1">
 <metadata>
  <rdf:RDF xmlns:dc="http://purl.org/dc/elements/1.1/" xmlns:cc="http://creativecommons.org/ns#" xmlns:rdf="http://www.w3.org/1999/02/22-rdf-syntax-ns#">
   <cc:Work>
    <dc:type rdf:resource="http://purl.org/dc/dcmitype/StillImage"/>
    <dc:date>2025-02-16T01:32:13.933367</dc:date>
    <dc:format>image/svg+xml</dc:format>
    <dc:creator>
     <cc:Agent>
      <dc:title>Matplotlib v3.6.3, https://matplotlib.org/</dc:title>
     </cc:Agent>
    </dc:creator>
   </cc:Work>
  </rdf:RDF>
 </metadata>
 <defs>
  <style type="text/css">*{stroke-linejoin: round; stroke-linecap: butt}</style>
 </defs>
 <g id="figure_1">
  <g id="patch_1">
   <path d="M 0 180 
L 180 180 
L 180 0 
L 0 0 
z
" style="fill: #ffffff"/>
  </g>
  <g id="axes_1">
   <g id="patch_2">
    <path d="M 22.5 160.2 
L 162 160.2 
L 162 21.6 
L 22.5 21.6 
z
" style="fill: #ffffff"/>
   </g>
   <g id="PolyCollection_1">
    <defs>
     <path id="m0f580b6f74" d="M 50.415385 -26.1 
L 50.400223 -26.1 
L 50.400223 -26.54153 
L 50.400223 -26.983061 
L 50.400223 -27.424591 
L 50.400223 -27.866122 
L 50.400223 -28.307652 
L 50.400223 -28.749182 
L 50.400223 -29.190713 
L 50.400223 -29.632243 
L 50.400223 -30.073773 
L 50.400223 -30.515304 
L 50.400223 -30.956834 
L 50.400223 -31.398365 
L 50.400223 -31.839895 
L 50.400223 -32.281425 
L 50.400223 -32.722956 
L 50.400223 -33.164486 
L 50.400223 -33.606016 
L 50.400223 -34.047547 
L 50.400223 -34.489077 
L 50.400223 -34.930608 
L 50.400223 -35.372138 
L 50.400223 -35.813668 
L 50.400223 -36.255199 
L 50.400223 -36.696729 
L 50.400223 -37.138259 
L 50.400223 -37.57979 
L 50.400223 -38.02132 
L 50.400223 -38.462851 
L 50.400223 -38.904381 
L 50.400223 -39.345911 
L 50.400223 -39.787442 
L 50.400223 -40.228972 
L 50.400223 -40.670503 
L 50.400223 -41.112033 
L 50.400223 -41.553563 
L 50.400223 -41.995094 
L 50.400223 -42.436624 
L 50.400223 -42.878154 
L 50.400223 -43.319685 
L 50.400223 -43.761215 
L 50.400223 -44.202746 
L 50.400223 -44.644276 
L 50.400223 -45.085806 
L 50.400223 -45.527337 
L 50.400223 -45.968867 
L 50.400223 -46.410397 
L 50.400223 -46.851928 
L 50.400223 -47.293458 
L 50.400223 -47.734989 
L 50.400223 -48.176519 
L 50.400223 -48.618049 
L 50.400223 -49.05958 
L 50.400223 -49.50111 
L 50.400223 -49.94264 
L 50.400223 -50.384171 
L 50.400223 -50.825701 
L 50.400223 -51.267232 
L 50.400223 -51.708762 
L 50.400223 -52.150292 
L 50.400223 -52.591823 
L 50.400223 -53.033353 
L 50.400223 -53.474883 
L 50.400223 -53.916414 
L 50.400223 -54.357944 
L 50.400223 -54.799475 
L 50.400223 -55.241005 
L 50.400223 -55.682535 
L 50.400223 -56.124066 
L 50.400223 -56.565596 
L 50.400223 -57.007127 
L 50.400223 -57.448657 
L 50.400223 -57.890187 
L 50.400223 -58.331718 
L 50.400223 -58.773248 
L 50.400223 -59.214778 
L 50.400223 -59.656309 
L 50.400223 -60.097839 
L 50.400223 -60.53937 
L 50.400223 -60.9809 
L 50.400223 -61.42243 
L 50.400223 -61.863961 
L 50.400223 -62.305491 
L 50.400223 -62.747021 
L 50.400223 -63.188552 
L 50.400223 -63.630082 
L 50.400223 -64.071613 
L 50.400223 -64.513143 
L 50.400223 -64.954673 
L 50.400223 -65.396204 
L 50.400223 -65.837734 
L 50.400223 -66.279264 
L 50.400223 -66.720795 
L 50.400223 -67.162325 
L 50.400223 -67.603856 
L 50.400223 -68.045386 
L 50.400223 -68.486916 
L 50.400223 -68.928447 
L 50.400223 -69.369977 
L 50.400223 -69.811508 
L 50.414575 -69.811508 
L 50.414575 -69.811508 
L 50.419968 -69.369977 
L 50.426385 -68.928447 
L 50.433173 -68.486916 
L 50.439045 -68.045386 
L 50.442943 -67.603856 
L 50.445194 -67.162325 
L 50.448023 -66.720795 
L 50.454935 -66.279264 
L 50.469319 -65.837734 
L 50.492984 -65.396204 
L 50.525375 -64.954673 
L 50.564109 -64.513143 
L 50.606891 -64.071613 
L 50.653631 -63.630082 
L 50.707052 -63.188552 
L 50.771149 -62.747021 
L 50.848696 -62.305491 
L 50.939619 -61.863961 
L 51.041095 -61.42243 
L 51.149056 -60.9809 
L 51.260088 -60.53937 
L 51.372628 -60.097839 
L 51.486919 -59.656309 
L 51.604587 -59.214778 
L 51.729504 -58.773248 
L 51.86988 -58.331718 
L 52.038499 -57.890187 
L 52.247899 -57.448657 
L 52.502024 -57.007127 
L 52.790991 -56.565596 
L 53.094885 -56.124066 
L 53.395199 -55.682535 
L 53.685313 -55.241005 
L 53.971684 -54.799475 
L 54.265158 -54.357944 
L 54.569807 -53.916414 
L 54.877748 -53.474883 
L 55.172901 -53.033353 
L 55.44035 -52.591823 
L 55.675063 -52.150292 
L 55.884904 -51.708762 
L 56.086686 -51.267232 
L 56.297787 -50.825701 
L 56.52714 -50.384171 
L 56.769009 -49.94264 
L 57.002365 -49.50111 
L 57.197098 -49.05958 
L 57.325548 -48.618049 
L 57.375 -48.176519 
L 57.35429 -47.734989 
L 57.287586 -47.293458 
L 57.19629 -46.851928 
L 57.082663 -46.410397 
L 56.930576 -45.968867 
L 56.722777 -45.527337 
L 56.457931 -45.085806 
L 56.1534 -44.644276 
L 55.834722 -44.202746 
L 55.521359 -43.761215 
L 55.217405 -43.319685 
L 54.913064 -42.878154 
L 54.597464 -42.436624 
L 54.273405 -41.995094 
L 53.959824 -41.553563 
L 53.677938 -41.112033 
L 53.433917 -40.670503 
L 53.214791 -40.228972 
L 53.000394 -39.787442 
L 52.778636 -39.345911 
L 52.550929 -38.904381 
L 52.326771 -38.462851 
L 52.11566 -38.02132 
L 51.922808 -37.57979 
L 51.748894 -37.138259 
L 51.591445 -36.696729 
L 51.446575 -36.255199 
L 51.310729 -35.813668 
L 51.181961 -35.372138 
L 51.060281 -34.930608 
L 50.947123 -34.489077 
L 50.844358 -34.047547 
L 50.75347 -33.606016 
L 50.675368 -33.164486 
L 50.610636 -32.722956 
L 50.55946 -32.281425 
L 50.520961 -31.839895 
L 50.492795 -31.398365 
L 50.4719 -30.956834 
L 50.455901 -30.515304 
L 50.44377 -30.073773 
L 50.435279 -29.632243 
L 50.430071 -29.190713 
L 50.42733 -28.749182 
L 50.426048 -28.307652 
L 50.425281 -27.866122 
L 50.42422 -27.424591 
L 50.422275 -26.983061 
L 50.419246 -26.54153 
L 50.415385 -26.1 
z
"/>
    </defs>
    <g clip-path="url(#p11debb4312)">
     <use xlink:href="#m0f580b6f74" x="0" y="180" style="fill: #ff4500; fill-opacity: 0.4"/>
    </g>
   </g>
   <g id="PolyCollection_2">
    <defs>
     <path id="m0eb3f95d65" d="M 78.325141 -93.042384 
L 78.30031 -93.042384 
L 78.30031 -93.634874 
L 78.30031 -94.227364 
L 78.30031 -94.819854 
L 78.30031 -95.412344 
L 78.30031 -96.004834 
L 78.30031 -96.597324 
L 78.30031 -97.189814 
L 78.30031 -97.782304 
L 78.30031 -98.374794 
L 78.30031 -98.967283 
L 78.30031 -99.559773 
L 78.30031 -100.152263 
L 78.30031 -100.744753 
L 78.30031 -101.337243 
L 78.30031 -101.929733 
L 78.30031 -102.522223 
L 78.30031 -103.114713 
L 78.30031 -103.707203 
L 78.30031 -104.299693 
L 78.30031 -104.892182 
L 78.30031 -105.484672 
L 78.30031 -106.077162 
L 78.30031 -106.669652 
L 78.30031 -107.262142 
L 78.30031 -107.854632 
L 78.30031 -108.447122 
L 78.30031 -109.039612 
L 78.30031 -109.632102 
L 78.30031 -110.224592 
L 78.30031 -110.817081 
L 78.30031 -111.409571 
L 78.30031 -112.002061 
L 78.30031 -112.594551 
L 78.30031 -113.187041 
L 78.30031 -113.779531 
L 78.30031 -114.372021 
L 78.30031 -114.964511 
L 78.30031 -115.557001 
L 78.30031 -116.149491 
L 78.30031 -116.74198 
L 78.30031 -117.33447 
L 78.30031 -117.92696 
L 78.30031 -118.51945 
L 78.30031 -119.11194 
L 78.30031 -119.70443 
L 78.30031 -120.29692 
L 78.30031 -120.88941 
L 78.30031 -121.4819 
L 78.30031 -122.074389 
L 78.30031 -122.666879 
L 78.30031 -123.259369 
L 78.30031 -123.851859 
L 78.30031 -124.444349 
L 78.30031 -125.036839 
L 78.30031 -125.629329 
L 78.30031 -126.221819 
L 78.30031 -126.814309 
L 78.30031 -127.406799 
L 78.30031 -127.999288 
L 78.30031 -128.591778 
L 78.30031 -129.184268 
L 78.30031 -129.776758 
L 78.30031 -130.369248 
L 78.30031 -130.961738 
L 78.30031 -131.554228 
L 78.30031 -132.146718 
L 78.30031 -132.739208 
L 78.30031 -133.331698 
L 78.30031 -133.924187 
L 78.30031 -134.516677 
L 78.30031 -135.109167 
L 78.30031 -135.701657 
L 78.30031 -136.294147 
L 78.30031 -136.886637 
L 78.30031 -137.479127 
L 78.30031 -138.071617 
L 78.30031 -138.664107 
L 78.30031 -139.256597 
L 78.30031 -139.849086 
L 78.30031 -140.441576 
L 78.30031 -141.034066 
L 78.30031 -141.626556 
L 78.30031 -142.219046 
L 78.30031 -142.811536 
L 78.30031 -143.404026 
L 78.30031 -143.996516 
L 78.30031 -144.589006 
L 78.30031 -145.181496 
L 78.30031 -145.773985 
L 78.30031 -146.366475 
L 78.30031 -146.958965 
L 78.30031 -147.551455 
L 78.30031 -148.143945 
L 78.30031 -148.736435 
L 78.30031 -149.328925 
L 78.30031 -149.921415 
L 78.30031 -150.513905 
L 78.30031 -151.106395 
L 78.30031 -151.698884 
L 78.31261 -151.698884 
L 78.31261 -151.698884 
L 78.314735 -151.106395 
L 78.316708 -150.513905 
L 78.319604 -149.921415 
L 78.32507 -149.328925 
L 78.33472 -148.736435 
L 78.349321 -148.143945 
L 78.368249 -147.551455 
L 78.389677 -146.958965 
L 78.411463 -146.366475 
L 78.43222 -145.773985 
L 78.45193 -145.181496 
L 78.471844 -144.589006 
L 78.49387 -143.996516 
L 78.51976 -143.404026 
L 78.550332 -142.811536 
L 78.58496 -142.219046 
L 78.621725 -141.626556 
L 78.658559 -141.034066 
L 78.695132 -140.441576 
L 78.734636 -139.849086 
L 78.784242 -139.256597 
L 78.853269 -138.664107 
L 78.949131 -138.071617 
L 79.072826 -137.479127 
L 79.217104 -136.886637 
L 79.369548 -136.294147 
L 79.519455 -135.701657 
L 79.66385 -135.109167 
L 79.808197 -134.516677 
L 79.961907 -133.924187 
L 80.133006 -133.331698 
L 80.325546 -132.739208 
L 80.539444 -132.146718 
L 80.771206 -131.554228 
L 81.015589 -130.961738 
L 81.268234 -130.369248 
L 81.527321 -129.776758 
L 81.792907 -129.184268 
L 82.065608 -128.591778 
L 82.346472 -127.999288 
L 82.637074 -127.406799 
L 82.938266 -126.814309 
L 83.248561 -126.221819 
L 83.563865 -125.629329 
L 83.877886 -125.036839 
L 84.18178 -124.444349 
L 84.463663 -123.851859 
L 84.709757 -123.259369 
L 84.907289 -122.666879 
L 85.048099 -122.074389 
L 85.132413 -121.4819 
L 85.171673 -120.88941 
L 85.186975 -120.29692 
L 85.200677 -119.70443 
L 85.224974 -119.11194 
L 85.255633 -118.51945 
L 85.275 -117.92696 
L 85.26036 -117.33447 
L 85.191605 -116.74198 
L 85.056254 -116.149491 
L 84.852485 -115.557001 
L 84.589435 -114.964511 
L 84.283627 -114.372021 
L 83.953314 -113.779531 
L 83.614466 -113.187041 
L 83.279768 -112.594551 
L 82.958629 -112.002061 
L 82.656227 -111.409571 
L 82.372154 -110.817081 
L 82.100518 -110.224592 
L 81.832233 -109.632102 
L 81.558903 -109.039612 
L 81.27711 -108.447122 
L 80.991145 -107.854632 
L 80.711714 -107.262142 
L 80.450288 -106.669652 
L 80.21285 -106.077162 
L 79.998112 -105.484672 
L 79.801315 -104.892182 
L 79.619465 -104.299693 
L 79.453158 -103.707203 
L 79.304202 -103.114713 
L 79.172311 -102.522223 
L 79.054356 -101.929733 
L 78.94647 -101.337243 
L 78.846534 -100.744753 
L 78.754727 -100.152263 
L 78.672182 -99.559773 
L 78.599505 -98.967283 
L 78.536467 -98.374794 
L 78.48263 -97.782304 
L 78.437895 -97.189814 
L 78.402422 -96.597324 
L 78.376097 -96.004834 
L 78.357985 -95.412344 
L 78.346166 -94.819854 
L 78.338131 -94.227364 
L 78.33158 -93.634874 
L 78.325141 -93.042384 
z
"/>
    </defs>
    <g clip-path="url(#p11debb4312)">
     <use xlink:href="#m0eb3f95d65" x="0" y="180" style="fill: #2e8b57; fill-opacity: 0.4"/>
    </g>
   </g>
   <g id="PolyCollection_3">
    <defs>
     <path id="m15624622ae" d="M 106.207921 -115.411801 
L 106.200151 -115.411801 
L 106.200151 -115.782389 
L 106.200151 -116.152977 
L 106.200151 -116.523565 
L 106.200151 -116.894153 
L 106.200151 -117.264741 
L 106.200151 -117.635329 
L 106.200151 -118.005917 
L 106.200151 -118.376504 
L 106.200151 -118.747092 
L 106.200151 -119.11768 
L 106.200151 -119.488268 
L 106.200151 -119.858856 
L 106.200151 -120.229444 
L 106.200151 -120.600032 
L 106.200151 -120.970619 
L 106.200151 -121.341207 
L 106.200151 -121.711795 
L 106.200151 -122.082383 
L 106.200151 -122.452971 
L 106.200151 -122.823559 
L 106.200151 -123.194147 
L 106.200151 -123.564734 
L 106.200151 -123.935322 
L 106.200151 -124.30591 
L 106.200151 -124.676498 
L 106.200151 -125.047086 
L 106.200151 -125.417674 
L 106.200151 -125.788262 
L 106.200151 -126.15885 
L 106.200151 -126.529437 
L 106.200151 -126.900025 
L 106.200151 -127.270613 
L 106.200151 -127.641201 
L 106.200151 -128.011789 
L 106.200151 -128.382377 
L 106.200151 -128.752965 
L 106.200151 -129.123552 
L 106.200151 -129.49414 
L 106.200151 -129.864728 
L 106.200151 -130.235316 
L 106.200151 -130.605904 
L 106.200151 -130.976492 
L 106.200151 -131.34708 
L 106.200151 -131.717667 
L 106.200151 -132.088255 
L 106.200151 -132.458843 
L 106.200151 -132.829431 
L 106.200151 -133.200019 
L 106.200151 -133.570607 
L 106.200151 -133.941195 
L 106.200151 -134.311783 
L 106.200151 -134.68237 
L 106.200151 -135.052958 
L 106.200151 -135.423546 
L 106.200151 -135.794134 
L 106.200151 -136.164722 
L 106.200151 -136.53531 
L 106.200151 -136.905898 
L 106.200151 -137.276485 
L 106.200151 -137.647073 
L 106.200151 -138.017661 
L 106.200151 -138.388249 
L 106.200151 -138.758837 
L 106.200151 -139.129425 
L 106.200151 -139.500013 
L 106.200151 -139.8706 
L 106.200151 -140.241188 
L 106.200151 -140.611776 
L 106.200151 -140.982364 
L 106.200151 -141.352952 
L 106.200151 -141.72354 
L 106.200151 -142.094128 
L 106.200151 -142.464716 
L 106.200151 -142.835303 
L 106.200151 -143.205891 
L 106.200151 -143.576479 
L 106.200151 -143.947067 
L 106.200151 -144.317655 
L 106.200151 -144.688243 
L 106.200151 -145.058831 
L 106.200151 -145.429418 
L 106.200151 -145.800006 
L 106.200151 -146.170594 
L 106.200151 -146.541182 
L 106.200151 -146.91177 
L 106.200151 -147.282358 
L 106.200151 -147.652946 
L 106.200151 -148.023533 
L 106.200151 -148.394121 
L 106.200151 -148.764709 
L 106.200151 -149.135297 
L 106.200151 -149.505885 
L 106.200151 -149.876473 
L 106.200151 -150.247061 
L 106.200151 -150.617649 
L 106.200151 -150.988236 
L 106.200151 -151.358824 
L 106.200151 -151.729412 
L 106.200151 -152.1 
L 106.214792 -152.1 
L 106.214792 -152.1 
L 106.218707 -151.729412 
L 106.221832 -151.358824 
L 106.224093 -150.988236 
L 106.226436 -150.617649 
L 106.231228 -150.247061 
L 106.241792 -149.876473 
L 106.261021 -149.505885 
L 106.289755 -149.135297 
L 106.326014 -148.764709 
L 106.365977 -148.394121 
L 106.406813 -148.023533 
L 106.449831 -147.652946 
L 106.501121 -147.282358 
L 106.568074 -146.91177 
L 106.654113 -146.541182 
L 106.756247 -146.170594 
L 106.867442 -145.800006 
L 106.98142 -145.429418 
L 107.095932 -145.058831 
L 107.212728 -144.688243 
L 107.335977 -144.317655 
L 107.47214 -143.947067 
L 107.63104 -143.576479 
L 107.824521 -143.205891 
L 108.061427 -142.835303 
L 108.342461 -142.464716 
L 108.659125 -142.094128 
L 108.997952 -141.72354 
L 109.347903 -141.352952 
L 109.70549 -140.982364 
L 110.072399 -140.611776 
L 110.447408 -140.241188 
L 110.820841 -139.8706 
L 111.17719 -139.500013 
L 111.504146 -139.129425 
L 111.80095 -138.758837 
L 112.077887 -138.388249 
L 112.345047 -138.017661 
L 112.599681 -137.647073 
L 112.824662 -137.276485 
L 112.999538 -136.905898 
L 113.112967 -136.53531 
L 113.166976 -136.164722 
L 113.175 -135.794134 
L 113.157278 -135.423546 
L 113.130582 -135.052958 
L 113.095038 -134.68237 
L 113.032805 -134.311783 
L 112.924191 -133.941195 
L 112.763853 -133.570607 
L 112.559933 -133.200019 
L 112.322106 -132.829431 
L 112.054136 -132.458843 
L 111.754052 -132.088255 
L 111.416898 -131.717667 
L 111.039607 -131.34708 
L 110.628501 -130.976492 
L 110.203428 -130.605904 
L 109.792705 -130.235316 
L 109.42202 -129.864728 
L 109.105445 -129.49414 
L 108.84224 -129.123552 
L 108.617708 -128.752965 
L 108.408038 -128.382377 
L 108.191672 -128.011789 
L 107.962648 -127.641201 
L 107.733265 -127.270613 
L 107.521915 -126.900025 
L 107.338765 -126.529437 
L 107.182506 -126.15885 
L 107.046558 -125.788262 
L 106.924905 -125.417674 
L 106.813322 -125.047086 
L 106.708938 -124.676498 
L 106.611011 -124.30591 
L 106.521889 -123.935322 
L 106.445908 -123.564734 
L 106.386453 -123.194147 
L 106.343422 -122.823559 
L 106.312957 -122.452971 
L 106.289562 -122.082383 
L 106.269132 -121.711795 
L 106.250595 -121.341207 
L 106.235039 -120.970619 
L 106.22352 -120.600032 
L 106.215733 -120.229444 
L 106.21043 -119.858856 
L 106.206543 -119.488268 
L 106.203672 -119.11768 
L 106.201772 -118.747092 
L 106.200728 -118.376504 
L 106.200299 -118.005917 
L 106.200285 -117.635329 
L 106.20067 -117.264741 
L 106.201609 -116.894153 
L 106.203229 -116.523565 
L 106.205316 -116.152977 
L 106.207169 -115.782389 
L 106.207921 -115.411801 
z
"/>
    </defs>
    <g clip-path="url(#p11debb4312)">
     <use xlink:href="#m15624622ae" x="0" y="180" style="fill: #ff4500; fill-opacity: 0.4"/>
    </g>
   </g>
   <g id="PolyCollection_4">
    <defs>
     <path id="m215bf16aa5" d="M 134.107736 -32.690562 
L 134.100148 -32.690562 
L 134.100148 -33.749551 
L 134.100148 -34.808539 
L 134.100148 -35.867527 
L 134.100148 -36.926515 
L 134.100148 -37.985504 
L 134.100148 -39.044492 
L 134.100148 -40.10348 
L 134.100148 -41.162468 
L 134.100148 -42.221457 
L 134.100148 -43.280445 
L 134.100148 -44.339433 
L 134.100148 -45.398421 
L 134.100148 -46.45741 
L 134.100148 -47.516398 
L 134.100148 -48.575386 
L 134.100148 -49.634374 
L 134.100148 -50.693363 
L 134.100148 -51.752351 
L 134.100148 -52.811339 
L 134.100148 -53.870327 
L 134.100148 -54.929316 
L 134.100148 -55.988304 
L 134.100148 -57.047292 
L 134.100148 -58.10628 
L 134.100148 -59.165269 
L 134.100148 -60.224257 
L 134.100148 -61.283245 
L 134.100148 -62.342233 
L 134.100148 -63.401222 
L 134.100148 -64.46021 
L 134.100148 -65.519198 
L 134.100148 -66.578186 
L 134.100148 -67.637175 
L 134.100148 -68.696163 
L 134.100148 -69.755151 
L 134.100148 -70.814139 
L 134.100148 -71.873128 
L 134.100148 -72.932116 
L 134.100148 -73.991104 
L 134.100148 -75.050092 
L 134.100148 -76.109081 
L 134.100148 -77.168069 
L 134.100148 -78.227057 
L 134.100148 -79.286045 
L 134.100148 -80.345034 
L 134.100148 -81.404022 
L 134.100148 -82.46301 
L 134.100148 -83.521998 
L 134.100148 -84.580987 
L 134.100148 -85.639975 
L 134.100148 -86.698963 
L 134.100148 -87.757951 
L 134.100148 -88.81694 
L 134.100148 -89.875928 
L 134.100148 -90.934916 
L 134.100148 -91.993904 
L 134.100148 -93.052893 
L 134.100148 -94.111881 
L 134.100148 -95.170869 
L 134.100148 -96.229857 
L 134.100148 -97.288846 
L 134.100148 -98.347834 
L 134.100148 -99.406822 
L 134.100148 -100.46581 
L 134.100148 -101.524799 
L 134.100148 -102.583787 
L 134.100148 -103.642775 
L 134.100148 -104.701763 
L 134.100148 -105.760751 
L 134.100148 -106.81974 
L 134.100148 -107.878728 
L 134.100148 -108.937716 
L 134.100148 -109.996704 
L 134.100148 -111.055693 
L 134.100148 -112.114681 
L 134.100148 -113.173669 
L 134.100148 -114.232657 
L 134.100148 -115.291646 
L 134.100148 -116.350634 
L 134.100148 -117.409622 
L 134.100148 -118.46861 
L 134.100148 -119.527599 
L 134.100148 -120.586587 
L 134.100148 -121.645575 
L 134.100148 -122.704563 
L 134.100148 -123.763552 
L 134.100148 -124.82254 
L 134.100148 -125.881528 
L 134.100148 -126.940516 
L 134.100148 -127.999505 
L 134.100148 -129.058493 
L 134.100148 -130.117481 
L 134.100148 -131.176469 
L 134.100148 -132.235458 
L 134.100148 -133.294446 
L 134.100148 -134.353434 
L 134.100148 -135.412422 
L 134.100148 -136.471411 
L 134.100148 -137.530399 
L 134.114499 -137.530399 
L 134.114499 -137.530399 
L 134.114633 -136.471411 
L 134.112024 -135.412422 
L 134.108042 -134.353434 
L 134.104387 -133.294446 
L 134.102006 -132.235458 
L 134.100989 -131.176469 
L 134.101166 -130.117481 
L 134.102618 -129.058493 
L 134.105676 -127.999505 
L 134.110515 -126.940516 
L 134.116864 -125.881528 
L 134.124308 -124.82254 
L 134.132902 -123.763552 
L 134.143161 -122.704563 
L 134.15524 -121.645575 
L 134.168409 -120.586587 
L 134.18195 -119.527599 
L 134.19689 -118.46861 
L 134.216577 -117.409622 
L 134.244975 -116.350634 
L 134.284043 -115.291646 
L 134.332829 -114.232657 
L 134.389501 -113.173669 
L 134.454894 -112.114681 
L 134.534499 -111.055693 
L 134.636413 -109.996704 
L 134.765887 -108.937716 
L 134.920404 -107.878728 
L 135.089913 -106.81974 
L 135.263498 -105.760751 
L 135.438022 -104.701763 
L 135.621685 -103.642775 
L 135.830043 -102.583787 
L 136.077742 -101.524799 
L 136.370263 -100.46581 
L 136.699856 -99.406822 
L 137.049693 -98.347834 
L 137.404068 -97.288846 
L 137.754578 -96.229857 
L 138.097342 -95.170869 
L 138.430333 -94.111881 
L 138.758482 -93.052893 
L 139.096088 -91.993904 
L 139.453442 -90.934916 
L 139.817802 -89.875928 
L 140.15376 -88.81694 
L 140.427978 -87.757951 
L 140.633442 -86.698963 
L 140.789053 -85.639975 
L 140.917238 -84.580987 
L 141.020383 -83.521998 
L 141.075 -82.46301 
L 141.049798 -81.404022 
L 140.934511 -80.345034 
L 140.753566 -79.286045 
L 140.550988 -78.227057 
L 140.359606 -77.168069 
L 140.180901 -76.109081 
L 139.991721 -75.050092 
L 139.769091 -73.991104 
L 139.506579 -72.932116 
L 139.208431 -71.873128 
L 138.87759 -70.814139 
L 138.517714 -69.755151 
L 138.143703 -68.696163 
L 137.780824 -67.637175 
L 137.448405 -66.578186 
L 137.145375 -65.519198 
L 136.854632 -64.46021 
L 136.562466 -63.401222 
L 136.271517 -62.342233 
L 135.993029 -61.283245 
L 135.730366 -60.224257 
L 135.476346 -59.165269 
L 135.226528 -58.10628 
L 134.990203 -57.047292 
L 134.787396 -55.988304 
L 134.637047 -54.929316 
L 134.545841 -53.870327 
L 134.502904 -52.811339 
L 134.483186 -51.752351 
L 134.459651 -50.693363 
L 134.417546 -49.634374 
L 134.359816 -48.575386 
L 134.299851 -47.516398 
L 134.249848 -46.45741 
L 134.214935 -45.398421 
L 134.193874 -44.339433 
L 134.181378 -43.280445 
L 134.170548 -42.221457 
L 134.156555 -41.162468 
L 134.139519 -40.10348 
L 134.123342 -39.044492 
L 134.111751 -37.985504 
L 134.1058 -36.926515 
L 134.104316 -35.867527 
L 134.105354 -34.808539 
L 134.106998 -33.749551 
L 134.107736 -32.690562 
z
"/>
    </defs>
    <g clip-path="url(#p11debb4312)">
     <use xlink:href="#m215bf16aa5" x="0" y="180" style="fill: #2e8b57; fill-opacity: 0.4"/>
    </g>
   </g>
   <g id="PolyCollection_5">
    <path d="M 22.5 70.374037 
L 22.5 81.194096 
L 22.779 81.194096 
L 23.058 81.194096 
L 23.337 81.194096 
L 23.616 81.194096 
L 23.895 81.194096 
L 24.174 81.194096 
L 24.453 81.194096 
L 24.732 81.194096 
L 25.011 81.194096 
L 25.29 81.194096 
L 25.569 81.194096 
L 25.848 81.194096 
L 26.127 81.194096 
L 26.406 81.194096 
L 26.685 81.194096 
L 26.964 81.194096 
L 27.243 81.194096 
L 27.522 81.194096 
L 27.801 81.194096 
L 28.08 81.194096 
L 28.359 81.194096 
L 28.638 81.194096 
L 28.917 81.194096 
L 29.196 81.194096 
L 29.475 81.194096 
L 29.754 81.194096 
L 30.033 81.194096 
L 30.312 81.194096 
L 30.591 81.194096 
L 30.87 81.194096 
L 31.149 81.194096 
L 31.428 81.194096 
L 31.707 81.194096 
L 31.986 81.194096 
L 32.265 81.194096 
L 32.544 81.194096 
L 32.823 81.194096 
L 33.102 81.194096 
L 33.381 81.194096 
L 33.66 81.194096 
L 33.939 81.194096 
L 34.218 81.194096 
L 34.497 81.194096 
L 34.776 81.194096 
L 35.055 81.194096 
L 35.334 81.194096 
L 35.613 81.194096 
L 35.892 81.194096 
L 36.171 81.194096 
L 36.45 81.194096 
L 36.729 81.194096 
L 37.008 81.194096 
L 37.287 81.194096 
L 37.566 81.194096 
L 37.845 81.194096 
L 38.124 81.194096 
L 38.403 81.194096 
L 38.682 81.194096 
L 38.961 81.194096 
L 39.24 81.194096 
L 39.519 81.194096 
L 39.798 81.194096 
L 40.077 81.194096 
L 40.356 81.194096 
L 40.635 81.194096 
L 40.914 81.194096 
L 41.193 81.194096 
L 41.472 81.194096 
L 41.751 81.194096 
L 42.03 81.194096 
L 42.309 81.194096 
L 42.588 81.194096 
L 42.867 81.194096 
L 43.146 81.194096 
L 43.425 81.194096 
L 43.704 81.194096 
L 43.983 81.194096 
L 44.262 81.194096 
L 44.541 81.194096 
L 44.82 81.194096 
L 45.099 81.194096 
L 45.378 81.194096 
L 45.657 81.194096 
L 45.936 81.194096 
L 46.215 81.194096 
L 46.494 81.194096 
L 46.773 81.194096 
L 47.052 81.194096 
L 47.331 81.194096 
L 47.61 81.194096 
L 47.889 81.194096 
L 48.168 81.194096 
L 48.447 81.194096 
L 48.726 81.194096 
L 49.005 81.194096 
L 49.284 81.194096 
L 49.563 81.194096 
L 49.842 81.194096 
L 50.121 81.194096 
L 50.4 81.194096 
L 50.679 81.194096 
L 50.958 81.194096 
L 51.237 81.194096 
L 51.516 81.194096 
L 51.795 81.194096 
L 52.074 81.194096 
L 52.353 81.194096 
L 52.632 81.194096 
L 52.911 81.194096 
L 53.19 81.194096 
L 53.469 81.194096 
L 53.748 81.194096 
L 54.027 81.194096 
L 54.306 81.194096 
L 54.585 81.194096 
L 54.864 81.194096 
L 55.143 81.194096 
L 55.422 81.194096 
L 55.701 81.194096 
L 55.98 81.194096 
L 56.259 81.194096 
L 56.538 81.194096 
L 56.817 81.194096 
L 57.096 81.194096 
L 57.375 81.194096 
L 57.654 81.194096 
L 57.933 81.194096 
L 58.212 81.194096 
L 58.491 81.194096 
L 58.77 81.194096 
L 59.049 81.194096 
L 59.328 81.194096 
L 59.607 81.194096 
L 59.886 81.194096 
L 60.165 81.194096 
L 60.444 81.194096 
L 60.723 81.194096 
L 61.002 81.194096 
L 61.281 81.194096 
L 61.56 81.194096 
L 61.839 81.194096 
L 62.118 81.194096 
L 62.397 81.194096 
L 62.676 81.194096 
L 62.955 81.194096 
L 63.234 81.194096 
L 63.513 81.194096 
L 63.792 81.194096 
L 64.071 81.194096 
L 64.35 81.194096 
L 64.629 81.194096 
L 64.908 81.194096 
L 65.187 81.194096 
L 65.466 81.194096 
L 65.745 81.194096 
L 66.024 81.194096 
L 66.303 81.194096 
L 66.582 81.194096 
L 66.861 81.194096 
L 67.14 81.194096 
L 67.419 81.194096 
L 67.698 81.194096 
L 67.977 81.194096 
L 68.256 81.194096 
L 68.535 81.194096 
L 68.814 81.194096 
L 69.093 81.194096 
L 69.372 81.194096 
L 69.651 81.194096 
L 69.93 81.194096 
L 70.209 81.194096 
L 70.488 81.194096 
L 70.767 81.194096 
L 71.046 81.194096 
L 71.325 81.194096 
L 71.604 81.194096 
L 71.883 81.194096 
L 72.162 81.194096 
L 72.441 81.194096 
L 72.72 81.194096 
L 72.999 81.194096 
L 73.278 81.194096 
L 73.557 81.194096 
L 73.836 81.194096 
L 74.115 81.194096 
L 74.394 81.194096 
L 74.673 81.194096 
L 74.952 81.194096 
L 75.231 81.194096 
L 75.51 81.194096 
L 75.789 81.194096 
L 76.068 81.194096 
L 76.347 81.194096 
L 76.626 81.194096 
L 76.905 81.194096 
L 77.184 81.194096 
L 77.463 81.194096 
L 77.742 81.194096 
L 78.021 81.194096 
L 78.3 81.194096 
L 78.579 81.194096 
L 78.858 81.194096 
L 79.137 81.194096 
L 79.416 81.194096 
L 79.695 81.194096 
L 79.974 81.194096 
L 80.253 81.194096 
L 80.532 81.194096 
L 80.811 81.194096 
L 81.09 81.194096 
L 81.369 81.194096 
L 81.648 81.194096 
L 81.927 81.194096 
L 82.206 81.194096 
L 82.485 81.194096 
L 82.764 81.194096 
L 83.043 81.194096 
L 83.322 81.194096 
L 83.601 81.194096 
L 83.88 81.194096 
L 84.159 81.194096 
L 84.438 81.194096 
L 84.717 81.194096 
L 84.996 81.194096 
L 85.275 81.194096 
L 85.554 81.194096 
L 85.833 81.194096 
L 86.112 81.194096 
L 86.391 81.194096 
L 86.67 81.194096 
L 86.949 81.194096 
L 87.228 81.194096 
L 87.507 81.194096 
L 87.786 81.194096 
L 88.065 81.194096 
L 88.344 81.194096 
L 88.623 81.194096 
L 88.902 81.194096 
L 89.181 81.194096 
L 89.46 81.194096 
L 89.739 81.194096 
L 90.018 81.194096 
L 90.297 81.194096 
L 90.576 81.194096 
L 90.855 81.194096 
L 91.134 81.194096 
L 91.413 81.194096 
L 91.692 81.194096 
L 91.971 81.194096 
L 92.25 81.194096 
L 92.529 81.194096 
L 92.808 81.194096 
L 93.087 81.194096 
L 93.366 81.194096 
L 93.645 81.194096 
L 93.924 81.194096 
L 94.203 81.194096 
L 94.482 81.194096 
L 94.761 81.194096 
L 95.04 81.194096 
L 95.319 81.194096 
L 95.598 81.194096 
L 95.877 81.194096 
L 96.156 81.194096 
L 96.435 81.194096 
L 96.714 81.194096 
L 96.993 81.194096 
L 97.272 81.194096 
L 97.551 81.194096 
L 97.83 81.194096 
L 98.109 81.194096 
L 98.388 81.194096 
L 98.667 81.194096 
L 98.946 81.194096 
L 99.225 81.194096 
L 99.504 81.194096 
L 99.783 81.194096 
L 100.062 81.194096 
L 100.341 81.194096 
L 100.62 81.194096 
L 100.899 81.194096 
L 101.178 81.194096 
L 101.457 81.194096 
L 101.736 81.194096 
L 102.015 81.194096 
L 102.294 81.194096 
L 102.573 81.194096 
L 102.852 81.194096 
L 103.131 81.194096 
L 103.41 81.194096 
L 103.689 81.194096 
L 103.968 81.194096 
L 104.247 81.194096 
L 104.526 81.194096 
L 104.805 81.194096 
L 105.084 81.194096 
L 105.363 81.194096 
L 105.642 81.194096 
L 105.921 81.194096 
L 106.2 81.194096 
L 106.479 81.194096 
L 106.758 81.194096 
L 107.037 81.194096 
L 107.316 81.194096 
L 107.595 81.194096 
L 107.874 81.194096 
L 108.153 81.194096 
L 108.432 81.194096 
L 108.711 81.194096 
L 108.99 81.194096 
L 109.269 81.194096 
L 109.548 81.194096 
L 109.827 81.194096 
L 110.106 81.194096 
L 110.385 81.194096 
L 110.664 81.194096 
L 110.943 81.194096 
L 111.222 81.194096 
L 111.501 81.194096 
L 111.78 81.194096 
L 112.059 81.194096 
L 112.338 81.194096 
L 112.617 81.194096 
L 112.896 81.194096 
L 113.175 81.194096 
L 113.454 81.194096 
L 113.733 81.194096 
L 114.012 81.194096 
L 114.291 81.194096 
L 114.57 81.194096 
L 114.849 81.194096 
L 115.128 81.194096 
L 115.407 81.194096 
L 115.686 81.194096 
L 115.965 81.194096 
L 116.244 81.194096 
L 116.523 81.194096 
L 116.802 81.194096 
L 117.081 81.194096 
L 117.36 81.194096 
L 117.639 81.194096 
L 117.918 81.194096 
L 118.197 81.194096 
L 118.476 81.194096 
L 118.755 81.194096 
L 119.034 81.194096 
L 119.313 81.194096 
L 119.592 81.194096 
L 119.871 81.194096 
L 120.15 81.194096 
L 120.429 81.194096 
L 120.708 81.194096 
L 120.987 81.194096 
L 121.266 81.194096 
L 121.545 81.194096 
L 121.824 81.194096 
L 122.103 81.194096 
L 122.382 81.194096 
L 122.661 81.194096 
L 122.94 81.194096 
L 123.219 81.194096 
L 123.498 81.194096 
L 123.777 81.194096 
L 124.056 81.194096 
L 124.335 81.194096 
L 124.614 81.194096 
L 124.893 81.194096 
L 125.172 81.194096 
L 125.451 81.194096 
L 125.73 81.194096 
L 126.009 81.194096 
L 126.288 81.194096 
L 126.567 81.194096 
L 126.846 81.194096 
L 127.125 81.194096 
L 127.404 81.194096 
L 127.683 81.194096 
L 127.962 81.194096 
L 128.241 81.194096 
L 128.52 81.194096 
L 128.799 81.194096 
L 129.078 81.194096 
L 129.357 81.194096 
L 129.636 81.194096 
L 129.915 81.194096 
L 130.194 81.194096 
L 130.473 81.194096 
L 130.752 81.194096 
L 131.031 81.194096 
L 131.31 81.194096 
L 131.589 81.194096 
L 131.868 81.194096 
L 132.147 81.194096 
L 132.426 81.194096 
L 132.705 81.194096 
L 132.984 81.194096 
L 133.263 81.194096 
L 133.542 81.194096 
L 133.821 81.194096 
L 134.1 81.194096 
L 134.379 81.194096 
L 134.658 81.194096 
L 134.937 81.194096 
L 135.216 81.194096 
L 135.495 81.194096 
L 135.774 81.194096 
L 136.053 81.194096 
L 136.332 81.194096 
L 136.611 81.194096 
L 136.89 81.194096 
L 137.169 81.194096 
L 137.448 81.194096 
L 137.727 81.194096 
L 138.006 81.194096 
L 138.285 81.194096 
L 138.564 81.194096 
L 138.843 81.194096 
L 139.122 81.194096 
L 139.401 81.194096 
L 139.68 81.194096 
L 139.959 81.194096 
L 140.238 81.194096 
L 140.517 81.194096 
L 140.796 81.194096 
L 141.075 81.194096 
L 141.354 81.194096 
L 141.633 81.194096 
L 141.912 81.194096 
L 142.191 81.194096 
L 142.47 81.194096 
L 142.749 81.194096 
L 143.028 81.194096 
L 143.307 81.194096 
L 143.586 81.194096 
L 143.865 81.194096 
L 144.144 81.194096 
L 144.423 81.194096 
L 144.702 81.194096 
L 144.981 81.194096 
L 145.26 81.194096 
L 145.539 81.194096 
L 145.818 81.194096 
L 146.097 81.194096 
L 146.376 81.194096 
L 146.655 81.194096 
L 146.934 81.194096 
L 147.213 81.194096 
L 147.492 81.194096 
L 147.771 81.194096 
L 148.05 81.194096 
L 148.329 81.194096 
L 148.608 81.194096 
L 148.887 81.194096 
L 149.166 81.194096 
L 149.445 81.194096 
L 149.724 81.194096 
L 150.003 81.194096 
L 150.282 81.194096 
L 150.561 81.194096 
L 150.84 81.194096 
L 151.119 81.194096 
L 151.398 81.194096 
L 151.677 81.194096 
L 151.956 81.194096 
L 152.235 81.194096 
L 152.514 81.194096 
L 152.793 81.194096 
L 153.072 81.194096 
L 153.351 81.194096 
L 153.63 81.194096 
L 153.909 81.194096 
L 154.188 81.194096 
L 154.467 81.194096 
L 154.746 81.194096 
L 155.025 81.194096 
L 155.304 81.194096 
L 155.583 81.194096 
L 155.862 81.194096 
L 156.141 81.194096 
L 156.42 81.194096 
L 156.699 81.194096 
L 156.978 81.194096 
L 157.257 81.194096 
L 157.536 81.194096 
L 157.815 81.194096 
L 158.094 81.194096 
L 158.373 81.194096 
L 158.652 81.194096 
L 158.931 81.194096 
L 159.21 81.194096 
L 159.489 81.194096 
L 159.768 81.194096 
L 160.047 81.194096 
L 160.326 81.194096 
L 160.605 81.194096 
L 160.884 81.194096 
L 161.163 81.194096 
L 161.442 81.194096 
L 161.721 81.194096 
L 161.721 70.374037 
L 161.721 70.374037 
L 161.442 70.374037 
L 161.163 70.374037 
L 160.884 70.374037 
L 160.605 70.374037 
L 160.326 70.374037 
L 160.047 70.374037 
L 159.768 70.374037 
L 159.489 70.374037 
L 159.21 70.374037 
L 158.931 70.374037 
L 158.652 70.374037 
L 158.373 70.374037 
L 158.094 70.374037 
L 157.815 70.374037 
L 157.536 70.374037 
L 157.257 70.374037 
L 156.978 70.374037 
L 156.699 70.374037 
L 156.42 70.374037 
L 156.141 70.374037 
L 155.862 70.374037 
L 155.583 70.374037 
L 155.304 70.374037 
L 155.025 70.374037 
L 154.746 70.374037 
L 154.467 70.374037 
L 154.188 70.374037 
L 153.909 70.374037 
L 153.63 70.374037 
L 153.351 70.374037 
L 153.072 70.374037 
L 152.793 70.374037 
L 152.514 70.374037 
L 152.235 70.374037 
L 151.956 70.374037 
L 151.677 70.374037 
L 151.398 70.374037 
L 151.119 70.374037 
L 150.84 70.374037 
L 150.561 70.374037 
L 150.282 70.374037 
L 150.003 70.374037 
L 149.724 70.374037 
L 149.445 70.374037 
L 149.166 70.374037 
L 148.887 70.374037 
L 148.608 70.374037 
L 148.329 70.374037 
L 148.05 70.374037 
L 147.771 70.374037 
L 147.492 70.374037 
L 147.213 70.374037 
L 146.934 70.374037 
L 146.655 70.374037 
L 146.376 70.374037 
L 146.097 70.374037 
L 145.818 70.374037 
L 145.539 70.374037 
L 145.26 70.374037 
L 144.981 70.374037 
L 144.702 70.374037 
L 144.423 70.374037 
L 144.144 70.374037 
L 143.865 70.374037 
L 143.586 70.374037 
L 143.307 70.374037 
L 143.028 70.374037 
L 142.749 70.374037 
L 142.47 70.374037 
L 142.191 70.374037 
L 141.912 70.374037 
L 141.633 70.374037 
L 141.354 70.374037 
L 141.075 70.374037 
L 140.796 70.374037 
L 140.517 70.374037 
L 140.238 70.374037 
L 139.959 70.374037 
L 139.68 70.374037 
L 139.401 70.374037 
L 139.122 70.374037 
L 138.843 70.374037 
L 138.564 70.374037 
L 138.285 70.374037 
L 138.006 70.374037 
L 137.727 70.374037 
L 137.448 70.374037 
L 137.169 70.374037 
L 136.89 70.374037 
L 136.611 70.374037 
L 136.332 70.374037 
L 136.053 70.374037 
L 135.774 70.374037 
L 135.495 70.374037 
L 135.216 70.374037 
L 134.937 70.374037 
L 134.658 70.374037 
L 134.379 70.374037 
L 134.1 70.374037 
L 133.821 70.374037 
L 133.542 70.374037 
L 133.263 70.374037 
L 132.984 70.374037 
L 132.705 70.374037 
L 132.426 70.374037 
L 132.147 70.374037 
L 131.868 70.374037 
L 131.589 70.374037 
L 131.31 70.374037 
L 131.031 70.374037 
L 130.752 70.374037 
L 130.473 70.374037 
L 130.194 70.374037 
L 129.915 70.374037 
L 129.636 70.374037 
L 129.357 70.374037 
L 129.078 70.374037 
L 128.799 70.374037 
L 128.52 70.374037 
L 128.241 70.374037 
L 127.962 70.374037 
L 127.683 70.374037 
L 127.404 70.374037 
L 127.125 70.374037 
L 126.846 70.374037 
L 126.567 70.374037 
L 126.288 70.374037 
L 126.009 70.374037 
L 125.73 70.374037 
L 125.451 70.374037 
L 125.172 70.374037 
L 124.893 70.374037 
L 124.614 70.374037 
L 124.335 70.374037 
L 124.056 70.374037 
L 123.777 70.374037 
L 123.498 70.374037 
L 123.219 70.374037 
L 122.94 70.374037 
L 122.661 70.374037 
L 122.382 70.374037 
L 122.103 70.374037 
L 121.824 70.374037 
L 121.545 70.374037 
L 121.266 70.374037 
L 120.987 70.374037 
L 120.708 70.374037 
L 120.429 70.374037 
L 120.15 70.374037 
L 119.871 70.374037 
L 119.592 70.374037 
L 119.313 70.374037 
L 119.034 70.374037 
L 118.755 70.374037 
L 118.476 70.374037 
L 118.197 70.374037 
L 117.918 70.374037 
L 117.639 70.374037 
L 117.36 70.374037 
L 117.081 70.374037 
L 116.802 70.374037 
L 116.523 70.374037 
L 116.244 70.374037 
L 115.965 70.374037 
L 115.686 70.374037 
L 115.407 70.374037 
L 115.128 70.374037 
L 114.849 70.374037 
L 114.57 70.374037 
L 114.291 70.374037 
L 114.012 70.374037 
L 113.733 70.374037 
L 113.454 70.374037 
L 113.175 70.374037 
L 112.896 70.374037 
L 112.617 70.374037 
L 112.338 70.374037 
L 112.059 70.374037 
L 111.78 70.374037 
L 111.501 70.374037 
L 111.222 70.374037 
L 110.943 70.374037 
L 110.664 70.374037 
L 110.385 70.374037 
L 110.106 70.374037 
L 109.827 70.374037 
L 109.548 70.374037 
L 109.269 70.374037 
L 108.99 70.374037 
L 108.711 70.374037 
L 108.432 70.374037 
L 108.153 70.374037 
L 107.874 70.374037 
L 107.595 70.374037 
L 107.316 70.374037 
L 107.037 70.374037 
L 106.758 70.374037 
L 106.479 70.374037 
L 106.2 70.374037 
L 105.921 70.374037 
L 105.642 70.374037 
L 105.363 70.374037 
L 105.084 70.374037 
L 104.805 70.374037 
L 104.526 70.374037 
L 104.247 70.374037 
L 103.968 70.374037 
L 103.689 70.374037 
L 103.41 70.374037 
L 103.131 70.374037 
L 102.852 70.374037 
L 102.573 70.374037 
L 102.294 70.374037 
L 102.015 70.374037 
L 101.736 70.374037 
L 101.457 70.374037 
L 101.178 70.374037 
L 100.899 70.374037 
L 100.62 70.374037 
L 100.341 70.374037 
L 100.062 70.374037 
L 99.783 70.374037 
L 99.504 70.374037 
L 99.225 70.374037 
L 98.946 70.374037 
L 98.667 70.374037 
L 98.388 70.374037 
L 98.109 70.374037 
L 97.83 70.374037 
L 97.551 70.374037 
L 97.272 70.374037 
L 96.993 70.374037 
L 96.714 70.374037 
L 96.435 70.374037 
L 96.156 70.374037 
L 95.877 70.374037 
L 95.598 70.374037 
L 95.319 70.374037 
L 95.04 70.374037 
L 94.761 70.374037 
L 94.482 70.374037 
L 94.203 70.374037 
L 93.924 70.374037 
L 93.645 70.374037 
L 93.366 70.374037 
L 93.087 70.374037 
L 92.808 70.374037 
L 92.529 70.374037 
L 92.25 70.374037 
L 91.971 70.374037 
L 91.692 70.374037 
L 91.413 70.374037 
L 91.134 70.374037 
L 90.855 70.374037 
L 90.576 70.374037 
L 90.297 70.374037 
L 90.018 70.374037 
L 89.739 70.374037 
L 89.46 70.374037 
L 89.181 70.374037 
L 88.902 70.374037 
L 88.623 70.374037 
L 88.344 70.374037 
L 88.065 70.374037 
L 87.786 70.374037 
L 87.507 70.374037 
L 87.228 70.374037 
L 86.949 70.374037 
L 86.67 70.374037 
L 86.391 70.374037 
L 86.112 70.374037 
L 85.833 70.374037 
L 85.554 70.374037 
L 85.275 70.374037 
L 84.996 70.374037 
L 84.717 70.374037 
L 84.438 70.374037 
L 84.159 70.374037 
L 83.88 70.374037 
L 83.601 70.374037 
L 83.322 70.374037 
L 83.043 70.374037 
L 82.764 70.374037 
L 82.485 70.374037 
L 82.206 70.374037 
L 81.927 70.374037 
L 81.648 70.374037 
L 81.369 70.374037 
L 81.09 70.374037 
L 80.811 70.374037 
L 80.532 70.374037 
L 80.253 70.374037 
L 79.974 70.374037 
L 79.695 70.374037 
L 79.416 70.374037 
L 79.137 70.374037 
L 78.858 70.374037 
L 78.579 70.374037 
L 78.3 70.374037 
L 78.021 70.374037 
L 77.742 70.374037 
L 77.463 70.374037 
L 77.184 70.374037 
L 76.905 70.374037 
L 76.626 70.374037 
L 76.347 70.374037 
L 76.068 70.374037 
L 75.789 70.374037 
L 75.51 70.374037 
L 75.231 70.374037 
L 74.952 70.374037 
L 74.673 70.374037 
L 74.394 70.374037 
L 74.115 70.374037 
L 73.836 70.374037 
L 73.557 70.374037 
L 73.278 70.374037 
L 72.999 70.374037 
L 72.72 70.374037 
L 72.441 70.374037 
L 72.162 70.374037 
L 71.883 70.374037 
L 71.604 70.374037 
L 71.325 70.374037 
L 71.046 70.374037 
L 70.767 70.374037 
L 70.488 70.374037 
L 70.209 70.374037 
L 69.93 70.374037 
L 69.651 70.374037 
L 69.372 70.374037 
L 69.093 70.374037 
L 68.814 70.374037 
L 68.535 70.374037 
L 68.256 70.374037 
L 67.977 70.374037 
L 67.698 70.374037 
L 67.419 70.374037 
L 67.14 70.374037 
L 66.861 70.374037 
L 66.582 70.374037 
L 66.303 70.374037 
L 66.024 70.374037 
L 65.745 70.374037 
L 65.466 70.374037 
L 65.187 70.374037 
L 64.908 70.374037 
L 64.629 70.374037 
L 64.35 70.374037 
L 64.071 70.374037 
L 63.792 70.374037 
L 63.513 70.374037 
L 63.234 70.374037 
L 62.955 70.374037 
L 62.676 70.374037 
L 62.397 70.374037 
L 62.118 70.374037 
L 61.839 70.374037 
L 61.56 70.374037 
L 61.281 70.374037 
L 61.002 70.374037 
L 60.723 70.374037 
L 60.444 70.374037 
L 60.165 70.374037 
L 59.886 70.374037 
L 59.607 70.374037 
L 59.328 70.374037 
L 59.049 70.374037 
L 58.77 70.374037 
L 58.491 70.374037 
L 58.212 70.374037 
L 57.933 70.374037 
L 57.654 70.374037 
L 57.375 70.374037 
L 57.096 70.374037 
L 56.817 70.374037 
L 56.538 70.374037 
L 56.259 70.374037 
L 55.98 70.374037 
L 55.701 70.374037 
L 55.422 70.374037 
L 55.143 70.374037 
L 54.864 70.374037 
L 54.585 70.374037 
L 54.306 70.374037 
L 54.027 70.374037 
L 53.748 70.374037 
L 53.469 70.374037 
L 53.19 70.374037 
L 52.911 70.374037 
L 52.632 70.374037 
L 52.353 70.374037 
L 52.074 70.374037 
L 51.795 70.374037 
L 51.516 70.374037 
L 51.237 70.374037 
L 50.958 70.374037 
L 50.679 70.374037 
L 50.4 70.374037 
L 50.121 70.374037 
L 49.842 70.374037 
L 49.563 70.374037 
L 49.284 70.374037 
L 49.005 70.374037 
L 48.726 70.374037 
L 48.447 70.374037 
L 48.168 70.374037 
L 47.889 70.374037 
L 47.61 70.374037 
L 47.331 70.374037 
L 47.052 70.374037 
L 46.773 70.374037 
L 46.494 70.374037 
L 46.215 70.374037 
L 45.936 70.374037 
L 45.657 70.374037 
L 45.378 70.374037 
L 45.099 70.374037 
L 44.82 70.374037 
L 44.541 70.374037 
L 44.262 70.374037 
L 43.983 70.374037 
L 43.704 70.374037 
L 43.425 70.374037 
L 43.146 70.374037 
L 42.867 70.374037 
L 42.588 70.374037 
L 42.309 70.374037 
L 42.03 70.374037 
L 41.751 70.374037 
L 41.472 70.374037 
L 41.193 70.374037 
L 40.914 70.374037 
L 40.635 70.374037 
L 40.356 70.374037 
L 40.077 70.374037 
L 39.798 70.374037 
L 39.519 70.374037 
L 39.24 70.374037 
L 38.961 70.374037 
L 38.682 70.374037 
L 38.403 70.374037 
L 38.124 70.374037 
L 37.845 70.374037 
L 37.566 70.374037 
L 37.287 70.374037 
L 37.008 70.374037 
L 36.729 70.374037 
L 36.45 70.374037 
L 36.171 70.374037 
L 35.892 70.374037 
L 35.613 70.374037 
L 35.334 70.374037 
L 35.055 70.374037 
L 34.776 70.374037 
L 34.497 70.374037 
L 34.218 70.374037 
L 33.939 70.374037 
L 33.66 70.374037 
L 33.381 70.374037 
L 33.102 70.374037 
L 32.823 70.374037 
L 32.544 70.374037 
L 32.265 70.374037 
L 31.986 70.374037 
L 31.707 70.374037 
L 31.428 70.374037 
L 31.149 70.374037 
L 30.87 70.374037 
L 30.591 70.374037 
L 30.312 70.374037 
L 30.033 70.374037 
L 29.754 70.374037 
L 29.475 70.374037 
L 29.196 70.374037 
L 28.917 70.374037 
L 28.638 70.374037 
L 28.359 70.374037 
L 28.08 70.374037 
L 27.801 70.374037 
L 27.522 70.374037 
L 27.243 70.374037 
L 26.964 70.374037 
L 26.685 70.374037 
L 26.406 70.374037 
L 26.127 70.374037 
L 25.848 70.374037 
L 25.569 70.374037 
L 25.29 70.374037 
L 25.011 70.374037 
L 24.732 70.374037 
L 24.453 70.374037 
L 24.174 70.374037 
L 23.895 70.374037 
L 23.616 70.374037 
L 23.337 70.374037 
L 23.058 70.374037 
L 22.779 70.374037 
L 22.5 70.374037 
z
" clip-path="url(#p11debb4312)" style="fill: #d3436e; fill-opacity: 0.1"/>
   </g>
   <g id="PolyCollection_6">
    <path d="M 22.5 31.134038 
L 22.5 48.644484 
L 22.779 48.644484 
L 23.058 48.644484 
L 23.337 48.644484 
L 23.616 48.644484 
L 23.895 48.644484 
L 24.174 48.644484 
L 24.453 48.644484 
L 24.732 48.644484 
L 25.011 48.644484 
L 25.29 48.644484 
L 25.569 48.644484 
L 25.848 48.644484 
L 26.127 48.644484 
L 26.406 48.644484 
L 26.685 48.644484 
L 26.964 48.644484 
L 27.243 48.644484 
L 27.522 48.644484 
L 27.801 48.644484 
L 28.08 48.644484 
L 28.359 48.644484 
L 28.638 48.644484 
L 28.917 48.644484 
L 29.196 48.644484 
L 29.475 48.644484 
L 29.754 48.644484 
L 30.033 48.644484 
L 30.312 48.644484 
L 30.591 48.644484 
L 30.87 48.644484 
L 31.149 48.644484 
L 31.428 48.644484 
L 31.707 48.644484 
L 31.986 48.644484 
L 32.265 48.644484 
L 32.544 48.644484 
L 32.823 48.644484 
L 33.102 48.644484 
L 33.381 48.644484 
L 33.66 48.644484 
L 33.939 48.644484 
L 34.218 48.644484 
L 34.497 48.644484 
L 34.776 48.644484 
L 35.055 48.644484 
L 35.334 48.644484 
L 35.613 48.644484 
L 35.892 48.644484 
L 36.171 48.644484 
L 36.45 48.644484 
L 36.729 48.644484 
L 37.008 48.644484 
L 37.287 48.644484 
L 37.566 48.644484 
L 37.845 48.644484 
L 38.124 48.644484 
L 38.403 48.644484 
L 38.682 48.644484 
L 38.961 48.644484 
L 39.24 48.644484 
L 39.519 48.644484 
L 39.798 48.644484 
L 40.077 48.644484 
L 40.356 48.644484 
L 40.635 48.644484 
L 40.914 48.644484 
L 41.193 48.644484 
L 41.472 48.644484 
L 41.751 48.644484 
L 42.03 48.644484 
L 42.309 48.644484 
L 42.588 48.644484 
L 42.867 48.644484 
L 43.146 48.644484 
L 43.425 48.644484 
L 43.704 48.644484 
L 43.983 48.644484 
L 44.262 48.644484 
L 44.541 48.644484 
L 44.82 48.644484 
L 45.099 48.644484 
L 45.378 48.644484 
L 45.657 48.644484 
L 45.936 48.644484 
L 46.215 48.644484 
L 46.494 48.644484 
L 46.773 48.644484 
L 47.052 48.644484 
L 47.331 48.644484 
L 47.61 48.644484 
L 47.889 48.644484 
L 48.168 48.644484 
L 48.447 48.644484 
L 48.726 48.644484 
L 49.005 48.644484 
L 49.284 48.644484 
L 49.563 48.644484 
L 49.842 48.644484 
L 50.121 48.644484 
L 50.4 48.644484 
L 50.679 48.644484 
L 50.958 48.644484 
L 51.237 48.644484 
L 51.516 48.644484 
L 51.795 48.644484 
L 52.074 48.644484 
L 52.353 48.644484 
L 52.632 48.644484 
L 52.911 48.644484 
L 53.19 48.644484 
L 53.469 48.644484 
L 53.748 48.644484 
L 54.027 48.644484 
L 54.306 48.644484 
L 54.585 48.644484 
L 54.864 48.644484 
L 55.143 48.644484 
L 55.422 48.644484 
L 55.701 48.644484 
L 55.98 48.644484 
L 56.259 48.644484 
L 56.538 48.644484 
L 56.817 48.644484 
L 57.096 48.644484 
L 57.375 48.644484 
L 57.654 48.644484 
L 57.933 48.644484 
L 58.212 48.644484 
L 58.491 48.644484 
L 58.77 48.644484 
L 59.049 48.644484 
L 59.328 48.644484 
L 59.607 48.644484 
L 59.886 48.644484 
L 60.165 48.644484 
L 60.444 48.644484 
L 60.723 48.644484 
L 61.002 48.644484 
L 61.281 48.644484 
L 61.56 48.644484 
L 61.839 48.644484 
L 62.118 48.644484 
L 62.397 48.644484 
L 62.676 48.644484 
L 62.955 48.644484 
L 63.234 48.644484 
L 63.513 48.644484 
L 63.792 48.644484 
L 64.071 48.644484 
L 64.35 48.644484 
L 64.629 48.644484 
L 64.908 48.644484 
L 65.187 48.644484 
L 65.466 48.644484 
L 65.745 48.644484 
L 66.024 48.644484 
L 66.303 48.644484 
L 66.582 48.644484 
L 66.861 48.644484 
L 67.14 48.644484 
L 67.419 48.644484 
L 67.698 48.644484 
L 67.977 48.644484 
L 68.256 48.644484 
L 68.535 48.644484 
L 68.814 48.644484 
L 69.093 48.644484 
L 69.372 48.644484 
L 69.651 48.644484 
L 69.93 48.644484 
L 70.209 48.644484 
L 70.488 48.644484 
L 70.767 48.644484 
L 71.046 48.644484 
L 71.325 48.644484 
L 71.604 48.644484 
L 71.883 48.644484 
L 72.162 48.644484 
L 72.441 48.644484 
L 72.72 48.644484 
L 72.999 48.644484 
L 73.278 48.644484 
L 73.557 48.644484 
L 73.836 48.644484 
L 74.115 48.644484 
L 74.394 48.644484 
L 74.673 48.644484 
L 74.952 48.644484 
L 75.231 48.644484 
L 75.51 48.644484 
L 75.789 48.644484 
L 76.068 48.644484 
L 76.347 48.644484 
L 76.626 48.644484 
L 76.905 48.644484 
L 77.184 48.644484 
L 77.463 48.644484 
L 77.742 48.644484 
L 78.021 48.644484 
L 78.3 48.644484 
L 78.579 48.644484 
L 78.858 48.644484 
L 79.137 48.644484 
L 79.416 48.644484 
L 79.695 48.644484 
L 79.974 48.644484 
L 80.253 48.644484 
L 80.532 48.644484 
L 80.811 48.644484 
L 81.09 48.644484 
L 81.369 48.644484 
L 81.648 48.644484 
L 81.927 48.644484 
L 82.206 48.644484 
L 82.485 48.644484 
L 82.764 48.644484 
L 83.043 48.644484 
L 83.322 48.644484 
L 83.601 48.644484 
L 83.88 48.644484 
L 84.159 48.644484 
L 84.438 48.644484 
L 84.717 48.644484 
L 84.996 48.644484 
L 85.275 48.644484 
L 85.554 48.644484 
L 85.833 48.644484 
L 86.112 48.644484 
L 86.391 48.644484 
L 86.67 48.644484 
L 86.949 48.644484 
L 87.228 48.644484 
L 87.507 48.644484 
L 87.786 48.644484 
L 88.065 48.644484 
L 88.344 48.644484 
L 88.623 48.644484 
L 88.902 48.644484 
L 89.181 48.644484 
L 89.46 48.644484 
L 89.739 48.644484 
L 90.018 48.644484 
L 90.297 48.644484 
L 90.576 48.644484 
L 90.855 48.644484 
L 91.134 48.644484 
L 91.413 48.644484 
L 91.692 48.644484 
L 91.971 48.644484 
L 92.25 48.644484 
L 92.529 48.644484 
L 92.808 48.644484 
L 93.087 48.644484 
L 93.366 48.644484 
L 93.645 48.644484 
L 93.924 48.644484 
L 94.203 48.644484 
L 94.482 48.644484 
L 94.761 48.644484 
L 95.04 48.644484 
L 95.319 48.644484 
L 95.598 48.644484 
L 95.877 48.644484 
L 96.156 48.644484 
L 96.435 48.644484 
L 96.714 48.644484 
L 96.993 48.644484 
L 97.272 48.644484 
L 97.551 48.644484 
L 97.83 48.644484 
L 98.109 48.644484 
L 98.388 48.644484 
L 98.667 48.644484 
L 98.946 48.644484 
L 99.225 48.644484 
L 99.504 48.644484 
L 99.783 48.644484 
L 100.062 48.644484 
L 100.341 48.644484 
L 100.62 48.644484 
L 100.899 48.644484 
L 101.178 48.644484 
L 101.457 48.644484 
L 101.736 48.644484 
L 102.015 48.644484 
L 102.294 48.644484 
L 102.573 48.644484 
L 102.852 48.644484 
L 103.131 48.644484 
L 103.41 48.644484 
L 103.689 48.644484 
L 103.968 48.644484 
L 104.247 48.644484 
L 104.526 48.644484 
L 104.805 48.644484 
L 105.084 48.644484 
L 105.363 48.644484 
L 105.642 48.644484 
L 105.921 48.644484 
L 106.2 48.644484 
L 106.479 48.644484 
L 106.758 48.644484 
L 107.037 48.644484 
L 107.316 48.644484 
L 107.595 48.644484 
L 107.874 48.644484 
L 108.153 48.644484 
L 108.432 48.644484 
L 108.711 48.644484 
L 108.99 48.644484 
L 109.269 48.644484 
L 109.548 48.644484 
L 109.827 48.644484 
L 110.106 48.644484 
L 110.385 48.644484 
L 110.664 48.644484 
L 110.943 48.644484 
L 111.222 48.644484 
L 111.501 48.644484 
L 111.78 48.644484 
L 112.059 48.644484 
L 112.338 48.644484 
L 112.617 48.644484 
L 112.896 48.644484 
L 113.175 48.644484 
L 113.454 48.644484 
L 113.733 48.644484 
L 114.012 48.644484 
L 114.291 48.644484 
L 114.57 48.644484 
L 114.849 48.644484 
L 115.128 48.644484 
L 115.407 48.644484 
L 115.686 48.644484 
L 115.965 48.644484 
L 116.244 48.644484 
L 116.523 48.644484 
L 116.802 48.644484 
L 117.081 48.644484 
L 117.36 48.644484 
L 117.639 48.644484 
L 117.918 48.644484 
L 118.197 48.644484 
L 118.476 48.644484 
L 118.755 48.644484 
L 119.034 48.644484 
L 119.313 48.644484 
L 119.592 48.644484 
L 119.871 48.644484 
L 120.15 48.644484 
L 120.429 48.644484 
L 120.708 48.644484 
L 120.987 48.644484 
L 121.266 48.644484 
L 121.545 48.644484 
L 121.824 48.644484 
L 122.103 48.644484 
L 122.382 48.644484 
L 122.661 48.644484 
L 122.94 48.644484 
L 123.219 48.644484 
L 123.498 48.644484 
L 123.777 48.644484 
L 124.056 48.644484 
L 124.335 48.644484 
L 124.614 48.644484 
L 124.893 48.644484 
L 125.172 48.644484 
L 125.451 48.644484 
L 125.73 48.644484 
L 126.009 48.644484 
L 126.288 48.644484 
L 126.567 48.644484 
L 126.846 48.644484 
L 127.125 48.644484 
L 127.404 48.644484 
L 127.683 48.644484 
L 127.962 48.644484 
L 128.241 48.644484 
L 128.52 48.644484 
L 128.799 48.644484 
L 129.078 48.644484 
L 129.357 48.644484 
L 129.636 48.644484 
L 129.915 48.644484 
L 130.194 48.644484 
L 130.473 48.644484 
L 130.752 48.644484 
L 131.031 48.644484 
L 131.31 48.644484 
L 131.589 48.644484 
L 131.868 48.644484 
L 132.147 48.644484 
L 132.426 48.644484 
L 132.705 48.644484 
L 132.984 48.644484 
L 133.263 48.644484 
L 133.542 48.644484 
L 133.821 48.644484 
L 134.1 48.644484 
L 134.379 48.644484 
L 134.658 48.644484 
L 134.937 48.644484 
L 135.216 48.644484 
L 135.495 48.644484 
L 135.774 48.644484 
L 136.053 48.644484 
L 136.332 48.644484 
L 136.611 48.644484 
L 136.89 48.644484 
L 137.169 48.644484 
L 137.448 48.644484 
L 137.727 48.644484 
L 138.006 48.644484 
L 138.285 48.644484 
L 138.564 48.644484 
L 138.843 48.644484 
L 139.122 48.644484 
L 139.401 48.644484 
L 139.68 48.644484 
L 139.959 48.644484 
L 140.238 48.644484 
L 140.517 48.644484 
L 140.796 48.644484 
L 141.075 48.644484 
L 141.354 48.644484 
L 141.633 48.644484 
L 141.912 48.644484 
L 142.191 48.644484 
L 142.47 48.644484 
L 142.749 48.644484 
L 143.028 48.644484 
L 143.307 48.644484 
L 143.586 48.644484 
L 143.865 48.644484 
L 144.144 48.644484 
L 144.423 48.644484 
L 144.702 48.644484 
L 144.981 48.644484 
L 145.26 48.644484 
L 145.539 48.644484 
L 145.818 48.644484 
L 146.097 48.644484 
L 146.376 48.644484 
L 146.655 48.644484 
L 146.934 48.644484 
L 147.213 48.644484 
L 147.492 48.644484 
L 147.771 48.644484 
L 148.05 48.644484 
L 148.329 48.644484 
L 148.608 48.644484 
L 148.887 48.644484 
L 149.166 48.644484 
L 149.445 48.644484 
L 149.724 48.644484 
L 150.003 48.644484 
L 150.282 48.644484 
L 150.561 48.644484 
L 150.84 48.644484 
L 151.119 48.644484 
L 151.398 48.644484 
L 151.677 48.644484 
L 151.956 48.644484 
L 152.235 48.644484 
L 152.514 48.644484 
L 152.793 48.644484 
L 153.072 48.644484 
L 153.351 48.644484 
L 153.63 48.644484 
L 153.909 48.644484 
L 154.188 48.644484 
L 154.467 48.644484 
L 154.746 48.644484 
L 155.025 48.644484 
L 155.304 48.644484 
L 155.583 48.644484 
L 155.862 48.644484 
L 156.141 48.644484 
L 156.42 48.644484 
L 156.699 48.644484 
L 156.978 48.644484 
L 157.257 48.644484 
L 157.536 48.644484 
L 157.815 48.644484 
L 158.094 48.644484 
L 158.373 48.644484 
L 158.652 48.644484 
L 158.931 48.644484 
L 159.21 48.644484 
L 159.489 48.644484 
L 159.768 48.644484 
L 160.047 48.644484 
L 160.326 48.644484 
L 160.605 48.644484 
L 160.884 48.644484 
L 161.163 48.644484 
L 161.442 48.644484 
L 161.721 48.644484 
L 161.721 31.134038 
L 161.721 31.134038 
L 161.442 31.134038 
L 161.163 31.134038 
L 160.884 31.134038 
L 160.605 31.134038 
L 160.326 31.134038 
L 160.047 31.134038 
L 159.768 31.134038 
L 159.489 31.134038 
L 159.21 31.134038 
L 158.931 31.134038 
L 158.652 31.134038 
L 158.373 31.134038 
L 158.094 31.134038 
L 157.815 31.134038 
L 157.536 31.134038 
L 157.257 31.134038 
L 156.978 31.134038 
L 156.699 31.134038 
L 156.42 31.134038 
L 156.141 31.134038 
L 155.862 31.134038 
L 155.583 31.134038 
L 155.304 31.134038 
L 155.025 31.134038 
L 154.746 31.134038 
L 154.467 31.134038 
L 154.188 31.134038 
L 153.909 31.134038 
L 153.63 31.134038 
L 153.351 31.134038 
L 153.072 31.134038 
L 152.793 31.134038 
L 152.514 31.134038 
L 152.235 31.134038 
L 151.956 31.134038 
L 151.677 31.134038 
L 151.398 31.134038 
L 151.119 31.134038 
L 150.84 31.134038 
L 150.561 31.134038 
L 150.282 31.134038 
L 150.003 31.134038 
L 149.724 31.134038 
L 149.445 31.134038 
L 149.166 31.134038 
L 148.887 31.134038 
L 148.608 31.134038 
L 148.329 31.134038 
L 148.05 31.134038 
L 147.771 31.134038 
L 147.492 31.134038 
L 147.213 31.134038 
L 146.934 31.134038 
L 146.655 31.134038 
L 146.376 31.134038 
L 146.097 31.134038 
L 145.818 31.134038 
L 145.539 31.134038 
L 145.26 31.134038 
L 144.981 31.134038 
L 144.702 31.134038 
L 144.423 31.134038 
L 144.144 31.134038 
L 143.865 31.134038 
L 143.586 31.134038 
L 143.307 31.134038 
L 143.028 31.134038 
L 142.749 31.134038 
L 142.47 31.134038 
L 142.191 31.134038 
L 141.912 31.134038 
L 141.633 31.134038 
L 141.354 31.134038 
L 141.075 31.134038 
L 140.796 31.134038 
L 140.517 31.134038 
L 140.238 31.134038 
L 139.959 31.134038 
L 139.68 31.134038 
L 139.401 31.134038 
L 139.122 31.134038 
L 138.843 31.134038 
L 138.564 31.134038 
L 138.285 31.134038 
L 138.006 31.134038 
L 137.727 31.134038 
L 137.448 31.134038 
L 137.169 31.134038 
L 136.89 31.134038 
L 136.611 31.134038 
L 136.332 31.134038 
L 136.053 31.134038 
L 135.774 31.134038 
L 135.495 31.134038 
L 135.216 31.134038 
L 134.937 31.134038 
L 134.658 31.134038 
L 134.379 31.134038 
L 134.1 31.134038 
L 133.821 31.134038 
L 133.542 31.134038 
L 133.263 31.134038 
L 132.984 31.134038 
L 132.705 31.134038 
L 132.426 31.134038 
L 132.147 31.134038 
L 131.868 31.134038 
L 131.589 31.134038 
L 131.31 31.134038 
L 131.031 31.134038 
L 130.752 31.134038 
L 130.473 31.134038 
L 130.194 31.134038 
L 129.915 31.134038 
L 129.636 31.134038 
L 129.357 31.134038 
L 129.078 31.134038 
L 128.799 31.134038 
L 128.52 31.134038 
L 128.241 31.134038 
L 127.962 31.134038 
L 127.683 31.134038 
L 127.404 31.134038 
L 127.125 31.134038 
L 126.846 31.134038 
L 126.567 31.134038 
L 126.288 31.134038 
L 126.009 31.134038 
L 125.73 31.134038 
L 125.451 31.134038 
L 125.172 31.134038 
L 124.893 31.134038 
L 124.614 31.134038 
L 124.335 31.134038 
L 124.056 31.134038 
L 123.777 31.134038 
L 123.498 31.134038 
L 123.219 31.134038 
L 122.94 31.134038 
L 122.661 31.134038 
L 122.382 31.134038 
L 122.103 31.134038 
L 121.824 31.134038 
L 121.545 31.134038 
L 121.266 31.134038 
L 120.987 31.134038 
L 120.708 31.134038 
L 120.429 31.134038 
L 120.15 31.134038 
L 119.871 31.134038 
L 119.592 31.134038 
L 119.313 31.134038 
L 119.034 31.134038 
L 118.755 31.134038 
L 118.476 31.134038 
L 118.197 31.134038 
L 117.918 31.134038 
L 117.639 31.134038 
L 117.36 31.134038 
L 117.081 31.134038 
L 116.802 31.134038 
L 116.523 31.134038 
L 116.244 31.134038 
L 115.965 31.134038 
L 115.686 31.134038 
L 115.407 31.134038 
L 115.128 31.134038 
L 114.849 31.134038 
L 114.57 31.134038 
L 114.291 31.134038 
L 114.012 31.134038 
L 113.733 31.134038 
L 113.454 31.134038 
L 113.175 31.134038 
L 112.896 31.134038 
L 112.617 31.134038 
L 112.338 31.134038 
L 112.059 31.134038 
L 111.78 31.134038 
L 111.501 31.134038 
L 111.222 31.134038 
L 110.943 31.134038 
L 110.664 31.134038 
L 110.385 31.134038 
L 110.106 31.134038 
L 109.827 31.134038 
L 109.548 31.134038 
L 109.269 31.134038 
L 108.99 31.134038 
L 108.711 31.134038 
L 108.432 31.134038 
L 108.153 31.134038 
L 107.874 31.134038 
L 107.595 31.134038 
L 107.316 31.134038 
L 107.037 31.134038 
L 106.758 31.134038 
L 106.479 31.134038 
L 106.2 31.134038 
L 105.921 31.134038 
L 105.642 31.134038 
L 105.363 31.134038 
L 105.084 31.134038 
L 104.805 31.134038 
L 104.526 31.134038 
L 104.247 31.134038 
L 103.968 31.134038 
L 103.689 31.134038 
L 103.41 31.134038 
L 103.131 31.134038 
L 102.852 31.134038 
L 102.573 31.134038 
L 102.294 31.134038 
L 102.015 31.134038 
L 101.736 31.134038 
L 101.457 31.134038 
L 101.178 31.134038 
L 100.899 31.134038 
L 100.62 31.134038 
L 100.341 31.134038 
L 100.062 31.134038 
L 99.783 31.134038 
L 99.504 31.134038 
L 99.225 31.134038 
L 98.946 31.134038 
L 98.667 31.134038 
L 98.388 31.134038 
L 98.109 31.134038 
L 97.83 31.134038 
L 97.551 31.134038 
L 97.272 31.134038 
L 96.993 31.134038 
L 96.714 31.134038 
L 96.435 31.134038 
L 96.156 31.134038 
L 95.877 31.134038 
L 95.598 31.134038 
L 95.319 31.134038 
L 95.04 31.134038 
L 94.761 31.134038 
L 94.482 31.134038 
L 94.203 31.134038 
L 93.924 31.134038 
L 93.645 31.134038 
L 93.366 31.134038 
L 93.087 31.134038 
L 92.808 31.134038 
L 92.529 31.134038 
L 92.25 31.134038 
L 91.971 31.134038 
L 91.692 31.134038 
L 91.413 31.134038 
L 91.134 31.134038 
L 90.855 31.134038 
L 90.576 31.134038 
L 90.297 31.134038 
L 90.018 31.134038 
L 89.739 31.134038 
L 89.46 31.134038 
L 89.181 31.134038 
L 88.902 31.134038 
L 88.623 31.134038 
L 88.344 31.134038 
L 88.065 31.134038 
L 87.786 31.134038 
L 87.507 31.134038 
L 87.228 31.134038 
L 86.949 31.134038 
L 86.67 31.134038 
L 86.391 31.134038 
L 86.112 31.134038 
L 85.833 31.134038 
L 85.554 31.134038 
L 85.275 31.134038 
L 84.996 31.134038 
L 84.717 31.134038 
L 84.438 31.134038 
L 84.159 31.134038 
L 83.88 31.134038 
L 83.601 31.134038 
L 83.322 31.134038 
L 83.043 31.134038 
L 82.764 31.134038 
L 82.485 31.134038 
L 82.206 31.134038 
L 81.927 31.134038 
L 81.648 31.134038 
L 81.369 31.134038 
L 81.09 31.134038 
L 80.811 31.134038 
L 80.532 31.134038 
L 80.253 31.134038 
L 79.974 31.134038 
L 79.695 31.134038 
L 79.416 31.134038 
L 79.137 31.134038 
L 78.858 31.134038 
L 78.579 31.134038 
L 78.3 31.134038 
L 78.021 31.134038 
L 77.742 31.134038 
L 77.463 31.134038 
L 77.184 31.134038 
L 76.905 31.134038 
L 76.626 31.134038 
L 76.347 31.134038 
L 76.068 31.134038 
L 75.789 31.134038 
L 75.51 31.134038 
L 75.231 31.134038 
L 74.952 31.134038 
L 74.673 31.134038 
L 74.394 31.134038 
L 74.115 31.134038 
L 73.836 31.134038 
L 73.557 31.134038 
L 73.278 31.134038 
L 72.999 31.134038 
L 72.72 31.134038 
L 72.441 31.134038 
L 72.162 31.134038 
L 71.883 31.134038 
L 71.604 31.134038 
L 71.325 31.134038 
L 71.046 31.134038 
L 70.767 31.134038 
L 70.488 31.134038 
L 70.209 31.134038 
L 69.93 31.134038 
L 69.651 31.134038 
L 69.372 31.134038 
L 69.093 31.134038 
L 68.814 31.134038 
L 68.535 31.134038 
L 68.256 31.134038 
L 67.977 31.134038 
L 67.698 31.134038 
L 67.419 31.134038 
L 67.14 31.134038 
L 66.861 31.134038 
L 66.582 31.134038 
L 66.303 31.134038 
L 66.024 31.134038 
L 65.745 31.134038 
L 65.466 31.134038 
L 65.187 31.134038 
L 64.908 31.134038 
L 64.629 31.134038 
L 64.35 31.134038 
L 64.071 31.134038 
L 63.792 31.134038 
L 63.513 31.134038 
L 63.234 31.134038 
L 62.955 31.134038 
L 62.676 31.134038 
L 62.397 31.134038 
L 62.118 31.134038 
L 61.839 31.134038 
L 61.56 31.134038 
L 61.281 31.134038 
L 61.002 31.134038 
L 60.723 31.134038 
L 60.444 31.134038 
L 60.165 31.134038 
L 59.886 31.134038 
L 59.607 31.134038 
L 59.328 31.134038 
L 59.049 31.134038 
L 58.77 31.134038 
L 58.491 31.134038 
L 58.212 31.134038 
L 57.933 31.134038 
L 57.654 31.134038 
L 57.375 31.134038 
L 57.096 31.134038 
L 56.817 31.134038 
L 56.538 31.134038 
L 56.259 31.134038 
L 55.98 31.134038 
L 55.701 31.134038 
L 55.422 31.134038 
L 55.143 31.134038 
L 54.864 31.134038 
L 54.585 31.134038 
L 54.306 31.134038 
L 54.027 31.134038 
L 53.748 31.134038 
L 53.469 31.134038 
L 53.19 31.134038 
L 52.911 31.134038 
L 52.632 31.134038 
L 52.353 31.134038 
L 52.074 31.134038 
L 51.795 31.134038 
L 51.516 31.134038 
L 51.237 31.134038 
L 50.958 31.134038 
L 50.679 31.134038 
L 50.4 31.134038 
L 50.121 31.134038 
L 49.842 31.134038 
L 49.563 31.134038 
L 49.284 31.134038 
L 49.005 31.134038 
L 48.726 31.134038 
L 48.447 31.134038 
L 48.168 31.134038 
L 47.889 31.134038 
L 47.61 31.134038 
L 47.331 31.134038 
L 47.052 31.134038 
L 46.773 31.134038 
L 46.494 31.134038 
L 46.215 31.134038 
L 45.936 31.134038 
L 45.657 31.134038 
L 45.378 31.134038 
L 45.099 31.134038 
L 44.82 31.134038 
L 44.541 31.134038 
L 44.262 31.134038 
L 43.983 31.134038 
L 43.704 31.134038 
L 43.425 31.134038 
L 43.146 31.134038 
L 42.867 31.134038 
L 42.588 31.134038 
L 42.309 31.134038 
L 42.03 31.134038 
L 41.751 31.134038 
L 41.472 31.134038 
L 41.193 31.134038 
L 40.914 31.134038 
L 40.635 31.134038 
L 40.356 31.134038 
L 40.077 31.134038 
L 39.798 31.134038 
L 39.519 31.134038 
L 39.24 31.134038 
L 38.961 31.134038 
L 38.682 31.134038 
L 38.403 31.134038 
L 38.124 31.134038 
L 37.845 31.134038 
L 37.566 31.134038 
L 37.287 31.134038 
L 37.008 31.134038 
L 36.729 31.134038 
L 36.45 31.134038 
L 36.171 31.134038 
L 35.892 31.134038 
L 35.613 31.134038 
L 35.334 31.134038 
L 35.055 31.134038 
L 34.776 31.134038 
L 34.497 31.134038 
L 34.218 31.134038 
L 33.939 31.134038 
L 33.66 31.134038 
L 33.381 31.134038 
L 33.102 31.134038 
L 32.823 31.134038 
L 32.544 31.134038 
L 32.265 31.134038 
L 31.986 31.134038 
L 31.707 31.134038 
L 31.428 31.134038 
L 31.149 31.134038 
L 30.87 31.134038 
L 30.591 31.134038 
L 30.312 31.134038 
L 30.033 31.134038 
L 29.754 31.134038 
L 29.475 31.134038 
L 29.196 31.134038 
L 28.917 31.134038 
L 28.638 31.134038 
L 28.359 31.134038 
L 28.08 31.134038 
L 27.801 31.134038 
L 27.522 31.134038 
L 27.243 31.134038 
L 26.964 31.134038 
L 26.685 31.134038 
L 26.406 31.134038 
L 26.127 31.134038 
L 25.848 31.134038 
L 25.569 31.134038 
L 25.29 31.134038 
L 25.011 31.134038 
L 24.732 31.134038 
L 24.453 31.134038 
L 24.174 31.134038 
L 23.895 31.134038 
L 23.616 31.134038 
L 23.337 31.134038 
L 23.058 31.134038 
L 22.779 31.134038 
L 22.5 31.134038 
z
" clip-path="url(#p11debb4312)" style="fill: #5f187f; fill-opacity: 0.1"/>
   </g>
   <g id="matplotlib.axis_1">
    <g id="xtick_1">
     <g id="line2d_1">
      <defs>
       <path id="mf696e2b93f" d="M 0 0 
L 0 3.5 
" style="stroke: #000000; stroke-width: 0.8"/>
      </defs>
      <g>
       <use xlink:href="#mf696e2b93f" x="50.4" y="160.2" style="stroke: #000000; stroke-width: 0.8"/>
      </g>
     </g>
     <g id="text_1">
      <text style="font: italic 12px 'inter', sans-serif" transform="translate(9.919905 212.12161) rotate(-45)">Trhn&gt;Chr</text>
     </g>
    </g>
    <g id="xtick_2">
     <g id="line2d_2">
      <g>
       <use xlink:href="#mf696e2b93f" x="78.3" y="160.2" style="stroke: #000000; stroke-width: 0.8"/>
      </g>
     </g>
     <g id="text_2">
      <text style="font: italic 12px 'inter', sans-serif" transform="translate(31.265025 218.67649) rotate(-45)">Trhn&gt;ACR1</text>
     </g>
    </g>
    <g id="xtick_3">
     <g id="line2d_3">
      <g>
       <use xlink:href="#mf696e2b93f" x="106.2" y="160.2" style="stroke: #000000; stroke-width: 0.8"/>
      </g>
     </g>
     <g id="text_3">
      <text style="font: italic 12px 'inter', sans-serif" transform="translate(51.684719 226.156796) rotate(-45)">R50H05&gt;Chr</text>
     </g>
    </g>
    <g id="xtick_4">
     <g id="line2d_4">
      <g>
       <use xlink:href="#mf696e2b93f" x="134.1" y="160.2" style="stroke: #000000; stroke-width: 0.8"/>
      </g>
     </g>
     <g id="text_4">
      <text style="font: italic 12px 'inter', sans-serif" transform="translate(73.029839 232.711676) rotate(-45)">R50H05&gt;ACR1</text>
     </g>
    </g>
   </g>
   <g id="matplotlib.axis_2">
    <g id="ytick_1">
     <g id="line2d_5">
      <defs>
       <path id="m9f91d0241a" d="M 0 0 
L -3.5 0 
" style="stroke: #000000; stroke-width: 0.8"/>
      </defs>
      <g>
       <use xlink:href="#m9f91d0241a" x="22.5" y="131.743853" style="stroke: #000000; stroke-width: 0.8"/>
      </g>
     </g>
     <g id="text_5">
      <text style="font: 10px 'inter', sans-serif; text-anchor: end" x="15.5" y="135.381353" transform="rotate(-0 15.5 135.381353)">200</text>
     </g>
    </g>
    <g id="ytick_2">
     <g id="line2d_6">
      <g>
       <use xlink:href="#m9f91d0241a" x="22.5" y="92.748953" style="stroke: #000000; stroke-width: 0.8"/>
      </g>
     </g>
     <g id="text_6">
      <text style="font: 10px 'inter', sans-serif; text-anchor: end" x="15.5" y="96.386453" transform="rotate(-0 15.5 96.386453)">0</text>
     </g>
    </g>
    <g id="ytick_3">
     <g id="line2d_7">
      <g>
       <use xlink:href="#m9f91d0241a" x="22.5" y="53.754052" style="stroke: #000000; stroke-width: 0.8"/>
      </g>
     </g>
     <g id="text_7">
      <text style="font: 10px 'inter', sans-serif; text-anchor: end" x="15.5" y="57.391552" transform="rotate(-0 15.5 57.391552)">200</text>
     </g>
    </g>
    <g id="text_8">
     <text style="font: 15px 'inter', sans-serif; text-anchor: middle" x="-16.89375" y="90.9" transform="rotate(-90 -16.89375 90.9)"> Volume (nL)</text>
    </g>
   </g>
   <g id="line2d_8">
    <path d="M 22.5 92.748953 
L 162 92.748953 
" clip-path="url(#p11debb4312)" style="fill: none; stroke: #000000; stroke-linecap: square"/>
   </g>
   <g id="line2d_9">
    <defs>
     <path id="m18d59a0dae" d="M 0 2.5 
C 0.663008 2.5 1.29895 2.236584 1.767767 1.767767 
C 2.236584 1.29895 2.5 0.663008 2.5 0 
C 2.5 -0.663008 2.236584 -1.29895 1.767767 -1.767767 
C 1.29895 -2.236584 0.663008 -2.5 0 -2.5 
C -0.663008 -2.5 -1.29895 -2.236584 -1.767767 -1.767767 
C -2.236584 -1.29895 -2.5 -0.663008 -2.5 0 
C -2.5 0.663008 -2.236584 1.29895 -1.767767 1.767767 
C -1.29895 2.236584 -0.663008 2.5 0 2.5 
z
" style="stroke: #000000"/>
    </defs>
    <g clip-path="url(#p11debb4312)">
     <use xlink:href="#m18d59a0dae" x="50.4" y="131.924923" style="stroke: #000000"/>
    </g>
   </g>
   <g id="line2d_10">
    <path d="M 50.4 143.419873 
L 50.4 119.999739 
" clip-path="url(#p11debb4312)" style="fill: none; stroke: #000000; stroke-width: 2.5; stroke-linecap: square"/>
   </g>
   <g id="line2d_11">
    <g clip-path="url(#p11debb4312)">
     <use xlink:href="#m18d59a0dae" x="78.3" y="60.478233" style="stroke: #000000"/>
    </g>
   </g>
   <g id="line2d_12">
    <path d="M 78.3 76.048407 
L 78.3 43.434913 
" clip-path="url(#p11debb4312)" style="fill: none; stroke: #000000; stroke-width: 2.5; stroke-linecap: square"/>
   </g>
   <g id="line2d_13">
    <g clip-path="url(#p11debb4312)">
     <use xlink:href="#m18d59a0dae" x="106.2" y="44.452851" style="stroke: #000000"/>
    </g>
   </g>
   <g id="line2d_14">
    <path d="M 106.2 53.413288 
L 106.2 35.327966 
" clip-path="url(#p11debb4312)" style="fill: none; stroke: #000000; stroke-width: 2.5; stroke-linecap: square"/>
   </g>
   <g id="line2d_15">
    <g clip-path="url(#p11debb4312)">
     <use xlink:href="#m18d59a0dae" x="134.1" y="98.268558" style="stroke: #000000"/>
    </g>
   </g>
   <g id="line2d_16">
    <path d="M 134.1 122.058933 
L 134.1 74.181204 
" clip-path="url(#p11debb4312)" style="fill: none; stroke: #000000; stroke-width: 2.5; stroke-linecap: square"/>
   </g>
   <g id="patch_3">
    <path d="M 22.5 160.2 
L 22.5 21.6 
" style="fill: none; stroke: #000000; stroke-width: 0.8; stroke-linejoin: miter; stroke-linecap: square"/>
   </g>
   <g id="patch_4">
    <path d="M 162 160.2 
L 162 21.6 
" style="fill: none"/>
   </g>
   <g id="patch_5">
    <path d="M 22.5 160.2 
L 162 160.2 
" style="fill: none"/>
   </g>
   <g id="patch_6">
    <path d="M 22.5 21.6 
L 162 21.6 
" style="fill: none"/>
   </g>
   <g id="text_9">
    <text style="fill: #d3436e; font: 10px 'inter', sans-serif; text-anchor: start" x="162" y="70.374037" transform="rotate(-0 162 70.374037)">24 h</text>
   </g>
   <g id="text_10">
    <text style="fill: #5f187f; font: 10px 'inter', sans-serif; text-anchor: start" x="162" y="31.134038" transform="rotate(-0 162 31.134038)">48 h</text>
   </g>
   <g id="text_11">
    <text style="font: 500 15px 'inter', sans-serif; text-anchor: middle" x="92.25" y="15.6" transform="rotate(-0 92.25 15.6)">Volume</text>
   </g>
  </g>
 </g>
 <defs>
  <clipPath id="p11debb4312">
   <rect x="22.5" y="21.6" width="139.5" height="138.6"/>
  </clipPath>
 </defs>
</svg>
