<?xml version="1.0" encoding="UTF-8"?>
<svg id="Layer_1" data-name="Layer 1" xmlns="http://www.w3.org/2000/svg" version="1.1" viewBox="0 0 216.8 263.4">
  <defs>
    <style>
      .cls-1 {
        stroke-dasharray: 0 0 0 0 0 0 0 0 0 0 25.4 2.1;
      }

      .cls-1, .cls-2 {
        stroke-linecap: round;
        stroke-linejoin: round;
      }

      .cls-1, .cls-2, .cls-3, .cls-4, .cls-5 {
        fill: none;
      }

      .cls-1, .cls-2, .cls-3, .cls-5 {
        stroke-width: .3px;
      }

      .cls-1, .cls-2, .cls-5 {
        stroke: #000;
      }

      .cls-6 {
        fill: #eee;
      }

      .cls-6, .cls-7, .cls-8 {
        stroke-width: 0px;
      }

      .cls-7 {
        fill: #f7a8aa;
      }

      .cls-9 {
        fill: #fff;
      }

      .cls-9, .cls-4 {
        stroke: #231f20;
        stroke-miterlimit: 10;
        stroke-width: .2px;
      }

      .cls-8 {
        fill: #000;
      }

      .cls-3 {
        stroke: #b8b9b9;
      }

      .cls-10 {
        isolation: isolate;
      }
    </style>
  </defs>
  <line class="cls-1" x1="13.4" y1="186.8" x2="13.4" y2="186"/>
  <line class="cls-1" x1="13.4" y1="190.6" x2="13.4" y2="191.4"/>
  <line class="cls-2" x1="11.7" y1="188.7" x2="16.1" y2="188.7"/>
  <line class="cls-2" x1="13.3" y1="188.7" x2="13.3" y2="190.6"/>
  <line class="cls-2" x1="13.3" y1="188.7" x2="10.7" y2="188.7"/>
  <line class="cls-2" x1="13.3" y1="188.7" x2="13.3" y2="186.8"/>
  <line class="cls-2" x1="197.2" y1="150.6" x2="204" y2="150.6"/>
  <line class="cls-2" x1="197.2" y1="150.6" x2="197.2" y2="157.4"/>
  <line class="cls-2" x1="197.2" y1="150.6" x2="190.4" y2="150.6"/>
  <line class="cls-2" x1="197.2" y1="150.6" x2="197.2" y2="143.8"/>
  <line class="cls-2" x1="13.7" y1="150.6" x2="20.5" y2="150.6"/>
  <line class="cls-2" x1="13.7" y1="150.6" x2="13.7" y2="157.4"/>
  <line class="cls-2" x1="13.7" y1="150.6" x2="6.9" y2="150.6"/>
  <line class="cls-2" x1="13.7" y1="150.6" x2="13.7" y2="143.8"/>
  <line class="cls-2" x1="197.2" y1="40.8" x2="204" y2="40.8"/>
  <line class="cls-2" x1="197.2" y1="40.8" x2="197.2" y2="47.6"/>
  <line class="cls-2" x1="197.2" y1="40.8" x2="190.4" y2="40.8"/>
  <line class="cls-2" x1="197.2" y1="40.8" x2="197.2" y2="33.9"/>
  <line class="cls-2" x1="13.7" y1="40.8" x2="20.5" y2="40.8"/>
  <line class="cls-2" x1="13.7" y1="40.8" x2="13.7" y2="47.6"/>
  <line class="cls-2" x1="13.7" y1="40.8" x2="6.9" y2="40.8"/>
  <line class="cls-2" x1="13.7" y1="40.8" x2="13.7" y2="33.9"/>
  <path class="cls-2" d="M179.8,175.1h5.4M38.3,175.1h5.4M167.1,175.1h5.4M108.8,175.1h5.4M61,175.1h5.4M96.3,175.1h5.4M144.1,175.1h5.4M25.5,175.1h5.4M73.3,175.1h5.4M131.4,175.1h5.4M135.8,11.9h-3.3M135.8,166.9h-3.3M148.7,11.9h-3.3M148.7,166.9h-3.3M65.5,11.9h-3.2M65.6,166.9h-3.3M78.1,11.9h-3.3M78.1,166.9h-3.3M30.1,11.9h-3.3M30.1,166.9h-3.3M100.8,11.9h-3.3M100.8,166.9h-3.3M113.4,11.9h-3.3M113.4,166.9h-3.3M184.1,11.9h-3.3M184.1,166.9h-3.3M171.5,11.9h-3.3M171.5,166.9h-3.3M42.7,11.9h-3.3M42.7,166.9h-3.3M197.2,36.2v4M197.2,41.2h0c0,0,.1,0,.1,0h0c0-.1.2-.1.2-.1h.1c0,0,.2,0,.2,0M192.6,40.9v.9c.1,0,.4.9.4.9l.4.8.6.8.8.6.8.4.9.3h.9M196.8,40.9h-4.1M197.8,40.9h4.1M197.2,45.5v-4.3M197.2,40.2v.2h0c0,.1,0,.2,0,.2h-.1c0,.1,0,.1,0,.1M202,40.7v-1c0,0-.4-.8-.4-.8l-.5-.8-.6-.7-.7-.6-.8-.5-.9-.3h-1M197.3,155.1v-4M197.3,145.9v4M197.9,150.5h4.1M192.7,150.5v.9c.1,0,.4.9.4.9l.4.9.6.7.8.6.8.4.9.3h.9M196.8,150.5h-4.1M197.3,149.9v.2h-.2c0,.1-.2.1-.2.1M197.4,150.8v.2h.3c0-.1.3-.1.3-.1M202.1,150.9v-.9c0,0-.4-.9-.4-.9l-.5-.8-.6-.7-.7-.6-.8-.5-.9-.2h-1M13.7,45.4v-4.1M9.1,40.8v.9c.1,0,.3.9.3.9l.5.8.6.8.7.6.9.4.9.3h.9M13.7,40.2v.2h0c0,.1-.1.1-.1.1h0c0,0,0,0,0,0h-.1c0,.1,0,.1,0,.1M13.7,36.1v4M18.3,40.7v-1c0,0-.4-.8-.4-.8l-.4-.8-.6-.7-.7-.6-.9-.5-.9-.3h-.9M14.3,40.7h4M13.7,41.2v-.2h0c0-.1.1-.1.1-.1h0c0,0,.3,0,.3,0M13.1,40.9h-4M13.7,151.2v-.3h.2c0-.1.3-.1.3-.1M18.2,150.8v-.9c0,0-.4-.9-.4-.9l-.4-.8-.6-.7-.7-.6-.9-.5-.9-.2h-.9M9,150.9v.9c.1,0,.3.9.3.9l.5.9.6.7.7.6.9.4.9.3h.9M13.6,150.3v.2h-.3c0,.1-.3.1-.3.1M14.2,150.6h4M13.7,146v4M13.2,150.6h-4M13.7,155.2v-4M179.9,221.4h-3.3M179.9,216h-3.3M169,221.4h-3.3M169,216h-3.3M149.9,216h-3.3M149.9,221.4h-3.3M144.5,216h-3.3M144.5,221.4h-3.3M133.6,216h-3.3M133.6,221.4h-3.3M114.6,216h-3.3M114.6,221.4h-3.3M109.1,215.8h-3.3M109.1,221.2h-3.3M98.3,215.8h-3.3M98.3,221.2h-3.3M79.2,215.8h-3.3M79.2,221.2h-3.3M73.8,215.8h-3.3M73.8,221.2h-3.3M62.9,215.8h-3.3M62.9,221.2h-3.3M43.9,215.8h-3.2M40.7,221.2h3.3M185.4,221.2h-3.3M185.4,215.8h-3.3M174.4,221.2h-3.3M174.4,215.8h-3.3M33,215.8h-3.3M29.8,221.2h3.3M139.1,215.8h-3.3M139.1,221.2h-3.3M103.7,215.8h-3.3M103.7,221.2h-3.3M68.4,215.8h-3.3M68.4,221.2h-3.3M182.2,221.2h-2.3M182.1,215.8h-2.2M182.1,215.8v5.4M179.9,221.2v-5.4M38.5,215.8h-3.3M35.2,221.2h3.3M65.1,215.8h-2.2M65.1,215.8v5.4M62.9,221.2v-5.4M65.1,221.2h-2.2M100.4,215.8v5.4M100.4,215.8h-2.1M98.3,221.2v-5.4M100.4,221.2h-2.1M29.7,215.8v5.4M27.6,215.8h2.1M27.6,221.2h2.1M35.1,215.8v5.4M32.9,215.8h2.2M32.9,221.2v-5.4M32.9,221.2h2.2M180.8,166.9V11.9M171.4,11.9h9.3M171.4,166.9V11.9M172.6,175.1l-1.1-8.1M172.6,175.1h7.1M180.8,166.9l-1.1,8.1M40.7,215.8v5.4M38.5,215.8h2.2M38.5,221.2v-5.4M38.5,221.2h2.2M135.9,215.8v5.4M135.9,215.8h-2.2M133.7,221.2v-5.4M135.9,221.2h-2.2M27.7,221.2v-5.4M27.7,215.8h-3.3M24.4,221.2h3.3M176.6,221.2h-2.2M176.6,215.8v5.4M176.6,215.8h-2.2M174.4,221.2v-5.4M74.8,166.9V11.9M65.6,11.9h9.2M65.6,166.9V11.9M66.6,175.1l-1.1-8.1M66.6,175.1h7.1M74.8,166.9l-1.1,8.1M70.5,215.8v5.4M70.5,215.8h-2.1M68.4,221.2v-5.4M70.5,221.2h-2.1M76,215.8v5.4M76,215.8h-2.2M73.8,221.2v-5.4M76,221.2h-2.2M39.4,166.9V11.9M30.1,11.9h9.3M30.1,166.9V11.9M31.2,175.1l-1.1-8.1M31.2,175.1h7M39.4,166.9l-1.1,8.1M105.9,215.8v5.4M105.9,215.8h-2.2M103.7,221.2v-5.4M105.9,221.2h-2.2M111.4,215.8v5.4M111.4,215.8h-2.3M109.1,221.2v-5.4M111.3,221.2h-2.2M171.1,215.8v5.4M171.1,215.8h-2.1M169,221.2v-5.4M171.1,221.2h-2.1M141.2,215.8v5.4M141.2,215.8h-2.1M139.1,221.2v-5.4M141.2,221.2h-2.1M146.6,215.8v5.4M146.6,215.8h-2.2M144.4,221.2v-5.4M146.6,221.2h-2.2M110.1,166.9V11.9M100.8,11.9h9.3M100.8,166.9V11.9M101.9,175.1l-1.2-8.1M101.9,175.1h7M110.1,166.9l-1.2,8.1M145.4,166.9V11.9M136.2,11.9h9.2M136.2,166.9V11.9M137.2,175.1l-1-8.1M137.2,175.1h7.1M145.4,166.9l-1,8.1M19.4,40.8v-1.2c-.1,0-.4-1.1-.4-1.1l-.6-.9-.7-.9-.9-.8-.9-.5-1.1-.4h-2.3l-1,.4-1,.5-.9.8-.8.9-.5,1-.3,1.1-.2,1.2.2,1,.3,1.1.5,1.1.8.9.9.7,1,.6,1,.3h2.3l1.1-.3.9-.6.9-.7.7-.9.6-1.1.3-1.1v-1M203,40.8v-1.2c0,0-.5-1.1-.5-1.1l-.5-1-.8-.9-.9-.8-.9-.5-1.1-.4h-2.2l-1.1.4-1.1.5-.9.8-.7.9-.6,1-.3,1.1v1.2c0,0,0,1,0,1l.3,1.1.6,1.1.7.9.9.7,1.1.6,1.1.3h2.2l1.1-.3.9-.6.9-.7.8-.9.5-1.1.4-1.1v-1M184.1,167V11.9M185.1,175.1l-1.1-8.1M185.1,175.1h6.1M191.2,175.1v40.8M191.2,215.8h-5.9M185.3,221.2v-5.4M191.2,221.2h-5.9M191.2,221.2v32.6M191.2,253.9h-29.9M161.3,221.2v32.6M165.8,221.2h-4.5M165.8,215.8v5.4M165.8,215.8h-4.5M161.3,215.8v-40.8M161.3,175.1h5.9M168.3,166.9l-1.1,8.1M168.3,166.9V11.9M148.8,11.9h19.6M148.7,166.9V11.9M149.9,175.1l-1.1-8.1M149.9,175.1h5.9M155.8,175.1v40.8M155.8,215.8h-5.9M150,221.2v-5.4M155.8,221.2h-5.9M155.8,221.2v32.6M155.8,253.9h-30M125.8,221.2v32.6M130.4,221.2h-4.5M130.4,215.8v5.4M130.4,215.8h-4.5M125.8,215.8v-40.8M125.8,175.1h6.1M133,166.9l-1.1,8.1M133,166.9V11.9M113.4,11.9h19.6M113.4,166.9V11.9M114.4,175.1l-1.1-8.1M114.4,175.1h6.1M120.5,175.1v40.8M120.5,215.8h-5.8M114.6,221.2v-5.4M120.5,221.2h-5.8M120.5,221.2v32.6M120.5,253.9h-29.9M90.6,221.2v32.6M95.1,221.2h-4.5M95.1,215.8v5.4M95.1,215.8h-4.5M90.6,215.8v-40.8M90.6,175.1h6M97.6,166.9l-1.1,8.1M97.6,166.9V11.9M78,11.9h19.6M78,166.9V11.9M79.1,175.1l-1.2-8.1M79.1,175.1h5.9M85.1,175.1v40.8M85.1,215.8h-5.8M79.2,221.2v-5.4M85.1,221.2h-5.8M85.1,221.2v32.6M85.1,253.9h-30M55.1,221.2v32.6M59.7,221.2h-4.5M59.6,215.8v5.4M59.6,215.8h-4.5M55.1,215.8v-40.8M55.1,175.1h6M62.2,166.9l-1.1,8.1M62.2,166.9V11.9M42.7,11.9h19.7M42.8,166.9V11.9M43.8,175.1l-1-8.1M43.8,175.1h5.9M49.7,215.8v-40.8M43.9,215.8h5.8M43.9,221.2v-5.4M43.9,221.2h5.8M49.7,221.2v32.6M19.8,253.9h29.9M19.8,221.2v32.6M19.8,221.2h4.5M24.4,215.8v5.4M19.8,215.8h4.5M19.8,175.1v40.8M19.8,175.1h6M26.8,166.9l-1,8.1M26.8,166.9V11.9M6.9,11.9h19.9M6.9,11.9v247.5M6.9,259.4h197.1M204,11.9v247.5M184.1,11.9h20M16.1,188.7v-.8c0,0-.5-.8-.5-.8l-.5-.6-.7-.4-.8-.2h-.8l-.7.2-.7.4-.5.6-.4.8v1.5l.4.7.5.6.7.5.7.2h.8l.8-.2.7-.5.5-.6.4-.7v-.8M203,150.6v-1.1c0,0-.5-1.1-.5-1.1l-.5-.9-.8-.9-.9-.8-.9-.5-1.1-.3-1.1-.2-1,.2-1.1.3-1.1.5-.9.8-.7.9-.6.9-.3,1.1v1.1c0,0,0,1.1,0,1.1l.3,1.1.6,1,.7.9.9.7,1.1.6,1.1.3h2.2l1.1-.3.9-.6.9-.7.8-.9.5-1,.4-1.1v-1.1M19.4,150.6v-1.1c-.1,0-.4-1.1-.4-1.1l-.6-.9-.7-.9-.9-.8-.9-.5-1.1-.3-1.2-.2-1.2.2-1,.3-1,.5-.9.8-.8.9-.5.9-.3,1.1-.2,1.1.2,1.1.3,1.1.5,1,.8.9.9.7,1,.6,1,.3h2.3l1.1-.3.9-.6.9-.7.7-.9.6-1,.3-1.1v-1.1"/>
  <line class="cls-1" x1="198.6" y1="186.6" x2="198.6" y2="185.8"/>
  <line class="cls-1" x1="198.6" y1="190.4" x2="198.6" y2="191.2"/>
  <line class="cls-2" x1="196.8" y1="188.5" x2="201.3" y2="188.5"/>
  <line class="cls-2" x1="198.5" y1="188.5" x2="198.5" y2="190.4"/>
  <line class="cls-2" x1="198.5" y1="188.5" x2="195.9" y2="188.5"/>
  <line class="cls-2" x1="198.5" y1="188.5" x2="198.5" y2="186.6"/>
  <polyline class="cls-2" points="201.3 188.5 201.2 187.7 200.8 187 200.4 186.4 199.7 186 198.9 185.8 198.1 185.8 197.5 186 196.8 186.4 196.3 187 195.9 187.7 195.8 188.5 195.9 189.3 196.3 189.9 196.8 190.5 197.5 191 198.1 191.2 198.9 191.2 199.7 191 200.4 190.5 200.8 189.9 201.2 189.3 201.3 188.5"/>
  <path class="cls-5" d="M37.1,191.9c.7.2.7,2,0,4s-1.8,3.3-2.6,3-.7-2,0-4,1.9-3.3,2.6-3Z"/>
  <path class="cls-5" d="M34,191c.8,0,1.4,1.7,1.4,3.7s-.6,3.7-1.4,3.7-1.4-1.7-1.4-3.7.6-3.7,1.4-3.7Z"/>
  <path class="cls-8" d="M35.1,194.2c.6,0,.9,1.1.7,2.3s-.8,2-1.4,1.9-.9-1.1-.7-2.3.8-2.1,1.4-1.9Z"/>
  <path class="cls-5" d="M35.1,194.2c.6,0,.9,1.1.7,2.3s-.8,2-1.4,1.9-.9-1.1-.7-2.3.8-2.1,1.4-1.9Z"/>
  <path class="cls-8" d="M34.6,198.4c.6.1,1.1.8,1,1.4-.1.6-.7,1.1-1.4,1-.6-.1-1.1-.8-1-1.4.1-.6.7-1.1,1.4-1Z"/>
  <path class="cls-5" d="M34.6,198.4c.6.1,1.1.8,1,1.4-.1.6-.7,1.1-1.4,1-.6-.1-1.1-.8-1-1.4.1-.6.7-1.1,1.4-1Z"/>
  <path class="cls-5" d="M108.3,185c-.1-.7,1.4-1.6,3.4-2s3.8,0,3.9.7-1.4,1.6-3.5,2-3.8,0-3.9-.7h0Z"/>
  <path class="cls-5" d="M109.1,188.2c-.4-.7.8-2,2.6-3.1s3.6-1.3,3.9-.7-.8,2-2.6,3-3.6,1.4-3.9.7Z"/>
  <path class="cls-8" d="M111.3,185.7c-.2-.5.5-1.3,1.6-1.8s2.2-.3,2.4.3-.5,1.3-1.7,1.8-2.2.3-2.4-.3Z"/>
  <path class="cls-5" d="M111.3,185.7c-.2-.5.5-1.3,1.6-1.8s2.2-.3,2.4.3-.5,1.3-1.7,1.8-2.2.3-2.4-.3Z"/>
  <path class="cls-8" d="M115.1,184c-.2-.6,0-1.3.7-1.6.6-.2,1.3,0,1.6.7h0c.2.6,0,1.3-.7,1.6-.6.2-1.3,0-1.6-.7Z"/>
  <path class="cls-5" d="M115.1,184c-.2-.6,0-1.3.7-1.6.6-.2,1.3,0,1.6.7h0c.2.6,0,1.3-.7,1.6-.6.2-1.3,0-1.6-.7Z"/>
  <path class="cls-5" d="M148.2,199.6c0,.8-1.7,1.4-3.7,1.4s-3.7-.6-3.7-1.4,1.7-1.4,3.7-1.4,3.7.6,3.7,1.4Z"/>
  <path class="cls-5" d="M147.9,196.5c.2.7-1.1,1.8-3,2.6s-3.7.7-4,0,1.1-1.8,3-2.6,3.7-.7,4,0Z"/>
  <path class="cls-8" d="M145.3,198.6c.1.6-.8,1.2-1.9,1.4s-2.2-.1-2.3-.7.8-1.2,1.9-1.4,2.2.1,2.3.7Z"/>
  <path class="cls-5" d="M145.3,198.6c.1.6-.8,1.2-1.9,1.4s-2.2,0-2.3-.7.8-1.2,1.9-1.4,2.2.1,2.3.7Z"/>
  <path class="cls-8" d="M141.2,199.5c.2.6-.2,1.3-.9,1.5s-1.3-.2-1.5-.9.2-1.3.9-1.5c0,0,0,0,0,0,.6-.1,1.2.3,1.4.9h0Z"/>
  <path class="cls-5" d="M141.2,199.5c0,.6-.4,1.2-1,1.3-.6,0-1.1-.4-1.2-1s.4-1.1,1-1.2c.6,0,1.1.4,1.2.9h0Z"/>
  <path class="cls-5" d="M71.6,200.2c-.7.4-2-.8-3-2.6s-1.3-3.6-.7-3.9,2,.8,3,2.6c1,1.8,1.3,3.6.7,3.9Z"/>
  <path class="cls-5" d="M74.2,198.4c-.5.6-2.2,0-3.7-1.4-1.6-1.4-2.5-2.9-2-3.4s2.2,0,3.7,1.4,2.5,2.9,2,3.5h0Z"/>
  <path class="cls-8" d="M71.1,197.2c-.4.4-1.4,0-2.2-.9s-1-1.9-.6-2.3,1.4,0,2.2,1c.8,1,1,1.9.6,2.3Z"/>
  <path class="cls-5" d="M71.1,197.2c-.4.4-1.4,0-2.2-.9s-1-1.9-.6-2.3,1.4,0,2.2,1c.8,1,1,1.9.6,2.3Z"/>
  <path class="cls-8" d="M68.2,194.1c-.5.4-1.2.3-1.6-.2-.5-.4-.5-1.1,0-1.6.4-.5,1.1-.5,1.6,0,0,0,.1.1.2.2.4.5.4,1.2,0,1.6h0Z"/>
  <path class="cls-5" d="M68.2,194.1c-.5.4-1.2.3-1.6-.2-.5-.4-.5-1.1,0-1.6.4-.5,1.1-.5,1.6,0,0,0,.1.1.2.2.4.5.4,1.2,0,1.6h0Z"/>
  <rect class="cls-6" x="27.2" y="4.3" width="2.6" height="163.1"/>
  <rect class="cls-3" x="27.2" y="4.3" width="2.6" height="163.1"/>
  <rect class="cls-7" x="27.5" y="59.7" width="2.1" height="107.8"/>
  <rect class="cls-5" x="27.5" y="59.7" width="2.1" height="107.8"/>
  <rect class="cls-8" x="27.5" y="56.7" width="2.1" height="3.3"/>
  <rect class="cls-5" x="27.5" y="56.7" width="2.1" height="3.3"/>
  <rect class="cls-6" x="39.7" y="4.3" width="2.6" height="163.1"/>
  <rect class="cls-3" x="39.7" y="4.3" width="2.6" height="163.1"/>
  <rect class="cls-6" x="62.6" y="4.4" width="2.6" height="163.1"/>
  <rect class="cls-3" x="62.6" y="4.4" width="2.6" height="163.1"/>
  <rect class="cls-7" x="62.8" y="59.8" width="2.1" height="107.8"/>
  <rect class="cls-5" x="62.8" y="59.8" width="2.1" height="107.8"/>
  <rect class="cls-8" x="62.8" y="56.8" width="2.1" height="3.3"/>
  <rect class="cls-5" x="62.8" y="56.8" width="2.1" height="3.3"/>
  <rect class="cls-6" x="75.1" y="4.3" width="2.6" height="163.1"/>
  <rect class="cls-3" x="75.1" y="4.3" width="2.6" height="163.1"/>
  <rect class="cls-6" x="97.9" y="4.4" width="2.6" height="163.1"/>
  <rect class="cls-3" x="97.9" y="4.4" width="2.6" height="163.1"/>
  <rect class="cls-7" x="98.2" y="59.8" width="2.1" height="107.8"/>
  <rect class="cls-5" x="98.2" y="59.8" width="2.1" height="107.8"/>
  <rect class="cls-8" x="98.2" y="56.8" width="2.1" height="3.3"/>
  <rect class="cls-5" x="98.2" y="56.8" width="2.1" height="3.3"/>
  <rect class="cls-6" x="110.4" y="4.3" width="2.6" height="163.1"/>
  <rect class="cls-3" x="110.4" y="4.3" width="2.6" height="163.1"/>
  <rect class="cls-6" x="133.3" y="4.4" width="2.6" height="163.1"/>
  <rect class="cls-3" x="133.3" y="4.4" width="2.6" height="163.1"/>
  <rect class="cls-7" x="133.6" y="59.8" width="2.1" height="107.8"/>
  <rect class="cls-5" x="133.6" y="59.8" width="2.1" height="107.8"/>
  <rect class="cls-8" x="133.6" y="56.8" width="2.1" height="3.3"/>
  <rect class="cls-5" x="133.6" y="56.8" width="2.1" height="3.3"/>
  <rect class="cls-6" x="145.8" y="4.3" width="2.6" height="163.1"/>
  <rect class="cls-3" x="145.8" y="4.3" width="2.6" height="163.1"/>
  <rect class="cls-6" x="168.7" y="4.4" width="2.6" height="163.1"/>
  <rect class="cls-3" x="168.7" y="4.4" width="2.6" height="163.1"/>
  <rect class="cls-7" x="169" y="59.8" width="2.1" height="107.8"/>
  <rect class="cls-5" x="169" y="59.8" width="2.1" height="107.8"/>
  <rect class="cls-8" x="169" y="56.8" width="2.1" height="3.3"/>
  <rect class="cls-5" x="169" y="56.8" width="2.1" height="3.3"/>
  <rect class="cls-6" x="181.2" y="4.3" width="2.6" height="163.1"/>
  <rect class="cls-3" x="181.2" y="4.3" width="2.6" height="163.1"/>
  <path class="cls-5" d="M170.6,179.8c-.7.1-1.6-1.4-2-3.4s0-3.7.7-3.9,1.6,1.4,2,3.4,0,3.7-.7,3.9h0Z"/>
  <path class="cls-8" d="M168.3,176.9c-.6,0-1-1-.9-2.2s.6-2.1,1.2-2,1,1,.9,2.2-.6,2.1-1.2,2Z"/>
  <path class="cls-5" d="M168.3,176.9c-.6,0-1-1-.9-2.2s.6-2.1,1.2-2,1,1,.9,2.2-.6,2.1-1.2,2Z"/>
  <ellipse class="cls-8" cx="169.2" cy="171.5" rx="1.1" ry="1.2"/>
  <path class="cls-5" d="M169.2,172.6c-.6,0-1.2-.4-1.3-1.1s.4-1.2,1.1-1.3,1.2.4,1.3,1.1h0c0,.7-.4,1.2-1.1,1.3h0,0Z"/>
  <line class="cls-4" x1="171.9" y1="175.2" x2="173.6" y2="186.3"/>
  <rect class="cls-9" x="131.8" y="92.7" width="26.8" height="21.8"/>
  <line class="cls-4" x1="158.6" y1="105" x2="168.7" y2="105"/>
  <g class="cls-10">
    <g class="cls-10">
      <path class="cls-8" d="M139.3,101.7v.6h-2.4v-.6h2.4ZM137.7,106.1v-5c0-.2,0-.5.2-.6.1-.2.3-.3.5-.4s.4-.1.6-.1.3,0,.4,0c.1,0,.2,0,.2,0l-.2.6s0,0-.1,0c0,0-.1,0-.2,0-.2,0-.4,0-.5.2,0,.1-.1.3-.1.5v4.8h-.7Z"/>
      <path class="cls-8" d="M142,106.2c-.4,0-.7,0-1-.3-.3-.2-.5-.5-.7-.8-.2-.3-.2-.7-.2-1.2s0-.9.2-1.2c.2-.3.4-.6.7-.8.3-.2.6-.3,1-.3s.7,0,1,.3c.3.2.5.5.7.8.2.3.2.7.2,1.2s0,.8-.2,1.2c-.2.3-.4.6-.7.8-.3.2-.6.3-1,.3ZM142,105.6c.3,0,.5,0,.7-.2s.3-.4.4-.6.1-.5.1-.8,0-.6-.1-.8-.2-.5-.4-.6-.4-.2-.7-.2-.5,0-.7.2c-.2.2-.3.4-.4.6,0,.3-.1.5-.1.8s0,.6.1.8c0,.2.2.5.4.6.2.2.4.2.7.2Z"/>
      <path class="cls-8" d="M146.8,106.2c-.4,0-.7,0-1-.3s-.5-.5-.7-.8-.2-.7-.2-1.2,0-.9.2-1.2.4-.6.7-.8.6-.3,1-.3.7,0,1,.3.5.5.7.8c.2.3.2.7.2,1.2s0,.8-.2,1.2c-.2.3-.4.6-.7.8s-.6.3-1,.3ZM146.8,105.6c.3,0,.5,0,.7-.2s.3-.4.4-.6c0-.2.1-.5.1-.8s0-.6-.1-.8c0-.3-.2-.5-.4-.6s-.4-.2-.7-.2-.5,0-.7.2-.3.4-.4.6-.1.5-.1.8,0,.6.1.8.2.5.4.6.4.2.7.2Z"/>
      <path class="cls-8" d="M151.4,106.2c-.4,0-.7,0-1-.3-.3-.2-.5-.4-.7-.8-.2-.3-.2-.7-.2-1.2s0-.9.2-1.2c.2-.3.4-.6.7-.8.3-.2.6-.3,1-.3s.5,0,.7.1.3.2.4.3.2.2.2.3h0v-2.1h.7v5.8h-.6v-.7h0c0,0-.1.2-.2.3,0,.1-.2.2-.4.3s-.4.1-.7.1ZM151.5,105.6c.3,0,.5,0,.7-.2.2-.1.3-.3.4-.6,0-.3.1-.5.1-.9s0-.6-.1-.9c0-.2-.2-.4-.4-.6-.2-.1-.4-.2-.7-.2s-.5,0-.7.2c-.2.1-.3.3-.4.6s-.1.5-.1.8,0,.6.1.8.2.5.4.6c.2.1.4.2.7.2Z"/>
    </g>
  </g>
  <g class="cls-10">
    <g class="cls-10">
      <path class="cls-8" d="M168.4,187.8v.5h-2.4v-.5h2.4ZM166.7,192v-4.8c0-.2,0-.4.2-.6.1-.2.3-.3.5-.4.2,0,.4-.1.6-.1s.3,0,.4,0c.1,0,.2,0,.2,0l-.2.6s0,0-.1,0-.1,0-.2,0c-.2,0-.4,0-.5.2,0,.1-.1.3-.1.5v4.6h-.7Z"/>
      <path class="cls-8" d="M171.2,192c-.4,0-.8,0-1.1-.3s-.5-.4-.7-.8c-.2-.3-.2-.7-.2-1.1s0-.8.2-1.1c.2-.3.4-.6.7-.8.3-.2.6-.3,1-.3s.5,0,.7.1c.2,0,.4.2.6.4.2.2.3.4.4.6.1.3.2.6.2,1v.3h-3.4v-.6h2.7c0-.2,0-.4-.1-.6,0-.2-.2-.3-.4-.4-.2-.1-.4-.2-.6-.2s-.5,0-.7.2c-.2.1-.3.3-.4.5s-.2.4-.2.7v.4c0,.3,0,.6.2.8.1.2.3.4.5.5s.4.2.7.2.3,0,.5,0c.1,0,.3-.1.4-.2s.2-.2.2-.4l.6.2c0,.2-.2.4-.3.6-.2.2-.4.3-.6.4-.2,0-.5.1-.8.1Z"/>
      <path class="cls-8" d="M175.8,192c-.4,0-.8,0-1.1-.3s-.5-.4-.7-.8c-.2-.3-.2-.7-.2-1.1s0-.8.2-1.1c.2-.3.4-.6.7-.8.3-.2.6-.3,1-.3s.5,0,.7.1c.2,0,.4.2.6.4.2.2.3.4.4.6.1.3.2.6.2,1v.3h-3.4v-.6h2.7c0-.2,0-.4-.1-.6,0-.2-.2-.3-.4-.4-.2-.1-.4-.2-.6-.2s-.5,0-.7.2c-.2.1-.3.3-.4.5s-.2.4-.2.7v.4c0,.3,0,.6.2.8.1.2.3.4.5.5s.4.2.7.2.3,0,.5,0c.1,0,.3-.1.4-.2s.2-.2.2-.4l.6.2c0,.2-.2.4-.3.6-.2.2-.4.3-.6.4-.2,0-.5.1-.8.1Z"/>
      <path class="cls-8" d="M180.3,192c-.4,0-.7,0-1-.3-.3-.2-.5-.4-.7-.8-.2-.3-.2-.7-.2-1.2s0-.8.2-1.1c.2-.3.4-.6.7-.8.3-.2.6-.3,1-.3s.5,0,.7.1c.2,0,.3.2.4.3,0,.1.2.2.2.3h0v-2.1h.7v5.6h-.6v-.6h0c0,0-.1.2-.2.3,0,.1-.2.2-.4.3s-.4.1-.7.1ZM180.4,191.5c.3,0,.5,0,.7-.2.2-.1.3-.3.4-.6,0-.2.1-.5.1-.8s0-.6-.1-.8c0-.2-.2-.4-.4-.6s-.4-.2-.7-.2-.5,0-.7.2c-.2.1-.3.3-.4.6s-.1.5-.1.8,0,.6.1.8c0,.2.2.4.4.6.2.1.4.2.7.2Z"/>
    </g>
    <g class="cls-10">
      <path class="cls-8" d="M168.4,202.8v-5.8h.6v.7h0c0,0,.1-.2.2-.3,0-.1.2-.2.4-.3.2,0,.4-.1.7-.1s.7,0,1,.3c.3.2.5.4.7.8.2.3.2.7.2,1.1s0,.8-.2,1.2c-.2.3-.4.6-.7.8-.3.2-.6.3-1,.3s-.5,0-.7-.1-.3-.2-.4-.3c0-.1-.2-.2-.2-.3h0v2.2h-.7ZM169.1,199.1c0,.3,0,.6.1.8,0,.2.2.4.4.6.2.1.4.2.7.2s.5,0,.7-.2c.2-.1.3-.3.4-.6s.1-.5.1-.8,0-.6-.1-.8c0-.2-.2-.4-.4-.6-.2-.1-.4-.2-.7-.2s-.5,0-.7.2-.3.3-.4.6c0,.2-.1.5-.1.8Z"/>
      <path class="cls-8" d="M175.1,201.3c-.4,0-.7,0-1-.3-.3-.2-.5-.4-.7-.8-.2-.3-.2-.7-.2-1.1s0-.8.2-1.1c.2-.3.4-.6.7-.8.3-.2.6-.3,1-.3s.7,0,1,.3c.3.2.5.4.7.8.2.3.2.7.2,1.1s0,.8-.2,1.1c-.2.3-.4.6-.7.8-.3.2-.6.3-1,.3ZM175.1,200.7c.3,0,.5,0,.7-.2.2-.1.3-.3.4-.6,0-.2.1-.5.1-.8s0-.5-.1-.8c0-.2-.2-.4-.4-.6s-.4-.2-.7-.2-.5,0-.7.2-.3.3-.4.6c0,.2-.1.5-.1.8s0,.5.1.8c0,.2.2.4.4.6.2.1.4.2.7.2Z"/>
      <path class="cls-8" d="M178.1,201.2v-4.2h.6v.6h0c0-.2.2-.4.4-.5.2-.1.4-.2.7-.2s.1,0,.2,0c0,0,.1,0,.2,0v.7s0,0-.2,0c0,0-.2,0-.3,0-.2,0-.4,0-.6.1s-.3.2-.4.4c0,.1-.1.3-.1.5v2.7h-.7Z"/>
      <path class="cls-8" d="M182.9,197v.5h-2.3v-.5h2.3ZM181.3,196h.7v4c0,.2,0,.3,0,.4,0,0,.1.2.2.2,0,0,.2,0,.3,0s.1,0,.2,0c0,0,0,0,.1,0v.6c0,0,0,0,0,0,0,0-.2,0-.3,0-.2,0-.4,0-.6-.1-.2,0-.3-.2-.5-.4-.1-.2-.2-.4-.2-.6v-4.2Z"/>
    </g>
  </g>
  <g class="cls-10">
    <g class="cls-10">
      <path class="cls-8" d="M156.4,46.9v5.8h-.7v-5.8h.7Z"/>
      <path class="cls-8" d="M157.8,52.7v-5.8h2c.5,0,.8,0,1.1.2s.5.4.6.6c.1.3.2.6.2.9s0,.6-.2.9c-.1.3-.4.5-.6.6-.3.2-.7.2-1.1.2h-1.6v-.6h1.6c.3,0,.6,0,.8-.1.2,0,.3-.2.4-.4,0-.2.1-.4.1-.6s0-.4-.1-.6c0-.2-.2-.3-.4-.4s-.4-.1-.8-.1h-1.2v5.2h-.7ZM160.6,50.1l1.4,2.6h-.8l-1.4-2.6h.8Z"/>
    </g>
    <g class="cls-10">
      <path class="cls-8" d="M153.8,62.4c-.4,0-.7,0-1-.3-.3-.2-.5-.4-.7-.8-.2-.3-.2-.7-.2-1.2s0-.9.2-1.2c.2-.3.4-.6.7-.8s.6-.3,1-.3.5,0,.7.1.3.2.4.3.2.2.2.3h0v-2.1h.7v5.8h-.6v-.7h0c0,0-.1.2-.2.3,0,.1-.2.2-.4.3-.2,0-.4.1-.7.1ZM153.9,61.8c.3,0,.5,0,.7-.2.2-.1.3-.3.4-.6s.1-.5.1-.9,0-.6-.1-.9-.2-.4-.4-.6c-.2-.1-.4-.2-.7-.2s-.5,0-.7.2c-.2.1-.3.3-.4.6s-.1.5-.1.8,0,.6.1.8.2.5.4.6.4.2.7.2Z"/>
      <path class="cls-8" d="M157.6,64c-.1,0-.2,0-.3,0s-.2,0-.2,0l.2-.6c.2,0,.3,0,.4,0,.1,0,.2,0,.3-.2,0,0,.2-.3.3-.5v-.3c.1,0-1.5-4.4-1.5-4.4h.7l1.2,3.5h0l1.2-3.5h.7l-1.9,5c0,.2-.2.4-.3.6s-.3.3-.4.3-.3.1-.5.1Z"/>
      <path class="cls-8" d="M163.4,62.4c-.4,0-.8,0-1.1-.3-.3-.2-.5-.4-.7-.8-.2-.3-.2-.7-.2-1.2s0-.8.2-1.2.4-.6.7-.8c.3-.2.6-.3,1-.3s.5,0,.7.1c.2,0,.4.2.6.4.2.2.3.4.4.7.1.3.2.6.2,1v.3h-3.4v-.6h2.7c0-.2,0-.5-.1-.7s-.2-.3-.4-.5c-.2-.1-.4-.2-.6-.2s-.5,0-.7.2c-.2.1-.3.3-.4.5-.1.2-.2.4-.2.7v.4c0,.3,0,.6.2.8.1.2.3.4.5.5.2.1.4.2.7.2s.3,0,.5,0c.1,0,.3-.1.4-.2.1-.1.2-.2.2-.4l.6.2c0,.2-.2.4-.3.6-.2.2-.4.3-.6.4-.2,0-.5.1-.8.1Z"/>
    </g>
  </g>
</svg>