<?xml version="1.0" encoding="UTF-8"?>
<!DOCTYPE svg PUBLIC "-//W3C//DTD SVG 1.1//EN" "http://www.w3.org/Graphics/SVG/1.1/DTD/svg11.dtd">
<svg version="1.1" xmlns="http://www.w3.org/2000/svg" xmlns:xlink="http://www.w3.org/1999/xlink" x="0" y="0" width="198.425" height="198.425" viewBox="0, 0, 198.425, 198.425">
  <g id="Background">
    <rect x="0" y="0" width="198.425" height="198.425" fill="#FFFFFF"/>
  </g>
  <defs>
    <clipPath id="Clip_1">
      <path d="M35.016,127.176 L133.853,127.176 L133.853,133.402 L35.016,133.402 z"/>
    </clipPath>
    <clipPath id="Clip_2">
      <path d="M19.437,10.895 L167,10.895 L167,173 L19.437,173 z"/>
    </clipPath>
    <clipPath id="Clip_3">
      <path d="M133.95,127.176 L148.225,127.176 L148.225,133.402 L133.95,133.402 z"/>
    </clipPath>
    <clipPath id="Clip_4">
      <path d="M35.103,38.922 L101.263,38.922 L101.263,45.148 L35.103,45.148 z"/>
    </clipPath>
    <clipPath id="Clip_5">
      <path d="M101.263,38.922 L148.167,38.922 L148.167,45.148 L101.263,45.148 z"/>
    </clipPath>
    <clipPath id="Clip_6">
      <path d="M19.437,10.895 L167,10.895 L167,173 L19.437,173 z"/>
    </clipPath>
  </defs>
  <g id="Layer_1">
    <g id="Layer_1">
      <g clip-path="url(#Clip_2)">
        <g clip-path="url(#Clip_1)" opacity="0.2">
          <path d="M133.853,133.402 L35.016,133.402 L35.016,127.176 L133.853,127.176 z" fill="#A67F50"/>
        </g>
      </g>
      <path d="M134.353,133.902 L35.516,133.902 L35.516,127.676 L134.353,127.676 z" fill-opacity="0" stroke="#737476" stroke-width="0.75"/>
      <g opacity="0.8">
        <path d="M133.588,133.402 L86.176,133.402 L86.176,127.176 L133.588,127.176 z" fill="#F79734"/>
      </g>
      <path d="M134.088,133.902 L86.676,133.902 L86.676,127.676 L134.088,127.676 z" fill-opacity="0" stroke="#737476" stroke-width="0.75"/>
      <g clip-path="url(#Clip_3)" opacity="0.8">
        <path d="M148.225,133.402 L133.949,133.402 L133.949,127.176 L148.225,127.176 z" fill="#337ABD"/>
      </g>
      <path d="M148.725,133.902 L134.449,133.902 L134.449,127.676 L148.725,127.676 z" fill-opacity="0" stroke="#737476" stroke-width="0.75"/>
      <g opacity="0.8">
        <path d="M152.034,133.402 L148.08,133.402 L148.08,127.176 L152.034,127.176 z" fill="#FEFEFE"/>
      </g>
      <path d="M152.534,133.902 L148.58,133.902 L148.58,127.676 L152.534,127.676 z" fill-opacity="0" stroke="#737476" stroke-width="0.75"/>
      <path d="M35.417,124.594 L35.303,87.778 z" fill="#292929"/>
      <g>
        <path d="M35.803,88.277 C35.854,104.765 35.882,113.869 35.898,118.895" fill-opacity="0" stroke="#292929" stroke-width="1"/>
        <path d="M33.36,117.011 L35.417,124.593 L37.427,116.998 z" fill="#292929"/>
        <text transform="matrix(1, 0, -0, 1, 35.392, 78.341)">
          <tspan x="-15.955" y="2" font-family="Inter-Medium" font-size="7.708" fill="#373535">Eclo</tspan>
          <tspan x="-0.26" y="2" font-family="Inter-Medium" font-size="7.708" kerning="-0.004" fill="#373535">su</tspan>
          <tspan x="8.521" y="2" font-family="Inter-Medium" font-size="7.708" kerning="-0.075" fill="#373535">r</tspan>
          <tspan x="11.427" y="2" font-family="Inter-Medium" font-size="7.708" kerning="0" fill="#373535">e</tspan>
        </text>
        <path d="M35.36,66.148 L35.474,50.423" fill="#292929"/>
        <path d="M35.86,66.648 C35.89,62.453 35.913,59.378 35.929,57.122" fill-opacity="0" stroke="#292929" stroke-width="1"/>
        <path d="M37.453,58.026 L35.475,50.423 L33.386,57.996 z" fill="#292929"/>
      </g>
      <text transform="matrix(1, 0, -0, 1, 109.991, 78.341)">
        <tspan x="-17.376" y="2" font-family="Inter-Medium" font-size="7.708" kerning="-0.333" fill="#373535">A</tspan>
        <tspan x="-12.91" y="2" font-family="Inter-Medium" font-size="7.708" fill="#373535">TR </tspan>
        <tspan x="-0.828" y="2" font-family="Inter-Medium" font-size="7.708" kerning="-0.137" fill="#373535">F</tspan>
        <tspan x="3.299" y="2" font-family="Inter-Medium" font-size="7.708" fill="#373535">oo</tspan>
        <tspan x="12.611" y="2" font-family="Inter-Medium" font-size="7.708" kerning="0" fill="#373535">d</tspan>
      </text>
      <path d="M93.657,90.355 L93.657,89.683 L95.719,87.552 Q96.191,87.054 96.436,86.708 Q96.68,86.362 96.68,85.962 Q96.68,85.506 96.373,85.243 Q96.065,84.98 95.605,84.98 Q95.12,84.98 94.83,85.272 Q94.541,85.563 94.541,86.052 L93.649,86.052 Q93.649,85.498 93.905,85.08 Q94.162,84.663 94.608,84.432 Q95.054,84.202 95.621,84.202 Q96.199,84.202 96.637,84.43 Q97.076,84.658 97.324,85.048 Q97.573,85.437 97.573,85.93 Q97.573,86.26 97.448,86.58 Q97.324,86.9 97.012,87.299 Q96.701,87.698 96.134,88.269 L94.944,89.512 L94.944,89.56 L97.666,89.56 L97.666,90.355 z" fill="#373535"/>
      <path d="M98.879,87.988 Q98.871,87.466 99.036,87.136 Q99.201,86.806 99.48,86.649 Q99.759,86.492 100.093,86.492 Q100.387,86.492 100.637,86.614 Q100.888,86.737 101.218,87.026 Q101.417,87.201 101.544,87.279 Q101.67,87.356 101.825,87.356 Q102.065,87.356 102.208,87.179 Q102.351,87.001 102.347,86.647 L103.108,86.647 Q103.121,87.169 102.952,87.499 Q102.783,87.829 102.503,87.986 Q102.224,88.142 101.898,88.142 Q101.593,88.142 101.338,88.012 Q101.083,87.882 100.77,87.613 Q100.562,87.429 100.439,87.354 Q100.317,87.279 100.162,87.279 Q99.934,87.279 99.785,87.444 Q99.637,87.609 99.641,87.988 z" fill="#373535"/>
      <path d="M106.321,90.437 Q105.706,90.437 105.227,90.225 Q104.748,90.013 104.469,89.638 Q104.19,89.263 104.174,88.766 L105.115,88.766 Q105.139,89.169 105.482,89.404 Q105.824,89.638 106.313,89.638 Q106.843,89.638 107.187,89.367 Q107.531,89.096 107.531,88.656 Q107.531,88.204 107.185,87.916 Q106.839,87.629 106.215,87.629 L105.698,87.629 L105.698,86.871 L106.215,86.871 Q106.716,86.871 107.032,86.608 Q107.348,86.345 107.348,85.909 Q107.348,85.49 107.071,85.235 Q106.794,84.98 106.329,84.98 Q105.889,84.98 105.551,85.215 Q105.213,85.449 105.197,85.865 L104.3,85.865 Q104.316,85.372 104.591,84.997 Q104.866,84.622 105.325,84.412 Q105.783,84.202 106.346,84.202 Q106.928,84.202 107.358,84.43 Q107.788,84.658 108.02,85.035 Q108.253,85.412 108.253,85.856 Q108.253,86.37 107.967,86.722 Q107.682,87.075 107.205,87.201 L107.205,87.246 Q107.813,87.34 108.143,87.729 Q108.473,88.118 108.473,88.688 Q108.473,89.194 108.194,89.589 Q107.914,89.984 107.43,90.21 Q106.945,90.437 106.321,90.437 z" fill="#373535"/>
      <path d="M113.464,90.445 Q112.91,90.445 112.48,90.164 Q112.05,89.882 111.804,89.353 Q111.557,88.823 111.557,88.089 Q111.557,87.348 111.806,86.822 Q112.054,86.297 112.484,86.019 Q112.914,85.742 113.464,85.742 Q113.888,85.742 114.149,85.883 Q114.41,86.024 114.554,86.213 Q114.699,86.402 114.776,86.541 L114.825,86.541 L114.825,84.284 L115.722,84.284 L115.722,90.355 L114.85,90.355 L114.85,89.642 L114.776,89.642 Q114.695,89.789 114.546,89.976 Q114.397,90.164 114.137,90.304 Q113.876,90.445 113.464,90.445 z M113.66,89.683 Q114.23,89.683 114.536,89.239 Q114.842,88.794 114.842,88.081 Q114.842,87.372 114.54,86.938 Q114.239,86.504 113.66,86.504 Q113.265,86.504 113.002,86.712 Q112.739,86.92 112.607,87.277 Q112.474,87.633 112.474,88.081 Q112.474,88.534 112.609,88.896 Q112.743,89.259 113.008,89.471 Q113.273,89.683 113.66,89.683 z" fill="#373535"/>
      <path d="M118.203,90.457 Q117.767,90.457 117.419,90.296 Q117.071,90.135 116.867,89.825 Q116.663,89.516 116.663,89.067 Q116.663,88.68 116.814,88.43 Q116.965,88.179 117.217,88.034 Q117.47,87.89 117.782,87.816 Q118.093,87.743 118.415,87.706 Q119.018,87.637 119.291,87.586 Q119.564,87.535 119.564,87.295 L119.564,87.27 Q119.564,86.891 119.342,86.682 Q119.12,86.472 118.692,86.472 Q118.244,86.472 117.987,86.667 Q117.731,86.863 117.637,87.095 L116.793,86.875 Q116.948,86.468 117.238,86.219 Q117.527,85.971 117.9,85.856 Q118.273,85.742 118.68,85.742 Q118.953,85.742 119.263,85.808 Q119.572,85.873 119.845,86.042 Q120.118,86.211 120.29,86.525 Q120.461,86.838 120.461,87.332 L120.461,90.355 L119.593,90.355 L119.593,89.732 L119.548,89.732 Q119.414,90.001 119.085,90.229 Q118.757,90.457 118.203,90.457 z M118.403,89.736 Q118.766,89.736 119.026,89.591 Q119.287,89.446 119.428,89.214 Q119.568,88.982 119.568,88.713 L119.568,88.13 Q119.503,88.195 119.289,88.242 Q119.075,88.289 118.839,88.322 Q118.603,88.354 118.464,88.371 Q118.085,88.424 117.814,88.576 Q117.543,88.729 117.543,89.08 Q117.543,89.406 117.786,89.571 Q118.028,89.736 118.403,89.736 z" fill="#373535"/>
      <path d="M121.475,91.993 L121.695,91.264 L121.797,91.288 Q122.143,91.382 122.385,91.266 Q122.628,91.15 122.754,90.71 L122.852,90.375 L121.12,85.799 L122.09,85.799 L122.991,88.387 Q123.092,88.688 123.17,88.982 Q123.247,89.275 123.321,89.569 Q123.398,89.275 123.48,88.98 Q123.561,88.684 123.667,88.387 L124.584,85.799 L125.545,85.799 L123.565,90.987 Q123.357,91.533 123.005,91.812 Q122.652,92.091 122.102,92.091 Q121.89,92.091 121.725,92.06 Q121.56,92.03 121.475,91.993 z" fill="#373535"/>
      <path d="M127.909,90.449 Q127.167,90.449 126.68,90.129 Q126.193,89.809 126.071,89.202 L126.915,89.027 Q127.098,89.723 127.917,89.723 Q128.353,89.723 128.608,89.542 Q128.862,89.361 128.862,89.108 Q128.862,88.676 128.223,88.534 L127.457,88.358 Q126.202,88.077 126.202,87.099 Q126.202,86.692 126.428,86.386 Q126.654,86.081 127.051,85.911 Q127.448,85.742 127.966,85.742 Q128.703,85.742 129.123,86.058 Q129.543,86.374 129.69,86.879 L128.887,87.054 Q128.801,86.814 128.589,86.633 Q128.377,86.451 127.974,86.451 Q127.603,86.451 127.355,86.618 Q127.106,86.786 127.106,87.042 Q127.106,87.27 127.271,87.411 Q127.436,87.552 127.811,87.637 L128.545,87.8 Q129.787,88.081 129.787,89.031 Q129.787,89.446 129.549,89.766 Q129.311,90.086 128.887,90.267 Q128.463,90.449 127.909,90.449 z" fill="#373535"/>
      <g>
        <path d="M150.144,113.3 L150.258,124.594" fill="#292929"/>
        <path d="M150.644,113.8 C150.665,115.847 150.682,117.522 150.696,118.894" fill-opacity="0" stroke="#292929" stroke-width="1"/>
        <path d="M148.148,117.026 L150.258,124.594 L152.215,116.985 z" fill="#292929"/>
        <text transform="matrix(1, 0, -0, 1, 150.019, 88.069)">
          <tspan x="-16.905" y="2" font-family="Inter-Medium" font-size="7.708" fill="#373535">Esp</tspan>
          <tspan x="-3.34" y="2" font-family="Inter-Medium" font-size="7.708" kerning="-0.076" fill="#373535">r</tspan>
          <tspan x="-0.582" y="2" font-family="Inter-Medium" font-size="7.708" fill="#373535">ess</tspan>
          <tspan x="12.249" y="2" font-family="Inter-Medium" font-size="7.708" kerning="0" fill="#373535">o</tspan>
        </text>
      </g>
      <text transform="matrix(1, 0, -0, 1, 150.005, 98.083)">
        <tspan x="-14.019" y="2" font-family="Inter-Medium" font-size="7.708" fill="#373535">no</tspan>
        <tspan x="-4.726" y="2" font-family="Inter-Medium" font-size="7.708" kerning="-0.004" fill="#373535"> </tspan>
        <tspan x="-2.675" y="2" font-family="Inter-Medium" font-size="7.708" kerning="-0.1" fill="#373535">f</tspan>
        <tspan x="-0.058" y="2" font-family="Inter-Medium" font-size="7.708" fill="#373535">oo</tspan>
        <tspan x="9.254" y="2" font-family="Inter-Medium" font-size="7.708" kerning="0" fill="#373535">d</tspan>
      </text>
      <text transform="matrix(1, 0, -0, 1, 150.06, 108.097)">
        <tspan x="-9.287" y="2" font-family="Inter-Medium" font-size="7.708" fill="#373535">2 hr</tspan>
        <tspan x="5.136" y="2" font-family="Inter-Medium" font-size="7.708" kerning="0" fill="#373535">s</tspan>
      </text>
      <g>
        <path d="M65.068,73.01 L64.954,50.423" fill="#292929"/>
        <path d="M65.568,73.51 C65.528,65.6 65.502,60.461 65.485,57.121" fill-opacity="0" stroke="#292929" stroke-width="1"/>
        <path d="M67.026,58.001 L64.954,50.423 L62.959,58.022 z" fill="#292929"/>
      </g>
      <text transform="matrix(1, 0, -0, 1, 64.107, 88.069)">
        <tspan x="-16.669" y="2" font-family="Inter-Medium" font-size="7.708" fill="#373535">S</tspan>
        <tspan x="-11.69" y="2" font-family="Inter-Medium" font-size="7.708" kerning="0.021" fill="#373535">t</tspan>
        <tspan x="-9.007" y="2" font-family="Inter-Medium" font-size="7.708" fill="#373535">a</tspan>
        <tspan x="-4.63" y="2" font-family="Inter-Medium" font-size="7.708" kerning="-0.004" fill="#373535">n</tspan>
        <tspan x="0.003" y="2" font-family="Inter-Medium" font-size="7.708" fill="#373535">da</tspan>
        <tspan x="9.145" y="2" font-family="Inter-Medium" font-size="7.708" kerning="-0.075" fill="#373535">r</tspan>
        <tspan x="11.904" y="2" font-family="Inter-Medium" font-size="7.708" fill="#373535">d</tspan>
        <tspan x="16.669" y="2" font-family="Inter-Medium" font-size="7.708" kerning="0" fill="#373535"> </tspan>
      </text>
      <path d="M50.153,100.083 L50.153,94.012 L53.93,94.012 L53.93,94.81 L51.082,94.81 L51.082,96.762 L53.657,96.762 L53.657,97.557 L51.082,97.557 L51.082,100.083 z" fill="#373535"/>
      <path d="M55.899,94.012 L55.899,100.083 L55.002,100.083 L55.002,94.012 z" fill="#373535"/>
      <path d="M57.099,101.721 L57.319,100.992 L57.421,101.016 Q57.768,101.11 58.01,100.994 Q58.253,100.878 58.379,100.438 L58.477,100.103 L56.745,95.527 L57.715,95.527 L58.615,98.115 Q58.717,98.416 58.795,98.71 Q58.872,99.003 58.945,99.297 Q59.023,99.003 59.104,98.708 Q59.186,98.412 59.292,98.115 L60.209,95.527 L61.17,95.527 L59.19,100.715 Q58.982,101.261 58.63,101.54 Q58.277,101.819 57.727,101.819 Q57.515,101.819 57.35,101.788 Q57.185,101.758 57.099,101.721 z" fill="#373535"/>
      <path d="M64.251,100.083 L64.251,94.012 L68.028,94.012 L68.028,94.81 L65.18,94.81 L65.18,96.762 L67.755,96.762 L67.755,97.557 L65.18,97.557 L65.18,100.083 z" fill="#373535"/>
      <path d="M70.717,100.177 Q70.077,100.177 69.598,99.883 Q69.12,99.59 68.855,99.062 Q68.59,98.535 68.59,97.83 Q68.59,97.121 68.855,96.589 Q69.12,96.057 69.598,95.764 Q70.077,95.47 70.717,95.47 Q71.361,95.47 71.84,95.764 Q72.318,96.057 72.583,96.589 Q72.848,97.121 72.848,97.83 Q72.848,98.535 72.583,99.062 Q72.318,99.59 71.84,99.883 Q71.361,100.177 70.717,100.177 z M70.717,99.419 Q71.133,99.419 71.404,99.201 Q71.674,98.983 71.807,98.622 Q71.939,98.262 71.939,97.83 Q71.939,97.394 71.807,97.029 Q71.674,96.664 71.404,96.446 Q71.133,96.228 70.717,96.228 Q70.305,96.228 70.036,96.446 Q69.767,96.664 69.635,97.029 Q69.503,97.394 69.503,97.83 Q69.503,98.262 69.635,98.622 Q69.767,98.983 70.036,99.201 Q70.305,99.419 70.717,99.419 z" fill="#373535"/>
      <path d="M75.757,100.177 Q75.118,100.177 74.639,99.883 Q74.16,99.59 73.895,99.062 Q73.63,98.535 73.63,97.83 Q73.63,97.121 73.895,96.589 Q74.16,96.057 74.639,95.764 Q75.118,95.47 75.757,95.47 Q76.401,95.47 76.88,95.764 Q77.359,96.057 77.624,96.589 Q77.889,97.121 77.889,97.83 Q77.889,98.535 77.624,99.062 Q77.359,99.59 76.88,99.883 Q76.401,100.177 75.757,100.177 z M75.757,99.419 Q76.173,99.419 76.444,99.201 Q76.715,98.983 76.847,98.622 Q76.98,98.262 76.98,97.83 Q76.98,97.394 76.847,97.029 Q76.715,96.664 76.444,96.446 Q76.173,96.228 75.757,96.228 Q75.346,96.228 75.077,96.446 Q74.808,96.664 74.676,97.029 Q74.543,97.394 74.543,97.83 Q74.543,98.262 74.676,98.622 Q74.808,98.983 75.077,99.201 Q75.346,99.419 75.757,99.419 z" fill="#373535"/>
      <path d="M80.578,100.173 Q80.024,100.173 79.594,99.892 Q79.164,99.61 78.917,99.081 Q78.671,98.551 78.671,97.817 Q78.671,97.076 78.919,96.55 Q79.168,96.025 79.598,95.747 Q80.028,95.47 80.578,95.47 Q81.002,95.47 81.262,95.611 Q81.523,95.752 81.668,95.941 Q81.813,96.13 81.89,96.269 L81.939,96.269 L81.939,94.012 L82.835,94.012 L82.835,100.083 L81.963,100.083 L81.963,99.37 L81.89,99.37 Q81.809,99.517 81.66,99.704 Q81.511,99.892 81.25,100.032 Q80.989,100.173 80.578,100.173 z M80.774,99.411 Q81.344,99.411 81.65,98.967 Q81.955,98.522 81.955,97.809 Q81.955,97.1 81.654,96.666 Q81.352,96.232 80.774,96.232 Q80.378,96.232 80.115,96.44 Q79.853,96.648 79.72,97.005 Q79.588,97.361 79.588,97.809 Q79.588,98.262 79.722,98.624 Q79.857,98.987 80.122,99.199 Q80.386,99.411 80.774,99.411 z" fill="#373535"/>
      <path d="M48.595,110.097 L48.595,109.425 L50.657,107.294 Q51.13,106.797 51.374,106.45 Q51.619,106.104 51.619,105.705 Q51.619,105.248 51.311,104.985 Q51.003,104.723 50.543,104.723 Q50.058,104.723 49.769,105.014 Q49.479,105.305 49.479,105.794 L48.587,105.794 Q48.587,105.24 48.844,104.822 Q49.1,104.405 49.547,104.175 Q49.993,103.944 50.559,103.944 Q51.138,103.944 51.576,104.173 Q52.014,104.401 52.263,104.79 Q52.511,105.179 52.511,105.672 Q52.511,106.002 52.387,106.322 Q52.263,106.642 51.951,107.041 Q51.639,107.441 51.073,108.011 L49.883,109.254 L49.883,109.303 L52.605,109.303 L52.605,110.097 z" fill="#373535"/>
      <path d="M53.817,107.73 Q53.809,107.208 53.974,106.878 Q54.139,106.548 54.418,106.391 Q54.697,106.234 55.032,106.234 Q55.325,106.234 55.576,106.357 Q55.826,106.479 56.156,106.768 Q56.356,106.943 56.482,107.021 Q56.609,107.098 56.763,107.098 Q57.004,107.098 57.146,106.921 Q57.289,106.744 57.285,106.389 L58.047,106.389 Q58.059,106.911 57.89,107.241 Q57.721,107.571 57.442,107.728 Q57.163,107.885 56.837,107.885 Q56.531,107.885 56.276,107.754 Q56.022,107.624 55.708,107.355 Q55.5,107.172 55.378,107.096 Q55.256,107.021 55.101,107.021 Q54.873,107.021 54.724,107.186 Q54.575,107.351 54.579,107.73 z" fill="#373535"/>
      <path d="M61.26,110.179 Q60.644,110.179 60.166,109.967 Q59.687,109.755 59.408,109.38 Q59.128,109.005 59.112,108.508 L60.053,108.508 Q60.078,108.912 60.42,109.146 Q60.762,109.38 61.251,109.38 Q61.781,109.38 62.125,109.109 Q62.47,108.838 62.47,108.398 Q62.47,107.946 62.123,107.659 Q61.777,107.371 61.154,107.371 L60.636,107.371 L60.636,106.613 L61.154,106.613 Q61.655,106.613 61.971,106.351 Q62.286,106.088 62.286,105.652 Q62.286,105.232 62.009,104.977 Q61.732,104.723 61.268,104.723 Q60.828,104.723 60.489,104.957 Q60.151,105.191 60.135,105.607 L59.238,105.607 Q59.255,105.114 59.53,104.739 Q59.805,104.364 60.263,104.154 Q60.722,103.944 61.284,103.944 Q61.867,103.944 62.297,104.173 Q62.727,104.401 62.959,104.778 Q63.191,105.155 63.191,105.599 Q63.191,106.112 62.906,106.465 Q62.621,106.817 62.144,106.943 L62.144,106.988 Q62.751,107.082 63.081,107.471 Q63.411,107.86 63.411,108.431 Q63.411,108.936 63.132,109.331 Q62.853,109.726 62.368,109.953 Q61.883,110.179 61.26,110.179 z" fill="#373535"/>
      <path d="M68.403,110.187 Q67.849,110.187 67.419,109.906 Q66.989,109.625 66.742,109.095 Q66.496,108.565 66.496,107.832 Q66.496,107.09 66.744,106.564 Q66.993,106.039 67.423,105.762 Q67.853,105.485 68.403,105.485 Q68.827,105.485 69.087,105.625 Q69.348,105.766 69.493,105.955 Q69.637,106.145 69.715,106.283 L69.764,106.283 L69.764,104.026 L70.66,104.026 L70.66,110.097 L69.788,110.097 L69.788,109.384 L69.715,109.384 Q69.633,109.531 69.485,109.718 Q69.336,109.906 69.075,110.046 Q68.814,110.187 68.403,110.187 z M68.598,109.425 Q69.169,109.425 69.474,108.981 Q69.78,108.537 69.78,107.824 Q69.78,107.115 69.478,106.681 Q69.177,106.247 68.598,106.247 Q68.203,106.247 67.94,106.454 Q67.677,106.662 67.545,107.019 Q67.413,107.375 67.413,107.824 Q67.413,108.276 67.547,108.639 Q67.681,109.001 67.946,109.213 Q68.211,109.425 68.598,109.425 z" fill="#373535"/>
      <path d="M73.142,110.199 Q72.706,110.199 72.357,110.038 Q72.009,109.877 71.805,109.568 Q71.601,109.258 71.601,108.81 Q71.601,108.423 71.752,108.172 Q71.903,107.921 72.156,107.777 Q72.408,107.632 72.72,107.559 Q73.032,107.485 73.354,107.449 Q73.957,107.379 74.23,107.328 Q74.503,107.278 74.503,107.037 L74.503,107.013 Q74.503,106.634 74.281,106.424 Q74.059,106.214 73.631,106.214 Q73.182,106.214 72.926,106.41 Q72.669,106.605 72.575,106.837 L71.732,106.617 Q71.887,106.21 72.176,105.961 Q72.465,105.713 72.838,105.599 Q73.211,105.485 73.618,105.485 Q73.891,105.485 74.201,105.55 Q74.511,105.615 74.784,105.784 Q75.057,105.953 75.228,106.267 Q75.399,106.581 75.399,107.074 L75.399,110.097 L74.531,110.097 L74.531,109.474 L74.486,109.474 Q74.352,109.743 74.024,109.971 Q73.696,110.199 73.142,110.199 z M73.341,109.478 Q73.704,109.478 73.965,109.333 Q74.226,109.189 74.366,108.956 Q74.507,108.724 74.507,108.455 L74.507,107.872 Q74.442,107.938 74.228,107.985 Q74.014,108.031 73.777,108.064 Q73.541,108.097 73.403,108.113 Q73.024,108.166 72.753,108.319 Q72.482,108.471 72.482,108.822 Q72.482,109.148 72.724,109.313 Q72.967,109.478 73.341,109.478 z" fill="#373535"/>
      <path d="M76.413,111.735 L76.633,111.006 L76.735,111.03 Q77.081,111.124 77.324,111.008 Q77.566,110.892 77.693,110.452 L77.79,110.118 L76.059,105.542 L77.028,105.542 L77.929,108.129 Q78.031,108.431 78.108,108.724 Q78.186,109.017 78.259,109.311 Q78.336,109.017 78.418,108.722 Q78.499,108.427 78.605,108.129 L79.522,105.542 L80.484,105.542 L78.504,110.729 Q78.296,111.275 77.943,111.554 Q77.591,111.833 77.041,111.833 Q76.829,111.833 76.664,111.803 Q76.499,111.772 76.413,111.735 z" fill="#373535"/>
      <path d="M82.847,110.191 Q82.106,110.191 81.619,109.871 Q81.132,109.551 81.01,108.944 L81.853,108.769 Q82.036,109.466 82.855,109.466 Q83.291,109.466 83.546,109.284 Q83.801,109.103 83.801,108.85 Q83.801,108.418 83.161,108.276 L82.395,108.101 Q81.14,107.819 81.14,106.842 Q81.14,106.434 81.366,106.128 Q81.592,105.823 81.99,105.654 Q82.387,105.485 82.904,105.485 Q83.642,105.485 84.062,105.8 Q84.481,106.116 84.628,106.621 L83.825,106.797 Q83.74,106.556 83.528,106.375 Q83.316,106.194 82.912,106.194 Q82.542,106.194 82.293,106.361 Q82.045,106.528 82.045,106.784 Q82.045,107.013 82.21,107.153 Q82.375,107.294 82.749,107.379 L83.483,107.542 Q84.726,107.824 84.726,108.773 Q84.726,109.189 84.487,109.508 Q84.249,109.828 83.825,110.01 Q83.401,110.191 82.847,110.191 z" fill="#373535"/>
      <g>
        <path d="M141.761,150.675 L141.647,135.251" fill="#292929"/>
        <path d="M142.261,151.175 C142.231,147.134 142.209,144.152 142.193,141.951" fill-opacity="0" stroke="#292929" stroke-width="1"/>
        <path d="M143.736,142.825 L141.646,135.251 L139.669,142.855 z" fill="#292929"/>
      </g>
      <text transform="matrix(1, 0, -0, 1, 141.651, 158.264)">
        <tspan x="-22.541" y="2" font-family="Inter-Medium" font-size="7.708" fill="#373535">2% </tspan>
        <tspan x="-8.081" y="2" font-family="Inter-Medium" font-size="7.708" kerning="-0.031" fill="#373535">A</tspan>
        <tspan x="-2.706" y="2" font-family="Inter-Medium" font-size="7.708" fill="#373535">ga</tspan>
        <tspan x="6.447" y="2" font-family="Inter-Medium" font-size="7.708" kerning="-0.075" fill="#373535">r</tspan>
        <tspan x="9.206" y="2" font-family="Inter-Medium" font-size="7.708" fill="#373535">os</tspan>
        <tspan x="18.013" y="2" font-family="Inter-Medium" font-size="7.708" kerning="0" fill="#373535">e</tspan>
      </text>
      <g clip-path="url(#Clip_6)">
        <text transform="matrix(1, 0, -0, 1, 141.674, 168.278)">
          <tspan x="-11.727" y="2" font-family="Inter-Medium" font-size="7.708" kerning="-0.058" fill="#373535">2</tspan>
          <tspan x="-7.156" y="2" font-family="Inter-Medium" font-size="7.708" fill="#373535">4 hr</tspan>
          <tspan x="7.576" y="2" font-family="Inter-Medium" font-size="7.708" kerning="0" fill="#373535">s</tspan>
        </text>
        <g clip-path="url(#Clip_4)" opacity="0.2">
          <path d="M101.263,45.148 L35.103,45.148 L35.103,38.922 L101.263,38.922 z" fill="#A67F50"/>
        </g>
        <path d="M101.763,45.648 L35.603,45.648 L35.603,39.422 L101.763,39.422 z" fill-opacity="0" stroke="#737476" stroke-width="0.75"/>
        <g clip-path="url(#Clip_5)" opacity="0.8">
          <path d="M148.167,45.148 L101.263,45.148 L101.263,38.922 L148.167,38.922 z" fill="#F79734"/>
        </g>
        <path d="M148.667,45.648 L101.763,45.648 L101.763,39.422 L148.667,39.422 z" fill-opacity="0" stroke="#737476" stroke-width="0.75"/>
        <g opacity="0.8">
          <path d="M152.121,45.148 L148.167,45.148 L148.167,38.922 L152.121,38.922 z" fill="#FEFEFE"/>
        </g>
        <path d="M152.621,45.648 L148.667,45.648 L148.667,39.422 L152.621,39.422 z" fill-opacity="0" stroke="#737476" stroke-width="0.75"/>
        <path d="M65.221,113.3 L65.335,124.594" fill="#292929"/>
        <path d="M65.721,113.8 C65.742,115.847 65.759,117.522 65.773,118.894" fill-opacity="0" stroke="#292929" stroke-width="1"/>
        <path d="M63.224,117.026 L65.334,124.594 L67.291,116.985 z" fill="#292929"/>
        <path d="M108.699,67.095 L108.585,50.422" fill="#292929"/>
        <path d="M109.199,67.595 C109.167,62.911 109.144,59.542 109.127,57.121" fill-opacity="0" stroke="#292929" stroke-width="1"/>
        <path d="M110.671,57.997 L108.585,50.423 L106.604,58.025 z" fill="#292929"/>
        <path d="M107.796,102.006 L107.91,124.593" fill="#292929"/>
        <path d="M108.296,102.506 C108.336,110.416 108.362,115.555 108.379,118.895" fill-opacity="0" stroke="#292929" stroke-width="1"/>
        <path d="M105.839,117.016 L107.911,124.594 L109.906,116.995 z" fill="#292929"/>
        <path d="M150.057,73.01 L149.943,50.423" fill="#292929"/>
        <path d="M150.557,73.51 C150.517,65.6 150.491,60.461 150.474,57.121" fill-opacity="0" stroke="#292929" stroke-width="1"/>
        <path d="M152.015,58.001 L149.943,50.423 L147.948,58.022 z" fill="#292929"/>
      </g>
      <text transform="matrix(1, 0, -0, 1, 93.371, 29.965)">
        <tspan x="-9.65" y="3.5" font-family="Inter-Medium" font-size="11.084" kerning="-0.199" fill="#373535">F</tspan>
        <tspan x="-3.717" y="3.5" font-family="Inter-Medium" font-size="11.084" kerning="0.004" fill="#373535">e</tspan>
        <tspan x="2.798" y="3.5" font-family="Inter-Medium" font-size="11.084" kerning="0" fill="#373535">d</tspan>
      </text>
      <text transform="matrix(1, 0, -0, 1, 93.427, 143.773)">
        <tspan x="-20.591" y="3.5" font-family="Inter-Medium" font-size="11.084" fill="#373535">S</tspan>
        <tspan x="-13.43" y="3.5" font-family="Inter-Medium" font-size="11.084" kerning="0.031" fill="#373535">t</tspan>
        <tspan x="-9.573" y="3.5" font-family="Inter-Medium" font-size="11.084" fill="#373535">a</tspan>
        <tspan x="-3.279" y="3.5" font-family="Inter-Medium" font-size="11.084" kerning="0.083" fill="#373535">r</tspan>
        <tspan x="1.264" y="3.5" font-family="Inter-Medium" font-size="11.084" kerning="-0.195" fill="#373535">v</tspan>
        <tspan x="7.228" y="3.5" font-family="Inter-Medium" font-size="11.084" fill="#373535">e</tspan>
        <tspan x="13.739" y="3.5" font-family="Inter-Medium" font-size="11.084" kerning="0" fill="#373535">d</tspan>
      </text>
    </g>
  </g>
</svg>
