<?xml version="1.0" encoding="UTF-8" standalone="no"?>
<!-- Created with matplotlib (https://matplotlib.org/) -->

<svg
   height="85pt"
   version="1.1"
   viewBox="0 0 220.00001 84.999998"
   width="220pt"
   id="svg40"
   sodipodi:docname="Eg28_0.svg"
   inkscape:version="1.3.2 (091e20e, 2023-11-25)"
   xmlns:inkscape="http://www.inkscape.org/namespaces/inkscape"
   xmlns:sodipodi="http://sodipodi.sourceforge.net/DTD/sodipodi-0.dtd"
   xmlns:xlink="http://www.w3.org/1999/xlink"
   xmlns="http://www.w3.org/2000/svg"
   xmlns:svg="http://www.w3.org/2000/svg">
  <sodipodi:namedview
     id="namedview40"
     pagecolor="#ffffff"
     bordercolor="#000000"
     borderopacity="0.25"
     inkscape:showpageshadow="2"
     inkscape:pageopacity="0.0"
     inkscape:pagecheckerboard="0"
     inkscape:deskcolor="#d1d1d1"
     inkscape:document-units="pt"
     inkscape:zoom="1.4851739"
     inkscape:cx="195.6"
     inkscape:cy="63.965575"
     inkscape:window-width="1392"
     inkscape:window-height="1027"
     inkscape:window-x="0"
     inkscape:window-y="25"
     inkscape:window-maximized="0"
     inkscape:current-layer="patch_3" />
  <defs
     id="defs1">
    <style
       type="text/css"
       id="style1">
*{stroke-linecap:butt;stroke-linejoin:round;}
  </style>
  </defs>
  <g
     id="figure_1">
    <g
       id="patch_1"
       transform="translate(-16.5,-6)" />
    <g
       id="axes_1"
       transform="translate(-16.5,-6)">
      <g
         id="patch_2" />
      <g
         id="matplotlib.axis_1" />
      <g
         id="matplotlib.axis_2" />
      <g
         id="line2d_1">
        <path
           clip-path="url(#pc465345452)"
           d="m 51.937973,74.020266 1.561561,-0.01025 0.699998,0.129138 2.182685,0.137119 2.593378,-0.137385 2.292358,-0.336552 0.891331,-0.384366 0.05552,-0.130706 -0.289686,-0.30868 -1.037425,-0.358817 -0.615426,-0.490393 -1.59349,-1.767714 -1.793096,-1.569923 -2.01417,-1.346047 -2.195352,-1.111947 -0.722245,-0.252787 -0.663722,0.02541 -2.598663,0.934068 -2.156345,0.197025 -2.269294,0.0198 -1.35556,0.137322 -1.175472,0.24058 -0.824809,0.299386 -0.521305,0.401737 -0.193346,0.589072 -0.382439,2.610805 -0.584582,1.015142 -0.4287,0.429122 -0.450511,0.191699 -0.410929,-0.05089 -0.505382,-0.280155 1.489401,0.856511 -0.740952,0.272307 -0.711081,0.518855 -1.129948,0.465766 -0.857036,0.142777 -0.133819,-0.05578 0.113564,-0.140227 0.788664,-0.657075 0.260688,-0.350107 0.305559,-0.674192 0.915369,-3.427111 0.566175,-1.039879 0.654904,-0.969062 0.715329,-0.809431 0.736132,-0.594975 0.45954,-0.2268 0.680256,-0.117236 0.690007,0.05183 2.245489,0.616613 1.695682,0.546832 0.181948,-0.703173 0.205552,-0.385593 0.524596,-0.595854 0.711573,-0.549512 0.92561,-0.352011 1.079036,-0.03152 0.751203,0.104551 3.029072,0.731843 1.092116,-0.01972 2.288361,-0.812726 1.001372,-0.544108 0.692944,-0.541735 0.992939,-1.094499 0.92817,-1.267281 2.086549,-3.533667 1.155061,-1.483986 0.352969,-0.19119 0.1385,0.631688 0.03548,1.236538 -0.06764,2.850851 -0.382763,3.472053 -0.588841,3.668078 -0.753889,3.14644 -0.533263,1.562088 -0.709518,1.311275 -0.800822,0.937551 0.01972,0.477741 0.08428,-0.258817 0.625025,-1.237472 0.550538,-0.523139 1.447831,-0.90323 -1.114163,0.806573 -0.167325,0.03135 -0.482754,-0.532334 -0.24542,-0.793644 -0.233664,-3.551718 -0.201325,-1.412772 0.200189,-1.717891 0.67403,-2.627848 1.05131,-3.155419 0.42076,-0.537827 0.100563,0.301981 -0.0035,0.122691 0.05556,-0.58815 -0.10023,0.387842 -0.142086,0.899292 -0.47432,2.220007 -0.732031,2.735971 -0.912874,2.581339 -0.923303,1.841436 -0.549274,0.592892 -0.590224,-0.282429 -0.421346,-0.864637 -0.454406,-2.243087 -1.152308,-7.520062 -0.08093,-1.687594 0.02607,-1.79248 0.198138,-1.885656 0.340638,-1.892467 1.300986,-4.968309 1.067216,-3.524979 0.464879,-1.925412 0.381877,-2.08467 0.153638,-1.491233 0.0066,-2.271797 -0.230623,-2.164162 -0.384292,-1.816635 -0.655327,-1.885344 -0.324963,-0.422549 -0.298463,-0.14222 -1.505448,-0.05059 -2.124296,-0.229227 -5.476914,-0.01751 -1.708771,-0.16313 -1.657342,-0.363981 -1.462997,-0.507167 -0.774535,-0.397999 -0.890493,-0.652708 -0.615108,-0.671261 -1.243161,-2.158504 -0.07935,0.174425 3.20609,19.589667 2.306152,15.117383 0.28508,-1.786769 0.885064,-4.234651 0.273969,-3.219259 -0.03996,-2.182037 -0.706456,-8.31693 -0.292534,-2.267918 -0.46155,-2.203429 -0.801104,-2.008167 -1.072923,-1.734368 -0.801396,-0.923062 -2.423389,-2.179443 -0.370898,-0.981229 -0.340197,-1.34136 -0.225468,-0.328734 0.182327,0.238516 0.471828,0.370526 0.587796,0.304938 0.580246,0.124054 0.529739,-0.225984 -0.07271,-0.231721 -0.838745,-0.779325 -0.506477,-1.023419 -0.680701,-1.500358 0.01971,0.38717 0.370898,1.151521 0.131034,0.876832 0.297671,0.48652 0.427408,0.35213 2.208918,0.976531 2.081654,0.577398 0.743155,-0.04295 0.569528,-0.320466 1.246501,-0.163515 2.461373,-0.312716 1.310078,-0.449494 1.184387,-0.653952 0.676062,-0.516875 0.786082,-0.767987 0.768939,-1.162791 0.139436,-0.36059 -0.584539,1.277139 -0.24139,0.171679 0.489498,-0.638276 0.432213,-0.245724 0.02403,0.158765 -0.660731,0.969824 -0.972538,0.945902 -0.672024,0.469249 -0.790091,0.383699 -1.621822,0.490337 -2.457732,0.251352 -1.448521,-0.03717 -1.505967,-0.169074 -1.008228,-0.259702 -1.389185,-0.567543 -1.193357,-0.682829 -0.843933,-0.70261 v 0"
           style="fill:none;stroke:#808080;stroke-linecap:square"
           id="path3" />
      </g>
      <g
         id="line2d_2">
        <path
           clip-path="url(#pc465345452)"
           d="m 40.375659,21.702545 -0.0214,0.250882 0.0504,0.11251 0.06648,-0.08699 0.07623,-0.02939 0.180617,0.22954 0.18395,1.014343 0.806517,1.369704 1.100884,1.363815 0.80738,0.169496 2.272167,0.046 2.776144,0.346803 1.216822,0.02117 1.334,-0.130354 0.904417,-0.226245 1.238379,-0.57829 1.08105,-0.74 1.413266,-1.457651 0.605907,-0.918023 0.217394,-0.865051 0.181601,-0.589791 0.01232,0.14367 -0.142409,0.99659 -0.109854,0.166881 -0.02739,-0.07398 -0.005,-0.131772 -0.02796,0.132384 -0.253928,0.827655 -0.979711,2.569166 0.0827,0.133832 0.264109,0.134927 0.85179,0.05404 1.052781,0.05678 0.766702,0.282445 0.823362,0.48833 1.453824,1.487276 0.366679,0.516051 0.548063,1.334163 0.50354,1.898158 0.6013,1.904026 0.07364,0.507786 -0.0923,0.272348 -0.293843,0.06879 -0.688997,-0.338145 0.171492,-0.05055 0.236226,0.01988 -0.0043,0.03593 0.03943,0.340536 -0.01275,0.15543 -0.189482,-0.06375 -0.233501,-0.05946 -0.257023,0.01027 0.05925,0.125937 -0.04274,0.07461 -0.03677,-0.138394 -0.01085,0.137391 -0.01626,-0.0074 0.02657,0.104119 0.06266,1.327604 -9.1e-4,0.449353 -0.109185,-0.197576 -0.133039,-0.304472 0.36928,0.541473 0.227963,0.276234 0.255752,0.302706 -0.05562,-0.004 0.01993,0.09169 0.0743,0.161161 -0.06723,0.0194 -0.11525,-0.04954 -0.09638,-0.133959 0.12164,0.339084 -0.03765,-3.26e-4 0.09834,0.372025 -0.30336,0.495525 0.204303,0.482926 0.1486,0.543331 -0.0936,0.429689 -0.208937,-0.02074 -0.206816,-0.315845 -0.0796,-0.382402 0.07,0.164229"
           style="fill:none;stroke:#a52a2a;stroke-linecap:square"
           id="path4" />
      </g>
      <g
         id="line2d_3">
        <path
           clip-path="url(#pc465345452)"
           d="m 41.921663,24.20126 -0.808562,-1.017315 -0.340594,-0.832887 -0.30647,-1.095512 0.06145,-0.06107 -0.0351,0.07252 0.08149,0.0042 0.0793,0.274787 -0.04217,2.29e-4 0.01358,-0.02101 -0.074,0.404707 0.01588,0.0036 0.0086,0.147167 0.289074,1.198637 5.84e-4,-0.182225 -0.105545,-0.532834 -0.221718,-0.550981 -0.02607,0.04195 -0.0061,0.02728 -0.05978,-0.155806 -0.04586,-0.244839 -0.02396,0.02075"
           style="fill:none;stroke:#ffa500;stroke-linecap:square"
           id="path5" />
      </g>
      <g
         id="line2d_4">
        <path
           clip-path="url(#pc465345452)"
           d="M 25.281461,16.465909 H 71.177362 V 79.474091 H 25.281461 V 16.465909"
           style="fill:none;stroke:#d3d3d3;stroke-width:2;stroke-linecap:square"
           id="path6" />
      </g>
      <g
         id="line2d_5">
        <path
           clip-path="url(#pc465345452)"
           d="M 33.965471,23.61655 H 45.084562"
           style="fill:none;stroke:#2e8b57;stroke-width:1.5;stroke-linecap:round;stroke-opacity:0.3"
           id="path7" />
      </g>
    </g>
    <g
       id="axes_2"
       transform="translate(-36,-6)">
      <g
         id="patch_3" />
      <g
         id="matplotlib.axis_3" />
      <g
         id="matplotlib.axis_4" />
      <g
         id="line2d_6">
        <path
           clip-path="url(#ped276ba6bf)"
           d="m 116.37462,37.572848 0.42578,0.01512 0.36276,0.07242 0.33381,-0.271661 0.66762,-0.675378 0.75788,-2.634378 0.18223,-0.103353 0.51519,0.514133 0.24269,0.07142 0.2725,0.428047 0.84985,2.198109 0.42408,-0.02911 0.3338,0.267963 0.2725,0.123777 0.42408,0.506917 0.24354,-0.08356 0.24184,-0.45781 0.36447,-1.54015 0.42407,-1.8756 0.15243,-0.15638 0.18138,0.113455 0.42492,0.450891 0.18139,-0.134502 0.51604,-1.067296 0.0596,0.04752 0.36446,0.348475 0.15158,-0.11437 0.18223,-0.279833 0.15158,-0.493565 0.69742,-3.441192 0.0911,0.28713 0.15157,1.857905 0.42408,5.981788 0.27249,0.564138 0.24355,0.07918 0.18223,-0.117644 0.24184,-0.562487 0.36447,-0.648349 0.15157,0.07486 0.42408,0.306018 0.18223,-0.24197 0.24269,-0.669326 1.03209,-4.331862 0.33466,-1.229565 0.18053,0.0086 0.15242,0.143778 0.18224,-0.267341 0.0911,0.176292 0.15158,1.417863 0.33381,3.523472 0.0903,-0.128377 0.33381,-1.804181 0.60631,-4.608483 1.36419,-11.969642 0.27249,-0.06459 0.75874,-0.374798 0.42492,-1.318792 0.24185,-0.675589 0.092,0.07928 0.18053,3.380706 0.42578,12.280282 0.0596,0.114944 0.27335,-1.373277 0.33296,-2.827032 0.94096,-9.371866 0.60631,-1.749351 0.15243,0.108416 0.27249,0.363418 0.24185,-0.208048 0.33381,-0.354239 0.6063,-1.147171 0.33381,0.388027 0.45473,0.931083 0.42578,0.866391 0.15072,-0.01952 0.60716,-0.566451 0.57565,-1.573725 0.18223,0.135472 0.42408,0.523082 0.3338,-0.401818 0.18139,0.259948 0.5765,1.293586 0.2725,0.09735 0.15157,-0.194898 0.27335,-0.887719 v 0"
           style="fill:none;stroke:#808080;stroke-linecap:square"
           id="path9" />
      </g>
      <g
         id="line2d_7">
        <path
           clip-path="url(#ped276ba6bf)"
           d="m 193.61566,13.792066 1.27307,0.308987 0.27335,0.253068 0.75789,1.223372 0.3338,0.211806 0.42408,0.07396 0.27335,0.114211 0.15072,-0.162091 0.78854,-1.953879 0.24355,-0.382071 0.18223,0.06089 0.48538,0.452996 0.18053,0.07585 0.33381,-0.03335 0.18223,0.376207 0.42493,1.032337 0.24269,0.257629 0.42408,0.178756 0.27249,0.898003 0.75874,2.569272 0.27335,0.399129 1.09169,-0.145073 2.3043,0.04634 1.18281,0.07854 7.15561,0.164409 0.2742,0.344611 0.33296,0.433405 0.33295,5.09e-4 0.84986,-0.153363 3.24442,0.0202 2.70112,0.101998 2.57681,-0.05386 1.84957,0.132124 1.97135,0.203276 1.88023,0.01055 0.849,0.04425 2.87995,0.06417 0.42578,0.02405 1.7278,0.149449 0.75874,0.01319 3.57823,0.969993 0.33295,0.02341 1.27308,-0.309678 3.24442,0.06694 v 0"
           style="fill:none;stroke:#a52a2a;stroke-linecap:square"
           id="path10" />
      </g>
      <g
         id="line2d_8">
        <path
           clip-path="url(#ped276ba6bf)"
           d="m 145.76089,14.927846 0.27335,-0.57028 0.33296,-0.270722 0.42492,-0.404309 0.66677,-0.07552 7.00573,0.06511 0.90946,0.01121 12.70689,0.03107 1.84957,0.0075 4.51835,0.02462 1.03123,0.02159 5.1238,0.05582 1.33523,0.0047 1.36419,0.019 6.91377,0.07055 0.2444,0.134802 0.42492,0.437469 0.33296,0.0014 0.94097,-0.427149 0.33295,-0.131483 0.5467,-0.03935 0.42407,-0.111291 0.15158,0.0094 v 0"
           style="fill:none;stroke:#ffa500;stroke-linecap:square"
           id="path11" />
      </g>
      <g
         id="line2d_9">
        <path
           clip-path="url(#ped276ba6bf)"
           d="M 115.88923,14.662068 H 244.7123"
           style="fill:none;stroke:#2e8b57;stroke-width:1.5;stroke-linecap:square;stroke-opacity:0.3"
           id="path12" />
      </g>
      <g
         id="line2d_10">
        <path
           clip-path="url(#ped276ba6bf)"
           d="m 201.04462,40.05186 h 17.03107"
           style="fill:none;stroke:#000000;stroke-linecap:square"
           id="path13" />
      </g>
      <g
         id="line2d_11">
        <path
           clip-path="url(#ped276ba6bf)"
           d="M 107.3737,40.05186 V 31.628306"
           style="fill:none;stroke:#000000;stroke-linecap:square"
           id="path14" />
      </g>
      <g
         id="text_1">
        <!-- 10 s -->
        <defs
           id="defs14">
          <path
             d="M 7.90625,0 V 6.796875 H 22.5 v 47 H 10.90625 v 5.296875 q 4.390625,0.8125 7.640625,1.953125 3.25,1.15625 5.859375,2.75 h 6.296875 v -57 H 43.90625 V 0 Z"
             id="SourceSansPro-Regular-49" />
          <path
             d="m 24.90625,-1.203125 q -9.703125,0 -15.109375,8.59375 Q 4.40625,16 4.40625,32.09375 q 0,16.109375 5.390625,24.5 Q 15.203125,65 24.90625,65 34.5,65 39.890625,56.59375 q 5.40625,-8.390625 5.40625,-24.5 Q 45.296875,16 39.890625,7.390625 34.5,-1.203125 24.90625,-1.203125 Z m 0,6.609375 q 2.796875,0 5.046875,1.546875 Q 32.203125,8.5 33.84375,11.75 35.5,15 36.390625,20.046875 q 0.90625,5.046875 0.90625,12.046875 0,7 -0.90625,12 -0.890625,5 -2.546875,8.15625 -1.640625,3.15625 -3.890625,4.65625 -2.25,1.5 -5.046875,1.5 -2.8125,0 -5.109375,-1.5 Q 17.5,55.40625 15.84375,52.25 q -1.640625,-3.15625 -2.546875,-8.15625 -0.890625,-5 -0.890625,-12 0,-14 3.4375,-20.34375 3.453125,-6.34375 9.0625,-6.34375 z"
             id="SourceSansPro-Regular-48" />
          <path
             id="SourceSansPro-Regular-32"
             d="" />
          <path
             d="M 20.90625,-1.203125 Q 15.703125,-1.203125 11,0.6875 6.296875,2.59375 2.796875,5.5 L 6.90625,11 q 3.1875,-2.59375 6.53125,-4.203125 3.359375,-1.59375 7.765625,-1.59375 4.796875,0 7.1875,2.1875 2.40625,2.203125 2.40625,5.40625 0,1.90625 -1,3.296875 -1,1.40625 -2.546875,2.453125 -1.546875,1.046875 -3.546875,1.84375 -2,0.8125 -4,1.609375 Q 17.09375,22.90625 14.5,24.046875 11.90625,25.203125 9.84375,26.84375 7.796875,28.5 6.5,30.703125 5.203125,32.90625 5.203125,36 q 0,2.90625 1.140625,5.453125 Q 7.5,44 9.640625,45.84375 q 2.15625,1.859375 5.25,2.90625 3.109375,1.046875 7.015625,1.046875 4.59375,0 8.4375,-1.609375 Q 34.203125,46.59375 37,44.296875 L 33.09375,39.09375 Q 30.59375,41 27.890625,42.203125 25.203125,43.40625 22,43.40625 q -4.59375,0 -6.75,-2.109375 -2.15625,-2.09375 -2.15625,-4.890625 0,-1.703125 0.90625,-2.953125 0.90625,-1.25 2.40625,-2.203125 1.5,-0.953125 3.4375,-1.703125 1.953125,-0.75 4.0625,-1.546875 2.59375,-1 5.234375,-2.109375 2.65625,-1.09375 4.75,-2.75 Q 36,21.5 37.34375,19.09375 q 1.359375,-2.390625 1.359375,-5.796875 0,-3 -1.15625,-5.609375 -1.140625,-2.59375 -3.390625,-4.59375 -2.25,-2 -5.609375,-3.140625 -3.34375,-1.15625 -7.640625,-1.15625 z"
             id="SourceSansPro-Regular-115" />
        </defs>
        <g
           transform="matrix(0.08,0,0,-0.08,203.10765,36.682438)"
           id="g17">
          <use
             xlink:href="#SourceSansPro-Regular-49"
             id="use14" />
          <use
             x="49.699997"
             xlink:href="#SourceSansPro-Regular-48"
             id="use15" />
          <use
             x="99.399994"
             xlink:href="#SourceSansPro-Regular-32"
             id="use16" />
          <use
             x="119.39998"
             xlink:href="#SourceSansPro-Regular-115"
             id="use17" />
        </g>
      </g>
      <g
         id="text_2">
        <!-- 5 mm -->
        <defs
           id="defs17">
          <path
             d="m 23.40625,-1.203125 q -3.8125,0 -6.96875,0.75 Q 13.296875,0.296875 10.75,1.5 8.203125,2.703125 6.140625,4.25 4.09375,5.796875 2.5,7.5 l 4,5.40625 Q 9.296875,10 13.140625,7.796875 17,5.59375 22.59375,5.59375 q 2.90625,0 5.453125,1.046875 2.546875,1.0625 4.453125,2.953125 1.90625,1.90625 3,4.609375 1.09375,2.703125 1.09375,6 0,6.59375 -3.703125,10.296875 -3.6875,3.703125 -9.890625,3.703125 -3.296875,0 -5.65625,-1 -2.34375,-1 -5.25,-2.90625 l -4.390625,2.796875 2.09375,30.703125 h 31.90625 v -7.09375 H 17 l -1.703125,-18.90625 q 2.296875,1.203125 4.59375,1.90625 2.3125,0.703125 5.203125,0.703125 4.109375,0 7.703125,-1.203125 Q 36.40625,38 39.09375,35.546875 q 2.703125,-2.453125 4.25,-6.203125 1.5625,-3.75 1.5625,-8.9375 0,-5.203125 -1.8125,-9.203125 -1.796875,-4 -4.796875,-6.75 -3,-2.75 -6.859375,-4.203125 -3.84375,-1.453125 -8.03125,-1.453125 z"
             id="SourceSansPro-Regular-53" />
          <path
             d="M 8.203125,0 V 48.59375 H 15 l 0.703125,-7 H 16 q 3.203125,3.5 6.953125,5.84375 3.75,2.359375 8.140625,2.359375 5.609375,0 8.75,-2.453125 Q 43,44.90625 44.5,40.5 48.296875,44.703125 52.140625,47.25 56,49.796875 60.5,49.796875 q 7.5,0 11.140625,-4.796875 3.65625,-4.796875 3.65625,-14.203125 V 0 H 67.09375 v 29.703125 q 0,6.890625 -2.203125,9.9375 -2.1875,3.0625 -6.796875,3.0625 -5.5,0 -12.1875,-7.5 V 0 h -8.203125 v 29.703125 q 0,6.890625 -2.203125,9.9375 -2.203125,3.0625 -6.90625,3.0625 -5.5,0 -12.1875,-7.5 V 0 Z"
             id="SourceSansPro-Regular-109" />
        </defs>
        <g
           transform="matrix(0,-0.08,-0.08,0,101.14819,45.260708)"
           id="g21">
          <use
             xlink:href="#SourceSansPro-Regular-53"
             id="use18" />
          <use
             x="49.699997"
             xlink:href="#SourceSansPro-Regular-32"
             id="use19" />
          <use
             x="69.699982"
             xlink:href="#SourceSansPro-Regular-109"
             id="use20" />
          <use
             x="152.59998"
             xlink:href="#SourceSansPro-Regular-109"
             id="use21" />
        </g>
      </g>
    </g>
    <g
       id="axes_3"
       transform="translate(-16.5,-6)">
      <g
         id="patch_4" />
      <g
         id="PolyCollection_1"
         transform="translate(-19.5)">
        <path
           clip-path="url(#p2cd42d3419)"
           d="M 115.88923,1062.6998 V 52.891118 l 0.18224,0.09822 0.0596,-0.0089 0.0613,-0.02706 0.0613,-0.05942 0.0596,-0.03793 0.0613,-0.0028 0.0596,0.05152 0.0613,0.134294 0.0596,-0.05362 0.0613,0.183095 0.0613,-0.06251 0.0596,0.03978 0.0613,-0.109584 0.0613,0.04349 0.0596,-0.0084 0.0613,0.06326 0.0613,-0.06017 0.0596,-0.06844 0.0613,-0.0072 0.0596,0.09538 0.0613,-0.09945 0.0596,-0.01927 0.0613,-0.03694 0.0613,-0.01964 0.0596,-0.01581 0.0613,0.260186 0.0613,-0.0044 0.0596,-0.0194 0.0613,-0.09118 0.0596,0.03941 0.0613,-0.05127 0.0613,0.04596 0.0596,-0.03719 0.0613,0.184453 0.0596,-0.124534 0.0613,-0.03892 0.0613,0.0077 0.0596,-0.04411 0.0613,-0.04287 0.0596,-0.05918 0.0613,-0.01964 0.0613,-0.05214 0.0596,-0.01618 0.0613,0.150602 0.0596,-0.01161 0.0613,-0.03187 0.0613,0.10489 0.0596,-0.04497 0.0613,0.141707 0.0596,-0.05263 0.0613,-0.07635 0.0613,0.01693 0.0613,0.0057 0.0596,-0.0399 0.0613,-8.65e-4 0.0596,0.0766 0.0613,-0.06573 0.0596,0.04991 0.0613,-0.0572 0.0613,0.236837 0.0596,-0.0068 0.0613,0.114156 0.0613,-0.01285 0.0596,0.01532 0.0613,-0.03237 0.0596,-0.121075 0.0613,-0.03645 0.0613,-0.07981 0.0596,-0.02557 0.0613,0.04188 0.0596,0.02706 0.0613,-0.394604 0.0613,-0.05856 0.0596,0.02446 0.0613,0.156532 0.0596,-0.01359 0.0613,0.18643 0.0613,-0.01025 0.12092,0.107609 0.0596,0.05226 0.0613,3.71e-4 0.0613,0.01359 0.0596,-0.01223 0.0613,0.003 0.0613,-0.07437 0.0596,0.265499 0.0613,-0.07993 0.0596,-0.04732 0.0613,-0.03954 0.0613,-0.053 0.0596,-0.08327 0.0613,-0.03447 0.0613,0.0061 0.0596,0.08203 0.0613,-0.06956 0.0596,-0.03225 0.0613,0.193225 0.0613,0.212375 0.12092,-0.04942 0.0596,-0.03027 0.0613,-0.02854 0.0613,-0.06227 0.0596,-0.0086 0.0613,0.01668 0.30315,-0.04979 0.18223,-0.01149 0.0596,-0.0069 0.0613,-0.08982 0.0596,-0.122187 0.12263,0.04324 0.0596,-0.06251 0.0613,0.0078 0.0613,-0.0079 0.0596,-0.01791 0.12092,-0.05906 0.0613,0.06696 0.12092,0.0033 0.0613,0.08809 0.0613,0.07203 0.0596,-0.02829 0.0613,0.141089 0.12092,-0.09735 0.0613,-0.05387 0.0596,0.0556 0.0613,-0.0025 0.0596,-0.0131 0.0613,0.02928 0.12092,-0.04411 0.0613,-0.01557 0.0596,0.06684 0.0613,-0.0032 0.0613,-0.05288 0.12092,0.0023 0.0596,0.117615 0.0613,-0.09501 0.0613,-0.04905 0.0596,-0.02211 0.12262,-0.02656 0.24184,-0.01705 0.0596,0.08772 0.0613,0.166663 0.0613,-0.07833 0.0596,0.16864 0.12262,0.123792 0.0596,0.128488 0.0613,-0.08685 0.0596,-0.132688 0.0613,0.173829 0.0613,-0.08834 0.0596,-0.130217 0.0613,0.03793 0.30315,-0.08413 0.0596,0.02224 0.0613,-0.04052 0.0613,-0.05139 0.0596,-0.107484 0.12092,-0.03694 0.0613,-0.02298 0.0613,-0.08969 0.0596,0.134418 0.18223,-0.04373 0.0613,-0.08142 0.12092,0.113662 0.0613,-0.05609 0.0596,0.33975 0.0613,-0.0661 0.0596,-0.04102 0.12263,0.157274 0.0596,-0.08821 0.0613,-0.01112 0.0596,-0.03682 0.0613,-0.03929 0.0613,0.119963 0.0613,-0.08154 0.0596,-0.04213 0.12092,0.02125 0.0613,0.01025 0.0596,-0.100813 0.0613,-0.0028 0.0613,-0.03422 0.12093,-0.007 0.0613,-0.02656 0.0596,0.17494 0.0613,-0.108102 0.0596,-0.04275 0.0613,-0.01989 0.0613,-0.04658 0.12092,-0.06746 0.0596,0.183836 0.0613,0.03299 0.0613,-0.09043 0.0596,0.0341 0.0613,-0.03064 0.12092,0.115886 0.0613,0.03756 0.0596,-0.07475 0.0613,0.0761 0.0596,0.03002 0.0613,-0.121321 0.0613,0.0012 0.12092,-0.116874 0.0613,-0.06882 0.0596,-0.04794 0.0613,-0.0089 0.0596,0.09352 0.0613,-0.02866 0.12092,0.191248 0.0613,-0.04188 0.0596,-0.0446 0.24355,0.07944 0.0613,-0.109832 0.12092,-0.05918 0.0596,0.02224 0.0613,-0.0064 0.0596,0.171357 0.0613,0.07808 0.12092,0.243384 0.0613,0.145661 0.0596,-0.09044 0.0613,0.01186 0.0613,0.108473 0.0596,-0.163945 0.12092,0.0782 0.0613,-0.130464 0.24354,-0.0619 0.0596,0.01272 0.0613,0.064 0.0613,-0.06461 0.0596,-0.102048 0.12092,-0.03731 0.0613,0.224235 0.0613,0.03991 0.0596,4.94e-4 0.0613,0.06227 0.0596,0.0677 0.12262,0.05943 0.0596,0.02644 0.0613,-0.0782 0.0596,0.105631 0.12263,-0.111561 0.0596,0.004 0.0613,0.02088 0.0596,-0.116256 0.0613,-0.09352 0.0613,-0.166168 0.0596,0.159003 0.12092,-0.0098 0.0613,-0.06869 0.0613,-0.123298 0.0596,-0.148996 0.0613,-0.05362 0.0613,0.197179 0.12093,-0.06832 0.0596,0.05696 0.0613,0.05053 0.0613,-0.04534 0.0596,-0.02978 0.12262,-0.06671 0.0596,0.181735 0.0613,0.09587 0.0596,0.04682 0.0613,-0.151837 0.0596,0.179511 0.12433,0.07524 0.0596,-0.0829 0.0613,0.01767 0.0596,-0.09908 0.0613,0.188901 0.0613,-0.08685 0.0596,-0.0357 0.12262,-0.132935 0.0596,-0.0913 0.0613,-0.07116 0.0596,-0.07586 0.0613,0.05856 0.0613,0.141213 0.12092,-0.03694 0.0613,-0.113662 0.0596,0.0074 0.0613,0.07277 0.0596,-0.02644 0.0613,-0.01594 0.12092,-0.06758 0.0613,0.09822 0.0596,-0.02965 0.0613,0.05411 0.0613,-0.109956 0.12093,0.136765 0.0596,-0.07944 0.0613,-0.01754 0.0613,-0.05102 0.0596,-6.18e-4 0.12092,-0.05745 0.0613,-0.03669 0.0613,0.13763 0.0596,0.163574 0.0613,-0.126263 0.0596,-0.145043 0.0613,0.12997 0.12092,-0.03286 0.0613,-0.0084 0.0613,-0.02236 0.0596,-0.02792 0.0613,-0.09859 0.24184,0.344939 0.0613,0.0299 0.0596,-0.142448 0.0613,-0.109709 0.0613,0.0404 0.12092,-0.02582 0.0596,-0.07314 0.0613,-0.0049 0.0613,-0.04052 0.0596,-0.0051 0.12262,0.218799 0.0596,0.16135 0.0613,0.06177 0.0596,-0.09439 0.0613,-0.05189 0.0613,-0.0152 0.12092,-0.08599 0.0596,-0.03904 0.0613,-0.03595 0.0613,-0.05584 0.0596,-0.02804 0.12263,-0.03595 0.0596,0.07635 0.0596,-0.07289 0.0613,-0.01705 0.0613,-8.65e-4 0.0613,-3.7e-4 0.0596,0.0215 0.0613,0.0025 0.0596,0.0028 0.0613,-0.04077 0.0613,-0.01161 0.0596,-0.07116 0.0613,-0.06684 0.0596,0.103654 0.0613,0.0273 0.0613,-0.01989 0.0596,0.01989 0.0613,0.0126 0.0596,0.064 0.0613,0.0147 0.0613,-0.02113 0.0596,-0.02397 0.0613,-0.0049 0.0596,-0.04238 0.0613,-0.04151 0.0613,-0.0075 0.0596,0.107114 0.0613,0.21744 0.0613,0.05016 0.0596,0.01804 0.0613,-0.126016 0.0596,-0.01569 0.0613,-0.0472 0.0613,0.09501 0.0596,-0.04213 0.0613,0.208915 0.0596,-0.06523 0.12262,0.09464 0.0596,-0.09711 0.0613,-0.07746 0.0596,-0.0677 0.0613,0.0082 0.0613,0.236219 0.0596,-0.107855 0.0613,-0.117862 0.0613,-0.04633 0.0596,0.09661 0.0613,0.142448 0.12092,-0.04559 0.24184,0.06338 0.0613,-0.08389 0.0613,0.02841 0.0596,-0.123792 0.12263,-0.021 0.0596,0.127375 0.0613,-0.06499 0.0596,-0.01754 0.12092,-0.04966 0.0613,0.163944 0.0613,-0.08117 0.0596,-0.06968 0.0613,0.05115 0.0613,-0.09303 0.0596,-0.06115 0.0613,-0.0572 0.0596,0.08438 0.0613,-0.118233 0.0613,0.01964 0.12092,0.09352 0.0596,-0.02669 0.0613,-0.02632 0.0613,0.150108 0.0596,-0.05152 0.0613,-0.08611 0.12092,0.04126 0.0613,-0.03237 0.0596,0.0073 0.0613,-0.02916 0.0613,-0.111314 0.0596,0.193842 0.0613,-0.06202 0.0596,-0.05263 0.0613,0.0084 0.0613,0.102049 0.0596,-0.05658 0.12092,-0.09636 0.24354,0.109337 0.0596,0.08463 0.0613,-0.04052 v 1009.493883 0 h -0.0613 -0.0596 -0.24354 -0.12092 -0.0596 -0.0613 -0.0613 -0.0596 -0.0613 -0.0596 -0.0613 -0.0613 -0.0596 -0.0613 -0.12092 -0.0613 -0.0596 -0.0613 -0.0613 -0.0596 -0.12092 -0.0613 -0.0613 -0.0596 -0.0613 -0.0596 -0.0613 -0.0613 -0.0596 -0.0613 -0.0613 -0.12092 -0.0596 -0.0613 -0.0596 -0.12263 -0.0596 -0.0613 -0.0613 -0.24184 -0.12092 -0.0613 -0.0596 -0.0613 -0.0613 -0.0596 -0.0613 -0.0613 -0.0596 -0.0613 -0.0596 -0.12262 -0.0596 -0.0613 -0.0596 -0.0613 -0.0613 -0.0596 -0.0613 -0.0596 -0.0613 -0.0613 -0.0596 -0.0613 -0.0613 -0.0596 -0.0613 -0.0596 -0.0613 -0.0613 -0.0596 -0.0613 -0.0596 -0.0613 -0.0613 -0.0596 -0.0613 -0.0596 -0.0613 -0.0613 -0.0596 -0.0613 -0.0596 -0.0613 -0.0613 -0.0613 -0.0596 -0.0596 -0.12263 -0.0596 -0.0613 -0.0613 -0.0596 -0.12092 -0.0613 -0.0613 -0.0596 -0.0613 -0.0596 -0.12262 -0.0596 -0.0613 -0.0613 -0.0596 -0.12092 -0.0613 -0.0613 -0.0596 -0.0613 -0.24184 -0.0613 -0.0596 -0.0613 -0.0613 -0.12092 -0.0613 -0.0596 -0.0613 -0.0596 -0.0613 -0.0613 -0.12092 -0.0596 -0.0613 -0.0613 -0.0596 -0.12093 -0.0613 -0.0613 -0.0596 -0.0613 -0.12092 -0.0613 -0.0596 -0.0613 -0.0596 -0.0613 -0.12092 -0.0613 -0.0613 -0.0596 -0.0613 -0.0596 -0.12262 -0.0596 -0.0613 -0.0613 -0.0596 -0.0613 -0.0596 -0.12433 -0.0596 -0.0613 -0.0596 -0.0613 -0.0596 -0.12262 -0.0596 -0.0613 -0.0613 -0.0596 -0.12093 -0.0613 -0.0613 -0.0596 -0.0613 -0.0613 -0.12092 -0.0596 -0.0613 -0.0613 -0.0596 -0.0613 -0.0596 -0.12263 -0.0596 -0.0613 -0.0596 -0.12262 -0.0596 -0.0613 -0.0596 -0.0613 -0.0613 -0.12092 -0.0596 -0.0613 -0.0613 -0.0596 -0.24354 -0.0613 -0.12092 -0.0596 -0.0613 -0.0613 -0.0596 -0.0613 -0.12092 -0.0613 -0.0596 -0.0613 -0.0596 -0.12092 -0.0613 -0.24355 -0.0596 -0.0613 -0.12092 -0.0613 -0.0596 -0.0613 -0.0596 -0.0613 -0.12092 -0.0613 -0.0613 -0.0596 -0.0613 -0.0596 -0.0613 -0.12092 -0.0613 -0.0596 -0.0613 -0.0613 -0.0596 -0.12092 -0.0613 -0.0613 -0.0596 -0.0613 -0.0596 -0.0613 -0.12093 -0.0613 -0.0613 -0.0596 -0.0613 -0.12092 -0.0596 -0.0613 -0.0613 -0.0613 -0.0596 -0.0613 -0.0596 -0.12263 -0.0596 -0.0613 -0.0596 -0.0613 -0.12092 -0.0613 -0.18223 -0.0596 -0.0613 -0.0613 -0.12092 -0.0596 -0.0613 -0.0613 -0.0596 -0.30315 -0.0613 -0.0596 -0.0613 -0.0613 -0.0596 -0.0613 -0.0596 -0.12262 -0.0596 -0.0613 -0.0613 -0.0596 -0.24184 -0.12262 -0.0596 -0.0613 -0.0613 -0.0596 -0.12092 -0.0613 -0.0613 -0.0596 -0.0613 -0.12092 -0.0613 -0.0596 -0.0613 -0.0596 -0.0613 -0.12092 -0.0613 -0.0596 -0.0613 -0.0613 -0.12092 -0.0613 -0.12092 -0.0596 -0.0613 -0.0613 -0.0596 -0.12263 -0.0596 -0.0613 -0.0596 -0.18223 -0.30315 -0.0613 -0.0596 -0.0613 -0.0613 -0.0596 -0.12092 -0.0613 -0.0613 -0.0596 -0.0613 -0.0596 -0.0613 -0.0613 -0.0596 -0.0613 -0.0613 -0.0596 -0.0613 -0.0596 -0.0613 -0.0613 -0.0596 -0.0613 -0.0613 -0.0596 -0.12092 -0.0613 -0.0613 -0.0596 -0.0613 -0.0596 -0.0613 -0.0613 -0.0596 -0.0613 -0.0596 -0.0613 -0.0613 -0.0596 -0.0613 -0.0596 -0.0613 -0.0613 -0.0596 -0.0613 -0.0613 -0.0596 -0.0613 -0.0596 -0.0613 -0.0596 -0.0613 -0.0613 -0.0613 -0.0596 -0.0613 -0.0596 -0.0613 -0.0613 -0.0596 -0.0613 -0.0596 -0.0613 -0.0613 -0.0596 -0.0613 -0.0596 -0.0613 -0.0613 -0.0596 -0.0613 -0.0596 -0.0613 -0.0613 -0.0596 -0.0613 -0.0596 -0.0613 -0.0613 -0.0596 -0.0613 -0.0613 -0.0596 -0.0613 -0.0596 -0.0613 -0.0596 -0.0613 -0.0613 -0.0596 -0.0613 -0.0613 -0.0596 -0.0613 -0.0613 -0.0596 -0.0613 -0.0596 -0.0613 -0.0596 -0.0613 -0.0613 -0.0596 z"
           style="fill:#808080;fill-opacity:0.1;stroke:#808080;stroke-opacity:0.1"
           id="path22" />
      </g>
      <g
         id="PolyCollection_2"
         transform="translate(-19.5)">
        <path
           clip-path="url(#p2cd42d3419)"
           d="M 193.64291,1062.6998 V 72.184718 l 0.12092,-0.01619 0.0613,0.104273 0.0613,0.09525 0.0596,-0.02594 0.0613,-0.0051 0.0596,-0.01705 0.0613,0.08735 0.0613,0.05177 0.0596,-0.0033 0.0613,-0.04497 0.0613,-0.0577 0.0596,0.02459 0.0613,0.07536 0.0613,0.06968 0.0613,0.06091 0.0596,-0.03657 0.0613,-0.0011 0.0613,-0.06301 0.0596,0.01754 0.0613,-0.08315 0.0613,-0.03187 0.0596,-0.05523 0.0613,-0.01161 0.0596,-0.0593 0.0613,0.01013 0.0613,0.04151 0.0596,-0.0278 0.0613,-0.04102 0.0596,0.0189 0.0613,-0.03595 0.0613,0.08302 0.0596,0.05016 0.0613,-0.064 0.0613,-0.03731 0.0596,-0.02088 0.0613,-0.05189 0.0596,-0.09859 0.0613,0.0075 0.0613,0.0012 0.0596,0.02607 0.0613,0.01137 0.0596,0.03422 0.0613,0.02496 0.0613,-0.01174 0.0596,-0.01001 0.0613,0.01668 0.0613,0.01149 0.0596,0.06017 0.0613,-0.01235 0.0596,-0.03373 0.0613,0.0077 0.0613,-0.08475 0.0596,0.0069 0.0613,-0.01927 0.0596,0.01075 0.0613,0.01396 0.0613,0.06906 0.0596,-0.0078 0.0613,0.01804 0.0596,-0.05522 0.0613,-0.01235 0.0613,-0.02718 0.0596,0.0067 0.0613,0.05065 0.0596,0.03879 0.0613,0.05238 0.0613,-0.04102 0.0596,-0.009 0.0613,-0.02693 0.0596,-0.0093 0.0613,-0.01025 0.0613,-0.01408 0.0596,-0.06153 0.0613,7.41e-4 0.12093,-0.01347 0.0613,0.03002 0.0596,-0.0025 0.0613,-0.0046 0.0613,-0.04892 0.0613,0.0083 0.0596,0.0086 0.0596,0.06325 0.0613,0.008 0.0613,-0.06288 0.0596,0.03941 0.0613,-0.04065 0.0613,-0.02286 0.0596,0.02706 0.0613,-0.0194 0.0596,-0.04188 0.0613,-6.17e-4 0.0596,-0.02767 0.0613,0.02162 0.0613,-0.02644 0.0596,0.02162 0.0613,0.04411 0.0613,-0.0147 0.0596,0.02409 0.0613,0.06202 0.0596,0.01137 0.0613,-0.05424 0.0613,0.02879 0.0596,0.03447 0.0613,-0.02508 0.0596,-0.0257 0.0613,0.01544 0.0613,-1.24e-4 0.0596,0.01371 0.18223,-0.04423 0.0613,0.05152 0.0596,0.02212 0.0613,0.01495 0.0613,-0.0315 0.0596,-0.03051 0.0613,-0.01952 0.0596,-0.02236 0.0613,0.04028 0.0613,-0.0173 0.0596,0.0404 0.0613,0.0075 0.0596,-0.0252 0.0613,0.011 0.0613,0.0067 0.0596,0.04151 0.0613,-0.04262 0.0596,-0.04176 0.0613,0.0056 0.0613,0.09068 0.0596,-0.03867 0.0613,-0.03595 0.0596,0.0077 0.0613,0.08129 0.0613,-0.02261 0.0596,-0.0059 0.0613,2.47e-4 0.0613,-0.06709 0.0613,-0.03101 0.0596,-0.0425 0.0596,-0.03027 0.0613,0.02039 0.0613,-0.06634 0.0596,-0.01841 0.0613,0.05597 0.0596,0.04905 0.12262,-0.01742 0.18053,0.01273 0.0613,0.0231 0.0613,-0.0031 0.0596,-0.04868 0.0613,-0.0061 0.0613,0.02409 0.0596,-0.0017 0.0613,0.06585 0.0596,-0.02607 0.0613,-0.05831 0.0613,-0.0014 0.0596,0.02199 0.0613,-0.04682 0.0596,-0.003 0.0613,-0.05732 0.0613,0.01977 0.0596,0.0067 0.0613,0.02199 0.0613,-0.04386 0.12092,-0.0014 0.0596,-6.18e-4 0.0613,0.0955 0.0613,-0.0068 0.0596,-0.0058 0.0613,-0.0094 0.0596,0.04806 0.0613,0.03472 0.0613,-0.0033 0.0596,0.0173 0.0613,-0.01001 0.0596,-0.03941 0.0613,0.0061 0.0613,-0.01767 0.0596,-0.02767 0.0613,0.0278 0.0613,-0.06177 0.0596,0.0019 0.18223,-0.002 0.0613,-0.0252 0.0596,0.04534 0.0613,0.04324 0.0596,-0.01656 0.0613,0.04522 0.0613,0.0015 0.0596,-0.03855 0.0613,0.0036 0.0596,-0.02137 0.0613,0.0098 0.0613,0.0061 0.0596,-0.02669 0.0613,-0.0064 0.0613,-0.009 0.0596,0.02903 0.0613,0.0315 0.0596,-0.04312 0.0613,0.08277 0.0613,-0.05214 0.0596,-0.01384 0.0613,0.0063 0.0596,0.03484 0.0613,0.0072 0.0613,-0.0824 0.0596,-0.03879 0.0613,0.02977 0.0613,-4.94e-4 0.0596,0.07203 0.0613,0.02211 0.30316,-0.03027 0.12092,0.04015 0.0613,0.02199 0.0596,-0.06807 0.0613,-0.02817 0.0596,0.01161 0.0613,0.02261 0.0613,0.05856 0.0596,-0.0065 0.0613,-0.01594 0.0613,-0.06214 0.0596,-0.0036 0.0613,-1.24e-4 0.0596,0.02978 0.0613,-0.0236 0.0596,-0.03447 0.0613,0.01001 0.0613,0.04967 0.0596,-0.0082 0.0613,0.01149 0.0613,0.08092 0.0596,-0.04547 0.0613,-0.0098 0.0596,-0.04052 0.0613,-0.04769 0.0596,-0.02335 0.0613,0.03916 0.0613,-0.0074 0.0596,-0.02632 0.0613,0.02174 0.0613,-4.95e-4 0.0596,-0.03496 0.0613,0.03385 0.0596,0.02026 0.0613,0.03496 0.0613,0.0075 0.0596,0.0089 0.0613,0.0072 0.0613,0.03286 0.0596,0.04571 0.0613,-0.05671 0.0596,-0.02137 0.0613,-0.03361 0.0613,0.01619 0.0596,-0.04411 0.0613,-0.06696 0.0596,0.02249 0.0613,-0.02347 0.0613,0.0089 0.0596,0.01124 0.0613,-0.02434 0.0596,-0.04509 0.0613,0.04954 0.0613,-0.03027 0.0596,0.04695 0.0613,-0.04151 0.0613,-2.47e-4 0.0596,0.01198 0.0613,0.01421 0.0613,0.08277 0.0596,-0.01235 0.0613,-0.03311 0.0596,-0.05597 0.0613,0.04571 0.0596,-0.0074 0.0613,0.0053 0.0613,0.04126 0.0596,-0.01013 0.0613,0.0052 0.0596,-0.03076 0.0613,0.0215 0.0613,-0.01137 0.0596,0.02545 0.0613,-0.0093 0.0596,0.01285 0.0613,0.0399 0.0613,-0.007 0.0596,0.02977 0.0613,0.004 0.0613,0.0065 0.0596,-0.01544 0.0613,-0.03583 0.0596,-0.02891 0.0613,-0.04584 0.0613,0.02854 0.0596,0.0493 0.0613,-0.06684 0.0613,-0.0032 0.0596,0.03966 0.0613,0.02409 0.0613,-0.03496 0.0596,-0.03249 0.0596,0.03187 0.12262,0.01062 0.0596,0.02928 0.0613,0.01174 0.0613,-2.47e-4 0.0596,-0.0294 0.0613,0.0099 0.0596,-0.0058 0.0613,0.03311 0.0596,0.01223 0.0613,-0.03805 0.0613,0.0046 0.0596,-0.03138 0.0613,-0.01779 0.0613,-0.009 0.0596,-0.0054 0.0613,0.02508 0.0613,0.0021 0.0596,0.01668 0.0613,0.0299 0.0596,-0.03632 0.0613,-0.02582 0.0613,9.88e-4 0.0596,-0.06968 0.0613,0.04621 0.0596,0.01989 0.0613,-0.0378 0.0613,-0.01631 0.0596,-0.0032 0.0613,0.02866 0.0596,0.02977 0.0613,-0.01433 0.0613,-0.0105 0.0596,0.114156 0.0613,-0.06684 0.0596,-0.08253 0.0613,-0.0079 0.0613,0.03509 0.0596,-0.01124 0.0613,-7.41e-4 0.0613,-0.02014 0.0596,0.04324 0.0613,0.0056 0.0596,-0.04337 0.0613,0.02718 0.0613,-1.23e-4 0.0596,0.01606 0.0613,-0.02409 0.0596,-0.0022 0.0613,-0.05201 0.0613,0.0042 0.0596,-0.02001 0.0613,0.03076 0.0596,-0.0089 0.0613,-0.0014 0.0613,-0.0014 0.0596,-0.02174 0.0613,-0.01087 0.0596,-0.04299 0.0613,0.03027 0.0613,0.04015 0.0596,0.02063 0.0613,-0.064 0.0613,0.01445 0.0596,0.06511 0.0613,0.02533 0.0596,-0.0072 0.0613,0.0551 0.0613,0.01248 0.0596,0.07227 0.0613,-0.01124 0.0596,0.0056 0.0613,0.01013 0.0613,0.0147 0.0596,0.0068 0.0613,0.03855 0.0596,-0.0619 0.0613,-0.0278 0.0613,-0.06153 0.0596,-0.0038 0.0613,0.03163 0.0596,-0.03397 0.0613,-0.0052 0.0613,-0.01927 0.0596,-0.0022 0.0613,-0.02446 0.0613,-3.71e-4 0.0596,-0.01075 0.0613,0.01569 0.0596,-0.0094 0.0613,0.02607 0.0613,-0.03694 0.0596,0.02174 0.0613,0.0661 0.0613,0.08512 0.0596,0.0082 0.0613,0.04843 0.0596,-0.0215 0.0613,-0.02953 0.0613,0.02298 0.0596,-0.06573 0.0613,-0.02434 0.0596,0.04497 0.0613,0.03435 0.0613,-0.02669 0.0596,0.01964 0.0613,-0.0058 0.0596,-0.02842 0.0613,-0.0037 0.0596,0.0053 0.0613,-0.01927 0.0613,0.03052 0.0596,-0.01273 0.0613,-8.64e-4 0.0613,0.0236 0.0596,-0.01631 0.0613,0.03311 0.0596,-0.02804 0.18224,0.02693 0.0613,-0.02063 0.0596,-0.0063 0.0613,0.0126 0.0613,0.0014 0.0596,-0.01322 0.0613,0.01322 0.0613,-0.0033 0.0596,-0.02533 0.0613,-0.02026 0.0596,0.04287 0.0613,-0.02397 0.0613,0.01878 0.0596,-0.08352 0.0613,-4.94e-4 0.0596,-0.01087 0.0613,0.02755 0.0613,-0.01952 0.0596,0.02273 0.0613,0.02471 0.0596,0.01223 0.0613,0.0273 0.0613,-0.02582 0.0596,-0.02039 0.0613,0.01656 0.0596,0.06869 0.0613,0.02805 0.0613,-0.04114 0.0596,-0.04065 0.0613,-0.02533 0.0613,0.03113 0.0596,0.03496 0.0613,-0.0042 0.0613,0.03064 0.0596,-0.01754 0.0613,-0.05214 0.0596,-0.01124 0.0613,0.03225 0.0596,-0.06338 0.0613,0.06115 0.0613,0.07388 0.0596,-0.05362 0.0613,0.02829 0.0613,-0.02026 0.0596,-0.04868 0.0613,-0.0084 0.0596,0.02829 0.0613,0.03237 0.0613,-0.04299 0.0596,0.04275 0.0613,-0.05028 0.0613,-0.03879 0.0596,-0.01816 0.0613,0.01013 0.0596,-0.004 0.0613,-0.03052 0.0596,0.0073 0.0613,-0.02866 0.0613,-0.01804 0.0596,-0.02829 0.0613,0.02434 0.0613,0.007 0.0596,0.0022 0.0613,0.05127 0.0596,0.04695 0.063,0.03558 0.0613,0.04546 0.0596,-0.07339 0.0613,-0.02434 0.0596,-0.04769 0.0613,0.04781 0.0613,0.02879 0.0596,-0.01371 0.0613,0.04732 0.0596,-0.0033 0.0613,0.03991 0.18223,-0.02372 0.0596,0.01532 0.0613,-0.02113 0.0613,-0.08142 0.30315,-0.05065 0.0596,0.01445 0.18223,0.0043 0.0613,0.02965 0.0613,0.0053 0.0596,0.0033 0.0613,-0.01594 0.0596,-0.0093 0.0613,0.0168 0.0613,0.07474 0.0596,0.02718 0.0613,0.03669 0.0596,-0.04163 0.0613,-2.47e-4 0.0613,0.04831 0.0596,-0.06412 0.0613,-0.003 0.0596,7.41e-4 0.0613,-0.064 0.0613,-0.01149 0.0596,-0.04695 0.0613,0.07746 0.0613,-0.05263 0.0596,-0.0063 0.0613,0.01754 0.0596,0.03595 0.0613,0.04843 0.0613,0.02088 0.0596,0.02767 0.0613,0.01754 0.0596,-0.07907 0.0613,0.01013 0.0613,0.04312 0.0596,-0.05362 0.0613,-0.0088 0.0596,0.08253 0.0613,0.06832 0.0613,-0.03138 0.18053,0.0012 0.0613,0.01149 0.0613,-0.08166 0.0596,-0.02125 0.0613,-0.04374 0.0596,0.01223 0.0613,0.0022 0.0613,-0.02063 0.0596,0.05263 0.0613,-0.01544 0.0596,0.01878 0.0613,0.0446 0.0613,-0.06202 0.0613,0.01075 0.0596,0.01445 0.0596,-0.02631 0.0613,-0.0593 0.0613,0.01223 0.0596,0.01878 0.0613,0.02002 0.18223,-0.03039 0.0613,0.08228 0.0596,-0.02805 0.30315,0.06906 0.0613,-0.08574 0.0596,-0.01223 0.0613,-0.01816 0.0613,0.03076 0.0596,0.03855 0.0613,0.02236 0.0596,-0.06202 0.0613,-2.47e-4 0.0613,-0.02916 0.0596,0.06573 0.0613,0.02817 0.0596,0.05658 0.0613,0.02866 0.0613,-0.01569 0.0596,-0.0022 0.0613,0.05189 0.0613,0.0036 0.0596,-0.05102 0.0613,0.0378 0.0596,-0.04386 0.0613,9.88e-4 0.0596,0.02137 0.0613,0.01347 0.30315,-0.01408 0.0613,-0.004 0.0596,-0.02792 0.0613,-0.01384 0.0613,-0.02669 0.0596,-0.01581 0.0613,0.0084 0.0596,-0.0043 0.0613,-0.08413 0.0613,-0.0061 0.0596,0.08722 0.0613,0.02199 0.0596,0.03546 0.0613,-4.94e-4 0.0613,0.04719 0.0596,0.02323 0.0613,-0.02632 0.0596,-0.01606 0.0613,-0.01656 0.0613,-0.03793 0.0596,-0.01396 0.0613,0.05473 0.0613,0.0011 0.0596,-0.02545 0.0613,-0.0048 0.0613,-0.0037 0.0596,0.01297 0.0613,-0.0051 0.0596,-0.0614 0.0613,0.02113 0.30316,0.04757 0.0613,0.01618 0.0596,0.06585 0.0613,-0.0036 0.0596,0.03027 0.0613,-0.01643 0.0613,-0.01655 0.0596,-0.03336 0.0613,0.02286 0.0596,0.01334 0.0613,0.02631 0.0613,0.01273 0.12093,-0.01421 0.0596,-0.003 0.0613,-0.01952 0.0613,-0.05164 0.0596,-0.04509 0.0613,0.01915 0.0613,-0.02582 0.0596,0.03484 0.0613,-0.03558 0.0596,0.08698 0.0613,-0.03262 0.0613,-0.05485 0.0596,0.03978 0.0613,0.06486 0.0596,0.02916 0.0613,-0.05572 0.0613,-0.01112 0.0596,0.0037 0.0613,0.0425 0.24184,-0.01359 0.0613,-0.04361 0.0613,0.05967 0.0596,-0.03447 0.0613,0.01075 0.12092,-0.09538 0.0613,0.03669 0.0596,0.04559 0.0613,-0.01087 0.0596,0.04855 0.0613,-0.03101 0.0613,0.0046 0.0613,0.01767 0.0596,-0.02347 0.0596,-0.03027 0.0613,-0.01754 0.0613,0.02557 0.0596,-0.0072 0.12262,3.71e-4 0.0596,-0.02298 0.0613,0.01742 0.0596,-0.03299 0.0613,0.02224 0.12092,0.02224 0.0613,-0.02298 0.0596,0.03768 0.0613,-0.05881 0.0613,-0.04794 0.0596,0.03249 0.0613,-0.02804 0.0596,0.04954 0.0613,-0.01347 0.0613,-0.01186 0.0596,0.002 0.0613,0.01371 0.0613,-0.0022 0.0596,-0.08067 0.0613,-0.01915 0.0596,0.01903 0.0613,0.0072 0.0613,0.03262 0.0596,-0.01198 0.0613,0.03459 0.0596,-0.03249 0.0613,-0.02434 0.0613,-0.0294 0.0596,0.0098 0.0613,0.07264 0.0596,0.008 0.0613,0.0362 0.0613,0.01804 0.0596,-0.0054 0.0613,0.03052 0.0596,-0.0082 0.0613,-0.0095 0.0613,0.0079 0.0596,0.0037 0.0613,-0.04806 0.0596,-0.0091 0.0613,0.03842 0.0613,-0.0036 0.0596,-0.02693 0.0613,-0.03583 0.0613,0.01038 0.0596,-0.02743 0.0613,-0.01483 0.0596,-9.88e-4 0.0613,-0.0065 0.0613,-0.0044 0.0596,0.02817 0.0613,0.03706 0.0613,0.09229 0.0596,-0.05312 0.0613,-0.0077 0.0596,-0.03113 0.0613,0.02879 0.0613,-0.01062 0.0596,0.0093 0.0613,0.03225 0.0613,0.01334 0.0596,-0.01483 0.0613,0.0041 0.0596,-0.03632 0.0613,0.05226 0.0596,0.01248 0.0613,0.02236 0.0613,-0.02137 0.0596,0.02075 0.0613,0.0027 0.0596,0.01717 0.0613,0.03706 0.0613,-0.0044 0.0596,0.0031 0.0613,-0.06153 0.0596,-0.0215 0.0613,0.01606 0.0613,-0.04003 0.0596,-0.01013 0.0613,0.01137 0.0613,0.10316 0.0596,-0.02372 0.0613,-0.03978 0.0596,-0.02372 0.0613,0.07437 0.0596,-0.03348 0.0613,0.04942 0.0613,0.0404 0.0596,0.05498 0.0613,-0.05288 0.0613,0.01137 0.0596,-0.05004 0.0613,0.05807 0.0596,-0.07833 0.0613,0.0068 0.0613,-0.02508 0.0596,-0.02557 0.0613,0.02656 0.30315,7.41e-4 0.0613,0.01433 0.0596,0.05238 0.0613,-0.01062 0.0596,-0.02323 0.0613,-0.02953 0.0613,0.0094 0.0596,0.01754 0.0613,-0.06288 0.0596,-0.04917 0.0613,-0.02706 0.0613,-0.0488 0.0596,0.02026 0.0613,0.0065 0.0613,0.07759 0.0596,0.0028 0.0613,0.0095 0.0596,-0.01841 0.0613,-0.01075 0.0613,0.0065 0.0596,0.0095 0.0613,-0.01371 0.0596,0.0086 0.0613,0.0577 v 990.379041 0 h -0.0613 -0.0596 -0.0613 -0.0596 -0.0613 -0.0613 -0.0596 -0.0613 -0.0596 -0.0613 -0.0613 -0.0596 -0.0613 -0.0613 -0.0596 -0.0613 -0.0596 -0.0613 -0.0613 -0.0596 -0.0613 -0.0596 -0.0613 -0.30315 -0.0613 -0.0596 -0.0613 -0.0613 -0.0596 -0.0613 -0.0596 -0.0613 -0.0613 -0.0596 -0.0613 -0.0613 -0.0596 -0.0613 -0.0596 -0.0613 -0.0596 -0.0613 -0.0613 -0.0596 -0.0613 -0.0613 -0.0596 -0.0613 -0.0596 -0.0613 -0.0613 -0.0596 -0.0613 -0.0596 -0.0613 -0.0613 -0.0596 -0.0613 -0.0596 -0.0613 -0.0596 -0.0613 -0.0613 -0.0596 -0.0613 -0.0613 -0.0596 -0.0613 -0.0596 -0.0613 -0.0613 -0.0596 -0.0613 -0.0613 -0.0596 -0.0613 -0.0596 -0.0613 -0.0613 -0.0596 -0.0613 -0.0613 -0.0596 -0.0613 -0.0596 -0.0613 -0.0613 -0.0596 -0.0613 -0.0596 -0.0613 -0.0613 -0.0596 -0.0613 -0.0596 -0.0613 -0.0613 -0.0596 -0.0613 -0.0596 -0.0613 -0.0613 -0.0596 -0.0613 -0.0596 -0.0613 -0.0613 -0.0596 -0.0613 -0.0613 -0.0596 -0.0613 -0.0596 -0.0613 -0.0613 -0.0596 -0.0613 -0.12092 -0.0613 -0.0596 -0.0613 -0.0596 -0.12262 -0.0596 -0.0613 -0.0613 -0.0596 -0.0596 -0.0613 -0.0613 -0.0613 -0.0596 -0.0613 -0.0596 -0.0613 -0.12092 -0.0613 -0.0596 -0.0613 -0.0613 -0.24184 -0.0613 -0.0596 -0.0613 -0.0613 -0.0596 -0.0613 -0.0596 -0.0613 -0.0613 -0.0596 -0.0613 -0.0596 -0.0613 -0.0613 -0.0596 -0.0613 -0.0613 -0.0596 -0.12093 -0.0613 -0.0613 -0.0596 -0.0613 -0.0596 -0.0613 -0.0613 -0.0596 -0.0613 -0.0596 -0.0613 -0.30316 -0.0613 -0.0596 -0.0613 -0.0596 -0.0613 -0.0613 -0.0596 -0.0613 -0.0613 -0.0596 -0.0613 -0.0613 -0.0596 -0.0613 -0.0596 -0.0613 -0.0613 -0.0596 -0.0613 -0.0596 -0.0613 -0.0613 -0.0596 -0.0613 -0.0596 -0.0613 -0.0613 -0.0596 -0.0613 -0.30315 -0.0613 -0.0596 -0.0613 -0.0596 -0.0613 -0.0596 -0.0613 -0.0613 -0.0596 -0.0613 -0.0613 -0.0596 -0.0613 -0.0596 -0.0613 -0.0613 -0.0596 -0.0613 -0.0596 -0.0613 -0.0613 -0.0596 -0.0613 -0.30315 -0.0596 -0.0613 -0.18223 -0.0613 -0.0596 -0.0613 -0.0613 -0.0596 -0.0596 -0.0613 -0.0613 -0.0613 -0.0596 -0.0613 -0.0596 -0.0613 -0.0613 -0.0596 -0.0613 -0.0596 -0.0613 -0.0613 -0.18053 -0.0613 -0.0613 -0.0596 -0.0613 -0.0596 -0.0613 -0.0613 -0.0596 -0.0613 -0.0596 -0.0613 -0.0613 -0.0596 -0.0613 -0.0596 -0.0613 -0.0613 -0.0596 -0.0613 -0.0613 -0.0596 -0.0613 -0.0596 -0.0613 -0.0613 -0.0596 -0.0613 -0.0596 -0.0613 -0.0613 -0.0596 -0.0613 -0.0596 -0.0613 -0.0613 -0.18223 -0.0596 -0.30315 -0.0613 -0.0613 -0.0596 -0.18223 -0.0613 -0.0596 -0.0613 -0.0596 -0.0613 -0.0613 -0.0596 -0.0613 -0.0596 -0.0613 -0.063 -0.0596 -0.0613 -0.0596 -0.0613 -0.0613 -0.0596 -0.0613 -0.0613 -0.0596 -0.0613 -0.0596 -0.0613 -0.0596 -0.0613 -0.0613 -0.0596 -0.0613 -0.0613 -0.0596 -0.0613 -0.0596 -0.0613 -0.0613 -0.0596 -0.0613 -0.0613 -0.0596 -0.0613 -0.0596 -0.0613 -0.0596 -0.0613 -0.0613 -0.0596 -0.0613 -0.0613 -0.0596 -0.0613 -0.0613 -0.0596 -0.0613 -0.0596 -0.0613 -0.0613 -0.0596 -0.0613 -0.0596 -0.0613 -0.0613 -0.0596 -0.0613 -0.0596 -0.0613 -0.0613 -0.0596 -0.0613 -0.0596 -0.0613 -0.0613 -0.0596 -0.0613 -0.0613 -0.0596 -0.0613 -0.18224 -0.0596 -0.0613 -0.0596 -0.0613 -0.0613 -0.0596 -0.0613 -0.0613 -0.0596 -0.0613 -0.0596 -0.0613 -0.0596 -0.0613 -0.0613 -0.0596 -0.0613 -0.0596 -0.0613 -0.0613 -0.0596 -0.0613 -0.0596 -0.0613 -0.0613 -0.0596 -0.0613 -0.0613 -0.0596 -0.0613 -0.0596 -0.0613 -0.0613 -0.0596 -0.0613 -0.0613 -0.0596 -0.0613 -0.0596 -0.0613 -0.0613 -0.0596 -0.0613 -0.0596 -0.0613 -0.0613 -0.0596 -0.0613 -0.0596 -0.0613 -0.0613 -0.0596 -0.0613 -0.0596 -0.0613 -0.0613 -0.0596 -0.0613 -0.0613 -0.0596 -0.0613 -0.0596 -0.0613 -0.0613 -0.0596 -0.0613 -0.0596 -0.0613 -0.0613 -0.0596 -0.0613 -0.0596 -0.0613 -0.0613 -0.0596 -0.0613 -0.0596 -0.0613 -0.0613 -0.0596 -0.0613 -0.0613 -0.0596 -0.0613 -0.0596 -0.0613 -0.0613 -0.0596 -0.0613 -0.0596 -0.0613 -0.0613 -0.0596 -0.0613 -0.0596 -0.0613 -0.0613 -0.0596 -0.0613 -0.0596 -0.0613 -0.0613 -0.0596 -0.0613 -0.0613 -0.0596 -0.0613 -0.0613 -0.0596 -0.0613 -0.0596 -0.0613 -0.0596 -0.0613 -0.0613 -0.0596 -0.12262 -0.0596 -0.0596 -0.0613 -0.0613 -0.0596 -0.0613 -0.0613 -0.0596 -0.0613 -0.0613 -0.0596 -0.0613 -0.0596 -0.0613 -0.0613 -0.0596 -0.0613 -0.0613 -0.0596 -0.0613 -0.0596 -0.0613 -0.0613 -0.0596 -0.0613 -0.0596 -0.0613 -0.0613 -0.0596 -0.0613 -0.0596 -0.0613 -0.0596 -0.0613 -0.0613 -0.0596 -0.0613 -0.0613 -0.0596 -0.0613 -0.0613 -0.0596 -0.0613 -0.0596 -0.0613 -0.0613 -0.0596 -0.0613 -0.0596 -0.0613 -0.0613 -0.0596 -0.0613 -0.0596 -0.0613 -0.0613 -0.0596 -0.0613 -0.0613 -0.0596 -0.0613 -0.0596 -0.0613 -0.0613 -0.0596 -0.0613 -0.0613 -0.0596 -0.0613 -0.0596 -0.0613 -0.0596 -0.0613 -0.0613 -0.0596 -0.0613 -0.0613 -0.0596 -0.0613 -0.0596 -0.0613 -0.0596 -0.0613 -0.0613 -0.0596 -0.0613 -0.0613 -0.0596 -0.0613 -0.0596 -0.0613 -0.12092 -0.30316 -0.0613 -0.0596 -0.0613 -0.0613 -0.0596 -0.0613 -0.0613 -0.0596 -0.0613 -0.0596 -0.0613 -0.0613 -0.0596 -0.0613 -0.0596 -0.0613 -0.0613 -0.0596 -0.0613 -0.0613 -0.0596 -0.0613 -0.0596 -0.0613 -0.0613 -0.0596 -0.0613 -0.0596 -0.0613 -0.18223 -0.0596 -0.0613 -0.0613 -0.0596 -0.0613 -0.0613 -0.0596 -0.0613 -0.0596 -0.0613 -0.0613 -0.0596 -0.0613 -0.0596 -0.0613 -0.0613 -0.0596 -0.12092 -0.0613 -0.0613 -0.0596 -0.0613 -0.0613 -0.0596 -0.0613 -0.0596 -0.0613 -0.0613 -0.0596 -0.0613 -0.0596 -0.0613 -0.0613 -0.0596 -0.0613 -0.0613 -0.18053 -0.12262 -0.0596 -0.0613 -0.0596 -0.0613 -0.0613 -0.0596 -0.0596 -0.0613 -0.0613 -0.0613 -0.0596 -0.0613 -0.0613 -0.0596 -0.0613 -0.0596 -0.0613 -0.0613 -0.0596 -0.0613 -0.0596 -0.0613 -0.0613 -0.0596 -0.0613 -0.0596 -0.0613 -0.0613 -0.0596 -0.0613 -0.0596 -0.0613 -0.0613 -0.0596 -0.0613 -0.18223 -0.0596 -0.0613 -0.0613 -0.0596 -0.0613 -0.0596 -0.0613 -0.0613 -0.0596 -0.0613 -0.0596 -0.0613 -0.0613 -0.0596 -0.0613 -0.0613 -0.0596 -0.0613 -0.0596 -0.0613 -0.0596 -0.0613 -0.0613 -0.0596 -0.0613 -0.0613 -0.0596 -0.0596 -0.0613 -0.0613 -0.0613 -0.0596 -0.0613 -0.12093 -0.0613 -0.0596 -0.0613 -0.0613 -0.0596 -0.0613 -0.0596 -0.0613 -0.0613 -0.0596 -0.0613 -0.0596 -0.0613 -0.0613 -0.0596 -0.0613 -0.0596 -0.0613 -0.0613 -0.0596 -0.0613 -0.0596 -0.0613 -0.0613 -0.0596 -0.0613 -0.0596 -0.0613 -0.0613 -0.0596 -0.0613 -0.0613 -0.0596 -0.0613 -0.0596 -0.0613 -0.0613 -0.0596 -0.0613 -0.0596 -0.0613 -0.0613 -0.0596 -0.0613 -0.0613 -0.0596 -0.0613 -0.0596 -0.0613 -0.0613 -0.0596 -0.0613 -0.0596 -0.0613 -0.0613 -0.0596 -0.0613 -0.0613 -0.0596 -0.0613 -0.0613 -0.0613 -0.0596 -0.0613 -0.0613 -0.0596 -0.0613 -0.0613 -0.0596 -0.0613 -0.0596 -0.0613 -0.0613 z"
           style="fill:#a52a2a;fill-opacity:0.1;stroke:#a52a2a;stroke-opacity:0.1"
           id="path23" />
      </g>
      <g
         id="PolyCollection_3"
         transform="translate(-19.5)">
        <path
           clip-path="url(#p2cd42d3419)"
           d="M 145.79069,1062.6998 V 53.149699 l 0.12093,-0.02545 0.0596,-0.02582 0.0613,-9.88e-4 0.0613,0.148255 0.0613,-0.05103 0.24184,-0.05485 0.0613,0.205703 0.0596,0.05967 0.0613,-0.08364 0.12092,0.156037 0.0613,-0.155173 0.0596,0.08871 0.0613,-0.04658 0.0596,-0.07252 0.0613,0.01705 0.12092,-0.09945 0.0613,-0.01087 0.0613,-0.08228 0.0596,0.138495 0.0613,-0.137383 0.0596,-0.08623 0.30315,0.04324 0.0613,0.05115 0.30315,-0.04472 0.0596,0.192236 0.0613,-0.02718 0.0613,0.03842 0.0596,-0.01322 0.0613,-0.113909 0.0613,0.296879 0.0596,-0.112797 0.0613,-0.02533 0.0596,0.02125 0.0613,0.04769 0.0613,-0.146525 0.0596,-0.115515 0.0613,-0.117245 0.0596,-0.01791 0.0613,-0.0598 0.0613,-0.03595 0.0596,-0.04028 0.24354,-0.04003 0.0596,-0.009 0.0613,-0.0047 0.0613,-0.0315 0.0596,0.05399 0.0613,-0.01001 0.0596,-0.0294 0.0613,-0.01927 0.0596,0.03064 0.0613,-0.0682 0.0613,0.0054 0.0596,0.02471 0.0613,0.02199 0.0613,-0.0033 0.0596,0.04077 0.0613,-0.02384 0.0596,-0.02582 0.0613,0.05164 0.0613,-0.0131 0.0596,-0.04843 0.0613,0.206074 0.0596,0.01655 0.0613,-0.05201 0.0613,0.01408 0.0596,0.02619 0.0613,0.01273 0.0613,0.260063 0.0596,-0.08018 0.0613,0.09476 0.0596,-0.01866 0.0613,0.251291 0.0613,0.204344 0.0596,0.41536 0.0613,-0.05905 0.0596,0.03645 0.12263,0.07215 0.0596,-0.113909 0.0613,-0.07363 0.30315,-0.02384 0.18223,0.298362 0.0596,0.04979 0.0613,0.212374 0.0613,0.06387 0.0596,0.115392 0.0613,0.163945 0.0613,0.189518 0.0596,-0.05658 0.0613,-0.0032 0.0596,-0.0072 0.0613,0.135035 0.0596,-0.06115 0.0613,0.202367 0.0613,0.111438 0.0596,0.07153 0.0613,0.03187 0.0613,-0.0035 0.0596,0.02323 0.0613,-0.05485 0.0596,0.118604 0.0613,0.07079 0.0596,0.01075 0.0613,0.05535 0.0613,0.150231 0.0596,0.08512 0.0613,0.01223 0.12092,0.110203 0.0613,0.04275 0.0596,0.04497 0.0613,0.136271 0.0613,0.05424 0.0596,0.0425 0.0613,-0.01285 0.0596,-0.0069 0.0613,0.107485 0.0613,0.02224 0.0613,0.0027 0.0596,0.07672 0.0613,0.101307 0.0596,0.07265 0.0613,0.06523 0.0596,-0.03756 0.0613,0.05028 0.0613,0.074 0.0596,0.0028 0.0613,0.09328 0.0613,0.05152 0.0596,-0.02026 0.0613,-0.02965 0.0596,-0.03879 0.0613,0.104643 0.0596,0.04584 0.0613,-0.0021 0.0613,0.08722 0.0596,0.183836 0.0613,0.09229 0.0613,-0.02594 0.0596,-0.07623 0.0613,0.04213 0.0596,0.08624 0.0613,0.03014 0.0613,-0.01458 0.0596,-0.03583 0.0613,0.01409 0.0596,0.0073 0.0613,0.02446 0.0613,0.02001 0.0596,0.03533 0.0613,0.09562 0.0596,0.03447 0.0613,-0.09982 0.0613,0.0598 0.0596,0.01816 0.0613,0.0068 0.0613,0.09179 0.0596,0.03064 0.0613,0.02211 0.0596,-0.01038 0.0613,0.04571 0.0596,0.0086 0.0613,-0.03323 0.0613,0.07339 0.0596,0.138865 0.0613,-0.03262 0.0613,-0.01186 0.0596,0.02681 0.0613,-0.0091 0.0613,-0.0173 0.0596,-0.05238 0.0613,0.0015 0.0596,0.0086 0.0613,0.0294 0.0596,-0.03966 0.0613,0.01581 0.0613,-0.0094 0.0596,-0.01915 0.0613,-0.04485 0.0613,0.04102 0.0596,-0.0078 0.0613,0.0023 0.0596,-1.23e-4 0.0613,0.09698 0.0613,0.01903 0.0596,0.01964 0.0613,-0.02459 0.0613,0.003 0.0596,0.03879 0.0613,0.0022 0.0596,-0.0026 0.0613,-0.03014 0.0613,0.04102 0.0596,0.04621 0.0613,0.0025 0.0596,0.08562 0.0613,-0.0042 0.0613,-0.01828 0.0596,-0.05609 0.0613,-0.06103 0.0596,0.01384 0.0613,0.09019 0.0613,0.155174 0.0596,-0.03904 0.0613,0.02434 0.0613,-0.0091 0.0596,-0.04855 0.0613,0.0022 0.0596,0.04139 0.0613,0.03595 0.0613,0.05424 0.0596,0.07289 0.0613,-0.06758 0.0596,-0.03669 0.0613,0.0047 0.0613,0.04386 0.0596,-0.05485 0.0613,-0.02113 0.0596,0.08389 0.0613,0.0147 0.0613,-0.01248 0.0596,0.05004 0.0613,-0.02557 0.0596,0.0069 0.0613,-0.0033 0.0613,0.0058 0.0596,0.06251 0.0613,-0.01754 0.0596,0.03608 0.0613,0.126882 0.0613,-0.01075 0.0596,-0.01223 0.0613,-0.0065 0.0613,0.0231 0.0596,-0.01989 0.0613,-0.05288 0.0596,-0.03249 0.0613,0.02088 0.0613,0.09068 0.0596,0.0577 0.0613,0.0025 0.0596,0.009 0.0613,0.01322 0.0613,0.04534 0.0596,-0.04102 0.0613,0.0656 0.0596,6.17e-4 0.0613,0.03731 0.0613,0.03027 0.0596,-3.71e-4 0.0613,0.05893 0.0613,0.02471 0.0596,0.01322 0.0613,0.05424 0.0596,0.02446 0.0613,-0.05634 0.0613,-0.0383 0.0596,0.02212 0.0613,0.124534 0.0596,0.04324 0.0613,-0.0068 0.0613,-0.008 0.0596,0.0075 0.0613,0.0572 0.0596,-0.03533 0.0613,-0.05078 0.0613,0.07932 0.0596,0.04213 0.0613,0.04275 0.0596,-0.0072 0.0613,0.08685 0.0613,0.02829 0.0596,-0.03744 0.0613,0.0017 0.0613,0.01433 0.0596,0.03842 0.0613,0.05177 0.0613,0.02916 0.0596,-0.07746 0.0613,0.01927 0.0596,0.0362 0.0613,0.0049 0.0596,0.0677 0.0613,0.02187 0.0613,-0.0051 0.0596,0.01149 0.0613,-0.0082 0.0596,0.0078 0.0613,0.03595 0.063,-0.06758 0.0596,-0.01137 0.0613,0.05498 0.0613,0.02718 0.0596,0.01989 0.0613,-0.0341 0.0596,0.174693 0.0613,-0.08512 0.0613,-0.01409 0.0596,0.245979 0.0613,-0.0014 0.0596,0.128858 0.0613,0.161598 0.0613,-0.03187 0.0596,0.04732 0.0613,-0.0231 0.0613,-0.01001 0.0596,-0.0189 0.0613,0.195079 0.0596,0.145289 0.0613,-0.09772 0.0613,-0.06004 0.0596,0.130587 0.0613,0.07734 0.0596,-0.123052 0.0613,0.0913 0.0613,0.04435 0.0596,-0.07301 0.0613,0.08636 0.0596,0.08043 0.0613,0.142448 0.0613,-0.01408 0.0596,-0.0051 0.0613,0.0866 0.0596,0.134417 0.0613,0.186925 0.0613,0.137135 0.0596,-0.187048 0.0613,0.202615 0.0596,0.150972 0.0613,-0.01285 0.0613,-0.116874 0.0596,0.164439 0.0613,-0.100813 0.0613,0.136764 0.0596,0.144796 0.0613,0.06548 0.0596,-0.01248 0.0613,0.0661 0.0613,0.119469 0.0596,-0.143683 0.0613,0.116132 0.0596,0.0404 0.0613,-0.003 0.0613,-0.0152 0.0596,0.01062 0.0613,0.07475 0.0596,-0.0035 0.063,-0.0315 0.0596,-0.01001 0.0596,-0.0031 0.0613,-0.04559 0.0613,0.03706 0.12092,0.170739 0.0596,-0.05572 0.0613,0.139236 0.0613,0.201009 0.0596,0.138 0.0613,-0.120828 0.0596,0.03249 0.0613,-0.05078 0.0613,0.147266 0.0596,0.152455 0.0613,0.122557 0.0596,-9.88e-4 0.0613,0.04905 0.0613,0.09031 0.0596,0.101184 0.0613,-0.108844 0.0596,0.03731 0.0613,0.07277 0.0613,0.02928 0.0596,0.0152 0.0613,0.148996 0.0613,-0.08277 0.0596,-0.03632 0.0613,0.05831 0.0596,0.160362 0.12263,0.03571 0.0596,-0.0069 0.0613,-0.07437 0.0596,-0.0041 0.0613,0.06931 0.0613,0.143189 0.0596,-0.0033 0.0613,0.06499 0.0596,0.01581 0.0613,0.01334 0.30315,0.05288 0.0613,0.02236 0.0596,-0.08969 0.0613,-0.103902 0.0596,0.0551 0.0613,0.03101 0.0613,0.07067 0.0596,0.03126 0.0613,-0.07462 0.0613,0.127499 0.0596,0.01754 0.0613,0.03286 0.0596,-0.0598 0.0613,0.04275 0.0613,0.157397 0.0596,-0.0299 0.0613,0.02545 0.0613,-0.02347 0.0596,0.223864 0.0613,0.0829 0.0596,-0.03002 0.0613,0.04151 0.0613,0.08253 0.0596,0.05609 0.0613,0.04559 0.0596,-0.05695 0.0613,0.03237 0.0613,-0.121322 0.0596,0.03126 0.0613,0.07413 0.0596,-0.07326 0.0613,0.07511 0.0613,0.0719 0.0596,-0.0059 0.0613,-0.02076 0.0596,-0.02039 0.0613,0.03991 0.0613,0.09019 0.0596,-0.04571 0.0613,-0.09908 0.0613,0.0083 0.0596,0.0598 0.0613,0.12651 0.0596,-0.0031 0.0613,0.02804 0.0613,-0.02125 0.0596,0.05473 0.0613,0.02842 0.0596,-0.0074 0.0613,0.032 0.0613,0.01866 0.0596,-0.02656 0.0613,-0.01853 0.0596,-0.02372 0.0613,0.0015 0.0613,0.03484 0.0596,0.02211 0.0613,0.01186 0.12092,-0.04275 0.0613,0.08438 0.0596,0.05078 0.0613,0.01829 0.0596,0.0404 0.0613,0.02236 0.0613,0.01186 0.0596,0.04645 0.0613,0.0105 0.0613,-0.0078 0.0596,0.09068 0.0613,0.01804 0.0596,0.03706 0.0613,0.05362 0.0613,-0.0061 0.24184,0.04892 0.0613,0.0033 0.0596,0.05794 0.0613,-0.04139 0.0613,-0.03743 0.0596,0.01569 0.0613,0.02977 0.0596,-0.06968 0.0613,-0.08772 0.0613,0.0025 0.0596,-0.03014 0.0613,0.01544 0.0596,0.0056 0.0613,0.03916 0.0613,0.06288 0.0596,-0.0015 0.0613,0.07746 0.0596,-0.01865 0.0613,0.003 0.0613,0.01384 0.0596,-0.04238 0.0613,0.03756 0.0613,-0.0252 0.0596,0.09427 0.0613,0.02137 0.0596,0.102048 0.0613,-0.01915 0.0613,0.08241 0.0596,-0.0257 0.0613,0.04954 0.0596,0.03336 0.0613,-0.01272 0.0613,-0.01248 0.0596,0.03027 0.0613,-0.04213 0.0596,-0.01124 0.0613,-0.06153 0.0613,-0.03385 0.0596,0.0078 0.0613,-0.0404 0.0613,-0.100566 0.0596,0.03447 0.12092,0.03348 0.0613,0.03373 0.0596,0.0252 0.0613,0.01149 0.0613,-0.01186 0.0613,0.04905 0.0596,0.08821 0.0613,0.110697 0.0596,-0.01791 0.0613,0.0934 0.0596,-0.01927 0.0613,-0.01235 0.0613,0.123792 0.0596,-0.0027 0.0613,-0.04855 0.0596,0.0016 0.0613,0.03484 0.0613,0.05708 0.0613,-0.0446 0.0596,0.04645 0.0613,0.04102 0.0596,0.05424 0.0613,-0.07499 0.0596,0.03113 0.0613,0.03113 0.0613,-0.02001 0.0596,-0.02113 0.12262,0.09192 0.0596,-0.02619 0.0613,-0.04102 0.0596,0.07549 0.0613,0.315288 0.0613,0.04756 0.0596,-0.04003 0.12092,0.04176 0.0613,-0.0147 0.0613,0.04756 0.0596,-0.01223 0.0613,-0.01273 0.0596,0.01211 0.0613,-0.05967 0.0613,0.03805 0.0596,-0.01915 0.0613,-0.0194 0.0613,-0.06412 0.0596,0.04361 0.0613,0.06709 0.0596,0.0052 0.0613,0.04719 0.12092,0.04621 0.0613,0.02594 0.0596,-0.0067 0.0613,0.07796 0.0613,0.01297 0.0596,0.02656 0.0613,0.02718 0.0596,-0.01618 0.0613,0.05881 0.0596,-0.01087 0.0613,-0.06165 0.0613,-0.0147 0.0596,0.03447 0.0613,-0.04892 0.0613,0.02051 0.0596,0.177411 0.0613,0.02261 0.0613,0.140595 0.0596,-0.0069 0.0613,-0.01211 0.0596,-0.0082 0.0613,-0.04954 0.0613,0.01161 0.0596,0.360506 0.0613,0.136271 0.0596,-0.05757 0.0613,0.127252 0.0613,-0.03373 0.0596,-0.162709 0.0613,-0.112797 0.0613,-0.03064 0.0596,-0.07215 0.0613,0.404117 0.0596,-0.02669 0.0613,-0.05177 0.0596,0.08932 0.0613,0.125028 0.0613,-0.101801 0.0596,-0.09612 0.0613,0.107979 0.0613,0.02335 0.0596,0.0803 0.0613,-0.04336 0.0596,0.251168 0.0613,-0.124039 0.0613,0.106249 0.0596,0.288973 0.0613,0.220281 0.0596,0.146278 0.0613,0.132441 0.0613,0.121939 0.0596,0.163451 0.0613,0.141706 0.0613,0.06708 0.0596,0.130959 0.0613,-0.09019 0.0596,-0.04312 0.0613,-0.147637 0.0596,0.165181 0.0613,0.08117 0.0613,0.06956 0.0596,-0.0656 0.0613,-0.128116 0.0613,0.207062 0.0596,0.02792 0.18223,-0.247585 0.0613,0.02409 0.0596,0.155544 0.0613,0.02422 0.0596,0.08191 0.0613,0.07017 0.0613,-0.01507 0.0596,0.05844 0.0613,0.03113 0.0596,-0.02471 0.0613,0.105138 0.0613,-0.02286 0.0596,0.266734 0.0613,0.0661 0.0596,0.119098 0.0613,0.110944 0.0613,-0.04139 0.0596,0.0051 0.0613,0.105014 0.0613,0.04015 0.0596,0.0745 0.0613,0.113415 0.0613,-0.0091 0.0596,0.03212 0.0613,-0.01903 0.0596,-0.0724 0.0613,0.0037 0.0613,0.148625 0.0596,0.02014 0.0613,0.09723 0.0596,0.0043 0.0613,-0.06499 0.0596,-0.04238 0.0613,0.0065 0.0613,-0.03817 0.0596,0.156161 0.0613,0.04682 0.0613,0.01384 0.0596,-0.03706 0.0613,0.03892 0.0613,-0.04299 0.0596,0.0446 0.0613,0.02804 0.0596,0.06462 0.0613,0.03385 0.0596,0.02199 0.0613,0.03682 0.0613,0.05189 0.0596,0.104643 0.0613,-0.09352 0.0596,0.07746 0.0613,-0.05078 0.0613,-0.03632 0.0596,-0.01915 0.0613,0.07561 0.0613,-0.03101 0.0596,0.03855 0.0613,0.05893 0.0596,-0.0085 0.0613,-0.01915 0.0613,0.04386 0.0596,0.03496 0.0613,-0.0131 0.0596,0.01964 0.30316,0.127252 0.0613,0.02619 0.0613,0.02421 0.0596,0.112303 0.0613,-0.04151 0.0613,-0.01347 0.0596,0.0598 0.0613,0.05263 0.0596,0.04509 0.0613,0.02557 0.0613,0.04831 0.0596,0.04695 0.0613,0.002 0.0596,-0.01717 0.0613,0.03212 0.0613,0.104025 0.0596,-0.05214 0.0613,0.03546 0.0596,-0.0062 0.0613,0.02916 0.0613,0.04905 0.0596,0.04794 0.0613,-0.021 0.0613,0.04497 0.0596,-0.05275 0.0613,0.07635 0.0596,-0.01606 0.0613,0.03916 0.0613,0.0041 0.0596,-0.06115 0.0613,0.02236 0.0596,-0.02273 0.0613,0.07746 0.0613,0.02953 0.0596,0.128116 0.0613,0.05658 0.0596,0.01063 0.0613,-0.04658 0.0613,-0.0173 0.0613,0.03385 0.0596,6.17e-4 0.0613,0.0032 0.0596,8.64e-4 0.0613,-0.03397 0.0596,-0.01643 0.0613,0.03756 0.0613,-0.02804 0.0596,-8.65e-4 0.0613,0.0043 0.0596,0.01273 0.0613,0.02039 0.0613,-0.0173 0.0596,0.03645 0.0613,-0.0036 0.0613,-0.04361 0.0596,0.01483 0.0613,0.096 0.0613,-0.0084 0.0596,0.01099 0.0613,0.0035 v 990.522345 0 h -0.0613 -0.0596 -0.0613 -0.0613 -0.0596 -0.0613 -0.0613 -0.0596 -0.0613 -0.0613 -0.0596 -0.0613 -0.0596 -0.0613 -0.0613 -0.0596 -0.0613 -0.0596 -0.0613 -0.0596 -0.0613 -0.0613 -0.0613 -0.0596 -0.0613 -0.0596 -0.0613 -0.0613 -0.0596 -0.0613 -0.0596 -0.0613 -0.0613 -0.0596 -0.0613 -0.0596 -0.0613 -0.0613 -0.0596 -0.0613 -0.0613 -0.0596 -0.0613 -0.0596 -0.0613 -0.0613 -0.0596 -0.0613 -0.0596 -0.0613 -0.0613 -0.0596 -0.0613 -0.0596 -0.0613 -0.0613 -0.0596 -0.0613 -0.0613 -0.30316 -0.0596 -0.0613 -0.0596 -0.0613 -0.0613 -0.0596 -0.0613 -0.0596 -0.0613 -0.0613 -0.0596 -0.0613 -0.0613 -0.0596 -0.0613 -0.0596 -0.0613 -0.0613 -0.0596 -0.0613 -0.0596 -0.0613 -0.0596 -0.0613 -0.0613 -0.0596 -0.0613 -0.0613 -0.0596 -0.0613 -0.0613 -0.0596 -0.0613 -0.0596 -0.0613 -0.0596 -0.0613 -0.0613 -0.0596 -0.0613 -0.0596 -0.0613 -0.0613 -0.0596 -0.0613 -0.0613 -0.0596 -0.0613 -0.0613 -0.0596 -0.0613 -0.0596 -0.0613 -0.0613 -0.0596 -0.0613 -0.0596 -0.0613 -0.0613 -0.0596 -0.0613 -0.0596 -0.0613 -0.18223 -0.0596 -0.0613 -0.0613 -0.0596 -0.0613 -0.0613 -0.0596 -0.0613 -0.0596 -0.0613 -0.0596 -0.0613 -0.0613 -0.0596 -0.0613 -0.0613 -0.0596 -0.0613 -0.0596 -0.0613 -0.0613 -0.0596 -0.0613 -0.0596 -0.0613 -0.0613 -0.0596 -0.0613 -0.0613 -0.0596 -0.0613 -0.0596 -0.0613 -0.0596 -0.0613 -0.0613 -0.0596 -0.0613 -0.0613 -0.0596 -0.0613 -0.0596 -0.0613 -0.0613 -0.0596 -0.0613 -0.0596 -0.0613 -0.0613 -0.0596 -0.0613 -0.0613 -0.0596 -0.0613 -0.0613 -0.0596 -0.0613 -0.0596 -0.0613 -0.0596 -0.0613 -0.0613 -0.0596 -0.0613 -0.12092 -0.0613 -0.0596 -0.0613 -0.0596 -0.0613 -0.0613 -0.0596 -0.0613 -0.0613 -0.0596 -0.0613 -0.0596 -0.0613 -0.0613 -0.12092 -0.0596 -0.0613 -0.0613 -0.0596 -0.0613 -0.0596 -0.12262 -0.0596 -0.0613 -0.0613 -0.0596 -0.0613 -0.0596 -0.0613 -0.0596 -0.0613 -0.0613 -0.0613 -0.0596 -0.0613 -0.0596 -0.0613 -0.0613 -0.0596 -0.0613 -0.0596 -0.0613 -0.0596 -0.0613 -0.0613 -0.0613 -0.0596 -0.0613 -0.12092 -0.0596 -0.0613 -0.0613 -0.0596 -0.0613 -0.0613 -0.0596 -0.0613 -0.0596 -0.0613 -0.0613 -0.0596 -0.0613 -0.0596 -0.0613 -0.0613 -0.0596 -0.0613 -0.0596 -0.0613 -0.0613 -0.0596 -0.0613 -0.0613 -0.0596 -0.0613 -0.0596 -0.0613 -0.0613 -0.0596 -0.0613 -0.0596 -0.0613 -0.0613 -0.0596 -0.0613 -0.0596 -0.0613 -0.0613 -0.0596 -0.0613 -0.24184 -0.0613 -0.0613 -0.0596 -0.0613 -0.0596 -0.0613 -0.0613 -0.0596 -0.0613 -0.0613 -0.0596 -0.0613 -0.0596 -0.0613 -0.12092 -0.0613 -0.0596 -0.0613 -0.0613 -0.0596 -0.0613 -0.0596 -0.0613 -0.0613 -0.0596 -0.0613 -0.0596 -0.0613 -0.0613 -0.0596 -0.0613 -0.0596 -0.0613 -0.0613 -0.0596 -0.0613 -0.0613 -0.0596 -0.0613 -0.0596 -0.0613 -0.0613 -0.0596 -0.0613 -0.0596 -0.0613 -0.0613 -0.0596 -0.0613 -0.0596 -0.0613 -0.0613 -0.0596 -0.0613 -0.0596 -0.0613 -0.0613 -0.0596 -0.0613 -0.0613 -0.0596 -0.0613 -0.0596 -0.0613 -0.0613 -0.0596 -0.0613 -0.0613 -0.0596 -0.0613 -0.0596 -0.0613 -0.30315 -0.0613 -0.0596 -0.0613 -0.0596 -0.0613 -0.0613 -0.0596 -0.0613 -0.0596 -0.12263 -0.0596 -0.0613 -0.0596 -0.0613 -0.0613 -0.0596 -0.0613 -0.0613 -0.0596 -0.0613 -0.0596 -0.0613 -0.0613 -0.0596 -0.0613 -0.0596 -0.0613 -0.0613 -0.0596 -0.0613 -0.0596 -0.0613 -0.0613 -0.0596 -0.12092 -0.0613 -0.0613 -0.0596 -0.0596 -0.063 -0.0596 -0.0613 -0.0596 -0.0613 -0.0613 -0.0596 -0.0613 -0.0596 -0.0613 -0.0613 -0.0596 -0.0613 -0.0596 -0.0613 -0.0613 -0.0596 -0.0613 -0.0613 -0.0596 -0.0613 -0.0596 -0.0613 -0.0613 -0.0596 -0.0613 -0.0596 -0.0613 -0.0613 -0.0596 -0.0613 -0.0596 -0.0613 -0.0613 -0.0596 -0.0613 -0.0596 -0.0613 -0.0613 -0.0596 -0.0613 -0.0596 -0.0613 -0.0613 -0.0596 -0.0613 -0.0613 -0.0596 -0.0613 -0.0596 -0.0613 -0.0613 -0.0596 -0.0613 -0.0596 -0.0613 -0.0613 -0.0596 -0.063 -0.0613 -0.0596 -0.0613 -0.0596 -0.0613 -0.0613 -0.0596 -0.0613 -0.0596 -0.0613 -0.0596 -0.0613 -0.0613 -0.0596 -0.0613 -0.0613 -0.0596 -0.0613 -0.0613 -0.0596 -0.0613 -0.0596 -0.0613 -0.0613 -0.0596 -0.0613 -0.0596 -0.0613 -0.0613 -0.0596 -0.0613 -0.0596 -0.0613 -0.0613 -0.0596 -0.0613 -0.0596 -0.0613 -0.0613 -0.0596 -0.0613 -0.0613 -0.0596 -0.0613 -0.0596 -0.0613 -0.0613 -0.0596 -0.0613 -0.0596 -0.0613 -0.0613 -0.0596 -0.0613 -0.0596 -0.0613 -0.0613 -0.0596 -0.0613 -0.0613 -0.0596 -0.0613 -0.0596 -0.0613 -0.0613 -0.0596 -0.0613 -0.0596 -0.0613 -0.0613 -0.0596 -0.0613 -0.0596 -0.0613 -0.0613 -0.0596 -0.0613 -0.0596 -0.0613 -0.0613 -0.0596 -0.0613 -0.0596 -0.0613 -0.0613 -0.0596 -0.0613 -0.0613 -0.0596 -0.0613 -0.0596 -0.0613 -0.0613 -0.0596 -0.0613 -0.0596 -0.0613 -0.0613 -0.0596 -0.0613 -0.0596 -0.0613 -0.0613 -0.0596 -0.0613 -0.0613 -0.0596 -0.0613 -0.0596 -0.0613 -0.0613 -0.0596 -0.0613 -0.0613 -0.0596 -0.0613 -0.0596 -0.0613 -0.0596 -0.0613 -0.0613 -0.0596 -0.0613 -0.0613 -0.0596 -0.0613 -0.0613 -0.0596 -0.0613 -0.0596 -0.0613 -0.0596 -0.0613 -0.0613 -0.0596 -0.0613 -0.0613 -0.0596 -0.0613 -0.0596 -0.0613 -0.0613 -0.0596 -0.0613 -0.0596 -0.0613 -0.0613 -0.0596 -0.0613 -0.0596 -0.0613 -0.0613 -0.0596 -0.0613 -0.0613 -0.0596 -0.0613 -0.0596 -0.0613 -0.0596 -0.0613 -0.0613 -0.0596 -0.0613 -0.0613 -0.0596 -0.0613 -0.0596 -0.0613 -0.0596 -0.0613 -0.0613 -0.0613 -0.0596 -0.0613 -0.0596 -0.0613 -0.0613 -0.0596 -0.0613 -0.12092 -0.0613 -0.0596 -0.0613 -0.0613 -0.0596 -0.0613 -0.0596 -0.0613 -0.0596 -0.0613 -0.0613 -0.0596 -0.0613 -0.0613 -0.0596 -0.0613 -0.0596 -0.0613 -0.0596 -0.0613 -0.0613 -0.0596 -0.0613 -0.0613 -0.0596 -0.18223 -0.30315 -0.0613 -0.0596 -0.12263 -0.0596 -0.0613 -0.0596 -0.0613 -0.0613 -0.0596 -0.0613 -0.0596 -0.0613 -0.0613 -0.0596 -0.0613 -0.0613 -0.0596 -0.0613 -0.0596 -0.0613 -0.0613 -0.0596 -0.0613 -0.0596 -0.0613 -0.0613 -0.0596 -0.0613 -0.0613 -0.0596 -0.0613 -0.0596 -0.0613 -0.0596 -0.0613 -0.0613 -0.0596 -0.24354 -0.0596 -0.0613 -0.0613 -0.0596 -0.0613 -0.0596 -0.0613 -0.0613 -0.0596 -0.0613 -0.0596 -0.0613 -0.0613 -0.0596 -0.0613 -0.0613 -0.0596 -0.30315 -0.0613 -0.30315 -0.0596 -0.0613 -0.0596 -0.0613 -0.0613 -0.12092 -0.0613 -0.0596 -0.0613 -0.0596 -0.0613 -0.12092 -0.0613 -0.0596 -0.0613 -0.24184 -0.0613 -0.0613 -0.0613 -0.0596 z"
           style="fill:#ffa500;fill-opacity:0.1;stroke:#ffa500;stroke-opacity:0.1"
           id="path24" />
      </g>
      <g
         id="matplotlib.axis_5" />
      <g
         id="matplotlib.axis_6" />
      <g
         id="line2d_12"
         transform="translate(-19.5)">
        <path
           clip-path="url(#p2cd42d3419)"
           d="m 115.88923,52.891118 0.30316,0.06227 0.18223,-0.100195 0.36276,0.292555 0.0613,-0.109584 0.0613,0.04349 0.66591,-0.17667 0.12262,0.255739 0.36277,-0.113662 0.0613,0.184453 0.0596,-0.124534 0.48538,-0.265375 0.12092,0.138988 0.0613,-0.03187 0.18223,0.201626 0.30315,-0.146278 0.30315,0.0027 0.18224,0.344198 0.24184,-0.150973 0.30315,-0.07289 0.12263,-0.453164 0.0596,0.02446 0.24355,0.319117 0.30315,0.173829 0.18223,-0.08364 0.0596,0.265499 0.0613,-0.07993 0.36447,-0.251539 0.0596,0.08203 0.0613,-0.06956 0.0596,-0.03225 0.12262,0.4056 0.72723,-0.212251 0.30315,-0.108226 0.0596,-0.122187 0.24355,-0.01149 0.42407,-0.01458 0.24354,0.272912 0.24184,-0.09562 0.66762,-0.03286 0.0596,0.117615 0.0613,-0.09501 0.24355,-0.09772 0.30145,0.07067 0.18223,0.256975 0.18223,0.25228 0.0613,-0.08685 0.0596,-0.132688 0.0613,0.173829 0.0613,-0.08834 0.0596,-0.130217 0.0613,0.03793 0.66591,-0.298238 0.42578,-0.103408 0.18223,0.05757 0.0596,0.33975 0.0613,-0.0661 0.0596,-0.04102 0.12263,0.157274 0.0596,-0.08821 0.91117,-0.230906 0.0596,0.17494 0.0613,-0.108102 0.30315,-0.17667 0.12092,0.216822 0.18223,-0.08698 0.30316,0.154803 0.0596,0.03002 0.24354,-0.23696 0.18223,-0.125646 0.24184,0.25611 0.12092,-0.08648 0.24355,0.07944 0.18223,-0.16901 0.12092,0.01581 0.30316,0.638483 0.12092,-0.07858 0.0613,0.108473 0.0596,-0.163945 0.12092,0.0782 0.0613,-0.130464 0.60631,-0.189148 0.18223,0.264634 0.30315,0.215834 0.0613,-0.0782 0.0596,0.105631 0.42578,-0.462677 0.0596,0.159003 0.18223,-0.07845 0.18223,-0.325913 0.0613,0.197179 0.18053,-0.01137 0.12263,0.0052 0.18223,-0.09649 0.18053,0.32443 0.0613,-0.151837 0.18394,0.25475 0.18053,-0.164315 0.0613,0.188901 0.0613,-0.08685 0.24184,-0.259939 0.12092,-0.147019 0.0613,0.05856 0.0613,0.141213 0.66591,-0.111809 0.0613,0.05411 0.0613,-0.109956 0.12093,0.136765 0.0596,-0.07944 0.42578,-0.0257 0.0596,0.163574 0.0613,-0.126263 0.0596,-0.145043 0.0613,0.12997 0.36447,-0.190136 0.30315,0.374837 0.12092,-0.252157 0.0613,0.0404 0.36277,-0.14949 0.24354,0.441922 0.0596,-0.09439 0.48538,-0.311952 0.48539,-0.02928 0.24355,-0.04707 0.12091,-0.138 0.18224,0.111067 0.42407,0.06115 0.18223,-0.09142 0.24184,0.392751 0.18224,-0.188901 0.18223,0.261793 0.0596,-0.06523 0.12262,0.09464 0.24184,-0.234119 0.0613,0.236219 0.0596,-0.107855 0.12263,-0.164192 0.24184,0.193472 0.36446,0.0079 0.18224,-0.144795 0.0596,0.127375 0.0613,-0.06499 0.18053,-0.06721 0.0613,0.163944 0.0613,-0.08117 0.30315,-0.229918 0.0596,0.08438 0.12263,-0.09859 0.18053,0.06684 0.0613,-0.02632 0.0613,0.150108 0.0596,-0.05152 0.0613,-0.08611 0.30315,-0.01297 0.0613,-0.111314 0.0596,0.193842 0.0613,-0.06202 0.12092,-0.04423 0.0613,0.102049 0.0596,-0.05658 0.12092,-0.09636 0.36446,0.153443 v 0"
           style="fill:none;stroke:#808080;stroke-linecap:square"
           id="path25" />
      </g>
      <g
         id="line2d_13"
         transform="translate(-19.5)">
        <path
           clip-path="url(#p2cd42d3419)"
           d="m 193.64291,72.184718 0.12092,-0.01619 0.18223,0.173582 0.18224,0.06523 0.12092,0.04843 0.18223,-0.07808 0.24354,0.16938 0.18224,-0.04658 0.30315,-0.241161 0.60801,-0.0023 0.48368,-0.09093 0.42578,0.07919 0.36276,-0.112426 0.78854,0.09698 0.48539,-0.134788 0.18223,0.02298 0.18223,-0.032 0.12092,0.07129 0.18223,-0.06412 0.48539,-0.09019 0.60631,0.132441 0.24184,0.0033 0.30315,0.0294 0.18223,-0.04707 0.24355,-0.0189 0.24184,0.03373 0.78854,0.04608 0.24184,-0.170864 0.12262,-0.04596 0.12092,0.03756 0.18223,0.03163 0.90946,-0.04435 0.84815,0.06387 0.24355,0.03867 0.24184,-0.0787 0.18223,-0.03212 1.21261,0.02632 0.0613,0.08277 0.0613,-0.05214 0.48538,-0.05745 0.12092,0.09414 1.45446,-0.03669 0.30315,-0.0033 0.18223,-0.03187 0.48539,0.04163 0.5467,0.0067 0.30315,-0.103161 0.36276,0.008 0.18223,-0.02978 0.66762,0.07549 0.18223,-0.02063 0.48539,0.102173 0.78684,-0.09006 1.27392,0.01174 0.48539,-0.08574 0.36446,0.08092 0.12092,-0.09043 0.18223,0.0231 0.30316,0.01248 0.78854,-0.09167 0.12092,-0.01273 0.18223,-0.0032 0.36446,0.165304 0.18053,0.06659 0.36447,-0.01952 0.18223,-0.03373 0.36447,-0.08549 0.36276,0.0064 0.30315,0.186306 0.30315,-0.05164 0.24355,0.0215 0.24184,-0.04608 0.24354,0.04052 0.42408,-0.0049 1.1513,-0.03076 0.36446,0.09439 0.24355,-0.07598 0.24184,0.04386 0.24184,-0.09451 0.24355,0.109708 0.36446,-0.05967 0.12092,-0.0075 0.30315,-0.08129 1.51747,0.116998 0.0613,-0.08142 0.6063,-0.0022 0.97077,0.0035 0.18224,-0.02211 0.18052,0.0472 0.24355,0.114526 0.12092,-0.06894 0.12092,-0.0105 0.12092,0.07376 0.12262,0.03694 0.36277,-0.09019 0.24354,-0.04991 0.24184,0.100566 0.18224,-0.03682 0.30315,-0.03459 0.30315,0.02384 0.36447,-0.01668 0.24184,0.03892 0.18223,-0.0399 0.12092,0.03657 0.42578,0.150973 0.18053,-0.05708 0.90946,-0.06239 0.12262,-0.09019 0.18053,0.144672 1.51747,0.07462 0.18223,-0.0027 0.18053,0.0028 0.30315,0.02187 0.42578,-0.123669 0.12092,0.05436 0.12092,-0.01507 0.18223,0.0383 0.48539,-0.02211 0.18223,0.03595 0.18224,-0.05868 0.24184,0.05226 0.66761,-0.03583 0.12093,-0.01075 0.30315,-0.02187 0.18223,-0.04349 0.18223,0.02421 0.72723,-0.06177 0.12092,-0.01964 0.24355,0.134912 1.21261,-0.04472 0.0613,0.09229 0.0596,-0.05312 0.60631,-0.01285 0.24354,0.06573 0.36276,0.07635 0.24355,-0.106991 0.12092,0.0012 0.12092,0.07944 0.18223,0.01087 0.12092,0.01594 0.24354,0.05387 0.24185,-0.0635 0.18223,-0.02409 0.90946,-0.108102 0.18223,-0.02199 0.18223,0.08994 0.36277,-0.01816 0.0613,0.0577 v 0"
           style="fill:none;stroke:#a52a2a;stroke-linecap:square"
           id="path26" />
      </g>
      <g
         id="line2d_14"
         transform="translate(-19.5)">
        <path
           clip-path="url(#p2cd42d3419)"
           d="m 145.79069,53.149699 0.24185,-0.05226 0.0613,0.148255 0.0613,-0.05103 0.24184,-0.05485 0.12092,0.265376 0.0613,-0.08364 0.12092,0.156037 0.0613,-0.155173 0.0596,0.08871 0.42578,-0.294656 0.0596,0.138495 0.0613,-0.137383 0.0596,-0.08623 0.66762,0.04967 0.0596,0.192236 0.0613,-0.02718 0.12092,0.0252 0.0613,-0.113909 0.0613,0.296879 0.0596,-0.112797 0.30316,-0.218428 0.24354,-0.230906 0.30315,-0.08031 0.78854,-0.03867 0.24184,0.04275 0.12092,-0.06153 0.12093,0.222629 0.18223,-0.01174 0.0613,0.01273 0.0613,0.260063 0.0596,-0.08018 0.24354,0.531739 0.0596,0.41536 0.0613,-0.05905 0.18223,0.108596 0.12092,-0.187542 0.30315,-0.02384 0.78854,1.161327 0.0596,-0.06115 0.18223,0.385338 0.18223,0.05164 0.0613,-0.05485 0.36276,0.490846 0.18223,0.122434 0.78854,0.684071 0.24354,0.151961 0.12092,0.09612 0.12093,0.03126 0.12092,-0.06844 0.36446,0.511725 0.18223,-0.06004 0.18224,0.101802 0.18053,-0.01445 1.03208,0.423514 0.0596,0.138865 0.0613,-0.03262 0.97077,-0.08599 0.12092,0.09686 0.42408,0.05547 0.12262,0.01087 0.30315,0.111808 0.18053,-0.103284 0.24355,0.23066 0.30315,0.02187 0.18223,0.05955 0.30315,-0.06412 0.18224,0.08611 0.18053,0.03138 0.30315,0.08352 0.12262,0.116133 0.48539,0.01062 0.24184,0.08241 0.36447,0.138124 0.24184,0.09649 0.18223,0.02236 0.12092,-0.01618 0.18223,0.16098 0.36447,0.04991 0.36276,0.15542 0.24354,0.106249 0.24185,0.0072 0.85155,0.125522 0.0596,0.174693 0.0613,-0.08512 0.0613,-0.01409 0.24184,0.535076 0.30316,-0.03657 0.12092,0.340368 0.0613,-0.09772 0.0613,-0.06004 0.12092,0.207927 0.0596,-0.123052 0.0613,0.0913 0.545,0.482445 0.12262,0.32406 0.0596,-0.187048 0.18223,0.340739 0.0613,-0.116874 0.24184,0.345186 0.24355,0.238566 0.0596,-0.143683 0.0613,0.116132 0.30315,0.107608 0.36447,-0.05658 0.36276,0.593265 0.12092,-0.08834 0.0613,-0.05078 0.30316,0.470337 0.12092,0.191496 0.0613,-0.108844 0.72722,0.431915 0.12093,-0.07845 0.36446,0.303304 0.42407,-0.01445 0.0613,-0.103902 0.0596,0.0551 0.79025,0.348646 0.12092,0.306763 0.0596,-0.03002 0.36446,0.201132 0.0613,-0.121322 0.0596,0.03126 0.24355,0.147884 0.24184,-0.0072 0.0613,0.09019 0.0596,-0.04571 0.12262,-0.09081 0.42408,0.273159 0.54499,0.03286 0.5467,0.197178 0.48538,0.24252 0.60631,0.07685 0.24184,-0.185071 0.84985,0.282796 0.18223,0.165304 0.12092,0.02384 0.24185,0.03842 0.48538,-0.247461 0.48539,0.2293 0.18223,0.186183 0.12092,-0.03163 0.12092,0.121074 0.18223,-0.01211 0.30316,0.154184 0.12092,-0.04386 0.30485,0.08191 0.18053,0.0083 0.12263,0.362853 0.18053,0.0017 0.66761,-0.06066 0.18224,0.119468 0.72722,0.180253 0.24355,-0.0086 0.18223,0.340615 0.30315,-0.06511 0.12093,0.496777 0.0596,-0.05757 0.0613,0.127252 0.0613,-0.03373 0.24184,-0.378296 0.0613,0.404117 0.0596,-0.02669 0.0613,-0.05177 0.0596,0.08932 0.0613,0.125028 0.0613,-0.101801 0.0596,-0.09612 0.0613,0.107979 0.18224,0.06029 0.0596,0.251168 0.0613,-0.124039 0.12092,0.395222 0.36446,0.926096 0.12092,0.198044 0.0613,-0.09019 0.12092,-0.190754 0.0596,0.165181 0.12262,0.150725 0.0596,-0.0656 0.0613,-0.128116 0.12092,0.234983 0.24354,-0.223494 0.24185,0.331844 0.12092,0.04336 0.24354,0.08871 0.18053,0.451929 0.0613,0.110944 0.0613,-0.04139 0.12092,0.110079 0.42408,0.159621 0.0613,0.0037 0.18223,0.265993 0.12092,-0.06066 0.18224,-0.074 0.18223,0.216822 0.18223,-0.04114 0.6046,0.370389 0.18224,-0.106249 0.24354,0.142077 0.36276,0.0577 1.15301,0.530257 0.0613,0.104025 0.0596,-0.05214 0.42577,0.179388 0.0596,-0.05275 0.0613,0.07635 0.36276,-0.03435 0.30315,0.302316 0.18394,-0.03002 1.21261,0.0892 v 0"
           style="fill:none;stroke:#ffa500;stroke-linecap:square"
           id="path27" />
      </g>
      <g
         id="line2d_15"
         transform="translate(-19.5)">
        <path
           clip-path="url(#p2cd42d3419)"
           d="m 201.04462,82.562727 h 17.03107"
           style="fill:none;stroke:#000000;stroke-linecap:square"
           id="path28" />
      </g>
      <g
         id="line2d_16"
         transform="translate(-19.5)">
        <path
           clip-path="url(#p2cd42d3419)"
           d="M 107.3737,70.208182 V 82.562727"
           style="fill:none;stroke:#000000;stroke-linecap:square"
           id="path29" />
      </g>
      <g
         id="text_3"
         transform="translate(-19.5)">
        <!-- 10 s -->
        <g
           transform="matrix(0.08,0,0,-0.08,203.10765,80.091818)"
           id="g32">
          <use
             xlink:href="#SourceSansPro-Regular-49"
             id="use29" />
          <use
             x="49.699997"
             xlink:href="#SourceSansPro-Regular-48"
             id="use30" />
          <use
             x="99.399994"
             xlink:href="#SourceSansPro-Regular-32"
             id="use31" />
          <use
             x="119.39998"
             xlink:href="#SourceSansPro-Regular-115"
             id="use32" />
        </g>
      </g>
      <g
         id="text_4"
         transform="translate(-19.5)">
        <!-- 100 nL -->
        <defs
           id="defs32">
          <path
             d="M 8.203125,0 V 48.59375 H 15 l 0.703125,-7 H 16 q 3.5,3.5 7.34375,5.84375 3.859375,2.359375 8.953125,2.359375 Q 40,49.796875 43.546875,45 47.09375,40.203125 47.09375,30.796875 V 0 h -8.1875 v 29.703125 q 0,6.890625 -2.203125,9.9375 -2.203125,3.0625 -7,3.0625 -3.796875,0 -6.703125,-1.90625 -2.90625,-1.890625 -6.59375,-5.59375 V 0 Z"
             id="SourceSansPro-Regular-110" />
          <path
             d="m 9,0 v 65.59375 h 8.296875 v -58.5 H 46 V 0 Z"
             id="SourceSansPro-Regular-76" />
        </defs>
        <g
           transform="matrix(0,-0.08,-0.08,0,101.14819,87.281705)"
           id="g38">
          <use
             xlink:href="#SourceSansPro-Regular-49"
             id="use33" />
          <use
             x="49.699997"
             xlink:href="#SourceSansPro-Regular-48"
             id="use34" />
          <use
             x="99.399994"
             xlink:href="#SourceSansPro-Regular-48"
             id="use35" />
          <use
             x="149.09999"
             xlink:href="#SourceSansPro-Regular-32"
             id="use36" />
          <use
             x="169.09998"
             xlink:href="#SourceSansPro-Regular-110"
             id="use37" />
          <use
             x="223.79997"
             xlink:href="#SourceSansPro-Regular-76"
             id="use38" />
        </g>
      </g>
    </g>
  </g>
  <defs
     id="defs40">
    <clipPath
       id="pc465345452">
      <rect
         height="81.540001"
         width="82.058823"
         x="7.1999998"
         y="7.1999998"
         id="rect38" />
    </clipPath>
    <clipPath
       id="ped276ba6bf">
      <rect
         height="37.063637"
         width="180.52942"
         x="105.67059"
         y="7.1999998"
         id="rect39" />
    </clipPath>
    <clipPath
       id="p2cd42d3419">
      <rect
         height="37.063637"
         width="180.52942"
         x="105.67059"
         y="51.676365"
         id="rect40" />
    </clipPath>
  </defs>
</svg>
