<?xml version="1.0" encoding="utf-8" standalone="no"?>
<!DOCTYPE svg PUBLIC "-//W3C//DTD SVG 1.1//EN"
  "http://www.w3.org/Graphics/SVG/1.1/DTD/svg11.dtd">
<svg xmlns:xlink="http://www.w3.org/1999/xlink" width="516.374375pt" height="291.6pt" viewBox="0 0 516.374375 291.6" xmlns="http://www.w3.org/2000/svg" version="1.1">
 <metadata>
  <rdf:RDF xmlns:dc="http://purl.org/dc/elements/1.1/" xmlns:cc="http://creativecommons.org/ns#" xmlns:rdf="http://www.w3.org/1999/02/22-rdf-syntax-ns#">
   <cc:Work>
    <dc:type rdf:resource="http://purl.org/dc/dcmitype/StillImage"/>
    <dc:date>2025-02-16T02:03:51.591041</dc:date>
    <dc:format>image/svg+xml</dc:format>
    <dc:creator>
     <cc:Agent>
      <dc:title>Matplotlib v3.6.3, https://matplotlib.org/</dc:title>
     </cc:Agent>
    </dc:creator>
   </cc:Work>
  </rdf:RDF>
 </metadata>
 <defs>
  <style type="text/css">*{stroke-linejoin: round; stroke-linecap: butt}</style>
 </defs>
 <g id="figure_1">
  <g id="patch_1">
   <path d="M 0 291.6 
L 516.374375 291.6 
L 516.374375 0 
L 0 0 
z
" style="fill: #ffffff"/>
  </g>
  <g id="axes_1">
   <g id="patch_2">
    <path d="M 62.774375 145.8 
L 509.174375 145.8 
L 509.174375 7.2 
L 62.774375 7.2 
z
" style="fill: #ffffff"/>
   </g>
   <g id="PolyCollection_1">
    <defs>
     <path id="m316f48fafb" d="M 62.774375 -208.628816 
L 62.774375 -188.487525 
L 509.174375 -188.487525 
L 509.174375 -208.628816 
L 509.174375 -208.628816 
L 62.774375 -208.628816 
z
" style="stroke: #ff4500; stroke-opacity: 0.1"/>
    </defs>
    <g clip-path="url(#p8a096bff10)">
     <use xlink:href="#m316f48fafb" x="0" y="291.6" style="fill: #ff4500; fill-opacity: 0.1; stroke: #ff4500; stroke-opacity: 0.1"/>
    </g>
   </g>
   <g id="PolyCollection_2">
    <defs>
     <path id="mc51f490e06" d="M 62.774375 -274.474488 
L 62.774375 -246.426916 
L 509.174375 -246.426916 
L 509.174375 -274.474488 
L 509.174375 -274.474488 
L 62.774375 -274.474488 
z
" style="stroke: #2e8b57; stroke-opacity: 0.1"/>
    </defs>
    <g clip-path="url(#p8a096bff10)">
     <use xlink:href="#mc51f490e06" x="0" y="291.6" style="fill: #2e8b57; fill-opacity: 0.1; stroke: #2e8b57; stroke-opacity: 0.1"/>
    </g>
   </g>
   <g id="PolyCollection_3">
    <defs>
     <path id="mff599fe624" d="M 87.615521 -201.431203 
L 87.57492 -201.431203 
L 87.57492 -201.658338 
L 87.57492 -201.885473 
L 87.57492 -202.112607 
L 87.57492 -202.339742 
L 87.57492 -202.566877 
L 87.57492 -202.794012 
L 87.57492 -203.021146 
L 87.57492 -203.248281 
L 87.57492 -203.475416 
L 87.57492 -203.702551 
L 87.57492 -203.929685 
L 87.57492 -204.15682 
L 87.57492 -204.383955 
L 87.57492 -204.61109 
L 87.57492 -204.838224 
L 87.57492 -205.065359 
L 87.57492 -205.292494 
L 87.57492 -205.519629 
L 87.57492 -205.746763 
L 87.57492 -205.973898 
L 87.57492 -206.201033 
L 87.57492 -206.428168 
L 87.57492 -206.655302 
L 87.57492 -206.882437 
L 87.57492 -207.109572 
L 87.57492 -207.336707 
L 87.57492 -207.563841 
L 87.57492 -207.790976 
L 87.57492 -208.018111 
L 87.57492 -208.245246 
L 87.57492 -208.47238 
L 87.57492 -208.699515 
L 87.57492 -208.92665 
L 87.57492 -209.153785 
L 87.57492 -209.380919 
L 87.57492 -209.608054 
L 87.57492 -209.835189 
L 87.57492 -210.062324 
L 87.57492 -210.289458 
L 87.57492 -210.516593 
L 87.57492 -210.743728 
L 87.57492 -210.970863 
L 87.57492 -211.197997 
L 87.57492 -211.425132 
L 87.57492 -211.652267 
L 87.57492 -211.879402 
L 87.57492 -212.106536 
L 87.57492 -212.333671 
L 87.57492 -212.560806 
L 87.57492 -212.787941 
L 87.57492 -213.015075 
L 87.57492 -213.24221 
L 87.57492 -213.469345 
L 87.57492 -213.69648 
L 87.57492 -213.923614 
L 87.57492 -214.150749 
L 87.57492 -214.377884 
L 87.57492 -214.605019 
L 87.57492 -214.832153 
L 87.57492 -215.059288 
L 87.57492 -215.286423 
L 87.57492 -215.513558 
L 87.57492 -215.740692 
L 87.57492 -215.967827 
L 87.57492 -216.194962 
L 87.57492 -216.422097 
L 87.57492 -216.649231 
L 87.57492 -216.876366 
L 87.57492 -217.103501 
L 87.57492 -217.330636 
L 87.57492 -217.55777 
L 87.57492 -217.784905 
L 87.57492 -218.01204 
L 87.57492 -218.239175 
L 87.57492 -218.466309 
L 87.57492 -218.693444 
L 87.57492 -218.920579 
L 87.57492 -219.147714 
L 87.57492 -219.374848 
L 87.57492 -219.601983 
L 87.57492 -219.829118 
L 87.57492 -220.056253 
L 87.57492 -220.283387 
L 87.57492 -220.510522 
L 87.57492 -220.737657 
L 87.57492 -220.964792 
L 87.57492 -221.191926 
L 87.57492 -221.419061 
L 87.57492 -221.646196 
L 87.57492 -221.873331 
L 87.57492 -222.100465 
L 87.57492 -222.3276 
L 87.57492 -222.554735 
L 87.57492 -222.78187 
L 87.57492 -223.009004 
L 87.57492 -223.236139 
L 87.57492 -223.463274 
L 87.57492 -223.690409 
L 87.57492 -223.917543 
L 87.602756 -223.917543 
L 87.602756 -223.917543 
L 87.610379 -223.690409 
L 87.61766 -223.463274 
L 87.624198 -223.236139 
L 87.629748 -223.009004 
L 87.634567 -222.78187 
L 87.639882 -222.554735 
L 87.648248 -222.3276 
L 87.663488 -222.100465 
L 87.689704 -221.873331 
L 87.729219 -221.646196 
L 87.780687 -221.419061 
L 87.839725 -221.191926 
L 87.90274 -220.964792 
L 87.970952 -220.737657 
L 88.050388 -220.510522 
L 88.147498 -220.283387 
L 88.264876 -220.056253 
L 88.401376 -219.829118 
L 88.555819 -219.601983 
L 88.729774 -219.374848 
L 88.926721 -219.147714 
L 89.149191 -218.920579 
L 89.396998 -218.693444 
L 89.667851 -218.466309 
L 89.959694 -218.239175 
L 90.273771 -218.01204 
L 90.617167 -217.784905 
L 91.002593 -217.55777 
L 91.443194 -217.330636 
L 91.943294 -217.103501 
L 92.491012 -216.876366 
L 93.059918 -216.649231 
L 93.619999 -216.422097 
L 94.148694 -216.194962 
L 94.633143 -215.967827 
L 95.066075 -215.740692 
L 95.444926 -215.513558 
L 95.777009 -215.286423 
L 96.083165 -215.059288 
L 96.392668 -214.832153 
L 96.731293 -214.605019 
L 97.110204 -214.377884 
L 97.521613 -214.150749 
L 97.942919 -213.923614 
L 98.347042 -213.69648 
L 98.712545 -213.469345 
L 99.027162 -213.24221 
L 99.285853 -213.015075 
L 99.490721 -212.787941 
L 99.653539 -212.560806 
L 99.790761 -212.333671 
L 99.906055 -212.106536 
L 99.974375 -211.879402 
L 99.947431 -211.652267 
L 99.781014 -211.425132 
L 99.462918 -211.197997 
L 99.020801 -210.970863 
L 98.507557 -210.743728 
L 97.976905 -210.516593 
L 97.464244 -210.289458 
L 96.980847 -210.062324 
L 96.519881 -209.835189 
L 96.066573 -209.608054 
L 95.605636 -209.380919 
L 95.124535 -209.153785 
L 94.615454 -208.92665 
L 94.078393 -208.699515 
L 93.523971 -208.47238 
L 92.972236 -208.245246 
L 92.446028 -208.018111 
L 91.962017 -207.790976 
L 91.524661 -207.563841 
L 91.126512 -207.336707 
L 90.754416 -207.109572 
L 90.397863 -206.882437 
L 90.05478 -206.655302 
L 89.731793 -206.428168 
L 89.439234 -206.201033 
L 89.184334 -205.973898 
L 88.967107 -205.746763 
L 88.781278 -205.519629 
L 88.61883 -205.292494 
L 88.474444 -205.065359 
L 88.347083 -204.838224 
L 88.238626 -204.61109 
L 88.151218 -204.383955 
L 88.084663 -204.15682 
L 88.034538 -203.929685 
L 87.992071 -203.702551 
L 87.947032 -203.475416 
L 87.89287 -203.248281 
L 87.830639 -203.021146 
L 87.76826 -202.794012 
L 87.715319 -202.566877 
L 87.677303 -202.339742 
L 87.653354 -202.112607 
L 87.638341 -201.885473 
L 87.626771 -201.658338 
L 87.615521 -201.431203 
z
"/>
    </defs>
    <g clip-path="url(#p8a096bff10)">
     <use xlink:href="#mff599fe624" x="0" y="291.6" style="fill: #ff4500; fill-opacity: 0.4"/>
    </g>
   </g>
   <g id="PolyCollection_4">
    <defs>
     <path id="m56093bb726" d="M 137.217236 -220.29516 
L 137.175162 -220.29516 
L 137.175162 -220.579487 
L 137.175162 -220.863814 
L 137.175162 -221.148141 
L 137.175162 -221.432468 
L 137.175162 -221.716795 
L 137.175162 -222.001122 
L 137.175162 -222.285449 
L 137.175162 -222.569776 
L 137.175162 -222.854103 
L 137.175162 -223.13843 
L 137.175162 -223.422757 
L 137.175162 -223.707084 
L 137.175162 -223.991411 
L 137.175162 -224.275738 
L 137.175162 -224.560065 
L 137.175162 -224.844392 
L 137.175162 -225.128719 
L 137.175162 -225.413046 
L 137.175162 -225.697373 
L 137.175162 -225.9817 
L 137.175162 -226.266027 
L 137.175162 -226.550354 
L 137.175162 -226.834681 
L 137.175162 -227.119008 
L 137.175162 -227.403335 
L 137.175162 -227.687663 
L 137.175162 -227.97199 
L 137.175162 -228.256317 
L 137.175162 -228.540644 
L 137.175162 -228.824971 
L 137.175162 -229.109298 
L 137.175162 -229.393625 
L 137.175162 -229.677952 
L 137.175162 -229.962279 
L 137.175162 -230.246606 
L 137.175162 -230.530933 
L 137.175162 -230.81526 
L 137.175162 -231.099587 
L 137.175162 -231.383914 
L 137.175162 -231.668241 
L 137.175162 -231.952568 
L 137.175162 -232.236895 
L 137.175162 -232.521222 
L 137.175162 -232.805549 
L 137.175162 -233.089876 
L 137.175162 -233.374203 
L 137.175162 -233.65853 
L 137.175162 -233.942857 
L 137.175162 -234.227184 
L 137.175162 -234.511511 
L 137.175162 -234.795838 
L 137.175162 -235.080165 
L 137.175162 -235.364492 
L 137.175162 -235.648819 
L 137.175162 -235.933146 
L 137.175162 -236.217473 
L 137.175162 -236.5018 
L 137.175162 -236.786127 
L 137.175162 -237.070454 
L 137.175162 -237.354781 
L 137.175162 -237.639108 
L 137.175162 -237.923435 
L 137.175162 -238.207762 
L 137.175162 -238.492089 
L 137.175162 -238.776416 
L 137.175162 -239.060743 
L 137.175162 -239.34507 
L 137.175162 -239.629397 
L 137.175162 -239.913724 
L 137.175162 -240.198051 
L 137.175162 -240.482378 
L 137.175162 -240.766705 
L 137.175162 -241.051032 
L 137.175162 -241.335359 
L 137.175162 -241.619686 
L 137.175162 -241.904013 
L 137.175162 -242.188341 
L 137.175162 -242.472668 
L 137.175162 -242.756995 
L 137.175162 -243.041322 
L 137.175162 -243.325649 
L 137.175162 -243.609976 
L 137.175162 -243.894303 
L 137.175162 -244.17863 
L 137.175162 -244.462957 
L 137.175162 -244.747284 
L 137.175162 -245.031611 
L 137.175162 -245.315938 
L 137.175162 -245.600265 
L 137.175162 -245.884592 
L 137.175162 -246.168919 
L 137.175162 -246.453246 
L 137.175162 -246.737573 
L 137.175162 -247.0219 
L 137.175162 -247.306227 
L 137.175162 -247.590554 
L 137.175162 -247.874881 
L 137.175162 -248.159208 
L 137.175162 -248.443535 
L 137.248355 -248.443535 
L 137.248355 -248.443535 
L 137.267771 -248.159208 
L 137.287871 -247.874881 
L 137.311465 -247.590554 
L 137.342935 -247.306227 
L 137.387543 -247.0219 
L 137.450667 -246.737573 
L 137.535995 -246.453246 
L 137.642698 -246.168919 
L 137.763781 -245.884592 
L 137.888366 -245.600265 
L 138.008049 -245.315938 
L 138.123603 -245.031611 
L 138.246919 -244.747284 
L 138.395897 -244.462957 
L 138.585068 -244.17863 
L 138.818179 -243.894303 
L 139.088422 -243.609976 
L 139.387594 -243.325649 
L 139.718668 -243.041322 
L 140.100977 -242.756995 
L 140.560115 -242.472668 
L 141.107195 -242.188341 
L 141.723832 -241.904013 
L 142.366454 -241.619686 
L 142.987155 -241.335359 
L 143.554978 -241.051032 
L 144.064112 -240.766705 
L 144.528562 -240.482378 
L 144.971411 -240.198051 
L 145.415144 -239.913724 
L 145.874521 -239.629397 
L 146.352284 -239.34507 
L 146.839161 -239.060743 
L 147.318567 -238.776416 
L 147.773513 -238.492089 
L 148.192042 -238.207762 
L 148.568626 -237.923435 
L 148.900699 -237.639108 
L 149.182327 -237.354781 
L 149.400223 -237.070454 
L 149.536279 -236.786127 
L 149.574375 -236.5018 
L 149.505348 -236.217473 
L 149.32788 -235.933146 
L 149.047997 -235.648819 
L 148.679166 -235.364492 
L 148.242584 -235.080165 
L 147.767313 -234.795838 
L 147.288763 -234.511511 
L 146.841524 -234.227184 
L 146.445764 -233.942857 
L 146.09524 -233.65853 
L 145.758163 -233.374203 
L 145.393692 -233.089876 
L 144.974597 -232.805549 
L 144.501952 -232.521222 
L 144.003297 -232.236895 
L 143.516433 -231.952568 
L 143.069443 -231.668241 
L 142.668659 -231.383914 
L 142.300238 -231.099587 
L 141.942104 -230.81526 
L 141.577328 -230.530933 
L 141.201081 -230.246606 
L 140.819543 -229.962279 
L 140.444914 -229.677952 
L 140.090989 -229.393625 
L 139.769857 -229.109298 
L 139.487875 -228.824971 
L 139.241746 -228.540644 
L 139.018869 -228.256317 
L 138.804227 -227.97199 
L 138.589614 -227.687663 
L 138.378156 -227.403335 
L 138.181493 -227.119008 
L 138.012912 -226.834681 
L 137.88094 -226.550354 
L 137.78571 -226.266027 
L 137.719049 -225.9817 
L 137.668293 -225.697373 
L 137.621775 -225.413046 
L 137.572689 -225.128719 
L 137.519721 -224.844392 
L 137.465505 -224.560065 
L 137.414451 -224.275738 
L 137.370672 -223.991411 
L 137.336543 -223.707084 
L 137.3124 -223.422757 
L 137.297018 -223.13843 
L 137.287939 -222.854103 
L 137.28163 -222.569776 
L 137.274344 -222.285449 
L 137.263873 -222.001122 
L 137.250903 -221.716795 
L 137.238457 -221.432468 
L 137.229514 -221.148141 
L 137.224639 -220.863814 
L 137.221597 -220.579487 
L 137.217236 -220.29516 
z
"/>
    </defs>
    <g clip-path="url(#p8a096bff10)">
     <use xlink:href="#m56093bb726" x="0" y="291.6" style="fill: #ff4500; fill-opacity: 0.4"/>
    </g>
   </g>
   <g id="PolyCollection_5">
    <defs>
     <path id="mf770ec6304" d="M 186.788524 -172.663355 
L 186.774586 -172.663355 
L 186.774586 -173.728372 
L 186.774586 -174.793388 
L 186.774586 -175.858405 
L 186.774586 -176.923422 
L 186.774586 -177.988438 
L 186.774586 -179.053455 
L 186.774586 -180.118471 
L 186.774586 -181.183488 
L 186.774586 -182.248505 
L 186.774586 -183.313521 
L 186.774586 -184.378538 
L 186.774586 -185.443555 
L 186.774586 -186.508571 
L 186.774586 -187.573588 
L 186.774586 -188.638604 
L 186.774586 -189.703621 
L 186.774586 -190.768638 
L 186.774586 -191.833654 
L 186.774586 -192.898671 
L 186.774586 -193.963687 
L 186.774586 -195.028704 
L 186.774586 -196.093721 
L 186.774586 -197.158737 
L 186.774586 -198.223754 
L 186.774586 -199.288771 
L 186.774586 -200.353787 
L 186.774586 -201.418804 
L 186.774586 -202.48382 
L 186.774586 -203.548837 
L 186.774586 -204.613854 
L 186.774586 -205.67887 
L 186.774586 -206.743887 
L 186.774586 -207.808903 
L 186.774586 -208.87392 
L 186.774586 -209.938937 
L 186.774586 -211.003953 
L 186.774586 -212.06897 
L 186.774586 -213.133987 
L 186.774586 -214.199003 
L 186.774586 -215.26402 
L 186.774586 -216.329036 
L 186.774586 -217.394053 
L 186.774586 -218.45907 
L 186.774586 -219.524086 
L 186.774586 -220.589103 
L 186.774586 -221.654119 
L 186.774586 -222.719136 
L 186.774586 -223.784153 
L 186.774586 -224.849169 
L 186.774586 -225.914186 
L 186.774586 -226.979202 
L 186.774586 -228.044219 
L 186.774586 -229.109236 
L 186.774586 -230.174252 
L 186.774586 -231.239269 
L 186.774586 -232.304286 
L 186.774586 -233.369302 
L 186.774586 -234.434319 
L 186.774586 -235.499335 
L 186.774586 -236.564352 
L 186.774586 -237.629369 
L 186.774586 -238.694385 
L 186.774586 -239.759402 
L 186.774586 -240.824418 
L 186.774586 -241.889435 
L 186.774586 -242.954452 
L 186.774586 -244.019468 
L 186.774586 -245.084485 
L 186.774586 -246.149502 
L 186.774586 -247.214518 
L 186.774586 -248.279535 
L 186.774586 -249.344551 
L 186.774586 -250.409568 
L 186.774586 -251.474585 
L 186.774586 -252.539601 
L 186.774586 -253.604618 
L 186.774586 -254.669634 
L 186.774586 -255.734651 
L 186.774586 -256.799668 
L 186.774586 -257.864684 
L 186.774586 -258.929701 
L 186.774586 -259.994718 
L 186.774586 -261.059734 
L 186.774586 -262.124751 
L 186.774586 -263.189767 
L 186.774586 -264.254784 
L 186.774586 -265.319801 
L 186.774586 -266.384817 
L 186.774586 -267.449834 
L 186.774586 -268.51485 
L 186.774586 -269.579867 
L 186.774586 -270.644884 
L 186.774586 -271.7099 
L 186.774586 -272.774917 
L 186.774586 -273.839934 
L 186.774586 -274.90495 
L 186.774586 -275.969967 
L 186.774586 -277.034983 
L 186.774586 -278.1 
L 186.788935 -278.1 
L 186.788935 -278.1 
L 186.788859 -277.034983 
L 186.788282 -275.969967 
L 186.789205 -274.90495 
L 186.793165 -273.839934 
L 186.80059 -272.774917 
L 186.811369 -271.7099 
L 186.826052 -270.644884 
L 186.846281 -269.579867 
L 186.873855 -268.51485 
L 186.909583 -267.449834 
L 186.953686 -266.384817 
L 187.007414 -265.319801 
L 187.073074 -264.254784 
L 187.151381 -263.189767 
L 187.240032 -262.124751 
L 187.337758 -261.059734 
L 187.450354 -259.994718 
L 187.589686 -258.929701 
L 187.764358 -257.864684 
L 187.972473 -256.799668 
L 188.205158 -255.734651 
L 188.45592 -254.669634 
L 188.724875 -253.604618 
L 189.015276 -252.539601 
L 189.328207 -251.474585 
L 189.659809 -250.409568 
L 190.001712 -249.344551 
L 190.345887 -248.279535 
L 190.693698 -247.214518 
L 191.062505 -246.149502 
L 191.480713 -245.084485 
L 191.970123 -244.019468 
L 192.527727 -242.954452 
L 193.124555 -241.889435 
L 193.726154 -240.824418 
L 194.316401 -239.759402 
L 194.901796 -238.694385 
L 195.495639 -237.629369 
L 196.100773 -236.564352 
L 196.702739 -235.499335 
L 197.270487 -234.434319 
L 197.762642 -233.369302 
L 198.143266 -232.304286 
L 198.403828 -231.239269 
L 198.57443 -230.174252 
L 198.708634 -229.109236 
L 198.848214 -228.044219 
L 198.996115 -226.979202 
L 199.119547 -225.914186 
L 199.174375 -224.849169 
L 199.125747 -223.784153 
L 198.955954 -222.719136 
L 198.669484 -221.654119 
L 198.298937 -220.589103 
L 197.898872 -219.524086 
L 197.518113 -218.45907 
L 197.165707 -217.394053 
L 196.801489 -216.329036 
L 196.365654 -215.26402 
L 195.826316 -214.199003 
L 195.205893 -213.133987 
L 194.564004 -212.06897 
L 193.9514 -211.003953 
L 193.37503 -209.938937 
L 192.80466 -208.87392 
L 192.211357 -207.808903 
L 191.598031 -206.743887 
L 190.996394 -205.67887 
L 190.443272 -204.613854 
L 189.963356 -203.548837 
L 189.565874 -202.48382 
L 189.244675 -201.418804 
L 188.977528 -200.353787 
L 188.732748 -199.288771 
L 188.485979 -198.223754 
L 188.234404 -197.158737 
L 187.994303 -196.093721 
L 187.784682 -195.028704 
L 187.613153 -193.963687 
L 187.47489 -192.898671 
L 187.36057 -191.833654 
L 187.262957 -190.768638 
L 187.178076 -189.703621 
L 187.104149 -188.638604 
L 187.040994 -187.573588 
L 186.989084 -186.508571 
L 186.947754 -185.443555 
L 186.914406 -184.378538 
L 186.88582 -183.313521 
L 186.860099 -182.248505 
L 186.837208 -181.183488 
L 186.817993 -180.118471 
L 186.803106 -179.053455 
L 186.792755 -177.988438 
L 186.78687 -176.923422 
L 186.784999 -175.858405 
L 186.78595 -174.793388 
L 186.787785 -173.728372 
L 186.788524 -172.663355 
z
"/>
    </defs>
    <g clip-path="url(#p8a096bff10)">
     <use xlink:href="#mf770ec6304" x="0" y="291.6" style="fill: #ff4500; fill-opacity: 0.4"/>
    </g>
   </g>
   <g id="PolyCollection_6">
    <defs>
     <path id="mc9a6d8bee0" d="M 236.396335 -160.568977 
L 236.374676 -160.568977 
L 236.374676 -161.255581 
L 236.374676 -161.942184 
L 236.374676 -162.628788 
L 236.374676 -163.315391 
L 236.374676 -164.001995 
L 236.374676 -164.688598 
L 236.374676 -165.375202 
L 236.374676 -166.061806 
L 236.374676 -166.748409 
L 236.374676 -167.435013 
L 236.374676 -168.121616 
L 236.374676 -168.80822 
L 236.374676 -169.494823 
L 236.374676 -170.181427 
L 236.374676 -170.868031 
L 236.374676 -171.554634 
L 236.374676 -172.241238 
L 236.374676 -172.927841 
L 236.374676 -173.614445 
L 236.374676 -174.301048 
L 236.374676 -174.987652 
L 236.374676 -175.674256 
L 236.374676 -176.360859 
L 236.374676 -177.047463 
L 236.374676 -177.734066 
L 236.374676 -178.42067 
L 236.374676 -179.107273 
L 236.374676 -179.793877 
L 236.374676 -180.480481 
L 236.374676 -181.167084 
L 236.374676 -181.853688 
L 236.374676 -182.540291 
L 236.374676 -183.226895 
L 236.374676 -183.913498 
L 236.374676 -184.600102 
L 236.374676 -185.286706 
L 236.374676 -185.973309 
L 236.374676 -186.659913 
L 236.374676 -187.346516 
L 236.374676 -188.03312 
L 236.374676 -188.719723 
L 236.374676 -189.406327 
L 236.374676 -190.092931 
L 236.374676 -190.779534 
L 236.374676 -191.466138 
L 236.374676 -192.152741 
L 236.374676 -192.839345 
L 236.374676 -193.525948 
L 236.374676 -194.212552 
L 236.374676 -194.899156 
L 236.374676 -195.585759 
L 236.374676 -196.272363 
L 236.374676 -196.958966 
L 236.374676 -197.64557 
L 236.374676 -198.332173 
L 236.374676 -199.018777 
L 236.374676 -199.705381 
L 236.374676 -200.391984 
L 236.374676 -201.078588 
L 236.374676 -201.765191 
L 236.374676 -202.451795 
L 236.374676 -203.138398 
L 236.374676 -203.825002 
L 236.374676 -204.511606 
L 236.374676 -205.198209 
L 236.374676 -205.884813 
L 236.374676 -206.571416 
L 236.374676 -207.25802 
L 236.374676 -207.944624 
L 236.374676 -208.631227 
L 236.374676 -209.317831 
L 236.374676 -210.004434 
L 236.374676 -210.691038 
L 236.374676 -211.377641 
L 236.374676 -212.064245 
L 236.374676 -212.750849 
L 236.374676 -213.437452 
L 236.374676 -214.124056 
L 236.374676 -214.810659 
L 236.374676 -215.497263 
L 236.374676 -216.183866 
L 236.374676 -216.87047 
L 236.374676 -217.557074 
L 236.374676 -218.243677 
L 236.374676 -218.930281 
L 236.374676 -219.616884 
L 236.374676 -220.303488 
L 236.374676 -220.990091 
L 236.374676 -221.676695 
L 236.374676 -222.363299 
L 236.374676 -223.049902 
L 236.374676 -223.736506 
L 236.374676 -224.423109 
L 236.374676 -225.109713 
L 236.374676 -225.796316 
L 236.374676 -226.48292 
L 236.374676 -227.169524 
L 236.374676 -227.856127 
L 236.374676 -228.542731 
L 236.391619 -228.542731 
L 236.391619 -228.542731 
L 236.394141 -227.856127 
L 236.396732 -227.169524 
L 236.399922 -226.48292 
L 236.4031 -225.796316 
L 236.40527 -225.109713 
L 236.406962 -224.423109 
L 236.411177 -223.736506 
L 236.421904 -223.049902 
L 236.441252 -222.363299 
L 236.467922 -221.676695 
L 236.49866 -220.990091 
L 236.531233 -220.303488 
L 236.565948 -219.616884 
L 236.604798 -218.930281 
L 236.650393 -218.243677 
L 236.706326 -217.557074 
L 236.777536 -216.87047 
L 236.86856 -216.183866 
L 236.980856 -215.497263 
L 237.112727 -214.810659 
L 237.262877 -214.124056 
L 237.434377 -213.437452 
L 237.635276 -212.750849 
L 237.875559 -212.064245 
L 238.162595 -211.377641 
L 238.49636 -210.691038 
L 238.865777 -210.004434 
L 239.250666 -209.317831 
L 239.633194 -208.631227 
L 240.012812 -207.944624 
L 240.410478 -207.25802 
L 240.855914 -206.571416 
L 241.368706 -205.884813 
L 241.948848 -205.198209 
L 242.579858 -204.511606 
L 243.236735 -203.825002 
L 243.893765 -203.138398 
L 244.53195 -202.451795 
L 245.143345 -201.765191 
L 245.728623 -201.078588 
L 246.289818 -200.391984 
L 246.82259 -199.705381 
L 247.310321 -199.018777 
L 247.724276 -198.332173 
L 248.034276 -197.64557 
L 248.224908 -196.958966 
L 248.306146 -196.272363 
L 248.314211 -195.585759 
L 248.304307 -194.899156 
L 248.333684 -194.212552 
L 248.435183 -193.525948 
L 248.592926 -192.839345 
L 248.738168 -192.152741 
L 248.774375 -191.466138 
L 248.622158 -190.779534 
L 248.258536 -190.092931 
L 247.724413 -189.406327 
L 247.095794 -188.719723 
L 246.441317 -188.03312 
L 245.794795 -187.346516 
L 245.155544 -186.659913 
L 244.510314 -185.973309 
L 243.857923 -185.286706 
L 243.216934 -184.600102 
L 242.612506 -183.913498 
L 242.057473 -183.226895 
L 241.54437 -182.540291 
L 241.052692 -181.853688 
L 240.565001 -181.167084 
L 240.080477 -180.480481 
L 239.615214 -179.793877 
L 239.189031 -179.107273 
L 238.81211 -178.42067 
L 238.483592 -177.734066 
L 238.198474 -177.047463 
L 237.951072 -176.360859 
L 237.733186 -175.674256 
L 237.534834 -174.987652 
L 237.349902 -174.301048 
L 237.180233 -173.614445 
L 237.033516 -172.927841 
L 236.917089 -172.241238 
L 236.832104 -171.554634 
L 236.771824 -170.868031 
L 236.725419 -170.181427 
L 236.684001 -169.494823 
L 236.643764 -168.80822 
L 236.605094 -168.121616 
L 236.57018 -167.435013 
L 236.54069 -166.748409 
L 236.516038 -166.061806 
L 236.493604 -165.375202 
L 236.471208 -164.688598 
L 236.449297 -164.001995 
L 236.430373 -163.315391 
L 236.416465 -162.628788 
L 236.407449 -161.942184 
L 236.401444 -161.255581 
L 236.396335 -160.568977 
z
"/>
    </defs>
    <g clip-path="url(#p8a096bff10)">
     <use xlink:href="#mc9a6d8bee0" x="0" y="291.6" style="fill: #ff4500; fill-opacity: 0.4"/>
    </g>
   </g>
   <g id="PolyCollection_7">
    <defs>
     <path id="m8dab9d8469" d="M 286.000673 -152.1 
L 285.974751 -152.1 
L 285.974751 -152.852241 
L 285.974751 -153.604482 
L 285.974751 -154.356723 
L 285.974751 -155.108964 
L 285.974751 -155.861205 
L 285.974751 -156.613446 
L 285.974751 -157.365687 
L 285.974751 -158.117928 
L 285.974751 -158.870169 
L 285.974751 -159.62241 
L 285.974751 -160.374651 
L 285.974751 -161.126892 
L 285.974751 -161.879133 
L 285.974751 -162.631374 
L 285.974751 -163.383615 
L 285.974751 -164.135856 
L 285.974751 -164.888097 
L 285.974751 -165.640338 
L 285.974751 -166.392579 
L 285.974751 -167.14482 
L 285.974751 -167.897061 
L 285.974751 -168.649302 
L 285.974751 -169.401543 
L 285.974751 -170.153784 
L 285.974751 -170.906025 
L 285.974751 -171.658266 
L 285.974751 -172.410507 
L 285.974751 -173.162748 
L 285.974751 -173.914989 
L 285.974751 -174.66723 
L 285.974751 -175.419471 
L 285.974751 -176.171712 
L 285.974751 -176.923953 
L 285.974751 -177.676194 
L 285.974751 -178.428435 
L 285.974751 -179.180676 
L 285.974751 -179.932917 
L 285.974751 -180.685158 
L 285.974751 -181.437399 
L 285.974751 -182.18964 
L 285.974751 -182.941881 
L 285.974751 -183.694122 
L 285.974751 -184.446363 
L 285.974751 -185.198604 
L 285.974751 -185.950845 
L 285.974751 -186.703086 
L 285.974751 -187.455327 
L 285.974751 -188.207568 
L 285.974751 -188.959809 
L 285.974751 -189.71205 
L 285.974751 -190.464291 
L 285.974751 -191.216532 
L 285.974751 -191.968773 
L 285.974751 -192.721014 
L 285.974751 -193.473254 
L 285.974751 -194.225495 
L 285.974751 -194.977736 
L 285.974751 -195.729977 
L 285.974751 -196.482218 
L 285.974751 -197.234459 
L 285.974751 -197.9867 
L 285.974751 -198.738941 
L 285.974751 -199.491182 
L 285.974751 -200.243423 
L 285.974751 -200.995664 
L 285.974751 -201.747905 
L 285.974751 -202.500146 
L 285.974751 -203.252387 
L 285.974751 -204.004628 
L 285.974751 -204.756869 
L 285.974751 -205.50911 
L 285.974751 -206.261351 
L 285.974751 -207.013592 
L 285.974751 -207.765833 
L 285.974751 -208.518074 
L 285.974751 -209.270315 
L 285.974751 -210.022556 
L 285.974751 -210.774797 
L 285.974751 -211.527038 
L 285.974751 -212.279279 
L 285.974751 -213.03152 
L 285.974751 -213.783761 
L 285.974751 -214.536002 
L 285.974751 -215.288243 
L 285.974751 -216.040484 
L 285.974751 -216.792725 
L 285.974751 -217.544966 
L 285.974751 -218.297207 
L 285.974751 -219.049448 
L 285.974751 -219.801689 
L 285.974751 -220.55393 
L 285.974751 -221.306171 
L 285.974751 -222.058412 
L 285.974751 -222.810653 
L 285.974751 -223.562894 
L 285.974751 -224.315135 
L 285.974751 -225.067376 
L 285.974751 -225.819617 
L 285.974751 -226.571858 
L 285.998095 -226.571858 
L 285.998095 -226.571858 
L 286.006727 -225.819617 
L 286.018874 -225.067376 
L 286.035905 -224.315135 
L 286.058416 -223.562894 
L 286.085902 -222.810653 
L 286.116896 -222.058412 
L 286.149655 -221.306171 
L 286.183566 -220.55393 
L 286.220736 -219.801689 
L 286.266506 -219.049448 
L 286.327934 -218.297207 
L 286.410918 -217.544966 
L 286.517775 -216.792725 
L 286.646704 -216.040484 
L 286.793113 -215.288243 
L 286.951705 -214.536002 
L 287.118276 -213.783761 
L 287.290705 -213.03152 
L 287.469047 -212.279279 
L 287.654977 -211.527038 
L 287.851171 -210.774797 
L 288.060891 -210.022556 
L 288.287375 -209.270315 
L 288.533086 -208.518074 
L 288.800238 -207.765833 
L 289.093616 -207.013592 
L 289.423569 -206.261351 
L 289.805428 -205.50911 
L 290.254324 -204.756869 
L 290.77788 -204.004628 
L 291.369672 -203.252387 
L 292.005636 -202.500146 
L 292.646973 -201.747905 
L 293.252704 -200.995664 
L 293.797918 -200.243423 
L 294.285353 -199.491182 
L 294.739696 -198.738941 
L 295.187487 -197.9867 
L 295.638406 -197.234459 
L 296.082842 -196.482218 
L 296.505835 -195.729977 
L 296.901891 -194.977736 
L 297.274707 -194.225495 
L 297.622727 -193.473254 
L 297.9282 -192.721014 
L 298.16388 -191.968773 
L 298.311561 -191.216532 
L 298.374375 -190.464291 
L 298.372784 -189.71205 
L 298.329124 -188.959809 
L 298.251256 -188.207568 
L 298.123555 -187.455327 
L 297.91138 -186.703086 
L 297.580688 -185.950845 
L 297.122839 -185.198604 
L 296.565659 -184.446363 
L 295.960222 -183.694122 
L 295.354279 -182.941881 
L 294.774622 -182.18964 
L 294.228646 -181.437399 
L 293.715281 -180.685158 
L 293.231047 -179.932917 
L 292.769301 -179.180676 
L 292.320239 -178.428435 
L 291.875313 -177.676194 
L 291.431852 -176.923953 
L 290.992911 -176.171712 
L 290.563015 -175.419471 
L 290.144657 -174.66723 
L 289.739157 -173.914989 
L 289.350452 -173.162748 
L 288.986884 -172.410507 
L 288.657721 -171.658266 
L 288.366707 -170.906025 
L 288.108556 -170.153784 
L 287.872146 -169.401543 
L 287.647938 -168.649302 
L 287.433376 -167.897061 
L 287.232268 -167.14482 
L 287.0497 -166.392579 
L 286.887362 -165.640338 
L 286.743042 -164.888097 
L 286.614084 -164.135856 
L 286.501143 -163.383615 
L 286.408309 -162.631374 
L 286.339132 -161.879133 
L 286.292144 -161.126892 
L 286.260028 -160.374651 
L 286.233197 -159.62241 
L 286.204693 -158.870169 
L 286.172666 -158.117928 
L 286.139278 -157.365687 
L 286.10775 -156.613446 
L 286.080125 -155.861205 
L 286.056883 -155.108964 
L 286.037734 -154.356723 
L 286.022304 -153.604482 
L 286.010166 -152.852241 
L 286.000673 -152.1 
z
"/>
    </defs>
    <g clip-path="url(#p8a096bff10)">
     <use xlink:href="#m8dab9d8469" x="0" y="291.6" style="fill: #ff4500; fill-opacity: 0.4"/>
    </g>
   </g>
   <g id="PolyCollection_8">
    <defs>
     <path id="m0ac39d899b" d="M 335.59505 -178.973029 
L 335.574773 -178.973029 
L 335.574773 -179.425328 
L 335.574773 -179.877628 
L 335.574773 -180.329927 
L 335.574773 -180.782227 
L 335.574773 -181.234526 
L 335.574773 -181.686826 
L 335.574773 -182.139125 
L 335.574773 -182.591425 
L 335.574773 -183.043724 
L 335.574773 -183.496024 
L 335.574773 -183.948323 
L 335.574773 -184.400623 
L 335.574773 -184.852922 
L 335.574773 -185.305222 
L 335.574773 -185.757521 
L 335.574773 -186.209821 
L 335.574773 -186.66212 
L 335.574773 -187.114419 
L 335.574773 -187.566719 
L 335.574773 -188.019018 
L 335.574773 -188.471318 
L 335.574773 -188.923617 
L 335.574773 -189.375917 
L 335.574773 -189.828216 
L 335.574773 -190.280516 
L 335.574773 -190.732815 
L 335.574773 -191.185115 
L 335.574773 -191.637414 
L 335.574773 -192.089714 
L 335.574773 -192.542013 
L 335.574773 -192.994313 
L 335.574773 -193.446612 
L 335.574773 -193.898912 
L 335.574773 -194.351211 
L 335.574773 -194.803511 
L 335.574773 -195.25581 
L 335.574773 -195.70811 
L 335.574773 -196.160409 
L 335.574773 -196.612709 
L 335.574773 -197.065008 
L 335.574773 -197.517308 
L 335.574773 -197.969607 
L 335.574773 -198.421907 
L 335.574773 -198.874206 
L 335.574773 -199.326506 
L 335.574773 -199.778805 
L 335.574773 -200.231105 
L 335.574773 -200.683404 
L 335.574773 -201.135703 
L 335.574773 -201.588003 
L 335.574773 -202.040302 
L 335.574773 -202.492602 
L 335.574773 -202.944901 
L 335.574773 -203.397201 
L 335.574773 -203.8495 
L 335.574773 -204.3018 
L 335.574773 -204.754099 
L 335.574773 -205.206399 
L 335.574773 -205.658698 
L 335.574773 -206.110998 
L 335.574773 -206.563297 
L 335.574773 -207.015597 
L 335.574773 -207.467896 
L 335.574773 -207.920196 
L 335.574773 -208.372495 
L 335.574773 -208.824795 
L 335.574773 -209.277094 
L 335.574773 -209.729394 
L 335.574773 -210.181693 
L 335.574773 -210.633993 
L 335.574773 -211.086292 
L 335.574773 -211.538592 
L 335.574773 -211.990891 
L 335.574773 -212.443191 
L 335.574773 -212.89549 
L 335.574773 -213.34779 
L 335.574773 -213.800089 
L 335.574773 -214.252388 
L 335.574773 -214.704688 
L 335.574773 -215.156987 
L 335.574773 -215.609287 
L 335.574773 -216.061586 
L 335.574773 -216.513886 
L 335.574773 -216.966185 
L 335.574773 -217.418485 
L 335.574773 -217.870784 
L 335.574773 -218.323084 
L 335.574773 -218.775383 
L 335.574773 -219.227683 
L 335.574773 -219.679982 
L 335.574773 -220.132282 
L 335.574773 -220.584581 
L 335.574773 -221.036881 
L 335.574773 -221.48918 
L 335.574773 -221.94148 
L 335.574773 -222.393779 
L 335.574773 -222.846079 
L 335.574773 -223.298378 
L 335.574773 -223.750678 
L 335.613851 -223.750678 
L 335.613851 -223.750678 
L 335.63203 -223.298378 
L 335.654744 -222.846079 
L 335.680028 -222.393779 
L 335.70413 -221.94148 
L 335.723326 -221.48918 
L 335.736671 -221.036881 
L 335.747642 -220.584581 
L 335.763193 -220.132282 
L 335.790852 -219.679982 
L 335.836118 -219.227683 
L 335.901842 -218.775383 
L 335.989062 -218.323084 
L 336.097448 -217.870784 
L 336.224631 -217.418485 
L 336.365976 -216.966185 
L 336.516622 -216.513886 
L 336.675011 -216.061586 
L 336.844373 -215.609287 
L 337.029887 -215.156987 
L 337.234393 -214.704688 
L 337.458104 -214.252388 
L 337.703327 -213.800089 
L 337.978478 -213.34779 
L 338.295903 -212.89549 
L 338.665022 -212.443191 
L 339.08721 -211.990891 
L 339.556236 -211.538592 
L 340.062671 -211.086292 
L 340.598175 -210.633993 
L 341.156296 -210.181693 
L 341.729 -209.729394 
L 342.302053 -209.277094 
L 342.855469 -208.824795 
L 343.372744 -208.372495 
L 343.853931 -207.920196 
L 344.320453 -207.467896 
L 344.803457 -207.015597 
L 345.320977 -206.563297 
L 345.859777 -206.110998 
L 346.37565 -205.658698 
L 346.813576 -205.206399 
L 347.135911 -204.754099 
L 347.34123 -204.3018 
L 347.462231 -203.8495 
L 347.5454 -203.397201 
L 347.627308 -202.944901 
L 347.722207 -202.492602 
L 347.823892 -202.040302 
L 347.914288 -201.588003 
L 347.97126 -201.135703 
L 347.974375 -200.683404 
L 347.909627 -200.231105 
L 347.771911 -199.778805 
L 347.563972 -199.326506 
L 347.294109 -198.874206 
L 346.975655 -198.421907 
L 346.626756 -197.969607 
L 346.265866 -197.517308 
L 345.902645 -197.065008 
L 345.530836 -196.612709 
L 345.130049 -196.160409 
L 344.676043 -195.70811 
L 344.152784 -195.25581 
L 343.559963 -194.803511 
L 342.913971 -194.351211 
L 342.243386 -193.898912 
L 341.581613 -193.446612 
L 340.959891 -192.994313 
L 340.402179 -192.542013 
L 339.920595 -192.089714 
L 339.511065 -191.637414 
L 339.153367 -191.185115 
L 338.819811 -190.732815 
L 338.489027 -190.280516 
L 338.154827 -189.828216 
L 337.824342 -189.375917 
L 337.509798 -188.923617 
L 337.22187 -188.471318 
L 336.967356 -188.019018 
L 336.748709 -187.566719 
L 336.563724 -187.114419 
L 336.406526 -186.66212 
L 336.270692 -186.209821 
L 336.152647 -185.757521 
L 336.052465 -185.305222 
L 335.971526 -184.852922 
L 335.909381 -184.400623 
L 335.862491 -183.948323 
L 335.825328 -183.496024 
L 335.792452 -183.043724 
L 335.760162 -182.591425 
L 335.727219 -182.139125 
L 335.694634 -181.686826 
L 335.664711 -181.234526 
L 335.639761 -180.782227 
L 335.621081 -180.329927 
L 335.608484 -179.877628 
L 335.600491 -179.425328 
L 335.59505 -178.973029 
z
"/>
    </defs>
    <g clip-path="url(#p8a096bff10)">
     <use xlink:href="#m0ac39d899b" x="0" y="291.6" style="fill: #ff4500; fill-opacity: 0.4"/>
    </g>
   </g>
   <g id="PolyCollection_9">
    <defs>
     <path id="m5c29981ba1" d="M 385.18805 -210.549716 
L 385.174744 -210.549716 
L 385.174744 -211.074603 
L 385.174744 -211.59949 
L 385.174744 -212.124378 
L 385.174744 -212.649265 
L 385.174744 -213.174152 
L 385.174744 -213.699039 
L 385.174744 -214.223927 
L 385.174744 -214.748814 
L 385.174744 -215.273701 
L 385.174744 -215.798588 
L 385.174744 -216.323476 
L 385.174744 -216.848363 
L 385.174744 -217.37325 
L 385.174744 -217.898137 
L 385.174744 -218.423025 
L 385.174744 -218.947912 
L 385.174744 -219.472799 
L 385.174744 -219.997686 
L 385.174744 -220.522573 
L 385.174744 -221.047461 
L 385.174744 -221.572348 
L 385.174744 -222.097235 
L 385.174744 -222.622122 
L 385.174744 -223.14701 
L 385.174744 -223.671897 
L 385.174744 -224.196784 
L 385.174744 -224.721671 
L 385.174744 -225.246559 
L 385.174744 -225.771446 
L 385.174744 -226.296333 
L 385.174744 -226.82122 
L 385.174744 -227.346108 
L 385.174744 -227.870995 
L 385.174744 -228.395882 
L 385.174744 -228.920769 
L 385.174744 -229.445657 
L 385.174744 -229.970544 
L 385.174744 -230.495431 
L 385.174744 -231.020318 
L 385.174744 -231.545205 
L 385.174744 -232.070093 
L 385.174744 -232.59498 
L 385.174744 -233.119867 
L 385.174744 -233.644754 
L 385.174744 -234.169642 
L 385.174744 -234.694529 
L 385.174744 -235.219416 
L 385.174744 -235.744303 
L 385.174744 -236.269191 
L 385.174744 -236.794078 
L 385.174744 -237.318965 
L 385.174744 -237.843852 
L 385.174744 -238.36874 
L 385.174744 -238.893627 
L 385.174744 -239.418514 
L 385.174744 -239.943401 
L 385.174744 -240.468289 
L 385.174744 -240.993176 
L 385.174744 -241.518063 
L 385.174744 -242.04295 
L 385.174744 -242.567837 
L 385.174744 -243.092725 
L 385.174744 -243.617612 
L 385.174744 -244.142499 
L 385.174744 -244.667386 
L 385.174744 -245.192274 
L 385.174744 -245.717161 
L 385.174744 -246.242048 
L 385.174744 -246.766935 
L 385.174744 -247.291823 
L 385.174744 -247.81671 
L 385.174744 -248.341597 
L 385.174744 -248.866484 
L 385.174744 -249.391372 
L 385.174744 -249.916259 
L 385.174744 -250.441146 
L 385.174744 -250.966033 
L 385.174744 -251.490921 
L 385.174744 -252.015808 
L 385.174744 -252.540695 
L 385.174744 -253.065582 
L 385.174744 -253.59047 
L 385.174744 -254.115357 
L 385.174744 -254.640244 
L 385.174744 -255.165131 
L 385.174744 -255.690018 
L 385.174744 -256.214906 
L 385.174744 -256.739793 
L 385.174744 -257.26468 
L 385.174744 -257.789567 
L 385.174744 -258.314455 
L 385.174744 -258.839342 
L 385.174744 -259.364229 
L 385.174744 -259.889116 
L 385.174744 -260.414004 
L 385.174744 -260.938891 
L 385.174744 -261.463778 
L 385.174744 -261.988665 
L 385.174744 -262.513553 
L 385.222029 -262.513553 
L 385.222029 -262.513553 
L 385.238787 -261.988665 
L 385.253472 -261.463778 
L 385.263606 -260.938891 
L 385.268559 -260.414004 
L 385.270096 -259.889116 
L 385.272006 -259.364229 
L 385.279109 -258.839342 
L 385.295823 -258.314455 
L 385.324622 -257.789567 
L 385.365504 -257.26468 
L 385.417372 -256.739793 
L 385.480371 -256.214906 
L 385.557011 -255.690018 
L 385.65099 -255.165131 
L 385.764927 -254.640244 
L 385.89891 -254.115357 
L 386.050584 -253.59047 
L 386.216418 -253.065582 
L 386.393343 -252.540695 
L 386.580056 -252.015808 
L 386.7782 -251.490921 
L 386.994408 -250.966033 
L 387.242112 -250.441146 
L 387.538743 -249.916259 
L 387.896671 -249.391372 
L 388.31519 -248.866484 
L 388.783223 -248.341597 
L 389.290802 -247.81671 
L 389.83595 -247.291823 
L 390.419205 -246.766935 
L 391.033108 -246.242048 
L 391.658102 -245.717161 
L 392.266854 -245.192274 
L 392.8311 -244.667386 
L 393.327703 -244.142499 
L 393.746261 -243.617612 
L 394.098698 -243.092725 
L 394.422954 -242.567837 
L 394.771355 -242.04295 
L 395.185472 -241.518063 
L 395.671998 -240.993176 
L 396.194969 -240.468289 
L 396.68953 -239.943401 
L 397.090972 -239.418514 
L 397.364222 -238.893627 
L 397.515259 -238.36874 
L 397.574375 -237.843852 
L 397.563763 -237.318965 
L 397.47845 -236.794078 
L 397.296785 -236.269191 
L 397.006087 -235.744303 
L 396.618136 -235.219416 
L 396.166992 -234.694529 
L 395.697753 -234.169642 
L 395.251609 -233.644754 
L 394.848498 -233.119867 
L 394.477276 -232.59498 
L 394.105722 -232.070093 
L 393.704873 -231.545205 
L 393.265816 -231.020318 
L 392.796414 -230.495431 
L 392.307602 -229.970544 
L 391.805158 -229.445657 
L 391.290379 -228.920769 
L 390.762947 -228.395882 
L 390.222563 -227.870995 
L 389.672811 -227.346108 
L 389.128207 -226.82122 
L 388.616106 -226.296333 
L 388.165316 -225.771446 
L 387.787868 -225.246559 
L 387.471395 -224.721671 
L 387.190352 -224.196784 
L 386.925462 -223.671897 
L 386.674239 -223.14701 
L 386.446138 -222.622122 
L 386.250023 -222.097235 
L 386.086141 -221.572348 
L 385.947793 -221.047461 
L 385.828109 -220.522573 
L 385.724381 -219.997686 
L 385.637045 -219.472799 
L 385.566101 -218.947912 
L 385.509078 -218.423025 
L 385.461983 -217.898137 
L 385.42131 -217.37325 
L 385.384664 -216.848363 
L 385.35003 -216.323476 
L 385.315633 -215.798588 
L 385.281077 -215.273701 
L 385.248216 -214.748814 
L 385.2203 -214.223927 
L 385.199955 -213.699039 
L 385.187818 -213.174152 
L 385.182661 -212.649265 
L 385.182345 -212.124378 
L 385.184537 -211.59949 
L 385.18702 -211.074603 
L 385.18805 -210.549716 
z
"/>
    </defs>
    <g clip-path="url(#p8a096bff10)">
     <use xlink:href="#m5c29981ba1" x="0" y="291.6" style="fill: #2e8b57; fill-opacity: 0.4"/>
    </g>
   </g>
   <g id="PolyCollection_10">
    <defs>
     <path id="mc4f153450e" d="M 434.822334 -220.612929 
L 434.77504 -220.612929 
L 434.77504 -221.043395 
L 434.77504 -221.47386 
L 434.77504 -221.904325 
L 434.77504 -222.33479 
L 434.77504 -222.765255 
L 434.77504 -223.19572 
L 434.77504 -223.626185 
L 434.77504 -224.05665 
L 434.77504 -224.487116 
L 434.77504 -224.917581 
L 434.77504 -225.348046 
L 434.77504 -225.778511 
L 434.77504 -226.208976 
L 434.77504 -226.639441 
L 434.77504 -227.069906 
L 434.77504 -227.500372 
L 434.77504 -227.930837 
L 434.77504 -228.361302 
L 434.77504 -228.791767 
L 434.77504 -229.222232 
L 434.77504 -229.652697 
L 434.77504 -230.083162 
L 434.77504 -230.513627 
L 434.77504 -230.944093 
L 434.77504 -231.374558 
L 434.77504 -231.805023 
L 434.77504 -232.235488 
L 434.77504 -232.665953 
L 434.77504 -233.096418 
L 434.77504 -233.526883 
L 434.77504 -233.957349 
L 434.77504 -234.387814 
L 434.77504 -234.818279 
L 434.77504 -235.248744 
L 434.77504 -235.679209 
L 434.77504 -236.109674 
L 434.77504 -236.540139 
L 434.77504 -236.970604 
L 434.77504 -237.40107 
L 434.77504 -237.831535 
L 434.77504 -238.262 
L 434.77504 -238.692465 
L 434.77504 -239.12293 
L 434.77504 -239.553395 
L 434.77504 -239.98386 
L 434.77504 -240.414326 
L 434.77504 -240.844791 
L 434.77504 -241.275256 
L 434.77504 -241.705721 
L 434.77504 -242.136186 
L 434.77504 -242.566651 
L 434.77504 -242.997116 
L 434.77504 -243.427581 
L 434.77504 -243.858047 
L 434.77504 -244.288512 
L 434.77504 -244.718977 
L 434.77504 -245.149442 
L 434.77504 -245.579907 
L 434.77504 -246.010372 
L 434.77504 -246.440837 
L 434.77504 -246.871303 
L 434.77504 -247.301768 
L 434.77504 -247.732233 
L 434.77504 -248.162698 
L 434.77504 -248.593163 
L 434.77504 -249.023628 
L 434.77504 -249.454093 
L 434.77504 -249.884558 
L 434.77504 -250.315024 
L 434.77504 -250.745489 
L 434.77504 -251.175954 
L 434.77504 -251.606419 
L 434.77504 -252.036884 
L 434.77504 -252.467349 
L 434.77504 -252.897814 
L 434.77504 -253.32828 
L 434.77504 -253.758745 
L 434.77504 -254.18921 
L 434.77504 -254.619675 
L 434.77504 -255.05014 
L 434.77504 -255.480605 
L 434.77504 -255.91107 
L 434.77504 -256.341535 
L 434.77504 -256.772001 
L 434.77504 -257.202466 
L 434.77504 -257.632931 
L 434.77504 -258.063396 
L 434.77504 -258.493861 
L 434.77504 -258.924326 
L 434.77504 -259.354791 
L 434.77504 -259.785257 
L 434.77504 -260.215722 
L 434.77504 -260.646187 
L 434.77504 -261.076652 
L 434.77504 -261.507117 
L 434.77504 -261.937582 
L 434.77504 -262.368047 
L 434.77504 -262.798512 
L 434.77504 -263.228978 
L 434.813386 -263.228978 
L 434.813386 -263.228978 
L 434.832764 -262.798512 
L 434.858191 -262.368047 
L 434.88837 -261.937582 
L 434.920276 -261.507117 
L 434.950637 -261.076652 
L 434.977978 -260.646187 
L 435.003413 -260.215722 
L 435.029177 -259.785257 
L 435.056109 -259.354791 
L 435.082808 -258.924326 
L 435.107879 -258.493861 
L 435.133462 -258.063396 
L 435.166471 -257.632931 
L 435.215859 -257.202466 
L 435.2879 -256.772001 
L 435.38322 -256.341535 
L 435.497634 -255.91107 
L 435.625806 -255.480605 
L 435.764996 -255.05014 
L 435.916773 -254.619675 
L 436.086183 -254.18921 
L 436.27885 -253.758745 
L 436.496925 -253.32828 
L 436.736124 -252.897814 
L 436.987425 -252.467349 
L 437.244792 -252.036884 
L 437.513796 -251.606419 
L 437.811666 -251.175954 
L 438.154726 -250.745489 
L 438.541637 -250.315024 
L 438.947795 -249.884558 
L 439.338782 -249.454093 
L 439.694566 -249.023628 
L 440.025855 -248.593163 
L 440.369001 -248.162698 
L 440.762113 -247.732233 
L 441.219332 -247.301768 
L 441.721227 -246.871303 
L 442.226562 -246.440837 
L 442.695667 -246.010372 
L 443.110102 -245.579907 
L 443.479275 -245.149442 
L 443.834068 -244.718977 
L 444.212826 -244.288512 
L 444.645224 -243.858047 
L 445.138409 -243.427581 
L 445.669677 -242.997116 
L 446.189867 -242.566651 
L 446.638336 -242.136186 
L 446.96381 -241.705721 
L 447.140865 -241.275256 
L 447.174375 -240.844791 
L 447.092073 -240.414326 
L 446.931389 -239.98386 
L 446.72703 -239.553395 
L 446.502616 -239.12293 
L 446.266931 -238.692465 
L 446.014297 -238.262 
L 445.728741 -237.831535 
L 445.391842 -237.40107 
L 444.993 -236.970604 
L 444.537737 -236.540139 
L 444.048095 -236.109674 
L 443.55298 -235.679209 
L 443.074284 -235.248744 
L 442.618991 -234.818279 
L 442.182758 -234.387814 
L 441.760116 -233.957349 
L 441.350922 -233.526883 
L 440.95783 -233.096418 
L 440.579496 -232.665953 
L 440.207844 -232.235488 
L 439.831772 -231.805023 
L 439.44248 -231.374558 
L 439.035775 -230.944093 
L 438.612101 -230.513627 
L 438.177223 -230.083162 
L 437.743469 -229.652697 
L 437.32864 -229.222232 
L 436.951365 -228.791767 
L 436.625153 -228.361302 
L 436.354521 -227.930837 
L 436.13492 -227.500372 
L 435.955781 -227.069906 
L 435.804707 -226.639441 
L 435.671015 -226.208976 
L 435.547742 -225.778511 
L 435.432118 -225.348046 
L 435.3248 -224.917581 
L 435.228156 -224.487116 
L 435.144211 -224.05665 
L 435.073234 -223.626185 
L 435.013774 -223.19572 
L 434.963881 -222.765255 
L 434.922243 -222.33479 
L 434.888234 -221.904325 
L 434.861146 -221.47386 
L 434.83969 -221.043395 
L 434.822334 -220.612929 
z
"/>
    </defs>
    <g clip-path="url(#p8a096bff10)">
     <use xlink:href="#mc4f153450e" x="0" y="291.6" style="fill: #2e8b57; fill-opacity: 0.4"/>
    </g>
   </g>
   <g id="PolyCollection_11">
    <defs>
     <path id="maeb743dd8d" d="M 484.391565 -215.719426 
L 484.374627 -215.719426 
L 484.374627 -216.207238 
L 484.374627 -216.69505 
L 484.374627 -217.182862 
L 484.374627 -217.670674 
L 484.374627 -218.158486 
L 484.374627 -218.646298 
L 484.374627 -219.13411 
L 484.374627 -219.621922 
L 484.374627 -220.109734 
L 484.374627 -220.597546 
L 484.374627 -221.085358 
L 484.374627 -221.573169 
L 484.374627 -222.060981 
L 484.374627 -222.548793 
L 484.374627 -223.036605 
L 484.374627 -223.524417 
L 484.374627 -224.012229 
L 484.374627 -224.500041 
L 484.374627 -224.987853 
L 484.374627 -225.475665 
L 484.374627 -225.963477 
L 484.374627 -226.451289 
L 484.374627 -226.939101 
L 484.374627 -227.426913 
L 484.374627 -227.914725 
L 484.374627 -228.402537 
L 484.374627 -228.890349 
L 484.374627 -229.378161 
L 484.374627 -229.865973 
L 484.374627 -230.353785 
L 484.374627 -230.841597 
L 484.374627 -231.329409 
L 484.374627 -231.817221 
L 484.374627 -232.305033 
L 484.374627 -232.792845 
L 484.374627 -233.280657 
L 484.374627 -233.768469 
L 484.374627 -234.256281 
L 484.374627 -234.744092 
L 484.374627 -235.231904 
L 484.374627 -235.719716 
L 484.374627 -236.207528 
L 484.374627 -236.69534 
L 484.374627 -237.183152 
L 484.374627 -237.670964 
L 484.374627 -238.158776 
L 484.374627 -238.646588 
L 484.374627 -239.1344 
L 484.374627 -239.622212 
L 484.374627 -240.110024 
L 484.374627 -240.597836 
L 484.374627 -241.085648 
L 484.374627 -241.57346 
L 484.374627 -242.061272 
L 484.374627 -242.549084 
L 484.374627 -243.036896 
L 484.374627 -243.524708 
L 484.374627 -244.01252 
L 484.374627 -244.500332 
L 484.374627 -244.988144 
L 484.374627 -245.475956 
L 484.374627 -245.963768 
L 484.374627 -246.45158 
L 484.374627 -246.939392 
L 484.374627 -247.427204 
L 484.374627 -247.915015 
L 484.374627 -248.402827 
L 484.374627 -248.890639 
L 484.374627 -249.378451 
L 484.374627 -249.866263 
L 484.374627 -250.354075 
L 484.374627 -250.841887 
L 484.374627 -251.329699 
L 484.374627 -251.817511 
L 484.374627 -252.305323 
L 484.374627 -252.793135 
L 484.374627 -253.280947 
L 484.374627 -253.768759 
L 484.374627 -254.256571 
L 484.374627 -254.744383 
L 484.374627 -255.232195 
L 484.374627 -255.720007 
L 484.374627 -256.207819 
L 484.374627 -256.695631 
L 484.374627 -257.183443 
L 484.374627 -257.671255 
L 484.374627 -258.159067 
L 484.374627 -258.646879 
L 484.374627 -259.134691 
L 484.374627 -259.622503 
L 484.374627 -260.110315 
L 484.374627 -260.598127 
L 484.374627 -261.085938 
L 484.374627 -261.57375 
L 484.374627 -262.061562 
L 484.374627 -262.549374 
L 484.374627 -263.037186 
L 484.374627 -263.524998 
L 484.374627 -264.01281 
L 484.391206 -264.01281 
L 484.391206 -264.01281 
L 484.392975 -263.524998 
L 484.393569 -263.037186 
L 484.39326 -262.549374 
L 484.392368 -262.061562 
L 484.391736 -261.57375 
L 484.393065 -261.085938 
L 484.39822 -260.598127 
L 484.407819 -260.110315 
L 484.420528 -259.622503 
L 484.434148 -259.134691 
L 484.447933 -258.646879 
L 484.464326 -258.159067 
L 484.488592 -257.671255 
L 484.526228 -257.183443 
L 484.579459 -256.695631 
L 484.645167 -256.207819 
L 484.716426 -255.720007 
L 484.78729 -255.232195 
L 484.857169 -254.744383 
L 484.931063 -254.256571 
L 485.015946 -253.768759 
L 485.117117 -253.280947 
L 485.237489 -252.793135 
L 485.379285 -252.305323 
L 485.545945 -251.817511 
L 485.742937 -251.329699 
L 485.977273 -250.841887 
L 486.255271 -250.354075 
L 486.578063 -249.866263 
L 486.936873 -249.378451 
L 487.313106 -248.890639 
L 487.686207 -248.402827 
L 488.045297 -247.915015 
L 488.397042 -247.427204 
L 488.765092 -246.939392 
L 489.179701 -246.45158 
L 489.659092 -245.963768 
L 490.192249 -245.475956 
L 490.739405 -244.988144 
L 491.256752 -244.500332 
L 491.728951 -244.01252 
L 492.181424 -243.524708 
L 492.660372 -243.036896 
L 493.19838 -242.549084 
L 493.795206 -242.061272 
L 494.424005 -241.57346 
L 495.047517 -241.085648 
L 495.626805 -240.597836 
L 496.122078 -240.110024 
L 496.494805 -239.622212 
L 496.715551 -239.1344 
L 496.774375 -238.646588 
L 496.687945 -238.158776 
L 496.498393 -237.670964 
L 496.261255 -237.183152 
L 496.023749 -236.69534 
L 495.801959 -236.207528 
L 495.572784 -235.719716 
L 495.291435 -235.231904 
L 494.923695 -234.744092 
L 494.465822 -234.256281 
L 493.938675 -233.768469 
L 493.37151 -233.280657 
L 492.795077 -232.792845 
L 492.240874 -232.305033 
L 491.732828 -231.817221 
L 491.273694 -231.329409 
L 490.842009 -230.841597 
L 490.406209 -230.353785 
L 489.944976 -229.865973 
L 489.45804 -229.378161 
L 488.962517 -228.890349 
L 488.482361 -228.402537 
L 488.03889 -227.914725 
L 487.64312 -227.426913 
L 487.290171 -226.939101 
L 486.961236 -226.451289 
L 486.636036 -225.963477 
L 486.30736 -225.475665 
L 485.984686 -224.987853 
L 485.684499 -224.500041 
L 485.418897 -224.012229 
L 485.19356 -223.524417 
L 485.01228 -223.036605 
L 484.877763 -222.548793 
L 484.786734 -222.060981 
L 484.727416 -221.573169 
L 484.68453 -221.085358 
L 484.646973 -220.597546 
L 484.610667 -220.109734 
L 484.575509 -219.621922 
L 484.541428 -219.13411 
L 484.507642 -218.646298 
L 484.474451 -218.158486 
L 484.444328 -217.670674 
L 484.420609 -217.182862 
L 484.405004 -216.69505 
L 484.396342 -216.207238 
L 484.391565 -215.719426 
z
"/>
    </defs>
    <g clip-path="url(#p8a096bff10)">
     <use xlink:href="#maeb743dd8d" x="0" y="291.6" style="fill: #2e8b57; fill-opacity: 0.4"/>
    </g>
   </g>
   <g id="matplotlib.axis_1"/>
   <g id="matplotlib.axis_2">
    <g id="ytick_1">
     <g id="line2d_1">
      <defs>
       <path id="med4e0ebd8c" d="M 0 0 
L -3.5 0 
" style="stroke: #000000; stroke-width: 0.8"/>
      </defs>
      <g>
       <use xlink:href="#med4e0ebd8c" x="62.774375" y="126.606684" style="stroke: #000000; stroke-width: 0.8"/>
      </g>
     </g>
     <g id="text_1">
      <text style="font: 12px 'inter', sans-serif; text-anchor: end" x="55.774375" y="131.165747" transform="rotate(-0 55.774375 131.165747)">400</text>
     </g>
    </g>
    <g id="ytick_2">
     <g id="line2d_2">
      <g>
       <use xlink:href="#med4e0ebd8c" x="62.774375" y="93.07111" style="stroke: #000000; stroke-width: 0.8"/>
      </g>
     </g>
     <g id="text_2">
      <text style="font: 12px 'inter', sans-serif; text-anchor: end" x="55.774375" y="97.630173" transform="rotate(-0 55.774375 97.630173)">200</text>
     </g>
    </g>
    <g id="ytick_3">
     <g id="line2d_3">
      <g>
       <use xlink:href="#med4e0ebd8c" x="62.774375" y="59.535536" style="stroke: #000000; stroke-width: 0.8"/>
      </g>
     </g>
     <g id="text_3">
      <text style="font: 12px 'inter', sans-serif; text-anchor: end" x="55.774375" y="64.094598" transform="rotate(-0 55.774375 64.094598)">0</text>
     </g>
    </g>
    <g id="ytick_4">
     <g id="line2d_4">
      <g>
       <use xlink:href="#med4e0ebd8c" x="62.774375" y="25.999961" style="stroke: #000000; stroke-width: 0.8"/>
      </g>
     </g>
     <g id="text_4">
      <text style="font: 12px 'inter', sans-serif; text-anchor: end" x="55.774375" y="30.559024" transform="rotate(-0 55.774375 30.559024)">200</text>
     </g>
    </g>
    <g id="text_5">
     <!-- $\Delta$ Volume -->
     <g transform="translate(16.318125 105.3) rotate(-90)">
      <text>
       <tspan style="font: 12px 'DejaVu Sans'" x="0 8.208984 12.023438 20.232422 27.574219 30.908203 38.513672 50.203125" y="-0.875">Volume</tspan>
      </text>
     </g>
    </g>
   </g>
   <g id="line2d_5">
    <path d="M 62.774375 59.535536 
L 509.174375 59.535536 
" clip-path="url(#p8a096bff10)" style="fill: none; stroke: #000000; stroke-linecap: square"/>
   </g>
   <g id="line2d_6">
    <defs>
     <path id="md48c5d02d7" d="M 0 3 
C 0.795609 3 1.55874 2.683901 2.12132 2.12132 
C 2.683901 1.55874 3 0.795609 3 0 
C 3 -0.795609 2.683901 -1.55874 2.12132 -2.12132 
C 1.55874 -2.683901 0.795609 -3 0 -3 
C -0.795609 -3 -1.55874 -2.683901 -2.12132 -2.12132 
C -2.683901 -1.55874 -3 -0.795609 -3 0 
C -3 0.795609 -2.683901 1.55874 -2.12132 2.12132 
C -1.55874 2.683901 -0.795609 3 0 3 
z
" style="stroke: #000000"/>
    </defs>
    <g clip-path="url(#p8a096bff10)">
     <use xlink:href="#md48c5d02d7" x="87.574375" y="79.226673" style="stroke: #000000"/>
    </g>
   </g>
   <g id="line2d_7">
    <path d="M 87.574375 85.110813 
L 87.574375 72.768047 
" clip-path="url(#p8a096bff10)" style="fill: none; stroke: #000000; stroke-width: 1.5; stroke-linecap: square"/>
   </g>
   <g id="line2d_8">
    <g clip-path="url(#p8a096bff10)">
     <use xlink:href="#md48c5d02d7" x="137.174375" y="55.50558" style="stroke: #000000"/>
    </g>
   </g>
   <g id="line2d_9">
    <path d="M 137.174375 63.797935 
L 137.174375 48.354448 
" clip-path="url(#p8a096bff10)" style="fill: none; stroke: #000000; stroke-width: 1.5; stroke-linecap: square"/>
   </g>
   <g id="line2d_10">
    <g clip-path="url(#p8a096bff10)">
     <use xlink:href="#md48c5d02d7" x="186.774375" y="65.626871" style="stroke: #000000"/>
    </g>
   </g>
   <g id="line2d_11">
    <path d="M 186.774375 92.481961 
L 186.774375 38.255348 
" clip-path="url(#p8a096bff10)" style="fill: none; stroke: #000000; stroke-width: 1.5; stroke-linecap: square"/>
   </g>
   <g id="line2d_12">
    <g clip-path="url(#p8a096bff10)">
     <use xlink:href="#md48c5d02d7" x="236.374375" y="97.761796" style="stroke: #000000"/>
    </g>
   </g>
   <g id="line2d_13">
    <path d="M 236.374375 115.208157 
L 236.374375 81.051749 
" clip-path="url(#p8a096bff10)" style="fill: none; stroke: #000000; stroke-width: 1.5; stroke-linecap: square"/>
   </g>
   <g id="line2d_14">
    <g clip-path="url(#p8a096bff10)">
     <use xlink:href="#md48c5d02d7" x="285.974375" y="101.5433" style="stroke: #000000"/>
    </g>
   </g>
   <g id="line2d_15">
    <path d="M 285.974375 122.520834 
L 285.974375 80.827244 
" clip-path="url(#p8a096bff10)" style="fill: none; stroke: #000000; stroke-width: 1.5; stroke-linecap: square"/>
   </g>
   <g id="line2d_16">
    <g clip-path="url(#p8a096bff10)">
     <use xlink:href="#md48c5d02d7" x="335.574375" y="89.949666" style="stroke: #000000"/>
    </g>
   </g>
   <g id="line2d_17">
    <path d="M 335.574375 102.167004 
L 335.574375 77.363524 
" clip-path="url(#p8a096bff10)" style="fill: none; stroke: #000000; stroke-width: 1.5; stroke-linecap: square"/>
   </g>
   <g id="line2d_18">
    <g clip-path="url(#p8a096bff10)">
     <use xlink:href="#md48c5d02d7" x="385.174375" y="53.91441" style="stroke: #000000"/>
    </g>
   </g>
   <g id="line2d_19">
    <path d="M 385.174375 67.440516 
L 385.174375 40.270815 
" clip-path="url(#p8a096bff10)" style="fill: none; stroke: #000000; stroke-width: 1.5; stroke-linecap: square"/>
   </g>
   <g id="line2d_20">
    <g clip-path="url(#p8a096bff10)">
     <use xlink:href="#md48c5d02d7" x="434.774375" y="51.054292" style="stroke: #000000"/>
    </g>
   </g>
   <g id="line2d_21">
    <path d="M 434.774375 62.895675 
L 434.774375 38.239529 
" clip-path="url(#p8a096bff10)" style="fill: none; stroke: #000000; stroke-width: 1.5; stroke-linecap: square"/>
   </g>
   <g id="line2d_22">
    <g clip-path="url(#p8a096bff10)">
     <use xlink:href="#md48c5d02d7" x="484.374375" y="53.51936" style="stroke: #000000"/>
    </g>
   </g>
   <g id="line2d_23">
    <path d="M 484.374375 65.643205 
L 484.374375 40.902951 
" clip-path="url(#p8a096bff10)" style="fill: none; stroke: #000000; stroke-width: 1.5; stroke-linecap: square"/>
   </g>
   <g id="patch_3">
    <path d="M 62.774375 145.8 
L 62.774375 7.2 
" style="fill: none; stroke: #000000; stroke-width: 0.8; stroke-linejoin: miter; stroke-linecap: square"/>
   </g>
   <g id="patch_4">
    <path d="M 509.174375 145.8 
L 509.174375 7.2 
" style="fill: none; stroke: #000000; stroke-width: 0.8; stroke-linejoin: miter; stroke-linecap: square"/>
   </g>
   <g id="patch_5">
    <path d="M 62.774375 145.8 
L 509.174375 145.8 
" style="fill: none; stroke: #000000; stroke-width: 0.8; stroke-linejoin: miter; stroke-linecap: square"/>
   </g>
   <g id="patch_6">
    <path d="M 62.774375 7.2 
L 509.174375 7.2 
" style="fill: none; stroke: #000000; stroke-width: 0.8; stroke-linejoin: miter; stroke-linecap: square"/>
   </g>
   <g id="text_6">
    <text style="fill: #ff4500; font: 12px 'inter', sans-serif; text-anchor: start" x="75.174375" y="96.35308" transform="rotate(-0 75.174375 96.35308)">Trhn&gt;Chr</text>
   </g>
   <g id="text_7">
    <text style="fill: #2e8b57; font: 12px 'inter', sans-serif; text-anchor: start" x="75.174375" y="34.460548" transform="rotate(-0 75.174375 34.460548)">Trhn&gt;ACR</text>
   </g>
  </g>
  <g id="axes_2">
   <g id="table_1">
    <g id="patch_7">
     <path d="M 8.83175 161.2 
L 62.774375 161.2 
L 62.774375 145.8 
L 8.83175 145.8 
z
" style="fill: #ffffff; stroke: #000000; stroke-linejoin: miter"/>
    </g>
    <g id="text_8">
     <text style="font: 11px 'inter', sans-serif; text-anchor: start" x="14.226013" y="156.535312" transform="rotate(-0 14.226013 156.535312)">State</text>
    </g>
    <g id="patch_8">
     <path d="M 62.774375 161.2 
L 112.374375 161.2 
L 112.374375 145.8 
L 62.774375 145.8 
z
" style="fill: #ffffff; stroke: #000000; stroke-linejoin: miter"/>
    </g>
    <g id="text_9">
     <text style="font: 11px 'inter', sans-serif; text-anchor: middle" x="87.574375" y="156.535312" transform="rotate(-0 87.574375 156.535312)">S</text>
    </g>
    <g id="patch_9">
     <path d="M 112.374375 161.2 
L 161.974375 161.2 
L 161.974375 145.8 
L 112.374375 145.8 
z
" style="fill: #ffffff; stroke: #000000; stroke-linejoin: miter"/>
    </g>
    <g id="text_10">
     <text style="font: 11px 'inter', sans-serif; text-anchor: middle" x="137.174375" y="156.535312" transform="rotate(-0 137.174375 156.535312)">F</text>
    </g>
    <g id="patch_10">
     <path d="M 161.974375 161.2 
L 211.574375 161.2 
L 211.574375 145.8 
L 161.974375 145.8 
z
" style="fill: #ffffff; stroke: #000000; stroke-linejoin: miter"/>
    </g>
    <g id="text_11">
     <text style="font: 11px 'inter', sans-serif; text-anchor: middle" x="186.774375" y="156.535312" transform="rotate(-0 186.774375 156.535312)">S</text>
    </g>
    <g id="patch_11">
     <path d="M 211.574375 161.2 
L 261.174375 161.2 
L 261.174375 145.8 
L 211.574375 145.8 
z
" style="fill: #ffffff; stroke: #000000; stroke-linejoin: miter"/>
    </g>
    <g id="text_12">
     <text style="font: 11px 'inter', sans-serif; text-anchor: middle" x="236.374375" y="156.535312" transform="rotate(-0 236.374375 156.535312)">S</text>
    </g>
    <g id="patch_12">
     <path d="M 261.174375 161.2 
L 310.774375 161.2 
L 310.774375 145.8 
L 261.174375 145.8 
z
" style="fill: #ffffff; stroke: #000000; stroke-linejoin: miter"/>
    </g>
    <g id="text_13">
     <text style="font: 11px 'inter', sans-serif; text-anchor: middle" x="285.974375" y="156.535312" transform="rotate(-0 285.974375 156.535312)">S</text>
    </g>
    <g id="patch_13">
     <path d="M 310.774375 161.2 
L 360.374375 161.2 
L 360.374375 145.8 
L 310.774375 145.8 
z
" style="fill: #ffffff; stroke: #000000; stroke-linejoin: miter"/>
    </g>
    <g id="text_14">
     <text style="font: 11px 'inter', sans-serif; text-anchor: middle" x="335.574375" y="156.535312" transform="rotate(-0 335.574375 156.535312)">S</text>
    </g>
    <g id="patch_14">
     <path d="M 360.374375 161.2 
L 409.974375 161.2 
L 409.974375 145.8 
L 360.374375 145.8 
z
" style="fill: #ffffff; stroke: #000000; stroke-linejoin: miter"/>
    </g>
    <g id="text_15">
     <text style="font: 11px 'inter', sans-serif; text-anchor: middle" x="385.174375" y="156.535312" transform="rotate(-0 385.174375 156.535312)">F</text>
    </g>
    <g id="patch_15">
     <path d="M 409.974375 161.2 
L 459.574375 161.2 
L 459.574375 145.8 
L 409.974375 145.8 
z
" style="fill: #ffffff; stroke: #000000; stroke-linejoin: miter"/>
    </g>
    <g id="text_16">
     <text style="font: 11px 'inter', sans-serif; text-anchor: middle" x="434.774375" y="156.535312" transform="rotate(-0 434.774375 156.535312)">F</text>
    </g>
    <g id="patch_16">
     <path d="M 459.574375 161.2 
L 509.174375 161.2 
L 509.174375 145.8 
L 459.574375 145.8 
z
" style="fill: #ffffff; stroke: #000000; stroke-linejoin: miter"/>
    </g>
    <g id="text_17">
     <text style="font: 11px 'inter', sans-serif; text-anchor: middle" x="484.374375" y="156.535312" transform="rotate(-0 484.374375 156.535312)">F</text>
    </g>
    <g id="patch_17">
     <path d="M 8.83175 176.6 
L 62.774375 176.6 
L 62.774375 161.2 
L 8.83175 161.2 
z
" style="fill: #ffffff; stroke: #000000; stroke-linejoin: miter"/>
    </g>
    <g id="text_18">
     <!-- $\it{Trhn}$ -->
     <g transform="translate(14.226013 171.935312)">
      <text>
       <tspan style="font: oblique 11px 'DejaVu Sans'" x="0 6.719238 11.241699 18.213379" y="-0.640625">Trhn</tspan>
      </text>
     </g>
    </g>
    <g id="patch_18">
     <path d="M 62.774375 176.6 
L 112.374375 176.6 
L 112.374375 161.2 
L 62.774375 161.2 
z
" style="fill: #ffffff; stroke: #000000; stroke-linejoin: miter"/>
    </g>
    <g id="text_19">
     <text style="font: 11px 'inter', sans-serif; text-anchor: middle" x="87.574375" y="171.935312" transform="rotate(-0 87.574375 171.935312)"></text>
    </g>
    <g id="patch_19">
     <path d="M 112.374375 176.6 
L 161.974375 176.6 
L 161.974375 161.2 
L 112.374375 161.2 
z
" style="fill: #ffffff; stroke: #000000; stroke-linejoin: miter"/>
    </g>
    <g id="text_20">
     <text style="font: 11px 'inter', sans-serif; text-anchor: middle" x="137.174375" y="171.935312" transform="rotate(-0 137.174375 171.935312)">NOT</text>
    </g>
    <g id="patch_20">
     <path d="M 161.974375 176.6 
L 211.574375 176.6 
L 211.574375 161.2 
L 161.974375 161.2 
z
" style="fill: #ffffff; stroke: #000000; stroke-linejoin: miter"/>
    </g>
    <g id="text_21">
     <text style="font: 11px 'inter', sans-serif; text-anchor: middle" x="186.774375" y="171.935312" transform="rotate(-0 186.774375 171.935312)"></text>
    </g>
    <g id="patch_21">
     <path d="M 211.574375 176.6 
L 261.174375 176.6 
L 261.174375 161.2 
L 211.574375 161.2 
z
" style="fill: #ffffff; stroke: #000000; stroke-linejoin: miter"/>
    </g>
    <g id="text_22">
     <text style="font: 11px 'inter', sans-serif; text-anchor: middle" x="236.374375" y="171.935312" transform="rotate(-0 236.374375 171.935312)"></text>
    </g>
    <g id="patch_22">
     <path d="M 261.174375 176.6 
L 310.774375 176.6 
L 310.774375 161.2 
L 261.174375 161.2 
z
" style="fill: #ffffff; stroke: #000000; stroke-linejoin: miter"/>
    </g>
    <g id="patch_23">
     <path d="M 310.774375 176.6 
L 360.374375 176.6 
L 360.374375 161.2 
L 310.774375 161.2 
z
" style="fill: #ffffff; stroke: #000000; stroke-linejoin: miter"/>
    </g>
    <g id="patch_24">
     <path d="M 360.374375 176.6 
L 409.974375 176.6 
L 409.974375 161.2 
L 360.374375 161.2 
z
" style="fill: #ffffff; stroke: #000000; stroke-linejoin: miter"/>
    </g>
    <g id="text_23">
     <text style="font: 11px 'inter', sans-serif; text-anchor: middle" x="385.174375" y="171.935312" transform="rotate(-0 385.174375 171.935312)"></text>
    </g>
    <g id="patch_25">
     <path d="M 409.974375 176.6 
L 459.574375 176.6 
L 459.574375 161.2 
L 409.974375 161.2 
z
" style="fill: #ffffff; stroke: #000000; stroke-linejoin: miter"/>
    </g>
    <g id="patch_26">
     <path d="M 459.574375 176.6 
L 509.174375 176.6 
L 509.174375 161.2 
L 459.574375 161.2 
z
" style="fill: #ffffff; stroke: #000000; stroke-linejoin: miter"/>
    </g>
    <g id="patch_27">
     <path d="M 8.83175 192 
L 62.774375 192 
L 62.774375 176.6 
L 8.83175 176.6 
z
" style="fill: #ffffff; stroke: #000000; stroke-linejoin: miter"/>
    </g>
    <g id="text_24">
     <!-- $\it{R50H05}$ -->
     <g transform="translate(14.226013 187.335312)">
      <text>
       <tspan style="font: oblique 11px 'DejaVu Sans'" x="0 21.640137" y="-0.828125">RH</tspan>
       <tspan style="font: 11px 'DejaVu Sans'" x="7.643066 14.641602 29.911621 36.910156" y="-0.828125">5005</tspan>
      </text>
     </g>
    </g>
    <g id="patch_28">
     <path d="M 62.774375 192 
L 112.374375 192 
L 112.374375 176.6 
L 62.774375 176.6 
z
" style="fill: #ffffff; stroke: #000000; stroke-linejoin: miter"/>
    </g>
    <g id="text_25">
     <text style="font: 11px 'inter', sans-serif; text-anchor: middle" x="87.574375" y="187.335312" transform="rotate(-0 87.574375 187.335312)">NOT</text>
    </g>
    <g id="patch_29">
     <path d="M 112.374375 192 
L 161.974375 192 
L 161.974375 176.6 
L 112.374375 176.6 
z
" style="fill: #ffffff; stroke: #000000; stroke-linejoin: miter"/>
    </g>
    <g id="text_26">
     <text style="font: 11px 'inter', sans-serif; text-anchor: middle" x="137.174375" y="187.335312" transform="rotate(-0 137.174375 187.335312)"></text>
    </g>
    <g id="patch_30">
     <path d="M 161.974375 192 
L 211.574375 192 
L 211.574375 176.6 
L 161.974375 176.6 
z
" style="fill: #ffffff; stroke: #000000; stroke-linejoin: miter"/>
    </g>
    <g id="patch_31">
     <path d="M 211.574375 192 
L 261.174375 192 
L 261.174375 176.6 
L 211.574375 176.6 
z
" style="fill: #ffffff; stroke: #000000; stroke-linejoin: miter"/>
    </g>
    <g id="patch_32">
     <path d="M 261.174375 192 
L 310.774375 192 
L 310.774375 176.6 
L 261.174375 176.6 
z
" style="fill: #ffffff; stroke: #000000; stroke-linejoin: miter"/>
    </g>
    <g id="patch_33">
     <path d="M 310.774375 192 
L 360.374375 192 
L 360.374375 176.6 
L 310.774375 176.6 
z
" style="fill: #ffffff; stroke: #000000; stroke-linejoin: miter"/>
    </g>
    <g id="patch_34">
     <path d="M 360.374375 192 
L 409.974375 192 
L 409.974375 176.6 
L 360.374375 176.6 
z
" style="fill: #ffffff; stroke: #000000; stroke-linejoin: miter"/>
    </g>
    <g id="patch_35">
     <path d="M 409.974375 192 
L 459.574375 192 
L 459.574375 176.6 
L 409.974375 176.6 
z
" style="fill: #ffffff; stroke: #000000; stroke-linejoin: miter"/>
    </g>
    <g id="patch_36">
     <path d="M 459.574375 192 
L 509.174375 192 
L 509.174375 176.6 
L 459.574375 176.6 
z
" style="fill: #ffffff; stroke: #000000; stroke-linejoin: miter"/>
    </g>
    <g id="patch_37">
     <path d="M 8.83175 207.4 
L 62.774375 207.4 
L 62.774375 192 
L 8.83175 192 
z
" style="fill: #ffffff; stroke: #000000; stroke-linejoin: miter"/>
    </g>
    <g id="text_27">
     <!-- $\it{tsh}$ -->
     <g transform="translate(14.226013 202.735312)">
      <text>
       <tspan style="font: oblique 11px 'DejaVu Sans'" x="0 4.312988 10.043945" y="-0.640625">tsh</tspan>
      </text>
     </g>
    </g>
    <g id="patch_38">
     <path d="M 62.774375 207.4 
L 112.374375 207.4 
L 112.374375 192 
L 62.774375 192 
z
" style="fill: #ffffff; stroke: #000000; stroke-linejoin: miter"/>
    </g>
    <g id="patch_39">
     <path d="M 112.374375 207.4 
L 161.974375 207.4 
L 161.974375 192 
L 112.374375 192 
z
" style="fill: #ffffff; stroke: #000000; stroke-linejoin: miter"/>
    </g>
    <g id="patch_40">
     <path d="M 161.974375 207.4 
L 211.574375 207.4 
L 211.574375 192 
L 161.974375 192 
z
" style="fill: #ffffff; stroke: #000000; stroke-linejoin: miter"/>
    </g>
    <g id="text_28">
     <text style="font: 11px 'inter', sans-serif; text-anchor: middle" x="186.774375" y="202.735312" transform="rotate(-0 186.774375 202.735312)">NOT</text>
    </g>
    <g id="patch_41">
     <path d="M 211.574375 207.4 
L 261.174375 207.4 
L 261.174375 192 
L 211.574375 192 
z
" style="fill: #ffffff; stroke: #000000; stroke-linejoin: miter"/>
    </g>
    <g id="text_29">
     <text style="font: 11px 'inter', sans-serif; text-anchor: middle" x="236.374375" y="202.735312" transform="rotate(-0 236.374375 202.735312)"></text>
    </g>
    <g id="patch_42">
     <path d="M 261.174375 207.4 
L 310.774375 207.4 
L 310.774375 192 
L 261.174375 192 
z
" style="fill: #ffffff; stroke: #000000; stroke-linejoin: miter"/>
    </g>
    <g id="patch_43">
     <path d="M 310.774375 207.4 
L 360.374375 207.4 
L 360.374375 192 
L 310.774375 192 
z
" style="fill: #ffffff; stroke: #000000; stroke-linejoin: miter"/>
    </g>
    <g id="patch_44">
     <path d="M 360.374375 207.4 
L 409.974375 207.4 
L 409.974375 192 
L 360.374375 192 
z
" style="fill: #ffffff; stroke: #000000; stroke-linejoin: miter"/>
    </g>
    <g id="text_30">
     <text style="font: 11px 'inter', sans-serif; text-anchor: middle" x="385.174375" y="202.735312" transform="rotate(-0 385.174375 202.735312)"></text>
    </g>
    <g id="patch_45">
     <path d="M 409.974375 207.4 
L 459.574375 207.4 
L 459.574375 192 
L 409.974375 192 
z
" style="fill: #ffffff; stroke: #000000; stroke-linejoin: miter"/>
    </g>
    <g id="patch_46">
     <path d="M 459.574375 207.4 
L 509.174375 207.4 
L 509.174375 192 
L 459.574375 192 
z
" style="fill: #ffffff; stroke: #000000; stroke-linejoin: miter"/>
    </g>
    <g id="patch_47">
     <path d="M 8.83175 222.8 
L 62.774375 222.8 
L 62.774375 207.4 
L 8.83175 207.4 
z
" style="fill: #ffffff; stroke: #000000; stroke-linejoin: miter"/>
    </g>
    <g id="text_31">
     <text style="font: 11px 'inter', sans-serif; text-anchor: start" x="14.226013" y="218.135312" transform="rotate(-0 14.226013 218.135312)">SXVNC1</text>
    </g>
    <g id="patch_48">
     <path d="M 62.774375 222.8 
L 112.374375 222.8 
L 112.374375 207.4 
L 62.774375 207.4 
z
" style="fill: #ffffff; stroke: #000000; stroke-linejoin: miter"/>
    </g>
    <g id="patch_49">
     <path d="M 112.374375 222.8 
L 161.974375 222.8 
L 161.974375 207.4 
L 112.374375 207.4 
z
" style="fill: #ffffff; stroke: #000000; stroke-linejoin: miter"/>
    </g>
    <g id="patch_50">
     <path d="M 161.974375 222.8 
L 211.574375 222.8 
L 211.574375 207.4 
L 161.974375 207.4 
z
" style="fill: #ffffff; stroke: #000000; stroke-linejoin: miter"/>
    </g>
    <g id="patch_51">
     <path d="M 211.574375 222.8 
L 261.174375 222.8 
L 261.174375 207.4 
L 211.574375 207.4 
z
" style="fill: #ffffff; stroke: #000000; stroke-linejoin: miter"/>
    </g>
    <g id="patch_52">
     <path d="M 261.174375 222.8 
L 310.774375 222.8 
L 310.774375 207.4 
L 261.174375 207.4 
z
" style="fill: #ffffff; stroke: #000000; stroke-linejoin: miter"/>
    </g>
    <g id="text_32">
     <text style="font: 11px 'inter', sans-serif; text-anchor: middle" x="285.974375" y="218.135312" transform="rotate(-0 285.974375 218.135312)"></text>
    </g>
    <g id="patch_53">
     <path d="M 310.774375 222.8 
L 360.374375 222.8 
L 360.374375 207.4 
L 310.774375 207.4 
z
" style="fill: #ffffff; stroke: #000000; stroke-linejoin: miter"/>
    </g>
    <g id="patch_54">
     <path d="M 360.374375 222.8 
L 409.974375 222.8 
L 409.974375 207.4 
L 360.374375 207.4 
z
" style="fill: #ffffff; stroke: #000000; stroke-linejoin: miter"/>
    </g>
    <g id="patch_55">
     <path d="M 409.974375 222.8 
L 459.574375 222.8 
L 459.574375 207.4 
L 409.974375 207.4 
z
" style="fill: #ffffff; stroke: #000000; stroke-linejoin: miter"/>
    </g>
    <g id="text_33">
     <text style="font: 11px 'inter', sans-serif; text-anchor: middle" x="434.774375" y="218.135312" transform="rotate(-0 434.774375 218.135312)"></text>
    </g>
    <g id="patch_56">
     <path d="M 459.574375 222.8 
L 509.174375 222.8 
L 509.174375 207.4 
L 459.574375 207.4 
z
" style="fill: #ffffff; stroke: #000000; stroke-linejoin: miter"/>
    </g>
    <g id="patch_57">
     <path d="M 8.83175 238.2 
L 62.774375 238.2 
L 62.774375 222.8 
L 8.83175 222.8 
z
" style="fill: #ffffff; stroke: #000000; stroke-linejoin: miter"/>
    </g>
    <g id="text_34">
     <text style="font: 11px 'inter', sans-serif; text-anchor: start" x="14.226013" y="233.535312" transform="rotate(-0 14.226013 233.535312)">SXVNC2</text>
    </g>
    <g id="patch_58">
     <path d="M 62.774375 238.2 
L 112.374375 238.2 
L 112.374375 222.8 
L 62.774375 222.8 
z
" style="fill: #ffffff; stroke: #000000; stroke-linejoin: miter"/>
    </g>
    <g id="patch_59">
     <path d="M 112.374375 238.2 
L 161.974375 238.2 
L 161.974375 222.8 
L 112.374375 222.8 
z
" style="fill: #ffffff; stroke: #000000; stroke-linejoin: miter"/>
    </g>
    <g id="patch_60">
     <path d="M 161.974375 238.2 
L 211.574375 238.2 
L 211.574375 222.8 
L 161.974375 222.8 
z
" style="fill: #ffffff; stroke: #000000; stroke-linejoin: miter"/>
    </g>
    <g id="patch_61">
     <path d="M 211.574375 238.2 
L 261.174375 238.2 
L 261.174375 222.8 
L 211.574375 222.8 
z
" style="fill: #ffffff; stroke: #000000; stroke-linejoin: miter"/>
    </g>
    <g id="patch_62">
     <path d="M 261.174375 238.2 
L 310.774375 238.2 
L 310.774375 222.8 
L 261.174375 222.8 
z
" style="fill: #ffffff; stroke: #000000; stroke-linejoin: miter"/>
    </g>
    <g id="patch_63">
     <path d="M 310.774375 238.2 
L 360.374375 238.2 
L 360.374375 222.8 
L 310.774375 222.8 
z
" style="fill: #ffffff; stroke: #000000; stroke-linejoin: miter"/>
    </g>
    <g id="text_35">
     <text style="font: 11px 'inter', sans-serif; text-anchor: middle" x="335.574375" y="233.535312" transform="rotate(-0 335.574375 233.535312)"></text>
    </g>
    <g id="patch_64">
     <path d="M 360.374375 238.2 
L 409.974375 238.2 
L 409.974375 222.8 
L 360.374375 222.8 
z
" style="fill: #ffffff; stroke: #000000; stroke-linejoin: miter"/>
    </g>
    <g id="patch_65">
     <path d="M 409.974375 238.2 
L 459.574375 238.2 
L 459.574375 222.8 
L 409.974375 222.8 
z
" style="fill: #ffffff; stroke: #000000; stroke-linejoin: miter"/>
    </g>
    <g id="patch_66">
     <path d="M 459.574375 238.2 
L 509.174375 238.2 
L 509.174375 222.8 
L 459.574375 222.8 
z
" style="fill: #ffffff; stroke: #000000; stroke-linejoin: miter"/>
    </g>
    <g id="text_36">
     <text style="font: 11px 'inter', sans-serif; text-anchor: middle" x="484.374375" y="233.535312" transform="rotate(-0 484.374375 233.535312)"></text>
    </g>
    <g id="patch_67">
     <path d="M 8.83175 253.6 
L 62.774375 253.6 
L 62.774375 238.2 
L 8.83175 238.2 
z
" style="fill: #ffffff; stroke: #000000; stroke-linejoin: miter"/>
    </g>
    <g id="text_37">
     <!-- $\it{Chr}$ -->
     <g transform="translate(14.226013 248.935312)">
      <text>
       <tspan style="font: oblique 11px 'DejaVu Sans'" x="0 7.680664 14.652344" y="-0.640625">Chr</tspan>
      </text>
     </g>
    </g>
    <g id="patch_68">
     <path d="M 62.774375 253.6 
L 112.374375 253.6 
L 112.374375 238.2 
L 62.774375 238.2 
z
" style="fill: #ffffff; stroke: #000000; stroke-linejoin: miter"/>
    </g>
    <g id="text_38">
     <text style="font: 11px 'inter', sans-serif; text-anchor: middle" x="87.574375" y="248.935312" transform="rotate(-0 87.574375 248.935312)"></text>
    </g>
    <g id="patch_69">
     <path d="M 112.374375 253.6 
L 161.974375 253.6 
L 161.974375 238.2 
L 112.374375 238.2 
z
" style="fill: #ffffff; stroke: #000000; stroke-linejoin: miter"/>
    </g>
    <g id="text_39">
     <text style="font: 11px 'inter', sans-serif; text-anchor: middle" x="137.174375" y="248.935312" transform="rotate(-0 137.174375 248.935312)"></text>
    </g>
    <g id="patch_70">
     <path d="M 161.974375 253.6 
L 211.574375 253.6 
L 211.574375 238.2 
L 161.974375 238.2 
z
" style="fill: #ffffff; stroke: #000000; stroke-linejoin: miter"/>
    </g>
    <g id="text_40">
     <text style="font: 11px 'inter', sans-serif; text-anchor: middle" x="186.774375" y="248.935312" transform="rotate(-0 186.774375 248.935312)"></text>
    </g>
    <g id="patch_71">
     <path d="M 211.574375 253.6 
L 261.174375 253.6 
L 261.174375 238.2 
L 211.574375 238.2 
z
" style="fill: #ffffff; stroke: #000000; stroke-linejoin: miter"/>
    </g>
    <g id="text_41">
     <text style="font: 11px 'inter', sans-serif; text-anchor: middle" x="236.374375" y="248.935312" transform="rotate(-0 236.374375 248.935312)"></text>
    </g>
    <g id="patch_72">
     <path d="M 261.174375 253.6 
L 310.774375 253.6 
L 310.774375 238.2 
L 261.174375 238.2 
z
" style="fill: #ffffff; stroke: #000000; stroke-linejoin: miter"/>
    </g>
    <g id="text_42">
     <text style="font: 11px 'inter', sans-serif; text-anchor: middle" x="285.974375" y="248.935312" transform="rotate(-0 285.974375 248.935312)"></text>
    </g>
    <g id="patch_73">
     <path d="M 310.774375 253.6 
L 360.374375 253.6 
L 360.374375 238.2 
L 310.774375 238.2 
z
" style="fill: #ffffff; stroke: #000000; stroke-linejoin: miter"/>
    </g>
    <g id="text_43">
     <text style="font: 11px 'inter', sans-serif; text-anchor: middle" x="335.574375" y="248.935312" transform="rotate(-0 335.574375 248.935312)"></text>
    </g>
    <g id="patch_74">
     <path d="M 360.374375 253.6 
L 409.974375 253.6 
L 409.974375 238.2 
L 360.374375 238.2 
z
" style="fill: #ffffff; stroke: #000000; stroke-linejoin: miter"/>
    </g>
    <g id="patch_75">
     <path d="M 409.974375 253.6 
L 459.574375 253.6 
L 459.574375 238.2 
L 409.974375 238.2 
z
" style="fill: #ffffff; stroke: #000000; stroke-linejoin: miter"/>
    </g>
    <g id="patch_76">
     <path d="M 459.574375 253.6 
L 509.174375 253.6 
L 509.174375 238.2 
L 459.574375 238.2 
z
" style="fill: #ffffff; stroke: #000000; stroke-linejoin: miter"/>
    </g>
    <g id="patch_77">
     <path d="M 8.83175 269 
L 62.774375 269 
L 62.774375 253.6 
L 8.83175 253.6 
z
" style="fill: #ffffff; stroke: #000000; stroke-linejoin: miter"/>
    </g>
    <g id="text_44">
     <!-- $\it{ACR1}$ -->
     <g transform="translate(14.226013 264.335312)">
      <text>
       <tspan style="font: oblique 11px 'DejaVu Sans'" x="0 7.524902 15.205566" y="-0.828125">ACR</tspan>
       <tspan style="font: 11px 'DejaVu Sans'" x="22.848633" y="-0.828125">1</tspan>
      </text>
     </g>
    </g>
    <g id="patch_78">
     <path d="M 62.774375 269 
L 112.374375 269 
L 112.374375 253.6 
L 62.774375 253.6 
z
" style="fill: #ffffff; stroke: #000000; stroke-linejoin: miter"/>
    </g>
    <g id="patch_79">
     <path d="M 112.374375 269 
L 161.974375 269 
L 161.974375 253.6 
L 112.374375 253.6 
z
" style="fill: #ffffff; stroke: #000000; stroke-linejoin: miter"/>
    </g>
    <g id="patch_80">
     <path d="M 161.974375 269 
L 211.574375 269 
L 211.574375 253.6 
L 161.974375 253.6 
z
" style="fill: #ffffff; stroke: #000000; stroke-linejoin: miter"/>
    </g>
    <g id="patch_81">
     <path d="M 211.574375 269 
L 261.174375 269 
L 261.174375 253.6 
L 211.574375 253.6 
z
" style="fill: #ffffff; stroke: #000000; stroke-linejoin: miter"/>
    </g>
    <g id="patch_82">
     <path d="M 261.174375 269 
L 310.774375 269 
L 310.774375 253.6 
L 261.174375 253.6 
z
" style="fill: #ffffff; stroke: #000000; stroke-linejoin: miter"/>
    </g>
    <g id="patch_83">
     <path d="M 310.774375 269 
L 360.374375 269 
L 360.374375 253.6 
L 310.774375 253.6 
z
" style="fill: #ffffff; stroke: #000000; stroke-linejoin: miter"/>
    </g>
    <g id="patch_84">
     <path d="M 360.374375 269 
L 409.974375 269 
L 409.974375 253.6 
L 360.374375 253.6 
z
" style="fill: #ffffff; stroke: #000000; stroke-linejoin: miter"/>
    </g>
    <g id="text_45">
     <text style="font: 11px 'inter', sans-serif; text-anchor: middle" x="385.174375" y="264.335312" transform="rotate(-0 385.174375 264.335312)"></text>
    </g>
    <g id="patch_85">
     <path d="M 409.974375 269 
L 459.574375 269 
L 459.574375 253.6 
L 409.974375 253.6 
z
" style="fill: #ffffff; stroke: #000000; stroke-linejoin: miter"/>
    </g>
    <g id="text_46">
     <text style="font: 11px 'inter', sans-serif; text-anchor: middle" x="434.774375" y="264.335312" transform="rotate(-0 434.774375 264.335312)"></text>
    </g>
    <g id="patch_86">
     <path d="M 459.574375 269 
L 509.174375 269 
L 509.174375 253.6 
L 459.574375 253.6 
z
" style="fill: #ffffff; stroke: #000000; stroke-linejoin: miter"/>
    </g>
    <g id="text_47">
     <text style="font: 11px 'inter', sans-serif; text-anchor: middle" x="484.374375" y="264.335312" transform="rotate(-0 484.374375 264.335312)"></text>
    </g>
    <g id="patch_87">
     <path d="M 8.83175 284.4 
L 62.774375 284.4 
L 62.774375 269 
L 8.83175 269 
z
" style="fill: #ffffff; stroke: #000000; stroke-linejoin: miter"/>
    </g>
    <g id="text_48">
     <text style="font: 11px 'inter', sans-serif; text-anchor: start" x="14.226013" y="279.735312" transform="rotate(-0 14.226013 279.735312)">\</text>
    </g>
    <g id="patch_88">
     <path d="M 62.774375 284.4 
L 112.374375 284.4 
L 112.374375 269 
L 62.774375 269 
z
" style="fill: #ffffff; stroke: #000000; stroke-linejoin: miter"/>
    </g>
    <g id="text_49">
     <text style="font: 11px 'inter', sans-serif; text-anchor: middle" x="87.574375" y="279.735312" transform="rotate(-0 87.574375 279.735312)">-117</text>
    </g>
    <g id="patch_89">
     <path d="M 112.374375 284.4 
L 161.974375 284.4 
L 161.974375 269 
L 112.374375 269 
z
" style="fill: #ffffff; stroke: #000000; stroke-linejoin: miter"/>
    </g>
    <g id="text_50">
     <text style="font: 11px 'inter', sans-serif; text-anchor: middle" x="137.174375" y="279.735312" transform="rotate(-0 137.174375 279.735312)">24</text>
    </g>
    <g id="patch_90">
     <path d="M 161.974375 284.4 
L 211.574375 284.4 
L 211.574375 269 
L 161.974375 269 
z
" style="fill: #ffffff; stroke: #000000; stroke-linejoin: miter"/>
    </g>
    <g id="text_51">
     <text style="font: 11px 'inter', sans-serif; text-anchor: middle" x="186.774375" y="279.735312" transform="rotate(-0 186.774375 279.735312)">-36</text>
    </g>
    <g id="patch_91">
     <path d="M 211.574375 284.4 
L 261.174375 284.4 
L 261.174375 269 
L 211.574375 269 
z
" style="fill: #ffffff; stroke: #000000; stroke-linejoin: miter"/>
    </g>
    <g id="text_52">
     <text style="font: 11px 'inter', sans-serif; text-anchor: middle" x="236.374375" y="279.735312" transform="rotate(-0 236.374375 279.735312)">-227</text>
    </g>
    <g id="patch_92">
     <path d="M 261.174375 284.4 
L 310.774375 284.4 
L 310.774375 269 
L 261.174375 269 
z
" style="fill: #ffffff; stroke: #000000; stroke-linejoin: miter"/>
    </g>
    <g id="text_53">
     <text style="font: 11px 'inter', sans-serif; text-anchor: middle" x="285.974375" y="279.735312" transform="rotate(-0 285.974375 279.735312)">-250</text>
    </g>
    <g id="patch_93">
     <path d="M 310.774375 284.4 
L 360.374375 284.4 
L 360.374375 269 
L 310.774375 269 
z
" style="fill: #ffffff; stroke: #000000; stroke-linejoin: miter"/>
    </g>
    <g id="text_54">
     <text style="font: 11px 'inter', sans-serif; text-anchor: middle" x="335.574375" y="279.735312" transform="rotate(-0 335.574375 279.735312)">-181</text>
    </g>
    <g id="patch_94">
     <path d="M 360.374375 284.4 
L 409.974375 284.4 
L 409.974375 269 
L 360.374375 269 
z
" style="fill: #ffffff; stroke: #000000; stroke-linejoin: miter"/>
    </g>
    <g id="text_55">
     <text style="font: 11px 'inter', sans-serif; text-anchor: middle" x="385.174375" y="279.735312" transform="rotate(-0 385.174375 279.735312)">33</text>
    </g>
    <g id="patch_95">
     <path d="M 409.974375 284.4 
L 459.574375 284.4 
L 459.574375 269 
L 409.974375 269 
z
" style="fill: #ffffff; stroke: #000000; stroke-linejoin: miter"/>
    </g>
    <g id="text_56">
     <text style="font: 11px 'inter', sans-serif; text-anchor: middle" x="434.774375" y="279.735312" transform="rotate(-0 434.774375 279.735312)">50</text>
    </g>
    <g id="patch_96">
     <path d="M 459.574375 284.4 
L 509.174375 284.4 
L 509.174375 269 
L 459.574375 269 
z
" style="fill: #ffffff; stroke: #000000; stroke-linejoin: miter"/>
    </g>
    <g id="text_57">
     <text style="font: 11px 'inter', sans-serif; text-anchor: middle" x="484.374375" y="279.735312" transform="rotate(-0 484.374375 279.735312)">35</text>
    </g>
   </g>
  </g>
 </g>
 <defs>
  <clipPath id="p8a096bff10">
   <rect x="62.774375" y="7.2" width="446.4" height="138.6"/>
  </clipPath>
 </defs>
</svg>
