<?xml version="1.0" encoding="UTF-8"?>
<!DOCTYPE svg PUBLIC "-//W3C//DTD SVG 1.1//EN" "http://www.w3.org/Graphics/SVG/1.1/DTD/svg11.dtd">
<svg version="1.1" xmlns="http://www.w3.org/2000/svg" xmlns:xlink="http://www.w3.org/1999/xlink" x="0" y="0" width="367.71" height="250" viewBox="0, 0, 367.71, 250">
  <g id="Background">
    <rect x="0" y="0" width="367.71" height="250" fill="#FFFFFF"/>
  </g>
  <g id="Background">
    <path d="M0,0 L367.71,0 L367.71,190.01 L0,190.01 z" fill="#FFFFFF"/>
  </g>
  <g id="g2">
    <path d="M131.716,53.212 C133.016,53.142 135.606,53.002 139.016,53.212 C144.416,53.542 148.496,54.532 150.586,55.062 C163.006,58.242 167.576,61.402 175.546,63.092 C184.896,65.082 192.366,63.642 201.716,61.852 C216.376,59.042 216.976,55.472 227.276,53.822 C245.256,50.952 260.636,59.092 264.406,61.232 C273.996,66.672 271.686,69.092 293.626,88.412 C306.196,99.482 310.916,102.172 314.326,103.852 C327.476,110.322 331.596,106.812 340.496,111.262 C360.586,121.302 364.756,151.742 366.056,161.292 C367.446,171.462 369.296,184.962 363.016,200.202 C355.486,218.462 337.806,235.532 314.326,238.492 C312.726,238.692 281.486,242.252 268.676,224.902 C264.476,219.212 261.906,210.812 256.506,210.692 C253.406,210.622 251.396,213.322 248.596,216.252 C248.596,216.252 236.376,229.022 218.166,234.162 C214.636,235.162 215.366,234.442 195.646,234.782 C169.586,235.222 170.796,236.422 163.996,235.402 C155.566,234.132 143.196,232.262 131.736,223.672 C126.776,219.952 122.846,215.622 115.906,215.022 C114.396,214.892 107.916,214.522 103.736,218.732 C101.046,221.432 100.826,224.492 100.086,226.762 C96.096,238.912 72.506,241.872 69.656,242.202 C46.296,244.902 28.656,230.922 25.826,228.612 C8.626,214.552 4.576,195.492 2.696,186.612 C1.026,178.762 -2.534,160.792 5.736,141.522 C12.986,124.632 25.706,115.212 29.476,112.492 C46.906,99.902 59.036,103.472 71.476,88.402 C74.866,84.292 76.176,81.352 81.826,75.432 C86.416,70.622 92.146,64.612 101.306,59.992 C112.626,54.282 123.276,53.682 131.716,53.212 z" fill="#F1F2F2" id="path1" opacity="0.3"/>
    <path d="M131.706,53.162 C141.906,52.402 151.996,54.882 161.526,58.332 C175.506,64.002 183.666,65.362 198.586,62.262 C203.566,61.342 208.546,60.302 213.246,58.392 C215.596,57.462 217.866,56.302 220.256,55.412 C225.656,53.392 231.496,52.872 237.216,53.012 C246.776,53.452 256.176,56.302 264.536,60.942 C266.766,62.182 268.916,63.632 270.786,65.392 C279.466,74.662 288.346,83.682 298.166,91.792 C308.116,100.412 317.906,107.202 331.446,108.222 C350.416,110.392 359.956,130.202 363.796,146.872 C364.986,151.822 365.806,156.862 366.456,161.892 C367.936,171.932 368.486,182.332 365.916,192.252 C362.126,207.082 352.546,220.252 339.946,228.852 C327.316,237.752 311.396,240.532 296.246,238.532 C286.276,237.312 275.736,233.972 269.186,225.892 C265.346,221.842 262.206,210.632 256.026,210.962 C252.806,211.322 250.906,214.362 248.746,216.472 C245.106,220.062 241.056,223.182 236.776,225.942 C231.436,229.392 225.626,232.192 219.536,234.072 C216.066,235.502 211.806,234.962 208.136,235.032 C197.986,235.032 187.836,235.242 177.706,235.752 C175.056,235.842 168.836,236.452 166.236,236.112 C157.396,235.042 148.486,233.332 140.396,229.452 C138.096,228.332 135.866,227.072 133.726,225.652 C129.416,222.862 125.906,219.002 121.366,216.932 C114.936,214.052 105.186,215.012 101.996,222.092 C100.986,224.392 100.796,227.092 99.436,229.292 C98.096,231.562 96.136,233.382 94.016,234.842 C87.576,239.122 79.906,241.042 72.386,242.312 C62.286,243.942 51.716,242.642 42.256,238.752 C22.566,231.152 8.926,214.192 3.886,193.902 C1.326,184.042 -0.534,173.872 0.146,163.652 C1.256,137.882 19.176,114.522 42.756,104.792 C52.066,101.012 62.336,98.402 69.246,90.612 C72.806,87.002 75.316,82.522 78.676,78.682 C93.806,60.932 108.356,53.832 131.706,53.162 L131.706,53.162 z M131.716,53.262 C108.436,54.022 93.976,61.122 78.926,78.902 C75.606,82.722 73.116,87.222 69.526,90.892 C66.056,94.642 61.746,97.572 57.106,99.682 C47.766,103.622 37.896,106.462 29.736,112.692 C13.246,124.372 1.846,143.342 1.066,163.702 C0.466,173.812 2.316,183.892 4.826,193.652 C9.786,213.652 23.196,230.372 42.606,237.862 C51.916,241.692 62.286,242.982 72.226,241.382 C81.316,239.742 93.286,237.072 98.626,228.832 C99.966,226.652 100.096,224.072 101.146,221.722 C104.556,214.152 114.866,213.012 121.746,216.112 C125.156,217.692 128.266,220.372 131.176,222.692 C140.166,229.802 151.346,233.222 162.566,234.792 C166.876,235.912 173.246,235.162 177.666,234.992 C187.826,234.522 197.976,234.362 208.136,234.382 C211.936,234.312 215.736,234.892 219.356,233.492 C225.396,231.652 231.166,228.902 236.476,225.492 C240.736,222.762 244.776,219.662 248.376,216.132 C250.696,213.872 252.866,210.472 256.486,210.482 C258.316,210.532 259.986,211.602 261.176,212.902 C264.596,216.802 266.306,221.742 269.526,225.632 C275.966,233.622 286.416,236.952 296.286,238.182 C322.816,242.032 346.956,229.622 359.876,206.202 C364.776,197.332 367.266,187.222 367.146,177.102 C366.926,167.002 365.366,156.872 363.146,147.032 C359.656,132.762 352.936,116.992 338.606,110.862 C333.916,108.832 328.716,109.072 323.786,107.842 C318.806,106.602 314.056,104.522 309.726,101.782 C297.206,93.042 285.986,82.532 275.536,71.432 C273.816,69.562 272.166,67.622 270.336,65.912 C264.706,60.852 257.446,57.882 250.266,55.722 C242.986,53.632 235.276,52.942 227.766,54.032 C222.666,54.602 218.096,56.832 213.426,58.812 C208.696,60.712 203.676,61.742 198.676,62.642 C191.206,64.082 183.456,64.972 175.936,63.332 C170.916,62.352 166.226,60.292 161.466,58.562 C151.966,55.092 141.916,52.562 131.726,53.292 L131.726,53.292 z" fill="#231F20" id="path2" opacity="0.3"/>
    <path d="M90.626,110.802 C88.936,108.022 80.726,93.982 86.366,83.012 C87.076,81.622 89.336,77.712 103.406,70.662 C116.366,64.162 122.846,60.912 130.796,60.162 C140.676,59.222 142.006,62.442 172.796,68.192 C179.066,69.362 182.206,69.952 183.756,70.042 C202.036,71.182 207.106,61.802 225.146,59.542 C229.166,59.042 242.526,57.532 256.186,63.862 C263.446,67.222 261.576,68.532 278.096,78.682 C283.946,82.272 286.646,83.632 288.446,87.332 C291.216,93.042 290.666,101.972 286.016,106.482 C283.166,109.242 279.726,109.432 279.316,112.042 C278.986,114.202 281.116,115.592 282.356,117.602 C286.536,124.342 279.656,136.202 275.656,142.922 C268.456,155.032 266.566,152.542 259.226,164.542 C255.886,169.992 256.306,170.472 247.056,188.012 C243.326,195.082 241.466,198.622 240.356,200.362 C235.866,207.472 234.306,214.752 223.806,220.812 C218.186,224.062 206.466,227.472 199.566,224.792 C194.216,222.712 193.336,220.702 187.396,219.502 C183.376,218.692 180.926,220.302 175.826,221.972 C171.116,223.522 160.566,226.982 150.866,224.442 C138.326,221.152 132.046,209.092 131.386,207.762 C128.776,202.552 130.376,202.002 127.736,193.552 C126.026,188.092 122.166,175.742 111.906,166.992 C105.556,161.582 103.526,163.312 99.736,158.342 C94.756,151.812 97.686,148.072 93.036,137.962 C88.806,128.742 84.176,127.092 84.516,121.282 C84.786,116.712 87.916,113.132 90.606,110.782 z" fill="#C2B59B" id="path3" opacity="0.3"/>
    <path d="M90.576,110.802 C85.726,102.762 81.796,92.102 86.136,82.992 C87.666,80.022 90.516,78.092 93.156,76.212 C98.586,72.582 104.496,69.822 110.296,66.902 C118.896,62.612 128.496,58.312 138.386,60.032 C141.626,60.592 144.746,61.512 147.886,62.302 C156.936,64.652 167.166,66.742 176.426,68.422 C186.076,70.772 195.696,69.842 204.686,65.592 C210.616,62.962 216.736,60.422 223.216,59.512 C235.986,57.532 249.946,59.162 260.936,66.312 C266.016,70.372 271.186,74.262 276.756,77.642 C279.476,79.402 282.346,80.942 284.966,82.912 C291.476,87.892 291.816,98.892 287.286,105.302 C285.956,107.292 283.516,108.592 281.466,109.722 C277.326,112.152 280.626,114.822 282.466,117.382 C286.786,125.032 279.986,135.752 276.226,142.512 C274.566,145.312 272.836,148.082 270.756,150.612 C268.696,153.162 266.266,155.342 264.266,157.862 C260.196,162.922 257.196,168.672 254.416,174.532 C250.026,183.262 245.666,191.952 240.836,200.452 C237.436,205.942 235.066,212.312 230.116,216.752 C223.026,223.272 212.426,226.872 202.816,226.062 C197.716,225.572 194.036,221.842 189.336,220.482 C184.466,218.602 180.106,221.102 175.526,222.592 C169.336,224.652 162.826,226.162 156.246,225.782 C144.506,225.252 134.456,216.422 130.056,205.872 C129.436,204.312 129.226,202.612 129.016,201.022 C128.616,197.822 127.706,194.742 126.706,191.652 C123.786,182.462 119.106,173.582 111.706,167.242 C110.476,166.202 109.196,165.232 107.826,164.402 C105.046,162.812 101.716,161.652 99.806,158.872 C96.406,155.042 96.176,149.792 95.246,145.082 C94.546,141.932 93.356,138.902 91.876,136.042 C90.416,133.152 88.476,130.562 86.586,127.902 C85.656,126.572 84.836,125.092 84.546,123.462 C83.716,118.472 86.976,113.822 90.586,110.792 L90.586,110.792 z M90.676,110.812 C87.096,113.962 83.936,118.452 84.796,123.422 C85.096,125.002 85.906,126.422 86.836,127.732 C88.736,130.342 90.736,132.952 92.246,135.852 C93.786,138.732 94.996,141.792 95.726,144.982 C96.716,149.752 96.886,154.742 100.256,158.522 C102.206,161.272 105.326,162.252 108.146,163.862 C117.976,169.982 124.006,180.642 127.506,191.402 C128.526,194.482 129.486,197.652 129.906,200.902 C130.136,202.522 130.336,204.082 130.926,205.552 C135.276,215.692 144.956,224.282 156.306,224.802 C162.746,225.172 169.136,223.692 175.226,221.672 C178.386,220.742 181.286,219.132 184.646,218.842 C186.366,218.712 188.026,219.132 189.606,219.562 C194.266,220.872 198.086,224.672 202.946,225.122 C212.246,225.912 222.596,222.402 229.496,216.082 C234.366,211.702 236.656,205.452 240.076,199.972 C244.856,191.532 249.336,182.832 253.736,174.182 C256.546,168.332 259.636,162.512 263.766,157.442 C265.816,154.882 268.276,152.712 270.306,150.222 C274.336,145.192 277.556,139.462 280.396,133.682 C282.926,128.152 285.576,120.652 280.636,115.702 C278.556,113.542 278.446,110.852 281.276,109.362 C281.276,109.362 283.406,108.172 283.406,108.172 C286.276,106.652 288.216,103.852 289.146,100.782 C290.906,94.812 290.076,87.092 284.786,83.152 C282.196,81.222 279.316,79.692 276.576,77.942 C270.996,74.602 265.766,70.712 260.676,66.682 C249.786,59.682 235.946,58.142 223.346,60.152 C216.906,61.092 210.916,63.622 205.006,66.272 C199.076,68.992 192.566,70.722 185.996,70.522 C182.716,70.572 179.486,69.842 176.276,69.282 C166.686,67.532 157.126,65.532 147.706,63.042 C144.556,62.242 141.436,61.312 138.276,60.742 C128.536,59.022 119.166,63.202 110.566,67.432 C104.756,70.322 98.846,73.052 93.446,76.622 C90.856,78.432 88.056,80.352 86.536,83.182 C82.146,92.202 85.976,102.652 90.676,110.812 L90.676,110.812 z" fill="#231F20" id="path4" opacity="0.3"/>
    <path d="M79.416,124.792 C72.716,118.782 66.286,113.022 56.286,111.822 C41.486,110.052 30.156,119.612 27.676,121.702 C13.036,134.052 11.186,152.622 10.026,164.322 C8.776,176.812 6.556,199.122 21.596,216.822 C24.666,220.442 38.016,235.112 57.506,234.732 C72.236,234.442 82.536,225.722 91.596,218.052 C99.006,211.782 105.096,206.632 108.026,197.672 C111.606,186.752 108.206,177.222 103.156,163.082 C99.606,153.132 93.926,137.802 79.416,124.792 z" fill="#C2B59B" id="path5" opacity="0.3"/>
    <path d="M79.386,124.832 C74.026,120.032 68.376,115.072 61.326,113.022 C47.106,108.762 32.026,116.332 22.886,127.162 C13.416,138.472 11.236,153.572 9.976,167.832 C9.256,175.052 9.016,182.342 10.026,189.542 C11.186,198.482 14.506,207.312 20.036,214.462 C27.676,224.412 38.916,232.192 51.496,233.952 C66.586,236.292 79.466,228.102 90.296,218.472 C95.736,213.802 101.586,209.242 105.146,202.912 C113.106,189.492 106.826,174.762 102.196,161.362 C97.576,147.612 90.326,134.552 79.396,124.832 L79.396,124.832 z M79.456,124.752 C90.436,134.452 97.906,147.452 102.816,161.132 C107.026,172.912 112.906,185.842 108.326,198.372 C105.406,207.292 97.916,213.472 90.976,219.262 C85.436,223.942 79.636,228.562 72.916,231.612 C59.356,238.092 43.116,235.112 31.376,226.192 C11.796,212.052 7.176,190.702 9.426,167.782 C10.496,153.412 12.546,138.012 22.226,126.602 C31.586,115.612 47.046,108.232 61.406,112.772 C68.456,114.952 74.106,119.892 79.456,124.762 L79.456,124.762 z" fill="#231F20" id="path6" opacity="0.3"/>
    <path d="M289.306,121.112 C296.006,115.102 302.436,109.342 312.436,108.142 C327.236,106.372 338.566,115.932 341.046,118.022 C355.686,130.372 357.536,148.942 358.696,160.642 C359.946,173.132 362.166,195.442 347.126,213.142 C344.056,216.762 330.706,231.432 311.216,231.052 C296.486,230.762 286.186,222.042 277.126,214.372 C269.716,208.102 263.626,202.952 260.696,193.992 C257.116,183.072 260.516,173.542 265.566,159.402 C269.116,149.452 274.796,134.122 289.306,121.112 z" fill="#C2B59B" id="path7" opacity="0.3"/>
    <path d="M289.276,121.072 C294.626,116.202 300.276,111.262 307.326,109.082 C321.696,104.542 337.146,111.922 346.506,122.912 C356.186,134.332 358.236,149.712 359.306,164.092 C361.556,187.012 356.946,208.372 337.356,222.502 C325.626,231.422 309.376,234.412 295.816,227.922 C289.106,224.872 283.306,220.262 277.756,215.572 C270.816,209.782 263.326,203.602 260.406,194.682 C255.836,182.152 261.706,169.222 265.916,157.442 C270.826,143.762 278.286,130.752 289.276,121.062 L289.276,121.062 z M289.336,121.152 C278.406,130.872 271.156,143.942 266.536,157.682 C261.906,171.072 255.626,185.812 263.586,199.232 C267.156,205.552 272.996,210.112 278.436,214.792 C289.266,224.422 302.146,232.622 317.236,230.272 C329.816,228.522 341.056,220.732 348.696,210.782 C354.226,203.622 357.546,194.802 358.706,185.862 C359.706,178.662 359.476,171.362 358.756,164.152 C357.496,149.892 355.316,134.782 345.846,123.482 C336.706,112.652 321.626,105.092 307.406,109.342 C300.356,111.392 294.706,116.352 289.346,121.152 L289.346,121.152 z" fill="#231F20" id="path8" opacity="0.3"/>
    <path d="M171.936,164.912 C163.116,163.102 154.366,171.142 145.156,179.612 C135.626,188.372 130.856,192.762 130.546,199.212 C130.146,207.422 136.196,214.582 142.116,218.272 C148.746,222.412 155.736,222.532 161.596,222.632 C168.476,222.752 171.766,221.352 172.556,221.002 C177.726,218.702 180.256,214.722 181.076,213.382 C186.666,204.302 179.046,199.682 181.076,182.342 C181.616,177.742 182.676,173.622 179.856,169.822 C177.056,166.042 172.216,164.982 171.946,164.922 z" fill="#BCBEC0" id="path9" opacity="0.3"/>
    <path d="M171.926,164.962 C161.096,163.152 151.726,174.532 144.296,180.992 C141.616,183.522 138.846,185.972 136.356,188.652 C133.866,191.292 131.546,194.292 130.966,197.902 C129.476,209.102 139.686,219.022 150.036,221.252 C153.606,222.072 157.296,222.222 160.976,222.232 C164.596,222.262 168.326,222.052 171.726,220.822 C176.666,218.842 180.776,214.442 182.256,209.322 C183.546,203.902 180.826,198.602 180.516,193.122 C179.826,187.542 180.876,182.012 181.486,176.512 C182.156,170.642 177.326,166.162 171.936,164.942 L171.936,164.942 z M171.946,164.862 C177.416,166.022 182.406,170.572 181.936,176.542 C181.546,182.042 180.686,187.532 181.456,193.032 C181.876,196.712 182.876,200.222 183.466,203.902 C184.846,211.612 178.986,218.982 172.046,221.712 C168.436,222.982 164.646,223.112 160.946,223.012 C149.306,223.192 138.566,219.182 132.666,208.622 C125.776,195.782 134.926,188.472 143.706,180.362 C151.116,173.982 161.296,162.962 171.946,164.872 L171.946,164.872 z" fill="#231F20" id="path10" opacity="0.3"/>
    <path d="M192.456,164.912 C201.276,163.102 210.026,171.142 219.236,179.612 C228.766,188.372 233.536,192.762 233.846,199.212 C234.246,207.422 228.196,214.582 222.276,218.272 C215.646,222.412 208.656,222.532 202.796,222.632 C195.916,222.752 192.626,221.352 191.836,221.002 C186.666,218.702 184.136,214.722 183.316,213.382 C177.726,204.302 185.346,199.682 183.316,182.342 C182.776,177.742 181.716,173.622 184.536,169.822 C187.336,166.042 192.176,164.982 192.446,164.922 z" fill="#BCBEC0" id="path11" opacity="0.3"/>
    <path d="M192.446,164.862 C203.086,162.952 213.276,173.982 220.686,180.352 C225.836,185.402 232.646,190.272 233.986,197.822 C235.136,209.272 225.036,219.172 214.496,221.782 C210.876,222.692 207.136,222.912 203.446,223.002 C199.746,223.112 195.956,222.972 192.346,221.702 C187.056,219.612 182.696,215.082 181.126,209.582 C179.796,203.982 182.486,198.542 182.936,193.022 C183.706,187.522 182.846,182.042 182.456,176.532 C181.986,170.562 186.966,166.012 192.446,164.852 L192.446,164.852 z M192.466,164.962 C187.086,166.182 182.246,170.652 182.916,176.532 C183.516,182.032 184.566,187.562 183.886,193.142 C183.556,196.862 182.506,200.482 181.946,204.052 C180.476,213.222 189.146,221.502 197.956,222.012 C211.206,223.222 224.446,221.132 231.426,208.472 C238.086,195.792 228.516,188.992 220.106,181.012 C212.666,174.542 203.316,163.172 192.476,164.982 L192.476,164.982 z" fill="#231F20" id="path12" opacity="0.3"/>
    <path d="M172.866,141.022 C169.886,137.252 164.476,136.542 159.546,135.892 C154.126,135.182 147.646,134.332 141.316,137.812 C134.716,141.442 132.446,147.482 131.506,149.992 C130.646,152.292 126.666,163.922 134.306,172.422 C138.896,177.532 145.296,178.852 148.326,179.472 C156.006,181.052 162.176,179.292 165.856,178.192 C170.096,176.922 176.806,174.922 179.876,169.862 C182.696,165.212 181.976,160.892 181.976,160.892 C181.946,160.692 181.916,160.552 181.886,160.432 C180.896,155.622 177.726,153.312 175.666,150.002 C172.826,145.432 175.396,144.232 172.866,141.032 z" fill="#AAAAAA" id="path13" opacity="0.3"/>
    <path d="M172.826,141.052 C169.126,136.632 162.856,136.562 157.566,135.902 C145.666,134.242 135.636,138.792 131.576,150.562 C124.526,170.572 140.146,181.512 158.816,179.312 C161.526,178.942 164.156,178.182 166.796,177.352 C171.856,175.802 177.446,173.662 179.956,168.692 C182.136,164.652 182.296,159.772 179.706,155.882 C177.816,152.772 174.666,150.112 174.156,146.302 C174.036,144.452 174.176,142.522 172.836,141.052 L172.836,141.052 z M172.906,140.992 C174.266,142.432 174.196,144.462 174.336,146.282 C174.896,150.082 178.146,152.522 180.166,155.592 C181.226,157.152 182.016,158.942 182.366,160.822 C183.296,170.942 175.866,175.942 167.106,178.362 C161.816,180.042 156.116,181.112 150.546,180.272 C134.066,178.182 125.866,166.432 131.086,150.392 C134.916,138.082 145.336,133.152 157.626,135.392 C162.916,136.282 169.236,136.522 172.906,140.992 L172.906,140.992 z" fill="#231F20" id="path14" opacity="0.3"/>
    <path d="M191.753,141.022 C194.733,137.252 200.153,136.542 205.083,135.892 C210.513,135.182 216.993,134.332 223.323,137.812 C229.933,141.442 232.203,147.482 233.143,149.992 C234.013,152.292 237.983,163.922 230.333,172.422 C225.733,177.532 219.333,178.852 216.303,179.472 C208.613,181.052 202.433,179.292 198.763,178.192 C194.513,176.922 187.803,174.922 184.733,169.862 C181.913,165.212 182.623,160.892 182.623,160.892 C182.653,160.692 182.683,160.552 182.713,160.432 C183.703,155.622 186.883,153.312 188.943,150.002 C191.783,145.432 189.213,144.232 191.753,141.032 z" fill="#AAAAAA" id="path15" opacity="0.3"/>
    <path d="M191.806,140.992 C195.486,136.522 201.806,136.292 207.096,135.392 C219.386,133.152 229.826,138.072 233.666,150.392 C238.896,166.442 230.686,178.192 214.186,180.282 C208.616,181.122 202.916,180.062 197.616,178.372 C188.866,175.952 181.406,170.952 182.336,160.832 C182.686,158.942 183.476,157.162 184.536,155.602 C186.556,152.532 189.816,150.092 190.376,146.292 C190.516,144.472 190.436,142.442 191.806,141.002 L191.806,141.002 z M191.886,141.052 C190.546,142.532 190.676,144.452 190.566,146.302 C190.066,150.112 186.906,152.782 185.006,155.882 C184.046,157.342 183.326,159.422 183.116,160.882 C182.526,170.512 189.576,175.042 197.926,177.352 C205.726,180.142 214.236,180.452 222.076,177.562 C233.896,173.472 237.386,161.672 233.186,150.552 C229.116,138.782 219.076,134.242 207.166,135.902 C201.866,136.562 195.596,136.632 191.896,141.052 L191.896,141.052 z" fill="#231F20" id="path16" opacity="0.3"/>
    <path d="M180.756,126.462 C176.396,131.262 167.676,124.352 156.406,130.172 C153.106,131.882 153.386,132.712 150.316,133.882 C144.086,136.252 134.996,135.812 130.226,130.792 C126.486,126.852 129.146,124.032 125.966,112.262 C125.026,108.782 122.796,100.772 117.446,92.502 C112.416,84.732 109.166,83.732 109.536,80.152 C110.156,74.042 120.286,70.142 126.576,69.032 C132.686,67.952 144.186,67.922 147.276,73.972 C149.196,77.752 146.136,80.552 143.016,93.732 C140.596,103.952 139.386,109.062 141.796,112.262 C145.726,117.472 158.376,118.522 165.536,113.502 C168.486,111.432 172.976,106.592 177.426,107.852 C177.516,107.882 177.606,107.902 177.716,107.942 C182.416,109.662 184.916,121.902 180.756,126.472 z" fill="#C2B59B" id="path17" opacity="0.3"/>
    <path d="M180.796,126.492 C178.916,128.572 175.886,128.452 173.326,128.222 C170.696,127.982 168.066,127.672 165.436,127.872 C160.846,128.172 156.386,129.892 152.886,132.882 C145.446,137.802 128.846,136.612 127.596,125.812 C127.026,114.012 123.546,102.262 117.116,92.302 C115.676,90.092 114.096,87.992 112.346,86.012 C111.116,84.512 109.436,82.992 109.336,80.892 C109.496,72.722 123.376,68.802 130.036,68.272 C136.156,67.912 145.226,67.992 148.036,74.592 C148.516,75.972 148.336,77.472 147.996,78.752 C147.286,81.362 146.326,83.792 145.576,86.322 C144.016,91.342 142.876,96.512 141.776,101.642 C141.286,104.202 140.786,106.832 141.136,109.312 C142.096,114.592 148.676,116.042 153.316,116.262 C157.176,116.392 161.156,115.672 164.506,113.692 C168.686,111.282 173.266,105.342 178.616,108.192 C183.186,111.762 184.546,122.002 180.796,126.502 L180.796,126.502 z M180.716,126.432 C184.866,122.102 182.516,106.162 174.726,108.002 C170.826,108.892 168.196,112.272 164.886,114.342 C159.106,117.762 151.566,118.182 145.386,115.552 C138.926,112.862 139.536,107.152 140.726,101.432 C141.816,96.232 143.016,91.082 144.616,86.022 C145.386,83.492 146.376,81.002 147.076,78.522 C147.416,77.282 147.556,76.032 147.166,74.882 C143.946,67.122 129.016,68.272 122.376,70.332 C115.556,72.312 104.526,78.222 112.586,85.802 C121.246,95.812 126.606,108.642 128.106,121.782 C128.406,124.302 128.156,127.092 129.576,129.262 C134.306,135.612 143.956,135.982 150.856,133.322 C152.096,132.842 153.056,132.022 154.136,131.242 C157.456,129.012 161.436,127.802 165.416,127.622 C168.066,127.492 170.706,127.802 173.336,128.072 C175.876,128.322 178.846,128.472 180.726,126.442 L180.726,126.442 z" fill="#231F20" id="path18" opacity="0.3"/>
    <path d="M185.266,126.462 C189.626,131.262 198.346,124.352 209.616,130.172 C212.916,131.882 212.636,132.712 215.706,133.882 C221.936,136.252 231.026,135.812 235.796,130.792 C239.536,126.852 236.876,124.032 240.056,112.262 C240.996,108.782 243.226,100.772 248.576,92.502 C253.606,84.732 256.856,83.732 256.486,80.152 C255.866,74.042 245.736,70.142 239.446,69.032 C233.336,67.952 221.836,67.922 218.746,73.972 C216.826,77.752 219.886,80.552 223.006,93.732 C225.426,103.952 226.636,109.062 224.226,112.262 C220.296,117.472 207.646,118.522 200.486,113.502 C197.536,111.432 193.046,106.592 188.596,107.852 C188.506,107.882 188.416,107.902 188.306,107.942 C183.606,109.662 181.106,121.902 185.266,126.472 z" fill="#C2B59B" id="path19" opacity="0.3"/>
    <path d="M185.306,126.432 C187.186,128.462 190.156,128.312 192.696,128.062 C195.316,127.792 197.956,127.492 200.616,127.612 C204.596,127.792 208.576,129.002 211.896,131.232 C212.966,132.012 213.926,132.842 215.176,133.312 C222.076,135.982 231.726,135.602 236.456,129.262 C237.886,127.092 237.626,124.302 237.936,121.782 C239.436,108.642 244.796,95.822 253.456,85.802 C261.506,78.232 250.496,72.302 243.666,70.332 C237.006,68.272 222.116,67.122 218.876,74.882 C218.486,76.032 218.626,77.272 218.966,78.522 C219.656,81.012 220.646,83.492 221.426,86.022 C223.026,91.082 224.226,96.232 225.316,101.432 C225.966,105.182 227.156,110.122 224.066,113.222 C221.126,116.172 216.766,117.092 212.766,117.212 C208.746,117.272 204.606,116.492 201.156,114.342 C197.076,111.902 192.886,105.952 187.636,108.502 C183.076,111.912 181.696,121.992 185.326,126.432 L185.326,126.432 z M185.226,126.492 C180.916,121.982 183.276,105.752 191.376,107.542 C195.446,108.372 198.146,111.682 201.526,113.692 C207.086,116.852 214.366,117.122 220.206,114.632 C226.156,112.182 225.336,106.912 224.256,101.632 C223.156,96.502 222.006,91.332 220.456,86.312 C219.706,83.792 218.746,81.352 218.036,78.742 C217.686,77.452 217.516,75.962 217.996,74.582 C221.426,66.232 236.756,67.532 243.816,69.802 C249.026,71.412 259.066,75.972 256.126,82.842 C253.916,86.152 250.956,88.852 248.916,92.292 C242.486,102.252 239.006,114.002 238.436,125.802 C237.186,137.122 218.516,138.122 211.586,131.652 C208.386,129.402 204.506,128.132 200.606,127.862 C197.976,127.662 195.346,127.972 192.716,128.212 C190.156,128.452 187.126,128.562 185.246,126.482 L185.246,126.482 z" fill="#231F20" id="path20" opacity="0.3"/>
  </g>
</svg>
