<?xml version="1.0" encoding="utf-8" standalone="no"?>
<!DOCTYPE svg PUBLIC "-//W3C//DTD SVG 1.1//EN"
  "http://www.w3.org/Graphics/SVG/1.1/DTD/svg11.dtd">
<svg xmlns:xlink="http://www.w3.org/1999/xlink" width="576pt" height="576pt" viewBox="0 0 576 576" xmlns="http://www.w3.org/2000/svg" version="1.1">
 <metadata>
  <rdf:RDF xmlns:dc="http://purl.org/dc/elements/1.1/" xmlns:cc="http://creativecommons.org/ns#" xmlns:rdf="http://www.w3.org/1999/02/22-rdf-syntax-ns#">
   <cc:Work>
    <dc:type rdf:resource="http://purl.org/dc/dcmitype/StillImage"/>
    <dc:date>2024-07-09T11:59:58.479488</dc:date>
    <dc:format>image/svg+xml</dc:format>
    <dc:creator>
     <cc:Agent>
      <dc:title>Matplotlib v3.6.3, https://matplotlib.org/</dc:title>
     </cc:Agent>
    </dc:creator>
   </cc:Work>
  </rdf:RDF>
 </metadata>
 <defs>
  <style type="text/css">*{stroke-linejoin: round; stroke-linecap: butt}</style>
 </defs>
 <g id="figure_1">
  <g id="patch_1">
   <path d="M 0 576 
L 576 576 
L 576 0 
L 0 0 
z
" style="fill: #ffffff"/>
  </g>
  <g id="axes_1">
   <g id="PathCollection_1">
    <defs>
     <path id="C0_0_67e8d0dd6c" d="M 0 2.44949 
C 0.649612 2.44949 1.272706 2.191396 1.732051 1.732051 
C 2.191396 1.272706 2.44949 0.649612 2.44949 -0 
C 2.44949 -0.649612 2.191396 -1.272706 1.732051 -1.732051 
C 1.272706 -2.191396 0.649612 -2.44949 0 -2.44949 
C -0.649612 -2.44949 -1.272706 -2.191396 -1.732051 -1.732051 
C -2.191396 -1.272706 -2.44949 -0.649612 -2.44949 0 
C -2.44949 0.649612 -2.191396 1.272706 -1.732051 1.732051 
C -1.272706 2.191396 -0.649612 2.44949 0 2.44949 
z
"/>
    </defs>
    <g clip-path="url(#pea72d169dd)">
     <use xlink:href="#C0_0_67e8d0dd6c" x="98.571429" y="136.332472" style="fill: #bbc6d3; stroke: #bbc6d3"/>
    </g>
    <g clip-path="url(#pea72d169dd)">
     <use xlink:href="#C0_0_67e8d0dd6c" x="98.571429" y="109.514511" style="fill: #bbc6d3; stroke: #bbc6d3"/>
    </g>
    <g clip-path="url(#pea72d169dd)">
     <use xlink:href="#C0_0_67e8d0dd6c" x="101.810923" y="103.859712" style="fill: #bbc6d3; stroke: #bbc6d3"/>
    </g>
    <g clip-path="url(#pea72d169dd)">
     <use xlink:href="#C0_0_67e8d0dd6c" x="98.571429" y="75.472819" style="fill: #bbc6d3; stroke: #bbc6d3"/>
    </g>
   </g>
   <g id="PathCollection_2">
    <defs>
     <path id="C1_0_5e3d687f48" d="M 0 2.44949 
C 0.649612 2.44949 1.272706 2.191396 1.732051 1.732051 
C 2.191396 1.272706 2.44949 0.649612 2.44949 -0 
C 2.44949 -0.649612 2.191396 -1.272706 1.732051 -1.732051 
C 1.272706 -2.191396 0.649612 -2.44949 0 -2.44949 
C -0.649612 -2.44949 -1.272706 -2.191396 -1.732051 -1.732051 
C -2.191396 -1.272706 -2.44949 -0.649612 -2.44949 0 
C -2.44949 0.649612 -2.191396 1.272706 -1.732051 1.732051 
C -1.272706 2.191396 -0.649612 2.44949 0 2.44949 
z
"/>
    </defs>
    <g clip-path="url(#pea72d169dd)">
     <use xlink:href="#C1_0_5e3d687f48" x="151.714286" y="176.015416" style="fill: #627f98; stroke: #627f98"/>
    </g>
    <g clip-path="url(#pea72d169dd)">
     <use xlink:href="#C1_0_5e3d687f48" x="157.795368" y="173.672018" style="fill: #627f98; stroke: #627f98"/>
    </g>
    <g clip-path="url(#pea72d169dd)">
     <use xlink:href="#C1_0_5e3d687f48" x="151.714286" y="153.373962" style="fill: #627f98; stroke: #627f98"/>
    </g>
    <g clip-path="url(#pea72d169dd)">
     <use xlink:href="#C1_0_5e3d687f48" x="154.515033" y="147.4895" style="fill: #627f98; stroke: #627f98"/>
    </g>
   </g>
   <g id="matplotlib.axis_1">
    <g id="xtick_1">
     <g id="line2d_1">
      <defs>
       <path id="mb5ddfb9eb6" d="M 0 0 
L 0 3.5 
" style="stroke: #000000; stroke-width: 0.8"/>
      </defs>
      <g>
       <use xlink:href="#mb5ddfb9eb6" x="98.571429" y="246.528" style="stroke: #000000; stroke-width: 0.8"/>
      </g>
     </g>
     <g id="text_1">
      <text style="font: 12px 'inter', sans-serif" transform="translate(87.832366 262.256125)">Fed</text>
      <text style="font: 12px 'inter', sans-serif" transform="translate(82.872991 275.18425)">N = 4</text>
     </g>
    </g>
    <g id="xtick_2">
     <g id="line2d_2">
      <g>
       <use xlink:href="#mb5ddfb9eb6" x="151.714286" y="246.528" style="stroke: #000000; stroke-width: 0.8"/>
      </g>
     </g>
     <g id="text_2">
      <text style="font: 12px 'inter', sans-serif" transform="translate(129.529286 262.256125)">Starved</text>
      <text style="font: 12px 'inter', sans-serif" transform="translate(136.015848 275.18425)">N = 4</text>
     </g>
    </g>
   </g>
   <g id="matplotlib.axis_2">
    <g id="ytick_1">
     <g id="line2d_3">
      <defs>
       <path id="m88a6bbb8ee" d="M 0 0 
L -3.5 0 
" style="stroke: #000000; stroke-width: 0.8"/>
      </defs>
      <g>
       <use xlink:href="#m88a6bbb8ee" x="72" y="246.528" style="stroke: #000000; stroke-width: 0.8"/>
      </g>
     </g>
     <g id="text_3">
      <text style="font: 10px 'inter', sans-serif; text-anchor: end" x="65" y="250.164719" transform="rotate(-0 65 250.164719)">0</text>
     </g>
    </g>
    <g id="ytick_2">
     <g id="line2d_4">
      <g>
       <use xlink:href="#m88a6bbb8ee" x="72" y="214.272" style="stroke: #000000; stroke-width: 0.8"/>
      </g>
     </g>
     <g id="text_4">
      <text style="font: 10px 'inter', sans-serif; text-anchor: end" x="65" y="217.908719" transform="rotate(-0 65 217.908719)">100</text>
     </g>
    </g>
    <g id="ytick_3">
     <g id="line2d_5">
      <g>
       <use xlink:href="#m88a6bbb8ee" x="72" y="182.016" style="stroke: #000000; stroke-width: 0.8"/>
      </g>
     </g>
     <g id="text_5">
      <text style="font: 10px 'inter', sans-serif; text-anchor: end" x="65" y="185.652719" transform="rotate(-0 65 185.652719)">200</text>
     </g>
    </g>
    <g id="ytick_4">
     <g id="line2d_6">
      <g>
       <use xlink:href="#m88a6bbb8ee" x="72" y="149.76" style="stroke: #000000; stroke-width: 0.8"/>
      </g>
     </g>
     <g id="text_6">
      <text style="font: 10px 'inter', sans-serif; text-anchor: end" x="65" y="153.396719" transform="rotate(-0 65 153.396719)">300</text>
     </g>
    </g>
    <g id="ytick_5">
     <g id="line2d_7">
      <g>
       <use xlink:href="#m88a6bbb8ee" x="72" y="117.504" style="stroke: #000000; stroke-width: 0.8"/>
      </g>
     </g>
     <g id="text_7">
      <text style="font: 10px 'inter', sans-serif; text-anchor: end" x="65" y="121.140719" transform="rotate(-0 65 121.140719)">400</text>
     </g>
    </g>
    <g id="ytick_6">
     <g id="line2d_8">
      <g>
       <use xlink:href="#m88a6bbb8ee" x="72" y="85.248" style="stroke: #000000; stroke-width: 0.8"/>
      </g>
     </g>
     <g id="text_8">
      <text style="font: 10px 'inter', sans-serif; text-anchor: end" x="65" y="88.884719" transform="rotate(-0 65 88.884719)">500</text>
     </g>
    </g>
    <g id="text_9">
     <text style="font: 12px 'inter', sans-serif; text-anchor: middle" x="39.625312" y="157.824" transform="rotate(-90 39.625312 157.824)">nc82 Intensity</text>
    </g>
   </g>
   <g id="LineCollection_1">
    <path d="M 98.571429 106.294879 
L 178.285714 106.294879 
" clip-path="url(#pea72d169dd)" style="fill: none; stroke: #000000; stroke-width: 0.75"/>
   </g>
   <g id="LineCollection_2">
    <path d="M 151.714286 162.637724 
L 178.285714 162.637724 
" clip-path="url(#pea72d169dd)" style="fill: none; stroke: #000000; stroke-width: 0.75"/>
   </g>
   <g id="line2d_9">
    <path d="M 93.257143 131.251858 
L 93.257143 108.955999 
" style="fill: none; stroke: #bbc6d3; stroke-width: 2; stroke-linecap: square"/>
   </g>
   <g id="line2d_10">
    <path d="M 93.257143 103.633759 
L 93.257143 81.337899 
" style="fill: none; stroke: #bbc6d3; stroke-width: 2; stroke-linecap: square"/>
   </g>
   <g id="line2d_11">
    <path d="M 146.4 176.967231 
L 146.4 165.298844 
" style="fill: none; stroke: #627f98; stroke-width: 2; stroke-linecap: square"/>
   </g>
   <g id="line2d_12">
    <path d="M 146.4 159.976604 
L 146.4 148.308218 
" style="fill: none; stroke: #627f98; stroke-width: 2; stroke-linecap: square"/>
   </g>
   <g id="text_10">
    <text style="font: 12px 'inter', sans-serif; text-anchor: middle" x="125.142857" y="63.12" transform="rotate(-0 125.142857 63.12)">Mid-brain brp</text>
   </g>
   <g id="axes_2">
    <g id="PolyCollection_1">
     <defs>
      <path id="m20a46581ce" d="M 199.569951 -370.334223 
L 199.543194 -370.334223 
L 199.543194 -371.195553 
L 199.543194 -372.056883 
L 199.543194 -372.918212 
L 199.543194 -373.779542 
L 199.543194 -374.640872 
L 199.543194 -375.502201 
L 199.543194 -376.363531 
L 199.543194 -377.224861 
L 199.543194 -378.086191 
L 199.543194 -378.94752 
L 199.543194 -379.80885 
L 199.543194 -380.67018 
L 199.543194 -381.531509 
L 199.543194 -382.392839 
L 199.543194 -383.254169 
L 199.543194 -384.115498 
L 199.543194 -384.976828 
L 199.543194 -385.838158 
L 199.543194 -386.699487 
L 199.543194 -387.560817 
L 199.543194 -388.422147 
L 199.543194 -389.283476 
L 199.543194 -390.144806 
L 199.543194 -391.006136 
L 199.543194 -391.867466 
L 199.543194 -392.728795 
L 199.543194 -393.590125 
L 199.543194 -394.451455 
L 199.543194 -395.312784 
L 199.543194 -396.174114 
L 199.543194 -397.035444 
L 199.543194 -397.896773 
L 199.543194 -398.758103 
L 199.543194 -399.619433 
L 199.543194 -400.480762 
L 199.543194 -401.342092 
L 199.543194 -402.203422 
L 199.543194 -403.064751 
L 199.543194 -403.926081 
L 199.543194 -404.787411 
L 199.543194 -405.648741 
L 199.543194 -406.51007 
L 199.543194 -407.3714 
L 199.543194 -408.23273 
L 199.543194 -409.094059 
L 199.543194 -409.955389 
L 199.543194 -410.816719 
L 199.543194 -411.678048 
L 199.543194 -412.539378 
L 199.543194 -413.400708 
L 199.543194 -414.262037 
L 199.543194 -415.123367 
L 199.543194 -415.984697 
L 199.543194 -416.846026 
L 199.543194 -417.707356 
L 199.543194 -418.568686 
L 199.543194 -419.430016 
L 199.543194 -420.291345 
L 199.543194 -421.152675 
L 199.543194 -422.014005 
L 199.543194 -422.875334 
L 199.543194 -423.736664 
L 199.543194 -424.597994 
L 199.543194 -425.459323 
L 199.543194 -426.320653 
L 199.543194 -427.181983 
L 199.543194 -428.043312 
L 199.543194 -428.904642 
L 199.543194 -429.765972 
L 199.543194 -430.627301 
L 199.543194 -431.488631 
L 199.543194 -432.349961 
L 199.543194 -433.211291 
L 199.543194 -434.07262 
L 199.543194 -434.93395 
L 199.543194 -435.79528 
L 199.543194 -436.656609 
L 199.543194 -437.517939 
L 199.543194 -438.379269 
L 199.543194 -439.240598 
L 199.543194 -440.101928 
L 199.543194 -440.963258 
L 199.543194 -441.824587 
L 199.543194 -442.685917 
L 199.543194 -443.547247 
L 199.543194 -444.408576 
L 199.543194 -445.269906 
L 199.543194 -446.131236 
L 199.543194 -446.992566 
L 199.543194 -447.853895 
L 199.543194 -448.715225 
L 199.543194 -449.576555 
L 199.543194 -450.437884 
L 199.543194 -451.299214 
L 199.543194 -452.160544 
L 199.543194 -453.021873 
L 199.543194 -453.883203 
L 199.543194 -454.744533 
L 199.543194 -455.605862 
L 199.557112 -455.605862 
L 199.557112 -455.605862 
L 199.559777 -454.744533 
L 199.564045 -453.883203 
L 199.571507 -453.021873 
L 199.583042 -452.160544 
L 199.59832 -451.299214 
L 199.616348 -450.437884 
L 199.636898 -449.576555 
L 199.661985 -448.715225 
L 199.696505 -447.853895 
L 199.747522 -446.992566 
L 199.821999 -446.131236 
L 199.923065 -445.269906 
L 200.046015 -444.408576 
L 200.177105 -443.547247 
L 200.298535 -442.685917 
L 200.399623 -441.824587 
L 200.488402 -440.963258 
L 200.594834 -440.101928 
L 200.760444 -439.240598 
L 201.017473 -438.379269 
L 201.367934 -437.517939 
L 201.774809 -436.656609 
L 202.173429 -435.79528 
L 202.501863 -434.93395 
L 202.73738 -434.07262 
L 202.917633 -433.211291 
L 203.128568 -432.349961 
L 203.458908 -431.488631 
L 203.944209 -430.627301 
L 204.535232 -429.765972 
L 205.114911 -428.904642 
L 205.559612 -428.043312 
L 205.811414 -427.181983 
L 205.91817 -426.320653 
L 206.014991 -425.459323 
L 206.254509 -424.597994 
L 206.72293 -423.736664 
L 207.387158 -422.875334 
L 208.102517 -422.014005 
L 208.680346 -421.152675 
L 208.983978 -420.291345 
L 209.003499 -419.430016 
L 208.865752 -418.568686 
L 208.768703 -417.707356 
L 208.873278 -416.846026 
L 209.213057 -415.984697 
L 209.673525 -415.123367 
L 210.052983 -414.262037 
L 210.171429 -413.400708 
L 209.967571 -412.539378 
L 209.531037 -411.678048 
L 209.052898 -410.816719 
L 208.723089 -409.955389 
L 208.631354 -409.094059 
L 208.723197 -408.23273 
L 208.830738 -407.3714 
L 208.761184 -406.51007 
L 208.399063 -405.648741 
L 207.76992 -404.787411 
L 207.029052 -403.926081 
L 206.378538 -403.064751 
L 205.959422 -402.203422 
L 205.781704 -401.342092 
L 205.729691 -400.480762 
L 205.633593 -399.619433 
L 205.362586 -398.758103 
L 204.888539 -397.896773 
L 204.290694 -397.035444 
L 203.704997 -396.174114 
L 203.249667 -395.312784 
L 202.967847 -394.451455 
L 202.815434 -393.590125 
L 202.695388 -392.728795 
L 202.514562 -391.867466 
L 202.229937 -391.006136 
L 201.86202 -390.144806 
L 201.474477 -389.283476 
L 201.136352 -388.422147 
L 200.888276 -387.560817 
L 200.728059 -386.699487 
L 200.619358 -385.838158 
L 200.515672 -384.976828 
L 200.385288 -384.115498 
L 200.224173 -383.254169 
L 200.052087 -382.392839 
L 199.897381 -381.531509 
L 199.781278 -380.67018 
L 199.709977 -379.80885 
L 199.675948 -378.94752 
L 199.664439 -378.086191 
L 199.660519 -377.224861 
L 199.653921 -376.363531 
L 199.64088 -375.502201 
L 199.623138 -374.640872 
L 199.605078 -373.779542 
L 199.590534 -372.918212 
L 199.580822 -372.056883 
L 199.574722 -371.195553 
L 199.569951 -370.334223 
z
"/>
     </defs>
     <g clip-path="url(#p796badf661)">
      <use xlink:href="#m20a46581ce" x="0" y="576" style="fill: #4682b4; fill-opacity: 0.8"/>
     </g>
    </g>
    <g id="matplotlib.axis_3">
     <g id="xtick_3">
      <g id="line2d_13">
       <g>
        <use xlink:href="#mb5ddfb9eb6" x="199.542857" y="246.528" style="stroke: #000000; stroke-width: 0.8"/>
       </g>
      </g>
      <g id="text_11">
       <text style="font: 12px 'inter', sans-serif" transform="translate(177.357857 262.256125)">Starved</text>
       <text style="font: 12px 'inter', sans-serif" transform="translate(182.769107 275.18425)">minus</text>
       <text style="font: 12px 'inter', sans-serif" transform="translate(188.803795 288.112375)">Fed</text>
      </g>
     </g>
    </g>
    <g id="matplotlib.axis_4">
     <g id="ytick_7">
      <g id="line2d_14">
       <defs>
        <path id="m1fa82d9a33" d="M 0 0 
L 3.5 0 
" style="stroke: #000000; stroke-width: 0.8"/>
       </defs>
       <g>
        <use xlink:href="#m1fa82d9a33" x="220.8" y="235.318879" style="stroke: #000000; stroke-width: 0.8"/>
       </g>
      </g>
      <g id="text_12">
       <text style="font: 10px 'inter', sans-serif; text-anchor: start" x="227.8" y="238.955597" transform="rotate(-0 227.8 238.955597)">−400</text>
      </g>
     </g>
     <g id="ytick_8">
      <g id="line2d_15">
       <g>
        <use xlink:href="#m1fa82d9a33" x="220.8" y="203.062879" style="stroke: #000000; stroke-width: 0.8"/>
       </g>
      </g>
      <g id="text_13">
       <text style="font: 10px 'inter', sans-serif; text-anchor: start" x="227.8" y="206.699597" transform="rotate(-0 227.8 206.699597)">−300</text>
      </g>
     </g>
     <g id="ytick_9">
      <g id="line2d_16">
       <g>
        <use xlink:href="#m1fa82d9a33" x="220.8" y="170.806879" style="stroke: #000000; stroke-width: 0.8"/>
       </g>
      </g>
      <g id="text_14">
       <text style="font: 10px 'inter', sans-serif; text-anchor: start" x="227.8" y="174.443597" transform="rotate(-0 227.8 174.443597)">−200</text>
      </g>
     </g>
     <g id="ytick_10">
      <g id="line2d_17">
       <g>
        <use xlink:href="#m1fa82d9a33" x="220.8" y="138.550879" style="stroke: #000000; stroke-width: 0.8"/>
       </g>
      </g>
      <g id="text_15">
       <text style="font: 10px 'inter', sans-serif; text-anchor: start" x="227.8" y="142.187597" transform="rotate(-0 227.8 142.187597)">−100</text>
      </g>
     </g>
     <g id="ytick_11">
      <g id="line2d_18">
       <g>
        <use xlink:href="#m1fa82d9a33" x="220.8" y="106.294879" style="stroke: #000000; stroke-width: 0.8"/>
       </g>
      </g>
      <g id="text_16">
       <text style="font: 10px 'inter', sans-serif; text-anchor: start" x="227.8" y="109.931597" transform="rotate(-0 227.8 109.931597)">0</text>
      </g>
     </g>
     <g id="ytick_12">
      <g id="line2d_19">
       <g>
        <use xlink:href="#m1fa82d9a33" x="220.8" y="74.038879" style="stroke: #000000; stroke-width: 0.8"/>
       </g>
      </g>
      <g id="text_17">
       <text style="font: 10px 'inter', sans-serif; text-anchor: start" x="227.8" y="77.675597" transform="rotate(-0 227.8 77.675597)">100</text>
      </g>
     </g>
     <g id="text_18">
      <text style="font: 12px 'inter', sans-serif; text-anchor: middle" x="266.039062" y="157.824" transform="rotate(-90 266.039062 157.824)">Mean difference</text>
     </g>
    </g>
    <g id="line2d_20">
     <path d="M 199.542857 162.637724 
" clip-path="url(#p796badf661)" style="fill: none; stroke: #000000; stroke-width: 1.5; stroke-linecap: square"/>
     <defs>
      <path id="mea2f4a50cd" d="M 0 4.5 
C 1.193414 4.5 2.338109 4.025852 3.181981 3.181981 
C 4.025852 2.338109 4.5 1.193414 4.5 0 
C 4.5 -1.193414 4.025852 -2.338109 3.181981 -3.181981 
C 2.338109 -4.025852 1.193414 -4.5 0 -4.5 
C -1.193414 -4.5 -2.338109 -4.025852 -3.181981 -3.181981 
C -4.025852 -2.338109 -4.5 -1.193414 -4.5 0 
C -4.5 1.193414 -4.025852 2.338109 -3.181981 3.181981 
C -2.338109 4.025852 -1.193414 4.5 0 4.5 
z
" style="stroke: #000000"/>
     </defs>
     <g clip-path="url(#p796badf661)">
      <use xlink:href="#mea2f4a50cd" x="199.542857" y="162.637724" style="stroke: #000000"/>
     </g>
    </g>
    <g id="line2d_21">
     <path d="M 199.542857 186.983666 
L 199.542857 140.189887 
" clip-path="url(#p796badf661)" style="fill: none; stroke: #000000; stroke-width: 2; stroke-linecap: square"/>
    </g>
    <g id="LineCollection_3">
     <path d="M 157.028571 106.294879 
L 220.8 106.294879 
" clip-path="url(#p796badf661)" style="fill: none; stroke: #000000; stroke-width: 0.75"/>
    </g>
    <g id="LineCollection_4">
     <path d="M 174.034286 162.637724 
L 220.8 162.637724 
" clip-path="url(#p796badf661)" style="fill: none; stroke: #000000; stroke-width: 0.75"/>
    </g>
    <g id="LineCollection_5">
     <defs>
      <path id="m436f5e6f0c" d="M 186.788571 -329.472 
L 220.8 -329.472 
" style="stroke: #000000"/>
     </defs>
     <g>
      <use xlink:href="#m436f5e6f0c" x="0" y="576" style="stroke: #000000"/>
     </g>
    </g>
    <g id="LineCollection_6">
     <defs>
      <path id="m77ad00173c" d="M 220.8 -329.472 
L 220.8 -506.88 
" style="stroke: #000000"/>
     </defs>
     <g>
      <use xlink:href="#m77ad00173c" x="0" y="576" style="stroke: #000000"/>
     </g>
    </g>
   </g>
   <g id="LineCollection_7">
    <defs>
     <path id="m0125f0d936" d="M 72 -329.472 
L 167.657143 -329.472 
" style="stroke: #000000"/>
    </defs>
    <g>
     <use xlink:href="#m0125f0d936" x="0" y="576" style="stroke: #000000"/>
    </g>
   </g>
   <g id="LineCollection_8">
    <defs>
     <path id="m8b795b71b8" d="M 72 -329.472 
L 72 -506.88 
" style="stroke: #000000"/>
    </defs>
    <g>
     <use xlink:href="#m8b795b71b8" x="0" y="576" style="stroke: #000000"/>
    </g>
   </g>
  </g>
  <g id="axes_3">
   <g id="PathCollection_3">
    <defs>
     <path id="C2_0_b595fdab42" d="M 0 2.44949 
C 0.649612 2.44949 1.272706 2.191396 1.732051 1.732051 
C 2.191396 1.272706 2.44949 0.649612 2.44949 -0 
C 2.44949 -0.649612 2.191396 -1.272706 1.732051 -1.732051 
C 1.272706 -2.191396 0.649612 -2.44949 0 -2.44949 
C -0.649612 -2.44949 -1.272706 -2.191396 -1.732051 -1.732051 
C -2.191396 -1.272706 -2.44949 -0.649612 -2.44949 0 
C -2.44949 0.649612 -2.191396 1.272706 -1.732051 1.732051 
C -1.272706 2.191396 -0.649612 2.44949 0 2.44949 
z
"/>
    </defs>
    <g clip-path="url(#p75b1531fd0)">
     <use xlink:href="#C2_0_b595fdab42" x="396.171429" y="171.230239" style="fill: #d2c5d2; stroke: #d2c5d2"/>
    </g>
    <g clip-path="url(#p75b1531fd0)">
     <use xlink:href="#C2_0_b595fdab42" x="396.171429" y="157.567887" style="fill: #d2c5d2; stroke: #d2c5d2"/>
    </g>
    <g clip-path="url(#p75b1531fd0)">
     <use xlink:href="#C2_0_b595fdab42" x="396.171429" y="136.497623" style="fill: #d2c5d2; stroke: #d2c5d2"/>
    </g>
    <g clip-path="url(#p75b1531fd0)">
     <use xlink:href="#C2_0_b595fdab42" x="396.171429" y="118.27137" style="fill: #d2c5d2; stroke: #d2c5d2"/>
    </g>
   </g>
   <g id="PathCollection_4">
    <defs>
     <path id="C3_0_f0fa7d7dfb" d="M 0 2.44949 
C 0.649612 2.44949 1.272706 2.191396 1.732051 1.732051 
C 2.191396 1.272706 2.44949 0.649612 2.44949 -0 
C 2.44949 -0.649612 2.191396 -1.272706 1.732051 -1.732051 
C 1.272706 -2.191396 0.649612 -2.44949 0 -2.44949 
C -0.649612 -2.44949 -1.272706 -2.191396 -1.732051 -1.732051 
C -2.191396 -1.272706 -2.44949 -0.649612 -2.44949 0 
C -2.44949 0.649612 -2.191396 1.272706 -1.732051 1.732051 
C -1.272706 2.191396 -0.649612 2.44949 0 2.44949 
z
"/>
    </defs>
    <g clip-path="url(#p75b1531fd0)">
     <use xlink:href="#C3_0_f0fa7d7dfb" x="449.314286" y="139.828055" style="fill: #c08abd; stroke: #c08abd"/>
    </g>
    <g clip-path="url(#p75b1531fd0)">
     <use xlink:href="#C3_0_f0fa7d7dfb" x="449.314286" y="130.33834" style="fill: #c08abd; stroke: #c08abd"/>
    </g>
    <g clip-path="url(#p75b1531fd0)">
     <use xlink:href="#C3_0_f0fa7d7dfb" x="449.314286" y="120.982487" style="fill: #c08abd; stroke: #c08abd"/>
    </g>
    <g clip-path="url(#p75b1531fd0)">
     <use xlink:href="#C3_0_f0fa7d7dfb" x="455.811739" y="120.478326" style="fill: #c08abd; stroke: #c08abd"/>
    </g>
   </g>
   <g id="matplotlib.axis_5">
    <g id="xtick_4">
     <g id="line2d_22">
      <g>
       <use xlink:href="#mb5ddfb9eb6" x="396.171429" y="246.528" style="stroke: #000000; stroke-width: 0.8"/>
      </g>
     </g>
     <g id="text_19">
      <text style="font: 12px 'inter', sans-serif" transform="translate(385.432366 262.256125)">Fed</text>
      <text style="font: 12px 'inter', sans-serif" transform="translate(380.472991 275.18425)">N = 4</text>
     </g>
    </g>
    <g id="xtick_5">
     <g id="line2d_23">
      <g>
       <use xlink:href="#mb5ddfb9eb6" x="449.314286" y="246.528" style="stroke: #000000; stroke-width: 0.8"/>
      </g>
     </g>
     <g id="text_20">
      <text style="font: 12px 'inter', sans-serif" transform="translate(427.129286 262.256125)">Starved</text>
      <text style="font: 12px 'inter', sans-serif" transform="translate(433.615848 275.18425)">N = 4</text>
     </g>
    </g>
   </g>
   <g id="matplotlib.axis_6">
    <g id="ytick_13">
     <g id="line2d_24">
      <g>
       <use xlink:href="#m88a6bbb8ee" x="369.6" y="246.528" style="stroke: #000000; stroke-width: 0.8"/>
      </g>
     </g>
     <g id="text_21">
      <text style="font: 10px 'inter', sans-serif; text-anchor: end" x="362.6" y="250.164719" transform="rotate(-0 362.6 250.164719)">0</text>
     </g>
    </g>
    <g id="ytick_14">
     <g id="line2d_25">
      <g>
       <use xlink:href="#m88a6bbb8ee" x="369.6" y="214.272" style="stroke: #000000; stroke-width: 0.8"/>
      </g>
     </g>
     <g id="text_22">
      <text style="font: 10px 'inter', sans-serif; text-anchor: end" x="362.6" y="217.908719" transform="rotate(-0 362.6 217.908719)">100</text>
     </g>
    </g>
    <g id="ytick_15">
     <g id="line2d_26">
      <g>
       <use xlink:href="#m88a6bbb8ee" x="369.6" y="182.016" style="stroke: #000000; stroke-width: 0.8"/>
      </g>
     </g>
     <g id="text_23">
      <text style="font: 10px 'inter', sans-serif; text-anchor: end" x="362.6" y="185.652719" transform="rotate(-0 362.6 185.652719)">200</text>
     </g>
    </g>
    <g id="ytick_16">
     <g id="line2d_27">
      <g>
       <use xlink:href="#m88a6bbb8ee" x="369.6" y="149.76" style="stroke: #000000; stroke-width: 0.8"/>
      </g>
     </g>
     <g id="text_24">
      <text style="font: 10px 'inter', sans-serif; text-anchor: end" x="362.6" y="153.396719" transform="rotate(-0 362.6 153.396719)">300</text>
     </g>
    </g>
    <g id="ytick_17">
     <g id="line2d_28">
      <g>
       <use xlink:href="#m88a6bbb8ee" x="369.6" y="117.504" style="stroke: #000000; stroke-width: 0.8"/>
      </g>
     </g>
     <g id="text_25">
      <text style="font: 10px 'inter', sans-serif; text-anchor: end" x="362.6" y="121.140719" transform="rotate(-0 362.6 121.140719)">400</text>
     </g>
    </g>
    <g id="ytick_18">
     <g id="line2d_29">
      <g>
       <use xlink:href="#m88a6bbb8ee" x="369.6" y="85.248" style="stroke: #000000; stroke-width: 0.8"/>
      </g>
     </g>
     <g id="text_26">
      <text style="font: 10px 'inter', sans-serif; text-anchor: end" x="362.6" y="88.884719" transform="rotate(-0 362.6 88.884719)">500</text>
     </g>
    </g>
    <g id="text_27">
     <text style="font: 12px 'inter', sans-serif; text-anchor: middle" x="337.225312" y="157.824" transform="rotate(-90 337.225312 157.824)">5HT Intensity</text>
    </g>
   </g>
   <g id="LineCollection_9">
    <path d="M 396.171429 145.89178 
L 475.885714 145.89178 
" clip-path="url(#p75b1531fd0)" style="fill: none; stroke: #000000; stroke-width: 0.75"/>
   </g>
   <g id="LineCollection_10">
    <path d="M 449.314286 127.906802 
L 475.885714 127.906802 
" clip-path="url(#p75b1531fd0)" style="fill: none; stroke: #000000; stroke-width: 0.75"/>
   </g>
   <g id="line2d_30">
    <path d="M 390.857143 169.19776 
L 390.857143 148.5529 
" style="fill: none; stroke: #d2c5d2; stroke-width: 2; stroke-linecap: square"/>
   </g>
   <g id="line2d_31">
    <path d="M 390.857143 143.23066 
L 390.857143 122.585799 
" style="fill: none; stroke: #d2c5d2; stroke-width: 2; stroke-linecap: square"/>
   </g>
   <g id="line2d_32">
    <path d="M 444 137.056612 
L 444 130.567922 
" style="fill: none; stroke: #c08abd; stroke-width: 2; stroke-linecap: square"/>
   </g>
   <g id="line2d_33">
    <path d="M 444 125.245682 
L 444 118.756992 
" style="fill: none; stroke: #c08abd; stroke-width: 2; stroke-linecap: square"/>
   </g>
   <g id="text_28">
    <text style="font: 12px 'inter', sans-serif; text-anchor: middle" x="422.742857" y="63.12" transform="rotate(-0 422.742857 63.12)">Mid-brain 5HT</text>
   </g>
   <g id="axes_4">
    <g id="PolyCollection_2">
     <defs>
      <path id="m1f08adbc80" d="M 497.162427 -410.923964 
L 497.143301 -410.923964 
L 497.143301 -411.626571 
L 497.143301 -412.329177 
L 497.143301 -413.031784 
L 497.143301 -413.73439 
L 497.143301 -414.436997 
L 497.143301 -415.139603 
L 497.143301 -415.84221 
L 497.143301 -416.544817 
L 497.143301 -417.247423 
L 497.143301 -417.95003 
L 497.143301 -418.652636 
L 497.143301 -419.355243 
L 497.143301 -420.057849 
L 497.143301 -420.760456 
L 497.143301 -421.463062 
L 497.143301 -422.165669 
L 497.143301 -422.868275 
L 497.143301 -423.570882 
L 497.143301 -424.273489 
L 497.143301 -424.976095 
L 497.143301 -425.678702 
L 497.143301 -426.381308 
L 497.143301 -427.083915 
L 497.143301 -427.786521 
L 497.143301 -428.489128 
L 497.143301 -429.191734 
L 497.143301 -429.894341 
L 497.143301 -430.596947 
L 497.143301 -431.299554 
L 497.143301 -432.002161 
L 497.143301 -432.704767 
L 497.143301 -433.407374 
L 497.143301 -434.10998 
L 497.143301 -434.812587 
L 497.143301 -435.515193 
L 497.143301 -436.2178 
L 497.143301 -436.920406 
L 497.143301 -437.623013 
L 497.143301 -438.325619 
L 497.143301 -439.028226 
L 497.143301 -439.730833 
L 497.143301 -440.433439 
L 497.143301 -441.136046 
L 497.143301 -441.838652 
L 497.143301 -442.541259 
L 497.143301 -443.243865 
L 497.143301 -443.946472 
L 497.143301 -444.649078 
L 497.143301 -445.351685 
L 497.143301 -446.054291 
L 497.143301 -446.756898 
L 497.143301 -447.459505 
L 497.143301 -448.162111 
L 497.143301 -448.864718 
L 497.143301 -449.567324 
L 497.143301 -450.269931 
L 497.143301 -450.972537 
L 497.143301 -451.675144 
L 497.143301 -452.37775 
L 497.143301 -453.080357 
L 497.143301 -453.782963 
L 497.143301 -454.48557 
L 497.143301 -455.188177 
L 497.143301 -455.890783 
L 497.143301 -456.59339 
L 497.143301 -457.295996 
L 497.143301 -457.998603 
L 497.143301 -458.701209 
L 497.143301 -459.403816 
L 497.143301 -460.106422 
L 497.143301 -460.809029 
L 497.143301 -461.511635 
L 497.143301 -462.214242 
L 497.143301 -462.916849 
L 497.143301 -463.619455 
L 497.143301 -464.322062 
L 497.143301 -465.024668 
L 497.143301 -465.727275 
L 497.143301 -466.429881 
L 497.143301 -467.132488 
L 497.143301 -467.835094 
L 497.143301 -468.537701 
L 497.143301 -469.240307 
L 497.143301 -469.942914 
L 497.143301 -470.645521 
L 497.143301 -471.348127 
L 497.143301 -472.050734 
L 497.143301 -472.75334 
L 497.143301 -473.455947 
L 497.143301 -474.158553 
L 497.143301 -474.86116 
L 497.143301 -475.563766 
L 497.143301 -476.266373 
L 497.143301 -476.968979 
L 497.143301 -477.671586 
L 497.143301 -478.374193 
L 497.143301 -479.076799 
L 497.143301 -479.779406 
L 497.143301 -480.482012 
L 497.193842 -480.482012 
L 497.193842 -480.482012 
L 497.21667 -479.779406 
L 497.2466 -479.076799 
L 497.286245 -478.374193 
L 497.339285 -477.671586 
L 497.409428 -476.968979 
L 497.498749 -476.266373 
L 497.606631 -475.563766 
L 497.730316 -474.86116 
L 497.866633 -474.158553 
L 498.013347 -473.455947 
L 498.169189 -472.75334 
L 498.333139 -472.050734 
L 498.504202 -471.348127 
L 498.682034 -470.645521 
L 498.867756 -469.942914 
L 499.064297 -469.240307 
L 499.276238 -468.537701 
L 499.509265 -467.835094 
L 499.768837 -467.132488 
L 500.057691 -466.429881 
L 500.373028 -465.727275 
L 500.705778 -465.024668 
L 501.044108 -464.322062 
L 501.380144 -463.619455 
L 501.715502 -462.916849 
L 502.061504 -462.214242 
L 502.434097 -461.511635 
L 502.847168 -460.809029 
L 503.307716 -460.106422 
L 503.813431 -459.403816 
L 504.351554 -458.701209 
L 504.898523 -457.998603 
L 505.421685 -457.295996 
L 505.885171 -456.59339 
L 506.260434 -455.890783 
L 506.537957 -455.188177 
L 506.733357 -454.48557 
L 506.8823 -453.782963 
L 507.024886 -453.080357 
L 507.187016 -452.37775 
L 507.368919 -451.675144 
L 507.547214 -450.972537 
L 507.688715 -450.269931 
L 507.766928 -449.567324 
L 507.771429 -448.864718 
L 507.706631 -448.162111 
L 507.584171 -447.459505 
L 507.416048 -446.756898 
L 507.212598 -446.054291 
L 506.98391 -445.351685 
L 506.740226 -444.649078 
L 506.488925 -443.946472 
L 506.230928 -443.243865 
L 505.961558 -442.541259 
L 505.676725 -441.838652 
L 505.379264 -441.136046 
L 505.079242 -440.433439 
L 504.786864 -439.730833 
L 504.502767 -439.028226 
L 504.213563 -438.325619 
L 503.897946 -437.623013 
L 503.540843 -436.920406 
L 503.145472 -436.2178 
L 502.733584 -435.515193 
L 502.333469 -434.812587 
L 501.964924 -434.10998 
L 501.631546 -433.407374 
L 501.323829 -432.704767 
L 501.028742 -432.002161 
L 500.73844 -431.299554 
L 500.453193 -430.596947 
L 500.17823 -429.894341 
L 499.917802 -429.191734 
L 499.67079 -428.489128 
L 499.430947 -427.786521 
L 499.191887 -427.083915 
L 498.953232 -426.381308 
L 498.722881 -425.678702 
L 498.513093 -424.976095 
L 498.333122 -424.273489 
L 498.183821 -423.570882 
L 498.057799 -422.868275 
L 497.944361 -422.165669 
L 497.835281 -421.463062 
L 497.727697 -420.760456 
L 497.623394 -420.057849 
L 497.526282 -419.355243 
L 497.440162 -418.652636 
L 497.367536 -417.95003 
L 497.309259 -417.247423 
L 497.264668 -416.544817 
L 497.232001 -415.84221 
L 497.208955 -415.139603 
L 497.19318 -414.436997 
L 497.182588 -413.73439 
L 497.175453 -413.031784 
L 497.170384 -412.329177 
L 497.166292 -411.626571 
L 497.162427 -410.923964 
z
"/>
     </defs>
     <g clip-path="url(#p99f5a36ae0)">
      <use xlink:href="#m1f08adbc80" x="0" y="576" style="fill: #da70d6; fill-opacity: 0.8"/>
     </g>
    </g>
    <g id="matplotlib.axis_7">
     <g id="xtick_6">
      <g id="line2d_34">
       <g>
        <use xlink:href="#mb5ddfb9eb6" x="497.142857" y="246.528" style="stroke: #000000; stroke-width: 0.8"/>
       </g>
      </g>
      <g id="text_29">
       <text style="font: 12px 'inter', sans-serif" transform="translate(474.957857 262.256125)">Starved</text>
       <text style="font: 12px 'inter', sans-serif" transform="translate(480.369107 275.18425)">minus</text>
       <text style="font: 12px 'inter', sans-serif" transform="translate(486.403795 288.112375)">Fed</text>
      </g>
     </g>
    </g>
    <g id="matplotlib.axis_8">
     <g id="ytick_19">
      <g id="line2d_35">
       <g>
        <use xlink:href="#m1fa82d9a33" x="518.4" y="242.65978" style="stroke: #000000; stroke-width: 0.8"/>
       </g>
      </g>
      <g id="text_30">
       <text style="font: 10px 'inter', sans-serif; text-anchor: start" x="525.4" y="246.296499" transform="rotate(-0 525.4 246.296499)">−300</text>
      </g>
     </g>
     <g id="ytick_20">
      <g id="line2d_36">
       <g>
        <use xlink:href="#m1fa82d9a33" x="518.4" y="210.40378" style="stroke: #000000; stroke-width: 0.8"/>
       </g>
      </g>
      <g id="text_31">
       <text style="font: 10px 'inter', sans-serif; text-anchor: start" x="525.4" y="214.040499" transform="rotate(-0 525.4 214.040499)">−200</text>
      </g>
     </g>
     <g id="ytick_21">
      <g id="line2d_37">
       <g>
        <use xlink:href="#m1fa82d9a33" x="518.4" y="178.14778" style="stroke: #000000; stroke-width: 0.8"/>
       </g>
      </g>
      <g id="text_32">
       <text style="font: 10px 'inter', sans-serif; text-anchor: start" x="525.4" y="181.784499" transform="rotate(-0 525.4 181.784499)">−100</text>
      </g>
     </g>
     <g id="ytick_22">
      <g id="line2d_38">
       <g>
        <use xlink:href="#m1fa82d9a33" x="518.4" y="145.89178" style="stroke: #000000; stroke-width: 0.8"/>
       </g>
      </g>
      <g id="text_33">
       <text style="font: 10px 'inter', sans-serif; text-anchor: start" x="525.4" y="149.528499" transform="rotate(-0 525.4 149.528499)">0</text>
      </g>
     </g>
     <g id="ytick_23">
      <g id="line2d_39">
       <g>
        <use xlink:href="#m1fa82d9a33" x="518.4" y="113.63578" style="stroke: #000000; stroke-width: 0.8"/>
       </g>
      </g>
      <g id="text_34">
       <text style="font: 10px 'inter', sans-serif; text-anchor: start" x="525.4" y="117.272499" transform="rotate(-0 525.4 117.272499)">100</text>
      </g>
     </g>
     <g id="ytick_24">
      <g id="line2d_40">
       <g>
        <use xlink:href="#m1fa82d9a33" x="518.4" y="81.37978" style="stroke: #000000; stroke-width: 0.8"/>
       </g>
      </g>
      <g id="text_35">
       <text style="font: 10px 'inter', sans-serif; text-anchor: start" x="525.4" y="85.016499" transform="rotate(-0 525.4 85.016499)">200</text>
      </g>
     </g>
     <g id="text_36">
      <text style="font: 12px 'inter', sans-serif; text-anchor: middle" x="563.582813" y="157.824" transform="rotate(-90 563.582813 157.824)">Mean difference</text>
     </g>
    </g>
    <g id="line2d_41">
     <path d="M 497.142857 127.906802 
" clip-path="url(#p99f5a36ae0)" style="fill: none; stroke: #000000; stroke-width: 1.5; stroke-linecap: square"/>
     <g clip-path="url(#p99f5a36ae0)">
      <use xlink:href="#mea2f4a50cd" x="497.142857" y="127.906802" style="stroke: #000000"/>
     </g>
    </g>
    <g id="line2d_42">
     <path d="M 497.142857 150.844608 
L 497.142857 107.851634 
" clip-path="url(#p99f5a36ae0)" style="fill: none; stroke: #000000; stroke-width: 2; stroke-linecap: square"/>
    </g>
    <g id="LineCollection_11">
     <path d="M 454.628571 145.89178 
L 518.4 145.89178 
" clip-path="url(#p99f5a36ae0)" style="fill: none; stroke: #000000; stroke-width: 0.75"/>
    </g>
    <g id="LineCollection_12">
     <path d="M 471.634286 127.906802 
L 518.4 127.906802 
" clip-path="url(#p99f5a36ae0)" style="fill: none; stroke: #000000; stroke-width: 0.75"/>
    </g>
    <g id="LineCollection_13">
     <defs>
      <path id="m455eee440e" d="M 484.388571 -329.472 
L 518.4 -329.472 
" style="stroke: #000000"/>
     </defs>
     <g>
      <use xlink:href="#m455eee440e" x="0" y="576" style="stroke: #000000"/>
     </g>
    </g>
    <g id="LineCollection_14">
     <defs>
      <path id="m4600759773" d="M 518.4 -329.472 
L 518.4 -506.88 
" style="stroke: #000000"/>
     </defs>
     <g>
      <use xlink:href="#m4600759773" x="0" y="576" style="stroke: #000000"/>
     </g>
    </g>
   </g>
   <g id="LineCollection_15">
    <defs>
     <path id="m759e735d50" d="M 369.6 -329.472 
L 465.257143 -329.472 
" style="stroke: #000000"/>
    </defs>
    <g>
     <use xlink:href="#m759e735d50" x="0" y="576" style="stroke: #000000"/>
    </g>
   </g>
   <g id="LineCollection_16">
    <defs>
     <path id="me9c343951d" d="M 369.6 -329.472 
L 369.6 -506.88 
" style="stroke: #000000"/>
    </defs>
    <g>
     <use xlink:href="#me9c343951d" x="0" y="576" style="stroke: #000000"/>
    </g>
   </g>
  </g>
  <g id="axes_5">
   <g id="PathCollection_5">
    <defs>
     <path id="C4_0_206460e796" d="M 0 2.44949 
C 0.649612 2.44949 1.272706 2.191396 1.732051 1.732051 
C 2.191396 1.272706 2.44949 0.649612 2.44949 -0 
C 2.44949 -0.649612 2.191396 -1.272706 1.732051 -1.732051 
C 1.272706 -2.191396 0.649612 -2.44949 0 -2.44949 
C -0.649612 -2.44949 -1.272706 -2.191396 -1.732051 -1.732051 
C -2.191396 -1.272706 -2.44949 -0.649612 -2.44949 0 
C -2.44949 0.649612 -2.191396 1.272706 -1.732051 1.732051 
C -1.272706 2.191396 -0.649612 2.44949 0 2.44949 
z
"/>
    </defs>
    <g clip-path="url(#p31713cc993)">
     <use xlink:href="#C4_0_206460e796" x="98.571429" y="408.019277" style="fill: #bbc6d3; stroke: #bbc6d3"/>
    </g>
    <g clip-path="url(#p31713cc993)">
     <use xlink:href="#C4_0_206460e796" x="98.571429" y="366.633539" style="fill: #bbc6d3; stroke: #bbc6d3"/>
    </g>
    <g clip-path="url(#p31713cc993)">
     <use xlink:href="#C4_0_206460e796" x="98.571429" y="348.285358" style="fill: #bbc6d3; stroke: #bbc6d3"/>
    </g>
    <g clip-path="url(#p31713cc993)">
     <use xlink:href="#C4_0_206460e796" x="98.571429" y="340.898734" style="fill: #bbc6d3; stroke: #bbc6d3"/>
    </g>
   </g>
   <g id="PathCollection_6">
    <defs>
     <path id="C5_0_ce07e18573" d="M 0 2.44949 
C 0.649612 2.44949 1.272706 2.191396 1.732051 1.732051 
C 2.191396 1.272706 2.44949 0.649612 2.44949 -0 
C 2.44949 -0.649612 2.191396 -1.272706 1.732051 -1.732051 
C 1.272706 -2.191396 0.649612 -2.44949 0 -2.44949 
C -0.649612 -2.44949 -1.272706 -2.191396 -1.732051 -1.732051 
C -2.191396 -1.272706 -2.44949 -0.649612 -2.44949 0 
C -2.44949 0.649612 -2.191396 1.272706 -1.732051 1.732051 
C -1.272706 2.191396 -0.649612 2.44949 0 2.44949 
z
"/>
    </defs>
    <g clip-path="url(#p31713cc993)">
     <use xlink:href="#C5_0_ce07e18573" x="151.714286" y="440.176896" style="fill: #627f98; stroke: #627f98"/>
    </g>
    <g clip-path="url(#p31713cc993)">
     <use xlink:href="#C5_0_ce07e18573" x="151.714286" y="432.024837" style="fill: #627f98; stroke: #627f98"/>
    </g>
    <g clip-path="url(#p31713cc993)">
     <use xlink:href="#C5_0_ce07e18573" x="151.714286" y="416.924836" style="fill: #627f98; stroke: #627f98"/>
    </g>
    <g clip-path="url(#p31713cc993)">
     <use xlink:href="#C5_0_ce07e18573" x="151.714286" y="373.222794" style="fill: #627f98; stroke: #627f98"/>
    </g>
   </g>
   <g id="matplotlib.axis_9">
    <g id="xtick_7">
     <g id="line2d_43">
      <g>
       <use xlink:href="#mb5ddfb9eb6" x="98.571429" y="512.64" style="stroke: #000000; stroke-width: 0.8"/>
      </g>
     </g>
     <g id="text_37">
      <text style="font: 12px 'inter', sans-serif" transform="translate(87.832366 528.368125)">Fed</text>
      <text style="font: 12px 'inter', sans-serif" transform="translate(82.872991 541.29625)">N = 4</text>
     </g>
    </g>
    <g id="xtick_8">
     <g id="line2d_44">
      <g>
       <use xlink:href="#mb5ddfb9eb6" x="151.714286" y="512.64" style="stroke: #000000; stroke-width: 0.8"/>
      </g>
     </g>
     <g id="text_38">
      <text style="font: 12px 'inter', sans-serif" transform="translate(129.529286 528.368125)">Starved</text>
      <text style="font: 12px 'inter', sans-serif" transform="translate(136.015848 541.29625)">N = 4</text>
     </g>
    </g>
   </g>
   <g id="matplotlib.axis_10">
    <g id="ytick_25">
     <g id="line2d_45">
      <g>
       <use xlink:href="#m88a6bbb8ee" x="72" y="512.64" style="stroke: #000000; stroke-width: 0.8"/>
      </g>
     </g>
     <g id="text_39">
      <text style="font: 10px 'inter', sans-serif; text-anchor: end" x="65" y="516.276719" transform="rotate(-0 65 516.276719)">0</text>
     </g>
    </g>
    <g id="ytick_26">
     <g id="line2d_46">
      <g>
       <use xlink:href="#m88a6bbb8ee" x="72" y="480.384" style="stroke: #000000; stroke-width: 0.8"/>
      </g>
     </g>
     <g id="text_40">
      <text style="font: 10px 'inter', sans-serif; text-anchor: end" x="65" y="484.020719" transform="rotate(-0 65 484.020719)">100</text>
     </g>
    </g>
    <g id="ytick_27">
     <g id="line2d_47">
      <g>
       <use xlink:href="#m88a6bbb8ee" x="72" y="448.128" style="stroke: #000000; stroke-width: 0.8"/>
      </g>
     </g>
     <g id="text_41">
      <text style="font: 10px 'inter', sans-serif; text-anchor: end" x="65" y="451.764719" transform="rotate(-0 65 451.764719)">200</text>
     </g>
    </g>
    <g id="ytick_28">
     <g id="line2d_48">
      <g>
       <use xlink:href="#m88a6bbb8ee" x="72" y="415.872" style="stroke: #000000; stroke-width: 0.8"/>
      </g>
     </g>
     <g id="text_42">
      <text style="font: 10px 'inter', sans-serif; text-anchor: end" x="65" y="419.508719" transform="rotate(-0 65 419.508719)">300</text>
     </g>
    </g>
    <g id="ytick_29">
     <g id="line2d_49">
      <g>
       <use xlink:href="#m88a6bbb8ee" x="72" y="383.616" style="stroke: #000000; stroke-width: 0.8"/>
      </g>
     </g>
     <g id="text_43">
      <text style="font: 10px 'inter', sans-serif; text-anchor: end" x="65" y="387.252719" transform="rotate(-0 65 387.252719)">400</text>
     </g>
    </g>
    <g id="ytick_30">
     <g id="line2d_50">
      <g>
       <use xlink:href="#m88a6bbb8ee" x="72" y="351.36" style="stroke: #000000; stroke-width: 0.8"/>
      </g>
     </g>
     <g id="text_44">
      <text style="font: 10px 'inter', sans-serif; text-anchor: end" x="65" y="354.996719" transform="rotate(-0 65 354.996719)">500</text>
     </g>
    </g>
    <g id="text_45">
     <text style="font: 12px 'inter', sans-serif; text-anchor: middle" x="39.625312" y="423.936" transform="rotate(-90 39.625312 423.936)">nc82 Intensity</text>
    </g>
   </g>
   <g id="LineCollection_17">
    <path d="M 98.571429 365.959227 
L 178.285714 365.959227 
" clip-path="url(#p31713cc993)" style="fill: none; stroke: #000000; stroke-width: 0.75"/>
   </g>
   <g id="LineCollection_18">
    <path d="M 151.714286 415.587341 
L 178.285714 415.587341 
" clip-path="url(#p31713cc993)" style="fill: none; stroke: #000000; stroke-width: 0.75"/>
   </g>
   <g id="line2d_51">
    <path d="M 93.257143 396.014157 
L 93.257143 368.620347 
" style="fill: none; stroke: #bbc6d3; stroke-width: 2; stroke-linecap: square"/>
   </g>
   <g id="line2d_52">
    <path d="M 93.257143 363.298107 
L 93.257143 335.904297 
" style="fill: none; stroke: #bbc6d3; stroke-width: 2; stroke-linecap: square"/>
   </g>
   <g id="line2d_53">
    <path d="M 146.4 445.427924 
L 146.4 418.248461 
" style="fill: none; stroke: #627f98; stroke-width: 2; stroke-linecap: square"/>
   </g>
   <g id="line2d_54">
    <path d="M 146.4 412.926221 
L 146.4 385.746758 
" style="fill: none; stroke: #627f98; stroke-width: 2; stroke-linecap: square"/>
   </g>
   <g id="text_46">
    <text style="font: 12px 'inter', sans-serif; text-anchor: middle" x="125.142857" y="329.232" transform="rotate(-0 125.142857 329.232)">VNC brp</text>
   </g>
   <g id="axes_6">
    <g id="PolyCollection_3">
     <defs>
      <path id="m7a1f75c12c" d="M 199.780171 -114.455923 
L 199.545282 -114.455923 
L 199.545282 -115.662548 
L 199.545282 -116.869172 
L 199.545282 -118.075797 
L 199.545282 -119.282421 
L 199.545282 -120.489046 
L 199.545282 -121.69567 
L 199.545282 -122.902294 
L 199.545282 -124.108919 
L 199.545282 -125.315543 
L 199.545282 -126.522168 
L 199.545282 -127.728792 
L 199.545282 -128.935417 
L 199.545282 -130.142041 
L 199.545282 -131.348666 
L 199.545282 -132.55529 
L 199.545282 -133.761915 
L 199.545282 -134.968539 
L 199.545282 -136.175164 
L 199.545282 -137.381788 
L 199.545282 -138.588413 
L 199.545282 -139.795037 
L 199.545282 -141.001661 
L 199.545282 -142.208286 
L 199.545282 -143.41491 
L 199.545282 -144.621535 
L 199.545282 -145.828159 
L 199.545282 -147.034784 
L 199.545282 -148.241408 
L 199.545282 -149.448033 
L 199.545282 -150.654657 
L 199.545282 -151.861282 
L 199.545282 -153.067906 
L 199.545282 -154.274531 
L 199.545282 -155.481155 
L 199.545282 -156.687779 
L 199.545282 -157.894404 
L 199.545282 -159.101028 
L 199.545282 -160.307653 
L 199.545282 -161.514277 
L 199.545282 -162.720902 
L 199.545282 -163.927526 
L 199.545282 -165.134151 
L 199.545282 -166.340775 
L 199.545282 -167.5474 
L 199.545282 -168.754024 
L 199.545282 -169.960649 
L 199.545282 -171.167273 
L 199.545282 -172.373898 
L 199.545282 -173.580522 
L 199.545282 -174.787146 
L 199.545282 -175.993771 
L 199.545282 -177.200395 
L 199.545282 -178.40702 
L 199.545282 -179.613644 
L 199.545282 -180.820269 
L 199.545282 -182.026893 
L 199.545282 -183.233518 
L 199.545282 -184.440142 
L 199.545282 -185.646767 
L 199.545282 -186.853391 
L 199.545282 -188.060016 
L 199.545282 -189.26664 
L 199.545282 -190.473265 
L 199.545282 -191.679889 
L 199.545282 -192.886513 
L 199.545282 -194.093138 
L 199.545282 -195.299762 
L 199.545282 -196.506387 
L 199.545282 -197.713011 
L 199.545282 -198.919636 
L 199.545282 -200.12626 
L 199.545282 -201.332885 
L 199.545282 -202.539509 
L 199.545282 -203.746134 
L 199.545282 -204.952758 
L 199.545282 -206.159383 
L 199.545282 -207.366007 
L 199.545282 -208.572632 
L 199.545282 -209.779256 
L 199.545282 -210.98588 
L 199.545282 -212.192505 
L 199.545282 -213.399129 
L 199.545282 -214.605754 
L 199.545282 -215.812378 
L 199.545282 -217.019003 
L 199.545282 -218.225627 
L 199.545282 -219.432252 
L 199.545282 -220.638876 
L 199.545282 -221.845501 
L 199.545282 -223.052125 
L 199.545282 -224.25875 
L 199.545282 -225.465374 
L 199.545282 -226.671998 
L 199.545282 -227.878623 
L 199.545282 -229.085247 
L 199.545282 -230.291872 
L 199.545282 -231.498496 
L 199.545282 -232.705121 
L 199.545282 -233.911745 
L 199.560568 -233.911745 
L 199.560568 -233.911745 
L 199.562526 -232.705121 
L 199.563193 -231.498496 
L 199.562845 -230.291872 
L 199.562365 -229.085247 
L 199.563328 -227.878623 
L 199.567961 -226.671998 
L 199.57885 -225.465374 
L 199.598272 -224.25875 
L 199.627163 -223.052125 
L 199.664044 -221.845501 
L 199.704666 -220.638876 
L 199.743128 -219.432252 
L 199.774357 -218.225627 
L 199.796611 -217.019003 
L 199.812422 -215.812378 
L 199.82752 -214.605754 
L 199.848703 -213.399129 
L 199.881949 -212.192505 
L 199.931309 -210.98588 
L 199.998539 -209.779256 
L 200.083154 -208.572632 
L 200.182536 -207.366007 
L 200.291849 -206.159383 
L 200.404411 -204.952758 
L 200.513602 -203.746134 
L 200.61611 -202.539509 
L 200.714171 -201.332885 
L 200.814669 -200.12626 
L 200.926125 -198.919636 
L 201.056723 -197.713011 
L 201.21449 -196.506387 
L 201.407196 -195.299762 
L 201.639682 -194.093138 
L 201.910212 -192.886513 
L 202.209406 -191.679889 
L 202.522661 -190.473265 
L 202.833851 -189.26664 
L 203.128812 -188.060016 
L 203.399185 -186.853391 
L 203.646083 -185.646767 
L 203.880431 -184.440142 
L 204.118317 -183.233518 
L 204.374657 -182.026893 
L 204.659991 -180.820269 
L 204.980859 -179.613644 
L 205.340168 -178.40702 
L 205.735733 -177.200395 
L 206.159132 -175.993771 
L 206.596983 -174.787146 
L 207.033725 -173.580522 
L 207.453985 -172.373898 
L 207.844589 -171.167273 
L 208.196709 -169.960649 
L 208.506918 -168.754024 
L 208.775991 -167.5474 
L 209.00739 -166.340775 
L 209.208287 -165.134151 
L 209.391478 -163.927526 
L 209.572409 -162.720902 
L 209.75911 -161.514277 
L 209.941601 -160.307653 
L 210.090946 -159.101028 
L 210.171429 -157.894404 
L 210.158637 -156.687779 
L 210.05156 -155.481155 
L 209.871674 -154.274531 
L 209.651345 -153.067906 
L 209.419927 -151.861282 
L 209.194877 -150.654657 
L 208.979951 -149.448033 
L 208.768202 -148.241408 
L 208.546723 -147.034784 
L 208.301147 -145.828159 
L 208.018887 -144.621535 
L 207.690672 -143.41491 
L 207.311062 -142.208286 
L 206.879614 -141.001661 
L 206.403232 -139.795037 
L 205.89746 -138.588413 
L 205.383484 -137.381788 
L 204.880692 -136.175164 
L 204.399355 -134.968539 
L 203.938929 -133.761915 
L 203.493248 -132.55529 
L 203.058498 -131.348666 
L 202.638329 -130.142041 
L 202.243306 -128.935417 
L 201.88596 -127.728792 
L 201.57466 -126.522168 
L 201.309317 -125.315543 
L 201.080857 -124.108919 
L 200.874962 -122.902294 
L 200.67868 -121.69567 
L 200.486429 -120.489046 
L 200.301695 -119.282421 
L 200.133343 -118.075797 
L 199.98935 -116.869172 
L 199.872454 -115.662548 
L 199.780171 -114.455923 
z
"/>
     </defs>
     <g clip-path="url(#p47a8ffd67f)">
      <use xlink:href="#m7a1f75c12c" x="0" y="576" style="fill: #4682b4; fill-opacity: 0.8"/>
     </g>
    </g>
    <g id="matplotlib.axis_11">
     <g id="xtick_9">
      <g id="line2d_55">
       <g>
        <use xlink:href="#mb5ddfb9eb6" x="199.542857" y="512.64" style="stroke: #000000; stroke-width: 0.8"/>
       </g>
      </g>
      <g id="text_47">
       <text style="font: 12px 'inter', sans-serif" transform="translate(177.357857 528.368125)">Starved</text>
       <text style="font: 12px 'inter', sans-serif" transform="translate(182.769107 541.29625)">minus</text>
       <text style="font: 12px 'inter', sans-serif" transform="translate(188.803795 554.224375)">Fed</text>
      </g>
     </g>
    </g>
    <g id="matplotlib.axis_12">
     <g id="ytick_31">
      <g id="line2d_56">
       <g>
        <use xlink:href="#m1fa82d9a33" x="220.8" y="494.983227" style="stroke: #000000; stroke-width: 0.8"/>
       </g>
      </g>
      <g id="text_48">
       <text style="font: 10px 'inter', sans-serif; text-anchor: start" x="227.8" y="498.619946" transform="rotate(-0 227.8 498.619946)">−400</text>
      </g>
     </g>
     <g id="ytick_32">
      <g id="line2d_57">
       <g>
        <use xlink:href="#m1fa82d9a33" x="220.8" y="462.727227" style="stroke: #000000; stroke-width: 0.8"/>
       </g>
      </g>
      <g id="text_49">
       <text style="font: 10px 'inter', sans-serif; text-anchor: start" x="227.8" y="466.363946" transform="rotate(-0 227.8 466.363946)">−300</text>
      </g>
     </g>
     <g id="ytick_33">
      <g id="line2d_58">
       <g>
        <use xlink:href="#m1fa82d9a33" x="220.8" y="430.471227" style="stroke: #000000; stroke-width: 0.8"/>
       </g>
      </g>
      <g id="text_50">
       <text style="font: 10px 'inter', sans-serif; text-anchor: start" x="227.8" y="434.107946" transform="rotate(-0 227.8 434.107946)">−200</text>
      </g>
     </g>
     <g id="ytick_34">
      <g id="line2d_59">
       <g>
        <use xlink:href="#m1fa82d9a33" x="220.8" y="398.215227" style="stroke: #000000; stroke-width: 0.8"/>
       </g>
      </g>
      <g id="text_51">
       <text style="font: 10px 'inter', sans-serif; text-anchor: start" x="227.8" y="401.851946" transform="rotate(-0 227.8 401.851946)">−100</text>
      </g>
     </g>
     <g id="ytick_35">
      <g id="line2d_60">
       <g>
        <use xlink:href="#m1fa82d9a33" x="220.8" y="365.959227" style="stroke: #000000; stroke-width: 0.8"/>
       </g>
      </g>
      <g id="text_52">
       <text style="font: 10px 'inter', sans-serif; text-anchor: start" x="227.8" y="369.595946" transform="rotate(-0 227.8 369.595946)">0</text>
      </g>
     </g>
     <g id="text_53">
      <text style="font: 12px 'inter', sans-serif; text-anchor: middle" x="266.039062" y="423.936" transform="rotate(-90 266.039062 423.936)">Mean difference</text>
     </g>
    </g>
    <g id="line2d_61">
     <path d="M 199.542857 415.587341 
" clip-path="url(#p47a8ffd67f)" style="fill: none; stroke: #000000; stroke-width: 1.5; stroke-linecap: square"/>
     <g clip-path="url(#p47a8ffd67f)">
      <use xlink:href="#mea2f4a50cd" x="199.542857" y="415.587341" style="stroke: #000000"/>
     </g>
    </g>
    <g id="line2d_62">
     <path d="M 199.542857 444.572582 
L 199.542857 369.173215 
" clip-path="url(#p47a8ffd67f)" style="fill: none; stroke: #000000; stroke-width: 2; stroke-linecap: square"/>
    </g>
    <g id="LineCollection_19">
     <path d="M 157.028571 365.959227 
L 220.8 365.959227 
" clip-path="url(#p47a8ffd67f)" style="fill: none; stroke: #000000; stroke-width: 0.75"/>
    </g>
    <g id="LineCollection_20">
     <path d="M 174.034286 415.587341 
L 220.8 415.587341 
" clip-path="url(#p47a8ffd67f)" style="fill: none; stroke: #000000; stroke-width: 0.75"/>
    </g>
    <g id="LineCollection_21">
     <defs>
      <path id="m59cbfa5f1a" d="M 186.788571 -63.36 
L 220.8 -63.36 
" style="stroke: #000000"/>
     </defs>
     <g>
      <use xlink:href="#m59cbfa5f1a" x="0" y="576" style="stroke: #000000"/>
     </g>
    </g>
    <g id="LineCollection_22">
     <defs>
      <path id="m24b788b937" d="M 220.8 -63.36 
L 220.8 -240.768 
" style="stroke: #000000"/>
     </defs>
     <g>
      <use xlink:href="#m24b788b937" x="0" y="576" style="stroke: #000000"/>
     </g>
    </g>
   </g>
   <g id="LineCollection_23">
    <defs>
     <path id="mf149a084e2" d="M 72 -63.36 
L 167.657143 -63.36 
" style="stroke: #000000"/>
    </defs>
    <g>
     <use xlink:href="#mf149a084e2" x="0" y="576" style="stroke: #000000"/>
    </g>
   </g>
   <g id="LineCollection_24">
    <defs>
     <path id="meb344cd931" d="M 72 -63.36 
L 72 -240.768 
" style="stroke: #000000"/>
    </defs>
    <g>
     <use xlink:href="#meb344cd931" x="0" y="576" style="stroke: #000000"/>
    </g>
   </g>
  </g>
  <g id="axes_7">
   <g id="PathCollection_7">
    <defs>
     <path id="C6_0_1a2a2a8850" d="M 0 2.44949 
C 0.649612 2.44949 1.272706 2.191396 1.732051 1.732051 
C 2.191396 1.272706 2.44949 0.649612 2.44949 -0 
C 2.44949 -0.649612 2.191396 -1.272706 1.732051 -1.732051 
C 1.272706 -2.191396 0.649612 -2.44949 0 -2.44949 
C -0.649612 -2.44949 -1.272706 -2.191396 -1.732051 -1.732051 
C -2.191396 -1.272706 -2.44949 -0.649612 -2.44949 0 
C -2.44949 0.649612 -2.191396 1.272706 -1.732051 1.732051 
C -1.272706 2.191396 -0.649612 2.44949 0 2.44949 
z
"/>
    </defs>
    <g clip-path="url(#p937fcaa406)">
     <use xlink:href="#C6_0_1a2a2a8850" x="396.171429" y="463.955052" style="fill: #d2c5d2; stroke: #d2c5d2"/>
    </g>
    <g clip-path="url(#p937fcaa406)">
     <use xlink:href="#C6_0_1a2a2a8850" x="396.171429" y="410.195589" style="fill: #d2c5d2; stroke: #d2c5d2"/>
    </g>
    <g clip-path="url(#p937fcaa406)">
     <use xlink:href="#C6_0_1a2a2a8850" x="396.171429" y="398.415698" style="fill: #d2c5d2; stroke: #d2c5d2"/>
    </g>
    <g clip-path="url(#p937fcaa406)">
     <use xlink:href="#C6_0_1a2a2a8850" x="396.171429" y="379.51723" style="fill: #d2c5d2; stroke: #d2c5d2"/>
    </g>
   </g>
   <g id="PathCollection_8">
    <defs>
     <path id="C7_0_5975baeb31" d="M 0 2.44949 
C 0.649612 2.44949 1.272706 2.191396 1.732051 1.732051 
C 2.191396 1.272706 2.44949 0.649612 2.44949 -0 
C 2.44949 -0.649612 2.191396 -1.272706 1.732051 -1.732051 
C 1.272706 -2.191396 0.649612 -2.44949 0 -2.44949 
C -0.649612 -2.44949 -1.272706 -2.191396 -1.732051 -1.732051 
C -2.191396 -1.272706 -2.44949 -0.649612 -2.44949 0 
C -2.44949 0.649612 -2.191396 1.272706 -1.732051 1.732051 
C -1.272706 2.191396 -0.649612 2.44949 0 2.44949 
z
"/>
    </defs>
    <g clip-path="url(#p937fcaa406)">
     <use xlink:href="#C7_0_5975baeb31" x="449.314286" y="418.103793" style="fill: #c08abd; stroke: #c08abd"/>
    </g>
    <g clip-path="url(#p937fcaa406)">
     <use xlink:href="#C7_0_5975baeb31" x="449.314286" y="385.76554" style="fill: #c08abd; stroke: #c08abd"/>
    </g>
    <g clip-path="url(#p937fcaa406)">
     <use xlink:href="#C7_0_5975baeb31" x="453.044015" y="380.421366" style="fill: #c08abd; stroke: #c08abd"/>
    </g>
    <g clip-path="url(#p937fcaa406)">
     <use xlink:href="#C7_0_5975baeb31" x="459.497796" y="379.51594" style="fill: #c08abd; stroke: #c08abd"/>
    </g>
   </g>
   <g id="matplotlib.axis_13">
    <g id="xtick_10">
     <g id="line2d_63">
      <g>
       <use xlink:href="#mb5ddfb9eb6" x="396.171429" y="512.64" style="stroke: #000000; stroke-width: 0.8"/>
      </g>
     </g>
     <g id="text_54">
      <text style="font: 12px 'inter', sans-serif" transform="translate(385.432366 528.368125)">Fed</text>
      <text style="font: 12px 'inter', sans-serif" transform="translate(380.472991 541.29625)">N = 4</text>
     </g>
    </g>
    <g id="xtick_11">
     <g id="line2d_64">
      <g>
       <use xlink:href="#mb5ddfb9eb6" x="449.314286" y="512.64" style="stroke: #000000; stroke-width: 0.8"/>
      </g>
     </g>
     <g id="text_55">
      <text style="font: 12px 'inter', sans-serif" transform="translate(427.129286 528.368125)">Starved</text>
      <text style="font: 12px 'inter', sans-serif" transform="translate(433.615848 541.29625)">N = 4</text>
     </g>
    </g>
   </g>
   <g id="matplotlib.axis_14">
    <g id="ytick_36">
     <g id="line2d_65">
      <g>
       <use xlink:href="#m88a6bbb8ee" x="369.6" y="512.64" style="stroke: #000000; stroke-width: 0.8"/>
      </g>
     </g>
     <g id="text_56">
      <text style="font: 10px 'inter', sans-serif; text-anchor: end" x="362.6" y="516.276719" transform="rotate(-0 362.6 516.276719)">0</text>
     </g>
    </g>
    <g id="ytick_37">
     <g id="line2d_66">
      <g>
       <use xlink:href="#m88a6bbb8ee" x="369.6" y="480.384" style="stroke: #000000; stroke-width: 0.8"/>
      </g>
     </g>
     <g id="text_57">
      <text style="font: 10px 'inter', sans-serif; text-anchor: end" x="362.6" y="484.020719" transform="rotate(-0 362.6 484.020719)">100</text>
     </g>
    </g>
    <g id="ytick_38">
     <g id="line2d_67">
      <g>
       <use xlink:href="#m88a6bbb8ee" x="369.6" y="448.128" style="stroke: #000000; stroke-width: 0.8"/>
      </g>
     </g>
     <g id="text_58">
      <text style="font: 10px 'inter', sans-serif; text-anchor: end" x="362.6" y="451.764719" transform="rotate(-0 362.6 451.764719)">200</text>
     </g>
    </g>
    <g id="ytick_39">
     <g id="line2d_68">
      <g>
       <use xlink:href="#m88a6bbb8ee" x="369.6" y="415.872" style="stroke: #000000; stroke-width: 0.8"/>
      </g>
     </g>
     <g id="text_59">
      <text style="font: 10px 'inter', sans-serif; text-anchor: end" x="362.6" y="419.508719" transform="rotate(-0 362.6 419.508719)">300</text>
     </g>
    </g>
    <g id="ytick_40">
     <g id="line2d_69">
      <g>
       <use xlink:href="#m88a6bbb8ee" x="369.6" y="383.616" style="stroke: #000000; stroke-width: 0.8"/>
      </g>
     </g>
     <g id="text_60">
      <text style="font: 10px 'inter', sans-serif; text-anchor: end" x="362.6" y="387.252719" transform="rotate(-0 362.6 387.252719)">400</text>
     </g>
    </g>
    <g id="ytick_41">
     <g id="line2d_70">
      <g>
       <use xlink:href="#m88a6bbb8ee" x="369.6" y="351.36" style="stroke: #000000; stroke-width: 0.8"/>
      </g>
     </g>
     <g id="text_61">
      <text style="font: 10px 'inter', sans-serif; text-anchor: end" x="362.6" y="354.996719" transform="rotate(-0 362.6 354.996719)">500</text>
     </g>
    </g>
    <g id="text_62">
     <text style="font: 12px 'inter', sans-serif; text-anchor: middle" x="337.225312" y="423.936" transform="rotate(-90 337.225312 423.936)">5HT Intensity</text>
    </g>
   </g>
   <g id="LineCollection_25">
    <path d="M 396.171429 413.020892 
L 475.885714 413.020892 
" clip-path="url(#p937fcaa406)" style="fill: none; stroke: #000000; stroke-width: 0.75"/>
   </g>
   <g id="LineCollection_26">
    <path d="M 449.314286 390.95166 
L 475.885714 390.95166 
" clip-path="url(#p937fcaa406)" style="fill: none; stroke: #000000; stroke-width: 0.75"/>
   </g>
   <g id="line2d_71">
    <path d="M 390.857143 449.251993 
L 390.857143 415.682012 
" style="fill: none; stroke: #d2c5d2; stroke-width: 2; stroke-linecap: square"/>
   </g>
   <g id="line2d_72">
    <path d="M 390.857143 410.359772 
L 390.857143 376.789791 
" style="fill: none; stroke: #d2c5d2; stroke-width: 2; stroke-linecap: square"/>
   </g>
   <g id="line2d_73">
    <path d="M 444 409.26192 
L 444 393.61278 
" style="fill: none; stroke: #c08abd; stroke-width: 2; stroke-linecap: square"/>
   </g>
   <g id="line2d_74">
    <path d="M 444 388.29054 
L 444 372.641399 
" style="fill: none; stroke: #c08abd; stroke-width: 2; stroke-linecap: square"/>
   </g>
   <g id="text_63">
    <text style="font: 12px 'inter', sans-serif; text-anchor: middle" x="422.742857" y="329.232" transform="rotate(-0 422.742857 329.232)">VNC 5HT</text>
   </g>
   <g id="axes_8">
    <g id="PolyCollection_4">
     <defs>
      <path id="mefb3403447" d="M 497.198814 -134.039508 
L 497.143572 -134.039508 
L 497.143572 -135.180175 
L 497.143572 -136.320842 
L 497.143572 -137.461508 
L 497.143572 -138.602175 
L 497.143572 -139.742842 
L 497.143572 -140.883508 
L 497.143572 -142.024175 
L 497.143572 -143.164842 
L 497.143572 -144.305508 
L 497.143572 -145.446175 
L 497.143572 -146.586842 
L 497.143572 -147.727508 
L 497.143572 -148.868175 
L 497.143572 -150.008842 
L 497.143572 -151.149508 
L 497.143572 -152.290175 
L 497.143572 -153.430841 
L 497.143572 -154.571508 
L 497.143572 -155.712175 
L 497.143572 -156.852841 
L 497.143572 -157.993508 
L 497.143572 -159.134175 
L 497.143572 -160.274841 
L 497.143572 -161.415508 
L 497.143572 -162.556175 
L 497.143572 -163.696841 
L 497.143572 -164.837508 
L 497.143572 -165.978175 
L 497.143572 -167.118841 
L 497.143572 -168.259508 
L 497.143572 -169.400175 
L 497.143572 -170.540841 
L 497.143572 -171.681508 
L 497.143572 -172.822174 
L 497.143572 -173.962841 
L 497.143572 -175.103508 
L 497.143572 -176.244174 
L 497.143572 -177.384841 
L 497.143572 -178.525508 
L 497.143572 -179.666174 
L 497.143572 -180.806841 
L 497.143572 -181.947508 
L 497.143572 -183.088174 
L 497.143572 -184.228841 
L 497.143572 -185.369508 
L 497.143572 -186.510174 
L 497.143572 -187.650841 
L 497.143572 -188.791508 
L 497.143572 -189.932174 
L 497.143572 -191.072841 
L 497.143572 -192.213507 
L 497.143572 -193.354174 
L 497.143572 -194.494841 
L 497.143572 -195.635507 
L 497.143572 -196.776174 
L 497.143572 -197.916841 
L 497.143572 -199.057507 
L 497.143572 -200.198174 
L 497.143572 -201.338841 
L 497.143572 -202.479507 
L 497.143572 -203.620174 
L 497.143572 -204.760841 
L 497.143572 -205.901507 
L 497.143572 -207.042174 
L 497.143572 -208.182841 
L 497.143572 -209.323507 
L 497.143572 -210.464174 
L 497.143572 -211.60484 
L 497.143572 -212.745507 
L 497.143572 -213.886174 
L 497.143572 -215.02684 
L 497.143572 -216.167507 
L 497.143572 -217.308174 
L 497.143572 -218.44884 
L 497.143572 -219.589507 
L 497.143572 -220.730174 
L 497.143572 -221.87084 
L 497.143572 -223.011507 
L 497.143572 -224.152174 
L 497.143572 -225.29284 
L 497.143572 -226.433507 
L 497.143572 -227.574174 
L 497.143572 -228.71484 
L 497.143572 -229.855507 
L 497.143572 -230.996173 
L 497.143572 -232.13684 
L 497.143572 -233.277507 
L 497.143572 -234.418173 
L 497.143572 -235.55884 
L 497.143572 -236.699507 
L 497.143572 -237.840173 
L 497.143572 -238.98084 
L 497.143572 -240.121507 
L 497.143572 -241.262173 
L 497.143572 -242.40284 
L 497.143572 -243.543507 
L 497.143572 -244.684173 
L 497.143572 -245.82484 
L 497.143572 -246.965507 
L 497.176104 -246.965507 
L 497.176104 -246.965507 
L 497.180004 -245.82484 
L 497.182277 -244.684173 
L 497.185103 -243.543507 
L 497.192108 -242.40284 
L 497.207258 -241.262173 
L 497.23355 -240.121507 
L 497.272324 -238.98084 
L 497.32366 -237.840173 
L 497.387346 -236.699507 
L 497.463186 -235.55884 
L 497.549849 -234.418173 
L 497.643151 -233.277507 
L 497.735923 -232.13684 
L 497.82092 -230.996173 
L 497.895677 -229.855507 
L 497.96583 -228.71484 
L 498.043548 -227.574174 
L 498.140868 -226.433507 
L 498.262027 -225.29284 
L 498.40065 -224.152174 
L 498.544678 -223.011507 
L 498.685832 -221.87084 
L 498.826387 -220.730174 
L 498.977985 -219.589507 
L 499.153862 -218.44884 
L 499.36139 -217.308174 
L 499.601011 -216.167507 
L 499.871069 -215.02684 
L 500.172012 -213.886174 
L 500.504416 -212.745507 
L 500.862559 -211.60484 
L 501.231118 -210.464174 
L 501.590494 -209.323507 
L 501.928086 -208.182841 
L 502.246587 -207.042174 
L 502.56185 -205.901507 
L 502.890996 -204.760841 
L 503.239716 -203.620174 
L 503.599334 -202.479507 
L 503.956771 -201.338841 
L 504.309359 -200.198174 
L 504.671269 -199.057507 
L 505.064464 -197.916841 
L 505.499892 -196.776174 
L 505.963337 -195.635507 
L 506.417541 -194.494841 
L 506.819843 -193.354174 
L 507.14268 -192.213507 
L 507.382653 -191.072841 
L 507.553635 -189.932174 
L 507.671686 -188.791508 
L 507.744316 -187.650841 
L 507.771429 -186.510174 
L 507.755346 -185.369508 
L 507.71005 -184.228841 
L 507.660228 -183.088174 
L 507.628909 -181.947508 
L 507.622271 -180.806841 
L 507.623357 -179.666174 
L 507.600073 -178.525508 
L 507.522414 -177.384841 
L 507.377382 -176.244174 
L 507.171827 -175.103508 
L 506.922342 -173.962841 
L 506.641095 -172.822174 
L 506.329076 -171.681508 
L 505.980896 -170.540841 
L 505.594986 -169.400175 
L 505.179362 -168.259508 
L 504.748299 -167.118841 
L 504.313101 -165.978175 
L 503.874451 -164.837508 
L 503.422523 -163.696841 
L 502.945608 -162.556175 
L 502.44165 -161.415508 
L 501.9243 -160.274841 
L 501.418659 -159.134175 
L 500.949474 -157.993508 
L 500.530184 -156.852841 
L 500.1601 -155.712175 
L 499.830163 -154.571508 
L 499.531256 -153.430841 
L 499.258534 -152.290175 
L 499.010238 -151.149508 
L 498.784352 -150.008842 
L 498.576822 -148.868175 
L 498.382341 -147.727508 
L 498.196494 -146.586842 
L 498.017814 -145.446175 
L 497.848751 -144.305508 
L 497.694934 -143.164842 
L 497.562795 -142.024175 
L 497.456632 -140.883508 
L 497.37664 -139.742842 
L 497.31893 -138.602175 
L 497.277332 -137.461508 
L 497.245829 -136.320842 
L 497.220283 -135.180175 
L 497.198814 -134.039508 
z
"/>
     </defs>
     <g clip-path="url(#p6c36308e69)">
      <use xlink:href="#mefb3403447" x="0" y="576" style="fill: #da70d6; fill-opacity: 0.8"/>
     </g>
    </g>
    <g id="matplotlib.axis_15">
     <g id="xtick_12">
      <g id="line2d_75">
       <g>
        <use xlink:href="#mb5ddfb9eb6" x="497.142857" y="512.64" style="stroke: #000000; stroke-width: 0.8"/>
       </g>
      </g>
      <g id="text_64">
       <text style="font: 12px 'inter', sans-serif" transform="translate(474.957857 528.368125)">Starved</text>
       <text style="font: 12px 'inter', sans-serif" transform="translate(480.369107 541.29625)">minus</text>
       <text style="font: 12px 'inter', sans-serif" transform="translate(486.403795 554.224375)">Fed</text>
      </g>
     </g>
    </g>
    <g id="matplotlib.axis_16">
     <g id="ytick_42">
      <g id="line2d_76">
       <g>
        <use xlink:href="#m1fa82d9a33" x="518.4" y="509.788892" style="stroke: #000000; stroke-width: 0.8"/>
       </g>
      </g>
      <g id="text_65">
       <text style="font: 10px 'inter', sans-serif; text-anchor: start" x="525.4" y="513.425611" transform="rotate(-0 525.4 513.425611)">−300</text>
      </g>
     </g>
     <g id="ytick_43">
      <g id="line2d_77">
       <g>
        <use xlink:href="#m1fa82d9a33" x="518.4" y="477.532892" style="stroke: #000000; stroke-width: 0.8"/>
       </g>
      </g>
      <g id="text_66">
       <text style="font: 10px 'inter', sans-serif; text-anchor: start" x="525.4" y="481.169611" transform="rotate(-0 525.4 481.169611)">−200</text>
      </g>
     </g>
     <g id="ytick_44">
      <g id="line2d_78">
       <g>
        <use xlink:href="#m1fa82d9a33" x="518.4" y="445.276892" style="stroke: #000000; stroke-width: 0.8"/>
       </g>
      </g>
      <g id="text_67">
       <text style="font: 10px 'inter', sans-serif; text-anchor: start" x="525.4" y="448.913611" transform="rotate(-0 525.4 448.913611)">−100</text>
      </g>
     </g>
     <g id="ytick_45">
      <g id="line2d_79">
       <g>
        <use xlink:href="#m1fa82d9a33" x="518.4" y="413.020892" style="stroke: #000000; stroke-width: 0.8"/>
       </g>
      </g>
      <g id="text_68">
       <text style="font: 10px 'inter', sans-serif; text-anchor: start" x="525.4" y="416.657611" transform="rotate(-0 525.4 416.657611)">0</text>
      </g>
     </g>
     <g id="ytick_46">
      <g id="line2d_80">
       <g>
        <use xlink:href="#m1fa82d9a33" x="518.4" y="380.764892" style="stroke: #000000; stroke-width: 0.8"/>
       </g>
      </g>
      <g id="text_69">
       <text style="font: 10px 'inter', sans-serif; text-anchor: start" x="525.4" y="384.401611" transform="rotate(-0 525.4 384.401611)">100</text>
      </g>
     </g>
     <g id="ytick_47">
      <g id="line2d_81">
       <g>
        <use xlink:href="#m1fa82d9a33" x="518.4" y="348.508892" style="stroke: #000000; stroke-width: 0.8"/>
       </g>
      </g>
      <g id="text_70">
       <text style="font: 10px 'inter', sans-serif; text-anchor: start" x="525.4" y="352.145611" transform="rotate(-0 525.4 352.145611)">200</text>
      </g>
     </g>
     <g id="text_71">
      <text style="font: 12px 'inter', sans-serif; text-anchor: middle" x="563.582813" y="423.936" transform="rotate(-90 563.582813 423.936)">Mean difference</text>
     </g>
    </g>
    <g id="line2d_82">
     <path d="M 497.142857 390.95166 
" clip-path="url(#p6c36308e69)" style="fill: none; stroke: #000000; stroke-width: 1.5; stroke-linecap: square"/>
     <g clip-path="url(#p6c36308e69)">
      <use xlink:href="#mea2f4a50cd" x="497.142857" y="390.95166" style="stroke: #000000"/>
     </g>
    </g>
    <g id="line2d_83">
     <path d="M 497.142857 421.264477 
L 497.142857 351.479992 
" clip-path="url(#p6c36308e69)" style="fill: none; stroke: #000000; stroke-width: 2; stroke-linecap: square"/>
    </g>
    <g id="LineCollection_27">
     <path d="M 454.628571 413.020892 
L 518.4 413.020892 
" clip-path="url(#p6c36308e69)" style="fill: none; stroke: #000000; stroke-width: 0.75"/>
    </g>
    <g id="LineCollection_28">
     <path d="M 471.634286 390.95166 
L 518.4 390.95166 
" clip-path="url(#p6c36308e69)" style="fill: none; stroke: #000000; stroke-width: 0.75"/>
    </g>
    <g id="LineCollection_29">
     <defs>
      <path id="m6334557e88" d="M 484.388571 -63.36 
L 518.4 -63.36 
" style="stroke: #000000"/>
     </defs>
     <g>
      <use xlink:href="#m6334557e88" x="0" y="576" style="stroke: #000000"/>
     </g>
    </g>
    <g id="LineCollection_30">
     <defs>
      <path id="mda6ec47ac6" d="M 518.4 -63.36 
L 518.4 -240.768 
" style="stroke: #000000"/>
     </defs>
     <g>
      <use xlink:href="#mda6ec47ac6" x="0" y="576" style="stroke: #000000"/>
     </g>
    </g>
   </g>
   <g id="LineCollection_31">
    <defs>
     <path id="m0d0a833e27" d="M 369.6 -63.36 
L 465.257143 -63.36 
" style="stroke: #000000"/>
    </defs>
    <g>
     <use xlink:href="#m0d0a833e27" x="0" y="576" style="stroke: #000000"/>
    </g>
   </g>
   <g id="LineCollection_32">
    <defs>
     <path id="m22866828eb" d="M 369.6 -63.36 
L 369.6 -240.768 
" style="stroke: #000000"/>
    </defs>
    <g>
     <use xlink:href="#m22866828eb" x="0" y="576" style="stroke: #000000"/>
    </g>
   </g>
  </g>
 </g>
 <defs>
  <clipPath id="pea72d169dd">
   <rect x="72" y="69.12" width="106.285714" height="177.408"/>
  </clipPath>
  <clipPath id="p796badf661">
   <rect x="178.285714" y="69.12" width="42.514286" height="177.408"/>
  </clipPath>
  <clipPath id="p75b1531fd0">
   <rect x="369.6" y="69.12" width="106.285714" height="177.408"/>
  </clipPath>
  <clipPath id="p99f5a36ae0">
   <rect x="475.885714" y="69.12" width="42.514286" height="177.408"/>
  </clipPath>
  <clipPath id="p31713cc993">
   <rect x="72" y="335.232" width="106.285714" height="177.408"/>
  </clipPath>
  <clipPath id="p47a8ffd67f">
   <rect x="178.285714" y="335.232" width="42.514286" height="177.408"/>
  </clipPath>
  <clipPath id="p937fcaa406">
   <rect x="369.6" y="335.232" width="106.285714" height="177.408"/>
  </clipPath>
  <clipPath id="p6c36308e69">
   <rect x="475.885714" y="335.232" width="42.514286" height="177.408"/>
  </clipPath>
 </defs>
</svg>
