<?xml version="1.0" encoding="UTF-8"?>
<!DOCTYPE svg PUBLIC "-//W3C//DTD SVG 1.1//EN" "http://www.w3.org/Graphics/SVG/1.1/DTD/svg11.dtd">
<svg version="1.1" xmlns="http://www.w3.org/2000/svg" xmlns:xlink="http://www.w3.org/1999/xlink" x="0" y="0" width="350" height="250" viewBox="0, 0, 350, 250">
  <g id="Background">
    <rect x="0" y="0" width="350" height="250" fill="#FFFFFF"/>
  </g>
  <g id="Background">
    <path d="M0,0 L400,0 L400,250 L0,250 z" fill="#FFFFFF"/>
  </g>
  <g id="Background">
    <path d="M0,0 L300,0 L300,250 L0,250 z" fill="#FFFFFF"/>
  </g>
  <g id="Background">
    <path d="M0,-0 L267.9,-0 L267.9,121.65 L0,121.65 z" fill="#FFFFFF"/>
  </g>
  <g id="Layer_1">
    <g opacity="0.3">
      <path d="M53.513,165.44 C54.233,194.72 51.573,197.3 54.863,207.07 C56.573,212.15 59.963,222.18 69.053,225.99 C75.313,228.62 80.903,226.89 88.643,225.36 C107.693,221.6 123.553,222.25 137.963,222.84 C144.803,223.12 160.333,224.13 176.473,223.47 C181.063,223.28 186.193,222.94 190.663,219.69 C195.743,216 195.123,212.08 200.123,209.6 C204.713,207.32 210.853,207.84 214.983,210.23 C219.973,213.11 218.823,216.87 223.093,221.58 C229.763,228.95 241.923,230.12 249.443,229.15 C254.053,228.55 256.933,227.15 269.713,219.06 C287.403,207.86 296.563,201.25 306.203,193.2 C314.893,185.94 319.193,181.49 320.393,174.91 C321.043,171.32 320.683,167.58 319.043,162.93 C317.203,157.71 311.843,145.96 282.553,126.35 C259.253,110.71 250.533,110.05 247.433,109.93 C241.953,109.72 229.883,109.27 223.113,116.24 C220.013,119.43 219.063,123.1 213.653,126.33 C212.013,127.31 208.203,129.58 203.513,129.48 C196.473,129.33 194.493,123.97 186.623,120.02 C179.313,116.35 172.283,116.57 162.973,116.87 C148.253,117.34 146.633,121.58 136.623,120.02 C128.813,118.81 129.313,116.16 117.033,112.45 C111.723,110.85 104.243,109.12 95.413,108.67 C83.783,108.08 76.553,107.71 69.733,111.82 C61.133,117.02 58.343,126.24 56.223,133.27 C54.083,140.35 53.813,147.26 53.523,154.72 C53.343,159.31 53.453,162.48 53.523,165.44 z" fill="#E6E7E8"/>
      <path d="M53.563,165.44 C53.763,172.78 53.783,180.13 53.543,187.48 C53.453,192.96 52.803,198.52 54.103,203.9 C56.433,212.45 60.353,221.99 69.003,225.72 C75.943,228.79 83.433,225.9 90.493,224.72 C97.723,223.34 105.063,222.56 112.413,222.21 C134.443,221.27 156.453,224.25 178.483,222.99 C183.873,222.77 189.513,221.27 193.063,217 C195.293,214.19 196.893,210.32 200.603,209.03 C207.293,206.26 217.093,208.16 219.793,215.56 C224.503,228.05 240.873,231.01 252.573,228.31 C259.473,225.9 265.493,221.37 271.713,217.6 C284.093,209.71 296.273,201.45 307.413,191.87 C312.793,187.19 318.943,182.11 320.163,174.71 C323.083,153.99 295.963,136.1 280.983,125.81 C271.793,119.95 262.383,113.82 251.773,111 C248.253,110.16 244.533,110.28 240.933,110.35 C237.303,110.52 233.663,111.02 230.283,112.28 C226.893,113.51 223.853,115.62 221.773,118.57 C220.703,120.02 219.693,121.6 218.443,123 C214.623,127.06 209.213,129.95 203.503,129.95 C199.623,130.01 196.263,127.64 193.473,125.24 C184.303,117.03 174.413,116.77 162.753,117.36 C159.103,117.49 155.483,117.89 151.933,118.72 C148.413,119.51 144.843,120.81 141.043,120.8 C139.163,120.83 137.303,120.61 135.473,120.26 C129.963,119.27 125.533,115.46 120.213,113.89 C113.323,111.47 106.103,109.91 98.823,109.21 C88.223,108.68 75.983,106.55 67.163,113.89 C61.373,118.56 58.603,125.74 56.543,132.68 C53.353,143.25 53.463,154.5 53.563,165.44 L53.563,165.44 z M53.463,165.44 C53.293,154.48 53.133,143.21 56.263,132.61 C58.293,125.61 61.073,118.33 66.893,113.59 C75.793,106.11 88.153,108.14 98.873,108.6 C108.023,109.47 117.193,111.46 125.613,115.23 C128.923,116.8 131.963,118.85 135.643,119.39 C141.133,120.69 146.323,119.19 151.703,117.76 C155.313,116.92 159.023,116.51 162.713,116.39 C174.623,115.79 184.693,116.12 194.083,124.51 C196.813,126.84 199.803,129.03 203.523,129.01 C208.823,129.03 214.133,126.24 217.733,122.39 C218.933,121.05 219.913,119.52 221.013,118.02 C223.183,114.94 226.453,112.68 229.953,111.42 C233.473,110.11 237.203,109.61 240.893,109.44 C244.603,109.36 248.343,109.25 251.983,110.12 C262.733,112.99 272.223,119.14 281.463,125.09 C296.673,135.64 323.783,153.78 320.703,174.82 C319.443,182.38 313.193,187.52 307.723,192.25 C296.533,201.8 284.303,210.03 271.893,217.89 C265.603,221.66 259.683,226.23 252.693,228.69 C242.533,231.12 228.873,229.24 222.013,220.65 C220.233,218.48 219.493,215.73 218.043,213.4 C215.453,209.64 210.483,208.34 206.093,208.47 C194.993,209.07 197.123,216.68 189.273,221.02 C185.993,222.9 182.203,223.54 178.533,223.75 C156.463,225.15 134.483,222.19 112.453,222.93 C105.133,223.23 97.823,223.98 90.613,225.3 C83.493,226.46 75.863,229.3 68.843,226.14 C60.063,222.29 56.143,212.66 53.823,203.97 C52.543,198.56 53.223,192.95 53.343,187.47 C53.613,180.13 53.643,172.79 53.473,165.44 L53.463,165.44 z" fill="#231F20"/>
    </g>
    <g opacity="0.3">
      <path d="M126.494,171.11 C126.974,170.78 128.724,169.78 137.304,173 C144.074,175.54 147.464,176.81 148.794,178.68 C151.464,182.42 148.994,188.74 144.064,201.39 C141.164,208.83 139.424,211.58 136.634,214.01 C133.184,217.01 127.484,220.05 125.144,218.43 C123.514,217.29 124.474,214.53 125.144,209.6 C126.414,200.23 125.764,189.52 125.144,179.32 C124.904,175.3 124.594,172.42 126.494,171.12 z" fill="#959595"/>
      <path d="M126.464,171.07 C127.614,170.38 129.034,170.67 130.294,170.83 C134.114,171.54 137.764,172.95 141.414,174.23 C144.894,175.57 149.904,176.91 150.234,181.36 C150.394,182.72 150.234,184.05 149.994,185.34 C148.834,190.46 146.624,195.15 144.794,199.98 C142.804,204.72 141.224,209.88 137.474,213.6 C134.984,216.02 127.274,221.77 124.244,218.14 C123.354,216.55 123.934,214.63 124.104,213.06 C124.304,211.78 124.514,210.52 124.664,209.24 C125.634,201.58 125.394,193.85 125.214,186.13 C125.214,186.13 124.954,178.39 124.954,178.39 C124.984,175.97 124.254,172.74 126.474,171.06 L126.474,171.06 z M126.524,171.16 C124.404,172.85 125.144,176.01 125.224,178.39 C125.224,178.39 125.864,186.11 125.864,186.11 C126.464,193.84 126.694,201.67 125.694,209.39 C125.444,211.85 124.594,214.51 124.774,216.91 C124.874,218.06 125.994,218.52 127.194,218.41 C128.384,218.34 129.594,217.89 130.744,217.38 C135.404,215.27 139.414,211.74 141.484,206.98 C144.594,199.97 147.504,192.67 149.184,185.19 C150.634,178.31 146.574,177.08 141.184,174.81 C137.604,173.38 134.064,171.73 130.264,170.99 C129.044,170.81 127.634,170.51 126.524,171.15 L126.524,171.15 z" fill="#959595"/>
    </g>
    <g opacity="0.3">
      <path d="M254.193,171.75 C253.843,172.51 254.043,173.68 261.623,181.84 C268.543,189.28 269.943,190 270.403,192.56 C271.463,198.46 265.383,202.33 267.023,204.54 C268.783,206.91 277.303,204.58 283.243,202.02 C288.903,199.57 289.773,197.97 306.893,183.1 C312.093,178.58 315.023,176.11 314.323,173.64 C313.413,170.44 307.033,169.45 305.543,169.22 C297.273,167.95 295.013,172.06 285.273,172.37 C279.783,172.54 280.263,171.24 269.733,170.48 C261.803,169.9 255.253,169.43 254.193,171.74 z" fill="#959595"/>
      <path d="M254.243,171.77 C254.053,172.15 254.203,172.57 254.373,172.94 C254.933,174.07 255.773,175.04 256.563,176.02 C259.823,179.9 263.443,183.46 267.023,187.06 C269.853,189.64 271.793,192.28 270.643,196.28 C270.063,198.83 268.213,200.79 267.293,203.1 C266.683,204.84 268.893,205.16 270.193,205.15 C275.993,204.82 281.813,202.81 286.853,199.98 C291.743,196.76 297.743,190.68 302.243,186.82 C304.683,184.48 311.313,179.15 313.193,176.44 C316.603,171.28 307.223,169.9 303.813,169.57 C300.433,169.26 297.293,170.31 294.103,171.36 C289.243,172.92 283.823,173.46 278.863,172.11 C273.923,170.99 268.863,170.64 263.823,170.25 C261.313,170.12 258.743,169.94 256.273,170.49 C255.483,170.69 254.633,171.03 254.233,171.78 L254.233,171.78 z M254.143,171.72 C254.553,170.92 255.433,170.56 256.233,170.34 C258.713,169.74 261.303,169.92 263.833,169.95 C268.903,170.18 274.033,170.29 279.033,171.27 C283.943,172.44 289.023,171.87 293.793,170.35 C295.393,169.85 296.993,169.26 298.693,168.88 C302.083,168.06 305.643,168.52 308.973,169.42 C311.323,170.13 314.733,171.33 314.883,174.32 C314.703,177.13 312.103,178.84 310.313,180.61 C310.313,180.61 302.603,187.21 302.603,187.21 C297.373,191.52 292.583,196.33 287.043,200.25 C284.143,202.05 280.943,203.26 277.723,204.35 C275.283,205.12 272.783,205.81 270.193,205.91 C269.223,205.94 268.123,205.83 267.203,205.28 C265.443,204.02 266.833,201.84 267.653,200.49 C270.953,195.28 271.253,191.87 266.563,187.49 C263.113,183.77 259.673,180.03 256.433,176.12 C255.653,175.12 254.823,174.14 254.263,172.99 C254.093,172.61 253.933,172.14 254.143,171.73 L254.143,171.73 z" fill="#959595"/>
    </g>
    <g opacity="0.3">
      <path d="M127.624,165.85 C128.104,166.18 129.854,167.18 138.434,163.96 C145.204,161.42 148.594,160.15 149.924,158.28 C152.594,154.54 150.124,148.22 145.194,135.57 C142.294,128.13 140.554,125.38 137.764,122.95 C134.314,119.95 128.614,116.91 126.274,118.53 C124.644,119.67 125.604,122.43 126.274,127.36 C127.544,136.73 126.894,147.44 126.274,157.64 C126.034,161.66 125.724,164.54 127.624,165.84 z" fill="#959595"/>
      <path d="M127.654,165.81 C128.774,166.46 130.184,166.15 131.394,165.97 C135.194,165.23 138.734,163.58 142.314,162.15 C147.694,159.88 151.754,158.67 150.304,151.77 C148.624,144.29 145.724,136.98 142.604,129.98 C140.524,125.22 136.524,121.69 131.864,119.58 C130.714,119.08 129.504,118.62 128.314,118.55 C127.124,118.44 125.994,118.91 125.894,120.05 C125.704,122.46 126.564,125.11 126.814,127.57 C127.814,135.29 127.584,143.12 126.984,150.85 C126.984,150.85 126.344,158.57 126.344,158.57 C126.264,160.95 125.524,164.11 127.644,165.8 L127.644,165.8 z M127.594,165.89 C125.374,164.21 126.104,160.98 126.074,158.56 C126.074,158.56 126.334,150.82 126.334,150.82 C126.514,143.1 126.754,135.37 125.784,127.71 C125.634,126.44 125.424,125.17 125.224,123.89 C125.054,122.31 124.484,120.4 125.364,118.81 C128.384,115.17 136.124,120.96 138.594,123.35 C142.354,127.07 143.924,132.23 145.914,136.97 C147.744,141.79 149.954,146.48 151.114,151.61 C151.364,152.9 151.514,154.24 151.354,155.59 C151.014,160.05 146.014,161.38 142.534,162.72 C138.884,164 135.234,165.41 131.414,166.12 C130.154,166.28 128.744,166.57 127.584,165.88 L127.584,165.88 z" fill="#959595"/>
    </g>
    <g opacity="0.3">
      <path d="M255.323,165.22 C254.973,164.46 255.173,163.29 262.753,155.13 C269.673,147.69 271.073,146.97 271.533,144.41 C272.593,138.51 266.513,134.64 268.153,132.43 C269.913,130.06 278.433,132.39 284.373,134.95 C290.033,137.4 290.903,139 308.023,153.87 C313.223,158.39 316.153,160.86 315.453,163.33 C314.543,166.53 308.163,167.52 306.673,167.75 C298.403,169.02 296.143,164.91 286.403,164.6 C280.913,164.43 281.393,165.73 270.863,166.49 C262.933,167.07 256.383,167.54 255.323,165.23 z" fill="#959595"/>
      <path d="M255.283,165.24 C255.073,164.83 255.233,164.35 255.403,163.98 C255.963,162.83 256.793,161.85 257.573,160.85 C260.813,156.94 264.253,153.2 267.703,149.48 C272.403,145.1 272.083,141.67 268.793,136.48 C267.973,135.13 266.573,132.95 268.343,131.69 C269.263,131.14 270.363,131.02 271.333,131.06 C273.913,131.15 276.423,131.85 278.863,132.62 C282.083,133.71 285.283,134.92 288.183,136.72 C293.723,140.65 298.513,145.45 303.743,149.76 C303.743,149.76 311.453,156.36 311.453,156.36 C313.253,158.12 315.833,159.84 316.023,162.65 C315.873,165.64 312.463,166.84 310.113,167.55 C306.783,168.44 303.233,168.91 299.833,168.09 C298.133,167.71 296.533,167.12 294.933,166.62 C290.163,165.1 285.083,164.53 280.173,165.7 C275.173,166.69 270.043,166.79 264.973,167.02 C262.443,167.05 259.853,167.24 257.373,166.63 C256.573,166.41 255.693,166.06 255.283,165.25 L255.283,165.25 z M255.373,165.2 C255.763,165.95 256.613,166.28 257.413,166.49 C259.883,167.04 262.453,166.87 264.963,166.73 C270.003,166.34 275.063,165.99 280.003,164.87 C284.963,163.52 290.383,164.06 295.243,165.62 C298.433,166.67 301.573,167.73 304.953,167.41 C308.393,167.09 317.733,165.7 314.333,160.54 C312.483,157.87 305.823,152.48 303.383,150.16 C298.843,146.29 292.903,140.24 287.993,137 C282.943,134.17 277.133,132.16 271.333,131.82 C270.023,131.8 267.823,132.14 268.433,133.87 C269.353,136.18 271.213,138.13 271.783,140.69 C272.943,144.7 270.993,147.32 268.163,149.9 C265.773,152.29 263.393,154.69 261.073,157.15 C259.103,159.33 256.963,161.45 255.513,164.01 C255.343,164.38 255.193,164.81 255.383,165.18 L255.383,165.18 z" fill="#959595"/>
    </g>
    <g opacity="0.3">
      <path d="M170.073,171.57 C169.993,172.13 172.163,173.56 176.483,176.4 C178.063,177.44 179.783,178.51 180.883,179.14 C188.393,183.48 198.253,185.6 203.853,189.23 C213.533,195.5 207.353,204.24 216.693,213.2 C224.873,221.04 239.913,224.23 252.503,219.51 C264.603,214.97 269.583,204.92 270.743,202.48 C272.483,198.82 276.133,191.15 272.773,182.93 C269.593,175.15 262.093,171.64 259.263,170.31 C254.013,167.85 249.053,167.27 241.023,167.16 C227.783,166.97 219.773,168.23 210.613,169.05 C187.313,171.15 170.393,169.16 170.073,171.57 z" fill="#9B8579"/>
      <path d="M170.123,171.57 C170.153,171.86 170.463,172.1 170.693,172.32 C171.463,172.97 172.313,173.53 173.143,174.1 C173.143,174.1 176.533,176.32 176.533,176.32 C183.243,181.03 191.033,183.36 198.633,186.25 C209.753,190.61 209.473,194.73 212.033,205.03 C216.583,218.07 232.873,222.91 245.493,221.12 C256.243,219.71 265.733,212.44 270.333,202.69 C277.733,188.58 272.793,176.4 258.233,170.38 C253.303,168.21 247.883,167.84 242.553,167.7 C229.023,167.13 215.693,169.4 202.153,169.98 C194.043,170.36 185.933,170.23 177.823,170.32 C175.483,170.42 173.063,170.28 170.803,170.96 C170.503,171.07 170.173,171.25 170.113,171.57 L170.113,171.57 z M170.023,171.56 C170.243,170.83 171.143,170.76 171.753,170.6 C173.753,170.25 175.793,170.23 177.823,170.16 C185.703,170.04 194.313,169.88 202.113,169.34 C215.543,168.4 229.003,166.12 242.573,166.67 C248.003,166.78 253.593,167.24 258.623,169.49 C273.553,175.74 278.643,188.51 270.823,202.95 C266.073,212.83 256.383,219.95 245.533,221.48 C232.613,223.36 215.933,218.78 211.183,205.32 C208.503,195.08 209.333,191.48 198.373,186.85 C190.893,183.82 183.093,181.2 176.423,176.48 C176.423,176.48 173.053,174.23 173.053,174.23 C172.223,173.65 171.373,173.09 170.603,172.42 C170.373,172.18 170.053,171.98 170.003,171.58 L170.003,171.58 z" fill="#231F20"/>
    </g>
    <g opacity="0.3">
      <path d="M171.203,165.4 C171.123,164.84 173.293,163.41 177.613,160.57 C179.193,159.53 180.913,158.46 182.013,157.83 C189.523,153.49 199.383,151.37 204.983,147.74 C214.663,141.47 208.483,132.73 217.823,123.77 C226.003,115.93 241.043,112.74 253.633,117.46 C265.733,122 270.713,132.05 271.873,134.49 C273.613,138.15 277.263,145.82 273.903,154.04 C270.723,161.82 263.223,165.33 260.393,166.66 C255.143,169.12 250.183,169.7 242.153,169.81 C228.913,170 220.903,168.74 211.743,167.92 C188.443,165.82 171.523,167.81 171.203,165.4 z" fill="#9B8579"/>
      <path d="M171.153,165.4 C171.193,164.99 171.523,164.8 171.753,164.56 C172.523,163.9 173.373,163.33 174.203,162.75 C174.203,162.75 177.573,160.5 177.573,160.5 C184.243,155.77 192.033,153.15 199.523,150.13 C210.503,145.5 209.653,141.87 212.333,131.66 C217.083,118.19 233.753,113.62 246.683,115.5 C257.533,117.04 267.213,124.16 271.973,134.03 C279.773,148.46 274.743,161.21 259.773,167.49 C254.743,169.74 249.153,170.21 243.723,170.31 C230.153,170.86 216.693,168.58 203.263,167.64 C195.473,167.09 186.823,166.94 178.973,166.82 C176.623,166.7 174.183,166.82 171.923,166.11 C171.623,165.99 171.253,165.8 171.173,165.42 L171.173,165.42 z M171.253,165.39 C171.313,165.7 171.643,165.88 171.943,165.99 C174.203,166.67 176.623,166.53 178.963,166.63 C187.073,166.72 195.183,166.59 203.293,166.97 C216.833,167.55 230.163,169.82 243.693,169.25 C249.023,169.11 254.453,168.73 259.373,166.57 C273.903,160.58 278.883,148.38 271.473,134.26 C266.873,124.51 257.383,117.24 246.633,115.83 C234.013,114.04 217.723,118.89 213.173,131.92 C210.613,142.25 210.873,146.34 199.773,150.7 C192.173,153.59 184.383,155.92 177.673,160.63 C177.673,160.63 174.283,162.85 174.283,162.85 C173.313,163.62 171.783,164.28 171.263,165.38 L171.263,165.38 z" fill="#231F20"/>
    </g>
    <g opacity="0.3">
      <path d="M75.144,169.22 C69.134,171.53 61.724,176.88 58.924,185.62 C56.024,194.69 58.744,205.32 66.354,211.48 C73.424,217.2 82.004,216.87 90.674,216.53 C99.254,216.19 110.174,215.76 117.704,207.7 C122.304,202.77 125.544,195.09 123.784,186.88 C121.404,175.77 111.354,170.69 109.594,169.85 C103.594,166.97 97.964,167.11 89.324,167.33 C82.894,167.49 79.404,167.58 75.134,169.22 z" fill="#9B8579"/>
      <path d="M75.154,169.27 C59.464,175.27 52.974,193.36 62.904,207.3 C70.454,217.82 83.394,216.85 94.914,216.15 C102.564,215.71 110.684,213.99 116.334,208.51 C124.984,200.39 126.444,186.52 118.514,177.39 C109.474,166.91 99.384,167.26 86.664,167.53 C82.774,167.58 78.814,167.82 75.164,169.26 L75.164,169.26 z M75.124,169.18 C78.774,167.69 82.754,167.43 86.654,167.27 C94.414,167.04 102.694,165.95 109.924,169.49 C117.044,172.94 123.024,179.49 124.414,187.43 C126.704,199.45 118.224,211.75 106.544,214.76 C98.944,216.86 91.004,216.7 83.194,216.85 C75.234,216.92 67.154,214.44 62.234,207.8 C51.754,193.43 59.104,175.19 75.114,169.18 L75.114,169.18 z" fill="#231F20"/>
    </g>
    <g opacity="0.3">
      <path d="M76.274,167.74 C70.264,165.43 62.854,160.08 60.054,151.34 C57.154,142.27 59.874,131.64 67.484,125.48 C74.554,119.76 83.134,120.09 91.804,120.43 C100.384,120.77 111.304,121.2 118.834,129.26 C123.434,134.19 126.674,141.87 124.914,150.08 C122.534,161.19 112.484,166.27 110.724,167.11 C104.724,169.99 99.094,169.85 90.454,169.63 C84.024,169.47 80.534,169.38 76.264,167.74 z" fill="#9B8579"/>
      <path d="M76.254,167.79 C68.984,164.95 62.534,159.3 59.884,151.8 C55.694,140.57 61.294,126.36 72.744,122.06 C78.314,119.89 84.344,120.01 90.194,120.22 C96.064,120.43 101.984,120.56 107.674,122.21 C121.604,125.85 130.214,141.97 123.684,155.22 C121.074,160.61 116.394,164.86 111.054,167.48 C103.814,171.02 95.544,169.92 87.784,169.7 C83.884,169.54 79.904,169.28 76.254,167.79 L76.254,167.79 z M76.294,167.69 C79.944,169.13 83.904,169.37 87.794,169.42 C91.694,169.45 95.614,169.57 99.494,169.34 C110.964,169.07 122.354,160.88 124.524,149.35 C125.994,141.79 122.994,133.72 117.464,128.45 C111.814,122.97 103.684,121.25 96.044,120.81 C84.534,120.11 71.584,119.14 64.034,129.66 C54.104,143.6 60.584,161.68 76.294,167.69 L76.294,167.69 z" fill="#231F20"/>
    </g>
    <g opacity="0.3">
      <path d="M156.224,172.38 C152.524,173.53 143.094,176.44 138.654,185.63 C138.204,186.56 134.144,195.34 138.654,204.55 C142.724,212.87 151.034,215.9 156.224,217.8 C160.034,219.19 172.684,223.81 185.274,217.8 C194.544,213.38 198.564,205.68 200.134,202.66 C202.414,198.3 203.634,195.96 202.834,193.2 C201.264,187.75 194.064,188.23 183.914,179.95 C178.504,175.54 179.004,174.14 175.134,172.38 C167.474,168.9 159.154,171.47 156.214,172.38 z" fill="#9B8579"/>
      <path d="M156.234,172.42 C149.084,174.47 142.124,178.75 138.964,185.7 C135.984,192.46 136.264,200.75 140.524,206.9 C144.724,213.25 152.144,216.29 159.134,218.6 C166.234,220.89 174.114,221.45 181.254,219.05 C190.544,216.15 196.864,208.91 200.814,200.27 C204.424,193.72 202.194,190.59 195.794,187.8 C190.654,185.41 185.704,182.38 181.564,178.44 C180.144,177.17 178.974,175.61 177.674,174.34 C171.724,169.54 163.144,170.23 156.234,172.41 L156.234,172.41 z M156.204,172.33 C163.224,170.06 171.854,169.17 178.104,173.86 C183.194,179.51 189.374,183.77 196.234,186.88 C197.914,187.73 199.694,188.48 201.214,189.8 C204.794,192.79 203.674,197.23 201.684,200.72 C199.194,205.84 196.024,210.77 191.474,214.31 C187.004,217.87 181.504,220.08 175.834,220.74 C168.254,221.63 160.684,219.83 153.664,217.05 C148.334,215.09 143.144,212.15 139.824,207.37 C135.324,201.04 135.034,192.33 138.384,185.42 C141.854,178.47 148.954,174.35 156.184,172.32 L156.184,172.32 z" fill="#231F20"/>
    </g>
    <g opacity="0.3">
      <path d="M157.354,164.59 C153.654,163.44 144.224,160.53 139.784,151.34 C139.334,150.41 135.274,141.63 139.784,132.42 C143.854,124.1 152.164,121.07 157.354,119.17 C161.164,117.78 173.814,113.16 186.404,119.17 C195.674,123.59 199.694,131.29 201.264,134.31 C203.544,138.67 204.764,141.01 203.964,143.77 C202.394,149.22 195.194,148.74 185.044,157.02 C179.634,161.43 180.134,162.83 176.264,164.59 C168.604,168.07 160.284,165.5 157.344,164.59 z" fill="#9B8579"/>
      <path d="M157.344,164.63 C150.114,162.6 143.004,158.48 139.544,151.53 C136.184,144.63 136.474,135.92 140.984,129.58 C144.304,124.8 149.494,121.86 154.824,119.9 C161.844,117.12 169.414,115.32 176.994,116.21 C182.664,116.87 188.164,119.08 192.634,122.64 C197.184,126.18 200.354,131.12 202.844,136.23 C204.824,139.71 205.974,144.16 202.374,147.15 C200.844,148.47 199.074,149.22 197.394,150.07 C190.534,153.19 184.354,157.44 179.264,163.09 C173.014,167.79 164.374,166.89 157.364,164.62 L157.364,164.62 z M157.364,164.54 C164.264,166.73 172.854,167.41 178.804,162.61 C180.104,161.35 181.274,159.78 182.694,158.51 C186.824,154.57 191.784,151.54 196.924,149.15 C207.424,144.74 203.534,139.5 199.304,131.72 C195.534,125.3 189.534,120.14 182.384,117.89 C175.244,115.5 167.364,116.06 160.264,118.34 C153.274,120.65 145.854,123.69 141.654,130.04 C137.404,136.2 137.124,144.49 140.094,151.24 C143.254,158.19 150.214,162.47 157.364,164.52 L157.364,164.52 z" fill="#231F20"/>
    </g>
  </g>
</svg>
